<svg width="500" height="348" viewBox="0 0 500 348" fill="none" xmlns="http://www.w3.org/2000/svg">
<g clip-path="url(#clip0_1232_64077)">
<g filter="url(#filter0_dd_1232_64077)">
<rect x="152" y="28" width="209" height="301" rx="9.94677" fill="white"/>
<rect x="152.622" y="28.6217" width="207.757" height="299.757" rx="9.3251" stroke="#2680C2" stroke-width="1.24335"/>
<path d="M215.31 64.7159C217.405 64.7159 219.42 65.0672 221.356 65.7699C223.305 66.4725 225.041 67.5928 226.566 69.1307C228.104 70.6686 229.317 72.7102 230.205 75.2557C231.107 77.7879 231.564 80.8968 231.577 84.5824C231.577 88.0426 231.186 91.1316 230.404 93.8494C229.635 96.554 228.528 98.8542 227.083 100.75C225.638 102.646 223.895 104.091 221.853 105.085C219.811 106.066 217.531 106.557 215.012 106.557C212.294 106.557 209.895 106.033 207.813 104.986C205.732 103.925 204.055 102.487 202.782 100.67C201.522 98.8409 200.76 96.786 200.495 94.5057H208.987C209.318 95.9905 210.014 97.1439 211.075 97.9659C212.135 98.7746 213.448 99.179 215.012 99.179C217.664 99.179 219.679 98.0256 221.058 95.7188C222.436 93.3987 223.132 90.2235 223.146 86.1932H222.867C222.257 87.3864 221.435 88.4138 220.401 89.2756C219.367 90.1241 218.181 90.7803 216.842 91.2443C215.516 91.7083 214.104 91.9403 212.606 91.9403C210.206 91.9403 208.065 91.3769 206.183 90.25C204.3 89.1231 202.815 87.572 201.728 85.5966C200.641 83.6212 200.097 81.3674 200.097 78.8352C200.084 76.1042 200.714 73.6714 201.987 71.5369C203.259 69.4025 205.036 67.732 207.316 66.5256C209.61 65.3059 212.274 64.7026 215.31 64.7159ZM215.37 71.4773C214.031 71.4773 212.838 71.7955 211.79 72.4318C210.756 73.0682 209.934 73.9233 209.325 74.9972C208.728 76.071 208.436 77.2708 208.45 78.5966C208.45 79.9356 208.741 81.142 209.325 82.2159C209.921 83.2765 210.73 84.125 211.751 84.7614C212.785 85.3845 213.965 85.696 215.29 85.696C216.285 85.696 217.206 85.5104 218.055 85.1392C218.903 84.768 219.639 84.2576 220.262 83.608C220.898 82.9451 221.396 82.1828 221.754 81.321C222.112 80.4593 222.29 79.5445 222.29 78.5767C222.277 77.2907 221.972 76.1108 221.376 75.0369C220.779 73.9631 219.957 73.1013 218.91 72.4517C217.862 71.8021 216.683 71.4773 215.37 71.4773ZM242.575 101.267C241.262 101.267 240.135 100.803 239.194 99.875C238.266 98.947 237.802 97.8201 237.802 96.4943C237.802 95.1951 238.266 94.0814 239.194 93.1534C240.135 92.2254 241.262 91.7614 242.575 91.7614C243.847 91.7614 244.961 92.2254 245.915 93.1534C246.87 94.0814 247.347 95.1951 247.347 96.4943C247.347 97.3693 247.122 98.1714 246.671 98.9006C246.234 99.6165 245.657 100.193 244.941 100.631C244.225 101.055 243.436 101.267 242.575 101.267ZM242.575 81.2812C241.262 81.2812 240.135 80.8172 239.194 79.8892C238.266 78.9612 237.802 77.8343 237.802 76.5085C237.802 75.2093 238.266 74.1023 239.194 73.1875C240.135 72.2595 241.262 71.7955 242.575 71.7955C243.847 71.7955 244.961 72.2595 245.915 73.1875C246.87 74.1023 247.347 75.2093 247.347 76.5085C247.347 77.3968 247.122 78.2055 246.671 78.9347C246.234 79.6506 245.657 80.2206 244.941 80.6449C244.225 81.0691 243.436 81.2812 242.575 81.2812ZM253.607 98.8409V92.0597L270.609 65.2727H276.456V74.6591H272.996L262.277 91.6222V91.9403H286.439V98.8409H253.607ZM273.155 106V96.7727L273.314 93.7699V65.2727H281.388V106H273.155ZM309.348 65.2727V106H300.737V73.446H300.499L291.172 79.2926V71.6562L301.254 65.2727H309.348Z" fill="#486581"/>
<g filter="url(#filter1_d_1232_64077)">
<rect x="168" y="135" width="177" height="53.0237" rx="3.47895" fill="#FAFCFE" shape-rendering="crispEdges"/>
<rect x="168.217" y="135.217" width="176.565" height="52.5888" rx="3.26152" stroke="#C9D4DE" stroke-width="0.434869" shape-rendering="crispEdges"/>
<path fill-rule="evenodd" clip-rule="evenodd" d="M187.367 145.691C187.446 145.768 187.446 145.896 187.367 145.974L186.942 146.393C186.865 146.469 186.74 146.469 186.663 146.393L184.33 144.089C184.193 143.954 183.972 143.954 183.835 144.089L178.01 149.841C177.873 149.976 177.873 150.195 178.01 150.33L183.835 156.081C183.972 156.216 184.193 156.216 184.33 156.081L190.155 150.33C190.158 150.326 190.162 150.322 190.165 150.319L190.895 149.598C190.988 149.507 191.142 149.528 191.184 149.65C191.347 150.117 191.24 150.656 190.862 151.028L185.037 156.78C184.51 157.301 183.655 157.301 183.127 156.78L177.302 151.028C176.775 150.507 176.775 149.663 177.302 149.142L183.127 143.391C183.655 142.87 184.51 142.87 185.037 143.391L187.367 145.691ZM190.861 147.205C190.952 147.295 190.952 147.441 190.861 147.531L184.307 154.003C184.216 154.093 184.068 154.093 183.977 154.003L182.941 152.98C182.919 152.958 182.902 152.934 182.891 152.907L180.153 150.204C180.062 150.114 180.062 149.968 180.153 149.878L181.189 148.855C181.28 148.765 181.428 148.765 181.519 148.855L184.154 151.457L189.495 146.182C189.586 146.092 189.734 146.092 189.825 146.182L190.861 147.205Z" fill="#2680C2"/>
<path d="M200.963 153.085V147.267H204.474V147.892H201.667V149.858H204.292V150.483H201.667V152.46H204.519V153.085H200.963ZM205.982 147.267L207.71 152.165H207.778L209.505 147.267H210.244L208.107 153.085H207.38L205.244 147.267H205.982ZM211.15 153.085V147.267H214.661V147.892H211.855V149.858H214.48V150.483H211.855V152.46H214.707V153.085H211.15ZM220.545 147.267V153.085H219.863L216.693 148.517H216.636V153.085H215.931V147.267H216.613L219.795 151.847H219.852V147.267H220.545ZM221.637 147.892V147.267H226V147.892H224.171V153.085H223.466V147.892H221.637ZM229.338 153.085V147.267H231.304C231.758 147.267 232.131 147.345 232.423 147.5C232.714 147.653 232.93 147.865 233.071 148.134C233.211 148.402 233.281 148.708 233.281 149.051C233.281 149.394 233.211 149.698 233.071 149.963C232.93 150.228 232.715 150.437 232.426 150.588C232.136 150.738 231.766 150.812 231.315 150.812H229.724V150.176H231.292C231.603 150.176 231.853 150.131 232.042 150.04C232.233 149.949 232.372 149.82 232.457 149.653C232.544 149.485 232.588 149.284 232.588 149.051C232.588 148.818 232.544 148.615 232.457 148.44C232.37 148.266 232.231 148.132 232.039 148.037C231.848 147.94 231.595 147.892 231.281 147.892H230.042V153.085H229.338ZM232.076 150.472L233.508 153.085H232.69L231.281 150.472H232.076ZM234.455 153.085V147.267H237.966V147.892H235.159V149.858H237.784V150.483H235.159V152.46H238.012V153.085H234.455ZM239.236 147.267H240.077L242.054 152.097H242.122L244.1 147.267H244.941V153.085H244.281V148.665H244.225L242.406 153.085H241.77L239.952 148.665H239.895V153.085H239.236V147.267ZM247.058 147.267V153.085H246.353V147.267H247.058ZM253.084 147.267V153.085H252.402L249.232 148.517H249.175V153.085H248.47V147.267H249.152L252.334 151.847H252.391V147.267H253.084ZM256.289 153.085H254.494V147.267H256.369C256.933 147.267 257.416 147.384 257.818 147.616C258.219 147.848 258.527 148.18 258.741 148.614C258.955 149.045 259.062 149.562 259.062 150.165C259.062 150.771 258.954 151.293 258.738 151.73C258.522 152.166 258.208 152.501 257.795 152.736C257.382 152.969 256.88 153.085 256.289 153.085ZM255.198 152.46H256.244C256.725 152.46 257.124 152.367 257.44 152.182C257.756 151.996 257.992 151.732 258.147 151.389C258.303 151.046 258.38 150.638 258.38 150.165C258.38 149.695 258.304 149.291 258.15 148.952C257.997 148.611 257.768 148.349 257.463 148.168C257.158 147.984 256.778 147.892 256.323 147.892H255.198V152.46ZM260.244 153.085V147.267H263.755V147.892H260.948V149.858H263.573V150.483H260.948V152.46H263.801V153.085H260.244ZM265.025 153.085V147.267H266.991C267.446 147.267 267.819 147.345 268.11 147.5C268.402 147.653 268.618 147.865 268.758 148.134C268.898 148.402 268.968 148.708 268.968 149.051C268.968 149.394 268.898 149.698 268.758 149.963C268.618 150.228 268.403 150.437 268.113 150.588C267.823 150.738 267.453 150.812 267.002 150.812H265.411V150.176H266.98C267.29 150.176 267.54 150.131 267.73 150.04C267.921 149.949 268.059 149.82 268.144 149.653C268.232 149.485 268.275 149.284 268.275 149.051C268.275 148.818 268.232 148.615 268.144 148.44C268.057 148.266 267.918 148.132 267.727 148.037C267.536 147.94 267.283 147.892 266.968 147.892H265.73V153.085H265.025ZM267.764 150.472L269.196 153.085H268.377L266.968 150.472H267.764Z" fill="black"/>
<rect x="176.906" y="166.077" width="157.211" height="4.97338" rx="2.48669" fill="#D9E2EC"/>
<rect x="176.906" y="175.05" width="137.746" height="4.97338" rx="2.48669" fill="#D9E2EC"/>
</g>
<g filter="url(#filter2_d_1232_64077)">
<rect x="168" y="204.024" width="177" height="53.0237" rx="3.47895" fill="#FAFCFE" shape-rendering="crispEdges"/>
<rect x="168.217" y="204.241" width="176.565" height="52.5888" rx="3.26152" stroke="#C9D4DE" stroke-width="0.434869" shape-rendering="crispEdges"/>
<path fill-rule="evenodd" clip-rule="evenodd" d="M187.367 214.714C187.446 214.792 187.446 214.919 187.367 214.997L186.942 215.417C186.865 215.493 186.74 215.493 186.663 215.417L184.33 213.113C184.193 212.978 183.972 212.978 183.835 213.113L178.01 218.865C177.873 219 177.873 219.218 178.01 219.353L183.835 225.105C183.972 225.24 184.193 225.24 184.33 225.105L190.155 219.353C190.158 219.35 190.162 219.346 190.165 219.342L190.895 218.622C190.988 218.53 191.142 218.551 191.184 218.674C191.347 219.141 191.24 219.679 190.862 220.052L185.037 225.803C184.51 226.324 183.655 226.324 183.127 225.803L177.302 220.052C176.775 219.531 176.775 218.687 177.302 218.166L183.127 212.414C183.655 211.893 184.51 211.893 185.037 212.414L187.367 214.714ZM190.861 216.229C190.952 216.319 190.952 216.465 190.861 216.555L184.307 223.027C184.216 223.117 184.068 223.117 183.977 223.027L182.941 222.004C182.919 221.982 182.902 221.957 182.891 221.931L180.153 219.228C180.062 219.138 180.062 218.992 180.153 218.902L181.189 217.879C181.28 217.789 181.428 217.789 181.519 217.879L184.154 220.48L189.495 215.206C189.586 215.116 189.734 215.116 189.825 215.206L190.861 216.229Z" fill="#2680C2"/>
<path d="M200.963 222.109V216.291H204.474V216.916H201.667V218.882H204.292V219.507H201.667V221.484H204.519V222.109H200.963ZM205.982 216.291L207.71 221.188H207.778L209.505 216.291H210.244L208.107 222.109H207.38L205.244 216.291H205.982ZM211.15 222.109V216.291H214.661V216.916H211.855V218.882H214.48V219.507H211.855V221.484H214.707V222.109H211.15ZM220.545 216.291V222.109H219.863L216.693 217.541H216.636V222.109H215.931V216.291H216.613L219.795 220.87H219.852V216.291H220.545ZM221.637 216.916V216.291H226V216.916H224.171V222.109H223.466V216.916H221.637ZM229.338 222.109V216.291H231.304C231.758 216.291 232.131 216.368 232.423 216.524C232.714 216.677 232.93 216.888 233.071 217.157C233.211 217.426 233.281 217.732 233.281 218.075C233.281 218.418 233.211 218.722 233.071 218.987C232.93 219.252 232.715 219.46 232.426 219.612C232.136 219.761 231.766 219.836 231.315 219.836H229.724V219.2H231.292C231.603 219.2 231.853 219.154 232.042 219.063C232.233 218.973 232.372 218.844 232.457 218.677C232.544 218.509 232.588 218.308 232.588 218.075C232.588 217.842 232.544 217.638 232.457 217.464C232.37 217.29 232.231 217.155 232.039 217.061C231.848 216.964 231.595 216.916 231.281 216.916H230.042V222.109H229.338ZM232.076 219.495L233.508 222.109H232.69L231.281 219.495H232.076ZM234.455 222.109V216.291H237.966V216.916H235.159V218.882H237.784V219.507H235.159V221.484H238.012V222.109H234.455ZM239.236 216.291H240.077L242.054 221.12H242.122L244.1 216.291H244.941V222.109H244.281V217.688H244.225L242.406 222.109H241.77L239.952 217.688H239.895V222.109H239.236V216.291ZM247.058 216.291V222.109H246.353V216.291H247.058ZM253.084 216.291V222.109H252.402L249.232 217.541H249.175V222.109H248.47V216.291H249.152L252.334 220.87H252.391V216.291H253.084ZM256.289 222.109H254.494V216.291H256.369C256.933 216.291 257.416 216.407 257.818 216.64C258.219 216.871 258.527 217.204 258.741 217.637C258.955 218.069 259.062 218.586 259.062 219.188C259.062 219.794 258.954 220.316 258.738 220.754C258.522 221.189 258.208 221.525 257.795 221.759C257.382 221.992 256.88 222.109 256.289 222.109ZM255.198 221.484H256.244C256.725 221.484 257.124 221.391 257.44 221.205C257.756 221.02 257.992 220.756 258.147 220.413C258.303 220.07 258.38 219.662 258.38 219.188C258.38 218.719 258.304 218.314 258.15 217.975C257.997 217.634 257.768 217.373 257.463 217.191C257.158 217.008 256.778 216.916 256.323 216.916H255.198V221.484ZM260.244 222.109V216.291H263.755V216.916H260.948V218.882H263.573V219.507H260.948V221.484H263.801V222.109H260.244ZM265.025 222.109V216.291H266.991C267.446 216.291 267.819 216.368 268.11 216.524C268.402 216.677 268.618 216.888 268.758 217.157C268.898 217.426 268.968 217.732 268.968 218.075C268.968 218.418 268.898 218.722 268.758 218.987C268.618 219.252 268.403 219.46 268.113 219.612C267.823 219.761 267.453 219.836 267.002 219.836H265.411V219.2H266.98C267.29 219.2 267.54 219.154 267.73 219.063C267.921 218.973 268.059 218.844 268.144 218.677C268.232 218.509 268.275 218.308 268.275 218.075C268.275 217.842 268.232 217.638 268.144 217.464C268.057 217.29 267.918 217.155 267.727 217.061C267.536 216.964 267.283 216.916 266.968 216.916H265.73V222.109H265.025ZM267.764 219.495L269.196 222.109H268.377L266.968 219.495H267.764Z" fill="black"/>
<rect x="176.906" y="235.101" width="159.188" height="4.97338" rx="2.48669" fill="#D9E2EC"/>
<rect x="176.906" y="244.074" width="139.285" height="4.97338" rx="2.48669" fill="#D9E2EC"/>
</g>
</g>
</g>
<defs>
<filter id="filter0_dd_1232_64077" x="139.411" y="28" width="234.178" height="326.178" filterUnits="userSpaceOnUse" color-interpolation-filters="sRGB">
<feFlood flood-opacity="0" result="BackgroundImageFix"/>
<feColorMatrix in="SourceAlpha" type="matrix" values="0 0 0 0 0 0 0 0 0 0 0 0 0 0 0 0 0 0 127 0" result="hardAlpha"/>
<feMorphology radius="2.09815" operator="erode" in="SourceAlpha" result="effect1_dropShadow_1232_64077"/>
<feOffset dy="4.19629"/>
<feGaussianBlur stdDeviation="3.14722"/>
<feComposite in2="hardAlpha" operator="out"/>
<feColorMatrix type="matrix" values="0 0 0 0 0 0 0 0 0 0 0 0 0 0 0 0 0 0 0.03 0"/>
<feBlend mode="normal" in2="BackgroundImageFix" result="effect1_dropShadow_1232_64077"/>
<feColorMatrix in="SourceAlpha" type="matrix" values="0 0 0 0 0 0 0 0 0 0 0 0 0 0 0 0 0 0 127 0" result="hardAlpha"/>
<feMorphology radius="4.19629" operator="erode" in="SourceAlpha" result="effect2_dropShadow_1232_64077"/>
<feOffset dy="12.5889"/>
<feGaussianBlur stdDeviation="8.39259"/>
<feComposite in2="hardAlpha" operator="out"/>
<feColorMatrix type="matrix" values="0 0 0 0 0 0 0 0 0 0 0 0 0 0 0 0 0 0 0.08 0"/>
<feBlend mode="normal" in2="effect1_dropShadow_1232_64077" result="effect2_dropShadow_1232_64077"/>
<feBlend mode="normal" in="SourceGraphic" in2="effect2_dropShadow_1232_64077" result="shape"/>
</filter>
<filter id="filter1_d_1232_64077" x="167.13" y="134.565" width="178.739" height="54.7632" filterUnits="userSpaceOnUse" color-interpolation-filters="sRGB">
<feFlood flood-opacity="0" result="BackgroundImageFix"/>
<feColorMatrix in="SourceAlpha" type="matrix" values="0 0 0 0 0 0 0 0 0 0 0 0 0 0 0 0 0 0 127 0" result="hardAlpha"/>
<feOffset dy="0.434869"/>
<feGaussianBlur stdDeviation="0.434869"/>
<feComposite in2="hardAlpha" operator="out"/>
<feColorMatrix type="matrix" values="0 0 0 0 0 0 0 0 0 0 0 0 0 0 0 0 0 0 0.04 0"/>
<feBlend mode="normal" in2="BackgroundImageFix" result="effect1_dropShadow_1232_64077"/>
<feBlend mode="normal" in="SourceGraphic" in2="effect1_dropShadow_1232_64077" result="shape"/>
</filter>
<filter id="filter2_d_1232_64077" x="167.13" y="203.589" width="178.739" height="54.7632" filterUnits="userSpaceOnUse" color-interpolation-filters="sRGB">
<feFlood flood-opacity="0" result="BackgroundImageFix"/>
<feColorMatrix in="SourceAlpha" type="matrix" values="0 0 0 0 0 0 0 0 0 0 0 0 0 0 0 0 0 0 127 0" result="hardAlpha"/>
<feOffset dy="0.434869"/>
<feGaussianBlur stdDeviation="0.434869"/>
<feComposite in2="hardAlpha" operator="out"/>
<feColorMatrix type="matrix" values="0 0 0 0 0 0 0 0 0 0 0 0 0 0 0 0 0 0 0.04 0"/>
<feBlend mode="normal" in2="BackgroundImageFix" result="effect1_dropShadow_1232_64077"/>
<feBlend mode="normal" in="SourceGraphic" in2="effect1_dropShadow_1232_64077" result="shape"/>
</filter>
<clipPath id="clip0_1232_64077">
<rect width="499.5" height="347.16" fill="white"/>
</clipPath>
</defs>
</svg>
