<svg width="500" height="348" viewBox="0 0 500 348" fill="none" xmlns="http://www.w3.org/2000/svg">
<g filter="url(#filter0_dd_1232_63130)">
<g clip-path="url(#clip0_1232_63130)">
<rect x="116.542" y="42.0425" width="266.416" height="263.075" rx="6.68127" fill="white"/>
<g clip-path="url(#clip1_1232_63130)">
<rect x="116.539" y="38.7014" width="268.921" height="25.8899" fill="#2680C2"/>
<rect x="159.966" y="94.4816" width="35.125" height="13.5535" stroke="#C9D4DE" stroke-width="0.20879"/>
<mask id="path-5-inside-1_1232_63130" fill="white">
<path d="M124.898 94.3772H160.231V108.139H124.898V94.3772Z"/>
</mask>
<path d="M124.898 94.3772V94.1684H124.689V94.3772H124.898ZM124.898 108.139H124.689V108.348H124.898V108.139ZM124.898 94.586H160.231V94.1684H124.898V94.586ZM160.231 107.931H124.898V108.348H160.231V107.931ZM125.106 108.139V94.3772H124.689V108.139H125.106Z" fill="#C9D4DE" mask="url(#path-5-inside-1_1232_63130)"/>
<rect x="195.068" y="94.4816" width="35.125" height="13.5535" stroke="#C9D4DE" stroke-width="0.20879"/>
<rect x="230.165" y="94.4816" width="35.125" height="13.5535" stroke="#C9D4DE" stroke-width="0.20879"/>
<rect x="265.271" y="94.4816" width="35.125" height="13.5535" stroke="#C9D4DE" stroke-width="0.20879"/>
<rect x="300.368" y="94.4816" width="35.125" height="13.5535" stroke="#C9D4DE" stroke-width="0.20879"/>
<rect x="230.231" y="94.4816" width="35.125" height="13.5535" fill="#E6F1FA" stroke="#C9D4DE" stroke-width="0.20879"/>
<rect x="230.127" y="64.9641" width="35.3337" height="29.4135" fill="#E6F1FA"/>
<rect x="335.469" y="94.4816" width="36.2872" height="13.5535" stroke="#C9D4DE" stroke-width="0.20879"/>
<rect x="159.966" y="107.975" width="35.125" height="13.2836" stroke="#C9D4DE" stroke-width="0.20879"/>
<mask id="path-15-inside-2_1232_63130" fill="white">
<path d="M124.898 107.871H160.231V121.364H124.898V107.871Z"/>
</mask>
<path d="M124.898 107.871V107.662H124.689V107.871H124.898ZM124.898 121.364H124.689V121.572H124.898V121.364ZM124.898 108.08H160.231V107.662H124.898V108.08ZM160.231 121.155H124.898V121.572H160.231V121.155ZM125.106 121.364V107.871H124.689V121.364H125.106Z" fill="#C9D4DE" mask="url(#path-15-inside-2_1232_63130)"/>
<rect x="195.068" y="107.975" width="35.125" height="13.2836" stroke="#C9D4DE" stroke-width="0.20879"/>
<rect x="230.165" y="107.975" width="35.125" height="13.2836" stroke="#C9D4DE" stroke-width="0.20879"/>
<rect x="265.271" y="107.975" width="35.125" height="13.2836" stroke="#C9D4DE" stroke-width="0.20879"/>
<rect x="300.368" y="107.975" width="35.125" height="13.2836" stroke="#C9D4DE" stroke-width="0.20879"/>
<rect x="230.231" y="107.975" width="35.125" height="13.2836" fill="#E6F1FA" stroke="#C9D4DE" stroke-width="0.20879"/>
<rect x="335.469" y="107.975" width="36.2872" height="13.2836" stroke="#C9D4DE" stroke-width="0.20879"/>
<rect x="159.966" y="121.197" width="35.125" height="13.5535" stroke="#C9D4DE" stroke-width="0.20879"/>
<mask id="path-24-inside-3_1232_63130" fill="white">
<path d="M124.898 121.093H160.231V134.855H124.898V121.093Z"/>
</mask>
<path d="M124.898 121.093V120.884H124.689V121.093H124.898ZM124.898 134.855H124.689V135.064H124.898V134.855ZM124.898 121.302H160.231V120.884H124.898V121.302ZM160.231 134.647H124.898V135.064H160.231V134.647ZM125.106 134.855V121.093H124.689V134.855H125.106Z" fill="#C9D4DE" mask="url(#path-24-inside-3_1232_63130)"/>
<rect x="195.068" y="121.197" width="35.125" height="13.5535" stroke="#C9D4DE" stroke-width="0.20879"/>
<rect x="230.165" y="121.197" width="35.125" height="13.5535" stroke="#C9D4DE" stroke-width="0.20879"/>
<rect x="265.271" y="121.197" width="35.125" height="13.5535" stroke="#C9D4DE" stroke-width="0.20879"/>
<rect x="300.368" y="121.197" width="35.125" height="13.5535" stroke="#C9D4DE" stroke-width="0.20879"/>
<rect x="230.231" y="121.197" width="35.125" height="13.5535" fill="#E6F1FA" stroke="#C9D4DE" stroke-width="0.20879"/>
<rect x="335.469" y="121.197" width="36.2872" height="13.5535" stroke="#C9D4DE" stroke-width="0.20879"/>
<rect x="159.966" y="134.69" width="35.125" height="13.5535" stroke="#C9D4DE" stroke-width="0.20879"/>
<mask id="path-33-inside-4_1232_63130" fill="white">
<path d="M124.898 134.585H160.231V148.347H124.898V134.585Z"/>
</mask>
<path d="M124.898 134.585V134.376H124.689V134.585H124.898ZM124.898 148.347H124.689V148.556H124.898V148.347ZM124.898 134.794H160.231V134.376H124.898V134.794ZM160.231 148.139H124.898V148.556H160.231V148.139ZM125.106 148.347V134.585H124.689V148.347H125.106Z" fill="#C9D4DE" mask="url(#path-33-inside-4_1232_63130)"/>
<rect x="195.068" y="134.69" width="35.125" height="13.5535" stroke="#C9D4DE" stroke-width="0.20879"/>
<rect x="230.165" y="134.69" width="35.125" height="13.5535" stroke="#C9D4DE" stroke-width="0.20879"/>
<rect x="265.271" y="134.69" width="35.125" height="13.5535" stroke="#C9D4DE" stroke-width="0.20879"/>
<rect x="300.368" y="134.69" width="35.125" height="13.5535" stroke="#C9D4DE" stroke-width="0.20879"/>
<rect x="230.231" y="134.69" width="35.125" height="13.5535" fill="#E6F1FA" stroke="#C9D4DE" stroke-width="0.20879"/>
<rect x="335.469" y="134.69" width="36.2872" height="13.5535" stroke="#C9D4DE" stroke-width="0.20879"/>
<rect x="159.966" y="148.182" width="35.125" height="13.5535" stroke="#C9D4DE" stroke-width="0.20879"/>
<mask id="path-42-inside-5_1232_63130" fill="white">
<path d="M124.898 148.077H160.231V161.84H124.898V148.077Z"/>
</mask>
<path d="M124.898 148.077V147.869H124.689V148.077H124.898ZM124.898 161.84H124.689V162.048H124.898V161.84ZM124.898 148.286H160.231V147.869H124.898V148.286ZM160.231 161.631H124.898V162.048H160.231V161.631ZM125.106 161.84V148.077H124.689V161.84H125.106Z" fill="#C9D4DE" mask="url(#path-42-inside-5_1232_63130)"/>
<rect x="195.068" y="148.182" width="35.125" height="13.5535" stroke="#C9D4DE" stroke-width="0.20879"/>
<rect x="230.165" y="148.182" width="35.125" height="13.5535" stroke="#C9D4DE" stroke-width="0.20879"/>
<rect x="265.271" y="148.182" width="35.125" height="13.5535" stroke="#C9D4DE" stroke-width="0.20879"/>
<rect x="300.368" y="148.182" width="35.125" height="13.5535" stroke="#C9D4DE" stroke-width="0.20879"/>
<rect x="230.231" y="148.182" width="35.125" height="13.5535" fill="#E6F1FA" stroke="#C9D4DE" stroke-width="0.20879"/>
<rect x="335.469" y="148.182" width="36.2872" height="13.5535" stroke="#C9D4DE" stroke-width="0.20879"/>
<rect x="159.966" y="161.676" width="35.125" height="13.5535" stroke="#C9D4DE" stroke-width="0.20879"/>
<mask id="path-51-inside-6_1232_63130" fill="white">
<path d="M124.898 161.572H160.231V175.334H124.898V161.572Z"/>
</mask>
<path d="M124.898 161.572V161.363H124.689V161.572H124.898ZM124.898 175.334H124.689V175.543H124.898V175.334ZM124.898 161.78H160.231V161.363H124.898V161.78ZM160.231 175.125H124.898V175.543H160.231V175.125ZM125.106 175.334V161.572H124.689V175.334H125.106Z" fill="#C9D4DE" mask="url(#path-51-inside-6_1232_63130)"/>
<rect x="195.068" y="161.676" width="35.125" height="13.5535" stroke="#C9D4DE" stroke-width="0.20879"/>
<rect x="230.165" y="161.676" width="35.125" height="13.5535" stroke="#C9D4DE" stroke-width="0.20879"/>
<rect x="265.271" y="161.676" width="35.125" height="13.5535" stroke="#C9D4DE" stroke-width="0.20879"/>
<rect x="300.368" y="161.676" width="35.125" height="13.5535" stroke="#C9D4DE" stroke-width="0.20879"/>
<rect x="230.231" y="161.676" width="35.125" height="13.5535" fill="#E6F1FA" stroke="#C9D4DE" stroke-width="0.20879"/>
<rect x="335.469" y="161.676" width="36.2872" height="13.5535" stroke="#C9D4DE" stroke-width="0.20879"/>
<rect x="159.966" y="175.167" width="35.125" height="13.5535" stroke="#C9D4DE" stroke-width="0.20879"/>
<mask id="path-60-inside-7_1232_63130" fill="white">
<path d="M124.898 175.063H160.231V188.825H124.898V175.063Z"/>
</mask>
<path d="M124.898 175.063V174.854H124.689V175.063H124.898ZM124.898 188.825H124.689V189.034H124.898V188.825ZM124.898 175.272H160.231V174.854H124.898V175.272ZM160.231 188.616H124.898V189.034H160.231V188.616ZM125.106 188.825V175.063H124.689V188.825H125.106Z" fill="#C9D4DE" mask="url(#path-60-inside-7_1232_63130)"/>
<rect x="195.068" y="175.167" width="35.125" height="13.5535" stroke="#C9D4DE" stroke-width="0.20879"/>
<rect x="230.165" y="175.167" width="35.125" height="13.5535" stroke="#C9D4DE" stroke-width="0.20879"/>
<rect x="265.271" y="175.167" width="35.125" height="13.5535" stroke="#C9D4DE" stroke-width="0.20879"/>
<rect x="300.368" y="175.167" width="35.125" height="13.5535" stroke="#C9D4DE" stroke-width="0.20879"/>
<rect x="230.231" y="175.167" width="35.125" height="13.5535" fill="#E6F1FA" stroke="#C9D4DE" stroke-width="0.20879"/>
<rect x="335.469" y="175.167" width="36.2872" height="13.5535" stroke="#C9D4DE" stroke-width="0.20879"/>
<rect x="159.966" y="188.66" width="35.125" height="13.5535" stroke="#C9D4DE" stroke-width="0.20879"/>
<mask id="path-69-inside-8_1232_63130" fill="white">
<path d="M124.898 188.556H160.231V202.318H124.898V188.556Z"/>
</mask>
<path d="M124.898 188.556V188.347H124.689V188.556H124.898ZM124.898 202.318H124.689V202.527H124.898V202.318ZM124.898 188.764H160.231V188.347H124.898V188.764ZM160.231 202.109H124.898V202.527H160.231V202.109ZM125.106 202.318V188.556H124.689V202.318H125.106Z" fill="#C9D4DE" mask="url(#path-69-inside-8_1232_63130)"/>
<rect x="195.068" y="188.66" width="35.125" height="13.5535" stroke="#C9D4DE" stroke-width="0.20879"/>
<rect x="230.165" y="188.66" width="35.125" height="13.5535" stroke="#C9D4DE" stroke-width="0.20879"/>
<rect x="265.271" y="188.66" width="35.125" height="13.5535" stroke="#C9D4DE" stroke-width="0.20879"/>
<rect x="300.368" y="188.66" width="35.125" height="13.5535" stroke="#C9D4DE" stroke-width="0.20879"/>
<rect x="230.231" y="188.66" width="35.125" height="13.5535" fill="#E6F1FA" stroke="#C9D4DE" stroke-width="0.20879"/>
<rect x="335.469" y="188.66" width="36.2872" height="13.5535" stroke="#C9D4DE" stroke-width="0.20879"/>
<rect x="159.966" y="202.152" width="35.125" height="13.5535" stroke="#C9D4DE" stroke-width="0.20879"/>
<mask id="path-78-inside-9_1232_63130" fill="white">
<path d="M124.898 202.048H160.231V215.81H124.898V202.048Z"/>
</mask>
<path d="M124.898 202.048V201.839H124.689V202.048H124.898ZM124.898 215.81H124.689V216.019H124.898V215.81ZM124.898 202.256H160.231V201.839H124.898V202.256ZM160.231 215.601H124.898V216.019H160.231V215.601ZM125.106 215.81V202.048H124.689V215.81H125.106Z" fill="#C9D4DE" mask="url(#path-78-inside-9_1232_63130)"/>
<rect x="195.068" y="202.152" width="35.125" height="13.5535" stroke="#C9D4DE" stroke-width="0.20879"/>
<rect x="230.165" y="202.152" width="35.125" height="13.5535" stroke="#C9D4DE" stroke-width="0.20879"/>
<rect x="265.271" y="202.152" width="35.125" height="13.5535" stroke="#C9D4DE" stroke-width="0.20879"/>
<rect x="300.368" y="202.152" width="35.125" height="13.5535" stroke="#C9D4DE" stroke-width="0.20879"/>
<rect x="230.231" y="202.152" width="35.125" height="13.5535" fill="#E6F1FA" stroke="#C9D4DE" stroke-width="0.20879"/>
<rect x="335.469" y="202.152" width="36.2872" height="13.5535" stroke="#C9D4DE" stroke-width="0.20879"/>
<rect x="159.966" y="215.645" width="35.125" height="13.5535" stroke="#C9D4DE" stroke-width="0.20879"/>
<mask id="path-87-inside-10_1232_63130" fill="white">
<path d="M124.898 215.541H160.231V229.303H124.898V215.541Z"/>
</mask>
<path d="M124.898 215.541V215.332H124.689V215.541H124.898ZM124.898 229.303H124.689V229.512H124.898V229.303ZM124.898 215.749H160.231V215.332H124.898V215.749ZM160.231 229.094H124.898V229.512H160.231V229.094ZM125.106 229.303V215.541H124.689V229.303H125.106Z" fill="#C9D4DE" mask="url(#path-87-inside-10_1232_63130)"/>
<rect x="195.068" y="215.645" width="35.125" height="13.5535" stroke="#C9D4DE" stroke-width="0.20879"/>
<rect x="230.165" y="215.645" width="35.125" height="13.5535" stroke="#C9D4DE" stroke-width="0.20879"/>
<rect x="265.271" y="215.645" width="35.125" height="13.5535" stroke="#C9D4DE" stroke-width="0.20879"/>
<rect x="300.368" y="215.645" width="35.125" height="13.5535" stroke="#C9D4DE" stroke-width="0.20879"/>
<rect x="230.231" y="215.645" width="35.125" height="13.5535" fill="#E6F1FA" stroke="#C9D4DE" stroke-width="0.20879"/>
<rect x="335.469" y="215.645" width="36.2872" height="13.5535" stroke="#C9D4DE" stroke-width="0.20879"/>
<rect x="159.966" y="229.137" width="35.125" height="13.5535" stroke="#C9D4DE" stroke-width="0.20879"/>
<rect x="159.966" y="229.137" width="35.125" height="13.5535" stroke="#C9D4DE" stroke-width="0.20879"/>
<mask id="path-97-inside-11_1232_63130" fill="white">
<path d="M124.898 229.032H160.231V242.795H124.898V229.032Z"/>
</mask>
<path d="M124.898 229.032V228.824H124.689V229.032H124.898ZM124.898 242.795H124.689V243.004H124.898V242.795ZM124.898 229.241H160.231V228.824H124.898V229.241ZM160.231 242.586H124.898V243.004H160.231V242.586ZM125.106 242.795V229.032H124.689V242.795H125.106Z" fill="#C9D4DE" mask="url(#path-97-inside-11_1232_63130)"/>
<rect x="195.068" y="229.137" width="35.125" height="13.5535" stroke="#C9D4DE" stroke-width="0.20879"/>
<rect x="230.165" y="229.137" width="35.125" height="13.5535" stroke="#C9D4DE" stroke-width="0.20879"/>
<rect x="265.271" y="229.137" width="35.125" height="13.5535" stroke="#C9D4DE" stroke-width="0.20879"/>
<rect x="300.368" y="229.137" width="35.125" height="13.5535" stroke="#C9D4DE" stroke-width="0.20879"/>
<rect x="230.231" y="229.137" width="35.125" height="13.5535" fill="#E6F1FA" stroke="#C9D4DE" stroke-width="0.20879"/>
<rect x="335.469" y="229.137" width="36.2872" height="13.5535" stroke="#C9D4DE" stroke-width="0.20879"/>
<g filter="url(#filter1_d_1232_63130)">
<rect x="124.896" y="81.6953" width="35.9447" height="12.6829" fill="white"/>
<rect x="160.614" y="81.6953" width="35.249" height="12.6829" fill="white"/>
<rect x="195.627" y="81.6953" width="35.249" height="12.6829" fill="white"/>
<rect x="230.644" y="81.6953" width="35.249" height="12.6829" fill="white"/>
<rect x="265.661" y="81.6953" width="35.249" height="12.6829" fill="white"/>
<rect x="335.692" y="81.6953" width="36.4085" height="12.6829" fill="white"/>
<rect x="300.462" y="81.6953" width="36.4085" height="12.6829" fill="white"/>
<rect x="230.476" y="81.4255" width="34.7852" height="12.6829" fill="#E6F1FA"/>
</g>
<rect x="159.965" y="242.63" width="35.125" height="13.5535" stroke="#C9D4DE" stroke-width="0.20879"/>
<mask id="path-114-inside-12_1232_63130" fill="white">
<path d="M124.896 242.526H160.23V256.288H124.896V242.526Z"/>
</mask>
<path d="M124.896 242.526V242.317H124.688V242.526H124.896ZM124.896 256.288H124.688V256.497H124.896V256.288ZM124.896 242.734H160.23V242.317H124.896V242.734ZM160.23 256.079H124.896V256.497H160.23V256.079ZM125.105 256.288V242.526H124.688V256.288H125.105Z" fill="#C9D4DE" mask="url(#path-114-inside-12_1232_63130)"/>
<rect x="195.066" y="242.63" width="35.125" height="13.5535" stroke="#C9D4DE" stroke-width="0.20879"/>
<rect x="230.163" y="242.63" width="35.125" height="13.5535" stroke="#C9D4DE" stroke-width="0.20879"/>
<rect x="265.269" y="242.63" width="35.125" height="13.5535" stroke="#C9D4DE" stroke-width="0.20879"/>
<rect x="300.367" y="242.63" width="35.125" height="13.5535" stroke="#C9D4DE" stroke-width="0.20879"/>
<rect x="230.23" y="242.63" width="35.125" height="13.5535" fill="#E6F1FA" stroke="#C9D4DE" stroke-width="0.20879"/>
<rect x="335.468" y="242.63" width="36.2872" height="13.5535" stroke="#C9D4DE" stroke-width="0.20879"/>
<path d="M126.09 254.644V254.779L125.497 256.129H125.238L125.831 254.84H125.062V254.644H126.09ZM126.615 255.238V256.553H126.369V255.026H126.596L126.615 255.238ZM127.334 255.567V255.588C127.334 255.669 127.324 255.743 127.305 255.812C127.287 255.88 127.259 255.939 127.223 255.99C127.187 256.04 127.142 256.079 127.089 256.107C127.036 256.135 126.975 256.149 126.905 256.149C126.837 256.149 126.777 256.136 126.725 256.111C126.674 256.086 126.631 256.049 126.596 256.002C126.56 255.955 126.532 255.9 126.51 255.837C126.489 255.773 126.474 255.703 126.465 255.627V255.544C126.474 255.464 126.489 255.39 126.51 255.324C126.532 255.258 126.56 255.202 126.596 255.154C126.631 255.106 126.674 255.07 126.725 255.044C126.776 255.018 126.835 255.005 126.903 255.005C126.973 255.005 127.034 255.019 127.088 255.046C127.142 255.072 127.187 255.111 127.224 255.16C127.26 255.209 127.288 255.268 127.306 255.338C127.324 255.406 127.334 255.483 127.334 255.567ZM127.088 255.588V255.567C127.088 255.516 127.083 255.469 127.074 255.425C127.064 255.381 127.049 255.342 127.029 255.309C127.008 255.276 126.982 255.25 126.95 255.232C126.919 255.212 126.881 255.203 126.837 255.203C126.794 255.203 126.756 255.21 126.725 255.225C126.694 255.24 126.668 255.26 126.647 255.286C126.625 255.311 126.609 255.342 126.598 255.376C126.586 255.41 126.578 255.447 126.573 255.487V255.685C126.581 255.734 126.595 255.779 126.615 255.82C126.635 255.861 126.663 255.893 126.699 255.918C126.735 255.941 126.782 255.953 126.839 255.953C126.883 255.953 126.921 255.944 126.952 255.925C126.984 255.906 127.009 255.88 127.029 255.846C127.049 255.812 127.064 255.773 127.074 255.729C127.083 255.685 127.088 255.638 127.088 255.588ZM127.851 255.25V256.129H127.605V255.026H127.837L127.851 255.25ZM127.811 255.536L127.728 255.535C127.728 255.459 127.737 255.389 127.756 255.324C127.775 255.26 127.803 255.204 127.84 255.156C127.876 255.108 127.922 255.071 127.976 255.045C128.031 255.018 128.095 255.005 128.167 255.005C128.217 255.005 128.263 255.013 128.305 255.028C128.347 255.042 128.383 255.065 128.414 255.096C128.445 255.127 128.469 255.167 128.485 255.216C128.502 255.265 128.511 255.324 128.511 255.394V256.129H128.265V255.415C128.265 255.361 128.257 255.319 128.24 255.289C128.225 255.258 128.202 255.236 128.172 255.223C128.143 255.21 128.108 255.203 128.067 255.203C128.021 255.203 127.981 255.212 127.949 255.229C127.917 255.247 127.891 255.271 127.87 255.302C127.85 255.332 127.835 255.368 127.826 255.408C127.816 255.448 127.811 255.491 127.811 255.536ZM128.495 255.471L128.38 255.497C128.38 255.43 128.389 255.367 128.408 255.308C128.427 255.248 128.454 255.196 128.49 255.151C128.527 255.105 128.572 255.07 128.626 255.044C128.679 255.018 128.741 255.005 128.81 255.005C128.867 255.005 128.917 255.013 128.961 255.029C129.006 255.044 129.044 255.067 129.075 255.1C129.107 255.133 129.13 255.175 129.147 255.227C129.163 255.279 129.171 255.342 129.171 255.415V256.129H128.925V255.414C128.925 255.358 128.916 255.315 128.9 255.285C128.884 255.254 128.862 255.233 128.833 255.221C128.804 255.209 128.769 255.203 128.728 255.203C128.69 255.203 128.656 255.21 128.627 255.224C128.598 255.238 128.574 255.257 128.554 255.282C128.535 255.307 128.52 255.335 128.51 255.367C128.5 255.399 128.495 255.434 128.495 255.471Z" fill="#486581"/>
<rect x="159.965" y="256.122" width="35.125" height="13.5535" stroke="#C9D4DE" stroke-width="0.20879"/>
<mask id="path-124-inside-13_1232_63130" fill="white">
<path d="M124.896 256.018H160.23V269.78H124.896V256.018Z"/>
</mask>
<path d="M124.896 256.018V255.809H124.688V256.018H124.896ZM124.896 269.78H124.688V269.989H124.896V269.78ZM124.896 256.226H160.23V255.809H124.896V256.226ZM160.23 269.571H124.896V269.989H160.23V269.571ZM125.105 269.78V256.018H124.688V269.78H125.105Z" fill="#C9D4DE" mask="url(#path-124-inside-13_1232_63130)"/>
<rect x="195.066" y="256.122" width="35.125" height="13.5535" stroke="#C9D4DE" stroke-width="0.20879"/>
<rect x="230.163" y="256.122" width="35.125" height="13.5535" stroke="#C9D4DE" stroke-width="0.20879"/>
<rect x="265.269" y="256.122" width="35.125" height="13.5535" stroke="#C9D4DE" stroke-width="0.20879"/>
<rect x="300.367" y="256.122" width="35.125" height="13.5535" stroke="#C9D4DE" stroke-width="0.20879"/>
<rect x="230.23" y="256.122" width="35.125" height="13.5535" fill="#E6F1FA" stroke="#C9D4DE" stroke-width="0.20879"/>
<rect x="335.468" y="256.122" width="36.2872" height="13.5535" stroke="#C9D4DE" stroke-width="0.20879"/>
<path d="M126.075 269.217C126.075 269.309 126.054 269.387 126.011 269.45C125.968 269.514 125.91 269.561 125.836 269.594C125.762 269.626 125.679 269.642 125.587 269.642C125.494 269.642 125.411 269.626 125.337 269.594C125.263 269.561 125.205 269.514 125.162 269.45C125.119 269.387 125.097 269.309 125.097 269.217C125.097 269.156 125.109 269.1 125.133 269.051C125.157 269 125.191 268.957 125.234 268.921C125.278 268.884 125.33 268.856 125.389 268.837C125.449 268.817 125.514 268.807 125.585 268.807C125.679 268.807 125.763 268.824 125.837 268.859C125.911 268.894 125.969 268.942 126.011 269.003C126.054 269.064 126.075 269.135 126.075 269.217ZM125.828 269.205C125.828 269.155 125.818 269.112 125.798 269.074C125.777 269.037 125.749 269.008 125.712 268.987C125.676 268.967 125.633 268.957 125.585 268.957C125.536 268.957 125.493 268.967 125.457 268.987C125.421 269.008 125.393 269.037 125.373 269.074C125.353 269.112 125.343 269.155 125.343 269.205C125.343 269.255 125.353 269.298 125.373 269.335C125.392 269.371 125.421 269.399 125.457 269.418C125.494 269.437 125.537 269.446 125.587 269.446C125.636 269.446 125.679 269.437 125.715 269.418C125.751 269.399 125.779 269.371 125.799 269.335C125.819 269.298 125.828 269.255 125.828 269.205ZM126.042 268.528C126.042 268.602 126.022 268.668 125.982 268.725C125.944 268.783 125.89 268.829 125.821 268.862C125.753 268.895 125.675 268.911 125.587 268.911C125.498 268.911 125.42 268.895 125.35 268.862C125.282 268.829 125.228 268.783 125.188 268.725C125.149 268.668 125.13 268.602 125.13 268.528C125.13 268.439 125.149 268.365 125.188 268.304C125.228 268.243 125.282 268.197 125.35 268.165C125.419 268.133 125.497 268.117 125.586 268.117C125.674 268.117 125.753 268.133 125.821 268.165C125.89 268.197 125.944 268.243 125.982 268.304C126.022 268.365 126.042 268.439 126.042 268.528ZM125.796 268.536C125.796 268.492 125.787 268.453 125.769 268.42C125.752 268.386 125.728 268.359 125.697 268.34C125.666 268.321 125.629 268.312 125.586 268.312C125.543 268.312 125.506 268.321 125.475 268.339C125.443 268.357 125.419 268.383 125.402 268.417C125.385 268.45 125.377 268.49 125.377 268.536C125.377 268.581 125.385 268.621 125.402 268.655C125.419 268.688 125.443 268.715 125.475 268.734C125.507 268.753 125.544 268.762 125.587 268.762C125.63 268.762 125.667 268.753 125.698 268.734C125.729 268.715 125.753 268.688 125.77 268.655C125.787 268.621 125.796 268.581 125.796 268.536ZM126.615 268.731V270.046H126.369V268.519H126.596L126.615 268.731ZM127.334 269.06V269.081C127.334 269.161 127.324 269.236 127.305 269.305C127.287 269.372 127.259 269.432 127.223 269.483C127.187 269.533 127.142 269.572 127.089 269.6C127.036 269.628 126.975 269.642 126.905 269.642C126.837 269.642 126.777 269.629 126.725 269.604C126.674 269.578 126.631 269.542 126.596 269.495C126.56 269.448 126.532 269.393 126.51 269.33C126.489 269.266 126.474 269.196 126.465 269.12V269.037C126.474 268.957 126.489 268.883 126.51 268.817C126.532 268.751 126.56 268.695 126.596 268.647C126.631 268.599 126.674 268.563 126.725 268.537C126.776 268.511 126.835 268.498 126.903 268.498C126.973 268.498 127.034 268.512 127.088 268.539C127.142 268.565 127.187 268.603 127.224 268.653C127.26 268.702 127.288 268.761 127.306 268.83C127.324 268.899 127.334 268.976 127.334 269.06ZM127.088 269.081V269.06C127.088 269.009 127.083 268.962 127.074 268.918C127.064 268.874 127.049 268.835 127.029 268.802C127.008 268.769 126.982 268.743 126.95 268.724C126.919 268.705 126.881 268.696 126.837 268.696C126.794 268.696 126.756 268.703 126.725 268.718C126.694 268.733 126.668 268.753 126.647 268.778C126.625 268.804 126.609 268.835 126.598 268.869C126.586 268.903 126.578 268.94 126.573 268.98V269.178C126.581 269.227 126.595 269.272 126.615 269.313C126.635 269.353 126.663 269.386 126.699 269.411C126.735 269.434 126.782 269.446 126.839 269.446C126.883 269.446 126.921 269.437 126.952 269.418C126.984 269.399 127.009 269.372 127.029 269.339C127.049 269.305 127.064 269.266 127.074 269.222C127.083 269.178 127.088 269.131 127.088 269.081ZM127.851 268.743V269.622H127.605V268.519H127.837L127.851 268.743ZM127.811 269.029L127.728 269.028C127.728 268.952 127.737 268.882 127.756 268.817C127.775 268.753 127.803 268.697 127.84 268.649C127.876 268.601 127.922 268.564 127.976 268.538C128.031 268.511 128.095 268.498 128.167 268.498C128.217 268.498 128.263 268.506 128.305 268.521C128.347 268.535 128.383 268.558 128.414 268.589C128.445 268.62 128.469 268.66 128.485 268.709C128.502 268.758 128.511 268.817 128.511 268.887V269.622H128.265V268.908C128.265 268.854 128.257 268.812 128.24 268.782C128.225 268.751 128.202 268.729 128.172 268.716C128.143 268.703 128.108 268.696 128.067 268.696C128.021 268.696 127.981 268.705 127.949 268.722C127.917 268.74 127.891 268.764 127.87 268.795C127.85 268.825 127.835 268.861 127.826 268.901C127.816 268.941 127.811 268.984 127.811 269.029ZM128.495 268.964L128.38 268.99C128.38 268.923 128.389 268.86 128.408 268.801C128.427 268.741 128.454 268.689 128.49 268.644C128.527 268.598 128.572 268.563 128.626 268.537C128.679 268.511 128.741 268.498 128.81 268.498C128.867 268.498 128.917 268.506 128.961 268.522C129.006 268.537 129.044 268.56 129.075 268.593C129.107 268.626 129.13 268.668 129.147 268.72C129.163 268.772 129.171 268.835 129.171 268.908V269.622H128.925V268.907C128.925 268.851 128.916 268.808 128.9 268.777C128.884 268.747 128.862 268.726 128.833 268.714C128.804 268.702 128.769 268.696 128.728 268.696C128.69 268.696 128.656 268.703 128.627 268.717C128.598 268.731 128.574 268.75 128.554 268.775C128.535 268.8 128.52 268.828 128.51 268.86C128.5 268.892 128.495 268.927 128.495 268.964Z" fill="#486581"/>
<rect x="159.965" y="269.615" width="35.125" height="13.5535" stroke="#C9D4DE" stroke-width="0.20879"/>
<mask id="path-134-inside-14_1232_63130" fill="white">
<path d="M124.896 269.51H160.23V283.273H124.896V269.51Z"/>
</mask>
<path d="M124.896 269.51V269.302H124.688V269.51H124.896ZM124.896 283.273H124.688V283.482H124.896V283.273ZM124.896 269.719H160.23V269.302H124.896V269.719ZM160.23 283.064H124.896V283.482H160.23V283.064ZM125.105 283.273V269.51H124.688V283.273H125.105Z" fill="#C9D4DE" mask="url(#path-134-inside-14_1232_63130)"/>
<rect x="195.066" y="269.615" width="35.125" height="13.5535" stroke="#C9D4DE" stroke-width="0.20879"/>
<rect x="230.163" y="269.615" width="35.125" height="13.5535" stroke="#C9D4DE" stroke-width="0.20879"/>
<rect x="265.269" y="269.615" width="35.125" height="13.5535" stroke="#C9D4DE" stroke-width="0.20879"/>
<rect x="300.367" y="269.615" width="35.125" height="13.5535" stroke="#C9D4DE" stroke-width="0.20879"/>
<rect x="230.23" y="269.615" width="35.125" height="13.5535" fill="#E6F1FA" stroke="#C9D4DE" stroke-width="0.20879"/>
<rect x="335.468" y="269.615" width="36.2872" height="13.5535" stroke="#C9D4DE" stroke-width="0.20879"/>
<rect x="159.965" y="283.108" width="35.125" height="13.5535" stroke="#C9D4DE" stroke-width="0.20879"/>
<mask id="path-143-inside-15_1232_63130" fill="white">
<path d="M124.896 283.003H160.23V296.765H124.896V283.003Z"/>
</mask>
<path d="M124.896 283.003V282.794H124.688V283.003H124.896ZM124.896 296.765H124.688V296.974H124.896V296.765ZM124.896 283.212H160.23V282.794H124.896V283.212ZM160.23 296.557H124.896V296.974H160.23V296.557ZM125.105 296.765V283.003H124.688V296.765H125.105Z" fill="#C9D4DE" mask="url(#path-143-inside-15_1232_63130)"/>
<rect x="195.066" y="283.108" width="35.125" height="13.5535" stroke="#C9D4DE" stroke-width="0.20879"/>
<rect x="230.163" y="283.108" width="35.125" height="13.5535" stroke="#C9D4DE" stroke-width="0.20879"/>
<rect x="265.269" y="283.108" width="35.125" height="13.5535" stroke="#C9D4DE" stroke-width="0.20879"/>
<rect x="300.367" y="283.108" width="35.125" height="13.5535" stroke="#C9D4DE" stroke-width="0.20879"/>
<rect x="230.23" y="283.108" width="35.125" height="13.5535" fill="#E6F1FA" stroke="#C9D4DE" stroke-width="0.20879"/>
<rect x="335.468" y="283.108" width="36.2872" height="13.5535" stroke="#C9D4DE" stroke-width="0.20879"/>
<path d="M125.302 282.921H125.323C125.417 282.921 125.495 282.908 125.557 282.884C125.62 282.859 125.671 282.824 125.708 282.78C125.746 282.736 125.772 282.684 125.789 282.624C125.805 282.564 125.813 282.499 125.813 282.429V282.173C125.813 282.113 125.807 282.06 125.794 282.014C125.782 281.968 125.764 281.93 125.741 281.899C125.718 281.868 125.692 281.844 125.662 281.829C125.633 281.813 125.601 281.805 125.567 281.805C125.53 281.805 125.496 281.814 125.467 281.831C125.437 281.847 125.413 281.87 125.392 281.899C125.372 281.928 125.357 281.961 125.346 282C125.336 282.038 125.331 282.079 125.331 282.122C125.331 282.163 125.336 282.203 125.345 282.241C125.355 282.278 125.37 282.311 125.39 282.34C125.41 282.37 125.435 282.393 125.465 282.41C125.494 282.427 125.529 282.435 125.57 282.435C125.608 282.435 125.643 282.428 125.675 282.414C125.706 282.399 125.734 282.379 125.758 282.354C125.782 282.329 125.801 282.3 125.814 282.269C125.828 282.238 125.835 282.206 125.837 282.173L125.93 282.202C125.93 282.253 125.92 282.304 125.898 282.355C125.877 282.404 125.847 282.45 125.809 282.491C125.772 282.532 125.728 282.565 125.678 282.589C125.628 282.614 125.574 282.626 125.515 282.626C125.445 282.626 125.382 282.613 125.328 282.586C125.274 282.559 125.229 282.522 125.193 282.476C125.158 282.43 125.131 282.377 125.114 282.317C125.096 282.257 125.087 282.194 125.087 282.128C125.087 282.057 125.098 281.99 125.12 281.928C125.142 281.865 125.173 281.81 125.215 281.762C125.256 281.714 125.306 281.677 125.366 281.65C125.425 281.623 125.493 281.61 125.568 281.61C125.649 281.61 125.719 281.625 125.78 281.656C125.84 281.688 125.891 281.731 125.932 281.786C125.974 281.841 126.005 281.905 126.026 281.978C126.047 282.05 126.058 282.128 126.058 282.212V282.299C126.058 282.386 126.05 282.471 126.034 282.553C126.019 282.633 125.993 282.709 125.958 282.778C125.923 282.846 125.877 282.907 125.82 282.959C125.764 283.011 125.695 283.051 125.612 283.081C125.531 283.109 125.435 283.123 125.325 283.123H125.302V282.921ZM126.615 282.223V283.538H126.369V282.011H126.596L126.615 282.223ZM127.334 282.553V282.574C127.334 282.654 127.324 282.729 127.305 282.797C127.287 282.865 127.259 282.925 127.223 282.976C127.187 283.026 127.142 283.065 127.089 283.093C127.036 283.121 126.975 283.135 126.905 283.135C126.837 283.135 126.777 283.122 126.725 283.097C126.674 283.071 126.631 283.035 126.596 282.988C126.56 282.941 126.532 282.886 126.51 282.823C126.489 282.759 126.474 282.689 126.465 282.613V282.53C126.474 282.449 126.489 282.376 126.51 282.31C126.532 282.244 126.56 282.187 126.596 282.14C126.631 282.092 126.674 282.055 126.725 282.03C126.776 282.004 126.835 281.991 126.903 281.991C126.973 281.991 127.034 282.004 127.088 282.032C127.142 282.058 127.187 282.096 127.224 282.146C127.26 282.195 127.288 282.254 127.306 282.323C127.324 282.392 127.334 282.468 127.334 282.553ZM127.088 282.574V282.553C127.088 282.502 127.083 282.454 127.074 282.411C127.064 282.367 127.049 282.328 127.029 282.295C127.008 282.261 126.982 282.235 126.95 282.217C126.919 282.198 126.881 282.189 126.837 282.189C126.794 282.189 126.756 282.196 126.725 282.211C126.694 282.225 126.668 282.245 126.647 282.271C126.625 282.297 126.609 282.327 126.598 282.362C126.586 282.396 126.578 282.433 126.573 282.473V282.671C126.581 282.72 126.595 282.765 126.615 282.805C126.635 282.846 126.663 282.879 126.699 282.903C126.735 282.927 126.782 282.939 126.839 282.939C126.883 282.939 126.921 282.929 126.952 282.91C126.984 282.891 127.009 282.865 127.029 282.832C127.049 282.798 127.064 282.759 127.074 282.715C127.083 282.67 127.088 282.624 127.088 282.574ZM127.851 282.235V283.114H127.605V282.011H127.837L127.851 282.235ZM127.811 282.522L127.728 282.521C127.728 282.445 127.737 282.374 127.756 282.31C127.775 282.245 127.803 282.189 127.84 282.142C127.876 282.093 127.922 282.056 127.976 282.031C128.031 282.004 128.095 281.991 128.167 281.991C128.217 281.991 128.263 281.998 128.305 282.013C128.347 282.027 128.383 282.05 128.414 282.082C128.445 282.113 128.469 282.153 128.485 282.202C128.502 282.251 128.511 282.31 128.511 282.379V283.114H128.265V282.401C128.265 282.347 128.257 282.305 128.24 282.274C128.225 282.244 128.202 282.222 128.172 282.209C128.143 282.195 128.108 282.189 128.067 282.189C128.021 282.189 127.981 282.197 127.949 282.215C127.917 282.233 127.891 282.257 127.87 282.287C127.85 282.318 127.835 282.353 127.826 282.393C127.816 282.434 127.811 282.476 127.811 282.522ZM128.495 282.457L128.38 282.482C128.38 282.416 128.389 282.353 128.408 282.294C128.427 282.234 128.454 282.181 128.49 282.137C128.527 282.091 128.572 282.055 128.626 282.03C128.679 282.004 128.741 281.991 128.81 281.991C128.867 281.991 128.917 281.999 128.961 282.014C129.006 282.029 129.044 282.053 129.075 282.086C129.107 282.118 129.13 282.161 129.147 282.213C129.163 282.265 129.171 282.327 129.171 282.401V283.114H128.925V282.4C128.925 282.344 128.916 282.301 128.9 282.27C128.884 282.24 128.862 282.218 128.833 282.207C128.804 282.195 128.769 282.189 128.728 282.189C128.69 282.189 128.656 282.196 128.627 282.21C128.598 282.224 128.574 282.243 128.554 282.268C128.535 282.293 128.52 282.321 128.51 282.353C128.5 282.385 128.495 282.419 128.495 282.457Z" fill="#486581"/>
<line x1="335.499" y1="94.3787" x2="335.499" y2="64.9652" stroke="#C9D4DE" stroke-width="0.20879"/>
<line x1="300.393" y1="94.3787" x2="300.393" y2="64.9652" stroke="#C9D4DE" stroke-width="0.20879"/>
<line x1="265.295" y1="94.3787" x2="265.295" y2="64.9652" stroke="#C9D4DE" stroke-width="0.20879"/>
<line x1="230.198" y1="94.3787" x2="230.198" y2="64.9652" stroke="#C9D4DE" stroke-width="0.20879"/>
<line x1="195.092" y1="94.3787" x2="195.092" y2="64.9652" stroke="#C9D4DE" stroke-width="0.20879"/>
<line x1="159.991" y1="94.3787" x2="159.991" y2="64.9652" stroke="#C9D4DE" stroke-width="0.20879"/>
<rect x="300.5" y="94.1086" width="34.8688" height="0.539697" fill="#F0F9FF"/>
<path d="M139.664 52.0689C139.652 51.9638 139.601 51.8821 139.513 51.824C139.424 51.7658 139.315 51.7368 139.187 51.7368C139.093 51.7368 139.01 51.752 138.94 51.7824C138.87 51.8129 138.815 51.8548 138.776 51.908C138.737 51.9613 138.718 52.0219 138.718 52.0897C138.718 52.1464 138.731 52.1952 138.758 52.2361C138.786 52.2762 138.821 52.3098 138.864 52.3367C138.907 52.363 138.952 52.3848 138.999 52.4021C139.046 52.4187 139.089 52.4322 139.129 52.4426L139.344 52.5008C139.4 52.5153 139.461 52.5354 139.529 52.561C139.598 52.5866 139.663 52.6215 139.725 52.6658C139.788 52.7094 139.84 52.7654 139.881 52.834C139.922 52.9025 139.942 52.9865 139.942 53.0862C139.942 53.2011 139.912 53.3049 139.852 53.3976C139.793 53.4903 139.705 53.564 139.591 53.6187C139.476 53.6734 139.338 53.7007 139.174 53.7007C139.022 53.7007 138.89 53.6761 138.779 53.627C138.668 53.5779 138.581 53.5094 138.517 53.4215C138.454 53.3336 138.419 53.2315 138.41 53.1153H138.676C138.683 53.1955 138.71 53.262 138.757 53.3146C138.805 53.3665 138.865 53.4052 138.938 53.4308C139.011 53.4557 139.09 53.4682 139.174 53.4682C139.273 53.4682 139.361 53.4523 139.439 53.4204C139.517 53.3879 139.579 53.3429 139.625 53.2855C139.67 53.2274 139.693 53.1595 139.693 53.082C139.693 53.0115 139.674 52.954 139.634 52.9097C139.595 52.8654 139.543 52.8295 139.478 52.8018C139.414 52.7741 139.344 52.7499 139.27 52.7291L139.008 52.6544C138.842 52.6066 138.711 52.5385 138.614 52.4499C138.517 52.3613 138.468 52.2454 138.468 52.1022C138.468 51.9831 138.501 51.8793 138.565 51.7907C138.63 51.7015 138.717 51.6323 138.827 51.5831C138.937 51.5333 139.059 51.5084 139.195 51.5084C139.332 51.5084 139.454 51.533 139.56 51.5821C139.667 51.6305 139.751 51.697 139.814 51.7814C139.877 51.8658 139.91 51.9617 139.913 52.0689H139.664ZM142.178 51.5375H142.436V52.945C142.436 53.0903 142.401 53.2201 142.333 53.3343C142.265 53.4478 142.169 53.5374 142.045 53.6031C141.922 53.6682 141.776 53.7007 141.609 53.7007C141.443 53.7007 141.297 53.6682 141.174 53.6031C141.05 53.5374 140.953 53.4478 140.885 53.3343C140.817 53.2201 140.783 53.0903 140.783 52.945V51.5375H141.041V52.9243C141.041 53.0281 141.063 53.1204 141.109 53.2014C141.155 53.2817 141.22 53.345 141.304 53.3914C141.389 53.437 141.491 53.4599 141.609 53.4599C141.728 53.4599 141.83 53.437 141.915 53.3914C142 53.345 142.065 53.2817 142.11 53.2014C142.155 53.1204 142.178 53.0281 142.178 52.9243V51.5375ZM145.053 51.5375V53.6633H144.804L143.646 51.9942H143.625V53.6633H143.367V51.5375H143.617L144.779 53.2108H144.8V51.5375H145.053Z" fill="white"/>
<path d="M137.723 57.3266V60.0598H137.344L135.955 58.0553H135.93V60.0598H135.517V57.3266H135.899L137.29 59.3338H137.315V57.3266H137.723ZM141.117 58.6932C141.117 58.985 141.063 59.2359 140.957 59.4459C140.85 59.655 140.704 59.816 140.518 59.929C140.333 60.0411 140.122 60.0972 139.886 60.0972C139.65 60.0972 139.438 60.0411 139.252 59.929C139.067 59.816 138.921 59.6545 138.815 59.4446C138.708 59.2346 138.655 58.9841 138.655 58.6932C138.655 58.4014 138.708 58.1509 138.815 57.9418C138.921 57.7318 139.067 57.5708 139.252 57.4587C139.438 57.3457 139.65 57.2892 139.886 57.2892C140.122 57.2892 140.333 57.3457 140.518 57.4587C140.704 57.5708 140.85 57.7318 140.957 57.9418C141.063 58.1509 141.117 58.4014 141.117 58.6932ZM140.708 58.6932C140.708 58.4708 140.672 58.2835 140.6 58.1313C140.529 57.9783 140.431 57.8626 140.307 57.7843C140.183 57.7051 140.043 57.6656 139.886 57.6656C139.729 57.6656 139.588 57.7051 139.465 57.7843C139.341 57.8626 139.243 57.9783 139.171 58.1313C139.1 58.2835 139.064 58.4708 139.064 58.6932C139.064 58.9156 139.1 59.1034 139.171 59.2564C139.243 59.4085 139.341 59.5242 139.465 59.6034C139.588 59.6817 139.729 59.7208 139.886 59.7208C140.043 59.7208 140.183 59.6817 140.307 59.6034C140.431 59.5242 140.529 59.4085 140.6 59.2564C140.672 59.1034 140.708 58.9156 140.708 58.6932ZM142.152 57.3266L142.912 59.5527H142.943L143.704 57.3266H144.15L143.166 60.0598H142.69L141.706 57.3266H142.152ZM146.429 60.0598L147.622 57.7003V57.6802H146.242V57.3266H148.049V57.6922L146.86 60.0598H146.429Z" fill="white"/>
<path d="M173.829 51.2677H174.136L174.859 53.0323H174.884L175.606 51.2677H175.914V53.3936H175.673V51.7784H175.652L174.988 53.3936H174.755L174.091 51.7784H174.07V53.3936H173.829V51.2677ZM178.641 52.3306C178.641 52.5548 178.6 52.7486 178.52 52.9119C178.439 53.0752 178.327 53.2012 178.186 53.2898C178.045 53.3783 177.884 53.4226 177.703 53.4226C177.521 53.4226 177.36 53.3783 177.219 53.2898C177.078 53.2012 176.967 53.0752 176.886 52.9119C176.805 52.7486 176.764 52.5548 176.764 52.3306C176.764 52.1064 176.805 51.9127 176.886 51.7493C176.967 51.586 177.078 51.4601 177.219 51.3715C177.36 51.2829 177.521 51.2386 177.703 51.2386C177.884 51.2386 178.045 51.2829 178.186 51.3715C178.327 51.4601 178.439 51.586 178.52 51.7493C178.6 51.9127 178.641 52.1064 178.641 52.3306ZM178.392 52.3306C178.392 52.1466 178.361 51.9912 178.299 51.8646C178.239 51.7379 178.156 51.6421 178.051 51.577C177.948 51.512 177.831 51.4795 177.703 51.4795C177.574 51.4795 177.457 51.512 177.353 51.577C177.249 51.6421 177.166 51.7379 177.105 51.8646C177.044 51.9912 177.013 52.1466 177.013 52.3306C177.013 52.5147 177.044 52.6701 177.105 52.7967C177.166 52.9233 177.249 53.0192 177.353 53.0842C177.457 53.1493 177.574 53.1818 177.703 53.1818C177.831 53.1818 177.948 53.1493 178.051 53.0842C178.156 53.0192 178.239 52.9233 178.299 52.7967C178.361 52.6701 178.392 52.5147 178.392 52.3306ZM181.177 51.2677V53.3936H180.928L179.77 51.7244H179.749V53.3936H179.491V51.2677H179.741L180.903 52.941H180.924V51.2677H181.177Z" fill="white"/>
<path d="M173.055 57.0573V59.7905H172.676L171.287 57.786H171.262V59.7905H170.849V57.0573H171.231L172.622 59.0645H172.647V57.0573H173.055ZM176.449 58.4239C176.449 58.7157 176.396 58.9666 176.289 59.1766C176.182 59.3857 176.036 59.5467 175.85 59.6597C175.665 59.7718 175.454 59.8279 175.218 59.8279C174.982 59.8279 174.77 59.7718 174.584 59.6597C174.399 59.5467 174.253 59.3853 174.147 59.1753C174.04 58.9653 173.987 58.7148 173.987 58.4239C173.987 58.1321 174.04 57.8816 174.147 57.6725C174.253 57.4626 174.399 57.3015 174.584 57.1894C174.77 57.0764 174.982 57.0199 175.218 57.0199C175.454 57.0199 175.665 57.0764 175.85 57.1894C176.036 57.3015 176.182 57.4626 176.289 57.6725C176.396 57.8816 176.449 58.1321 176.449 58.4239ZM176.041 58.4239C176.041 58.2015 176.004 58.0142 175.932 57.862C175.861 57.709 175.763 57.5933 175.639 57.515C175.515 57.4359 175.375 57.3963 175.218 57.3963C175.061 57.3963 174.92 57.4359 174.797 57.515C174.673 57.5933 174.575 57.709 174.503 57.862C174.432 58.0142 174.396 58.2015 174.396 58.4239C174.396 58.6463 174.432 58.8341 174.503 58.9871C174.575 59.1392 174.673 59.2549 174.797 59.3341C174.92 59.4124 175.061 59.4515 175.218 59.4515C175.375 59.4515 175.515 59.4124 175.639 59.3341C175.763 59.2549 175.861 59.1392 175.932 58.9871C176.004 58.8341 176.041 58.6463 176.041 58.4239ZM177.484 57.0573L178.244 59.2834H178.275L179.036 57.0573H179.482L178.498 59.7905H178.022L177.038 57.0573H177.484ZM182.592 59.8279C182.401 59.8279 182.232 59.795 182.085 59.7291C181.939 59.6633 181.825 59.5725 181.742 59.4569C181.659 59.3412 181.618 59.2095 181.619 59.0618C181.618 58.9462 181.642 58.8399 181.69 58.7429C181.739 58.645 181.805 58.5636 181.889 58.4986C181.973 58.4328 182.066 58.391 182.169 58.3732V58.3572C182.033 58.3243 181.924 58.2513 181.842 58.1383C181.76 58.0253 181.72 57.8954 181.721 57.7486C181.72 57.6089 181.757 57.4844 181.832 57.3749C181.907 57.2646 182.011 57.1778 182.142 57.1147C182.274 57.0515 182.424 57.0199 182.592 57.0199C182.759 57.0199 182.907 57.0519 183.038 57.116C183.17 57.1792 183.273 57.2659 183.349 57.3762C183.425 57.4857 183.463 57.6098 183.464 57.7486C183.463 57.8954 183.421 58.0253 183.338 58.1383C183.256 58.2513 183.148 58.3243 183.015 58.3572V58.3732C183.118 58.391 183.21 58.4328 183.292 58.4986C183.374 58.5636 183.44 58.645 183.489 58.7429C183.539 58.8399 183.564 58.9462 183.565 59.0618C183.564 59.2095 183.522 59.3412 183.44 59.4569C183.357 59.5725 183.242 59.6633 183.095 59.7291C182.949 59.795 182.782 59.8279 182.592 59.8279ZM182.592 59.4902C182.705 59.4902 182.803 59.4716 182.886 59.4342C182.969 59.3959 183.033 59.343 183.078 59.2754C183.123 59.2069 183.147 59.1268 183.147 59.0351C183.147 58.9399 183.122 58.8559 183.073 58.7829C183.025 58.71 182.959 58.6526 182.877 58.6107C182.794 58.5689 182.699 58.548 182.592 58.548C182.485 58.548 182.389 58.5689 182.305 58.6107C182.222 58.6526 182.156 58.71 182.108 58.7829C182.06 58.8559 182.036 58.9399 182.037 59.0351C182.036 59.1268 182.058 59.2069 182.102 59.2754C182.148 59.343 182.212 59.3959 182.296 59.4342C182.38 59.4716 182.478 59.4902 182.592 59.4902ZM182.592 58.2184C182.683 58.2184 182.764 58.2001 182.834 58.1637C182.904 58.1272 182.959 58.0765 182.999 58.0115C183.04 57.9466 183.061 57.8705 183.062 57.7833C183.061 57.6979 183.041 57.6231 183.001 57.5591C182.961 57.495 182.907 57.4456 182.836 57.4109C182.766 57.3754 182.685 57.3576 182.592 57.3576C182.498 57.3576 182.415 57.3754 182.344 57.4109C182.274 57.4456 182.219 57.495 182.18 57.5591C182.141 57.6231 182.122 57.6979 182.122 57.7833C182.122 57.8705 182.141 57.9466 182.181 58.0115C182.221 58.0765 182.276 58.1272 182.347 58.1637C182.418 58.2001 182.5 58.2184 182.592 58.2184Z" fill="white"/>
<path d="M209.284 51.7658V51.5375H210.879V51.7658H210.21V53.6633H209.953V51.7658H209.284ZM213.089 51.5375H213.346V52.945C213.346 53.0903 213.312 53.2201 213.243 53.3343C213.176 53.4478 213.08 53.5374 212.956 53.6031C212.832 53.6682 212.687 53.7007 212.52 53.7007C212.353 53.7007 212.208 53.6682 212.084 53.6031C211.96 53.5374 211.864 53.4478 211.795 53.3343C211.727 53.2201 211.694 53.0903 211.694 52.945V51.5375H211.951V52.9243C211.951 53.0281 211.974 53.1204 212.02 53.2014C212.065 53.2817 212.13 53.345 212.215 53.3914C212.3 53.437 212.401 53.4599 212.52 53.4599C212.638 53.4599 212.74 53.437 212.825 53.3914C212.91 53.345 212.975 53.2817 213.02 53.2014C213.066 53.1204 213.089 53.0281 213.089 52.9243V51.5375ZM214.278 53.6633V51.5375H215.561V51.7658H214.535V52.4841H215.494V52.7125H214.535V53.435H215.577V53.6633H214.278Z" fill="white"/>
<path d="M208.396 57.3266V60.0598H208.017L206.628 58.0553H206.603V60.0598H206.19V57.3266H206.572L207.963 59.3338H207.988V57.3266H208.396ZM211.79 58.6932C211.79 58.985 211.736 59.2359 211.63 59.4459C211.523 59.655 211.376 59.816 211.191 59.929C211.005 60.0411 210.795 60.0972 210.559 60.0972C210.323 60.0972 210.111 60.0411 209.925 59.929C209.74 59.816 209.594 59.6545 209.488 59.4446C209.381 59.2346 209.327 58.9841 209.327 58.6932C209.327 58.4014 209.381 58.1509 209.488 57.9418C209.594 57.7318 209.74 57.5708 209.925 57.4587C210.111 57.3457 210.323 57.2892 210.559 57.2892C210.795 57.2892 211.005 57.3457 211.191 57.4587C211.376 57.5708 211.523 57.7318 211.63 57.9418C211.736 58.1509 211.79 58.4014 211.79 58.6932ZM211.381 58.6932C211.381 58.4708 211.345 58.2835 211.273 58.1313C211.202 57.9783 211.104 57.8626 210.98 57.7843C210.856 57.7051 210.716 57.6656 210.559 57.6656C210.402 57.6656 210.261 57.7051 210.138 57.7843C210.014 57.8626 209.916 57.9783 209.844 58.1313C209.773 58.2835 209.737 58.4708 209.737 58.6932C209.737 58.9156 209.773 59.1034 209.844 59.2564C209.916 59.4085 210.014 59.5242 210.138 59.6034C210.261 59.6817 210.402 59.7208 210.559 59.7208C210.716 59.7208 210.856 59.6817 210.98 59.6034C211.104 59.5242 211.202 59.4085 211.273 59.2564C211.345 59.1034 211.381 58.9156 211.381 58.6932ZM212.825 57.3266L213.585 59.5527H213.616L214.377 57.3266H214.822L213.839 60.0598H213.362L212.379 57.3266H212.825ZM217.918 57.2892C218.04 57.2901 218.16 57.3123 218.279 57.3559C218.397 57.3995 218.504 57.4707 218.599 57.5695C218.695 57.6682 218.772 57.8017 218.829 57.9698C218.886 58.1371 218.916 58.3453 218.917 58.5944C218.917 58.8338 218.893 59.0469 218.845 59.2337C218.797 59.4197 218.728 59.5767 218.638 59.7048C218.549 59.8329 218.441 59.9304 218.313 59.9971C218.186 60.0638 218.043 60.0972 217.884 60.0972C217.721 60.0972 217.576 60.0652 217.45 60.0011C217.324 59.937 217.221 59.8485 217.142 59.7355C217.063 59.6216 217.013 59.4908 216.994 59.3431H217.401C217.427 59.4606 217.482 59.5558 217.563 59.6287C217.646 59.7008 217.753 59.7368 217.884 59.7368C218.084 59.7368 218.24 59.6496 218.352 59.4753C218.464 59.3 218.521 59.0553 218.522 58.7412H218.5C218.454 58.8178 218.396 58.8836 218.327 58.9388C218.258 58.9939 218.181 59.0366 218.096 59.0669C218.011 59.0971 217.919 59.1123 217.822 59.1123C217.665 59.1123 217.522 59.0736 217.393 58.9961C217.264 58.9187 217.161 58.8124 217.084 58.6772C217.008 58.5419 216.97 58.3876 216.97 58.2141C216.97 58.0415 217.009 57.8849 217.087 57.7443C217.166 57.6037 217.277 57.4925 217.418 57.4106C217.56 57.3279 217.727 57.2874 217.918 57.2892ZM217.92 57.6362C217.816 57.6362 217.722 57.662 217.638 57.7136C217.555 57.7643 217.49 57.8333 217.442 57.9205C217.394 58.0068 217.37 58.1029 217.37 58.2087C217.37 58.3146 217.393 58.4107 217.439 58.497C217.486 58.5824 217.551 58.6505 217.632 58.7012C217.713 58.751 217.807 58.7759 217.912 58.7759C217.99 58.7759 218.063 58.7608 218.131 58.7306C218.198 58.7003 218.257 58.6585 218.308 58.6051C218.359 58.5508 218.398 58.4894 218.427 58.4209C218.455 58.3524 218.47 58.2804 218.47 58.2047C218.47 58.1042 218.446 58.0108 218.398 57.9245C218.35 57.8382 218.285 57.7688 218.203 57.7163C218.12 57.6629 218.026 57.6362 217.92 57.6362Z" fill="white"/>
<path d="M244.888 53.6633L244.307 51.5375H244.568L245.013 53.2689H245.034L245.486 51.5375H245.777L246.229 53.2689H246.25L246.694 51.5375H246.956L246.375 53.6633H246.109L245.64 51.9693H245.623L245.154 53.6633H244.888ZM247.694 53.6633V51.5375H248.977V51.7658H247.952V52.4841H248.911V52.7125H247.952V53.435H248.994V53.6633H247.694ZM250.515 53.6633H249.859V51.5375H250.544C250.75 51.5375 250.927 51.58 251.073 51.6651C251.22 51.7496 251.332 51.871 251.411 52.0295C251.489 52.1873 251.528 52.3762 251.528 52.5962C251.528 52.8177 251.489 53.0083 251.41 53.1682C251.331 53.3274 251.216 53.4498 251.065 53.5357C250.914 53.6208 250.731 53.6633 250.515 53.6633ZM250.116 53.435H250.498C250.674 53.435 250.82 53.4011 250.935 53.3332C251.051 53.2654 251.137 53.1689 251.194 53.0436C251.25 52.9184 251.279 52.7693 251.279 52.5962C251.279 52.4246 251.251 52.2769 251.195 52.153C251.139 52.0285 251.055 51.933 250.944 51.8665C250.832 51.7994 250.693 51.7658 250.527 51.7658H250.116V53.435Z" fill="white"/>
<path d="M242.337 57.0573V59.7905H241.958L240.568 57.786H240.543V59.7905H240.131V57.0573H240.512L241.903 59.0645H241.928V57.0573H242.337ZM245.73 58.4239C245.73 58.7157 245.677 58.9666 245.57 59.1766C245.463 59.3857 245.317 59.5467 245.131 59.6597C244.946 59.7718 244.735 59.8279 244.5 59.8279C244.263 59.8279 244.052 59.7718 243.866 59.6597C243.681 59.5467 243.535 59.3853 243.428 59.1753C243.321 58.9653 243.268 58.7148 243.268 58.4239C243.268 58.1321 243.321 57.8816 243.428 57.6725C243.535 57.4626 243.681 57.3015 243.866 57.1894C244.052 57.0764 244.263 57.0199 244.5 57.0199C244.735 57.0199 244.946 57.0764 245.131 57.1894C245.317 57.3015 245.463 57.4626 245.57 57.6725C245.677 57.8816 245.73 58.1321 245.73 58.4239ZM245.322 58.4239C245.322 58.2015 245.286 58.0142 245.214 57.862C245.142 57.709 245.045 57.5933 244.92 57.515C244.796 57.4359 244.656 57.3963 244.5 57.3963C244.342 57.3963 244.202 57.4359 244.078 57.515C243.954 57.5933 243.856 57.709 243.784 57.862C243.713 58.0142 243.678 58.2015 243.678 58.4239C243.678 58.6463 243.713 58.8341 243.784 58.9871C243.856 59.1392 243.954 59.2549 244.078 59.3341C244.202 59.4124 244.342 59.4515 244.5 59.4515C244.656 59.4515 244.796 59.4124 244.92 59.3341C245.045 59.2549 245.142 59.1392 245.214 58.9871C245.286 58.8341 245.322 58.6463 245.322 58.4239ZM246.765 57.0573L247.526 59.2834H247.556L248.317 57.0573H248.763L247.779 59.7905H247.303L246.319 57.0573H246.765ZM251.987 57.0573V59.7905H251.573V57.471H251.557L250.903 57.8981V57.503L251.585 57.0573H251.987ZM254.095 59.8359C253.885 59.835 253.704 59.7794 253.555 59.6691C253.405 59.5588 253.291 59.3982 253.212 59.1873C253.133 58.9764 253.093 58.7224 253.093 58.4252C253.093 58.129 253.133 57.8758 253.212 57.6659C253.292 57.4559 253.407 57.2957 253.556 57.1854C253.707 57.0751 253.886 57.0199 254.095 57.0199C254.305 57.0199 254.484 57.0755 254.633 57.1867C254.783 57.2971 254.897 57.4572 254.976 57.6672C255.056 57.8763 255.096 58.129 255.096 58.4252C255.096 58.7233 255.057 58.9778 254.978 59.1886C254.898 59.3986 254.784 59.5592 254.635 59.6704C254.485 59.7807 254.305 59.8359 254.095 59.8359ZM254.095 59.4796C254.281 59.4796 254.425 59.3893 254.529 59.2086C254.634 59.028 254.687 58.7669 254.687 58.4252C254.687 58.1984 254.663 58.0066 254.615 57.85C254.567 57.6925 254.499 57.5733 254.41 57.4924C254.322 57.4105 254.217 57.3696 254.095 57.3696C253.911 57.3696 253.767 57.4603 253.662 57.6418C253.557 57.8233 253.504 58.0845 253.503 58.4252C253.503 58.653 253.526 58.8456 253.574 59.0031C253.622 59.1597 253.69 59.2785 253.778 59.3595C253.866 59.4395 253.972 59.4796 254.095 59.4796Z" fill="white"/>
<path d="M279.722 51.7658V51.5375H281.317V51.7658H280.648V53.6633H280.391V51.7658H279.722ZM282.132 53.6633V51.5375H282.389V52.4841H283.523V51.5375H283.78V53.6633H283.523V52.7125H282.389V53.6633H282.132ZM286.108 51.5375H286.365V52.945C286.365 53.0903 286.331 53.2201 286.263 53.3343C286.195 53.4478 286.099 53.5374 285.975 53.6031C285.851 53.6682 285.706 53.7007 285.539 53.7007C285.372 53.7007 285.227 53.6682 285.103 53.6031C284.979 53.5374 284.883 53.4478 284.815 53.3343C284.747 53.2201 284.713 53.0903 284.713 52.945V51.5375H284.97V52.9243C284.97 53.0281 284.993 53.1204 285.039 53.2014C285.084 53.2817 285.15 53.345 285.234 53.3914C285.319 53.437 285.421 53.4599 285.539 53.4599C285.657 53.4599 285.759 53.437 285.844 53.3914C285.929 53.345 285.994 53.2817 286.039 53.2014C286.085 53.1204 286.108 53.0281 286.108 52.9243V51.5375Z" fill="white"/>
<path d="M277.429 57.3266V60.0598H277.05L275.661 58.0553H275.636V60.0598H275.223V57.3266H275.605L276.996 59.3338H277.021V57.3266H277.429ZM280.823 58.6932C280.823 58.985 280.769 59.2359 280.663 59.4459C280.556 59.655 280.41 59.816 280.224 59.929C280.038 60.0411 279.828 60.0972 279.592 60.0972C279.356 60.0972 279.144 60.0411 278.958 59.929C278.773 59.816 278.627 59.6545 278.521 59.4446C278.414 59.2346 278.36 58.9841 278.36 58.6932C278.36 58.4014 278.414 58.1509 278.521 57.9418C278.627 57.7318 278.773 57.5708 278.958 57.4587C279.144 57.3457 279.356 57.2892 279.592 57.2892C279.828 57.2892 280.038 57.3457 280.224 57.4587C280.41 57.5708 280.556 57.7318 280.663 57.9418C280.769 58.1509 280.823 58.4014 280.823 58.6932ZM280.414 58.6932C280.414 58.4708 280.378 58.2835 280.306 58.1313C280.235 57.9783 280.137 57.8626 280.013 57.7843C279.889 57.7051 279.749 57.6656 279.592 57.6656C279.435 57.6656 279.294 57.7051 279.171 57.7843C279.047 57.8626 278.949 57.9783 278.877 58.1313C278.806 58.2835 278.77 58.4708 278.77 58.6932C278.77 58.9156 278.806 59.1034 278.877 59.2564C278.949 59.4085 279.047 59.5242 279.171 59.6034C279.294 59.6817 279.435 59.7208 279.592 59.7208C279.749 59.7208 279.889 59.6817 280.013 59.6034C280.137 59.5242 280.235 59.4085 280.306 59.2564C280.378 59.1034 280.414 58.9156 280.414 58.6932ZM281.858 57.3266L282.618 59.5527H282.649L283.41 57.3266H283.856L282.872 60.0598H282.395L281.412 57.3266H281.858ZM287.08 57.3266V60.0598H286.666V57.7403H286.65L285.996 58.1674V57.7723L286.678 57.3266H287.08ZM289.274 57.3266V60.0598H288.86V57.7403H288.844L288.19 58.1674V57.7723L288.872 57.3266H289.274Z" fill="white"/>
<path d="M314.167 53.6633V51.5375H315.575V51.908H314.617V52.4146H315.481V52.7852H314.617V53.6633H314.167ZM316.295 53.6633V51.5375H317.133C317.294 51.5375 317.431 51.5662 317.544 51.6236C317.659 51.6804 317.745 51.761 317.805 51.8655C317.865 51.9693 317.895 52.0914 317.895 52.2319C317.895 52.3731 317.865 52.4945 317.804 52.5962C317.743 52.6973 317.655 52.7748 317.539 52.8288C317.424 52.8827 317.285 52.9097 317.122 52.9097H316.56V52.5485H317.049C317.135 52.5485 317.206 52.5367 317.263 52.5132C317.32 52.4897 317.362 52.4544 317.39 52.4073C317.418 52.3603 317.432 52.3018 317.432 52.2319C317.432 52.1613 317.418 52.1018 317.39 52.0534C317.362 52.0049 317.32 51.9682 317.262 51.9433C317.205 51.9177 317.134 51.9049 317.047 51.9049H316.744V53.6633H316.295ZM317.443 52.6959L317.971 53.6633H317.475L316.958 52.6959H317.443ZM319.08 51.5375V53.6633H318.63V51.5375H319.08Z" fill="white"/>
<path d="M311.409 57.3266V60.0598H310.79L309.802 58.6238H309.786V60.0598H309.044V57.3266H309.674L310.646 58.7573H310.667V57.3266H311.409ZM314.825 58.6932C314.825 58.9975 314.766 59.2542 314.648 59.4633C314.529 59.6714 314.37 59.8294 314.169 59.937C313.968 60.0438 313.743 60.0972 313.496 60.0972C313.247 60.0972 313.022 60.0434 312.821 59.9357C312.621 59.8272 312.461 59.6688 312.343 59.4606C312.226 59.2515 312.167 58.9957 312.167 58.6932C312.167 58.3889 312.226 58.1327 312.343 57.9245C312.461 57.7154 312.621 57.5575 312.821 57.4507C313.022 57.343 313.247 57.2892 313.496 57.2892C313.743 57.2892 313.968 57.343 314.169 57.4507C314.37 57.5575 314.529 57.7154 314.648 57.9245C314.766 58.1327 314.825 58.3889 314.825 58.6932ZM314.062 58.6932C314.062 58.5295 314.04 58.3916 313.997 58.2795C313.954 58.1665 313.89 58.0811 313.806 58.0232C313.722 57.9645 313.619 57.9351 313.496 57.9351C313.373 57.9351 313.27 57.9645 313.185 58.0232C313.101 58.0811 313.038 58.1665 312.994 58.2795C312.952 58.3916 312.93 58.5295 312.93 58.6932C312.93 58.8569 312.952 58.9953 312.994 59.1082C313.038 59.2204 313.101 59.3058 313.185 59.3645C313.27 59.4223 313.373 59.4512 313.496 59.4512C313.619 59.4512 313.722 59.4223 313.806 59.3645C313.89 59.3058 313.954 59.2204 313.997 59.1082C314.04 58.9953 314.062 58.8569 314.062 58.6932ZM316.161 57.3266L316.722 59.2537H316.743L317.304 57.3266H318.142L317.239 60.0598H316.225L315.323 57.3266H316.161ZM321.334 57.3266V60.0598H320.592V58.0099H320.576L319.978 58.3676V57.7376L320.651 57.3266H321.334ZM322.313 60.0598V59.526L323.332 58.6825C323.4 58.6265 323.458 58.574 323.506 58.525C323.555 58.4752 323.592 58.424 323.618 58.3716C323.645 58.3191 323.658 58.2608 323.658 58.1967C323.658 58.1264 323.643 58.0664 323.613 58.0166C323.583 57.9667 323.542 57.9285 323.49 57.9018C323.437 57.8742 323.377 57.8604 323.308 57.8604C323.24 57.8604 323.179 57.8742 323.127 57.9018C323.075 57.9294 323.035 57.9698 323.007 58.0232C322.978 58.0766 322.964 58.1416 322.964 58.2181H322.259C322.259 58.0259 322.303 57.8604 322.389 57.7216C322.475 57.5828 322.597 57.476 322.755 57.4013C322.912 57.3266 323.097 57.2892 323.308 57.2892C323.527 57.2892 323.717 57.3243 323.877 57.3946C324.038 57.464 324.162 57.5619 324.249 57.6882C324.337 57.8146 324.381 57.9627 324.381 58.1327C324.381 58.2377 324.36 58.3422 324.316 58.4463C324.272 58.5495 324.194 58.6638 324.081 58.7893C323.968 58.9147 323.808 59.0642 323.599 59.2377L323.343 59.4512V59.4673H324.411V60.0598H322.313Z" fill="white"/>
<path d="M350.734 52.0689C350.722 51.9638 350.671 51.8821 350.583 51.824C350.494 51.7658 350.386 51.7368 350.257 51.7368C350.163 51.7368 350.081 51.752 350.01 51.7824C349.94 51.8129 349.885 51.8548 349.846 51.908C349.807 51.9613 349.788 52.0219 349.788 52.0897C349.788 52.1464 349.801 52.1952 349.828 52.2361C349.856 52.2762 349.891 52.3098 349.934 52.3367C349.977 52.363 350.022 52.3848 350.069 52.4021C350.116 52.4187 350.159 52.4322 350.199 52.4426L350.415 52.5008C350.47 52.5153 350.532 52.5354 350.6 52.561C350.668 52.5866 350.733 52.6215 350.796 52.6658C350.859 52.7094 350.911 52.7654 350.951 52.834C350.992 52.9025 351.013 52.9865 351.013 53.0862C351.013 53.2011 350.983 53.3049 350.922 53.3976C350.863 53.4903 350.776 53.564 350.661 53.6187C350.547 53.6734 350.408 53.7007 350.245 53.7007C350.092 53.7007 349.96 53.6761 349.849 53.627C349.738 53.5779 349.651 53.5094 349.587 53.4215C349.524 53.3336 349.489 53.2315 349.481 53.1153H349.746C349.753 53.1955 349.78 53.262 349.827 53.3146C349.875 53.3665 349.935 53.4052 350.008 53.4308C350.081 53.4557 350.16 53.4682 350.245 53.4682C350.343 53.4682 350.431 53.4523 350.509 53.4204C350.587 53.3879 350.649 53.3429 350.695 53.2855C350.741 53.2274 350.764 53.1595 350.764 53.082C350.764 53.0115 350.744 52.954 350.704 52.9097C350.665 52.8654 350.613 52.8295 350.549 52.8018C350.484 52.7741 350.415 52.7499 350.34 52.7291L350.078 52.6544C349.912 52.6066 349.781 52.5385 349.684 52.4499C349.587 52.3613 349.539 52.2454 349.539 52.1022C349.539 51.9831 349.571 51.8793 349.635 51.7907C349.7 51.7015 349.787 51.6323 349.897 51.5831C350.007 51.5333 350.13 51.5084 350.265 51.5084C350.402 51.5084 350.524 51.533 350.631 51.5821C350.737 51.6305 350.822 51.697 350.884 51.7814C350.947 51.8658 350.98 51.9617 350.984 52.0689H350.734ZM351.941 53.6633H351.671L352.451 51.5375H352.717L353.498 53.6633H353.228L352.593 51.8738H352.576L351.941 53.6633ZM352.04 52.8329H353.128V53.0613H352.04V52.8329ZM353.882 51.7658V51.5375H355.476V51.7658H354.808V53.6633H354.55V51.7658H353.882Z" fill="white"/>
<path d="M347.637 57.3266V60.0598H347.258L345.869 58.0553H345.843V60.0598H345.431V57.3266H345.813L347.203 59.3338H347.229V57.3266H347.637ZM351.03 58.6932C351.03 58.985 350.977 59.2359 350.87 59.4459C350.763 59.655 350.617 59.816 350.431 59.929C350.246 60.0411 350.036 60.0972 349.8 60.0972C349.563 60.0972 349.352 60.0411 349.166 59.929C348.981 59.816 348.835 59.6545 348.728 59.4446C348.621 59.2346 348.568 58.9841 348.568 58.6932C348.568 58.4014 348.621 58.1509 348.728 57.9418C348.835 57.7318 348.981 57.5708 349.166 57.4587C349.352 57.3457 349.563 57.2892 349.8 57.2892C350.036 57.2892 350.246 57.3457 350.431 57.4587C350.617 57.5708 350.763 57.7318 350.87 57.9418C350.977 58.1509 351.03 58.4014 351.03 58.6932ZM350.622 58.6932C350.622 58.4708 350.586 58.2835 350.514 58.1313C350.443 57.9783 350.345 57.8626 350.22 57.7843C350.097 57.7051 349.956 57.6656 349.8 57.6656C349.642 57.6656 349.502 57.7051 349.378 57.7843C349.254 57.8626 349.157 57.9783 349.085 58.1313C349.013 58.2835 348.978 58.4708 348.978 58.6932C348.978 58.9156 349.013 59.1034 349.085 59.2564C349.157 59.4085 349.254 59.5242 349.378 59.6034C349.502 59.6817 349.642 59.7208 349.8 59.7208C349.956 59.7208 350.097 59.6817 350.22 59.6034C350.345 59.5242 350.443 59.4085 350.514 59.2564C350.586 59.1034 350.622 58.9156 350.622 58.6932ZM352.065 57.3266L352.826 59.5527H352.857L353.617 57.3266H354.063L353.079 60.0598H352.603L351.619 57.3266H352.065ZM357.287 57.3266V60.0598H356.873V57.7403H356.857L356.203 58.1674V57.7723L356.885 57.3266H357.287ZM359.396 60.0972C359.212 60.0972 359.049 60.0656 358.905 60.0024C358.761 59.9393 358.648 59.8516 358.564 59.7395C358.481 59.6265 358.437 59.4957 358.431 59.3471H358.85C358.855 59.4281 358.882 59.4984 358.931 59.558C358.981 59.6167 359.046 59.6621 359.126 59.6941C359.206 59.7262 359.295 59.7422 359.393 59.7422C359.501 59.7422 359.596 59.7235 359.679 59.6861C359.762 59.6488 359.828 59.5967 359.875 59.53C359.922 59.4624 359.946 59.3845 359.946 59.2964C359.946 59.2048 359.922 59.1243 359.875 59.0549C359.829 58.9846 359.76 58.9294 359.671 58.8894C359.582 58.8493 359.474 58.8293 359.348 58.8293H359.117V58.493H359.348C359.449 58.493 359.538 58.4748 359.615 58.4383C359.692 58.4018 359.752 58.3511 359.796 58.2861C359.84 58.2203 359.861 58.1433 359.861 58.0553C359.861 57.9707 359.842 57.8973 359.804 57.835C359.767 57.7719 359.713 57.7225 359.644 57.6869C359.575 57.6513 359.494 57.6335 359.401 57.6335C359.312 57.6335 359.229 57.65 359.151 57.6829C359.075 57.7149 359.013 57.7612 358.965 57.8217C358.917 57.8813 358.891 57.9529 358.887 58.0366H358.488C358.493 57.8889 358.536 57.759 358.619 57.6469C358.703 57.5348 358.813 57.4471 358.95 57.384C359.087 57.3208 359.239 57.2892 359.406 57.2892C359.582 57.2892 359.733 57.3235 359.86 57.392C359.988 57.4596 360.087 57.5499 360.156 57.6629C360.227 57.7759 360.261 57.8996 360.26 58.0339C360.261 58.1869 360.219 58.3168 360.132 58.4236C360.047 58.5304 359.933 58.602 359.791 58.6385V58.6598C359.972 58.6874 360.113 58.7595 360.212 58.876C360.313 58.9926 360.363 59.1372 360.362 59.3098C360.363 59.4601 360.321 59.5949 360.236 59.7142C360.153 59.8334 360.038 59.9272 359.893 59.9958C359.748 60.0634 359.583 60.0972 359.396 60.0972Z" fill="white"/>
<g clip-path="url(#clip2_1232_63130)">
<path d="M366.998 58.8824L369.308 56.1977L366.998 53.5136L367.345 53.1091L369.989 56.1977L367.345 59.2861L366.998 58.8824Z" fill="#E6F1FA"/>
<path d="M367.346 53.2299L369.887 56.1985L367.346 59.1677L367.101 58.883L369.308 56.3178L369.411 56.1985L369.308 56.0793L367.102 53.5139L367.346 53.2299V53.2299ZM367.347 52.9907L366.896 53.5139L369.206 56.1985L366.896 58.8832L367.347 59.4062L370.092 56.1985L367.347 52.9907Z" fill="#195581"/>
</g>
<g clip-path="url(#clip3_1232_63130)">
<path d="M129.393 53.2375L127.083 55.9222L129.393 58.6063L129.045 59.0107L126.401 55.9222L129.045 52.8337L129.393 53.2375Z" fill="#E6F1FA"/>
<path d="M129.044 58.8912L126.503 55.9225L129.044 52.9534L129.289 53.2381L127.082 55.8033L126.979 55.9225L127.082 56.0418L129.289 58.6072L129.044 58.8912V58.8912ZM129.044 59.1304L129.494 58.6072L127.185 55.9225L129.494 53.2379L129.044 52.7149L126.298 55.9225L129.044 59.1304Z" fill="#195581"/>
</g>
<path d="M124.899 94.4395L371.633 94.4395" stroke="#C9D4DE" stroke-width="0.417579"/>
<rect x="126.565" y="149.778" width="31.736" height="23.3844" rx="1.67032" fill="#2680C2"/>
<rect x="301.948" y="149.778" width="31.736" height="36.747" rx="1.67032" fill="#2680C2"/>
<rect x="337.856" y="182.349" width="31.736" height="36.747" rx="1.67032" fill="#2680C2"/>
<rect x="231.794" y="123.053" width="31.736" height="36.747" rx="1.67032" fill="#2680C2"/>
<rect x="161.639" y="137.251" width="31.736" height="22.5493" rx="1.67032" fill="#2680C2"/>
<rect x="266.869" y="137.251" width="31.736" height="22.5493" rx="1.67032" fill="#2680C2"/>
<rect x="231.794" y="190.7" width="31.736" height="23.3844" rx="1.67032" fill="#2680C2"/>
<rect x="161.639" y="190.7" width="31.736" height="23.3844" rx="1.67032" fill="#2680C2"/>
<rect x="231.794" y="230.788" width="31.736" height="10.0219" rx="1.67032" fill="#2680C2"/>
<rect x="266.869" y="230.788" width="31.736" height="10.0219" rx="1.67032" fill="#2680C2"/>
<rect x="266.869" y="204.063" width="31.736" height="10.0219" rx="1.67032" fill="#2680C2"/>
<rect x="337.856" y="123.053" width="31.736" height="10.0219" rx="1.67032" fill="#2680C2"/>
<rect x="266.869" y="177.338" width="31.736" height="10.0219" rx="1.67032" fill="#2680C2"/>
<rect x="196.714" y="177.338" width="31.736" height="10.0219" rx="1.67032" fill="#2680C2"/>
<rect x="196.714" y="163.14" width="31.736" height="10.0219" rx="1.67032" fill="#2680C2"/>
<rect x="161.639" y="230.788" width="31.736" height="23.3844" rx="1.67032" fill="#2680C2"/>
<rect x="301.948" y="230.788" width="31.736" height="36.747" rx="1.67032" fill="#2680C2"/>
<g filter="url(#filter2_dd_1232_63130)">
<rect x="180.229" y="133.365" width="139.035" height="90.0621" rx="12.3586" fill="white"/>
<rect x="180.579" y="133.715" width="138.335" height="89.3621" rx="12.0086" stroke="#6EAAD6" stroke-width="0.7"/>
<path d="M207.009 150.736V159.724H205.762L201.194 153.132H201.11V159.724H199.754V150.736H201.009L205.583 157.337H205.666V150.736H207.009ZM211.787 159.86C211.123 159.86 210.551 159.718 210.071 159.434C209.594 159.148 209.226 158.745 208.965 158.228C208.708 157.707 208.579 157.097 208.579 156.397C208.579 155.707 208.708 155.098 208.965 154.572C209.226 154.045 209.588 153.634 210.054 153.339C210.522 153.043 211.069 152.895 211.695 152.895C212.075 152.895 212.444 152.958 212.801 153.084C213.158 153.21 213.478 153.407 213.762 153.676C214.046 153.946 214.27 154.295 214.433 154.725C214.597 155.153 214.679 155.672 214.679 156.283V156.749H209.321V155.765H213.393C213.393 155.42 213.323 155.115 213.183 154.848C213.042 154.579 212.845 154.367 212.59 154.212C212.339 154.057 212.043 153.979 211.704 153.979C211.335 153.979 211.013 154.07 210.738 154.251C210.466 154.43 210.255 154.664 210.106 154.954C209.96 155.24 209.887 155.552 209.887 155.888V156.656C209.887 157.107 209.966 157.49 210.124 157.806C210.285 158.122 210.508 158.364 210.795 158.53C211.082 158.694 211.417 158.776 211.8 158.776C212.049 158.776 212.276 158.741 212.48 158.671C212.685 158.598 212.862 158.489 213.012 158.346C213.161 158.203 213.275 158.026 213.354 157.815L214.596 158.039C214.496 158.405 214.318 158.725 214.06 159C213.806 159.272 213.486 159.484 213.099 159.636C212.716 159.786 212.279 159.86 211.787 159.86ZM217.585 159.724L215.601 152.983H216.957L218.278 157.934H218.344L219.669 152.983H221.025L222.342 157.912H222.408L223.72 152.983H225.076L223.097 159.724H221.758L220.389 154.857H220.288L218.919 159.724H217.585ZM229.697 159.724V150.736H232.901C233.6 150.736 234.18 150.863 234.639 151.118C235.098 151.372 235.442 151.721 235.67 152.162C235.899 152.601 236.013 153.096 236.013 153.646C236.013 154.199 235.897 154.696 235.666 155.138C235.438 155.577 235.093 155.925 234.63 156.182C234.171 156.437 233.593 156.564 232.897 156.564H230.694V155.414H232.774C233.216 155.414 233.574 155.338 233.849 155.186C234.124 155.031 234.326 154.82 234.455 154.554C234.584 154.288 234.648 153.985 234.648 153.646C234.648 153.306 234.584 153.005 234.455 152.742C234.326 152.478 234.123 152.272 233.845 152.123C233.57 151.974 233.207 151.899 232.756 151.899H231.054V159.724H229.697ZM237.497 159.724V152.983H238.766V154.054H238.836C238.959 153.691 239.175 153.406 239.485 153.198C239.798 152.987 240.152 152.882 240.547 152.882C240.629 152.882 240.726 152.885 240.837 152.891C240.951 152.897 241.04 152.904 241.105 152.913V154.168C241.052 154.153 240.959 154.137 240.824 154.12C240.689 154.099 240.555 154.089 240.42 154.089C240.11 154.089 239.834 154.155 239.591 154.287C239.351 154.415 239.161 154.595 239.02 154.826C238.88 155.055 238.81 155.315 238.81 155.608V159.724H237.497ZM244.838 159.86C244.207 159.86 243.655 159.715 243.184 159.426C242.713 159.136 242.347 158.731 242.087 158.21C241.826 157.689 241.696 157.081 241.696 156.384C241.696 155.685 241.826 155.074 242.087 154.55C242.347 154.026 242.713 153.619 243.184 153.33C243.655 153.04 244.207 152.895 244.838 152.895C245.47 152.895 246.022 153.04 246.493 153.33C246.964 153.619 247.33 154.026 247.59 154.55C247.851 155.074 247.981 155.685 247.981 156.384C247.981 157.081 247.851 157.689 247.59 158.21C247.33 158.731 246.964 159.136 246.493 159.426C246.022 159.715 245.47 159.86 244.838 159.86ZM244.843 158.759C245.253 158.759 245.592 158.65 245.861 158.434C246.13 158.217 246.329 157.929 246.458 157.569C246.59 157.209 246.655 156.813 246.655 156.38C246.655 155.95 246.59 155.555 246.458 155.195C246.329 154.832 246.13 154.541 245.861 154.322C245.592 154.102 245.253 153.992 244.843 153.992C244.43 153.992 244.088 154.102 243.816 154.322C243.547 154.541 243.346 154.832 243.215 155.195C243.086 155.555 243.022 155.95 243.022 156.38C243.022 156.813 243.086 157.209 243.215 157.569C243.346 157.929 243.547 158.217 243.816 158.434C244.088 158.65 244.43 158.759 244.843 158.759ZM249.446 152.983H250.758V160.163C250.758 160.614 250.676 160.994 250.512 161.304C250.351 161.614 250.111 161.85 249.792 162.011C249.476 162.172 249.086 162.252 248.62 162.252C248.574 162.252 248.53 162.252 248.489 162.252C248.445 162.252 248.4 162.251 248.353 162.248V161.12C248.394 161.12 248.43 161.12 248.462 161.12C248.492 161.12 248.525 161.12 248.563 161.12C248.874 161.12 249.097 161.036 249.235 160.87C249.375 160.706 249.446 160.467 249.446 160.154V152.983ZM250.095 151.943C249.867 151.943 249.671 151.867 249.507 151.715C249.346 151.56 249.266 151.375 249.266 151.162C249.266 150.945 249.346 150.761 249.507 150.609C249.671 150.454 249.867 150.376 250.095 150.376C250.323 150.376 250.518 150.454 250.679 150.609C250.843 150.761 250.925 150.945 250.925 151.162C250.925 151.375 250.843 151.56 250.679 151.715C250.518 151.867 250.323 151.943 250.095 151.943ZM255.428 159.86C254.764 159.86 254.192 159.718 253.712 159.434C253.236 159.148 252.867 158.745 252.607 158.228C252.349 157.707 252.22 157.097 252.22 156.397C252.22 155.707 252.349 155.098 252.607 154.572C252.867 154.045 253.23 153.634 253.695 153.339C254.163 153.043 254.71 152.895 255.336 152.895C255.717 152.895 256.085 152.958 256.442 153.084C256.799 153.21 257.12 153.407 257.403 153.676C257.687 153.946 257.911 154.295 258.075 154.725C258.239 155.153 258.321 155.672 258.321 156.283V156.749H252.962V155.765H257.035C257.035 155.42 256.965 155.115 256.824 154.848C256.684 154.579 256.486 154.367 256.232 154.212C255.98 154.057 255.684 153.979 255.345 153.979C254.976 153.979 254.655 154.07 254.38 154.251C254.107 154.43 253.897 154.664 253.748 154.954C253.601 155.24 253.528 155.552 253.528 155.888V156.656C253.528 157.107 253.607 157.49 253.765 157.806C253.926 158.122 254.15 158.364 254.437 158.53C254.723 158.694 255.058 158.776 255.442 158.776C255.69 158.776 255.917 158.741 256.122 158.671C256.327 158.598 256.504 158.489 256.653 158.346C256.802 158.203 256.916 158.026 256.995 157.815L258.237 158.039C258.138 158.405 257.959 158.725 257.702 159C257.447 159.272 257.127 159.484 256.741 159.636C256.357 159.786 255.92 159.86 255.428 159.86ZM262.616 159.86C261.964 159.86 261.402 159.712 260.931 159.417C260.463 159.118 260.103 158.707 259.851 158.184C259.6 157.66 259.474 157.06 259.474 156.384C259.474 155.7 259.603 155.095 259.86 154.572C260.117 154.045 260.48 153.634 260.948 153.339C261.417 153.043 261.968 152.895 262.603 152.895C263.115 152.895 263.571 152.99 263.972 153.181C264.373 153.368 264.696 153.631 264.942 153.971C265.191 154.31 265.339 154.706 265.385 155.16H264.108C264.038 154.844 263.877 154.572 263.625 154.344C263.377 154.115 263.043 154.001 262.625 154.001C262.259 154.001 261.939 154.098 261.664 154.291C261.392 154.481 261.18 154.753 261.027 155.107C260.875 155.458 260.799 155.874 260.799 156.354C260.799 156.845 260.874 157.269 261.023 157.626C261.172 157.983 261.383 158.26 261.655 158.456C261.93 158.652 262.253 158.75 262.625 158.75C262.874 158.75 263.099 158.704 263.301 158.614C263.506 158.52 263.677 158.387 263.814 158.214C263.955 158.042 264.053 157.834 264.108 157.591H265.385C265.339 158.027 265.197 158.416 264.96 158.759C264.723 159.101 264.405 159.37 264.007 159.566C263.612 159.762 263.149 159.86 262.616 159.86ZM269.935 152.983V154.036H266.253V152.983H269.935ZM267.241 151.368H268.553V157.745C268.553 157.999 268.591 158.191 268.667 158.32C268.743 158.446 268.841 158.532 268.961 158.579C269.084 158.623 269.217 158.644 269.36 158.644C269.466 158.644 269.558 158.637 269.637 158.623C269.716 158.608 269.777 158.596 269.821 158.587L270.058 159.671C269.982 159.701 269.874 159.73 269.734 159.759C269.593 159.791 269.418 159.809 269.207 159.812C268.862 159.818 268.54 159.756 268.241 159.628C267.943 159.499 267.702 159.3 267.517 159.031C267.333 158.762 267.241 158.424 267.241 158.017V151.368Z" fill="#0B304F"/>
<circle cx="202.629" cy="180.945" r="3.86207" fill="#2680C2"/>
<rect x="212.67" y="177.855" width="88.0552" height="6.17931" rx="3.08966" fill="#2680C2"/>
<circle cx="202.629" cy="201.028" r="3.86207" fill="#CACFD3"/>
<rect x="212.67" y="197.938" width="69.5173" height="6.17931" rx="3.08966" fill="#CACFD3"/>
</g>
</g>
</g>
<rect x="116.96" y="42.4601" width="265.58" height="262.24" rx="6.26369" stroke="#2680C2" stroke-width="0.835159"/>
</g>
<defs>
<filter id="filter0_dd_1232_63130" x="108.086" y="42.0425" width="283.327" height="279.987" filterUnits="userSpaceOnUse" color-interpolation-filters="sRGB">
<feFlood flood-opacity="0" result="BackgroundImageFix"/>
<feColorMatrix in="SourceAlpha" type="matrix" values="0 0 0 0 0 0 0 0 0 0 0 0 0 0 0 0 0 0 127 0" result="hardAlpha"/>
<feMorphology radius="1.40933" operator="erode" in="SourceAlpha" result="effect1_dropShadow_1232_63130"/>
<feOffset dy="2.81866"/>
<feGaussianBlur stdDeviation="2.114"/>
<feComposite in2="hardAlpha" operator="out"/>
<feColorMatrix type="matrix" values="0 0 0 0 0 0 0 0 0 0 0 0 0 0 0 0 0 0 0.03 0"/>
<feBlend mode="normal" in2="BackgroundImageFix" result="effect1_dropShadow_1232_63130"/>
<feColorMatrix in="SourceAlpha" type="matrix" values="0 0 0 0 0 0 0 0 0 0 0 0 0 0 0 0 0 0 127 0" result="hardAlpha"/>
<feMorphology radius="2.81866" operator="erode" in="SourceAlpha" result="effect2_dropShadow_1232_63130"/>
<feOffset dy="8.45598"/>
<feGaussianBlur stdDeviation="5.63732"/>
<feComposite in2="hardAlpha" operator="out"/>
<feColorMatrix type="matrix" values="0 0 0 0 0 0 0 0 0 0 0 0 0 0 0 0 0 0 0.08 0"/>
<feBlend mode="normal" in2="effect1_dropShadow_1232_63130" result="effect2_dropShadow_1232_63130"/>
<feBlend mode="normal" in="SourceGraphic" in2="effect2_dropShadow_1232_63130" result="shape"/>
</filter>
<filter id="filter1_d_1232_63130" x="123.226" y="81.4255" width="249.709" height="15.6669" filterUnits="userSpaceOnUse" color-interpolation-filters="sRGB">
<feFlood flood-opacity="0" result="BackgroundImageFix"/>
<feColorMatrix in="SourceAlpha" type="matrix" values="0 0 0 0 0 0 0 0 0 0 0 0 0 0 0 0 0 0 127 0" result="hardAlpha"/>
<feOffset dx="-0.417579" dy="1.46153"/>
<feGaussianBlur stdDeviation="0.626369"/>
<feComposite in2="hardAlpha" operator="out"/>
<feColorMatrix type="matrix" values="0 0 0 0 0 0 0 0 0 0 0 0 0 0 0 0 0 0 0.05 0"/>
<feBlend mode="normal" in2="BackgroundImageFix" result="effect1_dropShadow_1232_63130"/>
<feBlend mode="normal" in="SourceGraphic" in2="effect1_dropShadow_1232_63130" result="shape"/>
</filter>
<filter id="filter2_dd_1232_63130" x="170.96" y="130.276" width="157.572" height="108.6" filterUnits="userSpaceOnUse" color-interpolation-filters="sRGB">
<feFlood flood-opacity="0" result="BackgroundImageFix"/>
<feColorMatrix in="SourceAlpha" type="matrix" values="0 0 0 0 0 0 0 0 0 0 0 0 0 0 0 0 0 0 127 0" result="hardAlpha"/>
<feMorphology radius="3.08966" operator="erode" in="SourceAlpha" result="effect1_dropShadow_1232_63130"/>
<feOffset dy="3.08966"/>
<feGaussianBlur stdDeviation="3.08966"/>
<feComposite in2="hardAlpha" operator="out"/>
<feColorMatrix type="matrix" values="0 0 0 0 0 0 0 0 0 0 0 0 0 0 0 0 0 0 0.06 0"/>
<feBlend mode="normal" in2="BackgroundImageFix" result="effect1_dropShadow_1232_63130"/>
<feColorMatrix in="SourceAlpha" type="matrix" values="0 0 0 0 0 0 0 0 0 0 0 0 0 0 0 0 0 0 127 0" result="hardAlpha"/>
<feMorphology radius="3.08966" operator="erode" in="SourceAlpha" result="effect2_dropShadow_1232_63130"/>
<feOffset dy="6.17931"/>
<feGaussianBlur stdDeviation="6.17931"/>
<feComposite in2="hardAlpha" operator="out"/>
<feColorMatrix type="matrix" values="0 0 0 0 0 0 0 0 0 0 0 0 0 0 0 0 0 0 0.1 0"/>
<feBlend mode="normal" in2="effect1_dropShadow_1232_63130" result="effect2_dropShadow_1232_63130"/>
<feBlend mode="normal" in="SourceGraphic" in2="effect2_dropShadow_1232_63130" result="shape"/>
</filter>
<clipPath id="clip0_1232_63130">
<rect x="116.542" y="42.0425" width="266.416" height="263.075" rx="6.68127" fill="white"/>
</clipPath>
<clipPath id="clip1_1232_63130">
<rect width="266.416" height="263.075" fill="white" transform="translate(116.541 42.0422)"/>
</clipPath>
<clipPath id="clip2_1232_63130">
<rect width="5.81147" height="6.74621" fill="white" transform="translate(365.589 52.8218)"/>
</clipPath>
<clipPath id="clip3_1232_63130">
<rect width="5.81147" height="6.74621" fill="white" transform="translate(130.803 59.2981) rotate(180)"/>
</clipPath>
</defs>
</svg>
