<svg width="500" height="348" viewBox="0 0 500 348" fill="none" xmlns="http://www.w3.org/2000/svg">
<g filter="url(#filter0_dd_1232_64827)">
<g clip-path="url(#clip0_1232_64827)">
<rect x="104.174" y="29.8296" width="291.151" height="287.5" rx="7.3016" fill="white"/>
<g clip-path="url(#clip1_1232_64827)">
<rect x="104.177" y="26.1787" width="293.889" height="28.2937" fill="#2680C2"/>
<rect x="151.632" y="87.138" width="38.3862" height="14.8119" stroke="#C9D4DE" stroke-width="0.228175"/>
<mask id="path-5-inside-1_1232_64827" fill="white">
<path d="M113.308 87.0239H151.922V102.064H113.308V87.0239Z"/>
</mask>
<path d="M113.308 87.0239V86.7958H113.08V87.0239H113.308ZM113.308 102.064H113.08V102.292H113.308V102.064ZM113.308 87.2521H151.922V86.7958H113.308V87.2521ZM151.922 101.836H113.308V102.292H151.922V101.836ZM113.536 102.064V87.0239H113.08V102.064H113.536Z" fill="#C9D4DE" mask="url(#path-5-inside-1_1232_64827)"/>
<rect x="189.993" y="87.138" width="38.3862" height="14.8119" stroke="#C9D4DE" stroke-width="0.228175"/>
<rect x="228.349" y="87.138" width="38.3862" height="14.8119" stroke="#C9D4DE" stroke-width="0.228175"/>
<rect x="266.714" y="87.138" width="38.3862" height="14.8119" stroke="#C9D4DE" stroke-width="0.228175"/>
<rect x="305.07" y="87.138" width="38.3862" height="14.8119" stroke="#C9D4DE" stroke-width="0.228175"/>
<rect x="228.421" y="87.138" width="38.3862" height="14.8119" fill="#E6F1FA" stroke="#C9D4DE" stroke-width="0.228175"/>
<rect x="228.307" y="54.8799" width="38.6144" height="32.1444" fill="#E6F1FA"/>
<rect x="343.43" y="87.138" width="39.6564" height="14.8119" stroke="#C9D4DE" stroke-width="0.228175"/>
<rect x="151.632" y="101.885" width="38.3862" height="14.517" stroke="#C9D4DE" stroke-width="0.228175"/>
<mask id="path-15-inside-2_1232_64827" fill="white">
<path d="M113.308 101.771H151.922V116.516H113.308V101.771Z"/>
</mask>
<path d="M113.308 101.771V101.542H113.08V101.771H113.308ZM113.308 116.516H113.08V116.744H113.308V116.516ZM113.308 101.999H151.922V101.542H113.308V101.999ZM151.922 116.287H113.308V116.744H151.922V116.287ZM113.536 116.516V101.771H113.08V116.516H113.536Z" fill="#C9D4DE" mask="url(#path-15-inside-2_1232_64827)"/>
<rect x="189.993" y="101.885" width="38.3862" height="14.517" stroke="#C9D4DE" stroke-width="0.228175"/>
<rect x="228.349" y="101.885" width="38.3862" height="14.517" stroke="#C9D4DE" stroke-width="0.228175"/>
<rect x="266.714" y="101.885" width="38.3862" height="14.517" stroke="#C9D4DE" stroke-width="0.228175"/>
<rect x="305.07" y="101.885" width="38.3862" height="14.517" stroke="#C9D4DE" stroke-width="0.228175"/>
<rect x="228.421" y="101.885" width="38.3862" height="14.517" fill="#E6F1FA" stroke="#C9D4DE" stroke-width="0.228175"/>
<rect x="343.43" y="101.885" width="39.6564" height="14.517" stroke="#C9D4DE" stroke-width="0.228175"/>
<rect x="151.632" y="116.334" width="38.3862" height="14.8119" stroke="#C9D4DE" stroke-width="0.228175"/>
<mask id="path-24-inside-3_1232_64827" fill="white">
<path d="M113.308 116.22H151.922V131.26H113.308V116.22Z"/>
</mask>
<path d="M113.308 116.22V115.992H113.08V116.22H113.308ZM113.308 131.26H113.08V131.488H113.308V131.26ZM113.308 116.448H151.922V115.992H113.308V116.448ZM151.922 131.032H113.308V131.488H151.922V131.032ZM113.536 131.26V116.22H113.08V131.26H113.536Z" fill="#C9D4DE" mask="url(#path-24-inside-3_1232_64827)"/>
<rect x="189.993" y="116.334" width="38.3862" height="14.8119" stroke="#C9D4DE" stroke-width="0.228175"/>
<rect x="228.349" y="116.334" width="38.3862" height="14.8119" stroke="#C9D4DE" stroke-width="0.228175"/>
<rect x="266.714" y="116.334" width="38.3862" height="14.8119" stroke="#C9D4DE" stroke-width="0.228175"/>
<rect x="305.07" y="116.334" width="38.3862" height="14.8119" stroke="#C9D4DE" stroke-width="0.228175"/>
<rect x="228.421" y="116.334" width="38.3862" height="14.8119" fill="#E6F1FA" stroke="#C9D4DE" stroke-width="0.228175"/>
<rect x="343.43" y="116.334" width="39.6564" height="14.8119" stroke="#C9D4DE" stroke-width="0.228175"/>
<rect x="151.632" y="131.079" width="38.3862" height="14.8119" stroke="#C9D4DE" stroke-width="0.228175"/>
<mask id="path-33-inside-4_1232_64827" fill="white">
<path d="M113.308 130.965H151.922V146.005H113.308V130.965Z"/>
</mask>
<path d="M113.308 130.965V130.736H113.08V130.965H113.308ZM113.308 146.005H113.08V146.233H113.308V146.005ZM113.308 131.193H151.922V130.736H113.308V131.193ZM151.922 145.776H113.308V146.233H151.922V145.776ZM113.536 146.005V130.965H113.08V146.005H113.536Z" fill="#C9D4DE" mask="url(#path-33-inside-4_1232_64827)"/>
<rect x="189.993" y="131.079" width="38.3862" height="14.8119" stroke="#C9D4DE" stroke-width="0.228175"/>
<rect x="228.349" y="131.079" width="38.3862" height="14.8119" stroke="#C9D4DE" stroke-width="0.228175"/>
<rect x="266.714" y="131.079" width="38.3862" height="14.8119" stroke="#C9D4DE" stroke-width="0.228175"/>
<rect x="305.07" y="131.079" width="38.3862" height="14.8119" stroke="#C9D4DE" stroke-width="0.228175"/>
<rect x="228.421" y="131.079" width="38.3862" height="14.8119" fill="#E6F1FA" stroke="#C9D4DE" stroke-width="0.228175"/>
<rect x="343.43" y="131.079" width="39.6564" height="14.8119" stroke="#C9D4DE" stroke-width="0.228175"/>
<rect x="151.632" y="145.824" width="38.3862" height="14.8119" stroke="#C9D4DE" stroke-width="0.228175"/>
<mask id="path-42-inside-5_1232_64827" fill="white">
<path d="M113.308 145.71H151.922V160.75H113.308V145.71Z"/>
</mask>
<path d="M113.308 145.71V145.482H113.08V145.71H113.308ZM113.308 160.75H113.08V160.978H113.308V160.75ZM113.308 145.938H151.922V145.482H113.308V145.938ZM151.922 160.522H113.308V160.978H151.922V160.522ZM113.536 160.75V145.71H113.08V160.75H113.536Z" fill="#C9D4DE" mask="url(#path-42-inside-5_1232_64827)"/>
<rect x="189.993" y="145.824" width="38.3862" height="14.8119" stroke="#C9D4DE" stroke-width="0.228175"/>
<rect x="228.349" y="145.824" width="38.3862" height="14.8119" stroke="#C9D4DE" stroke-width="0.228175"/>
<rect x="266.714" y="145.824" width="38.3862" height="14.8119" stroke="#C9D4DE" stroke-width="0.228175"/>
<rect x="305.07" y="145.824" width="38.3862" height="14.8119" stroke="#C9D4DE" stroke-width="0.228175"/>
<rect x="228.421" y="145.824" width="38.3862" height="14.8119" fill="#E6F1FA" stroke="#C9D4DE" stroke-width="0.228175"/>
<rect x="343.43" y="145.824" width="39.6564" height="14.8119" stroke="#C9D4DE" stroke-width="0.228175"/>
<rect x="151.632" y="160.571" width="38.3862" height="14.8119" stroke="#C9D4DE" stroke-width="0.228175"/>
<mask id="path-51-inside-6_1232_64827" fill="white">
<path d="M113.308 160.457H151.922V175.497H113.308V160.457Z"/>
</mask>
<path d="M113.308 160.457V160.229H113.08V160.457H113.308ZM113.308 175.497H113.08V175.726H113.308V175.497ZM113.308 160.685H151.922V160.229H113.308V160.685ZM151.922 175.269H113.308V175.726H151.922V175.269ZM113.536 175.497V160.457H113.08V175.497H113.536Z" fill="#C9D4DE" mask="url(#path-51-inside-6_1232_64827)"/>
<rect x="189.993" y="160.571" width="38.3862" height="14.8119" stroke="#C9D4DE" stroke-width="0.228175"/>
<rect x="228.349" y="160.571" width="38.3862" height="14.8119" stroke="#C9D4DE" stroke-width="0.228175"/>
<rect x="266.714" y="160.571" width="38.3862" height="14.8119" stroke="#C9D4DE" stroke-width="0.228175"/>
<rect x="305.07" y="160.571" width="38.3862" height="14.8119" stroke="#C9D4DE" stroke-width="0.228175"/>
<rect x="228.421" y="160.571" width="38.3862" height="14.8119" fill="#E6F1FA" stroke="#C9D4DE" stroke-width="0.228175"/>
<rect x="343.43" y="160.571" width="39.6564" height="14.8119" stroke="#C9D4DE" stroke-width="0.228175"/>
<rect x="151.632" y="175.315" width="38.3862" height="14.8119" stroke="#C9D4DE" stroke-width="0.228175"/>
<mask id="path-60-inside-7_1232_64827" fill="white">
<path d="M113.308 175.201H151.922V190.241H113.308V175.201Z"/>
</mask>
<path d="M113.308 175.201V174.973H113.08V175.201H113.308ZM113.308 190.241H113.08V190.469H113.308V190.241ZM113.308 175.429H151.922V174.973H113.308V175.429ZM151.922 190.013H113.308V190.469H151.922V190.013ZM113.536 190.241V175.201H113.08V190.241H113.536Z" fill="#C9D4DE" mask="url(#path-60-inside-7_1232_64827)"/>
<rect x="189.993" y="175.315" width="38.3862" height="14.8119" stroke="#C9D4DE" stroke-width="0.228175"/>
<rect x="228.349" y="175.315" width="38.3862" height="14.8119" stroke="#C9D4DE" stroke-width="0.228175"/>
<rect x="266.714" y="175.315" width="38.3862" height="14.8119" stroke="#C9D4DE" stroke-width="0.228175"/>
<rect x="305.07" y="175.315" width="38.3862" height="14.8119" stroke="#C9D4DE" stroke-width="0.228175"/>
<rect x="228.421" y="175.315" width="38.3862" height="14.8119" fill="#E6F1FA" stroke="#C9D4DE" stroke-width="0.228175"/>
<rect x="343.43" y="175.315" width="39.6564" height="14.8119" stroke="#C9D4DE" stroke-width="0.228175"/>
<rect x="151.632" y="190.06" width="38.3862" height="14.8119" stroke="#C9D4DE" stroke-width="0.228175"/>
<mask id="path-69-inside-8_1232_64827" fill="white">
<path d="M113.308 189.946H151.922V204.986H113.308V189.946Z"/>
</mask>
<path d="M113.308 189.946V189.718H113.08V189.946H113.308ZM113.308 204.986H113.08V205.215H113.308V204.986ZM113.308 190.174H151.922V189.718H113.308V190.174ZM151.922 204.758H113.308V205.215H151.922V204.758ZM113.536 204.986V189.946H113.08V204.986H113.536Z" fill="#C9D4DE" mask="url(#path-69-inside-8_1232_64827)"/>
<rect x="189.993" y="190.06" width="38.3862" height="14.8119" stroke="#C9D4DE" stroke-width="0.228175"/>
<rect x="228.349" y="190.06" width="38.3862" height="14.8119" stroke="#C9D4DE" stroke-width="0.228175"/>
<rect x="266.714" y="190.06" width="38.3862" height="14.8119" stroke="#C9D4DE" stroke-width="0.228175"/>
<rect x="305.07" y="190.06" width="38.3862" height="14.8119" stroke="#C9D4DE" stroke-width="0.228175"/>
<rect x="228.421" y="190.06" width="38.3862" height="14.8119" fill="#E6F1FA" stroke="#C9D4DE" stroke-width="0.228175"/>
<rect x="343.43" y="190.06" width="39.6564" height="14.8119" stroke="#C9D4DE" stroke-width="0.228175"/>
<rect x="151.632" y="204.805" width="38.3862" height="14.8119" stroke="#C9D4DE" stroke-width="0.228175"/>
<mask id="path-78-inside-9_1232_64827" fill="white">
<path d="M113.308 204.691H151.922V219.731H113.308V204.691Z"/>
</mask>
<path d="M113.308 204.691V204.463H113.08V204.691H113.308ZM113.308 219.731H113.08V219.959H113.308V219.731ZM113.308 204.919H151.922V204.463H113.308V204.919ZM151.922 219.503H113.308V219.959H151.922V219.503ZM113.536 219.731V204.691H113.08V219.731H113.536Z" fill="#C9D4DE" mask="url(#path-78-inside-9_1232_64827)"/>
<rect x="189.993" y="204.805" width="38.3862" height="14.8119" stroke="#C9D4DE" stroke-width="0.228175"/>
<rect x="228.349" y="204.805" width="38.3862" height="14.8119" stroke="#C9D4DE" stroke-width="0.228175"/>
<rect x="266.714" y="204.805" width="38.3862" height="14.8119" stroke="#C9D4DE" stroke-width="0.228175"/>
<rect x="305.07" y="204.805" width="38.3862" height="14.8119" stroke="#C9D4DE" stroke-width="0.228175"/>
<rect x="228.421" y="204.805" width="38.3862" height="14.8119" fill="#E6F1FA" stroke="#C9D4DE" stroke-width="0.228175"/>
<rect x="343.43" y="204.805" width="39.6564" height="14.8119" stroke="#C9D4DE" stroke-width="0.228175"/>
<rect x="151.632" y="219.551" width="38.3862" height="14.8119" stroke="#C9D4DE" stroke-width="0.228175"/>
<mask id="path-87-inside-10_1232_64827" fill="white">
<path d="M113.308 219.437H151.922V234.477H113.308V219.437Z"/>
</mask>
<path d="M113.308 219.437V219.208H113.08V219.437H113.308ZM113.308 234.477H113.08V234.705H113.308V234.477ZM113.308 219.665H151.922V219.208H113.308V219.665ZM151.922 234.249H113.308V234.705H151.922V234.249ZM113.536 234.477V219.437H113.08V234.477H113.536Z" fill="#C9D4DE" mask="url(#path-87-inside-10_1232_64827)"/>
<rect x="189.993" y="219.551" width="38.3862" height="14.8119" stroke="#C9D4DE" stroke-width="0.228175"/>
<rect x="228.349" y="219.551" width="38.3862" height="14.8119" stroke="#C9D4DE" stroke-width="0.228175"/>
<rect x="266.714" y="219.551" width="38.3862" height="14.8119" stroke="#C9D4DE" stroke-width="0.228175"/>
<rect x="305.07" y="219.551" width="38.3862" height="14.8119" stroke="#C9D4DE" stroke-width="0.228175"/>
<rect x="228.421" y="219.551" width="38.3862" height="14.8119" fill="#E6F1FA" stroke="#C9D4DE" stroke-width="0.228175"/>
<rect x="343.43" y="219.551" width="39.6564" height="14.8119" stroke="#C9D4DE" stroke-width="0.228175"/>
<rect x="151.632" y="234.295" width="38.3862" height="14.8119" stroke="#C9D4DE" stroke-width="0.228175"/>
<rect x="151.632" y="234.295" width="38.3862" height="14.8119" stroke="#C9D4DE" stroke-width="0.228175"/>
<mask id="path-97-inside-11_1232_64827" fill="white">
<path d="M113.308 234.181H151.922V249.221H113.308V234.181Z"/>
</mask>
<path d="M113.308 234.181V233.953H113.08V234.181H113.308ZM113.308 249.221H113.08V249.45H113.308V249.221ZM113.308 234.409H151.922V233.953H113.308V234.409ZM151.922 248.993H113.308V249.45H151.922V248.993ZM113.536 249.221V234.181H113.08V249.221H113.536Z" fill="#C9D4DE" mask="url(#path-97-inside-11_1232_64827)"/>
<rect x="189.993" y="234.295" width="38.3862" height="14.8119" stroke="#C9D4DE" stroke-width="0.228175"/>
<rect x="228.349" y="234.295" width="38.3862" height="14.8119" stroke="#C9D4DE" stroke-width="0.228175"/>
<rect x="266.714" y="234.295" width="38.3862" height="14.8119" stroke="#C9D4DE" stroke-width="0.228175"/>
<rect x="305.07" y="234.295" width="38.3862" height="14.8119" stroke="#C9D4DE" stroke-width="0.228175"/>
<rect x="228.421" y="234.295" width="38.3862" height="14.8119" fill="#E6F1FA" stroke="#C9D4DE" stroke-width="0.228175"/>
<rect x="343.43" y="234.295" width="39.6564" height="14.8119" stroke="#C9D4DE" stroke-width="0.228175"/>
<g filter="url(#filter1_d_1232_64827)">
<rect x="113.309" y="73.1646" width="39.282" height="13.8604" fill="white"/>
<rect x="152.343" y="73.1646" width="38.5217" height="13.8604" fill="white"/>
<rect x="190.606" y="73.1646" width="38.5217" height="13.8604" fill="white"/>
<rect x="228.875" y="73.1646" width="38.5217" height="13.8604" fill="white"/>
<rect x="267.143" y="73.1646" width="38.5217" height="13.8604" fill="white"/>
<rect x="343.676" y="73.1646" width="39.7889" height="13.8604" fill="white"/>
<rect x="305.175" y="73.1646" width="39.7889" height="13.8604" fill="white"/>
<rect x="228.691" y="72.8696" width="38.0149" height="13.8604" fill="#E6F1FA"/>
</g>
<rect x="151.633" y="249.042" width="38.3862" height="14.8119" stroke="#C9D4DE" stroke-width="0.228175"/>
<mask id="path-114-inside-12_1232_64827" fill="white">
<path d="M113.309 248.927H151.923V263.968H113.309V248.927Z"/>
</mask>
<path d="M113.309 248.927V248.699H113.081V248.927H113.309ZM113.309 263.968H113.081V264.196H113.309V263.968ZM113.309 249.156H151.923V248.699H113.309V249.156ZM151.923 263.739H113.309V264.196H151.923V263.739ZM113.537 263.968V248.927H113.081V263.968H113.537Z" fill="#C9D4DE" mask="url(#path-114-inside-12_1232_64827)"/>
<rect x="189.994" y="249.042" width="38.3862" height="14.8119" stroke="#C9D4DE" stroke-width="0.228175"/>
<rect x="228.35" y="249.042" width="38.3862" height="14.8119" stroke="#C9D4DE" stroke-width="0.228175"/>
<rect x="266.715" y="249.042" width="38.3862" height="14.8119" stroke="#C9D4DE" stroke-width="0.228175"/>
<rect x="305.071" y="249.042" width="38.3862" height="14.8119" stroke="#C9D4DE" stroke-width="0.228175"/>
<rect x="228.422" y="249.042" width="38.3862" height="14.8119" fill="#E6F1FA" stroke="#C9D4DE" stroke-width="0.228175"/>
<rect x="343.431" y="249.042" width="39.6564" height="14.8119" stroke="#C9D4DE" stroke-width="0.228175"/>
<path d="M114.616 261.986V262.133L113.968 263.608H113.685L114.332 262.2H113.492V261.986H114.616ZM115.189 262.634V264.071H114.921V262.402H115.168L115.189 262.634ZM115.975 262.994V263.017C115.975 263.105 115.965 263.186 115.944 263.261C115.924 263.336 115.894 263.401 115.853 263.456C115.814 263.511 115.765 263.554 115.708 263.585C115.65 263.615 115.583 263.63 115.507 263.63C115.432 263.63 115.366 263.616 115.31 263.589C115.254 263.561 115.207 263.521 115.168 263.47C115.13 263.419 115.098 263.358 115.075 263.289C115.052 263.219 115.035 263.143 115.026 263.06V262.97C115.035 262.881 115.052 262.801 115.075 262.729C115.098 262.657 115.13 262.595 115.168 262.543C115.207 262.491 115.254 262.451 115.31 262.422C115.365 262.394 115.43 262.38 115.505 262.38C115.581 262.38 115.648 262.395 115.706 262.425C115.765 262.454 115.814 262.495 115.855 262.549C115.895 262.603 115.925 262.668 115.945 262.743C115.965 262.818 115.975 262.902 115.975 262.994ZM115.706 263.017V262.994C115.706 262.938 115.701 262.887 115.691 262.839C115.68 262.791 115.664 262.749 115.642 262.712C115.62 262.676 115.591 262.648 115.556 262.627C115.522 262.607 115.481 262.596 115.432 262.596C115.385 262.596 115.344 262.604 115.31 262.621C115.276 262.636 115.247 262.658 115.224 262.687C115.201 262.715 115.183 262.748 115.171 262.786C115.158 262.823 115.149 262.863 115.144 262.907V263.123C115.153 263.177 115.168 263.226 115.189 263.27C115.211 263.315 115.241 263.351 115.281 263.377C115.321 263.403 115.372 263.416 115.435 263.416C115.483 263.416 115.524 263.406 115.558 263.385C115.592 263.364 115.62 263.336 115.642 263.299C115.664 263.262 115.68 263.219 115.691 263.171C115.701 263.123 115.706 263.072 115.706 263.017ZM116.54 262.648V263.608H116.272V262.402H116.525L116.54 262.648ZM116.497 262.961L116.405 262.959C116.405 262.876 116.416 262.799 116.437 262.729C116.457 262.658 116.488 262.597 116.528 262.545C116.568 262.492 116.618 262.452 116.677 262.424C116.737 262.395 116.807 262.38 116.886 262.38C116.941 262.38 116.991 262.388 117.036 262.405C117.082 262.42 117.122 262.445 117.155 262.479C117.189 262.513 117.215 262.557 117.233 262.611C117.252 262.664 117.261 262.729 117.261 262.805V263.608H116.993V262.828C116.993 262.769 116.984 262.723 116.966 262.69C116.949 262.656 116.924 262.633 116.891 262.619C116.859 262.604 116.821 262.596 116.776 262.596C116.726 262.596 116.683 262.606 116.647 262.625C116.612 262.645 116.584 262.671 116.561 262.704C116.539 262.738 116.523 262.776 116.512 262.82C116.502 262.864 116.497 262.911 116.497 262.961ZM117.244 262.889L117.119 262.917C117.119 262.844 117.129 262.776 117.149 262.711C117.169 262.646 117.199 262.588 117.239 262.539C117.279 262.49 117.328 262.451 117.387 262.422C117.446 262.394 117.513 262.38 117.589 262.38C117.65 262.38 117.705 262.389 117.754 262.406C117.803 262.422 117.844 262.448 117.878 262.484C117.913 262.519 117.939 262.566 117.956 262.623C117.974 262.679 117.983 262.748 117.983 262.828V263.608H117.713V262.827C117.713 262.766 117.705 262.719 117.687 262.685C117.67 262.652 117.645 262.629 117.613 262.616C117.581 262.603 117.543 262.596 117.498 262.596C117.457 262.596 117.42 262.604 117.388 262.62C117.357 262.635 117.331 262.656 117.309 262.683C117.287 262.71 117.271 262.741 117.26 262.776C117.25 262.811 117.244 262.848 117.244 262.889Z" fill="#486581"/>
<rect x="151.633" y="263.787" width="38.3862" height="14.8119" stroke="#C9D4DE" stroke-width="0.228175"/>
<mask id="path-124-inside-13_1232_64827" fill="white">
<path d="M113.309 263.672H151.923V278.713H113.309V263.672Z"/>
</mask>
<path d="M113.309 263.672V263.444H113.081V263.672H113.309ZM113.309 278.713H113.081V278.941H113.309V278.713ZM113.309 263.901H151.923V263.444H113.309V263.901ZM151.923 278.484H113.309V278.941H151.923V278.484ZM113.537 278.713V263.672H113.081V278.713H113.537Z" fill="#C9D4DE" mask="url(#path-124-inside-13_1232_64827)"/>
<rect x="189.994" y="263.787" width="38.3862" height="14.8119" stroke="#C9D4DE" stroke-width="0.228175"/>
<rect x="228.35" y="263.787" width="38.3862" height="14.8119" stroke="#C9D4DE" stroke-width="0.228175"/>
<rect x="266.715" y="263.787" width="38.3862" height="14.8119" stroke="#C9D4DE" stroke-width="0.228175"/>
<rect x="305.071" y="263.787" width="38.3862" height="14.8119" stroke="#C9D4DE" stroke-width="0.228175"/>
<rect x="228.422" y="263.787" width="38.3862" height="14.8119" fill="#E6F1FA" stroke="#C9D4DE" stroke-width="0.228175"/>
<rect x="343.431" y="263.787" width="39.6564" height="14.8119" stroke="#C9D4DE" stroke-width="0.228175"/>
<path d="M114.6 277.911C114.6 278.012 114.576 278.097 114.529 278.166C114.483 278.235 114.419 278.288 114.338 278.323C114.258 278.358 114.167 278.376 114.066 278.376C113.965 278.376 113.874 278.358 113.793 278.323C113.712 278.288 113.648 278.235 113.601 278.166C113.555 278.097 113.531 278.012 113.531 277.911C113.531 277.844 113.544 277.784 113.57 277.729C113.596 277.675 113.633 277.627 113.68 277.588C113.729 277.548 113.785 277.517 113.85 277.496C113.915 277.474 113.986 277.463 114.064 277.463C114.166 277.463 114.258 277.482 114.339 277.52C114.42 277.558 114.483 277.61 114.529 277.677C114.576 277.744 114.6 277.822 114.6 277.911ZM114.33 277.898C114.33 277.843 114.319 277.796 114.297 277.755C114.274 277.714 114.243 277.683 114.203 277.66C114.163 277.638 114.116 277.627 114.064 277.627C114.01 277.627 113.964 277.638 113.924 277.66C113.885 277.683 113.854 277.714 113.832 277.755C113.81 277.796 113.8 277.843 113.8 277.898C113.8 277.953 113.81 278 113.832 278.04C113.853 278.08 113.884 278.11 113.924 278.131C113.965 278.151 114.012 278.162 114.066 278.162C114.12 278.162 114.167 278.151 114.206 278.131C114.246 278.11 114.276 278.08 114.298 278.04C114.319 278 114.33 277.953 114.33 277.898ZM114.563 277.158C114.563 277.239 114.541 277.311 114.498 277.374C114.456 277.437 114.397 277.487 114.322 277.523C114.247 277.559 114.162 277.577 114.066 277.577C113.969 277.577 113.883 277.559 113.807 277.523C113.732 277.487 113.673 277.437 113.63 277.374C113.588 277.311 113.567 277.239 113.567 277.158C113.567 277.061 113.588 276.98 113.63 276.914C113.673 276.847 113.732 276.796 113.807 276.761C113.882 276.726 113.968 276.709 114.065 276.709C114.161 276.709 114.247 276.726 114.322 276.761C114.397 276.796 114.456 276.847 114.498 276.914C114.541 276.98 114.563 277.061 114.563 277.158ZM114.294 277.167C114.294 277.119 114.285 277.076 114.265 277.04C114.247 277.003 114.22 276.974 114.186 276.953C114.152 276.932 114.112 276.922 114.065 276.922C114.018 276.922 113.978 276.932 113.943 276.952C113.909 276.972 113.883 277 113.864 277.036C113.846 277.073 113.836 277.116 113.836 277.167C113.836 277.217 113.846 277.26 113.864 277.297C113.883 277.334 113.909 277.362 113.943 277.383C113.978 277.404 114.019 277.414 114.066 277.414C114.113 277.414 114.153 277.404 114.187 277.383C114.222 277.362 114.248 277.334 114.266 277.297C114.285 277.26 114.294 277.217 114.294 277.167ZM115.189 277.38V278.817H114.921V277.148H115.168L115.189 277.38ZM115.975 277.74V277.763C115.975 277.851 115.965 277.932 115.944 278.007C115.924 278.081 115.894 278.146 115.853 278.202C115.814 278.257 115.765 278.3 115.708 278.33C115.65 278.36 115.583 278.376 115.507 278.376C115.432 278.376 115.366 278.362 115.31 278.334C115.254 278.306 115.207 278.266 115.168 278.215C115.13 278.164 115.098 278.104 115.075 278.035C115.052 277.965 115.035 277.888 115.026 277.805V277.715C115.035 277.627 115.052 277.546 115.075 277.474C115.098 277.402 115.13 277.34 115.168 277.288C115.207 277.236 115.254 277.196 115.31 277.168C115.365 277.14 115.43 277.126 115.505 277.126C115.581 277.126 115.648 277.14 115.706 277.17C115.765 277.199 115.814 277.241 115.855 277.295C115.895 277.348 115.925 277.413 115.945 277.489C115.965 277.564 115.975 277.647 115.975 277.74ZM115.706 277.763V277.74C115.706 277.684 115.701 277.632 115.691 277.585C115.68 277.536 115.664 277.494 115.642 277.458C115.62 277.421 115.591 277.393 115.556 277.373C115.522 277.352 115.481 277.342 115.432 277.342C115.385 277.342 115.344 277.35 115.31 277.366C115.276 277.382 115.247 277.404 115.224 277.432C115.201 277.46 115.183 277.493 115.171 277.531C115.158 277.568 115.149 277.609 115.144 277.653V277.869C115.153 277.922 115.168 277.971 115.189 278.016C115.211 278.06 115.241 278.096 115.281 278.123C115.321 278.149 115.372 278.162 115.435 278.162C115.483 278.162 115.524 278.151 115.558 278.131C115.592 278.11 115.62 278.081 115.642 278.045C115.664 278.008 115.68 277.965 115.691 277.917C115.701 277.868 115.706 277.817 115.706 277.763ZM116.54 277.393V278.353H116.272V277.148H116.525L116.54 277.393ZM116.497 277.706L116.405 277.705C116.405 277.622 116.416 277.545 116.437 277.474C116.457 277.404 116.488 277.343 116.528 277.291C116.568 277.238 116.618 277.197 116.677 277.169C116.737 277.14 116.807 277.126 116.886 277.126C116.941 277.126 116.991 277.134 117.036 277.15C117.082 277.166 117.122 277.191 117.155 277.225C117.189 277.259 117.215 277.303 117.233 277.356C117.252 277.41 117.261 277.474 117.261 277.55V278.353H116.993V277.573C116.993 277.515 116.984 277.469 116.966 277.435C116.949 277.402 116.924 277.378 116.891 277.364C116.859 277.349 116.821 277.342 116.776 277.342C116.726 277.342 116.683 277.351 116.647 277.371C116.612 277.39 116.584 277.416 116.561 277.45C116.539 277.483 116.523 277.522 116.512 277.566C116.502 277.61 116.497 277.656 116.497 277.706ZM117.244 277.635L117.119 277.663C117.119 277.59 117.129 277.521 117.149 277.457C117.169 277.391 117.199 277.334 117.239 277.285C117.279 277.235 117.328 277.196 117.387 277.168C117.446 277.14 117.513 277.126 117.589 277.126C117.65 277.126 117.705 277.134 117.754 277.151C117.803 277.168 117.844 277.194 117.878 277.229C117.913 277.265 117.939 277.311 117.956 277.368C117.974 277.425 117.983 277.493 117.983 277.573V278.353H117.713V277.572C117.713 277.511 117.705 277.464 117.687 277.431C117.67 277.397 117.645 277.374 117.613 277.362C117.581 277.348 117.543 277.342 117.498 277.342C117.457 277.342 117.42 277.35 117.388 277.365C117.357 277.38 117.331 277.401 117.309 277.429C117.287 277.455 117.271 277.486 117.26 277.521C117.25 277.556 117.244 277.594 117.244 277.635Z" fill="#486581"/>
<rect x="151.633" y="278.532" width="38.3862" height="14.8119" stroke="#C9D4DE" stroke-width="0.228175"/>
<mask id="path-134-inside-14_1232_64827" fill="white">
<path d="M113.309 278.418H151.923V293.458H113.309V278.418Z"/>
</mask>
<path d="M113.309 278.418V278.19H113.081V278.418H113.309ZM113.309 293.458H113.081V293.686H113.309V293.458ZM113.309 278.646H151.923V278.19H113.309V278.646ZM151.923 293.23H113.309V293.686H151.923V293.23ZM113.537 293.458V278.418H113.081V293.458H113.537Z" fill="#C9D4DE" mask="url(#path-134-inside-14_1232_64827)"/>
<rect x="189.994" y="278.532" width="38.3862" height="14.8119" stroke="#C9D4DE" stroke-width="0.228175"/>
<rect x="228.35" y="278.532" width="38.3862" height="14.8119" stroke="#C9D4DE" stroke-width="0.228175"/>
<rect x="266.715" y="278.532" width="38.3862" height="14.8119" stroke="#C9D4DE" stroke-width="0.228175"/>
<rect x="305.071" y="278.532" width="38.3862" height="14.8119" stroke="#C9D4DE" stroke-width="0.228175"/>
<rect x="228.422" y="278.532" width="38.3862" height="14.8119" fill="#E6F1FA" stroke="#C9D4DE" stroke-width="0.228175"/>
<rect x="343.431" y="278.532" width="39.6564" height="14.8119" stroke="#C9D4DE" stroke-width="0.228175"/>
<rect x="151.633" y="293.277" width="38.3862" height="14.8119" stroke="#C9D4DE" stroke-width="0.228175"/>
<mask id="path-143-inside-15_1232_64827" fill="white">
<path d="M113.309 293.163H151.923V308.203H113.309V293.163Z"/>
</mask>
<path d="M113.309 293.163V292.935H113.081V293.163H113.309ZM113.309 308.203H113.081V308.431H113.309V308.203ZM113.309 293.391H151.923V292.935H113.309V293.391ZM151.923 307.975H113.309V308.431H151.923V307.975ZM113.537 308.203V293.163H113.081V308.203H113.537Z" fill="#C9D4DE" mask="url(#path-143-inside-15_1232_64827)"/>
<rect x="189.994" y="293.277" width="38.3862" height="14.8119" stroke="#C9D4DE" stroke-width="0.228175"/>
<rect x="228.35" y="293.277" width="38.3862" height="14.8119" stroke="#C9D4DE" stroke-width="0.228175"/>
<rect x="266.715" y="293.277" width="38.3862" height="14.8119" stroke="#C9D4DE" stroke-width="0.228175"/>
<rect x="305.071" y="293.277" width="38.3862" height="14.8119" stroke="#C9D4DE" stroke-width="0.228175"/>
<rect x="228.422" y="293.277" width="38.3862" height="14.8119" fill="#E6F1FA" stroke="#C9D4DE" stroke-width="0.228175"/>
<rect x="343.431" y="293.277" width="39.6564" height="14.8119" stroke="#C9D4DE" stroke-width="0.228175"/>
<path d="M113.755 292.887H113.777C113.88 292.887 113.965 292.874 114.034 292.847C114.103 292.819 114.158 292.782 114.199 292.733C114.239 292.685 114.269 292.628 114.287 292.563C114.304 292.497 114.313 292.427 114.313 292.35V292.07C114.313 292.004 114.306 291.946 114.292 291.897C114.279 291.846 114.259 291.804 114.234 291.771C114.21 291.737 114.181 291.711 114.148 291.694C114.116 291.677 114.082 291.668 114.045 291.668C114.004 291.668 113.967 291.677 113.934 291.696C113.903 291.714 113.875 291.739 113.853 291.771C113.832 291.802 113.815 291.839 113.803 291.881C113.792 291.923 113.786 291.967 113.786 292.015C113.786 292.059 113.791 292.102 113.802 292.144C113.813 292.185 113.829 292.221 113.851 292.253C113.872 292.285 113.9 292.31 113.932 292.329C113.965 292.347 114.003 292.357 114.047 292.357C114.089 292.357 114.127 292.349 114.162 292.333C114.197 292.317 114.227 292.295 114.253 292.268C114.279 292.24 114.3 292.209 114.314 292.175C114.329 292.141 114.337 292.106 114.339 292.07L114.441 292.102C114.441 292.158 114.43 292.214 114.406 292.269C114.383 292.323 114.35 292.373 114.309 292.418C114.268 292.463 114.22 292.498 114.165 292.525C114.111 292.552 114.052 292.565 113.988 292.565C113.911 292.565 113.842 292.551 113.783 292.522C113.724 292.492 113.675 292.452 113.636 292.401C113.597 292.351 113.568 292.293 113.549 292.228C113.53 292.162 113.52 292.093 113.52 292.021C113.52 291.943 113.532 291.87 113.556 291.802C113.579 291.734 113.614 291.673 113.659 291.621C113.705 291.569 113.76 291.528 113.824 291.499C113.89 291.469 113.963 291.454 114.046 291.454C114.134 291.454 114.21 291.471 114.276 291.506C114.343 291.54 114.398 291.587 114.444 291.647C114.489 291.707 114.523 291.777 114.546 291.856C114.569 291.936 114.581 292.021 114.581 292.113V292.207C114.581 292.303 114.572 292.396 114.555 292.485C114.538 292.573 114.51 292.655 114.471 292.731C114.434 292.806 114.383 292.872 114.321 292.929C114.259 292.986 114.184 293.03 114.094 293.062C114.005 293.093 113.9 293.109 113.78 293.109H113.755V292.887ZM115.189 292.125V293.562H114.921V291.893H115.168L115.189 292.125ZM115.975 292.485V292.508C115.975 292.596 115.965 292.677 115.944 292.752C115.924 292.827 115.894 292.892 115.853 292.947C115.814 293.002 115.765 293.045 115.708 293.075C115.65 293.106 115.583 293.121 115.507 293.121C115.432 293.121 115.366 293.107 115.31 293.08C115.254 293.052 115.207 293.012 115.168 292.961C115.13 292.909 115.098 292.849 115.075 292.78C115.052 292.71 115.035 292.634 115.026 292.551V292.46C115.035 292.372 115.052 292.292 115.075 292.22C115.098 292.148 115.13 292.086 115.168 292.034C115.207 291.982 115.254 291.942 115.31 291.913C115.365 291.885 115.43 291.871 115.505 291.871C115.581 291.871 115.648 291.886 115.706 291.916C115.765 291.945 115.814 291.986 115.855 292.04C115.895 292.094 115.925 292.158 115.945 292.234C115.965 292.309 115.975 292.393 115.975 292.485ZM115.706 292.508V292.485C115.706 292.429 115.701 292.378 115.691 292.33C115.68 292.282 115.664 292.239 115.642 292.203C115.62 292.167 115.591 292.138 115.556 292.118C115.522 292.098 115.481 292.087 115.432 292.087C115.385 292.087 115.344 292.095 115.31 292.112C115.276 292.127 115.247 292.149 115.224 292.177C115.201 292.206 115.183 292.239 115.171 292.277C115.158 292.314 115.149 292.354 115.144 292.398V292.614C115.153 292.668 115.168 292.717 115.189 292.761C115.211 292.806 115.241 292.841 115.281 292.868C115.321 292.894 115.372 292.907 115.435 292.907C115.483 292.907 115.524 292.897 115.558 292.876C115.592 292.855 115.62 292.827 115.642 292.79C115.664 292.753 115.68 292.71 115.691 292.662C115.701 292.614 115.706 292.562 115.706 292.508ZM116.54 292.138V293.099H116.272V291.893H116.525L116.54 292.138ZM116.497 292.451L116.405 292.45C116.405 292.367 116.416 292.29 116.437 292.22C116.457 292.149 116.488 292.088 116.528 292.036C116.568 291.983 116.618 291.943 116.677 291.914C116.737 291.885 116.807 291.871 116.886 291.871C116.941 291.871 116.991 291.879 117.036 291.895C117.082 291.911 117.122 291.936 117.155 291.97C117.189 292.004 117.215 292.048 117.233 292.102C117.252 292.155 117.261 292.22 117.261 292.295V293.099H116.993V292.319C116.993 292.26 116.984 292.214 116.966 292.181C116.949 292.147 116.924 292.124 116.891 292.109C116.859 292.095 116.821 292.087 116.776 292.087C116.726 292.087 116.683 292.097 116.647 292.116C116.612 292.135 116.584 292.162 116.561 292.195C116.539 292.229 116.523 292.267 116.512 292.311C116.502 292.355 116.497 292.402 116.497 292.451ZM117.244 292.38L117.119 292.408C117.119 292.335 117.129 292.266 117.149 292.202C117.169 292.137 117.199 292.079 117.239 292.03C117.279 291.981 117.328 291.942 117.387 291.913C117.446 291.885 117.513 291.871 117.589 291.871C117.65 291.871 117.705 291.88 117.754 291.897C117.803 291.913 117.844 291.939 117.878 291.975C117.913 292.01 117.939 292.057 117.956 292.114C117.974 292.17 117.983 292.239 117.983 292.319V293.099H117.713V292.318C117.713 292.257 117.705 292.21 117.687 292.176C117.67 292.143 117.645 292.12 117.613 292.107C117.581 292.094 117.543 292.087 117.498 292.087C117.457 292.087 117.42 292.095 117.388 292.111C117.357 292.125 117.331 292.147 117.309 292.174C117.287 292.201 117.271 292.232 117.26 292.266C117.25 292.301 117.244 292.339 117.244 292.38Z" fill="#486581"/>
<line x1="343.467" y1="87.0254" x2="343.467" y2="54.881" stroke="#C9D4DE" stroke-width="0.228175"/>
<line x1="305.102" y1="87.0254" x2="305.102" y2="54.881" stroke="#C9D4DE" stroke-width="0.228175"/>
<line x1="266.746" y1="87.0254" x2="266.746" y2="54.881" stroke="#C9D4DE" stroke-width="0.228175"/>
<line x1="228.39" y1="87.0254" x2="228.39" y2="54.881" stroke="#C9D4DE" stroke-width="0.228175"/>
<line x1="190.025" y1="87.0254" x2="190.025" y2="54.881" stroke="#C9D4DE" stroke-width="0.228175"/>
<line x1="151.664" y1="87.0254" x2="151.664" y2="54.881" stroke="#C9D4DE" stroke-width="0.228175"/>
<rect x="305.219" y="86.7305" width="38.1063" height="0.589806" fill="#F0F9FF"/>
<path d="M129.45 40.509C129.437 40.3941 129.382 40.3048 129.285 40.2413C129.188 40.1778 129.069 40.146 128.929 40.146C128.826 40.146 128.736 40.1627 128.659 40.1959C128.582 40.2292 128.522 40.275 128.479 40.3332C128.437 40.3914 128.416 40.4576 128.416 40.5317C128.416 40.5937 128.431 40.6471 128.46 40.6917C128.49 40.7355 128.529 40.7722 128.576 40.8017C128.623 40.8304 128.672 40.8543 128.723 40.8732C128.775 40.8913 128.822 40.9061 128.865 40.9174L129.101 40.9809C129.161 40.9968 129.229 41.0188 129.303 41.0467C129.378 41.0747 129.449 41.1129 129.517 41.1613C129.586 41.209 129.643 41.2702 129.687 41.3451C129.732 41.42 129.754 41.5118 129.754 41.6207C129.754 41.7463 129.721 41.8597 129.656 41.9611C129.591 42.0624 129.495 42.1429 129.37 42.2027C129.245 42.2624 129.093 42.2923 128.915 42.2923C128.749 42.2923 128.604 42.2655 128.483 42.2118C128.362 42.1581 128.266 42.0832 128.197 41.9872C128.128 41.8911 128.089 41.7796 128.08 41.6525H128.37C128.378 41.7402 128.407 41.8128 128.459 41.8703C128.511 41.927 128.577 41.9694 128.656 41.9974C128.736 42.0246 128.823 42.0382 128.915 42.0382C129.022 42.0382 129.119 42.0208 129.204 41.986C129.29 41.9505 129.357 41.9013 129.407 41.8385C129.457 41.775 129.482 41.7009 129.482 41.6162C129.482 41.5391 129.461 41.4763 129.417 41.4279C129.374 41.3795 129.318 41.3402 129.247 41.3099C129.177 41.2797 129.101 41.2532 129.019 41.2305L128.733 41.1488C128.552 41.0967 128.408 41.0222 128.302 40.9254C128.196 40.8286 128.144 40.7019 128.144 40.5453C128.144 40.4153 128.179 40.3018 128.249 40.205C128.32 40.1075 128.415 40.0318 128.535 39.9781C128.655 39.9237 128.789 39.8965 128.938 39.8965C129.087 39.8965 129.22 39.9233 129.337 39.977C129.453 40.0299 129.546 40.1025 129.614 40.1948C129.683 40.2871 129.719 40.3918 129.723 40.509H129.45ZM132.198 39.9282H132.479V41.4665C132.479 41.6253 132.442 41.7671 132.367 41.8919C132.293 42.0159 132.188 42.1138 132.053 42.1857C131.917 42.2568 131.759 42.2923 131.576 42.2923C131.394 42.2923 131.235 42.2568 131.1 42.1857C130.964 42.1138 130.859 42.0159 130.784 41.8919C130.71 41.7671 130.673 41.6253 130.673 41.4665V39.9282H130.955V41.4438C130.955 41.5572 130.98 41.6582 131.029 41.7467C131.079 41.8344 131.15 41.9036 131.243 41.9543C131.336 42.0042 131.447 42.0291 131.576 42.0291C131.706 42.0291 131.817 42.0042 131.91 41.9543C132.003 41.9036 132.074 41.8344 132.123 41.7467C132.173 41.6582 132.198 41.5572 132.198 41.4438V39.9282ZM135.34 39.9282V42.2515H135.067L133.801 40.4274H133.779V42.2515H133.497V39.9282H133.77L135.04 41.7569H135.063V39.9282H135.34Z" fill="white"/>
<path d="M127.329 46.1619V49.1489H126.915L125.397 46.9583H125.369V49.1489H124.919V46.1619H125.336L126.855 48.3555H126.883V46.1619H127.329ZM131.038 47.6554C131.038 47.9743 130.98 48.2485 130.863 48.478C130.746 48.7065 130.586 48.8825 130.383 49.006C130.181 49.1285 129.951 49.1898 129.693 49.1898C129.435 49.1898 129.204 49.1285 129 49.006C128.798 48.8825 128.639 48.706 128.522 48.4766C128.405 48.2471 128.347 47.9734 128.347 47.6554C128.347 47.3365 128.405 47.0628 128.522 46.8343C128.639 46.6048 128.798 46.4288 129 46.3063C129.204 46.1828 129.435 46.1211 129.693 46.1211C129.951 46.1211 130.181 46.1828 130.383 46.3063C130.586 46.4288 130.746 46.6048 130.863 46.8343C130.98 47.0628 131.038 47.3365 131.038 47.6554ZM130.592 47.6554C130.592 47.4123 130.552 47.2077 130.473 47.0414C130.396 46.8741 130.289 46.7477 130.153 46.6622C130.017 46.5756 129.864 46.5324 129.693 46.5324C129.521 46.5324 129.367 46.5756 129.232 46.6622C129.097 46.7477 128.99 46.8741 128.911 47.0414C128.834 47.2077 128.795 47.4123 128.795 47.6554C128.795 47.8985 128.834 48.1037 128.911 48.2709C128.99 48.4372 129.097 48.5636 129.232 48.6501C129.367 48.7357 129.521 48.7785 129.693 48.7785C129.864 48.7785 130.017 48.7357 130.153 48.6501C130.289 48.5636 130.396 48.4372 130.473 48.2709C130.552 48.1037 130.592 47.8985 130.592 47.6554ZM132.169 46.1619L133 48.5947H133.034L133.865 46.1619H134.352L133.277 49.1489H132.757L131.682 46.1619H132.169ZM136.843 49.1489L138.147 46.5703V46.5484H136.639V46.1619H138.614V46.5615L137.314 49.1489H136.843Z" fill="white"/>
<path d="M166.787 39.6333H167.123L167.913 41.5618H167.94L168.73 39.6333H169.065V41.9565H168.802V40.1914H168.779L168.053 41.9565H167.799L167.073 40.1914H167.051V41.9565H166.787V39.6333ZM172.046 40.7949C172.046 41.04 172.002 41.2517 171.913 41.4302C171.825 41.6087 171.703 41.7463 171.549 41.8431C171.395 41.9399 171.219 41.9883 171.02 41.9883C170.822 41.9883 170.646 41.9399 170.492 41.8431C170.338 41.7463 170.216 41.6087 170.128 41.4302C170.039 41.2517 169.995 41.04 169.995 40.7949C169.995 40.5499 170.039 40.3381 170.128 40.1597C170.216 39.9812 170.338 39.8435 170.492 39.7467C170.646 39.6499 170.822 39.6015 171.02 39.6015C171.219 39.6015 171.395 39.6499 171.549 39.7467C171.703 39.8435 171.825 39.9812 171.913 40.1597C172.002 40.3381 172.046 40.5499 172.046 40.7949ZM171.774 40.7949C171.774 40.5938 171.74 40.424 171.673 40.2856C171.606 40.1472 171.516 40.0424 171.402 39.9714C171.288 39.9003 171.161 39.8647 171.02 39.8647C170.88 39.8647 170.752 39.9003 170.638 39.9714C170.525 40.0424 170.434 40.1472 170.367 40.2856C170.3 40.424 170.267 40.5938 170.267 40.7949C170.267 40.9961 170.3 41.1659 170.367 41.3043C170.434 41.4427 170.525 41.5474 170.638 41.6185C170.752 41.6896 170.88 41.7251 171.02 41.7251C171.161 41.7251 171.288 41.6896 171.402 41.6185C171.516 41.5474 171.606 41.4427 171.673 41.3043C171.74 41.1659 171.774 40.9961 171.774 40.7949ZM174.818 39.6333V41.9565H174.545L173.279 40.1324H173.257V41.9565H172.975V39.6333H173.248L174.518 41.4619H174.541V39.6333H174.818Z" fill="white"/>
<path d="M165.942 45.8677V48.8547H165.528L164.009 46.6641H163.982V48.8547H163.531V45.8677H163.948L165.468 48.0613H165.496V45.8677H165.942ZM169.65 47.3612C169.65 47.6802 169.592 47.9544 169.475 48.1838C169.359 48.4123 169.199 48.5883 168.995 48.7118C168.793 48.8343 168.563 48.8956 168.306 48.8956C168.047 48.8956 167.816 48.8343 167.613 48.7118C167.411 48.5883 167.251 48.4118 167.134 48.1824C167.018 47.9529 166.959 47.6792 166.959 47.3612C166.959 47.0423 167.018 46.7686 167.134 46.5401C167.251 46.3106 167.411 46.1346 167.613 46.0121C167.816 45.8886 168.047 45.8269 168.306 45.8269C168.563 45.8269 168.793 45.8886 168.995 46.0121C169.199 46.1346 169.359 46.3106 169.475 46.5401C169.592 46.7686 169.65 47.0423 169.65 47.3612ZM169.204 47.3612C169.204 47.1181 169.165 46.9135 169.086 46.7472C169.008 46.58 168.901 46.4536 168.765 46.368C168.63 46.2814 168.477 46.2382 168.306 46.2382C168.133 46.2382 167.98 46.2814 167.845 46.368C167.71 46.4536 167.603 46.58 167.524 46.7472C167.446 46.9135 167.407 47.1181 167.407 47.3612C167.407 47.6043 167.446 47.8095 167.524 47.9767C167.603 48.143 167.71 48.2694 167.845 48.3559C167.98 48.4415 168.133 48.4843 168.306 48.4843C168.477 48.4843 168.63 48.4415 168.765 48.3559C168.901 48.2694 169.008 48.143 169.086 47.9767C169.165 47.8095 169.204 47.6043 169.204 47.3612ZM170.781 45.8677L171.613 48.3005H171.646L172.477 45.8677H172.965L171.89 48.8547H171.369L170.294 45.8677H170.781ZM176.364 48.8956C176.155 48.8956 175.97 48.8596 175.81 48.7876C175.65 48.7157 175.525 48.6165 175.435 48.4901C175.345 48.3637 175.3 48.2198 175.301 48.0584C175.3 47.932 175.326 47.8158 175.378 47.7098C175.432 47.6029 175.504 47.5139 175.595 47.4429C175.687 47.371 175.789 47.3253 175.902 47.3058V47.2883C175.753 47.2523 175.634 47.1726 175.544 47.0491C175.455 46.9256 175.411 46.7837 175.412 46.6232C175.411 46.4706 175.451 46.3344 175.533 46.2148C175.615 46.0943 175.729 45.9995 175.873 45.9304C176.016 45.8614 176.18 45.8269 176.364 45.8269C176.546 45.8269 176.708 45.8619 176.851 45.9319C176.995 46.0009 177.108 46.0957 177.191 46.2163C177.274 46.3359 177.316 46.4715 177.316 46.6232C177.316 46.7837 177.27 46.9256 177.179 47.0491C177.089 47.1726 176.971 47.2523 176.826 47.2883V47.3058C176.938 47.3253 177.039 47.371 177.128 47.4429C177.219 47.5139 177.291 47.6029 177.344 47.7098C177.399 47.8158 177.426 47.932 177.427 48.0584C177.426 48.2198 177.381 48.3637 177.29 48.4901C177.2 48.6165 177.074 48.7157 176.914 48.7876C176.754 48.8596 176.571 48.8956 176.364 48.8956ZM176.364 48.5266C176.488 48.5266 176.595 48.5062 176.685 48.4653C176.775 48.4235 176.845 48.3657 176.895 48.2918C176.945 48.2169 176.97 48.1294 176.971 48.0292C176.97 47.9252 176.943 47.8333 176.889 47.7536C176.837 47.6738 176.765 47.6111 176.675 47.5654C176.584 47.5197 176.481 47.4969 176.364 47.4969C176.246 47.4969 176.142 47.5197 176.051 47.5654C175.959 47.6111 175.887 47.6738 175.835 47.7536C175.782 47.8333 175.756 47.9252 175.757 48.0292C175.756 48.1294 175.78 48.2169 175.829 48.2918C175.878 48.3657 175.949 48.4235 176.04 48.4653C176.132 48.5062 176.24 48.5266 176.364 48.5266ZM176.364 47.1366C176.463 47.1366 176.551 47.1167 176.628 47.0768C176.705 47.037 176.765 46.9815 176.809 46.9105C176.854 46.8396 176.877 46.7564 176.877 46.6611C176.877 46.5678 176.854 46.4861 176.81 46.4161C176.768 46.3461 176.708 46.2921 176.631 46.2542C176.554 46.2153 176.465 46.1959 176.364 46.1959C176.261 46.1959 176.171 46.2153 176.093 46.2542C176.016 46.2921 175.956 46.3461 175.913 46.4161C175.871 46.4861 175.85 46.5678 175.851 46.6611C175.85 46.7564 175.871 46.8396 175.915 46.9105C175.959 46.9815 176.019 47.037 176.096 47.0768C176.174 47.1167 176.263 47.1366 176.364 47.1366Z" fill="white"/>
<path d="M205.534 40.1778V39.9282H207.277V40.1778H206.546V42.2515H206.265V40.1778H205.534ZM209.692 39.9282H209.973V41.4665C209.973 41.6253 209.936 41.7671 209.861 41.8919C209.787 42.0159 209.682 42.1138 209.547 42.1857C209.411 42.2568 209.253 42.2923 209.07 42.2923C208.888 42.2923 208.729 42.2568 208.594 42.1857C208.459 42.1138 208.353 42.0159 208.279 41.8919C208.204 41.7671 208.167 41.6253 208.167 41.4665V39.9282H208.449V41.4438C208.449 41.5572 208.474 41.6582 208.524 41.7467C208.573 41.8344 208.645 41.9036 208.737 41.9543C208.83 42.0042 208.941 42.0291 209.07 42.0291C209.2 42.0291 209.311 42.0042 209.404 41.9543C209.497 41.9036 209.568 41.8344 209.617 41.7467C209.667 41.6582 209.692 41.5572 209.692 41.4438V39.9282ZM210.991 42.2515V39.9282H212.394V40.1778H211.273V40.9628H212.321V41.2124H211.273V42.0019H212.412V42.2515H210.991Z" fill="white"/>
<path d="M204.564 46.1619V49.1489H204.15L202.632 46.9583H202.604V49.1489H202.153V46.1619H202.57L204.09 48.3555H204.118V46.1619H204.564ZM208.272 47.6554C208.272 47.9743 208.214 48.2485 208.097 48.478C207.981 48.7065 207.821 48.8825 207.618 49.006C207.415 49.1285 207.185 49.1898 206.928 49.1898C206.669 49.1898 206.438 49.1285 206.235 49.006C206.033 48.8825 205.873 48.706 205.757 48.4766C205.64 48.2471 205.582 47.9734 205.582 47.6554C205.582 47.3365 205.64 47.0628 205.757 46.8343C205.873 46.6048 206.033 46.4288 206.235 46.3063C206.438 46.1828 206.669 46.1211 206.928 46.1211C207.185 46.1211 207.415 46.1828 207.618 46.3063C207.821 46.4288 207.981 46.6048 208.097 46.8343C208.214 47.0628 208.272 47.3365 208.272 47.6554ZM207.826 47.6554C207.826 47.4123 207.787 47.2077 207.708 47.0414C207.63 46.8741 207.523 46.7477 207.387 46.6622C207.252 46.5756 207.099 46.5324 206.928 46.5324C206.756 46.5324 206.602 46.5756 206.467 46.6622C206.332 46.7477 206.225 46.8741 206.146 47.0414C206.068 47.2077 206.029 47.4123 206.029 47.6554C206.029 47.8985 206.068 48.1037 206.146 48.2709C206.225 48.4372 206.332 48.5636 206.467 48.6501C206.602 48.7357 206.756 48.7785 206.928 48.7785C207.099 48.7785 207.252 48.7357 207.387 48.6501C207.523 48.5636 207.63 48.4372 207.708 48.2709C207.787 48.1037 207.826 47.8985 207.826 47.6554ZM209.403 46.1619L210.235 48.5947H210.268L211.1 46.1619H211.587L210.512 49.1489H209.991L208.916 46.1619H209.403ZM214.97 46.1211C215.103 46.122 215.235 46.1463 215.364 46.194C215.493 46.2416 215.61 46.3194 215.714 46.4274C215.819 46.5353 215.903 46.6811 215.965 46.8649C216.028 47.0477 216.06 47.2752 216.061 47.5475C216.061 47.809 216.035 48.0419 215.982 48.2461C215.93 48.4493 215.855 48.6209 215.756 48.761C215.659 48.901 215.541 49.0075 215.402 49.0804C215.263 49.1533 215.106 49.1898 214.932 49.1898C214.754 49.1898 214.596 49.1548 214.458 49.0848C214.32 49.0147 214.208 48.918 214.121 48.7945C214.035 48.67 213.981 48.5271 213.959 48.3657H214.404C214.433 48.4941 214.493 48.5981 214.582 48.6778C214.673 48.7566 214.789 48.796 214.932 48.796C215.151 48.796 215.322 48.7007 215.444 48.5101C215.567 48.3186 215.628 48.0512 215.629 47.7079H215.606C215.556 47.7915 215.492 47.8635 215.416 47.9238C215.342 47.9841 215.258 48.0307 215.164 48.0638C215.071 48.0969 214.971 48.1134 214.865 48.1134C214.693 48.1134 214.537 48.0711 214.396 47.9865C214.255 47.9019 214.142 47.7857 214.059 47.6379C213.975 47.4901 213.933 47.3214 213.933 47.1318C213.933 46.9432 213.976 46.772 214.062 46.6184C214.148 46.4648 214.269 46.3432 214.423 46.2538C214.579 46.1634 214.761 46.1191 214.97 46.1211ZM214.972 46.5003C214.858 46.5003 214.755 46.5285 214.664 46.5849C214.573 46.6403 214.502 46.7157 214.449 46.8109C214.397 46.9053 214.371 47.0103 214.371 47.126C214.371 47.2417 214.396 47.3467 214.447 47.441C214.498 47.5344 214.568 47.6087 214.657 47.6642C214.746 47.7186 214.848 47.7458 214.963 47.7458C215.048 47.7458 215.128 47.7293 215.202 47.6963C215.276 47.6632 215.341 47.6175 215.396 47.5592C215.451 47.4998 215.495 47.4328 215.526 47.3579C215.557 47.283 215.573 47.2043 215.573 47.1216C215.573 47.0117 215.546 46.9096 215.494 46.8153C215.442 46.721 215.371 46.6452 215.281 46.5878C215.19 46.5295 215.087 46.5003 214.972 46.5003Z" fill="white"/>
<path d="M244.444 42.2515L243.809 39.9282H244.095L244.58 41.8204H244.603L245.097 39.9282H245.415L245.91 41.8204H245.932L246.418 39.9282H246.704L246.068 42.2515H245.778L245.265 40.4001H245.247L244.734 42.2515H244.444ZM247.511 42.2515V39.9282H248.913V40.1778H247.792V40.9628H248.84V41.2124H247.792V42.0019H248.931V42.2515H247.511ZM250.593 42.2515H249.876V39.9282H250.625C250.85 39.9282 251.043 39.9747 251.203 40.0678C251.364 40.16 251.487 40.2927 251.572 40.4659C251.658 40.6384 251.7 40.8448 251.7 41.0853C251.7 41.3273 251.657 41.5357 251.571 41.7104C251.485 41.8843 251.359 42.0182 251.194 42.1119C251.029 42.205 250.829 42.2515 250.593 42.2515ZM250.157 42.0019H250.575C250.767 42.0019 250.926 41.9648 251.053 41.8907C251.179 41.8166 251.273 41.7111 251.335 41.5742C251.397 41.4373 251.428 41.2744 251.428 41.0853C251.428 40.8978 251.397 40.7363 251.336 40.6009C251.275 40.4648 251.183 40.3604 251.062 40.2878C250.94 40.2145 250.788 40.1778 250.607 40.1778H250.157V42.0019Z" fill="white"/>
<path d="M241.656 45.8677V48.8547H241.241L239.723 46.6641H239.695V48.8547H239.245V45.8677H239.662L241.182 48.0613H241.209V45.8677H241.656ZM245.364 47.3612C245.364 47.6802 245.306 47.9544 245.189 48.1838C245.072 48.4123 244.912 48.5883 244.709 48.7118C244.507 48.8343 244.277 48.8956 244.019 48.8956C243.761 48.8956 243.53 48.8343 243.327 48.7118C243.124 48.5883 242.965 48.4118 242.848 48.1824C242.731 47.9529 242.673 47.6792 242.673 47.3612C242.673 47.0423 242.731 46.7686 242.848 46.5401C242.965 46.3106 243.124 46.1346 243.327 46.0121C243.53 45.8886 243.761 45.8269 244.019 45.8269C244.277 45.8269 244.507 45.8886 244.709 46.0121C244.912 46.1346 245.072 46.3106 245.189 46.5401C245.306 46.7686 245.364 47.0423 245.364 47.3612ZM244.918 47.3612C244.918 47.1181 244.878 46.9135 244.8 46.7472C244.722 46.58 244.615 46.4536 244.479 46.368C244.344 46.2814 244.19 46.2382 244.019 46.2382C243.847 46.2382 243.694 46.2814 243.558 46.368C243.423 46.4536 243.316 46.58 243.238 46.7472C243.16 46.9135 243.121 47.1181 243.121 47.3612C243.121 47.6043 243.16 47.8095 243.238 47.9767C243.316 48.143 243.423 48.2694 243.558 48.3559C243.694 48.4415 243.847 48.4843 244.019 48.4843C244.19 48.4843 244.344 48.4415 244.479 48.3559C244.615 48.2694 244.722 48.143 244.8 47.9767C244.878 47.8095 244.918 47.6043 244.918 47.3612ZM246.495 45.8677L247.326 48.3005H247.36L248.191 45.8677H248.678L247.603 48.8547H247.083L246.008 45.8677H246.495ZM252.202 45.8677V48.8547H251.75V46.3199H251.732L251.017 46.7866V46.3549L251.763 45.8677H252.202ZM254.506 48.9043C254.276 48.9034 254.079 48.8426 253.915 48.722C253.752 48.6014 253.627 48.4259 253.541 48.1955C253.454 47.965 253.411 47.6874 253.411 47.3627C253.411 47.0389 253.454 46.7623 253.541 46.5328C253.628 46.3033 253.753 46.1283 253.917 46.0077C254.081 45.8872 254.278 45.8269 254.506 45.8269C254.735 45.8269 254.931 45.8877 255.094 46.0092C255.257 46.1298 255.382 46.3048 255.469 46.5343C255.556 46.7628 255.6 47.0389 255.6 47.3627C255.6 47.6884 255.557 47.9665 255.47 48.197C255.384 48.4264 255.259 48.6019 255.095 48.7235C254.932 48.844 254.736 48.9043 254.506 48.9043ZM254.506 48.5149C254.708 48.5149 254.866 48.4162 254.98 48.2188C255.095 48.0214 255.152 47.7361 255.152 47.3627C255.152 47.1147 255.126 46.9052 255.073 46.7341C255.022 46.562 254.948 46.4317 254.85 46.3432C254.754 46.2537 254.639 46.209 254.506 46.209C254.305 46.209 254.147 46.3082 254.032 46.5065C253.917 46.7049 253.859 46.9903 253.859 47.3627C253.859 47.6116 253.884 47.8221 253.936 47.9942C253.988 48.1653 254.063 48.2952 254.159 48.3836C254.255 48.4711 254.371 48.5149 254.506 48.5149Z" fill="white"/>
<path d="M282.512 40.1778V39.9282H284.255V40.1778H283.524V42.2515H283.243V40.1778H282.512ZM285.145 42.2515V39.9282H285.427V40.9628H286.665V39.9282H286.947V42.2515H286.665V41.2124H285.427V42.2515H285.145ZM289.491 39.9282H289.772V41.4665C289.772 41.6253 289.735 41.7671 289.66 41.8919C289.586 42.0159 289.481 42.1138 289.346 42.1857C289.21 42.2568 289.052 42.2923 288.869 42.2923C288.687 42.2923 288.528 42.2568 288.393 42.1857C288.257 42.1138 288.152 42.0159 288.077 41.8919C288.003 41.7671 287.966 41.6253 287.966 41.4665V39.9282H288.248V41.4438C288.248 41.5572 288.273 41.6582 288.322 41.7467C288.372 41.8344 288.443 41.9036 288.536 41.9543C288.629 42.0042 288.74 42.0291 288.869 42.0291C288.999 42.0291 289.11 42.0042 289.203 41.9543C289.296 41.9036 289.367 41.8344 289.416 41.7467C289.466 41.6582 289.491 41.5572 289.491 41.4438V39.9282Z" fill="white"/>
<path d="M280.007 46.1619V49.1489H279.592L278.074 46.9583H278.046V49.1489H277.596V46.1619H278.013L279.533 48.3555H279.56V46.1619H280.007ZM283.715 47.6554C283.715 47.9743 283.657 48.2485 283.54 48.478C283.423 48.7065 283.263 48.8825 283.06 49.006C282.858 49.1285 282.628 49.1898 282.37 49.1898C282.112 49.1898 281.881 49.1285 281.678 49.006C281.475 48.8825 281.316 48.706 281.199 48.4766C281.082 48.2471 281.024 47.9734 281.024 47.6554C281.024 47.3365 281.082 47.0628 281.199 46.8343C281.316 46.6048 281.475 46.4288 281.678 46.3063C281.881 46.1828 282.112 46.1211 282.37 46.1211C282.628 46.1211 282.858 46.1828 283.06 46.3063C283.263 46.4288 283.423 46.6048 283.54 46.8343C283.657 47.0628 283.715 47.3365 283.715 47.6554ZM283.269 47.6554C283.269 47.4123 283.229 47.2077 283.151 47.0414C283.073 46.8741 282.966 46.7477 282.83 46.6622C282.695 46.5756 282.541 46.5324 282.37 46.5324C282.198 46.5324 282.045 46.5756 281.909 46.6622C281.774 46.7477 281.667 46.8741 281.589 47.0414C281.511 47.2077 281.472 47.4123 281.472 47.6554C281.472 47.8985 281.511 48.1037 281.589 48.2709C281.667 48.4372 281.774 48.5636 281.909 48.6501C282.045 48.7357 282.198 48.7785 282.37 48.7785C282.541 48.7785 282.695 48.7357 282.83 48.6501C282.966 48.5636 283.073 48.4372 283.151 48.2709C283.229 48.1037 283.269 47.8985 283.269 47.6554ZM284.846 46.1619L285.677 48.5947H285.711L286.542 46.1619H287.029L285.954 49.1489H285.434L284.359 46.1619H284.846ZM290.553 46.1619V49.1489H290.101V46.614H290.083L289.368 47.0808V46.649L290.114 46.1619H290.553ZM292.95 46.1619V49.1489H292.498V46.614H292.481L291.766 47.0808V46.649L292.511 46.1619H292.95Z" fill="white"/>
<path d="M320.155 42.2515V39.9282H321.694V40.3332H320.646V40.8868H321.591V41.2918H320.646V42.2515H320.155ZM322.48 42.2515V39.9282H323.397C323.572 39.9282 323.722 39.9596 323.846 40.0224C323.971 40.0844 324.066 40.1725 324.131 40.2867C324.197 40.4001 324.23 40.5336 324.23 40.6871C324.23 40.8414 324.196 40.9741 324.13 41.0853C324.063 41.1957 323.967 41.2804 323.84 41.3394C323.715 41.3984 323.563 41.4279 323.384 41.4279H322.771V41.0331H323.305C323.399 41.0331 323.477 41.0203 323.539 40.9946C323.601 40.9688 323.647 40.9303 323.677 40.8788C323.708 40.8274 323.724 40.7635 323.724 40.6871C323.724 40.61 323.708 40.545 323.677 40.492C323.647 40.4391 323.6 40.399 323.538 40.3718C323.476 40.3438 323.397 40.3298 323.303 40.3298H322.971V42.2515H322.48ZM323.735 41.1942L324.312 42.2515H323.77L323.205 41.1942H323.735ZM325.524 39.9282V42.2515H325.033V39.9282H325.524Z" fill="white"/>
<path d="M317.141 46.1619V49.1489H316.464L315.385 47.5796H315.367V49.1489H314.556V46.1619H315.245L316.307 47.7254H316.33V46.1619H317.141ZM320.875 47.6554C320.875 47.988 320.81 48.2685 320.681 48.497C320.551 48.7245 320.377 48.8971 320.157 49.0147C319.937 49.1314 319.692 49.1898 319.422 49.1898C319.15 49.1898 318.904 49.1309 318.684 49.0133C318.465 48.8947 318.291 48.7216 318.162 48.4941C318.033 48.2656 317.969 47.986 317.969 47.6554C317.969 47.3229 318.033 47.0428 318.162 46.8153C318.291 46.5868 318.465 46.4142 318.684 46.2975C318.904 46.1799 319.15 46.1211 319.422 46.1211C319.692 46.1211 319.937 46.1799 320.157 46.2975C320.377 46.4142 320.551 46.5868 320.681 46.8153C320.81 47.0428 320.875 47.3229 320.875 47.6554ZM320.04 47.6554C320.04 47.4765 320.016 47.3258 319.969 47.2033C319.922 47.0798 319.853 46.9864 319.76 46.9232C319.669 46.8591 319.556 46.827 319.422 46.827C319.288 46.827 319.174 46.8591 319.082 46.9232C318.991 46.9864 318.921 47.0798 318.873 47.2033C318.827 47.3258 318.803 47.4765 318.803 47.6554C318.803 47.8343 318.827 47.9855 318.873 48.109C318.921 48.2315 318.991 48.3249 319.082 48.389C319.174 48.4522 319.288 48.4838 319.422 48.4838C319.556 48.4838 319.669 48.4522 319.76 48.389C319.853 48.3249 319.922 48.2315 319.969 48.109C320.016 47.9855 320.04 47.8343 320.04 47.6554ZM322.334 46.1619L322.947 48.268H322.97L323.583 46.1619H324.499L323.513 49.1489H322.404L321.418 46.1619H322.334ZM327.988 46.1619V49.1489H327.177V46.9087H327.159L326.506 47.2995V46.6111L327.241 46.1619H327.988ZM329.057 49.1489V48.5655L330.172 47.6437C330.245 47.5825 330.309 47.5251 330.361 47.4716C330.415 47.4172 330.455 47.3613 330.484 47.3039C330.513 47.2465 330.527 47.1829 330.527 47.1129C330.527 47.036 330.511 46.9704 330.478 46.916C330.446 46.8615 330.401 46.8197 330.344 46.7905C330.286 46.7604 330.22 46.7453 330.145 46.7453C330.07 46.7453 330.004 46.7604 329.947 46.7905C329.891 46.8207 329.847 46.8649 329.816 46.9232C329.785 46.9816 329.769 47.0526 329.769 47.1362H328.999C328.999 46.9262 329.046 46.7453 329.14 46.5936C329.235 46.4419 329.368 46.3253 329.54 46.2436C329.712 46.1619 329.914 46.1211 330.145 46.1211C330.384 46.1211 330.592 46.1595 330.767 46.2363C330.943 46.3121 331.078 46.4191 331.174 46.5572C331.27 46.6952 331.318 46.8571 331.318 47.0428C331.318 47.1576 331.294 47.2718 331.246 47.3856C331.199 47.4984 331.113 47.6233 330.99 47.7604C330.866 47.8975 330.691 48.0609 330.463 48.2505L330.183 48.4838V48.5013H331.35V49.1489H329.057Z" fill="white"/>
<path d="M360.118 40.509C360.104 40.3941 360.049 40.3048 359.952 40.2413C359.855 40.1778 359.736 40.146 359.596 40.146C359.493 40.146 359.403 40.1627 359.326 40.1959C359.249 40.2292 359.19 40.275 359.147 40.3332C359.104 40.3914 359.083 40.4576 359.083 40.5317C359.083 40.5937 359.098 40.6471 359.127 40.6917C359.158 40.7355 359.196 40.7722 359.243 40.8017C359.29 40.8304 359.339 40.8543 359.39 40.8732C359.442 40.8913 359.489 40.9061 359.532 40.9174L359.768 40.9809C359.829 40.9968 359.896 41.0188 359.97 41.0467C360.045 41.0747 360.117 41.1129 360.185 41.1613C360.253 41.209 360.31 41.2702 360.355 41.3451C360.399 41.42 360.422 41.5118 360.422 41.6207C360.422 41.7463 360.389 41.8597 360.323 41.9611C360.258 42.0624 360.163 42.1429 360.037 42.2027C359.912 42.2624 359.761 42.2923 359.582 42.2923C359.416 42.2923 359.272 42.2655 359.15 42.2118C359.029 42.1581 358.934 42.0832 358.864 41.9872C358.795 41.8911 358.756 41.7796 358.747 41.6525H359.038C359.045 41.7402 359.075 41.8128 359.126 41.8703C359.178 41.927 359.244 41.9694 359.324 41.9974C359.404 42.0246 359.49 42.0382 359.582 42.0382C359.69 42.0382 359.786 42.0208 359.871 41.986C359.957 41.9505 360.025 41.9013 360.075 41.8385C360.124 41.775 360.149 41.7009 360.149 41.6162C360.149 41.5391 360.128 41.4763 360.085 41.4279C360.042 41.3795 359.985 41.3402 359.915 41.3099C359.844 41.2797 359.768 41.2532 359.687 41.2305L359.401 41.1488C359.219 41.0967 359.076 41.0222 358.97 40.9254C358.864 40.8286 358.811 40.7019 358.811 40.5453C358.811 40.4153 358.846 40.3018 358.916 40.205C358.987 40.1075 359.083 40.0318 359.202 39.9781C359.322 39.9237 359.457 39.8965 359.605 39.8965C359.755 39.8965 359.888 39.9233 360.004 39.977C360.121 40.0299 360.213 40.1025 360.281 40.1948C360.35 40.2871 360.386 40.3918 360.39 40.509H360.118ZM361.436 42.2515H361.141L361.994 39.9282H362.284L363.137 42.2515H362.842L362.148 40.2958H362.13L361.436 42.2515ZM361.545 41.344H362.734V41.5935H361.545V41.344ZM363.557 40.1778V39.9282H365.3V40.1778H364.569V42.2515H364.288V40.1778H363.557Z" fill="white"/>
<path d="M356.733 46.1619V49.1489H356.318L354.8 46.9583H354.772V49.1489H354.322V46.1619H354.739L356.259 48.3555H356.286V46.1619H356.733ZM360.441 47.6554C360.441 47.9743 360.383 48.2485 360.266 48.478C360.149 48.7065 359.989 48.8825 359.786 49.006C359.584 49.1285 359.354 49.1898 359.096 49.1898C358.838 49.1898 358.607 49.1285 358.404 49.006C358.201 48.8825 358.042 48.706 357.925 48.4766C357.808 48.2471 357.75 47.9734 357.75 47.6554C357.75 47.3365 357.808 47.0628 357.925 46.8343C358.042 46.6048 358.201 46.4288 358.404 46.3063C358.607 46.1828 358.838 46.1211 359.096 46.1211C359.354 46.1211 359.584 46.1828 359.786 46.3063C359.989 46.4288 360.149 46.6048 360.266 46.8343C360.383 47.0628 360.441 47.3365 360.441 47.6554ZM359.995 47.6554C359.995 47.4123 359.955 47.2077 359.877 47.0414C359.799 46.8741 359.692 46.7477 359.556 46.6622C359.421 46.5756 359.267 46.5324 359.096 46.5324C358.924 46.5324 358.771 46.5756 358.635 46.6622C358.5 46.7477 358.393 46.8741 358.315 47.0414C358.237 47.2077 358.198 47.4123 358.198 47.6554C358.198 47.8985 358.237 48.1037 358.315 48.2709C358.393 48.4372 358.5 48.5636 358.635 48.6501C358.771 48.7357 358.924 48.7785 359.096 48.7785C359.267 48.7785 359.421 48.7357 359.556 48.6501C359.692 48.5636 359.799 48.4372 359.877 48.2709C359.955 48.1037 359.995 47.8985 359.995 47.6554ZM361.572 46.1619L362.403 48.5947H362.437L363.268 46.1619H363.755L362.68 49.1489H362.16L361.085 46.1619H361.572ZM367.279 46.1619V49.1489H366.827V46.614H366.809L366.094 47.0808V46.649L366.84 46.1619H367.279ZM369.583 49.1898C369.383 49.1898 369.204 49.1552 369.046 49.0862C368.89 49.0172 368.766 48.9214 368.674 48.7989C368.584 48.6754 368.535 48.5325 368.529 48.3701H368.987C368.992 48.4586 369.022 48.5354 369.075 48.6005C369.13 48.6647 369.201 48.7143 369.288 48.7493C369.376 48.7843 369.473 48.8018 369.58 48.8018C369.698 48.8018 369.802 48.7814 369.892 48.7405C369.984 48.6997 370.055 48.6428 370.107 48.5699C370.158 48.496 370.184 48.4109 370.184 48.3147C370.184 48.2145 370.158 48.1265 370.107 48.0507C370.056 47.9739 369.982 47.9136 369.883 47.8698C369.786 47.8261 369.669 47.8042 369.531 47.8042H369.278V47.4366H369.531C369.641 47.4366 369.739 47.4167 369.822 47.3768C369.907 47.337 369.973 47.2816 370.021 47.2106C370.068 47.1386 370.092 47.0545 370.092 46.9583C370.092 46.8659 370.071 46.7857 370.029 46.7176C369.989 46.6486 369.93 46.5946 369.854 46.5557C369.779 46.5168 369.691 46.4974 369.589 46.4974C369.492 46.4974 369.401 46.5154 369.316 46.5513C369.233 46.5863 369.164 46.6369 369.112 46.703C369.059 46.7682 369.031 46.8464 369.027 46.9378H368.591C368.596 46.7764 368.644 46.6345 368.734 46.5119C368.826 46.3894 368.946 46.2937 369.096 46.2246C369.246 46.1556 369.412 46.1211 369.595 46.1211C369.786 46.1211 369.952 46.1585 370.091 46.2334C370.231 46.3073 370.339 46.406 370.414 46.5295C370.491 46.6529 370.529 46.7881 370.528 46.9349C370.529 47.1022 370.482 47.2441 370.388 47.3608C370.295 47.4775 370.17 47.5558 370.015 47.5956V47.619C370.213 47.6491 370.367 47.7279 370.476 47.8552C370.586 47.9826 370.64 48.1406 370.639 48.3292C370.64 48.4936 370.594 48.6409 370.502 48.7712C370.411 48.9015 370.286 49.004 370.127 49.0789C369.969 49.1528 369.787 49.1898 369.583 49.1898Z" fill="white"/>
<g clip-path="url(#clip2_1232_64827)">
<path d="M377.893 48.2336L380.417 45.2997L377.893 42.3663L378.272 41.9243L381.162 45.2997L378.272 48.6748L377.893 48.2336Z" fill="#E6F1FA"/>
<path d="M378.273 42.056L381.05 45.3003L378.273 48.5452L378.006 48.2341L380.418 45.4306L380.53 45.3003L380.418 45.17L378.006 42.3664L378.273 42.056V42.056ZM378.274 41.7947L377.781 42.3664L380.305 45.3003L377.781 48.2343L378.274 48.8058L381.274 45.3003L378.274 41.7947Z" fill="#195581"/>
</g>
<g clip-path="url(#clip3_1232_64827)">
<path d="M118.224 42.064L115.7 44.9979L118.224 47.9313L117.845 48.3733L114.955 44.9979L117.845 41.6228L118.224 42.064Z" fill="#E6F1FA"/>
<path d="M117.844 48.2428L115.066 44.9985L117.844 41.7536L118.111 42.0648L115.699 44.8682L115.587 44.9985L115.699 45.1288L118.111 47.9324L117.844 48.2428V48.2428ZM117.843 48.5042L118.336 47.9324L115.811 44.9985L118.336 42.0646L117.843 41.493L114.843 44.9985L117.843 48.5042Z" fill="#195581"/>
</g>
<path d="M113.315 87.092L382.957 87.092" stroke="#C9D4DE" stroke-width="0.45635"/>
<rect x="115.133" y="147.568" width="34.6826" height="25.5556" rx="1.8254" fill="#FF3D00"/>
<rect x="306.801" y="147.568" width="34.6826" height="40.1588" rx="1.8254" fill="#54DAFF"/>
<rect x="346.043" y="183.163" width="34.6826" height="40.1588" rx="1.8254" fill="#2093DE"/>
<rect x="230.133" y="118.362" width="34.6826" height="40.1588" rx="1.8254" fill="#E81E6F"/>
<rect x="153.465" y="133.878" width="34.6826" height="24.6429" rx="1.8254" fill="#4CAF50"/>
<rect x="268.464" y="133.878" width="34.6826" height="24.6429" rx="1.8254" fill="#0C6ECB"/>
<rect x="230.133" y="192.29" width="34.6826" height="25.5556" rx="1.8254" fill="#E81E6F"/>
<rect x="153.465" y="192.29" width="34.6826" height="25.5556" rx="1.8254" fill="#4CAF50"/>
<rect x="230.133" y="236.1" width="34.6826" height="10.9524" rx="1.8254" fill="#E81E6F"/>
<rect x="268.464" y="236.1" width="34.6826" height="10.9524" rx="1.8254" fill="#0C6ECB"/>
<rect x="268.464" y="206.894" width="34.6826" height="10.9524" rx="1.8254" fill="#54DAFF"/>
<rect x="346.043" y="118.362" width="34.6826" height="10.9524" rx="1.8254" fill="#0C6ECB"/>
<rect x="268.464" y="177.687" width="34.6826" height="10.9524" rx="1.8254" fill="#0C6ECB"/>
<rect x="191.796" y="177.687" width="34.6826" height="10.9524" rx="1.8254" fill="#FFC107"/>
<rect x="191.796" y="162.171" width="34.6826" height="10.9524" rx="1.8254" fill="#FF3D00"/>
<rect x="153.465" y="236.1" width="34.6826" height="25.5556" rx="1.8254" fill="#FFC107"/>
<rect x="306.801" y="236.1" width="34.6826" height="40.1588" rx="1.8254" fill="#2093DE"/>
</g>
</g>
<rect x="104.63" y="30.2859" width="290.239" height="286.588" rx="6.84525" stroke="#2680C2" stroke-width="0.9127"/>
</g>
<g filter="url(#filter2_dd_1232_64827)">
<rect x="57.0062" y="83.3896" width="87.0759" height="80.8966" rx="12.3586" fill="white"/>
<rect x="57.3562" y="83.7396" width="86.3759" height="80.1966" rx="12.0086" stroke="#6EAAD6" stroke-width="0.7"/>
<path d="M120.972 116.668H119.294V116.582H100.544V124.915H112.318C110.6 129.766 105.985 133.248 100.544 133.248C93.641 133.248 88.0441 127.651 88.0441 120.748C88.0441 113.845 93.641 108.248 100.544 108.248C103.731 108.248 106.63 109.45 108.837 111.414L114.73 105.521C111.009 102.054 106.032 99.915 100.544 99.915C89.0389 99.915 79.7108 109.243 79.7108 120.748C79.7108 132.254 89.0389 141.582 100.544 141.582C112.049 141.582 121.377 132.254 121.377 120.748C121.377 119.351 121.234 117.988 120.972 116.668Z" fill="#FFC107"/>
<path d="M82.1129 111.051L88.9576 116.071C90.8097 111.486 95.2951 108.248 100.544 108.248C103.731 108.248 106.63 109.45 108.837 111.414L114.73 105.521C111.009 102.054 106.032 99.915 100.544 99.915C92.542 99.915 85.6024 104.433 82.1129 111.051Z" fill="#FF3D00"/>
<path d="M100.544 141.582C105.925 141.582 110.815 139.522 114.512 136.173L108.064 130.717C105.972 132.301 103.372 133.248 100.544 133.248C95.1254 133.248 90.5243 129.793 88.791 124.971L81.9973 130.206C85.4452 136.952 92.4473 141.582 100.544 141.582Z" fill="#4CAF50"/>
<path d="M120.972 116.668H119.294V116.582H100.544V124.915H112.318C111.493 127.245 109.994 129.254 108.061 130.718L108.064 130.716L114.512 136.172C114.056 136.587 121.377 131.165 121.377 120.748C121.377 119.351 121.234 117.988 120.972 116.668Z" fill="#1976D2"/>
</g>
<g filter="url(#filter3_dd_1232_64827)">
<rect x="344.855" y="219.344" width="87.0759" height="80.8966" rx="12.3586" fill="white"/>
<rect x="345.205" y="219.694" width="86.3759" height="80.1966" rx="12.0086" stroke="#6EAAD6" stroke-width="0.7"/>
<path d="M408.45 256.23L401.356 252.098V264.175H409.226V257.58C409.226 257.024 408.93 256.511 408.45 256.23Z" fill="#103262"/>
<path d="M376.934 242.119H387.351V251.494H376.934V242.119Z" fill="#0084D7"/>
<path d="M387.352 242.119H397.769V251.494H387.352V242.119Z" fill="#33AFEC"/>
<path d="M397.768 242.119H408.185V251.494H397.768V242.119Z" fill="#54DAFF"/>
<path d="M387.352 251.494H397.769V260.869H387.352V251.494Z" fill="#027AD4"/>
<path d="M387.352 260.869H397.769V270.244H387.352V260.869Z" fill="#0553A4"/>
<path d="M397.768 251.494H408.185V260.869H397.768V251.494Z" fill="#25A2E5"/>
<path d="M397.768 260.869H408.185V270.244H397.768V260.869Z" fill="#0262B8"/>
<path opacity="0.019" d="M376.934 270.244H408.184V256.95L393.591 265.284L376.934 256.95V270.244Z" fill="black"/>
<path opacity="0.038" d="M376.934 270.244H408.184V257.198L393.591 265.532L376.934 257.198V270.244Z" fill="black"/>
<path opacity="0.057" d="M376.934 270.244H408.184V257.446L393.591 265.779L376.934 257.446V270.244Z" fill="black"/>
<path opacity="0.076" d="M376.934 270.244H408.184V257.694L393.591 266.027L376.934 257.694V270.244Z" fill="black"/>
<path opacity="0.095" d="M376.934 270.244H408.184V257.942L393.591 266.275L376.934 257.942V270.244Z" fill="black"/>
<path opacity="0.114" d="M376.934 270.244H408.184V258.191L393.591 266.524L376.934 258.191V270.244Z" fill="black"/>
<path opacity="0.133" d="M376.934 270.244H408.184V258.439L393.591 266.772L376.934 258.439V270.244Z" fill="black"/>
<path opacity="0.152" d="M376.934 270.244H408.184V258.687L393.591 267.02L376.934 258.687V270.244Z" fill="black"/>
<path opacity="0.171" d="M376.934 270.244H408.184V258.935L393.591 267.268L376.934 258.935V270.244Z" fill="black"/>
<path opacity="0.191" d="M376.934 270.244H408.184V259.183L393.591 267.516L376.934 259.183V270.244Z" fill="black"/>
<path opacity="0.209" d="M376.934 270.244H408.184V259.43L393.591 267.764L376.934 259.43V270.244Z" fill="black"/>
<path opacity="0.229" d="M376.934 270.244H408.184V259.678L393.591 268.012L376.934 259.678V270.244Z" fill="black"/>
<path opacity="0.248" d="M376.934 270.244H408.184V259.926L393.591 268.26L376.934 259.926V270.244Z" fill="black"/>
<path opacity="0.267" d="M376.934 270.244H408.184V260.174L393.591 268.508L376.934 260.174V270.244Z" fill="black"/>
<path opacity="0.286" d="M376.934 270.244H408.184V260.422L393.591 268.755L376.934 260.422V270.244Z" fill="black"/>
<path opacity="0.305" d="M376.934 270.244H408.184V260.671L393.591 269.004L376.934 260.671V270.244Z" fill="black"/>
<path opacity="0.324" d="M376.934 270.244H408.184V260.919L393.591 269.252L376.934 260.919V270.244Z" fill="black"/>
<path opacity="0.343" d="M376.934 270.244H408.184V261.167L393.591 269.5L376.934 261.167V270.244Z" fill="black"/>
<path opacity="0.362" d="M376.934 270.244H408.184V261.415L393.591 269.748L376.934 261.415V270.244Z" fill="black"/>
<path opacity="0.381" d="M376.934 270.244H408.184V261.663L393.591 269.996L376.934 261.663V270.244Z" fill="black"/>
<path opacity="0.4" d="M376.934 270.244H408.184V261.911L393.591 270.244L376.934 261.911V270.244Z" fill="black"/>
<path d="M379.477 275.452H407.147C408.297 275.452 409.229 274.526 409.23 273.375C409.233 268.666 409.226 257.581 409.226 257.581C409.226 257.581 409.219 257.812 407.402 258.843C405.585 259.874 378.751 275 378.751 275C378.751 275 378.995 275.452 379.477 275.452Z" fill="url(#paint0_linear_1232_64827)"/>
<path d="M408.184 242.119H376.934V240.036C376.934 238.885 377.867 237.952 379.018 237.952H406.101C407.252 237.952 408.184 238.885 408.184 240.036V242.119Z" fill="url(#paint1_linear_1232_64827)"/>
<path d="M376.934 257.744V273.369C376.934 274.52 377.867 275.452 379.018 275.452H394.643H407.147C407.628 275.452 408.067 275.284 408.419 275.01L376.934 257.744Z" fill="url(#paint2_linear_1232_64827)"/>
<path opacity="0.05" d="M385.6 245.244H376.934V270.244H385.6C387.718 270.244 389.434 268.527 389.434 266.41V249.079C389.434 246.961 387.718 245.244 385.6 245.244Z" fill="black"/>
<path opacity="0.07" d="M385.49 269.202H376.934V245.591H385.49C387.285 245.591 388.741 247.046 388.741 248.842V265.951C388.74 267.747 387.284 269.202 385.49 269.202Z" fill="black"/>
<path opacity="0.09" d="M385.378 268.161H376.934V245.939H385.378C386.851 245.939 388.045 247.133 388.045 248.606V265.494C388.046 266.967 386.851 268.161 385.378 268.161Z" fill="black"/>
<path d="M385.268 267.119H368.602C367.451 267.119 366.518 266.187 366.518 265.036V248.369C366.518 247.218 367.451 246.286 368.602 246.286H385.268C386.419 246.286 387.352 247.218 387.352 248.369V265.036C387.352 266.187 386.419 267.119 385.268 267.119Z" fill="url(#paint3_linear_1232_64827)"/>
<path d="M376.936 251.172C373.695 251.172 371.743 253.648 371.743 256.702C371.743 259.756 373.688 262.233 376.936 262.233C380.185 262.233 382.128 259.756 382.128 256.703C382.128 253.648 380.176 251.172 376.936 251.172ZM376.936 260.366C375.097 260.366 373.998 258.726 373.998 256.703C373.998 254.68 375.102 253.041 376.936 253.041C378.769 253.041 379.874 254.681 379.874 256.703C379.874 258.725 378.773 260.366 376.936 260.366Z" fill="white"/>
</g>
<defs>
<filter id="filter0_dd_1232_64827" x="94.9326" y="29.8296" width="309.633" height="305.983" filterUnits="userSpaceOnUse" color-interpolation-filters="sRGB">
<feFlood flood-opacity="0" result="BackgroundImageFix"/>
<feColorMatrix in="SourceAlpha" type="matrix" values="0 0 0 0 0 0 0 0 0 0 0 0 0 0 0 0 0 0 127 0" result="hardAlpha"/>
<feMorphology radius="1.54018" operator="erode" in="SourceAlpha" result="effect1_dropShadow_1232_64827"/>
<feOffset dy="3.08036"/>
<feGaussianBlur stdDeviation="2.31027"/>
<feComposite in2="hardAlpha" operator="out"/>
<feColorMatrix type="matrix" values="0 0 0 0 0 0 0 0 0 0 0 0 0 0 0 0 0 0 0.03 0"/>
<feBlend mode="normal" in2="BackgroundImageFix" result="effect1_dropShadow_1232_64827"/>
<feColorMatrix in="SourceAlpha" type="matrix" values="0 0 0 0 0 0 0 0 0 0 0 0 0 0 0 0 0 0 127 0" result="hardAlpha"/>
<feMorphology radius="3.08036" operator="erode" in="SourceAlpha" result="effect2_dropShadow_1232_64827"/>
<feOffset dy="9.24109"/>
<feGaussianBlur stdDeviation="6.16073"/>
<feComposite in2="hardAlpha" operator="out"/>
<feColorMatrix type="matrix" values="0 0 0 0 0 0 0 0 0 0 0 0 0 0 0 0 0 0 0.08 0"/>
<feBlend mode="normal" in2="effect1_dropShadow_1232_64827" result="effect2_dropShadow_1232_64827"/>
<feBlend mode="normal" in="SourceGraphic" in2="effect2_dropShadow_1232_64827" result="shape"/>
</filter>
<filter id="filter1_d_1232_64827" x="111.483" y="72.8696" width="272.894" height="17.1215" filterUnits="userSpaceOnUse" color-interpolation-filters="sRGB">
<feFlood flood-opacity="0" result="BackgroundImageFix"/>
<feColorMatrix in="SourceAlpha" type="matrix" values="0 0 0 0 0 0 0 0 0 0 0 0 0 0 0 0 0 0 127 0" result="hardAlpha"/>
<feOffset dx="-0.45635" dy="1.59723"/>
<feGaussianBlur stdDeviation="0.684525"/>
<feComposite in2="hardAlpha" operator="out"/>
<feColorMatrix type="matrix" values="0 0 0 0 0 0 0 0 0 0 0 0 0 0 0 0 0 0 0.05 0"/>
<feBlend mode="normal" in2="BackgroundImageFix" result="effect1_dropShadow_1232_64827"/>
<feBlend mode="normal" in="SourceGraphic" in2="effect1_dropShadow_1232_64827" result="shape"/>
</filter>
<filter id="filter2_dd_1232_64827" x="47.7372" y="80.3" width="105.614" height="99.4345" filterUnits="userSpaceOnUse" color-interpolation-filters="sRGB">
<feFlood flood-opacity="0" result="BackgroundImageFix"/>
<feColorMatrix in="SourceAlpha" type="matrix" values="0 0 0 0 0 0 0 0 0 0 0 0 0 0 0 0 0 0 127 0" result="hardAlpha"/>
<feMorphology radius="3.08966" operator="erode" in="SourceAlpha" result="effect1_dropShadow_1232_64827"/>
<feOffset dy="3.08966"/>
<feGaussianBlur stdDeviation="3.08966"/>
<feComposite in2="hardAlpha" operator="out"/>
<feColorMatrix type="matrix" values="0 0 0 0 0 0 0 0 0 0 0 0 0 0 0 0 0 0 0.06 0"/>
<feBlend mode="normal" in2="BackgroundImageFix" result="effect1_dropShadow_1232_64827"/>
<feColorMatrix in="SourceAlpha" type="matrix" values="0 0 0 0 0 0 0 0 0 0 0 0 0 0 0 0 0 0 127 0" result="hardAlpha"/>
<feMorphology radius="3.08966" operator="erode" in="SourceAlpha" result="effect2_dropShadow_1232_64827"/>
<feOffset dy="6.17931"/>
<feGaussianBlur stdDeviation="6.17931"/>
<feComposite in2="hardAlpha" operator="out"/>
<feColorMatrix type="matrix" values="0 0 0 0 0 0 0 0 0 0 0 0 0 0 0 0 0 0 0.1 0"/>
<feBlend mode="normal" in2="effect1_dropShadow_1232_64827" result="effect2_dropShadow_1232_64827"/>
<feBlend mode="normal" in="SourceGraphic" in2="effect2_dropShadow_1232_64827" result="shape"/>
</filter>
<filter id="filter3_dd_1232_64827" x="335.586" y="216.254" width="105.614" height="99.4345" filterUnits="userSpaceOnUse" color-interpolation-filters="sRGB">
<feFlood flood-opacity="0" result="BackgroundImageFix"/>
<feColorMatrix in="SourceAlpha" type="matrix" values="0 0 0 0 0 0 0 0 0 0 0 0 0 0 0 0 0 0 127 0" result="hardAlpha"/>
<feMorphology radius="3.08966" operator="erode" in="SourceAlpha" result="effect1_dropShadow_1232_64827"/>
<feOffset dy="3.08966"/>
<feGaussianBlur stdDeviation="3.08966"/>
<feComposite in2="hardAlpha" operator="out"/>
<feColorMatrix type="matrix" values="0 0 0 0 0 0 0 0 0 0 0 0 0 0 0 0 0 0 0.06 0"/>
<feBlend mode="normal" in2="BackgroundImageFix" result="effect1_dropShadow_1232_64827"/>
<feColorMatrix in="SourceAlpha" type="matrix" values="0 0 0 0 0 0 0 0 0 0 0 0 0 0 0 0 0 0 127 0" result="hardAlpha"/>
<feMorphology radius="3.08966" operator="erode" in="SourceAlpha" result="effect2_dropShadow_1232_64827"/>
<feOffset dy="6.17931"/>
<feGaussianBlur stdDeviation="6.17931"/>
<feComposite in2="hardAlpha" operator="out"/>
<feColorMatrix type="matrix" values="0 0 0 0 0 0 0 0 0 0 0 0 0 0 0 0 0 0 0.1 0"/>
<feBlend mode="normal" in2="effect1_dropShadow_1232_64827" result="effect2_dropShadow_1232_64827"/>
<feBlend mode="normal" in="SourceGraphic" in2="effect2_dropShadow_1232_64827" result="shape"/>
</filter>
<linearGradient id="paint0_linear_1232_64827" x1="403.939" y1="257.283" x2="397.024" y2="269.227" gradientUnits="userSpaceOnUse">
<stop stop-color="#31ABEC"/>
<stop offset="1" stop-color="#1582D5"/>
</linearGradient>
<linearGradient id="paint1_linear_1232_64827" x1="377.627" y1="238.986" x2="406.398" y2="241.154" gradientUnits="userSpaceOnUse">
<stop offset="0.042" stop-color="#076DB4"/>
<stop offset="0.85" stop-color="#0461AF"/>
</linearGradient>
<linearGradient id="paint2_linear_1232_64827" x1="392.719" y1="266.305" x2="388.016" y2="274.515" gradientUnits="userSpaceOnUse">
<stop stop-color="#33ACEE"/>
<stop offset="1" stop-color="#1B8EDF"/>
</linearGradient>
<linearGradient id="paint3_linear_1232_64827" x1="367.071" y1="246.838" x2="386.737" y2="266.504" gradientUnits="userSpaceOnUse">
<stop stop-color="#1784D8"/>
<stop offset="1" stop-color="#0864C5"/>
</linearGradient>
<clipPath id="clip0_1232_64827">
<rect x="104.174" y="29.8296" width="291.151" height="287.5" rx="7.3016" fill="white"/>
</clipPath>
<clipPath id="clip1_1232_64827">
<rect width="291.151" height="287.5" fill="white" transform="translate(104.175 29.8296)"/>
</clipPath>
<clipPath id="clip2_1232_64827">
<rect width="6.35105" height="7.37258" fill="white" transform="translate(376.351 41.6101)"/>
</clipPath>
<clipPath id="clip3_1232_64827">
<rect width="6.35105" height="7.37258" fill="white" transform="translate(119.766 48.6877) rotate(180)"/>
</clipPath>
</defs>
</svg>
