<svg width="400" height="348" viewBox="0 0 400 348" fill="none" xmlns="http://www.w3.org/2000/svg">
<g clip-path="url(#clip0_1216_250945)">
<rect x="57.5977" y="33.3833" width="284.805" height="281.233" rx="16" fill="white"/>
<rect x="57.5977" y="29.812" width="287.483" height="27.6769" fill="#2680C2"/>
<rect x="104.013" y="89.4446" width="37.5494" height="14.489" stroke="#C9D4DE" stroke-width="0.223201"/>
<mask id="path-4-inside-1_1216_250945" fill="white">
<path d="M66.5256 89.333H104.298V104.045H66.5256V89.333Z"/>
</mask>
<path d="M66.5256 89.333V89.1098H66.3024V89.333H66.5256ZM66.5256 104.045H66.3024V104.268H66.5256V104.045ZM66.5256 89.5562H104.298V89.1098H66.5256V89.5562ZM104.298 103.822H66.5256V104.268H104.298V103.822ZM66.7488 104.045V89.333H66.3024V104.045H66.7488Z" fill="#C9D4DE" mask="url(#path-4-inside-1_1216_250945)"/>
<rect x="141.539" y="89.4446" width="37.5494" height="14.489" stroke="#C9D4DE" stroke-width="0.223201"/>
<rect x="179.061" y="89.4446" width="37.5494" height="14.489" stroke="#C9D4DE" stroke-width="0.223201"/>
<rect x="216.587" y="89.4446" width="37.5494" height="14.489" stroke="#C9D4DE" stroke-width="0.223201"/>
<rect x="254.109" y="89.4446" width="37.5494" height="14.489" stroke="#C9D4DE" stroke-width="0.223201"/>
<rect x="179.131" y="89.4446" width="37.5494" height="14.489" fill="#E6F1FA" stroke="#C9D4DE" stroke-width="0.223201"/>
<rect x="179.019" y="57.8892" width="37.7726" height="31.4437" fill="#E6F1FA"/>
<rect x="291.634" y="89.4446" width="38.7919" height="14.489" stroke="#C9D4DE" stroke-width="0.223201"/>
<rect x="104.013" y="103.868" width="37.5494" height="14.2005" stroke="#C9D4DE" stroke-width="0.223201"/>
<mask id="path-14-inside-2_1216_250945" fill="white">
<path d="M66.5256 103.756H104.298V118.18H66.5256V103.756Z"/>
</mask>
<path d="M66.5256 103.756V103.533H66.3024V103.756H66.5256ZM66.5256 118.18H66.3024V118.403H66.5256V118.18ZM66.5256 103.98H104.298V103.533H66.5256V103.98ZM104.298 117.957H66.5256V118.403H104.298V117.957ZM66.7488 118.18V103.756H66.3024V118.18H66.7488Z" fill="#C9D4DE" mask="url(#path-14-inside-2_1216_250945)"/>
<rect x="141.539" y="103.868" width="37.5494" height="14.2005" stroke="#C9D4DE" stroke-width="0.223201"/>
<rect x="179.061" y="103.868" width="37.5494" height="14.2005" stroke="#C9D4DE" stroke-width="0.223201"/>
<rect x="216.587" y="103.868" width="37.5494" height="14.2005" stroke="#C9D4DE" stroke-width="0.223201"/>
<rect x="254.109" y="103.868" width="37.5494" height="14.2005" stroke="#C9D4DE" stroke-width="0.223201"/>
<rect x="179.131" y="103.868" width="37.5494" height="14.2005" fill="#E6F1FA" stroke="#C9D4DE" stroke-width="0.223201"/>
<rect x="291.634" y="103.868" width="38.7919" height="14.2005" stroke="#C9D4DE" stroke-width="0.223201"/>
<rect x="104.013" y="118.004" width="37.5494" height="14.489" stroke="#C9D4DE" stroke-width="0.223201"/>
<mask id="path-23-inside-3_1216_250945" fill="white">
<path d="M66.5256 117.892H104.298V132.604H66.5256V117.892Z"/>
</mask>
<path d="M66.5256 117.892V117.669H66.3024V117.892H66.5256ZM66.5256 132.604H66.3024V132.827H66.5256V132.604ZM66.5256 118.115H104.298V117.669H66.5256V118.115ZM104.298 132.381H66.5256V132.827H104.298V132.381ZM66.7488 132.604V117.892H66.3024V132.604H66.7488Z" fill="#C9D4DE" mask="url(#path-23-inside-3_1216_250945)"/>
<rect x="141.539" y="118.004" width="37.5494" height="14.489" stroke="#C9D4DE" stroke-width="0.223201"/>
<rect x="179.061" y="118.004" width="37.5494" height="14.489" stroke="#C9D4DE" stroke-width="0.223201"/>
<rect x="216.587" y="118.004" width="37.5494" height="14.489" stroke="#C9D4DE" stroke-width="0.223201"/>
<rect x="254.109" y="118.004" width="37.5494" height="14.489" stroke="#C9D4DE" stroke-width="0.223201"/>
<rect x="179.131" y="118.004" width="37.5494" height="14.489" fill="#E6F1FA" stroke="#C9D4DE" stroke-width="0.223201"/>
<rect x="291.634" y="118.004" width="38.7919" height="14.489" stroke="#C9D4DE" stroke-width="0.223201"/>
<rect x="104.013" y="132.427" width="37.5494" height="14.489" stroke="#C9D4DE" stroke-width="0.223201"/>
<mask id="path-32-inside-4_1216_250945" fill="white">
<path d="M66.5256 132.315H104.298V147.028H66.5256V132.315Z"/>
</mask>
<path d="M66.5256 132.315V132.092H66.3024V132.315H66.5256ZM66.5256 147.028H66.3024V147.251H66.5256V147.028ZM66.5256 132.539H104.298V132.092H66.5256V132.539ZM104.298 146.804H66.5256V147.251H104.298V146.804ZM66.7488 147.028V132.315H66.3024V147.028H66.7488Z" fill="#C9D4DE" mask="url(#path-32-inside-4_1216_250945)"/>
<rect x="141.539" y="132.427" width="37.5494" height="14.489" stroke="#C9D4DE" stroke-width="0.223201"/>
<rect x="179.061" y="132.427" width="37.5494" height="14.489" stroke="#C9D4DE" stroke-width="0.223201"/>
<rect x="216.587" y="132.427" width="37.5494" height="14.489" stroke="#C9D4DE" stroke-width="0.223201"/>
<rect x="254.109" y="132.427" width="37.5494" height="14.489" stroke="#C9D4DE" stroke-width="0.223201"/>
<rect x="179.131" y="132.427" width="37.5494" height="14.489" fill="#E6F1FA" stroke="#C9D4DE" stroke-width="0.223201"/>
<rect x="291.634" y="132.427" width="38.7919" height="14.489" stroke="#C9D4DE" stroke-width="0.223201"/>
<rect x="104.013" y="146.851" width="37.5494" height="14.489" stroke="#C9D4DE" stroke-width="0.223201"/>
<mask id="path-41-inside-5_1216_250945" fill="white">
<path d="M66.5256 146.739H104.298V161.451H66.5256V146.739Z"/>
</mask>
<path d="M66.5256 146.739V146.516H66.3024V146.739H66.5256ZM66.5256 161.451H66.3024V161.675H66.5256V161.451ZM66.5256 146.962H104.298V146.516H66.5256V146.962ZM104.298 161.228H66.5256V161.675H104.298V161.228ZM66.7488 161.451V146.739H66.3024V161.451H66.7488Z" fill="#C9D4DE" mask="url(#path-41-inside-5_1216_250945)"/>
<rect x="141.539" y="146.851" width="37.5494" height="14.489" stroke="#C9D4DE" stroke-width="0.223201"/>
<rect x="179.061" y="146.851" width="37.5494" height="14.489" stroke="#C9D4DE" stroke-width="0.223201"/>
<rect x="216.587" y="146.851" width="37.5494" height="14.489" stroke="#C9D4DE" stroke-width="0.223201"/>
<rect x="254.109" y="146.851" width="37.5494" height="14.489" stroke="#C9D4DE" stroke-width="0.223201"/>
<rect x="179.131" y="146.851" width="37.5494" height="14.489" fill="#E6F1FA" stroke="#C9D4DE" stroke-width="0.223201"/>
<rect x="291.634" y="146.851" width="38.7919" height="14.489" stroke="#C9D4DE" stroke-width="0.223201"/>
<rect x="104.013" y="161.275" width="37.5494" height="14.489" stroke="#C9D4DE" stroke-width="0.223201"/>
<mask id="path-50-inside-6_1216_250945" fill="white">
<path d="M66.5256 161.163H104.298V175.875H66.5256V161.163Z"/>
</mask>
<path d="M66.5256 161.163V160.94H66.3024V161.163H66.5256ZM66.5256 175.875H66.3024V176.098H66.5256V175.875ZM66.5256 161.386H104.298V160.94H66.5256V161.386ZM104.298 175.652H66.5256V176.098H104.298V175.652ZM66.7488 175.875V161.163H66.3024V175.875H66.7488Z" fill="#C9D4DE" mask="url(#path-50-inside-6_1216_250945)"/>
<rect x="141.539" y="161.275" width="37.5494" height="14.489" stroke="#C9D4DE" stroke-width="0.223201"/>
<rect x="179.061" y="161.275" width="37.5494" height="14.489" stroke="#C9D4DE" stroke-width="0.223201"/>
<rect x="216.587" y="161.275" width="37.5494" height="14.489" stroke="#C9D4DE" stroke-width="0.223201"/>
<rect x="254.109" y="161.275" width="37.5494" height="14.489" stroke="#C9D4DE" stroke-width="0.223201"/>
<rect x="179.131" y="161.275" width="37.5494" height="14.489" fill="#E6F1FA" stroke="#C9D4DE" stroke-width="0.223201"/>
<rect x="291.634" y="161.275" width="38.7919" height="14.489" stroke="#C9D4DE" stroke-width="0.223201"/>
<rect x="104.013" y="175.699" width="37.5494" height="14.489" stroke="#C9D4DE" stroke-width="0.223201"/>
<mask id="path-59-inside-7_1216_250945" fill="white">
<path d="M66.5256 175.587H104.298V190.299H66.5256V175.587Z"/>
</mask>
<path d="M66.5256 175.587V175.364H66.3024V175.587H66.5256ZM66.5256 190.299H66.3024V190.522H66.5256V190.299ZM66.5256 175.81H104.298V175.364H66.5256V175.81ZM104.298 190.076H66.5256V190.522H104.298V190.076ZM66.7488 190.299V175.587H66.3024V190.299H66.7488Z" fill="#C9D4DE" mask="url(#path-59-inside-7_1216_250945)"/>
<rect x="141.539" y="175.699" width="37.5494" height="14.489" stroke="#C9D4DE" stroke-width="0.223201"/>
<rect x="179.061" y="175.699" width="37.5494" height="14.489" stroke="#C9D4DE" stroke-width="0.223201"/>
<rect x="216.587" y="175.699" width="37.5494" height="14.489" stroke="#C9D4DE" stroke-width="0.223201"/>
<rect x="254.109" y="175.699" width="37.5494" height="14.489" stroke="#C9D4DE" stroke-width="0.223201"/>
<rect x="179.131" y="175.699" width="37.5494" height="14.489" fill="#E6F1FA" stroke="#C9D4DE" stroke-width="0.223201"/>
<rect x="291.634" y="175.699" width="38.7919" height="14.489" stroke="#C9D4DE" stroke-width="0.223201"/>
<rect x="104.013" y="190.122" width="37.5494" height="14.489" stroke="#C9D4DE" stroke-width="0.223201"/>
<mask id="path-68-inside-8_1216_250945" fill="white">
<path d="M66.5256 190.011H104.298V204.723H66.5256V190.011Z"/>
</mask>
<path d="M66.5256 190.011V189.788H66.3024V190.011H66.5256ZM66.5256 204.723H66.3024V204.946H66.5256V204.723ZM66.5256 190.234H104.298V189.788H66.5256V190.234ZM104.298 204.5H66.5256V204.946H104.298V204.5ZM66.7488 204.723V190.011H66.3024V204.723H66.7488Z" fill="#C9D4DE" mask="url(#path-68-inside-8_1216_250945)"/>
<rect x="141.539" y="190.122" width="37.5494" height="14.489" stroke="#C9D4DE" stroke-width="0.223201"/>
<rect x="179.061" y="190.122" width="37.5494" height="14.489" stroke="#C9D4DE" stroke-width="0.223201"/>
<rect x="216.587" y="190.122" width="37.5494" height="14.489" stroke="#C9D4DE" stroke-width="0.223201"/>
<rect x="254.109" y="190.122" width="37.5494" height="14.489" stroke="#C9D4DE" stroke-width="0.223201"/>
<rect x="179.131" y="190.122" width="37.5494" height="14.489" fill="#E6F1FA" stroke="#C9D4DE" stroke-width="0.223201"/>
<rect x="291.634" y="190.122" width="38.7919" height="14.489" stroke="#C9D4DE" stroke-width="0.223201"/>
<rect x="104.013" y="204.546" width="37.5494" height="14.489" stroke="#C9D4DE" stroke-width="0.223201"/>
<mask id="path-77-inside-9_1216_250945" fill="white">
<path d="M66.5256 204.434H104.298V219.146H66.5256V204.434Z"/>
</mask>
<path d="M66.5256 204.434V204.211H66.3024V204.434H66.5256ZM66.5256 219.146H66.3024V219.369H66.5256V219.146ZM66.5256 204.657H104.298V204.211H66.5256V204.657ZM104.298 218.923H66.5256V219.369H104.298V218.923ZM66.7488 219.146V204.434H66.3024V219.146H66.7488Z" fill="#C9D4DE" mask="url(#path-77-inside-9_1216_250945)"/>
<rect x="141.539" y="204.546" width="37.5494" height="14.489" stroke="#C9D4DE" stroke-width="0.223201"/>
<rect x="179.061" y="204.546" width="37.5494" height="14.489" stroke="#C9D4DE" stroke-width="0.223201"/>
<rect x="216.587" y="204.546" width="37.5494" height="14.489" stroke="#C9D4DE" stroke-width="0.223201"/>
<rect x="254.109" y="204.546" width="37.5494" height="14.489" stroke="#C9D4DE" stroke-width="0.223201"/>
<rect x="179.131" y="204.546" width="37.5494" height="14.489" fill="#E6F1FA" stroke="#C9D4DE" stroke-width="0.223201"/>
<rect x="291.634" y="204.546" width="38.7919" height="14.489" stroke="#C9D4DE" stroke-width="0.223201"/>
<rect x="104.013" y="218.97" width="37.5494" height="14.489" stroke="#C9D4DE" stroke-width="0.223201"/>
<mask id="path-86-inside-10_1216_250945" fill="white">
<path d="M66.5256 218.858H104.298V233.57H66.5256V218.858Z"/>
</mask>
<path d="M66.5256 218.858V218.635H66.3024V218.858H66.5256ZM66.5256 233.57H66.3024V233.793H66.5256V233.57ZM66.5256 219.081H104.298V218.635H66.5256V219.081ZM104.298 233.347H66.5256V233.793H104.298V233.347ZM66.7488 233.57V218.858H66.3024V233.57H66.7488Z" fill="#C9D4DE" mask="url(#path-86-inside-10_1216_250945)"/>
<rect x="141.539" y="218.97" width="37.5494" height="14.489" stroke="#C9D4DE" stroke-width="0.223201"/>
<rect x="179.061" y="218.97" width="37.5494" height="14.489" stroke="#C9D4DE" stroke-width="0.223201"/>
<rect x="216.587" y="218.97" width="37.5494" height="14.489" stroke="#C9D4DE" stroke-width="0.223201"/>
<rect x="254.109" y="218.97" width="37.5494" height="14.489" stroke="#C9D4DE" stroke-width="0.223201"/>
<rect x="179.131" y="218.97" width="37.5494" height="14.489" fill="#E6F1FA" stroke="#C9D4DE" stroke-width="0.223201"/>
<rect x="291.634" y="218.97" width="38.7919" height="14.489" stroke="#C9D4DE" stroke-width="0.223201"/>
<rect x="104.013" y="233.393" width="37.5494" height="14.489" stroke="#C9D4DE" stroke-width="0.223201"/>
<rect x="104.013" y="233.393" width="37.5494" height="14.489" stroke="#C9D4DE" stroke-width="0.223201"/>
<mask id="path-96-inside-11_1216_250945" fill="white">
<path d="M66.5256 233.282H104.298V247.994H66.5256V233.282Z"/>
</mask>
<path d="M66.5256 233.282V233.059H66.3024V233.282H66.5256ZM66.5256 247.994H66.3024V248.217H66.5256V247.994ZM66.5256 233.505H104.298V233.059H66.5256V233.505ZM104.298 247.771H66.5256V248.217H104.298V247.771ZM66.7488 247.994V233.282H66.3024V247.994H66.7488Z" fill="#C9D4DE" mask="url(#path-96-inside-11_1216_250945)"/>
<rect x="141.539" y="233.393" width="37.5494" height="14.489" stroke="#C9D4DE" stroke-width="0.223201"/>
<rect x="179.061" y="233.393" width="37.5494" height="14.489" stroke="#C9D4DE" stroke-width="0.223201"/>
<rect x="216.587" y="233.393" width="37.5494" height="14.489" stroke="#C9D4DE" stroke-width="0.223201"/>
<rect x="254.109" y="233.393" width="37.5494" height="14.489" stroke="#C9D4DE" stroke-width="0.223201"/>
<rect x="179.131" y="233.393" width="37.5494" height="14.489" fill="#E6F1FA" stroke="#C9D4DE" stroke-width="0.223201"/>
<rect x="291.634" y="233.393" width="38.7919" height="14.489" stroke="#C9D4DE" stroke-width="0.223201"/>
<g filter="url(#filter0_d_1216_250945)">
<rect x="66.5273" y="75.7749" width="38.4258" height="13.5583" fill="white"/>
<rect x="104.705" y="75.7749" width="37.682" height="13.5583" fill="white"/>
<rect x="142.14" y="75.7749" width="37.682" height="13.5583" fill="white"/>
<rect x="179.572" y="75.7749" width="37.682" height="13.5583" fill="white"/>
<rect x="217.007" y="75.7749" width="37.682" height="13.5583" fill="white"/>
<rect x="291.877" y="75.7749" width="38.9216" height="13.5583" fill="white"/>
<rect x="254.208" y="75.7749" width="38.9216" height="13.5583" fill="white"/>
<rect x="179.394" y="75.4863" width="37.1862" height="13.5583" fill="#E6F1FA"/>
</g>
<rect x="104.015" y="247.817" width="37.5494" height="14.489" stroke="#C9D4DE" stroke-width="0.223201"/>
<mask id="path-113-inside-12_1216_250945" fill="white">
<path d="M66.5273 247.705H104.3V262.417H66.5273V247.705Z"/>
</mask>
<path d="M66.5273 247.705V247.482H66.3041V247.705H66.5273ZM66.5273 262.417H66.3041V262.64H66.5273V262.417ZM66.5273 247.928H104.3V247.482H66.5273V247.928ZM104.3 262.194H66.5273V262.64H104.3V262.194ZM66.7505 262.417V247.705H66.3041V262.417H66.7505Z" fill="#C9D4DE" mask="url(#path-113-inside-12_1216_250945)"/>
<rect x="141.54" y="247.817" width="37.5494" height="14.489" stroke="#C9D4DE" stroke-width="0.223201"/>
<rect x="179.063" y="247.817" width="37.5494" height="14.489" stroke="#C9D4DE" stroke-width="0.223201"/>
<rect x="216.588" y="247.817" width="37.5494" height="14.489" stroke="#C9D4DE" stroke-width="0.223201"/>
<rect x="254.111" y="247.817" width="37.5494" height="14.489" stroke="#C9D4DE" stroke-width="0.223201"/>
<rect x="179.132" y="247.817" width="37.5494" height="14.489" fill="#E6F1FA" stroke="#C9D4DE" stroke-width="0.223201"/>
<rect x="291.636" y="247.817" width="38.7919" height="14.489" stroke="#C9D4DE" stroke-width="0.223201"/>
<path d="M67.8039 260.523V260.667L67.1696 262.11H66.8928L67.526 260.732H66.7042V260.523H67.8039ZM68.3646 261.157V262.563H68.1019V260.931H68.3438L68.3646 261.157ZM69.1329 261.509V261.532C69.1329 261.618 69.1227 261.698 69.1024 261.771C69.0828 261.844 69.0533 261.907 69.0141 261.962C68.9756 262.015 68.928 262.057 68.8713 262.087C68.8147 262.117 68.7493 262.132 68.6752 262.132C68.6018 262.132 68.5375 262.118 68.4823 262.091C68.4278 262.064 68.3816 262.025 68.3438 261.975C68.3061 261.925 68.2756 261.866 68.2523 261.798C68.2298 261.73 68.2138 261.655 68.2043 261.574V261.485C68.2138 261.399 68.2298 261.32 68.2523 261.25C68.2756 261.179 68.3061 261.119 68.3438 261.068C68.3816 261.017 68.4278 260.978 68.4823 260.95C68.5368 260.923 68.6003 260.909 68.673 260.909C68.7471 260.909 68.8128 260.923 68.8702 260.952C68.9276 260.981 68.976 261.021 69.0152 261.075C69.0544 261.127 69.0839 261.19 69.1035 261.264C69.1231 261.338 69.1329 261.419 69.1329 261.509ZM68.8702 261.532V261.509C68.8702 261.455 68.8652 261.404 68.855 261.358C68.8448 261.311 68.8288 261.269 68.807 261.234C68.7852 261.198 68.7573 261.17 68.7231 261.151C68.6897 261.13 68.6494 261.12 68.6021 261.12C68.5556 261.12 68.5157 261.128 68.4823 261.144C68.4488 261.16 68.4209 261.181 68.3983 261.209C68.3758 261.236 68.3584 261.268 68.346 261.306C68.3337 261.342 68.325 261.381 68.3199 261.424V261.636C68.3286 261.688 68.3435 261.736 68.3646 261.78C68.3856 261.823 68.4154 261.858 68.4539 261.884C68.4932 261.91 68.5433 261.922 68.6043 261.922C68.6516 261.922 68.6919 261.912 68.7253 261.892C68.7587 261.872 68.786 261.844 68.807 261.808C68.8288 261.772 68.8448 261.73 68.855 261.683C68.8652 261.635 68.8702 261.585 68.8702 261.532ZM69.6859 261.17V262.11H69.4233V260.931H69.6707L69.6859 261.17ZM69.6434 261.477L69.5541 261.476C69.5541 261.394 69.5642 261.319 69.5846 261.25C69.6049 261.181 69.6347 261.121 69.6739 261.07C69.7132 261.019 69.7619 260.979 69.82 260.951C69.8788 260.923 69.9468 260.909 70.0238 260.909C70.0776 260.909 70.1266 260.917 70.1709 260.933C70.216 260.948 70.2548 260.972 70.2875 261.006C70.321 261.039 70.3464 261.082 70.3638 261.134C70.382 261.187 70.3911 261.25 70.3911 261.324V262.11H70.1284V261.347C70.1284 261.29 70.1197 261.245 70.1023 261.212C70.0855 261.179 70.0612 261.156 70.0292 261.142C69.998 261.128 69.9606 261.12 69.917 261.12C69.8676 261.12 69.8254 261.13 69.7906 261.149C69.7564 261.168 69.7284 261.193 69.7066 261.226C69.6848 261.259 69.6689 261.296 69.6587 261.339C69.6485 261.382 69.6434 261.428 69.6434 261.477ZM70.3747 261.407L70.2516 261.434C70.2516 261.363 70.2614 261.296 70.281 261.233C70.3013 261.169 70.3308 261.113 70.3693 261.065C70.4085 261.016 70.4568 260.978 70.5142 260.95C70.5716 260.923 70.6374 260.909 70.7115 260.909C70.7718 260.909 70.8256 260.917 70.8728 260.934C70.9207 260.95 70.9614 260.975 70.9948 261.01C71.0283 261.045 71.0537 261.09 71.0711 261.146C71.0886 261.202 71.0973 261.268 71.0973 261.347V262.11H70.8335V261.346C70.8335 261.286 70.8248 261.24 70.8074 261.207C70.7907 261.175 70.7667 261.152 70.7355 261.14C70.7042 261.127 70.6668 261.12 70.6232 261.12C70.5825 261.12 70.5466 261.128 70.5153 261.143C70.4848 261.158 70.459 261.178 70.4379 261.205C70.4169 261.231 70.4009 261.262 70.39 261.296C70.3798 261.33 70.3747 261.367 70.3747 261.407Z" fill="#486581"/>
<rect x="104.015" y="262.241" width="37.5494" height="14.489" stroke="#C9D4DE" stroke-width="0.223201"/>
<mask id="path-123-inside-13_1216_250945" fill="white">
<path d="M66.5273 262.129H104.3V276.842H66.5273V262.129Z"/>
</mask>
<path d="M66.5273 262.129V261.906H66.3041V262.129H66.5273ZM66.5273 276.842H66.3041V277.065H66.5273V276.842ZM66.5273 262.353H104.3V261.906H66.5273V262.353ZM104.3 276.618H66.5273V277.065H104.3V276.618ZM66.7505 276.842V262.129H66.3041V276.842H66.7505Z" fill="#C9D4DE" mask="url(#path-123-inside-13_1216_250945)"/>
<rect x="141.54" y="262.241" width="37.5494" height="14.489" stroke="#C9D4DE" stroke-width="0.223201"/>
<rect x="179.063" y="262.241" width="37.5494" height="14.489" stroke="#C9D4DE" stroke-width="0.223201"/>
<rect x="216.588" y="262.241" width="37.5494" height="14.489" stroke="#C9D4DE" stroke-width="0.223201"/>
<rect x="254.111" y="262.241" width="37.5494" height="14.489" stroke="#C9D4DE" stroke-width="0.223201"/>
<rect x="179.132" y="262.241" width="37.5494" height="14.489" fill="#E6F1FA" stroke="#C9D4DE" stroke-width="0.223201"/>
<rect x="291.636" y="262.241" width="38.7919" height="14.489" stroke="#C9D4DE" stroke-width="0.223201"/>
<path d="M67.7875 276.101C67.7875 276.2 67.7647 276.283 67.7189 276.351C67.6731 276.418 67.6106 276.469 67.5314 276.504C67.453 276.538 67.3643 276.555 67.2655 276.555C67.1667 276.555 67.0777 276.538 66.9985 276.504C66.9193 276.469 66.8568 276.418 66.811 276.351C66.7653 276.283 66.7424 276.2 66.7424 276.101C66.7424 276.036 66.7551 275.976 66.7805 275.923C66.806 275.87 66.8419 275.823 66.8884 275.785C66.9356 275.746 66.9909 275.716 67.0541 275.695C67.118 275.673 67.1878 275.663 67.2633 275.663C67.3636 275.663 67.4533 275.681 67.5325 275.718C67.6117 275.756 67.6738 275.807 67.7189 275.872C67.7647 275.938 67.7875 276.014 67.7875 276.101ZM67.5238 276.088C67.5238 276.035 67.5129 275.988 67.4911 275.948C67.4693 275.908 67.4388 275.878 67.3996 275.856C67.3603 275.834 67.3149 275.823 67.2633 275.823C67.211 275.823 67.1656 275.834 67.1271 275.856C67.0886 275.878 67.0584 275.908 67.0366 275.948C67.0156 275.988 67.005 276.035 67.005 276.088C67.005 276.142 67.0156 276.188 67.0366 276.227C67.0577 276.266 67.0879 276.295 67.1271 276.316C67.1663 276.336 67.2125 276.346 67.2655 276.346C67.3185 276.346 67.3643 276.336 67.4028 276.316C67.4413 276.295 67.4711 276.266 67.4922 276.227C67.5133 276.188 67.5238 276.142 67.5238 276.088ZM67.7516 275.364C67.7516 275.443 67.7305 275.514 67.6884 275.576C67.647 275.637 67.5896 275.686 67.5162 275.722C67.4428 275.757 67.3592 275.774 67.2655 275.774C67.1711 275.774 67.0868 275.757 67.0127 275.722C66.9393 275.686 66.8815 275.637 66.8394 275.576C66.798 275.514 66.7773 275.443 66.7773 275.364C66.7773 275.27 66.798 275.19 66.8394 275.126C66.8815 275.06 66.9393 275.01 67.0127 274.976C67.086 274.942 67.17 274.925 67.2644 274.925C67.3589 274.925 67.4428 274.942 67.5162 274.976C67.5896 275.01 67.647 275.06 67.6884 275.126C67.7305 275.19 67.7516 275.27 67.7516 275.364ZM67.4889 275.373C67.4889 275.326 67.4795 275.284 67.4606 275.249C67.4424 275.212 67.4166 275.184 67.3832 275.164C67.3498 275.143 67.3102 275.133 67.2644 275.133C67.2186 275.133 67.179 275.143 67.1456 275.163C67.1122 275.182 67.0864 275.21 67.0682 275.245C67.0501 275.281 67.041 275.324 67.041 275.373C67.041 275.422 67.0501 275.464 67.0682 275.501C67.0864 275.536 67.1122 275.564 67.1456 275.584C67.1798 275.605 67.2197 275.615 67.2655 275.615C67.3113 275.615 67.3509 275.605 67.3843 275.584C67.4177 275.564 67.4435 275.536 67.4617 275.501C67.4798 275.464 67.4889 275.422 67.4889 275.373ZM68.3646 275.581V276.987H68.1019V275.354H68.3438L68.3646 275.581ZM69.1329 275.933V275.956C69.1329 276.042 69.1227 276.121 69.1024 276.195C69.0828 276.267 69.0533 276.331 69.0141 276.385C68.9756 276.439 68.928 276.481 68.8713 276.511C68.8147 276.541 68.7493 276.555 68.6752 276.555C68.6018 276.555 68.5375 276.542 68.4823 276.515C68.4278 276.488 68.3816 276.449 68.3438 276.399C68.3061 276.348 68.2756 276.29 68.2523 276.222C68.2298 276.154 68.2138 276.079 68.2043 275.997V275.909C68.2138 275.823 68.2298 275.744 68.2523 275.674C68.2756 275.603 68.3061 275.543 68.3438 275.492C68.3816 275.441 68.4278 275.402 68.4823 275.374C68.5368 275.346 68.6003 275.333 68.673 275.333C68.7471 275.333 68.8128 275.347 68.8702 275.376C68.9276 275.405 68.976 275.445 69.0152 275.498C69.0544 275.551 69.0839 275.614 69.1035 275.688C69.1231 275.761 69.1329 275.843 69.1329 275.933ZM68.8702 275.956V275.933C68.8702 275.879 68.8652 275.828 68.855 275.782C68.8448 275.734 68.8288 275.693 68.807 275.657C68.7852 275.622 68.7573 275.594 68.7231 275.575C68.6897 275.554 68.6494 275.544 68.6021 275.544C68.5556 275.544 68.5157 275.552 68.4823 275.568C68.4488 275.583 68.4209 275.605 68.3983 275.632C68.3758 275.66 68.3584 275.692 68.346 275.729C68.3337 275.766 68.325 275.805 68.3199 275.848V276.06C68.3286 276.112 68.3435 276.16 68.3646 276.203C68.3856 276.247 68.4154 276.282 68.4539 276.308C68.4932 276.334 68.5433 276.346 68.6043 276.346C68.6516 276.346 68.6919 276.336 68.7253 276.316C68.7587 276.295 68.786 276.267 68.807 276.232C68.8288 276.195 68.8448 276.154 68.855 276.106C68.8652 276.059 68.8702 276.009 68.8702 275.956ZM69.6859 275.594V276.534H69.4233V275.354H69.6707L69.6859 275.594ZM69.6434 275.9L69.5541 275.899C69.5541 275.818 69.5642 275.743 69.5846 275.674C69.6049 275.605 69.6347 275.545 69.6739 275.494C69.7132 275.442 69.7619 275.403 69.82 275.375C69.8788 275.347 69.9468 275.333 70.0238 275.333C70.0776 275.333 70.1266 275.341 70.1709 275.357C70.216 275.372 70.2548 275.396 70.2875 275.43C70.321 275.463 70.3464 275.506 70.3638 275.558C70.382 275.611 70.3911 275.674 70.3911 275.748V276.534H70.1284V275.771C70.1284 275.713 70.1197 275.668 70.1023 275.636C70.0855 275.603 70.0612 275.58 70.0292 275.566C69.998 275.551 69.9606 275.544 69.917 275.544C69.8676 275.544 69.8254 275.554 69.7906 275.572C69.7564 275.591 69.7284 275.617 69.7066 275.65C69.6848 275.683 69.6689 275.72 69.6587 275.763C69.6485 275.806 69.6434 275.852 69.6434 275.9ZM70.3747 275.831L70.2516 275.858C70.2516 275.787 70.2614 275.72 70.281 275.656C70.3013 275.592 70.3308 275.536 70.3693 275.489C70.4085 275.44 70.4568 275.402 70.5142 275.374C70.5716 275.346 70.6374 275.333 70.7115 275.333C70.7718 275.333 70.8256 275.341 70.8728 275.358C70.9207 275.374 70.9614 275.399 70.9948 275.434C71.0283 275.469 71.0537 275.514 71.0711 275.57C71.0886 275.625 71.0973 275.692 71.0973 275.771V276.534H70.8335V275.77C70.8335 275.71 70.8248 275.664 70.8074 275.631C70.7907 275.599 70.7667 275.576 70.7355 275.564C70.7042 275.551 70.6668 275.544 70.6232 275.544C70.5825 275.544 70.5466 275.552 70.5153 275.567C70.4848 275.582 70.459 275.602 70.4379 275.629C70.4169 275.655 70.4009 275.685 70.39 275.72C70.3798 275.754 70.3747 275.791 70.3747 275.831Z" fill="#486581"/>
<rect x="104.015" y="276.664" width="37.5494" height="14.489" stroke="#C9D4DE" stroke-width="0.223201"/>
<mask id="path-133-inside-14_1216_250945" fill="white">
<path d="M66.5273 276.553H104.3V291.265H66.5273V276.553Z"/>
</mask>
<path d="M66.5273 276.553V276.33H66.3041V276.553H66.5273ZM66.5273 291.265H66.3041V291.488H66.5273V291.265ZM66.5273 276.776H104.3V276.33H66.5273V276.776ZM104.3 291.042H66.5273V291.488H104.3V291.042ZM66.7505 291.265V276.553H66.3041V291.265H66.7505Z" fill="#C9D4DE" mask="url(#path-133-inside-14_1216_250945)"/>
<rect x="141.54" y="276.664" width="37.5494" height="14.489" stroke="#C9D4DE" stroke-width="0.223201"/>
<rect x="179.063" y="276.664" width="37.5494" height="14.489" stroke="#C9D4DE" stroke-width="0.223201"/>
<rect x="216.588" y="276.664" width="37.5494" height="14.489" stroke="#C9D4DE" stroke-width="0.223201"/>
<rect x="254.111" y="276.664" width="37.5494" height="14.489" stroke="#C9D4DE" stroke-width="0.223201"/>
<rect x="179.132" y="276.664" width="37.5494" height="14.489" fill="#E6F1FA" stroke="#C9D4DE" stroke-width="0.223201"/>
<rect x="291.636" y="276.664" width="38.7919" height="14.489" stroke="#C9D4DE" stroke-width="0.223201"/>
<rect x="104.015" y="291.089" width="37.5494" height="14.489" stroke="#C9D4DE" stroke-width="0.223201"/>
<mask id="path-142-inside-15_1216_250945" fill="white">
<path d="M66.5273 290.977H104.3V305.689H66.5273V290.977Z"/>
</mask>
<path d="M66.5273 290.977V290.754H66.3041V290.977H66.5273ZM66.5273 305.689H66.3041V305.912H66.5273V305.689ZM66.5273 291.2H104.3V290.754H66.5273V291.2ZM104.3 305.466H66.5273V305.912H104.3V305.466ZM66.7505 305.689V290.977H66.3041V305.689H66.7505Z" fill="#C9D4DE" mask="url(#path-142-inside-15_1216_250945)"/>
<rect x="141.54" y="291.089" width="37.5494" height="14.489" stroke="#C9D4DE" stroke-width="0.223201"/>
<rect x="179.063" y="291.089" width="37.5494" height="14.489" stroke="#C9D4DE" stroke-width="0.223201"/>
<rect x="216.588" y="291.089" width="37.5494" height="14.489" stroke="#C9D4DE" stroke-width="0.223201"/>
<rect x="254.111" y="291.089" width="37.5494" height="14.489" stroke="#C9D4DE" stroke-width="0.223201"/>
<rect x="179.132" y="291.089" width="37.5494" height="14.489" fill="#E6F1FA" stroke="#C9D4DE" stroke-width="0.223201"/>
<rect x="291.636" y="291.089" width="38.7919" height="14.489" stroke="#C9D4DE" stroke-width="0.223201"/>
<path d="M66.9614 290.75H66.9832C67.0835 290.75 67.1671 290.737 67.2339 290.711C67.3015 290.684 67.3552 290.647 67.3952 290.6C67.4352 290.553 67.4639 290.497 67.4813 290.433C67.4987 290.369 67.5075 290.3 67.5075 290.225V289.952C67.5075 289.887 67.5006 289.83 67.4867 289.782C67.4737 289.732 67.4548 289.691 67.4301 289.658C67.4061 289.625 67.3781 289.6 67.3462 289.583C67.3149 289.567 67.2811 289.558 67.2448 289.558C67.2048 289.558 67.1689 289.567 67.1369 289.585C67.1057 289.603 67.0791 289.627 67.0573 289.658C67.0363 289.689 67.0199 289.725 67.0083 289.766C66.9974 289.807 66.992 289.851 66.992 289.897C66.992 289.941 66.997 289.983 67.0072 290.024C67.0181 290.063 67.0341 290.099 67.0552 290.13C67.0762 290.162 67.1028 290.186 67.1347 290.204C67.1667 290.223 67.2041 290.232 67.247 290.232C67.2877 290.232 67.3251 290.224 67.3592 290.209C67.3934 290.193 67.4232 290.171 67.4486 290.144C67.474 290.118 67.494 290.087 67.5085 290.054C67.5231 290.021 67.5311 289.986 67.5325 289.952L67.6328 289.982C67.6328 290.037 67.6212 290.092 67.5979 290.146C67.5754 290.199 67.5438 290.247 67.5031 290.292C67.4631 290.335 67.4163 290.37 67.3625 290.396C67.3095 290.422 67.2517 290.435 67.1892 290.435C67.1137 290.435 67.0468 290.421 66.9887 290.393C66.9313 290.364 66.8833 290.325 66.8448 290.275C66.807 290.226 66.7787 290.169 66.7598 290.105C66.7409 290.041 66.7315 289.974 66.7315 289.904C66.7315 289.827 66.7431 289.756 66.7664 289.689C66.7896 289.622 66.8234 289.563 66.8677 289.512C66.912 289.461 66.9658 289.421 67.029 289.392C67.0929 289.363 67.1652 289.349 67.2459 289.349C67.3316 289.349 67.4068 289.366 67.4715 289.399C67.5362 289.432 67.5906 289.479 67.635 289.537C67.6793 289.596 67.7127 289.665 67.7352 289.742C67.7578 289.82 67.769 289.904 67.769 289.993V290.086C67.769 290.179 67.7607 290.27 67.744 290.357C67.7272 290.443 67.7 290.524 67.6622 290.598C67.6252 290.671 67.5761 290.736 67.5151 290.792C67.4548 290.847 67.3807 290.89 67.2928 290.922C67.2056 290.952 67.1031 290.967 66.9854 290.967H66.9614V290.75ZM68.3646 290.005V291.411H68.1019V289.778H68.3438L68.3646 290.005ZM69.1329 290.357V290.38C69.1329 290.466 69.1227 290.545 69.1024 290.619C69.0828 290.691 69.0533 290.755 69.0141 290.809C68.9756 290.863 68.928 290.905 68.8713 290.935C68.8147 290.964 68.7493 290.979 68.6752 290.979C68.6018 290.979 68.5375 290.966 68.4823 290.939C68.4278 290.911 68.3816 290.873 68.3438 290.822C68.3061 290.772 68.2756 290.713 68.2523 290.646C68.2298 290.578 68.2138 290.503 68.2043 290.421V290.333C68.2138 290.247 68.2298 290.168 68.2523 290.098C68.2756 290.027 68.3061 289.966 68.3438 289.916C68.3816 289.865 68.4278 289.826 68.4823 289.798C68.5368 289.77 68.6003 289.757 68.673 289.757C68.7471 289.757 68.8128 289.771 68.8702 289.8C68.9276 289.828 68.976 289.869 69.0152 289.922C69.0544 289.974 69.0839 290.038 69.1035 290.112C69.1231 290.185 69.1329 290.267 69.1329 290.357ZM68.8702 290.38V290.357C68.8702 290.303 68.8652 290.252 68.855 290.206C68.8448 290.158 68.8288 290.117 68.807 290.081C68.7852 290.046 68.7573 290.018 68.7231 289.998C68.6897 289.978 68.6494 289.968 68.6021 289.968C68.5556 289.968 68.5157 289.976 68.4823 289.992C68.4488 290.007 68.4209 290.029 68.3983 290.056C68.3758 290.084 68.3584 290.116 68.346 290.153C68.3337 290.19 68.325 290.229 68.3199 290.272V290.483C68.3286 290.536 68.3435 290.584 68.3646 290.627C68.3856 290.671 68.4154 290.706 68.4539 290.732C68.4932 290.757 68.5433 290.77 68.6043 290.77C68.6516 290.77 68.6919 290.76 68.7253 290.74C68.7587 290.719 68.786 290.691 68.807 290.656C68.8288 290.619 68.8448 290.578 68.855 290.53C68.8652 290.483 68.8702 290.433 68.8702 290.38ZM69.6859 290.018V290.958H69.4233V289.778H69.6707L69.6859 290.018ZM69.6434 290.324L69.5541 290.323C69.5541 290.242 69.5642 290.167 69.5846 290.098C69.6049 290.029 69.6347 289.969 69.6739 289.918C69.7132 289.866 69.7619 289.827 69.82 289.799C69.8788 289.771 69.9468 289.757 70.0238 289.757C70.0776 289.757 70.1266 289.764 70.1709 289.78C70.216 289.796 70.2548 289.82 70.2875 289.854C70.321 289.887 70.3464 289.93 70.3638 289.982C70.382 290.034 70.3911 290.098 70.3911 290.172V290.958H70.1284V290.195C70.1284 290.137 70.1197 290.092 70.1023 290.059C70.0855 290.027 70.0612 290.004 70.0292 289.99C69.998 289.975 69.9606 289.968 69.917 289.968C69.8676 289.968 69.8254 289.977 69.7906 289.996C69.7564 290.015 69.7284 290.041 69.7066 290.074C69.6848 290.106 69.6689 290.144 69.6587 290.187C69.6485 290.23 69.6434 290.276 69.6434 290.324ZM70.3747 290.255L70.2516 290.282C70.2516 290.211 70.2614 290.143 70.281 290.08C70.3013 290.016 70.3308 289.96 70.3693 289.912C70.4085 289.864 70.4568 289.826 70.5142 289.798C70.5716 289.77 70.6374 289.757 70.7115 289.757C70.7718 289.757 70.8256 289.765 70.8728 289.782C70.9207 289.798 70.9614 289.823 70.9948 289.858C71.0283 289.893 71.0537 289.938 71.0711 289.994C71.0886 290.049 71.0973 290.116 71.0973 290.195V290.958H70.8335V290.194C70.8335 290.134 70.8248 290.088 70.8074 290.055C70.7907 290.022 70.7667 290 70.7355 289.988C70.7042 289.974 70.6668 289.968 70.6232 289.968C70.5825 289.968 70.5466 289.976 70.5153 289.991C70.4848 290.005 70.459 290.026 70.4379 290.053C70.4169 290.079 70.4009 290.109 70.39 290.143C70.3798 290.178 70.3747 290.215 70.3747 290.255Z" fill="#486581"/>
<line x1="291.663" y1="89.333" x2="291.663" y2="57.8893" stroke="#C9D4DE" stroke-width="0.223201"/>
<line x1="254.137" y1="89.333" x2="254.137" y2="57.8893" stroke="#C9D4DE" stroke-width="0.223201"/>
<line x1="216.615" y1="89.333" x2="216.615" y2="57.8893" stroke="#C9D4DE" stroke-width="0.223201"/>
<line x1="179.089" y1="89.333" x2="179.089" y2="57.8893" stroke="#C9D4DE" stroke-width="0.223201"/>
<line x1="141.567" y1="89.333" x2="141.567" y2="57.8893" stroke="#C9D4DE" stroke-width="0.223201"/>
<line x1="104.041" y1="89.333" x2="104.041" y2="57.8893" stroke="#C9D4DE" stroke-width="0.223201"/>
<rect x="254.252" y="89.0444" width="37.2756" height="0.576949" fill="#F0F9FF"/>
<path d="M82.311 43.8957C82.2977 43.7832 82.2437 43.6959 82.149 43.6338C82.0543 43.5716 81.9381 43.5406 81.8005 43.5406C81.6999 43.5406 81.6119 43.5568 81.5364 43.5894C81.4617 43.6219 81.4033 43.6667 81.3611 43.7237C81.3197 43.7806 81.299 43.8453 81.299 43.9178C81.299 43.9785 81.3134 44.0307 81.3423 44.0743C81.3718 44.1172 81.4096 44.1531 81.4554 44.1819C81.5013 44.2101 81.5494 44.2334 81.5997 44.2519C81.65 44.2696 81.6962 44.284 81.7384 44.2951L81.9692 44.3573C82.0284 44.3728 82.0942 44.3943 82.1667 44.4216C82.24 44.449 82.3099 44.4864 82.3765 44.5337C82.4438 44.5803 82.4993 44.6402 82.5429 44.7135C82.5866 44.7867 82.6084 44.8766 82.6084 44.9831C82.6084 45.1059 82.5762 45.2169 82.5118 45.316C82.4482 45.4152 82.355 45.4939 82.2322 45.5524C82.1101 45.6108 81.9618 45.64 81.7872 45.64C81.6245 45.64 81.4836 45.6138 81.3644 45.5613C81.2461 45.5087 81.1529 45.4355 81.0848 45.3415C81.0175 45.2476 80.9794 45.1385 80.9705 45.0142H81.2546C81.262 45.1 81.2908 45.171 81.3411 45.2273C81.3922 45.2827 81.4565 45.3242 81.5342 45.3515C81.6126 45.3782 81.697 45.3915 81.7872 45.3915C81.8923 45.3915 81.9866 45.3745 82.0702 45.3404C82.1538 45.3057 82.22 45.2576 82.2688 45.1962C82.3176 45.134 82.3421 45.0615 82.3421 44.9787C82.3421 44.9032 82.321 44.8418 82.2788 44.7945C82.2366 44.7471 82.1812 44.7087 82.1124 44.6791C82.0436 44.6495 81.9692 44.6236 81.8893 44.6014L81.6097 44.5215C81.4321 44.4705 81.2916 44.3976 81.188 44.3029C81.0844 44.2082 81.0327 44.0843 81.0327 43.9312C81.0327 43.8039 81.0671 43.693 81.1359 43.5983C81.2054 43.5028 81.2986 43.4289 81.4155 43.3763C81.5331 43.3231 81.6644 43.2964 81.8094 43.2964C81.9559 43.2964 82.0861 43.3227 82.2 43.3752C82.3139 43.427 82.4042 43.498 82.4708 43.5883C82.5381 43.6785 82.5736 43.781 82.5773 43.8957H82.311ZM84.9986 43.3275H85.2738V44.8322C85.2738 44.9876 85.2372 45.1263 85.164 45.2483C85.0915 45.3697 84.989 45.4655 84.8566 45.5357C84.7242 45.6053 84.5688 45.64 84.3905 45.64C84.2123 45.64 84.0569 45.6053 83.9245 45.5357C83.7921 45.4655 83.6892 45.3697 83.616 45.2483C83.5435 45.1263 83.5072 44.9876 83.5072 44.8322V43.3275H83.7824V44.81C83.7824 44.921 83.8069 45.0197 83.8557 45.1063C83.9045 45.1921 83.974 45.2598 84.0643 45.3094C84.1553 45.3582 84.264 45.3826 84.3905 45.3826C84.517 45.3826 84.6258 45.3582 84.7168 45.3094C84.8078 45.2598 84.8773 45.1921 84.9254 45.1063C84.9742 45.0197 84.9986 44.921 84.9986 44.81V43.3275ZM88.0719 43.3275V45.6001H87.8056L86.5672 43.8158H86.545V45.6001H86.2698V43.3275H86.5361L87.7789 45.1163H87.8011V43.3275H88.0719Z" fill="white"/>
<path d="M80.2428 49.4472V52.3691H79.8377L78.3524 50.2262H78.3253V52.3691H77.8845V49.4472H78.2925L79.7792 51.593H79.8063V49.4472H80.2428ZM83.8705 50.9082C83.8705 51.2202 83.8134 51.4884 83.6992 51.7129C83.5851 51.9364 83.4287 52.1085 83.2299 52.2293C83.032 52.3492 82.8071 52.4091 82.555 52.4091C82.302 52.4091 82.0761 52.3492 81.8773 52.2293C81.6795 52.1085 81.5235 51.9359 81.4094 51.7114C81.2952 51.487 81.2382 51.2192 81.2382 50.9082C81.2382 50.5962 81.2952 50.3285 81.4094 50.1049C81.5235 49.8805 81.6795 49.7083 81.8773 49.5885C82.0761 49.4677 82.302 49.4073 82.555 49.4073C82.8071 49.4073 83.032 49.4677 83.2299 49.5885C83.4287 49.7083 83.5851 49.8805 83.6992 50.1049C83.8134 50.3285 83.8705 50.5962 83.8705 50.9082ZM83.4339 50.9082C83.4339 50.6704 83.3954 50.4702 83.3183 50.3075C83.2422 50.1439 83.1376 50.0203 83.0044 49.9366C82.8722 49.8519 82.7224 49.8096 82.555 49.8096C82.3867 49.8096 82.2364 49.8519 82.1042 49.9366C81.972 50.0203 81.8674 50.1439 81.7903 50.3075C81.7142 50.4702 81.6762 50.6704 81.6762 50.9082C81.6762 51.146 81.7142 51.3467 81.7903 51.5103C81.8674 51.6729 81.972 51.7966 82.1042 51.8812C82.2364 51.9649 82.3867 52.0068 82.555 52.0068C82.7224 52.0068 82.8722 51.9649 83.0044 51.8812C83.1376 51.7966 83.2422 51.6729 83.3183 51.5103C83.3954 51.3467 83.4339 51.146 83.4339 50.9082ZM84.9767 49.4472L85.7899 51.827H85.8228L86.636 49.4472H87.1125L86.061 52.3691H85.5517L84.5002 49.4472H84.9767ZM89.549 52.3691L90.8245 49.8467V49.8253H89.3493V49.4472H91.281V49.8382L90.0098 52.3691H89.549Z" fill="white"/>
<path d="M118.841 43.0389H119.17L119.942 44.9254H119.969L120.741 43.0389H121.07V45.3115H120.812V43.5849H120.79L120.08 45.3115H119.831L119.121 43.5849H119.099V45.3115H118.841V43.0389ZM123.985 44.1752C123.985 44.4149 123.942 44.6221 123.855 44.7966C123.769 44.9712 123.65 45.1059 123.499 45.2006C123.348 45.2952 123.176 45.3426 122.982 45.3426C122.788 45.3426 122.616 45.2952 122.465 45.2006C122.314 45.1059 122.195 44.9712 122.109 44.7966C122.022 44.6221 121.979 44.4149 121.979 44.1752C121.979 43.9355 122.022 43.7284 122.109 43.5538C122.195 43.3792 122.314 43.2446 122.465 43.1499C122.616 43.0552 122.788 43.0079 122.982 43.0079C123.176 43.0079 123.348 43.0552 123.499 43.1499C123.65 43.2446 123.769 43.3792 123.855 43.5538C123.942 43.7284 123.985 43.9355 123.985 44.1752ZM123.719 44.1752C123.719 43.9784 123.686 43.8124 123.62 43.677C123.555 43.5416 123.467 43.4391 123.355 43.3696C123.244 43.3001 123.12 43.2653 122.982 43.2653C122.845 43.2653 122.72 43.3001 122.608 43.3696C122.497 43.4391 122.409 43.5416 122.343 43.677C122.278 43.8124 122.245 43.9784 122.245 44.1752C122.245 44.372 122.278 44.5381 122.343 44.6735C122.409 44.8088 122.497 44.9113 122.608 44.9808C122.72 45.0504 122.845 45.0852 122.982 45.0852C123.12 45.0852 123.244 45.0504 123.355 44.9808C123.467 44.9113 123.555 44.8088 123.62 44.6735C123.686 44.5381 123.719 44.372 123.719 44.1752ZM126.696 43.0389V45.3115H126.43L125.192 43.5272H125.17V45.3115H124.894V43.0389H125.161L126.404 44.8277H126.426V43.0389H126.696Z" fill="white"/>
<path d="M118.016 49.1591V52.0811H117.611L116.126 49.9381H116.099V52.0811H115.658V49.1591H116.066L117.552 51.3049H117.58V49.1591H118.016ZM121.644 50.6201C121.644 50.9321 121.587 51.2003 121.473 51.4248C121.358 51.6483 121.202 51.8204 121.003 51.9412C120.805 52.0611 120.58 52.121 120.328 52.121C120.075 52.121 119.849 52.0611 119.651 51.9412C119.453 51.8204 119.297 51.6478 119.183 51.4233C119.069 51.1989 119.011 50.9311 119.011 50.6201C119.011 50.3081 119.069 50.0404 119.183 49.8169C119.297 49.5924 119.453 49.4202 119.651 49.3004C119.849 49.1796 120.075 49.1192 120.328 49.1192C120.58 49.1192 120.805 49.1796 121.003 49.3004C121.202 49.4202 121.358 49.5924 121.473 49.8169C121.587 50.0404 121.644 50.3081 121.644 50.6201ZM121.207 50.6201C121.207 50.3823 121.169 50.1821 121.092 50.0195C121.016 49.8559 120.911 49.7322 120.778 49.6485C120.646 49.5639 120.496 49.5215 120.328 49.5215C120.16 49.5215 120.01 49.5639 119.878 49.6485C119.745 49.7322 119.641 49.8559 119.564 50.0195C119.488 50.1821 119.449 50.3823 119.449 50.6201C119.449 50.8579 119.488 51.0586 119.564 51.2222C119.641 51.3848 119.745 51.5085 119.878 51.5931C120.01 51.6768 120.16 51.7187 120.328 51.7187C120.496 51.7187 120.646 51.6768 120.778 51.5931C120.911 51.5085 121.016 51.3848 121.092 51.2222C121.169 51.0586 121.207 50.8579 121.207 50.6201ZM122.75 49.1591L123.563 51.5389H123.596L124.409 49.1591H124.886L123.834 52.0811H123.325L122.274 49.1591H122.75ZM128.211 52.121C128.007 52.121 127.826 52.0858 127.669 52.0154C127.513 51.945 127.391 51.848 127.302 51.7244C127.214 51.6007 127.17 51.46 127.171 51.3021C127.17 51.1784 127.195 51.0648 127.247 50.9611C127.299 50.8565 127.37 50.7694 127.459 50.7C127.549 50.6296 127.649 50.5849 127.759 50.5659V50.5488C127.613 50.5136 127.497 50.4356 127.409 50.3148C127.322 50.194 127.279 50.0551 127.28 49.8982C127.279 49.7489 127.318 49.6157 127.398 49.4987C127.479 49.3808 127.59 49.288 127.73 49.2205C127.871 49.153 128.031 49.1192 128.211 49.1192C128.389 49.1192 128.548 49.1534 128.688 49.2219C128.828 49.2895 128.939 49.3822 129.02 49.5001C129.101 49.6171 129.142 49.7498 129.143 49.8982C129.142 50.0551 129.097 50.194 129.009 50.3148C128.92 50.4356 128.805 50.5136 128.663 50.5488V50.5659C128.773 50.5849 128.871 50.6296 128.959 50.7C129.047 50.7694 129.118 50.8565 129.17 50.9611C129.223 51.0648 129.25 51.1784 129.251 51.3021C129.25 51.46 129.206 51.6007 129.117 51.7244C129.029 51.848 128.906 51.945 128.749 52.0154C128.593 52.0858 128.414 52.121 128.211 52.121ZM128.211 51.76C128.332 51.76 128.437 51.7401 128.525 51.7001C128.613 51.6592 128.682 51.6026 128.73 51.5303C128.779 51.4571 128.804 51.3715 128.805 51.2735C128.804 51.1718 128.777 51.0819 128.725 51.0039C128.673 50.9259 128.604 50.8645 128.515 50.8198C128.427 50.7751 128.325 50.7528 128.211 50.7528C128.096 50.7528 127.994 50.7751 127.904 50.8198C127.815 50.8645 127.745 50.9259 127.693 51.0039C127.642 51.0819 127.617 51.1718 127.618 51.2735C127.617 51.3715 127.64 51.4571 127.688 51.5303C127.736 51.6026 127.805 51.6592 127.894 51.7001C127.984 51.7401 128.089 51.76 128.211 51.76ZM128.211 50.4004C128.308 50.4004 128.394 50.3809 128.469 50.3419C128.545 50.3029 128.604 50.2487 128.646 50.1792C128.69 50.1098 128.712 50.0285 128.713 49.9353C128.712 49.844 128.691 49.7641 128.648 49.6956C128.606 49.6271 128.547 49.5743 128.472 49.5372C128.397 49.4992 128.31 49.4802 128.211 49.4802C128.11 49.4802 128.022 49.4992 127.946 49.5372C127.871 49.5743 127.812 49.6271 127.77 49.6956C127.728 49.7641 127.708 49.844 127.709 49.9353C127.708 50.0285 127.729 50.1098 127.772 50.1792C127.815 50.2487 127.874 50.3029 127.949 50.3419C128.025 50.3809 128.112 50.4004 128.211 50.4004Z" fill="white"/>
<path d="M156.738 43.5716V43.3275H158.443V43.5716H157.728V45.6001H157.453V43.5716H156.738ZM160.805 43.3275H161.08V44.8322C161.08 44.9876 161.044 45.1263 160.97 45.2483C160.898 45.3697 160.795 45.4655 160.663 45.5357C160.531 45.6053 160.375 45.64 160.197 45.64C160.019 45.64 159.863 45.6053 159.731 45.5357C159.598 45.4655 159.496 45.3697 159.422 45.2483C159.35 45.1263 159.314 44.9876 159.314 44.8322V43.3275H159.589V44.81C159.589 44.921 159.613 45.0197 159.662 45.1063C159.711 45.1921 159.78 45.2598 159.871 45.3094C159.962 45.3582 160.07 45.3826 160.197 45.3826C160.323 45.3826 160.432 45.3582 160.523 45.3094C160.614 45.2598 160.684 45.1921 160.732 45.1063C160.781 45.0197 160.805 44.921 160.805 44.81V43.3275ZM162.076 45.6001V43.3275H163.448V43.5716H162.351V44.3395H163.377V44.5836H162.351V45.356H163.465V45.6001H162.076Z" fill="white"/>
<path d="M155.789 49.4472V52.3691H155.384L153.899 50.2262H153.872V52.3691H153.431V49.4472H153.839L155.326 51.593H155.353V49.4472H155.789ZM159.417 50.9082C159.417 51.2202 159.36 51.4884 159.246 51.7129C159.132 51.9364 158.975 52.1085 158.776 52.2293C158.579 52.3492 158.354 52.4091 158.102 52.4091C157.849 52.4091 157.623 52.3492 157.424 52.2293C157.226 52.1085 157.07 51.9359 156.956 51.7114C156.842 51.487 156.785 51.2192 156.785 50.9082C156.785 50.5962 156.842 50.3285 156.956 50.1049C157.07 49.8805 157.226 49.7083 157.424 49.5885C157.623 49.4677 157.849 49.4073 158.102 49.4073C158.354 49.4073 158.579 49.4677 158.776 49.5885C158.975 49.7083 159.132 49.8805 159.246 50.1049C159.36 50.3285 159.417 50.5962 159.417 50.9082ZM158.981 50.9082C158.981 50.6704 158.942 50.4702 158.865 50.3075C158.789 50.1439 158.684 50.0203 158.551 49.9366C158.419 49.8519 158.269 49.8096 158.102 49.8096C157.933 49.8096 157.783 49.8519 157.651 49.9366C157.519 50.0203 157.414 50.1439 157.337 50.3075C157.261 50.4702 157.223 50.6704 157.223 50.9082C157.223 51.146 157.261 51.3467 157.337 51.5103C157.414 51.6729 157.519 51.7966 157.651 51.8812C157.783 51.9649 157.933 52.0068 158.102 52.0068C158.269 52.0068 158.419 51.9649 158.551 51.8812C158.684 51.7966 158.789 51.6729 158.865 51.5103C158.942 51.3467 158.981 51.146 158.981 50.9082ZM160.523 49.4472L161.337 51.827H161.369L162.183 49.4472H162.659L161.608 52.3691H161.098L160.047 49.4472H160.523ZM165.969 49.4073C166.099 49.4082 166.227 49.432 166.354 49.4786C166.48 49.5252 166.595 49.6013 166.696 49.7069C166.799 49.8125 166.881 49.9551 166.942 50.1349C167.004 50.3137 167.035 50.5363 167.036 50.8026C167.036 51.0585 167.01 51.2863 166.959 51.486C166.908 51.6848 166.834 51.8527 166.738 51.9896C166.643 52.1266 166.527 52.2307 166.391 52.3021C166.255 52.3734 166.102 52.4091 165.932 52.4091C165.758 52.4091 165.603 52.3748 165.468 52.3064C165.333 52.2379 165.223 52.1432 165.138 52.0224C165.054 51.9007 165.001 51.7609 164.98 51.603H165.415C165.444 51.7285 165.502 51.8303 165.589 51.9083C165.678 51.9854 165.792 52.0239 165.932 52.0239C166.146 52.0239 166.313 51.9307 166.432 51.7442C166.552 51.5569 166.613 51.2953 166.614 50.9595H166.591C166.541 51.0413 166.48 51.1117 166.405 51.1707C166.332 51.2297 166.25 51.2753 166.159 51.3077C166.067 51.34 165.97 51.3562 165.866 51.3562C165.698 51.3562 165.545 51.3148 165.407 51.2321C165.269 51.1493 165.159 51.0356 165.077 50.8911C164.995 50.7465 164.954 50.5815 164.954 50.396C164.954 50.2115 164.996 50.0441 165.08 49.8938C165.165 49.7435 165.283 49.6246 165.434 49.5371C165.586 49.4487 165.764 49.4054 165.969 49.4073ZM165.97 49.7782C165.859 49.7782 165.759 49.8058 165.669 49.861C165.581 49.9152 165.511 49.9889 165.459 50.0821C165.408 50.1744 165.382 50.2771 165.382 50.3903C165.382 50.5035 165.407 50.6062 165.457 50.6985C165.507 50.7898 165.575 50.8625 165.662 50.9167C165.75 50.97 165.849 50.9966 165.962 50.9966C166.045 50.9966 166.123 50.9805 166.196 50.9481C166.268 50.9158 166.331 50.8711 166.385 50.814C166.44 50.756 166.482 50.6904 166.512 50.6171C166.543 50.5439 166.558 50.4669 166.558 50.386C166.558 50.2785 166.532 50.1787 166.481 50.0864C166.431 49.9941 166.361 49.92 166.273 49.8638C166.184 49.8068 166.083 49.7782 165.97 49.7782Z" fill="white"/>
<path d="M194.801 45.6001L194.179 43.3275H194.459L194.934 45.1784H194.956L195.44 43.3275H195.751L196.234 45.1784H196.257L196.732 43.3275H197.011L196.39 45.6001H196.106L195.604 43.7891H195.586L195.085 45.6001H194.801ZM197.801 45.6001V43.3275H199.172V43.5716H198.076V44.3395H199.101V44.5836H198.076V45.356H199.19V45.6001H197.801ZM200.816 45.6001H200.114V43.3275H200.847C201.067 43.3275 201.256 43.373 201.413 43.464C201.57 43.5542 201.69 43.6841 201.773 43.8535C201.857 44.0222 201.899 44.2241 201.899 44.4594C201.899 44.6961 201.857 44.8999 201.772 45.0708C201.688 45.2409 201.565 45.3719 201.404 45.4636C201.243 45.5546 201.047 45.6001 200.816 45.6001ZM200.39 45.356H200.798C200.986 45.356 201.142 45.3197 201.265 45.2472C201.389 45.1747 201.481 45.0715 201.542 44.9376C201.602 44.8037 201.633 44.6443 201.633 44.4594C201.633 44.2759 201.603 44.118 201.543 43.9855C201.483 43.8524 201.393 43.7503 201.274 43.6793C201.155 43.6075 201.007 43.5716 200.829 43.5716H200.39V45.356Z" fill="white"/>
<path d="M192.07 49.1591V52.0811H191.665L190.18 49.9381H190.153V52.0811H189.712V49.1591H190.12L191.606 51.3049H191.634V49.1591H192.07ZM195.698 50.6201C195.698 50.9321 195.641 51.2003 195.527 51.4248C195.412 51.6483 195.256 51.8204 195.057 51.9412C194.859 52.0611 194.634 52.121 194.382 52.121C194.129 52.121 193.903 52.0611 193.705 51.9412C193.507 51.8204 193.351 51.6478 193.237 51.4233C193.123 51.1989 193.065 50.9311 193.065 50.6201C193.065 50.3081 193.123 50.0404 193.237 49.8169C193.351 49.5924 193.507 49.4202 193.705 49.3004C193.903 49.1796 194.129 49.1192 194.382 49.1192C194.634 49.1192 194.859 49.1796 195.057 49.3004C195.256 49.4202 195.412 49.5924 195.527 49.8169C195.641 50.0404 195.698 50.3081 195.698 50.6201ZM195.261 50.6201C195.261 50.3823 195.223 50.1821 195.146 50.0195C195.069 49.8559 194.965 49.7322 194.832 49.6485C194.7 49.5639 194.55 49.5215 194.382 49.5215C194.214 49.5215 194.064 49.5639 193.931 49.6485C193.799 49.7322 193.695 49.8559 193.618 50.0195C193.541 50.1821 193.503 50.3823 193.503 50.6201C193.503 50.8579 193.541 51.0586 193.618 51.2222C193.695 51.3848 193.799 51.5085 193.931 51.5931C194.064 51.6768 194.214 51.7187 194.382 51.7187C194.55 51.7187 194.7 51.6768 194.832 51.5931C194.965 51.5085 195.069 51.3848 195.146 51.2222C195.223 51.0586 195.261 50.8579 195.261 50.6201ZM196.804 49.1591L197.617 51.5389H197.65L198.463 49.1591H198.94L197.888 52.0811H197.379L196.327 49.1591H196.804ZM202.386 49.1591V52.0811H201.944V49.6014H201.927L201.228 50.058V49.6357L201.957 49.1591H202.386ZM204.64 52.1296C204.415 52.1286 204.222 52.0692 204.063 51.9512C203.903 51.8333 203.781 51.6616 203.696 51.4362C203.611 51.2108 203.569 50.9392 203.569 50.6215C203.569 50.3048 203.611 50.0342 203.696 49.8097C203.782 49.5853 203.904 49.4141 204.064 49.2961C204.225 49.1782 204.417 49.1192 204.64 49.1192C204.864 49.1192 205.056 49.1786 205.215 49.2975C205.375 49.4155 205.497 49.5867 205.582 49.8112C205.668 50.0347 205.71 50.3048 205.71 50.6215C205.71 50.9402 205.668 51.2122 205.583 51.4376C205.499 51.6621 205.377 51.8338 205.217 51.9527C205.057 52.0706 204.865 52.1296 204.64 52.1296ZM204.64 51.7486C204.838 51.7486 204.993 51.6521 205.104 51.459C205.216 51.2659 205.272 50.9868 205.272 50.6215C205.272 50.379 205.247 50.174 205.195 50.0066C205.145 49.8383 205.072 49.7108 204.977 49.6243C204.883 49.5368 204.771 49.493 204.64 49.493C204.444 49.493 204.289 49.59 204.177 49.784C204.065 49.9781 204.008 50.2572 204.007 50.6215C204.007 50.865 204.032 51.0709 204.083 51.2393C204.134 51.4067 204.207 51.5337 204.301 51.6202C204.395 51.7058 204.508 51.7486 204.64 51.7486Z" fill="white"/>
<path d="M232.037 43.5716V43.3275H233.741V43.5716H233.027V45.6001H232.752V43.5716H232.037ZM234.613 45.6001V43.3275H234.888V44.3395H236.1V43.3275H236.375V45.6001H236.1V44.5836H234.888V45.6001H234.613ZM238.863 43.3275H239.139V44.8322C239.139 44.9876 239.102 45.1263 239.029 45.2483C238.956 45.3697 238.854 45.4655 238.721 45.5357C238.589 45.6053 238.434 45.64 238.255 45.64C238.077 45.64 237.922 45.6053 237.789 45.5357C237.657 45.4655 237.554 45.3697 237.481 45.2483C237.408 45.1263 237.372 44.9876 237.372 44.8322V43.3275H237.647V44.81C237.647 44.921 237.672 45.0197 237.721 45.1063C237.769 45.1921 237.839 45.2598 237.929 45.3094C238.02 45.3582 238.129 45.3826 238.255 45.3826C238.382 45.3826 238.491 45.3582 238.582 45.3094C238.673 45.2598 238.742 45.1921 238.79 45.1063C238.839 45.0197 238.863 44.921 238.863 44.81V43.3275Z" fill="white"/>
<path d="M229.592 49.4472V52.3691H229.187L227.702 50.2262H227.675V52.3691H227.234V49.4472H227.642L229.129 51.593H229.156V49.4472H229.592ZM233.22 50.9082C233.22 51.2202 233.163 51.4884 233.049 51.7129C232.935 51.9364 232.778 52.1085 232.579 52.2293C232.382 52.3492 232.157 52.4091 231.905 52.4091C231.652 52.4091 231.426 52.3492 231.227 52.2293C231.029 52.1085 230.873 51.9359 230.759 51.7114C230.645 51.487 230.588 51.2192 230.588 50.9082C230.588 50.5962 230.645 50.3285 230.759 50.1049C230.873 49.8805 231.029 49.7083 231.227 49.5885C231.426 49.4677 231.652 49.4073 231.905 49.4073C232.157 49.4073 232.382 49.4677 232.579 49.5885C232.778 49.7083 232.935 49.8805 233.049 50.1049C233.163 50.3285 233.22 50.5962 233.22 50.9082ZM232.783 50.9082C232.783 50.6704 232.745 50.4702 232.668 50.3075C232.592 50.1439 232.487 50.0203 232.354 49.9366C232.222 49.8519 232.072 49.8096 231.905 49.8096C231.736 49.8096 231.586 49.8519 231.454 49.9366C231.321 50.0203 231.217 50.1439 231.14 50.3075C231.064 50.4702 231.026 50.6704 231.026 50.9082C231.026 51.146 231.064 51.3467 231.14 51.5103C231.217 51.6729 231.321 51.7966 231.454 51.8812C231.586 51.9649 231.736 52.0068 231.905 52.0068C232.072 52.0068 232.222 51.9649 232.354 51.8812C232.487 51.7966 232.592 51.6729 232.668 51.5103C232.745 51.3467 232.783 51.146 232.783 50.9082ZM234.326 49.4472L235.139 51.827H235.172L235.985 49.4472H236.462L235.411 52.3691H234.901L233.85 49.4472H234.326ZM239.909 49.4472V52.3691H239.466V49.8895H239.449L238.75 50.3461V49.9238L239.479 49.4472H239.909ZM242.254 49.4472V52.3691H241.812V49.8895H241.795L241.095 50.3461V49.9238L241.825 49.4472H242.254Z" fill="white"/>
<path d="M268.86 45.6001V43.3275H270.364V43.7237H269.34V44.2652H270.264V44.6613H269.34V45.6001H268.86ZM271.134 45.6001V43.3275H272.03C272.202 43.3275 272.349 43.3582 272.47 43.4196C272.592 43.4803 272.685 43.5665 272.748 43.6782C272.813 43.7891 272.845 43.9197 272.845 44.0699C272.845 44.2208 272.812 44.3506 272.747 44.4594C272.682 44.5674 272.588 44.6502 272.464 44.7079C272.341 44.7656 272.193 44.7945 272.018 44.7945H271.418V44.4083H271.941C272.032 44.4083 272.108 44.3957 272.169 44.3706C272.23 44.3454 272.275 44.3077 272.305 44.2574C272.335 44.2071 272.35 44.1446 272.35 44.0699C272.35 43.9944 272.335 43.9308 272.305 43.879C272.275 43.8272 272.229 43.788 272.168 43.7614C272.107 43.734 272.031 43.7203 271.938 43.7203H271.614V45.6001H271.134ZM272.361 44.5659L272.926 45.6001H272.395L271.843 44.5659H272.361ZM274.111 43.3275V45.6001H273.631V43.3275H274.111Z" fill="white"/>
<path d="M265.914 49.4472V52.3691H265.252L264.196 50.834H264.179V52.3691H263.385V49.4472H264.059L265.098 50.9767H265.12V49.4472H265.914ZM269.566 50.9082C269.566 51.2335 269.503 51.5079 269.376 51.7314C269.25 51.954 269.079 52.1228 268.864 52.2379C268.649 52.352 268.409 52.4091 268.145 52.4091C267.879 52.4091 267.638 52.3515 267.423 52.2365C267.209 52.1204 267.039 51.9511 266.912 51.7285C266.787 51.505 266.724 51.2316 266.724 50.9082C266.724 50.5829 266.787 50.309 266.912 50.0864C267.039 49.8629 267.209 49.6941 267.423 49.5799C267.638 49.4648 267.879 49.4073 268.145 49.4073C268.409 49.4073 268.649 49.4648 268.864 49.5799C269.079 49.6941 269.25 49.8629 269.376 50.0864C269.503 50.309 269.566 50.5829 269.566 50.9082ZM268.75 50.9082C268.75 50.7332 268.726 50.5858 268.68 50.4659C268.634 50.3451 268.566 50.2538 268.476 50.192C268.386 50.1292 268.276 50.0978 268.145 50.0978C268.014 50.0978 267.903 50.1292 267.812 50.192C267.723 50.2538 267.655 50.3451 267.608 50.4659C267.563 50.5858 267.54 50.7332 267.54 50.9082C267.54 51.0832 267.563 51.2311 267.608 51.3519C267.655 51.4717 267.723 51.563 267.812 51.6258C267.903 51.6876 268.014 51.7186 268.145 51.7186C268.276 51.7186 268.386 51.6876 268.476 51.6258C268.566 51.563 268.634 51.4717 268.68 51.3519C268.726 51.2311 268.75 51.0832 268.75 50.9082ZM270.994 49.4472L271.593 51.5074H271.616L272.215 49.4472H273.111L272.147 52.3691H271.062L270.098 49.4472H270.994ZM276.524 49.4472V52.3691H275.731V50.1777H275.713L275.074 50.5601V49.8867L275.793 49.4472H276.524ZM277.57 52.3691V51.7985L278.66 50.8968C278.732 50.8369 278.794 50.7807 278.846 50.7284C278.898 50.6752 278.938 50.6205 278.965 50.5643C278.994 50.5082 279.008 50.4459 279.008 50.3775C279.008 50.3023 278.992 50.2381 278.96 50.1848C278.928 50.1316 278.885 50.0907 278.828 50.0621C278.772 50.0327 278.708 50.0179 278.634 50.0179C278.561 50.0179 278.497 50.0327 278.44 50.0621C278.385 50.0916 278.342 50.1349 278.312 50.192C278.282 50.249 278.266 50.3185 278.266 50.4003H277.513C277.513 50.1948 277.559 50.0179 277.651 49.8695C277.744 49.7212 277.874 49.607 278.042 49.5271C278.211 49.4472 278.408 49.4073 278.634 49.4073C278.868 49.4073 279.071 49.4449 279.242 49.52C279.414 49.5942 279.547 49.6988 279.64 49.8339C279.734 49.9689 279.782 50.1273 279.782 50.309C279.782 50.4212 279.758 50.533 279.712 50.6442C279.665 50.7546 279.581 50.8768 279.461 51.0109C279.34 51.145 279.168 51.3048 278.945 51.4903L278.672 51.7186V51.7357H279.813V52.3691H277.57Z" fill="white"/>
<path d="M307.953 43.8957C307.94 43.7832 307.886 43.6959 307.791 43.6338C307.697 43.5716 307.58 43.5406 307.443 43.5406C307.342 43.5406 307.254 43.5568 307.179 43.5894C307.104 43.6219 307.046 43.6667 307.003 43.7237C306.962 43.7806 306.941 43.8453 306.941 43.9178C306.941 43.9785 306.956 44.0307 306.985 44.0743C307.014 44.1172 307.052 44.1531 307.098 44.1819C307.144 44.2101 307.192 44.2334 307.242 44.2519C307.292 44.2696 307.339 44.284 307.381 44.2951L307.612 44.3573C307.671 44.3728 307.737 44.3943 307.809 44.4216C307.882 44.449 307.952 44.4864 308.019 44.5337C308.086 44.5803 308.142 44.6402 308.185 44.7135C308.229 44.7867 308.251 44.8766 308.251 44.9831C308.251 45.1059 308.219 45.2169 308.154 45.316C308.091 45.4152 307.997 45.4939 307.875 45.5524C307.752 45.6108 307.604 45.64 307.43 45.64C307.267 45.64 307.126 45.6138 307.007 45.5613C306.888 45.5087 306.795 45.4355 306.727 45.3415C306.66 45.2476 306.622 45.1385 306.613 45.0142H306.897C306.904 45.1 306.933 45.171 306.983 45.2273C307.035 45.2827 307.099 45.3242 307.177 45.3515C307.255 45.3782 307.339 45.3915 307.43 45.3915C307.535 45.3915 307.629 45.3745 307.713 45.3404C307.796 45.3057 307.862 45.2576 307.911 45.1962C307.96 45.134 307.984 45.0615 307.984 44.9787C307.984 44.9032 307.963 44.8418 307.921 44.7945C307.879 44.7471 307.823 44.7087 307.755 44.6791C307.686 44.6495 307.612 44.6236 307.532 44.6014L307.252 44.5215C307.074 44.4705 306.934 44.3976 306.83 44.3029C306.727 44.2082 306.675 44.0843 306.675 43.9312C306.675 43.8039 306.709 43.693 306.778 43.5983C306.848 43.5028 306.941 43.4289 307.058 43.3763C307.175 43.3231 307.307 43.2964 307.452 43.2964C307.598 43.2964 307.728 43.3227 307.842 43.3752C307.956 43.427 308.047 43.498 308.113 43.5883C308.18 43.6785 308.216 43.781 308.22 43.8957H307.953ZM309.243 45.6001H308.954L309.789 43.3275H310.073L310.907 45.6001H310.619L309.94 43.687H309.922L309.243 45.6001ZM309.349 44.7124H310.512V44.9565H309.349V44.7124ZM311.318 43.5716V43.3275H313.022V43.5716H312.308V45.6001H312.033V43.5716H311.318Z" fill="white"/>
<path d="M304.644 49.4472V52.3691H304.239L302.753 50.2262H302.726V52.3691H302.285V49.4472H302.693L304.18 51.593H304.207V49.4472H304.644ZM308.271 50.9082C308.271 51.2202 308.214 51.4884 308.1 51.7129C307.986 51.9364 307.83 52.1085 307.631 52.2293C307.433 52.3492 307.208 52.4091 306.956 52.4091C306.703 52.4091 306.477 52.3492 306.278 52.2293C306.08 52.1085 305.924 51.9359 305.81 51.7114C305.696 51.487 305.639 51.2192 305.639 50.9082C305.639 50.5962 305.696 50.3285 305.81 50.1049C305.924 49.8805 306.08 49.7083 306.278 49.5885C306.477 49.4677 306.703 49.4073 306.956 49.4073C307.208 49.4073 307.433 49.4677 307.631 49.5885C307.83 49.7083 307.986 49.8805 308.1 50.1049C308.214 50.3285 308.271 50.5962 308.271 50.9082ZM307.835 50.9082C307.835 50.6704 307.796 50.4702 307.719 50.3075C307.643 50.1439 307.538 50.0203 307.405 49.9366C307.273 49.8519 307.123 49.8096 306.956 49.8096C306.788 49.8096 306.637 49.8519 306.505 49.9366C306.373 50.0203 306.268 50.1439 306.191 50.3075C306.115 50.4702 306.077 50.6704 306.077 50.9082C306.077 51.146 306.115 51.3467 306.191 51.5103C306.268 51.6729 306.373 51.7966 306.505 51.8812C306.637 51.9649 306.788 52.0068 306.956 52.0068C307.123 52.0068 307.273 51.9649 307.405 51.8812C307.538 51.7966 307.643 51.6729 307.719 51.5103C307.796 51.3467 307.835 51.146 307.835 50.9082ZM309.378 49.4472L310.191 51.827H310.224L311.037 49.4472H311.513L310.462 52.3691H309.953L308.901 49.4472H309.378ZM314.96 49.4472V52.3691H314.518V49.8895H314.501L313.802 50.3461V49.9238L314.531 49.4472H314.96ZM317.214 52.4091C317.018 52.4091 316.843 52.3753 316.689 52.3078C316.536 52.2403 316.415 52.1466 316.325 52.0267C316.237 51.9059 316.189 51.7661 316.183 51.6073H316.631C316.636 51.6938 316.665 51.769 316.718 51.8327C316.771 51.8955 316.84 51.944 316.926 51.9782C317.011 52.0125 317.107 52.0296 317.211 52.0296C317.326 52.0296 317.428 52.0096 317.517 51.9697C317.606 51.9297 317.676 51.8741 317.726 51.8027C317.777 51.7304 317.802 51.6472 317.802 51.5531C317.802 51.4551 317.777 51.369 317.726 51.2948C317.677 51.2197 317.604 51.1607 317.508 51.1179C317.413 51.0751 317.298 51.0537 317.163 51.0537H316.916V50.6942H317.163C317.271 50.6942 317.366 50.6747 317.448 50.6357C317.531 50.5967 317.595 50.5425 317.642 50.473C317.689 50.4027 317.712 50.3204 317.712 50.2262C317.712 50.1359 317.692 50.0574 317.651 49.9908C317.611 49.9233 317.554 49.8705 317.479 49.8324C317.406 49.7944 317.32 49.7754 317.22 49.7754C317.125 49.7754 317.036 49.793 316.953 49.8282C316.871 49.8624 316.805 49.9119 316.753 49.9765C316.702 50.0403 316.674 50.1168 316.67 50.2062H316.244C316.249 50.0484 316.295 49.9095 316.384 49.7896C316.473 49.6698 316.591 49.5761 316.738 49.5086C316.884 49.4411 317.047 49.4073 317.225 49.4073C317.413 49.4073 317.575 49.4439 317.711 49.5171C317.848 49.5894 317.953 49.686 318.027 49.8068C318.102 49.9276 318.14 50.0598 318.139 50.2034C318.14 50.367 318.094 50.5059 318.002 50.62C317.91 50.7341 317.789 50.8107 317.636 50.8497V50.8725C317.83 50.902 317.981 50.979 318.087 51.1036C318.195 51.2282 318.248 51.3828 318.247 51.5673C318.248 51.7281 318.203 51.8722 318.113 51.9996C318.023 52.1271 317.901 52.2274 317.746 52.3007C317.591 52.3729 317.414 52.4091 317.214 52.4091Z" fill="white"/>
<path d="M325.337 51.3871L327.807 48.5171L325.337 45.6477L325.709 45.2153L328.535 48.5171L325.709 51.8187L325.337 51.3871Z" fill="#E6F1FA"/>
<path d="M325.71 45.3436L328.427 48.5171L325.71 51.6913L325.449 51.3869L327.808 48.6446L327.918 48.5171L327.808 48.3897L325.449 45.6472L325.71 45.3436ZM325.711 45.0879L325.229 45.6472L327.698 48.5171L325.229 51.3871L325.711 51.9462L328.646 48.5171L325.711 45.0879Z" fill="#195581"/>
<g clip-path="url(#clip1_1216_250945)">
<path d="M71.333 45.3517L68.8638 48.2217L71.333 51.0911L70.9618 51.5234L68.1351 48.2217L70.9618 44.9201L71.333 45.3517Z" fill="#E6F1FA"/>
<path d="M70.9599 51.3952L68.2431 48.2216L70.9599 45.0475L71.2214 45.3519L68.862 48.0942L68.7522 48.2216L68.862 48.3491L71.2213 51.0916L70.9599 51.3952ZM70.9593 51.6509L71.441 51.0916L68.9718 48.2216L71.441 45.3517L70.9593 44.7926L68.0241 48.2216L70.9593 51.6509Z" fill="#195581"/>
</g>
<path d="M66.5289 89.3979L330.293 89.3979" stroke="#C9D4DE" stroke-width="0.446402"/>
<rect x="68.3113" y="148.555" width="33.9266" height="24.9985" rx="1.78561" fill="#5FA362"/>
<rect x="255.8" y="148.555" width="33.9266" height="39.2834" rx="1.78561" fill="#5FA362"/>
<rect x="294.191" y="183.375" width="33.9266" height="39.2834" rx="1.78561" fill="#CE508F"/>
<rect x="180.805" y="119.985" width="33.9266" height="39.2834" rx="1.78561" fill="#2680C2"/>
<rect x="105.809" y="135.163" width="33.9266" height="24.1057" rx="1.78561" fill="#EDC567"/>
<rect x="218.302" y="135.163" width="33.9266" height="24.1057" rx="1.78561" fill="#EDC567"/>
<rect x="180.805" y="192.303" width="33.9266" height="24.9985" rx="1.78561" fill="#2680C2"/>
<rect x="105.809" y="192.303" width="33.9266" height="24.9985" rx="1.78561" fill="#2680C2"/>
<rect x="180.805" y="235.157" width="33.9266" height="10.7137" rx="1.78561" fill="#EDC567"/>
<rect x="218.302" y="235.157" width="33.9266" height="10.7137" rx="1.78561" fill="#2680C2"/>
<rect x="218.302" y="206.587" width="33.9266" height="10.7137" rx="1.78561" fill="#EDC567"/>
<rect x="294.191" y="119.985" width="33.9266" height="10.7137" rx="1.78561" fill="#EDC567"/>
<rect x="218.302" y="178.018" width="33.9266" height="10.7137" rx="1.78561" fill="#5FA362"/>
<rect x="143.307" y="178.018" width="33.9266" height="10.7137" rx="1.78561" fill="#5FA362"/>
<rect x="143.307" y="162.84" width="33.9266" height="10.7137" rx="1.78561" fill="#CE508F"/>
<rect x="105.809" y="235.157" width="33.9266" height="24.9985" rx="1.78561" fill="#CE508F"/>
<rect x="255.8" y="235.157" width="33.9266" height="39.2834" rx="1.78561" fill="#5FA362"/>
</g>
<defs>
<filter id="filter0_d_1216_250945" x="64.7417" y="75.4863" width="266.95" height="16.7483" filterUnits="userSpaceOnUse" color-interpolation-filters="sRGB">
<feFlood flood-opacity="0" result="BackgroundImageFix"/>
<feColorMatrix in="SourceAlpha" type="matrix" values="0 0 0 0 0 0 0 0 0 0 0 0 0 0 0 0 0 0 127 0" result="hardAlpha"/>
<feOffset dx="-0.446402" dy="1.56241"/>
<feGaussianBlur stdDeviation="0.669604"/>
<feComposite in2="hardAlpha" operator="out"/>
<feColorMatrix type="matrix" values="0 0 0 0 0 0 0 0 0 0 0 0 0 0 0 0 0 0 0.05 0"/>
<feBlend mode="normal" in2="BackgroundImageFix" result="effect1_dropShadow_1216_250945"/>
<feBlend mode="normal" in="SourceGraphic" in2="effect1_dropShadow_1216_250945" result="shape"/>
</filter>
<clipPath id="clip0_1216_250945">
<rect x="57.5977" y="33.3833" width="284.805" height="281.233" rx="16" fill="white"/>
</clipPath>
<clipPath id="clip1_1216_250945">
<rect width="6.2126" height="7.21187" fill="white" transform="translate(72.8413 51.8311) rotate(180)"/>
</clipPath>
</defs>
</svg>
