<svg width="500" height="348" viewBox="0 0 500 348" fill="none" xmlns="http://www.w3.org/2000/svg">
<g filter="url(#filter0_dd_1232_57476)">
<rect x="86" y="34" width="327" height="282.24" rx="9.94677" fill="white"/>
<rect x="86.6217" y="34.6217" width="325.757" height="280.996" rx="9.3251" stroke="#2680C2" stroke-width="1.24335"/>
<path d="M119.869 69.2534H117.691C117.651 68.9717 117.57 68.7215 117.447 68.5027C117.325 68.2806 117.167 68.0917 116.975 67.9359C116.783 67.7802 116.561 67.6609 116.309 67.578C116.06 67.4951 115.79 67.4537 115.499 67.4537C114.972 67.4537 114.513 67.5846 114.121 67.8465C113.73 68.105 113.427 68.4828 113.212 68.98C112.996 69.4738 112.888 70.0737 112.888 70.7797C112.888 71.5055 112.996 72.1154 113.212 72.6092C113.43 73.1031 113.735 73.476 114.126 73.7278C114.518 73.9797 114.97 74.1057 115.484 74.1057C115.772 74.1057 116.039 74.0676 116.284 73.9913C116.533 73.9151 116.753 73.8041 116.945 73.6582C117.138 73.5091 117.297 73.3285 117.423 73.1163C117.552 72.9042 117.641 72.6623 117.691 72.3905L119.869 72.4004C119.812 72.8678 119.671 73.3185 119.446 73.7527C119.224 74.1836 118.924 74.5697 118.546 74.9111C118.172 75.2492 117.724 75.5176 117.204 75.7165C116.687 75.912 116.102 76.0098 115.449 76.0098C114.541 76.0098 113.729 75.8043 113.013 75.3933C112.3 74.9823 111.737 74.3874 111.322 73.6085C110.911 72.8296 110.706 71.8867 110.706 70.7797C110.706 69.6694 110.915 68.7248 111.332 67.9459C111.75 67.167 112.317 66.5737 113.033 66.1661C113.749 65.7551 114.554 65.5496 115.449 65.5496C116.039 65.5496 116.586 65.6324 117.089 65.7982C117.597 65.9639 118.046 66.2058 118.437 66.524C118.828 66.8389 119.146 67.225 119.391 67.6824C119.64 68.1398 119.799 68.6635 119.869 69.2534ZM124.823 76.0198C124.051 76.0198 123.383 75.8557 122.819 75.5276C122.259 75.1961 121.827 74.7354 121.522 74.1455C121.217 73.5522 121.064 72.8645 121.064 72.0823C121.064 71.2934 121.217 70.604 121.522 70.0141C121.827 69.4208 122.259 68.9601 122.819 68.632C123.383 68.3005 124.051 68.1348 124.823 68.1348C125.595 68.1348 126.261 68.3005 126.821 68.632C127.385 68.9601 127.819 69.4208 128.124 70.0141C128.429 70.604 128.581 71.2934 128.581 72.0823C128.581 72.8645 128.429 73.5522 128.124 74.1455C127.819 74.7354 127.385 75.1961 126.821 75.5276C126.261 75.8557 125.595 76.0198 124.823 76.0198ZM124.833 74.3791C125.184 74.3791 125.477 74.2797 125.713 74.0808C125.948 73.8787 126.125 73.6036 126.245 73.2555C126.367 72.9075 126.429 72.5115 126.429 72.0673C126.429 71.6232 126.367 71.2271 126.245 70.8791C126.125 70.5311 125.948 70.256 125.713 70.0538C125.477 69.8517 125.184 69.7506 124.833 69.7506C124.478 69.7506 124.18 69.8517 123.938 70.0538C123.699 70.256 123.519 70.5311 123.396 70.8791C123.277 71.2271 123.217 71.6232 123.217 72.0673C123.217 72.5115 123.277 72.9075 123.396 73.2555C123.519 73.6036 123.699 73.8787 123.938 74.0808C124.18 74.2797 124.478 74.3791 124.833 74.3791ZM132.076 71.4558V75.8706H129.958V68.2342H131.977V69.5815H132.066C132.235 69.1374 132.519 68.7861 132.917 68.5276C133.314 68.2657 133.797 68.1348 134.363 68.1348C134.894 68.1348 135.356 68.2508 135.75 68.4828C136.145 68.7148 136.451 69.0463 136.67 69.4771C136.889 69.9047 136.998 70.4151 136.998 71.0084V75.8706H134.88V71.3862C134.884 70.9189 134.764 70.5543 134.522 70.2925C134.28 70.0273 133.947 69.8948 133.523 69.8948C133.238 69.8948 132.986 69.9561 132.767 70.0787C132.552 70.2013 132.383 70.3803 132.26 70.6156C132.141 70.8476 132.08 71.1277 132.076 71.4558ZM142.729 68.2342V69.8252H138.131V68.2342H142.729ZM139.175 66.4047H141.292V73.524C141.292 73.7196 141.322 73.872 141.382 73.9814C141.442 74.0875 141.524 74.162 141.631 74.2051C141.74 74.2482 141.866 74.2698 142.008 74.2698C142.108 74.2698 142.207 74.2615 142.307 74.2449C142.406 74.225 142.482 74.2101 142.535 74.2002L142.868 75.7761C142.762 75.8093 142.613 75.8474 142.421 75.8905C142.229 75.9369 141.995 75.9651 141.72 75.975C141.21 75.9949 140.762 75.927 140.378 75.7712C139.997 75.6154 139.7 75.3734 139.488 75.0453C139.276 74.7172 139.171 74.3029 139.175 73.8024V66.4047ZM146.286 76.0148C145.799 76.0148 145.365 75.9303 144.984 75.7612C144.603 75.5889 144.301 75.3353 144.079 75.0006C143.86 74.6625 143.751 74.2416 143.751 73.7378C143.751 73.3136 143.829 72.9573 143.985 72.6689C144.14 72.3805 144.352 72.1485 144.621 71.9729C144.889 71.7972 145.194 71.6646 145.536 71.5752C145.88 71.4857 146.242 71.4227 146.619 71.3862C147.064 71.3398 147.422 71.2967 147.693 71.257C147.965 71.2139 148.162 71.1509 148.285 71.068C148.408 70.9852 148.469 70.8626 148.469 70.7002V70.6703C148.469 70.3555 148.369 70.1118 148.171 69.9395C147.975 69.7671 147.697 69.681 147.335 69.681C146.954 69.681 146.651 69.7655 146.426 69.9345C146.2 70.1002 146.051 70.3091 145.978 70.5609L144.019 70.4019C144.119 69.9378 144.314 69.5368 144.606 69.1987C144.898 68.8573 145.274 68.5955 145.735 68.4132C146.199 68.2276 146.735 68.1348 147.345 68.1348C147.77 68.1348 148.176 68.1845 148.563 68.284C148.954 68.3834 149.301 68.5375 149.602 68.7463C149.907 68.9551 150.148 69.2236 150.323 69.5517C150.499 69.8765 150.587 70.266 150.587 70.72V75.8706H148.578V74.8117H148.519C148.396 75.0503 148.232 75.2608 148.026 75.443C147.821 75.622 147.574 75.7629 147.286 75.8656C146.997 75.9651 146.664 76.0148 146.286 76.0148ZM146.893 74.5531C147.204 74.5531 147.48 74.4918 147.718 74.3692C147.957 74.2432 148.144 74.0742 148.28 73.8621C148.416 73.65 148.484 73.4097 148.484 73.1412V72.3308C148.418 72.3739 148.326 72.4137 148.21 72.4502C148.098 72.4833 147.97 72.5148 147.828 72.5446C147.685 72.5711 147.543 72.596 147.4 72.6192C147.258 72.6391 147.128 72.6573 147.012 72.6739C146.764 72.7103 146.547 72.7683 146.361 72.8479C146.175 72.9274 146.031 73.0351 145.928 73.171C145.826 73.3036 145.774 73.4693 145.774 73.6682C145.774 73.9565 145.879 74.177 146.088 74.3294C146.3 74.4786 146.568 74.5531 146.893 74.5531ZM155.68 76.0198C154.898 76.0198 154.225 75.854 153.662 75.5226C153.102 75.1878 152.671 74.7238 152.369 74.1305C152.071 73.5373 151.922 72.8545 151.922 72.0823C151.922 71.3001 152.073 70.614 152.374 70.024C152.679 69.4307 153.112 68.9684 153.672 68.6369C154.232 68.3022 154.898 68.1348 155.67 68.1348C156.336 68.1348 156.92 68.2558 157.42 68.4977C157.921 68.7397 158.317 69.0794 158.608 69.5169C158.9 69.9544 159.061 70.4681 159.091 71.0581H157.092C157.036 70.6769 156.887 70.3704 156.645 70.1384C156.406 69.903 156.093 69.7854 155.705 69.7854C155.377 69.7854 155.09 69.8749 154.845 70.0538C154.603 70.2295 154.414 70.4864 154.278 70.8244C154.142 71.1625 154.074 71.5718 154.074 72.0524C154.074 72.5396 154.141 72.9539 154.273 73.2953C154.409 73.6367 154.6 73.8969 154.845 74.0759C155.09 74.2548 155.377 74.3443 155.705 74.3443C155.947 74.3443 156.164 74.2946 156.356 74.1952C156.552 74.0957 156.713 73.9516 156.839 73.7627C156.968 73.5704 157.052 73.3401 157.092 73.0716H159.091C159.058 73.6549 158.898 74.1687 158.613 74.6128C158.332 75.0536 157.942 75.3983 157.445 75.6469C156.948 75.8955 156.36 76.0198 155.68 76.0198ZM164.509 68.2342V69.8252H159.91V68.2342H164.509ZM160.954 66.4047H163.072V73.524C163.072 73.7196 163.102 73.872 163.161 73.9814C163.221 74.0875 163.304 74.162 163.41 74.2051C163.519 74.2482 163.645 74.2698 163.788 74.2698C163.887 74.2698 163.987 74.2615 164.086 74.2449C164.185 74.225 164.262 74.2101 164.315 74.2002L164.648 75.7761C164.542 75.8093 164.393 75.8474 164.2 75.8905C164.008 75.9369 163.774 75.9651 163.499 75.975C162.989 75.9949 162.541 75.927 162.157 75.7712C161.776 75.6154 161.479 75.3734 161.267 75.0453C161.055 74.7172 160.951 74.3029 160.954 73.8024V66.4047ZM172.146 70.4118L170.207 70.5311C170.174 70.3654 170.103 70.2162 169.993 70.0837C169.884 69.9478 169.74 69.8401 169.561 69.7605C169.385 69.6777 169.175 69.6362 168.93 69.6362C168.601 69.6362 168.325 69.7058 168.099 69.845C167.874 69.9809 167.761 70.1632 167.761 70.3919C167.761 70.5742 167.834 70.7283 167.98 70.8543C168.126 70.9802 168.376 71.0813 168.731 71.1575L170.113 71.4359C170.855 71.5884 171.409 71.8337 171.773 72.1717C172.138 72.5098 172.32 72.9539 172.32 73.5041C172.32 74.0046 172.173 74.4438 171.878 74.8216C171.586 75.1994 171.185 75.4944 170.675 75.7065C170.167 75.9153 169.582 76.0198 168.92 76.0198C167.909 76.0198 167.103 75.8093 166.503 75.3884C165.907 74.9641 165.557 74.3874 165.454 73.6582L167.537 73.5489C167.6 73.8571 167.753 74.0924 167.995 74.2548C168.237 74.4139 168.547 74.4935 168.925 74.4935C169.296 74.4935 169.594 74.4222 169.819 74.2797C170.048 74.1339 170.164 73.9466 170.167 73.7179C170.164 73.5257 170.083 73.3682 169.924 73.2456C169.765 73.1197 169.519 73.0235 169.188 72.9573L167.866 72.6938C167.12 72.5446 166.565 72.2861 166.2 71.9182C165.839 71.5503 165.658 71.0813 165.658 70.5112C165.658 70.0207 165.791 69.5981 166.056 69.2435C166.324 68.8888 166.701 68.6154 167.184 68.4232C167.672 68.2309 168.242 68.1348 168.895 68.1348C169.859 68.1348 170.618 68.3386 171.172 68.7463C171.729 69.154 172.053 69.7091 172.146 70.4118ZM179.072 76.0148C178.584 76.0148 178.15 75.9303 177.769 75.7612C177.388 75.5889 177.086 75.3353 176.864 75.0006C176.645 74.6625 176.536 74.2416 176.536 73.7378C176.536 73.3136 176.614 72.9573 176.77 72.6689C176.925 72.3805 177.138 72.1485 177.406 71.9729C177.675 71.7972 177.979 71.6646 178.321 71.5752C178.666 71.4857 179.027 71.4227 179.405 71.3862C179.849 71.3398 180.207 71.2967 180.479 71.257C180.75 71.2139 180.948 71.1509 181.07 71.068C181.193 70.9852 181.254 70.8626 181.254 70.7002V70.6703C181.254 70.3555 181.155 70.1118 180.956 69.9395C180.76 69.7671 180.482 69.681 180.121 69.681C179.739 69.681 179.436 69.7655 179.211 69.9345C178.985 70.1002 178.836 70.3091 178.763 70.5609L176.805 70.4019C176.904 69.9378 177.099 69.5368 177.391 69.1987C177.683 68.8573 178.059 68.5955 178.52 68.4132C178.984 68.2276 179.521 68.1348 180.131 68.1348C180.555 68.1348 180.961 68.1845 181.349 68.284C181.74 68.3834 182.086 68.5375 182.388 68.7463C182.693 68.9551 182.933 69.2236 183.108 69.5517C183.284 69.8765 183.372 70.266 183.372 70.72V75.8706H181.363V74.8117H181.304C181.181 75.0503 181.017 75.2608 180.812 75.443C180.606 75.622 180.359 75.7629 180.071 75.8656C179.782 75.9651 179.449 76.0148 179.072 76.0148ZM179.678 74.5531C179.99 74.5531 180.265 74.4918 180.503 74.3692C180.742 74.2432 180.929 74.0742 181.065 73.8621C181.201 73.65 181.269 73.4097 181.269 73.1412V72.3308C181.203 72.3739 181.112 72.4137 180.996 72.4502C180.883 72.4833 180.755 72.5148 180.613 72.5446C180.47 72.5711 180.328 72.596 180.185 72.6192C180.043 72.6391 179.913 72.6573 179.797 72.6739C179.549 72.7103 179.332 72.7683 179.146 72.8479C178.961 72.9274 178.816 73.0351 178.714 73.171C178.611 73.3036 178.559 73.4693 178.559 73.6682C178.559 73.9565 178.664 74.177 178.873 74.3294C179.085 74.4786 179.353 74.5531 179.678 74.5531ZM187.133 71.4558V75.8706H185.015V68.2342H187.034V69.5815H187.123C187.292 69.1374 187.575 68.7861 187.973 68.5276C188.371 68.2657 188.853 68.1348 189.42 68.1348C189.95 68.1348 190.413 68.2508 190.807 68.4828C191.201 68.7148 191.508 69.0463 191.727 69.4771C191.945 69.9047 192.055 70.4151 192.055 71.0084V75.8706H189.937V71.3862C189.94 70.9189 189.821 70.5543 189.579 70.2925C189.337 70.0273 189.004 69.8948 188.58 69.8948C188.295 69.8948 188.043 69.9561 187.824 70.0787C187.609 70.2013 187.44 70.3803 187.317 70.6156C187.198 70.8476 187.136 71.1277 187.133 71.4558ZM196.538 75.9949C195.958 75.9949 195.433 75.8457 194.962 75.5475C194.495 75.2458 194.123 74.8034 193.848 74.22C193.577 73.6334 193.441 72.9142 193.441 72.0624C193.441 71.1874 193.582 70.4599 193.863 69.8798C194.145 69.2965 194.52 68.8607 194.987 68.5723C195.458 68.2806 195.973 68.1348 196.533 68.1348C196.961 68.1348 197.317 68.2077 197.602 68.3536C197.89 68.4961 198.122 68.6751 198.298 68.8905C198.477 69.1026 198.613 69.3114 198.706 69.5169H198.77V65.6888H200.883V75.8706H198.795V74.6476H198.706C198.606 74.8597 198.465 75.0702 198.283 75.279C198.104 75.4845 197.87 75.6552 197.582 75.7911C197.297 75.927 196.949 75.9949 196.538 75.9949ZM197.209 74.3095C197.551 74.3095 197.839 74.2167 198.074 74.0311C198.313 73.8422 198.495 73.5787 198.621 73.2406C198.75 72.9026 198.815 72.5065 198.815 72.0524C198.815 71.5984 198.752 71.2039 198.626 70.8692C198.5 70.5344 198.318 70.2759 198.079 70.0936C197.841 69.9113 197.551 69.8202 197.209 69.8202C196.861 69.8202 196.568 69.9146 196.329 70.1036C196.091 70.2925 195.91 70.5543 195.787 70.8891C195.665 71.2238 195.603 71.6116 195.603 72.0524C195.603 72.4966 195.665 72.8893 195.787 73.2307C195.913 73.5688 196.094 73.8339 196.329 74.0261C196.568 74.2151 196.861 74.3095 197.209 74.3095ZM209.315 76.0198C208.533 76.0198 207.86 75.854 207.297 75.5226C206.736 75.1878 206.306 74.7238 206.004 74.1305C205.706 73.5373 205.556 72.8545 205.556 72.0823C205.556 71.3001 205.707 70.614 206.009 70.024C206.314 69.4307 206.746 68.9684 207.306 68.6369C207.867 68.3022 208.533 68.1348 209.305 68.1348C209.971 68.1348 210.555 68.2558 211.055 68.4977C211.556 68.7397 211.952 69.0794 212.243 69.5169C212.535 69.9544 212.696 70.4681 212.725 71.0581H210.727C210.671 70.6769 210.521 70.3704 210.279 70.1384C210.041 69.903 209.728 69.7854 209.34 69.7854C209.012 69.7854 208.725 69.8749 208.48 70.0538C208.238 70.2295 208.049 70.4864 207.913 70.8244C207.777 71.1625 207.709 71.5718 207.709 72.0524C207.709 72.5396 207.775 72.9539 207.908 73.2953C208.044 73.6367 208.234 73.8969 208.48 74.0759C208.725 74.2548 209.012 74.3443 209.34 74.3443C209.582 74.3443 209.799 74.2946 209.991 74.1952C210.187 74.0957 210.347 73.9516 210.473 73.7627C210.603 73.5704 210.687 73.3401 210.727 73.0716H212.725C212.692 73.6549 212.533 74.1687 212.248 74.6128C211.967 75.0536 211.577 75.3983 211.08 75.6469C210.583 75.8955 209.994 76.0198 209.315 76.0198ZM217.532 76.0198C216.76 76.0198 216.092 75.8557 215.528 75.5276C214.968 75.1961 214.536 74.7354 214.231 74.1455C213.926 73.5522 213.773 72.8645 213.773 72.0823C213.773 71.2934 213.926 70.604 214.231 70.0141C214.536 69.4208 214.968 68.9601 215.528 68.632C216.092 68.3005 216.76 68.1348 217.532 68.1348C218.304 68.1348 218.97 68.3005 219.53 68.632C220.094 68.9601 220.528 69.4208 220.833 70.0141C221.138 70.604 221.29 71.2934 221.29 72.0823C221.29 72.8645 221.138 73.5522 220.833 74.1455C220.528 74.7354 220.094 75.1961 219.53 75.5276C218.97 75.8557 218.304 76.0198 217.532 76.0198ZM217.542 74.3791C217.893 74.3791 218.186 74.2797 218.422 74.0808C218.657 73.8787 218.834 73.6036 218.954 73.2555C219.076 72.9075 219.138 72.5115 219.138 72.0673C219.138 71.6232 219.076 71.2271 218.954 70.8791C218.834 70.5311 218.657 70.256 218.422 70.0538C218.186 69.8517 217.893 69.7506 217.542 69.7506C217.187 69.7506 216.889 69.8517 216.647 70.0538C216.408 70.256 216.228 70.5311 216.105 70.8791C215.986 71.2271 215.926 71.6232 215.926 72.0673C215.926 72.5115 215.986 72.9075 216.105 73.2555C216.228 73.6036 216.408 73.8787 216.647 74.0808C216.889 74.2797 217.187 74.3791 217.542 74.3791ZM222.667 75.8706V68.2342H224.686V69.5815H224.775C224.934 69.1341 225.2 68.7811 225.571 68.5226C225.942 68.2641 226.386 68.1348 226.903 68.1348C227.427 68.1348 227.873 68.2657 228.241 68.5276C228.608 68.7861 228.854 69.1374 228.976 69.5815H229.056C229.212 69.144 229.493 68.7944 229.901 68.5325C230.312 68.2674 230.798 68.1348 231.358 68.1348C232.07 68.1348 232.649 68.3618 233.093 68.8159C233.54 69.2667 233.764 69.9064 233.764 70.735V75.8706H231.651V71.1526C231.651 70.7283 231.538 70.4101 231.313 70.198C231.088 69.9859 230.806 69.8798 230.468 69.8798C230.083 69.8798 229.783 70.0025 229.568 70.2477C229.353 70.4897 229.245 70.8095 229.245 71.2073V75.8706H227.192V71.1078C227.192 70.7333 227.084 70.435 226.868 70.2129C226.656 69.9909 226.376 69.8798 226.028 69.8798C225.793 69.8798 225.581 69.9395 225.392 70.0588C225.206 70.1748 225.059 70.3389 224.949 70.551C224.84 70.7598 224.785 71.0051 224.785 71.2868V75.8706H222.667ZM235.437 78.7342V68.2342H237.525V69.5169H237.619C237.712 69.3114 237.847 69.1026 238.022 68.8905C238.201 68.6751 238.433 68.4961 238.718 68.3536C239.007 68.2077 239.365 68.1348 239.792 68.1348C240.349 68.1348 240.863 68.2806 241.333 68.5723C241.804 68.8607 242.18 69.2965 242.462 69.8798C242.744 70.4599 242.884 71.1874 242.884 72.0624C242.884 72.9142 242.747 73.6334 242.472 74.22C242.2 74.8034 241.829 75.2458 241.358 75.5475C240.891 75.8457 240.367 75.9949 239.787 75.9949C239.376 75.9949 239.026 75.927 238.738 75.7911C238.453 75.6552 238.219 75.4845 238.037 75.279C237.855 75.0702 237.716 74.8597 237.619 74.6476H237.555V78.7342H235.437ZM237.51 72.0524C237.51 72.5065 237.573 72.9026 237.699 73.2406C237.825 73.5787 238.007 73.8422 238.246 74.0311C238.485 74.2167 238.775 74.3095 239.116 74.3095C239.461 74.3095 239.752 74.2151 239.991 74.0261C240.23 73.8339 240.41 73.5688 240.533 73.2307C240.659 72.8893 240.722 72.4966 240.722 72.0524C240.722 71.6116 240.66 71.2238 240.538 70.8891C240.415 70.5543 240.235 70.2925 239.996 70.1036C239.757 69.9146 239.464 69.8202 239.116 69.8202C238.771 69.8202 238.48 69.9113 238.241 70.0936C238.006 70.2759 237.825 70.5344 237.699 70.8692C237.573 71.2039 237.51 71.5984 237.51 72.0524ZM246.474 76.0148C245.987 76.0148 245.552 75.9303 245.171 75.7612C244.79 75.5889 244.489 75.3353 244.267 75.0006C244.048 74.6625 243.938 74.2416 243.938 73.7378C243.938 73.3136 244.016 72.9573 244.172 72.6689C244.328 72.3805 244.54 72.1485 244.808 71.9729C245.077 71.7972 245.382 71.6646 245.723 71.5752C246.068 71.4857 246.429 71.4227 246.807 71.3862C247.251 71.3398 247.609 71.2967 247.881 71.257C248.153 71.2139 248.35 71.1509 248.472 71.068C248.595 70.9852 248.656 70.8626 248.656 70.7002V70.6703C248.656 70.3555 248.557 70.1118 248.358 69.9395C248.163 69.7671 247.884 69.681 247.523 69.681C247.142 69.681 246.838 69.7655 246.613 69.9345C246.388 70.1002 246.239 70.3091 246.166 70.5609L244.207 70.4019C244.306 69.9378 244.502 69.5368 244.794 69.1987C245.085 68.8573 245.461 68.5955 245.922 68.4132C246.386 68.2276 246.923 68.1348 247.533 68.1348C247.957 68.1348 248.363 68.1845 248.751 68.284C249.142 68.3834 249.488 68.5375 249.79 68.7463C250.095 68.9551 250.335 69.2236 250.511 69.5517C250.686 69.8765 250.774 70.266 250.774 70.72V75.8706H248.766V74.8117H248.706C248.584 75.0503 248.419 75.2608 248.214 75.443C248.008 75.622 247.762 75.7629 247.473 75.8656C247.185 75.9651 246.852 76.0148 246.474 76.0148ZM247.08 74.5531C247.392 74.5531 247.667 74.4918 247.906 74.3692C248.144 74.2432 248.332 74.0742 248.468 73.8621C248.603 73.65 248.671 73.4097 248.671 73.1412V72.3308C248.605 72.3739 248.514 72.4137 248.398 72.4502C248.285 72.4833 248.158 72.5148 248.015 72.5446C247.873 72.5711 247.73 72.596 247.588 72.6192C247.445 72.6391 247.316 72.6573 247.2 72.6739C246.951 72.7103 246.734 72.7683 246.548 72.8479C246.363 72.9274 246.219 73.0351 246.116 73.171C246.013 73.3036 245.962 73.4693 245.962 73.6682C245.962 73.9565 246.066 74.177 246.275 74.3294C246.487 74.4786 246.756 74.5531 247.08 74.5531ZM254.535 71.4558V75.8706H252.417V68.2342H254.436V69.5815H254.525C254.694 69.1374 254.978 68.7861 255.376 68.5276C255.773 68.2657 256.256 68.1348 256.822 68.1348C257.353 68.1348 257.815 68.2508 258.209 68.4828C258.604 68.7148 258.91 69.0463 259.129 69.4771C259.348 69.9047 259.457 70.4151 259.457 71.0084V75.8706H257.339V71.3862C257.343 70.9189 257.223 70.5543 256.981 70.2925C256.739 70.0273 256.406 69.8948 255.982 69.8948C255.697 69.8948 255.445 69.9561 255.226 70.0787C255.011 70.2013 254.842 70.3803 254.719 70.6156C254.6 70.8476 254.539 71.1277 254.535 71.4558ZM261.126 75.8706V68.2342H263.244V75.8706H261.126ZM262.19 67.2499C261.875 67.2499 261.605 67.1455 261.38 66.9367C261.158 66.7245 261.047 66.471 261.047 66.176C261.047 65.8843 261.158 65.6341 261.38 65.4253C261.605 65.2132 261.875 65.1071 262.19 65.1071C262.505 65.1071 262.774 65.2132 262.996 65.4253C263.221 65.6341 263.334 65.8843 263.334 66.176C263.334 66.471 263.221 66.7245 262.996 66.9367C262.774 67.1455 262.505 67.2499 262.19 67.2499ZM268.421 76.0198C267.635 76.0198 266.959 75.8607 266.393 75.5425C265.829 75.221 265.395 74.7669 265.09 74.1803C264.785 73.5903 264.633 72.8926 264.633 72.0872C264.633 71.3017 264.785 70.6123 265.09 70.019C265.395 69.4258 265.824 68.9634 266.378 68.632C266.934 68.3005 267.587 68.1348 268.336 68.1348C268.84 68.1348 269.309 68.216 269.743 68.3784C270.181 68.5375 270.562 68.7778 270.887 69.0993C271.215 69.4208 271.47 69.8252 271.653 70.3124C271.835 70.7963 271.926 71.363 271.926 72.0127V72.5943H265.478V71.2818H269.932C269.932 70.9769 269.866 70.7068 269.733 70.4715C269.601 70.2361 269.417 70.0522 269.182 69.9196C268.95 69.7837 268.68 69.7158 268.371 69.7158C268.05 69.7158 267.765 69.7903 267.516 69.9395C267.271 70.0853 267.079 70.2825 266.939 70.5311C266.8 70.7764 266.729 71.0498 266.726 71.3514V72.5993C266.726 72.9771 266.795 73.3036 266.934 73.5787C267.077 73.8538 267.278 74.0659 267.536 74.2151C267.795 74.3642 268.101 74.4388 268.456 74.4388C268.691 74.4388 268.907 74.4056 269.102 74.3394C269.298 74.2731 269.465 74.1736 269.604 74.0411C269.743 73.9085 269.849 73.7461 269.922 73.5538L271.881 73.6831C271.782 74.1537 271.578 74.5647 271.27 74.9161C270.965 75.2641 270.57 75.5359 270.086 75.7314C269.606 75.9236 269.051 76.0198 268.421 76.0198ZM279.662 70.4118L277.723 70.5311C277.69 70.3654 277.618 70.2162 277.509 70.0837C277.4 69.9478 277.256 69.8401 277.077 69.7605C276.901 69.6777 276.69 69.6362 276.445 69.6362C276.117 69.6362 275.84 69.7058 275.615 69.845C275.39 69.9809 275.277 70.1632 275.277 70.3919C275.277 70.5742 275.35 70.7283 275.496 70.8543C275.641 70.9802 275.892 71.0813 276.246 71.1575L277.628 71.4359C278.371 71.5884 278.924 71.8337 279.289 72.1717C279.653 72.5098 279.836 72.9539 279.836 73.5041C279.836 74.0046 279.688 74.4438 279.393 74.8216C279.102 75.1994 278.701 75.4944 278.19 75.7065C277.683 75.9153 277.098 76.0198 276.435 76.0198C275.424 76.0198 274.619 75.8093 274.019 75.3884C273.422 74.9641 273.073 74.3874 272.97 73.6582L275.053 73.5489C275.116 73.8571 275.269 74.0924 275.51 74.2548C275.752 74.4139 276.062 74.4935 276.44 74.4935C276.811 74.4935 277.11 74.4222 277.335 74.2797C277.564 74.1339 277.68 73.9466 277.683 73.7179C277.68 73.5257 277.599 73.3682 277.439 73.2456C277.28 73.1197 277.035 73.0235 276.704 72.9573L275.381 72.6938C274.635 72.5446 274.08 72.2861 273.716 71.9182C273.354 71.5503 273.174 71.0813 273.174 70.5112C273.174 70.0207 273.306 69.5981 273.572 69.2435C273.84 68.8888 274.216 68.6154 274.7 68.4232C275.187 68.2309 275.757 68.1348 276.41 68.1348C277.375 68.1348 278.134 68.3386 278.687 68.7463C279.244 69.154 279.569 69.7091 279.662 70.4118Z" fill="#486581"/>
<rect x="110.5" y="99.3706" width="278" height="27.5164" rx="13.7582" fill="white"/>
<rect x="110.5" y="99.3706" width="278" height="27.5164" rx="13.7582" stroke="#B7D5EB"/>
<path d="M131.63 116.036C131.357 115.774 131.09 115.505 130.832 115.228C130.614 115.007 130.484 114.846 130.484 114.846L128.848 114.065C129.503 113.322 129.864 112.366 129.864 111.376C129.864 109.121 128.03 107.286 125.775 107.286C123.519 107.286 121.685 109.121 121.685 111.376C121.685 113.63 123.519 115.466 125.775 115.466C126.805 115.466 127.743 115.08 128.464 114.45L129.245 116.085C129.245 116.085 129.406 116.216 129.626 116.434C129.853 116.646 130.15 116.933 130.435 117.232L131.228 118.046L131.581 118.423L132.821 117.184L132.443 116.831C132.222 116.614 131.926 116.325 131.63 116.036ZM125.775 114.297C124.164 114.297 122.853 112.987 122.853 111.376C122.853 109.765 124.164 108.455 125.775 108.455C127.385 108.455 128.696 109.765 128.696 111.376C128.696 112.987 127.385 114.297 125.775 114.297Z" fill="#93C0E1"/>
<rect x="303.934" y="98.8706" width="85.0656" height="28.5164" rx="14.2582" fill="#2680C2"/>
<path d="M330.583 110.772C330.548 110.421 330.399 110.148 330.134 109.953C329.87 109.758 329.511 109.661 329.058 109.661C328.75 109.661 328.49 109.705 328.278 109.792C328.066 109.876 327.904 109.994 327.79 110.145C327.68 110.296 327.625 110.467 327.625 110.659C327.619 110.819 327.652 110.958 327.725 111.077C327.801 111.196 327.904 111.299 328.034 111.386C328.165 111.471 328.316 111.545 328.488 111.609C328.659 111.67 328.842 111.722 329.037 111.766L329.838 111.957C330.227 112.044 330.585 112.161 330.91 112.306C331.235 112.451 331.517 112.63 331.755 112.842C331.993 113.054 332.178 113.304 332.309 113.591C332.442 113.879 332.51 114.208 332.513 114.58C332.51 115.126 332.371 115.6 332.095 116C331.822 116.398 331.427 116.708 330.91 116.928C330.396 117.146 329.776 117.255 329.05 117.255C328.329 117.255 327.702 117.145 327.167 116.924C326.636 116.703 326.221 116.377 325.921 115.944C325.625 115.508 325.47 114.969 325.455 114.327H327.281C327.301 114.627 327.387 114.876 327.538 115.077C327.692 115.274 327.896 115.424 328.152 115.526C328.411 115.624 328.703 115.674 329.028 115.674C329.347 115.674 329.625 115.627 329.86 115.534C330.098 115.441 330.283 115.312 330.413 115.147C330.544 114.981 330.609 114.791 330.609 114.576C330.609 114.375 330.55 114.207 330.431 114.07C330.315 113.934 330.143 113.818 329.917 113.722C329.693 113.626 329.418 113.539 329.093 113.46L328.122 113.216C327.369 113.033 326.775 112.747 326.34 112.358C325.904 111.969 325.688 111.445 325.69 110.785C325.688 110.245 325.831 109.773 326.122 109.369C326.415 108.965 326.817 108.65 327.329 108.424C327.84 108.197 328.421 108.084 329.071 108.084C329.734 108.084 330.312 108.197 330.805 108.424C331.302 108.65 331.688 108.965 331.964 109.369C332.24 109.773 332.383 110.241 332.391 110.772H330.583ZM336.797 117.26C336.109 117.26 335.516 117.12 335.02 116.841C334.526 116.56 334.145 116.162 333.878 115.648C333.611 115.131 333.477 114.519 333.477 113.813C333.477 113.125 333.611 112.521 333.878 112.001C334.145 111.481 334.522 111.076 335.007 110.785C335.495 110.495 336.067 110.35 336.723 110.35C337.165 110.35 337.576 110.421 337.956 110.563C338.34 110.702 338.674 110.913 338.958 111.195C339.246 111.477 339.47 111.831 339.629 112.258C339.789 112.682 339.869 113.179 339.869 113.748V114.258H334.218V113.107H338.122C338.122 112.84 338.064 112.604 337.948 112.397C337.831 112.191 337.67 112.03 337.464 111.914C337.261 111.795 337.024 111.735 336.754 111.735C336.472 111.735 336.222 111.8 336.004 111.931C335.789 112.059 335.621 112.232 335.499 112.45C335.377 112.664 335.315 112.904 335.312 113.168V114.262C335.312 114.593 335.373 114.879 335.495 115.12C335.62 115.361 335.795 115.547 336.022 115.678C336.248 115.809 336.517 115.874 336.828 115.874C337.034 115.874 337.223 115.845 337.394 115.787C337.566 115.729 337.712 115.642 337.834 115.526C337.956 115.409 338.049 115.267 338.113 115.099L339.83 115.212C339.743 115.624 339.564 115.984 339.294 116.292C339.027 116.597 338.681 116.836 338.257 117.007C337.836 117.175 337.349 117.26 336.797 117.26ZM342.989 117.255C342.562 117.255 342.181 117.181 341.847 117.033C341.513 116.882 341.249 116.66 341.054 116.366C340.862 116.07 340.767 115.701 340.767 115.26C340.767 114.888 340.835 114.576 340.971 114.323C341.108 114.07 341.294 113.867 341.529 113.713C341.764 113.559 342.031 113.443 342.331 113.365C342.633 113.286 342.949 113.231 343.28 113.199C343.67 113.158 343.983 113.121 344.222 113.086C344.46 113.048 344.633 112.993 344.74 112.92C344.847 112.847 344.901 112.74 344.901 112.598V112.572C344.901 112.296 344.814 112.082 344.64 111.931C344.468 111.78 344.224 111.705 343.908 111.705C343.574 111.705 343.308 111.779 343.111 111.927C342.913 112.072 342.782 112.255 342.718 112.476L341.002 112.336C341.089 111.93 341.26 111.578 341.516 111.282C341.772 110.983 342.101 110.753 342.505 110.594C342.912 110.431 343.382 110.35 343.917 110.35C344.288 110.35 344.644 110.393 344.984 110.48C345.327 110.567 345.63 110.702 345.895 110.885C346.162 111.068 346.372 111.304 346.526 111.591C346.68 111.876 346.757 112.217 346.757 112.615V117.129H344.997V116.201H344.945C344.837 116.41 344.694 116.594 344.513 116.754C344.333 116.911 344.117 117.035 343.864 117.125C343.612 117.212 343.32 117.255 342.989 117.255ZM343.52 115.974C343.793 115.974 344.034 115.921 344.243 115.813C344.452 115.703 344.617 115.555 344.736 115.369C344.855 115.183 344.914 114.972 344.914 114.737V114.027C344.856 114.065 344.776 114.099 344.675 114.131C344.576 114.16 344.464 114.188 344.339 114.214C344.214 114.237 344.089 114.259 343.964 114.279C343.84 114.297 343.726 114.313 343.625 114.327C343.407 114.359 343.217 114.41 343.054 114.48C342.891 114.55 342.765 114.644 342.675 114.763C342.585 114.879 342.54 115.025 342.54 115.199C342.54 115.451 342.631 115.645 342.814 115.778C343 115.909 343.235 115.974 343.52 115.974ZM348.197 117.129V110.437H349.997V111.604H350.066C350.188 111.189 350.393 110.875 350.681 110.663C350.968 110.448 351.299 110.341 351.674 110.341C351.767 110.341 351.867 110.347 351.975 110.358C352.082 110.37 352.177 110.386 352.258 110.406V112.053C352.171 112.027 352.05 112.004 351.896 111.983C351.742 111.963 351.601 111.953 351.474 111.953C351.201 111.953 350.957 112.012 350.742 112.132C350.53 112.248 350.361 112.41 350.236 112.619C350.114 112.829 350.053 113.07 350.053 113.343V117.129H348.197ZM355.93 117.26C355.244 117.26 354.655 117.114 354.161 116.824C353.67 116.531 353.292 116.124 353.028 115.604C352.767 115.084 352.636 114.486 352.636 113.809C352.636 113.123 352.768 112.522 353.032 112.005C353.3 111.485 353.679 111.08 354.17 110.79C354.66 110.496 355.244 110.35 355.921 110.35C356.505 110.35 357.016 110.456 357.455 110.668C357.893 110.88 358.24 111.177 358.496 111.561C358.752 111.944 358.892 112.394 358.919 112.911H357.167C357.118 112.577 356.987 112.309 356.775 112.105C356.566 111.899 356.291 111.796 355.952 111.796C355.664 111.796 355.413 111.874 355.198 112.031C354.986 112.185 354.82 112.41 354.701 112.707C354.582 113.003 354.522 113.362 354.522 113.783C354.522 114.21 354.581 114.573 354.697 114.872C354.816 115.171 354.983 115.399 355.198 115.556C355.413 115.713 355.664 115.791 355.952 115.791C356.164 115.791 356.354 115.748 356.522 115.661C356.694 115.573 356.835 115.447 356.945 115.282C357.058 115.113 357.132 114.911 357.167 114.676H358.919C358.89 115.187 358.75 115.637 358.5 116.027C358.253 116.413 357.912 116.715 357.476 116.933C357.041 117.151 356.525 117.26 355.93 117.26ZM361.963 113.26V117.129H360.107V108.206H361.911V111.617H361.989C362.14 111.222 362.384 110.913 362.721 110.689C363.058 110.463 363.481 110.35 363.989 110.35C364.454 110.35 364.859 110.451 365.205 110.654C365.553 110.855 365.823 111.144 366.015 111.522C366.21 111.896 366.305 112.345 366.303 112.868V117.129H364.446V113.199C364.449 112.786 364.345 112.466 364.133 112.236C363.924 112.007 363.63 111.892 363.253 111.892C363 111.892 362.776 111.946 362.582 112.053C362.39 112.161 362.239 112.317 362.129 112.524C362.021 112.727 361.966 112.972 361.963 113.26Z" fill="white"/>
<g filter="url(#filter1_d_1232_57476)">
<rect x="110" y="145.387" width="279" height="31.7454" rx="3.47895" fill="#FAFCFE" shape-rendering="crispEdges"/>
<rect x="110.217" y="145.605" width="278.565" height="31.3105" rx="3.26152" stroke="#C9D4DE" stroke-width="0.434869" shape-rendering="crispEdges"/>
<rect x="118.906" y="153.285" width="15.9492" height="15.9492" rx="7.97461" fill="#B6E0FE"/>
<path d="M126.88 160.861C127.834 160.861 128.608 160.088 128.608 159.134C128.608 158.179 127.834 157.406 126.88 157.406C125.926 157.406 125.152 158.179 125.152 159.134C125.152 160.088 125.926 160.861 126.88 160.861Z" stroke="#2680C2" stroke-width="0.629301" stroke-linecap="round" stroke-linejoin="round"/>
<path d="M124.141 165.114H129.619C130.226 165.114 130.694 164.592 130.41 164.056C129.993 163.266 129.043 162.323 126.88 162.323C124.717 162.323 123.766 163.266 123.349 164.056C123.066 164.592 123.533 165.114 124.141 165.114Z" stroke="#2680C2" stroke-width="0.629301" stroke-linecap="round" stroke-linejoin="round"/>
<rect x="143.762" y="154.587" width="129.473" height="4.67242" rx="2.33621" fill="#D9E2EC"/>
<rect x="143.762" y="163.26" width="66.582" height="4.67242" rx="2.33621" fill="#D9E2EC"/>
</g>
<g filter="url(#filter2_d_1232_57476)">
<rect x="110" y="183.133" width="279" height="31.7454" rx="3.47895" fill="#FAFCFE" shape-rendering="crispEdges"/>
<rect x="110.217" y="183.35" width="278.565" height="31.3105" rx="3.26152" stroke="#C9D4DE" stroke-width="0.434869" shape-rendering="crispEdges"/>
<rect x="118.906" y="191.031" width="15.9492" height="15.9492" rx="7.97461" fill="#B6E0FE"/>
<path d="M126.88 198.607C127.834 198.607 128.608 197.833 128.608 196.879C128.608 195.925 127.834 195.151 126.88 195.151C125.926 195.151 125.152 195.925 125.152 196.879C125.152 197.833 125.926 198.607 126.88 198.607Z" stroke="#2680C2" stroke-width="0.629301" stroke-linecap="round" stroke-linejoin="round"/>
<path d="M124.141 202.86H129.619C130.226 202.86 130.694 202.338 130.41 201.801C129.993 201.011 129.043 200.069 126.88 200.069C124.717 200.069 123.766 201.011 123.349 201.801C123.066 202.338 123.533 202.86 124.141 202.86Z" stroke="#2680C2" stroke-width="0.629301" stroke-linecap="round" stroke-linejoin="round"/>
<rect x="143.762" y="192.333" width="129.473" height="4.67242" rx="2.33621" fill="#D9E2EC"/>
<rect x="143.762" y="201.005" width="66.582" height="4.67242" rx="2.33621" fill="#D9E2EC"/>
</g>
<g filter="url(#filter3_d_1232_57476)">
<rect x="110" y="220.878" width="279" height="31.7454" rx="3.47895" fill="#FAFCFE" shape-rendering="crispEdges"/>
<rect x="110.217" y="221.095" width="278.565" height="31.3105" rx="3.26152" stroke="#C9D4DE" stroke-width="0.434869" shape-rendering="crispEdges"/>
<rect x="118.906" y="228.776" width="15.9492" height="15.9492" rx="7.97461" fill="#B6E0FE"/>
<path d="M126.88 236.352C127.834 236.352 128.608 235.579 128.608 234.624C128.608 233.67 127.834 232.896 126.88 232.896C125.926 232.896 125.152 233.67 125.152 234.624C125.152 235.579 125.926 236.352 126.88 236.352Z" stroke="#2680C2" stroke-width="0.629301" stroke-linecap="round" stroke-linejoin="round"/>
<path d="M124.141 240.605H129.619C130.226 240.605 130.694 240.083 130.41 239.546C129.993 238.757 129.043 237.814 126.88 237.814C124.717 237.814 123.766 238.757 123.349 239.546C123.066 240.083 123.533 240.605 124.141 240.605Z" stroke="#2680C2" stroke-width="0.629301" stroke-linecap="round" stroke-linejoin="round"/>
<rect x="143.762" y="230.078" width="129.473" height="4.67242" rx="2.33621" fill="#D9E2EC"/>
<rect x="143.762" y="238.75" width="66.582" height="4.67242" rx="2.33621" fill="#D9E2EC"/>
</g>
<g filter="url(#filter4_d_1232_57476)">
<rect x="110" y="258.624" width="279" height="31.7454" rx="3.47895" fill="#FAFCFE" shape-rendering="crispEdges"/>
<rect x="110.217" y="258.841" width="278.565" height="31.3105" rx="3.26152" stroke="#C9D4DE" stroke-width="0.434869" shape-rendering="crispEdges"/>
<rect x="118.906" y="266.521" width="15.9492" height="15.9492" rx="7.97461" fill="#B6E0FE"/>
<path d="M126.88 274.098C127.834 274.098 128.608 273.324 128.608 272.37C128.608 271.416 127.834 270.642 126.88 270.642C125.926 270.642 125.152 271.416 125.152 272.37C125.152 273.324 125.926 274.098 126.88 274.098Z" stroke="#2680C2" stroke-width="0.629301" stroke-linecap="round" stroke-linejoin="round"/>
<path d="M124.141 278.351H129.619C130.226 278.351 130.694 277.829 130.41 277.292C129.993 276.502 129.043 275.56 126.88 275.56C124.717 275.56 123.766 276.502 123.349 277.292C123.066 277.829 123.533 278.351 124.141 278.351Z" stroke="#2680C2" stroke-width="0.629301" stroke-linecap="round" stroke-linejoin="round"/>
<rect x="143.762" y="267.824" width="129.473" height="4.67242" rx="2.33621" fill="#D9E2EC"/>
<rect x="143.762" y="276.496" width="66.582" height="4.67242" rx="2.33621" fill="#D9E2EC"/>
</g>
</g>
<defs>
<filter id="filter0_dd_1232_57476" x="73.4111" y="34" width="352.178" height="307.418" filterUnits="userSpaceOnUse" color-interpolation-filters="sRGB">
<feFlood flood-opacity="0" result="BackgroundImageFix"/>
<feColorMatrix in="SourceAlpha" type="matrix" values="0 0 0 0 0 0 0 0 0 0 0 0 0 0 0 0 0 0 127 0" result="hardAlpha"/>
<feMorphology radius="2.09815" operator="erode" in="SourceAlpha" result="effect1_dropShadow_1232_57476"/>
<feOffset dy="4.19629"/>
<feGaussianBlur stdDeviation="3.14722"/>
<feComposite in2="hardAlpha" operator="out"/>
<feColorMatrix type="matrix" values="0 0 0 0 0 0 0 0 0 0 0 0 0 0 0 0 0 0 0.03 0"/>
<feBlend mode="normal" in2="BackgroundImageFix" result="effect1_dropShadow_1232_57476"/>
<feColorMatrix in="SourceAlpha" type="matrix" values="0 0 0 0 0 0 0 0 0 0 0 0 0 0 0 0 0 0 127 0" result="hardAlpha"/>
<feMorphology radius="4.19629" operator="erode" in="SourceAlpha" result="effect2_dropShadow_1232_57476"/>
<feOffset dy="12.5889"/>
<feGaussianBlur stdDeviation="8.39259"/>
<feComposite in2="hardAlpha" operator="out"/>
<feColorMatrix type="matrix" values="0 0 0 0 0 0 0 0 0 0 0 0 0 0 0 0 0 0 0.08 0"/>
<feBlend mode="normal" in2="effect1_dropShadow_1232_57476" result="effect2_dropShadow_1232_57476"/>
<feBlend mode="normal" in="SourceGraphic" in2="effect2_dropShadow_1232_57476" result="shape"/>
</filter>
<filter id="filter1_d_1232_57476" x="109.13" y="144.952" width="280.739" height="33.4851" filterUnits="userSpaceOnUse" color-interpolation-filters="sRGB">
<feFlood flood-opacity="0" result="BackgroundImageFix"/>
<feColorMatrix in="SourceAlpha" type="matrix" values="0 0 0 0 0 0 0 0 0 0 0 0 0 0 0 0 0 0 127 0" result="hardAlpha"/>
<feOffset dy="0.434869"/>
<feGaussianBlur stdDeviation="0.434869"/>
<feComposite in2="hardAlpha" operator="out"/>
<feColorMatrix type="matrix" values="0 0 0 0 0 0 0 0 0 0 0 0 0 0 0 0 0 0 0.04 0"/>
<feBlend mode="normal" in2="BackgroundImageFix" result="effect1_dropShadow_1232_57476"/>
<feBlend mode="normal" in="SourceGraphic" in2="effect1_dropShadow_1232_57476" result="shape"/>
</filter>
<filter id="filter2_d_1232_57476" x="109.13" y="182.698" width="280.739" height="33.4851" filterUnits="userSpaceOnUse" color-interpolation-filters="sRGB">
<feFlood flood-opacity="0" result="BackgroundImageFix"/>
<feColorMatrix in="SourceAlpha" type="matrix" values="0 0 0 0 0 0 0 0 0 0 0 0 0 0 0 0 0 0 127 0" result="hardAlpha"/>
<feOffset dy="0.434869"/>
<feGaussianBlur stdDeviation="0.434869"/>
<feComposite in2="hardAlpha" operator="out"/>
<feColorMatrix type="matrix" values="0 0 0 0 0 0 0 0 0 0 0 0 0 0 0 0 0 0 0.04 0"/>
<feBlend mode="normal" in2="BackgroundImageFix" result="effect1_dropShadow_1232_57476"/>
<feBlend mode="normal" in="SourceGraphic" in2="effect1_dropShadow_1232_57476" result="shape"/>
</filter>
<filter id="filter3_d_1232_57476" x="109.13" y="220.443" width="280.739" height="33.4851" filterUnits="userSpaceOnUse" color-interpolation-filters="sRGB">
<feFlood flood-opacity="0" result="BackgroundImageFix"/>
<feColorMatrix in="SourceAlpha" type="matrix" values="0 0 0 0 0 0 0 0 0 0 0 0 0 0 0 0 0 0 127 0" result="hardAlpha"/>
<feOffset dy="0.434869"/>
<feGaussianBlur stdDeviation="0.434869"/>
<feComposite in2="hardAlpha" operator="out"/>
<feColorMatrix type="matrix" values="0 0 0 0 0 0 0 0 0 0 0 0 0 0 0 0 0 0 0.04 0"/>
<feBlend mode="normal" in2="BackgroundImageFix" result="effect1_dropShadow_1232_57476"/>
<feBlend mode="normal" in="SourceGraphic" in2="effect1_dropShadow_1232_57476" result="shape"/>
</filter>
<filter id="filter4_d_1232_57476" x="109.13" y="258.189" width="280.739" height="33.4851" filterUnits="userSpaceOnUse" color-interpolation-filters="sRGB">
<feFlood flood-opacity="0" result="BackgroundImageFix"/>
<feColorMatrix in="SourceAlpha" type="matrix" values="0 0 0 0 0 0 0 0 0 0 0 0 0 0 0 0 0 0 127 0" result="hardAlpha"/>
<feOffset dy="0.434869"/>
<feGaussianBlur stdDeviation="0.434869"/>
<feComposite in2="hardAlpha" operator="out"/>
<feColorMatrix type="matrix" values="0 0 0 0 0 0 0 0 0 0 0 0 0 0 0 0 0 0 0.04 0"/>
<feBlend mode="normal" in2="BackgroundImageFix" result="effect1_dropShadow_1232_57476"/>
<feBlend mode="normal" in="SourceGraphic" in2="effect1_dropShadow_1232_57476" result="shape"/>
</filter>
</defs>
</svg>
