<svg width="500" height="348" viewBox="0 0 500 348" fill="none" xmlns="http://www.w3.org/2000/svg">
<g filter="url(#filter0_dd_1232_58254)">
<rect x="86" y="34" width="327" height="281.727" rx="9.94677" fill="white"/>
<rect x="86.6217" y="34.6217" width="325.757" height="280.484" rx="9.3251" stroke="#2680C2" stroke-width="1.24335"/>
<path d="M112.64 74H110.333L113.848 63.8182H116.622L120.132 74H117.825L115.275 66.1449H115.195L112.64 74ZM112.496 69.9979H117.945V71.6783H112.496V69.9979ZM124.901 66.3636V67.9545H120.302V66.3636H124.901ZM121.346 64.5341H123.464V71.6534C123.464 71.849 123.494 72.0014 123.554 72.1108C123.613 72.2169 123.696 72.2914 123.802 72.3345C123.912 72.3776 124.038 72.3991 124.18 72.3991C124.28 72.3991 124.379 72.3909 124.479 72.3743C124.578 72.3544 124.654 72.3395 124.707 72.3295L125.04 73.9055C124.934 73.9387 124.785 73.9768 124.593 74.0199C124.401 74.0663 124.167 74.0945 123.892 74.1044C123.381 74.1243 122.934 74.0563 122.55 73.9006C122.168 73.7448 121.872 73.5028 121.66 73.1747C121.448 72.8466 121.343 72.4323 121.346 71.9318V64.5341ZM130.343 66.3636V67.9545H125.744V66.3636H130.343ZM126.788 64.5341H128.906V71.6534C128.906 71.849 128.936 72.0014 128.995 72.1108C129.055 72.2169 129.138 72.2914 129.244 72.3345C129.353 72.3776 129.479 72.3991 129.622 72.3991C129.721 72.3991 129.82 72.3909 129.92 72.3743C130.019 72.3544 130.096 72.3395 130.149 72.3295L130.482 73.9055C130.376 73.9387 130.227 73.9768 130.034 74.0199C129.842 74.0663 129.608 74.0945 129.333 74.1044C128.823 74.1243 128.375 74.0563 127.991 73.9006C127.61 73.7448 127.313 73.5028 127.101 73.1747C126.889 72.8466 126.785 72.4323 126.788 71.9318V64.5341ZM133.9 74.1442C133.412 74.1442 132.978 74.0597 132.597 73.8906C132.216 73.7183 131.914 73.4647 131.692 73.13C131.474 72.7919 131.364 72.371 131.364 71.8672C131.364 71.4429 131.442 71.0866 131.598 70.7983C131.754 70.5099 131.966 70.2779 132.234 70.1023C132.503 69.9266 132.808 69.794 133.149 69.7045C133.494 69.6151 133.855 69.5521 134.233 69.5156C134.677 69.4692 135.035 69.4261 135.307 69.3864C135.578 69.3433 135.776 69.2803 135.898 69.1974C136.021 69.1146 136.082 68.992 136.082 68.8295V68.7997C136.082 68.4848 135.983 68.2412 135.784 68.0689C135.588 67.8965 135.31 67.8104 134.949 67.8104C134.568 67.8104 134.264 67.8949 134.039 68.0639C133.814 68.2296 133.664 68.4384 133.591 68.6903L131.633 68.5312C131.732 68.0672 131.928 67.6662 132.219 67.3281C132.511 66.9867 132.887 66.7249 133.348 66.5426C133.812 66.357 134.349 66.2642 134.959 66.2642C135.383 66.2642 135.789 66.3139 136.177 66.4134C136.568 66.5128 136.914 66.6669 137.216 66.8757C137.521 67.0845 137.761 67.353 137.937 67.6811C138.112 68.0059 138.2 68.3954 138.2 68.8494V74H136.192V72.9411H136.132C136.009 73.1797 135.845 73.3902 135.64 73.5724C135.434 73.7514 135.187 73.8923 134.899 73.995C134.611 74.0945 134.278 74.1442 133.9 74.1442ZM134.506 72.6825C134.818 72.6825 135.093 72.6212 135.331 72.4986C135.57 72.3726 135.757 72.2036 135.893 71.9915C136.029 71.7794 136.097 71.5391 136.097 71.2706V70.4602C136.031 70.5033 135.94 70.5431 135.824 70.5795C135.711 70.6127 135.583 70.6442 135.441 70.674C135.298 70.7005 135.156 70.7254 135.013 70.7486C134.871 70.7685 134.742 70.7867 134.626 70.8033C134.377 70.8397 134.16 70.8977 133.974 70.9773C133.789 71.0568 133.644 71.1645 133.542 71.3004C133.439 71.433 133.388 71.5987 133.388 71.7976C133.388 72.0859 133.492 72.3063 133.701 72.4588C133.913 72.608 134.181 72.6825 134.506 72.6825ZM143.294 74.1491C142.511 74.1491 141.838 73.9834 141.275 73.652C140.715 73.3172 140.284 72.8532 139.982 72.2599C139.684 71.6667 139.535 70.9839 139.535 70.2116C139.535 69.4295 139.686 68.7434 139.987 68.1534C140.292 67.5601 140.725 67.0978 141.285 66.7663C141.845 66.4316 142.511 66.2642 143.284 66.2642C143.95 66.2642 144.533 66.3852 145.034 66.6271C145.534 66.8691 145.93 67.2088 146.222 67.6463C146.513 68.0838 146.674 68.5975 146.704 69.1875H144.705C144.649 68.8063 144.5 68.4998 144.258 68.2678C144.019 68.0324 143.706 67.9148 143.318 67.9148C142.99 67.9148 142.704 68.0043 142.458 68.1832C142.216 68.3589 142.027 68.6158 141.892 68.9538C141.756 69.2919 141.688 69.7012 141.688 70.1818C141.688 70.669 141.754 71.0833 141.887 71.4247C142.022 71.7661 142.213 72.0263 142.458 72.2053C142.704 72.3842 142.99 72.4737 143.318 72.4737C143.56 72.4737 143.777 72.424 143.97 72.3246C144.165 72.2251 144.326 72.081 144.452 71.892C144.581 71.6998 144.666 71.4695 144.705 71.201H146.704C146.671 71.7843 146.512 72.2981 146.227 72.7422C145.945 73.183 145.556 73.5277 145.058 73.7763C144.561 74.0249 143.973 74.1491 143.294 74.1491ZM150.178 69.5852V74H148.06V63.8182H150.118V67.7109H150.208C150.38 67.2602 150.658 66.9072 151.043 66.652C151.427 66.3935 151.91 66.2642 152.49 66.2642C153.02 66.2642 153.482 66.3802 153.877 66.6122C154.275 66.8409 154.583 67.1707 154.801 67.6016C155.024 68.0291 155.133 68.5412 155.13 69.1378V74H153.012V69.5156C153.015 69.045 152.896 68.6787 152.654 68.4169C152.415 68.1551 152.08 68.0241 151.65 68.0241C151.361 68.0241 151.106 68.0855 150.884 68.2081C150.665 68.3307 150.493 68.5097 150.367 68.745C150.244 68.977 150.181 69.2571 150.178 69.5852ZM162.214 74.1442C161.727 74.1442 161.293 74.0597 160.912 73.8906C160.53 73.7183 160.229 73.4647 160.007 73.13C159.788 72.7919 159.679 72.371 159.679 71.8672C159.679 71.4429 159.757 71.0866 159.912 70.7983C160.068 70.5099 160.28 70.2779 160.549 70.1023C160.817 69.9266 161.122 69.794 161.463 69.7045C161.808 69.6151 162.169 69.5521 162.547 69.5156C162.991 69.4692 163.349 69.4261 163.621 69.3864C163.893 69.3433 164.09 69.2803 164.213 69.1974C164.335 69.1146 164.397 68.992 164.397 68.8295V68.7997C164.397 68.4848 164.297 68.2412 164.098 68.0689C163.903 67.8965 163.624 67.8104 163.263 67.8104C162.882 67.8104 162.579 67.8949 162.353 68.0639C162.128 68.2296 161.979 68.4384 161.906 68.6903L159.947 68.5312C160.047 68.0672 160.242 67.6662 160.534 67.3281C160.825 66.9867 161.202 66.7249 161.662 66.5426C162.126 66.357 162.663 66.2642 163.273 66.2642C163.697 66.2642 164.103 66.3139 164.491 66.4134C164.882 66.5128 165.229 66.6669 165.53 66.8757C165.835 67.0845 166.075 67.353 166.251 67.6811C166.427 68.0059 166.515 68.3954 166.515 68.8494V74H164.506V72.9411H164.446C164.324 73.1797 164.16 73.3902 163.954 73.5724C163.749 73.7514 163.502 73.8923 163.213 73.995C162.925 74.0945 162.592 74.1442 162.214 74.1442ZM162.821 72.6825C163.132 72.6825 163.407 72.6212 163.646 72.4986C163.885 72.3726 164.072 72.2036 164.208 71.9915C164.344 71.7794 164.412 71.5391 164.412 71.2706V70.4602C164.345 70.5033 164.254 70.5431 164.138 70.5795C164.025 70.6127 163.898 70.6442 163.755 70.674C163.613 70.7005 163.47 70.7254 163.328 70.7486C163.185 70.7685 163.056 70.7867 162.94 70.8033C162.691 70.8397 162.474 70.8977 162.289 70.9773C162.103 71.0568 161.959 71.1645 161.856 71.3004C161.753 71.433 161.702 71.5987 161.702 71.7976C161.702 72.0859 161.806 72.3063 162.015 72.4588C162.227 72.608 162.496 72.6825 162.821 72.6825ZM174.838 77.0227C174.152 77.0227 173.564 76.9283 173.073 76.7393C172.586 76.5537 172.198 76.3002 171.91 75.9787C171.622 75.6572 171.434 75.2959 171.348 74.8949L173.307 74.6314C173.367 74.7839 173.461 74.9264 173.59 75.0589C173.72 75.1915 173.89 75.2976 174.102 75.3771C174.318 75.46 174.58 75.5014 174.888 75.5014C175.349 75.5014 175.728 75.3887 176.026 75.1634C176.328 74.9413 176.479 74.5684 176.479 74.0447V72.6477H176.389C176.297 72.8598 176.157 73.0604 175.972 73.2493C175.786 73.4382 175.548 73.5923 175.256 73.7116C174.964 73.831 174.616 73.8906 174.212 73.8906C173.638 73.8906 173.116 73.758 172.646 73.4929C172.178 73.2244 171.806 72.8151 171.527 72.2649C171.252 71.7114 171.115 71.0121 171.115 70.1669C171.115 69.3018 171.255 68.5793 171.537 67.9993C171.819 67.4193 172.193 66.9851 172.661 66.6967C173.131 66.4084 173.647 66.2642 174.207 66.2642C174.634 66.2642 174.992 66.3371 175.281 66.483C175.569 66.6255 175.801 66.8045 175.977 67.0199C176.156 67.232 176.293 67.4408 176.389 67.6463H176.469V66.3636H178.572V74.0746C178.572 74.7242 178.413 75.2678 178.095 75.7053C177.776 76.1428 177.336 76.4709 176.772 76.6896C176.212 76.9117 175.567 77.0227 174.838 77.0227ZM174.883 72.2997C175.224 72.2997 175.513 72.2152 175.748 72.0462C175.987 71.8738 176.169 71.6286 176.295 71.3104C176.424 70.9889 176.489 70.6044 176.489 70.157C176.489 69.7095 176.426 69.3217 176.3 68.9936C176.174 68.6622 175.992 68.4053 175.753 68.223C175.514 68.0407 175.224 67.9496 174.883 67.9496C174.535 67.9496 174.242 68.044 174.003 68.233C173.764 68.4186 173.584 68.6771 173.461 69.0085C173.338 69.34 173.277 69.7228 173.277 70.157C173.277 70.5978 173.338 70.9789 173.461 71.3004C173.587 71.6186 173.768 71.8655 174.003 72.0412C174.242 72.2135 174.535 72.2997 174.883 72.2997ZM180.257 74V66.3636H182.311V67.696H182.39C182.529 67.2221 182.763 66.8641 183.091 66.6222C183.419 66.3769 183.797 66.2543 184.225 66.2543C184.331 66.2543 184.445 66.2609 184.568 66.2741C184.69 66.2874 184.798 66.3056 184.891 66.3288V68.2081C184.791 68.1783 184.654 68.1518 184.478 68.1286C184.302 68.1054 184.142 68.0938 183.996 68.0938C183.684 68.0938 183.406 68.1617 183.161 68.2976C182.919 68.4302 182.727 68.6158 182.584 68.8544C182.445 69.093 182.375 69.3681 182.375 69.6797V74H180.257ZM189.081 74.1491C188.308 74.1491 187.641 73.9851 187.077 73.657C186.517 73.3255 186.084 72.8648 185.779 72.2749C185.475 71.6816 185.322 70.9938 185.322 70.2116C185.322 69.4228 185.475 68.7334 185.779 68.1435C186.084 67.5502 186.517 67.0895 187.077 66.7614C187.641 66.4299 188.308 66.2642 189.081 66.2642C189.853 66.2642 190.519 66.4299 191.079 66.7614C191.643 67.0895 192.077 67.5502 192.382 68.1435C192.687 68.7334 192.839 69.4228 192.839 70.2116C192.839 70.9938 192.687 71.6816 192.382 72.2749C192.077 72.8648 191.643 73.3255 191.079 73.657C190.519 73.9851 189.853 74.1491 189.081 74.1491ZM189.091 72.5085C189.442 72.5085 189.735 72.4091 189.971 72.2102C190.206 72.008 190.383 71.733 190.502 71.3849C190.625 71.0369 190.686 70.6409 190.686 70.1967C190.686 69.7526 190.625 69.3565 190.502 69.0085C190.383 68.6605 190.206 68.3854 189.971 68.1832C189.735 67.9811 189.442 67.88 189.091 67.88C188.736 67.88 188.438 67.9811 188.196 68.1832C187.957 68.3854 187.776 68.6605 187.654 69.0085C187.534 69.3565 187.475 69.7526 187.475 70.1967C187.475 70.6409 187.534 71.0369 187.654 71.3849C187.776 71.733 187.957 72.008 188.196 72.2102C188.438 72.4091 188.736 72.5085 189.091 72.5085ZM199.113 70.7486V66.3636H201.231V74H199.198V72.6129H199.118C198.946 73.0604 198.659 73.42 198.258 73.6918C197.86 73.9635 197.375 74.0994 196.801 74.0994C196.291 74.0994 195.842 73.9834 195.454 73.7514C195.066 73.5194 194.763 73.1896 194.544 72.7621C194.329 72.3345 194.22 71.8224 194.216 71.2259V66.3636H196.334V70.848C196.337 71.2988 196.458 71.6551 196.697 71.9169C196.936 72.1787 197.256 72.3097 197.657 72.3097C197.912 72.3097 198.15 72.2517 198.373 72.1357C198.595 72.0163 198.774 71.8407 198.909 71.6087C199.049 71.3767 199.117 71.09 199.113 70.7486ZM202.925 76.8636V66.3636H205.013V67.6463H205.108C205.201 67.4408 205.335 67.232 205.51 67.0199C205.689 66.8045 205.921 66.6255 206.206 66.483C206.495 66.3371 206.853 66.2642 207.28 66.2642C207.837 66.2642 208.351 66.41 208.822 66.7017C209.292 66.9901 209.668 67.4259 209.95 68.0092C210.232 68.5893 210.373 69.3168 210.373 70.1918C210.373 71.0436 210.235 71.7628 209.96 72.3494C209.688 72.9328 209.317 73.3752 208.846 73.6768C208.379 73.9751 207.855 74.1243 207.275 74.1243C206.864 74.1243 206.515 74.0563 206.226 73.9205C205.941 73.7846 205.708 73.6139 205.525 73.4084C205.343 73.1996 205.204 72.9891 205.108 72.777H205.043V76.8636H202.925ZM204.998 70.1818C204.998 70.6359 205.061 71.032 205.187 71.37C205.313 71.7081 205.496 71.9716 205.734 72.1605C205.973 72.3461 206.263 72.4389 206.604 72.4389C206.949 72.4389 207.241 72.3445 207.479 72.1555C207.718 71.9633 207.898 71.6982 208.021 71.3601C208.147 71.0187 208.21 70.6259 208.21 70.1818C208.21 69.741 208.149 69.3532 208.026 69.0185C207.903 68.6837 207.723 68.4219 207.484 68.233C207.246 68.044 206.952 67.9496 206.604 67.9496C206.26 67.9496 205.968 68.0407 205.729 68.223C205.494 68.4053 205.313 68.6638 205.187 68.9986C205.061 69.3333 204.998 69.7277 204.998 70.1818ZM219.087 66.3636V67.9545H214.488V66.3636H219.087ZM215.532 64.5341H217.65V71.6534C217.65 71.849 217.68 72.0014 217.739 72.1108C217.799 72.2169 217.882 72.2914 217.988 72.3345C218.097 72.3776 218.223 72.3991 218.366 72.3991C218.465 72.3991 218.565 72.3909 218.664 72.3743C218.763 72.3544 218.84 72.3395 218.893 72.3295L219.226 73.9055C219.12 73.9387 218.971 73.9768 218.778 74.0199C218.586 74.0663 218.353 74.0945 218.077 74.1044C217.567 74.1243 217.12 74.0563 216.735 73.9006C216.354 73.7448 216.057 73.5028 215.845 73.1747C215.633 72.8466 215.529 72.4323 215.532 71.9318V64.5341ZM223.835 74.1491C223.062 74.1491 222.394 73.9851 221.831 73.657C221.271 73.3255 220.838 72.8648 220.533 72.2749C220.228 71.6816 220.076 70.9938 220.076 70.2116C220.076 69.4228 220.228 68.7334 220.533 68.1435C220.838 67.5502 221.271 67.0895 221.831 66.7614C222.394 66.4299 223.062 66.2642 223.835 66.2642C224.607 66.2642 225.273 66.4299 225.833 66.7614C226.397 67.0895 226.831 67.5502 227.136 68.1435C227.441 68.7334 227.593 69.4228 227.593 70.2116C227.593 70.9938 227.441 71.6816 227.136 72.2749C226.831 72.8648 226.397 73.3255 225.833 73.657C225.273 73.9851 224.607 74.1491 223.835 74.1491ZM223.844 72.5085C224.196 72.5085 224.489 72.4091 224.724 72.2102C224.96 72.008 225.137 71.733 225.256 71.3849C225.379 71.0369 225.44 70.6409 225.44 70.1967C225.44 69.7526 225.379 69.3565 225.256 69.0085C225.137 68.6605 224.96 68.3854 224.724 68.1832C224.489 67.9811 224.196 67.88 223.844 67.88C223.49 67.88 223.192 67.9811 222.95 68.1832C222.711 68.3854 222.53 68.6605 222.408 69.0085C222.288 69.3565 222.229 69.7526 222.229 70.1967C222.229 70.6409 222.288 71.0369 222.408 71.3849C222.53 71.733 222.711 72.008 222.95 72.2102C223.192 72.4091 223.49 72.5085 223.844 72.5085ZM236.272 66.3636V67.9545H231.673V66.3636H236.272ZM232.718 64.5341H234.835V71.6534C234.835 71.849 234.865 72.0014 234.925 72.1108C234.985 72.2169 235.067 72.2914 235.173 72.3345C235.283 72.3776 235.409 72.3991 235.551 72.3991C235.651 72.3991 235.75 72.3909 235.85 72.3743C235.949 72.3544 236.025 72.3395 236.078 72.3295L236.411 73.9055C236.305 73.9387 236.156 73.9768 235.964 74.0199C235.772 74.0663 235.538 74.0945 235.263 74.1044C234.753 74.1243 234.305 74.0563 233.921 73.9006C233.539 73.7448 233.243 73.5028 233.031 73.1747C232.819 72.8466 232.714 72.4323 232.718 71.9318V64.5341ZM239.934 69.5852V74H237.816V63.8182H239.874V67.7109H239.964C240.136 67.2602 240.414 66.9072 240.799 66.652C241.183 66.3935 241.666 66.2642 242.246 66.2642C242.776 66.2642 243.238 66.3802 243.633 66.6122C244.03 66.8409 244.339 67.1707 244.557 67.6016C244.779 68.0291 244.889 68.5412 244.885 69.1378V74H242.768V69.5156C242.771 69.045 242.652 68.6787 242.41 68.4169C242.171 68.1551 241.836 68.0241 241.405 68.0241C241.117 68.0241 240.862 68.0855 240.64 68.2081C240.421 68.3307 240.249 68.5097 240.123 68.745C240 68.977 239.937 69.2571 239.934 69.5852ZM250.032 74.1491C249.247 74.1491 248.571 73.9901 248.004 73.6719C247.44 73.3504 247.006 72.8963 246.701 72.3097C246.396 71.7197 246.244 71.022 246.244 70.2166C246.244 69.4311 246.396 68.7417 246.701 68.1484C247.006 67.5552 247.435 67.0928 247.989 66.7614C248.546 66.4299 249.199 66.2642 249.948 66.2642C250.452 66.2642 250.921 66.3454 251.355 66.5078C251.792 66.6669 252.173 66.9072 252.498 67.2287C252.826 67.5502 253.082 67.9545 253.264 68.4418C253.446 68.9257 253.537 69.4924 253.537 70.142V70.7237H247.089V69.4112H251.544C251.544 69.1063 251.477 68.8362 251.345 68.6009C251.212 68.3655 251.028 68.1816 250.793 68.049C250.561 67.9131 250.291 67.8452 249.983 67.8452C249.661 67.8452 249.376 67.9197 249.127 68.0689C248.882 68.2147 248.69 68.4119 248.551 68.6605C248.412 68.9058 248.34 69.1792 248.337 69.4808V70.7287C248.337 71.1065 248.407 71.433 248.546 71.7081C248.688 71.9832 248.889 72.1953 249.147 72.3445C249.406 72.4936 249.712 72.5682 250.067 72.5682C250.302 72.5682 250.518 72.535 250.713 72.4688C250.909 72.4025 251.076 72.303 251.216 72.1705C251.355 72.0379 251.461 71.8755 251.534 71.6832L253.493 71.8125C253.393 72.2831 253.189 72.6941 252.881 73.0455C252.576 73.3935 252.182 73.6652 251.698 73.8608C251.217 74.053 250.662 74.1491 250.032 74.1491ZM261.273 68.5412L259.334 68.6605C259.301 68.4948 259.23 68.3456 259.12 68.2131C259.011 68.0772 258.867 67.9695 258.688 67.8899C258.512 67.8071 258.302 67.7656 258.056 67.7656C257.728 67.7656 257.452 67.8352 257.226 67.9744C257.001 68.1103 256.888 68.2926 256.888 68.5213C256.888 68.7036 256.961 68.8577 257.107 68.9837C257.253 69.1096 257.503 69.2107 257.858 69.2869L259.24 69.5653C259.982 69.7178 260.536 69.9631 260.9 70.3011C261.265 70.6392 261.447 71.0833 261.447 71.6335C261.447 72.134 261.3 72.5732 261.005 72.951C260.713 73.3288 260.312 73.6238 259.801 73.8359C259.294 74.0447 258.709 74.1491 258.047 74.1491C257.036 74.1491 256.23 73.9387 255.63 73.5178C255.034 73.0935 254.684 72.5168 254.581 71.7876L256.664 71.6783C256.727 71.9865 256.88 72.2218 257.122 72.3842C257.364 72.5433 257.674 72.6229 258.051 72.6229C258.423 72.6229 258.721 72.5516 258.946 72.4091C259.175 72.2633 259.291 72.076 259.294 71.8473C259.291 71.6551 259.21 71.4976 259.051 71.375C258.892 71.2491 258.646 71.1529 258.315 71.0866L256.993 70.8232C256.247 70.674 255.692 70.4155 255.327 70.0476C254.966 69.6797 254.785 69.2107 254.785 68.6406C254.785 68.1501 254.918 67.7275 255.183 67.3729C255.451 67.0182 255.828 66.7448 256.311 66.5526C256.799 66.3603 257.369 66.2642 258.022 66.2642C258.986 66.2642 259.745 66.468 260.299 66.8757C260.855 67.2834 261.18 67.8385 261.273 68.5412ZM266.261 74.1491C265.475 74.1491 264.799 73.9901 264.232 73.6719C263.669 73.3504 263.235 72.8963 262.93 72.3097C262.625 71.7197 262.472 71.022 262.472 70.2166C262.472 69.4311 262.625 68.7417 262.93 68.1484C263.235 67.5552 263.664 67.0928 264.218 66.7614C264.774 66.4299 265.427 66.2642 266.176 66.2642C266.68 66.2642 267.149 66.3454 267.583 66.5078C268.021 66.6669 268.402 66.9072 268.727 67.2287C269.055 67.5502 269.31 67.9545 269.492 68.4418C269.675 68.9257 269.766 69.4924 269.766 70.142V70.7237H263.318V69.4112H267.772C267.772 69.1063 267.706 68.8362 267.573 68.6009C267.441 68.3655 267.257 68.1816 267.021 68.049C266.789 67.9131 266.519 67.8452 266.211 67.8452C265.89 67.8452 265.605 67.9197 265.356 68.0689C265.111 68.2147 264.919 68.4119 264.779 68.6605C264.64 68.9058 264.569 69.1792 264.566 69.4808V70.7287C264.566 71.1065 264.635 71.433 264.774 71.7081C264.917 71.9832 265.117 72.1953 265.376 72.3445C265.634 72.4936 265.941 72.5682 266.296 72.5682C266.531 72.5682 266.746 72.535 266.942 72.4688C267.137 72.4025 267.305 72.303 267.444 72.1705C267.583 72.0379 267.689 71.8755 267.762 71.6832L269.721 71.8125C269.622 72.2831 269.418 72.6941 269.11 73.0455C268.805 73.3935 268.41 73.6652 267.926 73.8608C267.446 74.053 266.891 74.1491 266.261 74.1491ZM274.388 74V66.3636H276.441V67.696H276.521C276.66 67.2221 276.894 66.8641 277.222 66.6222C277.55 66.3769 277.928 66.2543 278.355 66.2543C278.462 66.2543 278.576 66.2609 278.699 66.2741C278.821 66.2874 278.929 66.3056 279.022 66.3288V68.2081C278.922 68.1783 278.785 68.1518 278.609 68.1286C278.433 68.1054 278.273 68.0938 278.127 68.0938C277.815 68.0938 277.537 68.1617 277.292 68.2976C277.05 68.4302 276.857 68.6158 276.715 68.8544C276.576 69.093 276.506 69.3681 276.506 69.6797V74H274.388ZM283.241 74.1491C282.456 74.1491 281.78 73.9901 281.213 73.6719C280.649 73.3504 280.215 72.8963 279.91 72.3097C279.605 71.7197 279.453 71.022 279.453 70.2166C279.453 69.4311 279.605 68.7417 279.91 68.1484C280.215 67.5552 280.644 67.0928 281.198 66.7614C281.755 66.4299 282.408 66.2642 283.157 66.2642C283.661 66.2642 284.13 66.3454 284.564 66.5078C285.001 66.6669 285.382 66.9072 285.707 67.2287C286.035 67.5502 286.291 67.9545 286.473 68.4418C286.655 68.9257 286.746 69.4924 286.746 70.142V70.7237H280.298V69.4112H284.753C284.753 69.1063 284.686 68.8362 284.554 68.6009C284.421 68.3655 284.237 68.1816 284.002 68.049C283.77 67.9131 283.5 67.8452 283.192 67.8452C282.87 67.8452 282.585 67.9197 282.336 68.0689C282.091 68.2147 281.899 68.4119 281.76 68.6605C281.621 68.9058 281.549 69.1792 281.546 69.4808V70.7287C281.546 71.1065 281.616 71.433 281.755 71.7081C281.897 71.9832 282.098 72.1953 282.356 72.3445C282.615 72.4936 282.921 72.5682 283.276 72.5682C283.511 72.5682 283.727 72.535 283.922 72.4688C284.118 72.4025 284.285 72.303 284.425 72.1705C284.564 72.0379 284.67 71.8755 284.743 71.6832L286.702 71.8125C286.602 72.2831 286.398 72.6941 286.09 73.0455C285.785 73.3935 285.391 73.6652 284.907 73.8608C284.426 74.053 283.871 74.1491 283.241 74.1491ZM291.579 74.1491C290.796 74.1491 290.124 73.9834 289.56 73.652C289 73.3172 288.569 72.8532 288.268 72.2599C287.969 71.6667 287.82 70.9839 287.82 70.2116C287.82 69.4295 287.971 68.7434 288.273 68.1534C288.577 67.5601 289.01 67.0978 289.57 66.7663C290.13 66.4316 290.796 66.2642 291.569 66.2642C292.235 66.2642 292.818 66.3852 293.319 66.6271C293.819 66.8691 294.215 67.2088 294.507 67.6463C294.799 68.0838 294.959 68.5975 294.989 69.1875H292.991C292.934 68.8063 292.785 68.4998 292.543 68.2678C292.305 68.0324 291.991 67.9148 291.604 67.9148C291.275 67.9148 290.989 68.0043 290.743 68.1832C290.501 68.3589 290.313 68.6158 290.177 68.9538C290.041 69.2919 289.973 69.7012 289.973 70.1818C289.973 70.669 290.039 71.0833 290.172 71.4247C290.308 71.7661 290.498 72.0263 290.743 72.2053C290.989 72.3842 291.275 72.4737 291.604 72.4737C291.845 72.4737 292.063 72.424 292.255 72.3246C292.45 72.2251 292.611 72.081 292.737 71.892C292.866 71.6998 292.951 71.4695 292.991 71.201H294.989C294.956 71.7843 294.797 72.2981 294.512 72.7422C294.23 73.183 293.841 73.5277 293.344 73.7763C292.846 74.0249 292.258 74.1491 291.579 74.1491ZM299.795 74.1491C299.023 74.1491 298.355 73.9851 297.792 73.657C297.232 73.3255 296.799 72.8648 296.494 72.2749C296.189 71.6816 296.037 70.9938 296.037 70.2116C296.037 69.4228 296.189 68.7334 296.494 68.1435C296.799 67.5502 297.232 67.0895 297.792 66.7614C298.355 66.4299 299.023 66.2642 299.795 66.2642C300.568 66.2642 301.234 66.4299 301.794 66.7614C302.357 67.0895 302.792 67.5502 303.097 68.1435C303.402 68.7334 303.554 69.4228 303.554 70.2116C303.554 70.9938 303.402 71.6816 303.097 72.2749C302.792 72.8648 302.357 73.3255 301.794 73.657C301.234 73.9851 300.568 74.1491 299.795 74.1491ZM299.805 72.5085C300.157 72.5085 300.45 72.4091 300.685 72.2102C300.921 72.008 301.098 71.733 301.217 71.3849C301.34 71.0369 301.401 70.6409 301.401 70.1967C301.401 69.7526 301.34 69.3565 301.217 69.0085C301.098 68.6605 300.921 68.3854 300.685 68.1832C300.45 67.9811 300.157 67.88 299.805 67.88C299.451 67.88 299.152 67.9811 298.911 68.1832C298.672 68.3854 298.491 68.6605 298.369 69.0085C298.249 69.3565 298.19 69.7526 298.19 70.1967C298.19 70.6409 298.249 71.0369 298.369 71.3849C298.491 71.733 298.672 72.008 298.911 72.2102C299.152 72.4091 299.451 72.5085 299.805 72.5085ZM304.931 74V66.3636H306.984V67.696H307.064C307.203 67.2221 307.437 66.8641 307.765 66.6222C308.093 66.3769 308.471 66.2543 308.898 66.2543C309.004 66.2543 309.119 66.2609 309.241 66.2741C309.364 66.2874 309.472 66.3056 309.565 66.3288V68.2081C309.465 68.1783 309.328 68.1518 309.152 68.1286C308.976 68.1054 308.816 68.0938 308.67 68.0938C308.358 68.0938 308.08 68.1617 307.835 68.2976C307.593 68.4302 307.4 68.6158 307.258 68.8544C307.119 69.093 307.049 69.3681 307.049 69.6797V74H304.931ZM313.118 74.1243C312.538 74.1243 312.013 73.9751 311.542 73.6768C311.075 73.3752 310.704 72.9328 310.428 72.3494C310.157 71.7628 310.021 71.0436 310.021 70.1918C310.021 69.3168 310.162 68.5893 310.443 68.0092C310.725 67.4259 311.1 66.9901 311.567 66.7017C312.038 66.41 312.553 66.2642 313.113 66.2642C313.541 66.2642 313.897 66.3371 314.182 66.483C314.47 66.6255 314.702 66.8045 314.878 67.0199C315.057 67.232 315.193 67.4408 315.286 67.6463H315.35V63.8182H317.463V74H315.375V72.777H315.286C315.186 72.9891 315.045 73.1996 314.863 73.4084C314.684 73.6139 314.45 73.7846 314.162 73.9205C313.877 74.0563 313.529 74.1243 313.118 74.1243ZM313.789 72.4389C314.131 72.4389 314.419 72.3461 314.654 72.1605C314.893 71.9716 315.075 71.7081 315.201 71.37C315.33 71.032 315.395 70.6359 315.395 70.1818C315.395 69.7277 315.332 69.3333 315.206 68.9986C315.08 68.6638 314.898 68.4053 314.659 68.223C314.421 68.0407 314.131 67.9496 313.789 67.9496C313.441 67.9496 313.148 68.044 312.909 68.233C312.671 68.4219 312.49 68.6837 312.367 69.0185C312.245 69.3532 312.183 69.741 312.183 70.1818C312.183 70.6259 312.245 71.0187 312.367 71.3601C312.493 71.6982 312.674 71.9633 312.909 72.1555C313.148 72.3445 313.441 72.4389 313.789 72.4389ZM325.558 68.5412L323.619 68.6605C323.586 68.4948 323.515 68.3456 323.406 68.2131C323.296 68.0772 323.152 67.9695 322.973 67.8899C322.797 67.8071 322.587 67.7656 322.342 67.7656C322.013 67.7656 321.737 67.8352 321.511 67.9744C321.286 68.1103 321.173 68.2926 321.173 68.5213C321.173 68.7036 321.246 68.8577 321.392 68.9837C321.538 69.1096 321.788 69.2107 322.143 69.2869L323.525 69.5653C324.267 69.7178 324.821 69.9631 325.185 70.3011C325.55 70.6392 325.732 71.0833 325.732 71.6335C325.732 72.134 325.585 72.5732 325.29 72.951C324.998 73.3288 324.597 73.6238 324.087 73.8359C323.58 74.0447 322.995 74.1491 322.332 74.1491C321.321 74.1491 320.515 73.9387 319.915 73.5178C319.319 73.0935 318.969 72.5168 318.866 71.7876L320.95 71.6783C321.013 71.9865 321.165 72.2218 321.407 72.3842C321.649 72.5433 321.959 72.6229 322.337 72.6229C322.708 72.6229 323.006 72.5516 323.232 72.4091C323.46 72.2633 323.576 72.076 323.58 71.8473C323.576 71.6551 323.495 71.4976 323.336 71.375C323.177 71.2491 322.932 71.1529 322.6 71.0866L321.278 70.8232C320.532 70.674 319.977 70.4155 319.612 70.0476C319.251 69.6797 319.07 69.2107 319.07 68.6406C319.07 68.1501 319.203 67.7275 319.468 67.3729C319.737 67.0182 320.113 66.7448 320.597 66.5526C321.084 66.3603 321.654 66.2642 322.307 66.2642C323.271 66.2642 324.03 66.468 324.584 66.8757C325.141 67.2834 325.465 67.8385 325.558 68.5412Z" fill="#486581"/>
<g filter="url(#filter1_d_1232_58254)">
<rect x="110" y="97" width="279" height="31.7454" rx="3.47895" fill="white" shape-rendering="crispEdges"/>
<rect x="110.217" y="97.2174" width="278.565" height="31.3105" rx="3.26152" stroke="#B7D5EB" stroke-width="0.434869" shape-rendering="crispEdges"/>
<path d="M119.486 109.083V108.145H126.031V109.083H123.287V116.873H122.23V109.083H119.486ZM127.424 119.327C127.253 119.327 127.101 119.313 126.968 119.284C126.834 119.259 126.742 119.233 126.691 119.208L126.947 118.321C127.191 118.384 127.407 118.407 127.594 118.39C127.782 118.373 127.948 118.289 128.093 118.138C128.241 117.99 128.376 117.75 128.498 117.418L128.685 116.907L126.265 110.327H127.356L129.163 115.543H129.231L131.038 110.327H132.128L129.35 117.827C129.225 118.165 129.07 118.445 128.886 118.667C128.701 118.891 128.486 119.057 128.242 119.165C128.001 119.273 127.728 119.327 127.424 119.327ZM133.456 119.327V110.327H134.427V111.367H134.547C134.621 111.253 134.723 111.108 134.854 110.932C134.987 110.753 135.177 110.594 135.425 110.455C135.675 110.313 136.013 110.242 136.439 110.242C136.99 110.242 137.476 110.38 137.896 110.655C138.317 110.931 138.645 111.321 138.881 111.827C139.116 112.333 139.234 112.929 139.234 113.617C139.234 114.31 139.116 114.911 138.881 115.419C138.645 115.925 138.318 116.317 137.9 116.596C137.483 116.871 137.001 117.009 136.456 117.009C136.035 117.009 135.699 116.939 135.446 116.8C135.193 116.658 134.998 116.498 134.862 116.319C134.726 116.137 134.621 115.986 134.547 115.867H134.462V119.327H133.456ZM134.444 113.6C134.444 114.094 134.517 114.53 134.662 114.908C134.807 115.283 135.018 115.577 135.297 115.79C135.575 116 135.916 116.106 136.319 116.106C136.74 116.106 137.091 115.995 137.372 115.773C137.656 115.549 137.869 115.248 138.011 114.87C138.156 114.489 138.229 114.066 138.229 113.6C138.229 113.14 138.158 112.725 138.016 112.356C137.876 111.983 137.665 111.689 137.381 111.473C137.099 111.255 136.746 111.145 136.319 111.145C135.91 111.145 135.567 111.249 135.288 111.456C135.01 111.661 134.8 111.948 134.658 112.317C134.516 112.684 134.444 113.111 134.444 113.6ZM143.513 117.009C142.882 117.009 142.338 116.87 141.881 116.591C141.426 116.31 141.075 115.918 140.828 115.415C140.584 114.909 140.462 114.321 140.462 113.651C140.462 112.981 140.584 112.39 140.828 111.878C141.075 111.364 141.419 110.963 141.859 110.677C142.302 110.387 142.819 110.242 143.41 110.242C143.751 110.242 144.088 110.299 144.42 110.412C144.753 110.526 145.055 110.711 145.328 110.966C145.601 111.219 145.818 111.554 145.98 111.972C146.142 112.39 146.223 112.904 146.223 113.515V113.941H141.177V113.071H145.2C145.2 112.702 145.126 112.373 144.979 112.083C144.834 111.793 144.626 111.564 144.356 111.397C144.089 111.229 143.774 111.145 143.41 111.145C143.01 111.145 142.663 111.245 142.371 111.444C142.081 111.64 141.858 111.895 141.702 112.211C141.545 112.526 141.467 112.864 141.467 113.225V113.804C141.467 114.299 141.552 114.718 141.723 115.061C141.896 115.402 142.136 115.662 142.443 115.841C142.75 116.017 143.106 116.106 143.513 116.106C143.777 116.106 144.016 116.069 144.229 115.995C144.444 115.918 144.631 115.804 144.787 115.654C144.943 115.5 145.064 115.31 145.149 115.083L146.121 115.356C146.018 115.685 145.846 115.975 145.605 116.225C145.364 116.472 145.065 116.665 144.71 116.804C144.355 116.941 143.956 117.009 143.513 117.009ZM152.133 112.935V116.873H151.128V110.327H152.099V111.35H152.185C152.338 111.017 152.571 110.75 152.883 110.549C153.196 110.344 153.599 110.242 154.094 110.242C154.537 110.242 154.925 110.333 155.257 110.515C155.589 110.694 155.848 110.966 156.033 111.333C156.217 111.696 156.31 112.157 156.31 112.713V116.873H155.304V112.782C155.304 112.267 155.17 111.867 154.903 111.58C154.636 111.29 154.27 111.145 153.804 111.145C153.483 111.145 153.196 111.215 152.943 111.354C152.693 111.493 152.496 111.696 152.351 111.963C152.206 112.231 152.133 112.554 152.133 112.935ZM160.892 117.009C160.261 117.009 159.717 116.87 159.259 116.591C158.805 116.31 158.454 115.918 158.207 115.415C157.963 114.909 157.84 114.321 157.84 113.651C157.84 112.981 157.963 112.39 158.207 111.878C158.454 111.364 158.798 110.963 159.238 110.677C159.681 110.387 160.198 110.242 160.789 110.242C161.13 110.242 161.467 110.299 161.799 110.412C162.132 110.526 162.434 110.711 162.707 110.966C162.98 111.219 163.197 111.554 163.359 111.972C163.521 112.39 163.602 112.904 163.602 113.515V113.941H158.556V113.071H162.579C162.579 112.702 162.505 112.373 162.357 112.083C162.213 111.793 162.005 111.564 161.735 111.397C161.468 111.229 161.153 111.145 160.789 111.145C160.389 111.145 160.042 111.245 159.75 111.444C159.46 111.64 159.237 111.895 159.08 112.211C158.924 112.526 158.846 112.864 158.846 113.225V113.804C158.846 114.299 158.931 114.718 159.102 115.061C159.275 115.402 159.515 115.662 159.822 115.841C160.129 116.017 160.485 116.106 160.892 116.106C161.156 116.106 161.394 116.069 161.607 115.995C161.823 115.918 162.009 115.804 162.166 115.654C162.322 115.5 162.443 115.31 162.528 115.083L163.5 115.356C163.397 115.685 163.225 115.975 162.984 116.225C162.742 116.472 162.444 116.665 162.089 116.804C161.734 116.941 161.335 117.009 160.892 117.009ZM166.615 116.873L164.62 110.327H165.677L167.092 115.338H167.16L168.558 110.327H169.632L171.012 115.321H171.08L172.495 110.327H173.552L171.558 116.873H170.569L169.137 111.844H169.035L167.603 116.873H166.615ZM180.899 119.463C180.413 119.463 179.995 119.401 179.646 119.276C179.296 119.154 179.005 118.992 178.772 118.79C178.542 118.591 178.359 118.378 178.223 118.151L179.024 117.588C179.115 117.708 179.23 117.844 179.369 117.998C179.508 118.154 179.698 118.289 179.94 118.402C180.184 118.519 180.504 118.577 180.899 118.577C181.427 118.577 181.863 118.449 182.207 118.194C182.551 117.938 182.723 117.537 182.723 116.992V115.662H182.637C182.563 115.782 182.458 115.929 182.322 116.106C182.188 116.279 181.995 116.434 181.742 116.57C181.492 116.704 181.154 116.77 180.728 116.77C180.2 116.77 179.725 116.645 179.305 116.395C178.887 116.145 178.556 115.782 178.312 115.304C178.071 114.827 177.95 114.248 177.95 113.566C177.95 112.895 178.068 112.311 178.304 111.814C178.539 111.314 178.867 110.928 179.288 110.655C179.708 110.38 180.194 110.242 180.745 110.242C181.171 110.242 181.509 110.313 181.759 110.455C182.012 110.594 182.206 110.753 182.339 110.932C182.475 111.108 182.581 111.253 182.654 111.367H182.757V110.327H183.728V117.06C183.728 117.623 183.6 118.08 183.345 118.432C183.092 118.787 182.751 119.047 182.322 119.212C181.896 119.38 181.421 119.463 180.899 119.463ZM180.865 115.867C181.268 115.867 181.609 115.775 181.887 115.59C182.166 115.405 182.377 115.14 182.522 114.793C182.667 114.446 182.74 114.032 182.74 113.549C182.74 113.077 182.669 112.661 182.527 112.3C182.384 111.939 182.174 111.657 181.896 111.452C181.617 111.248 181.274 111.145 180.865 111.145C180.438 111.145 180.083 111.253 179.799 111.469C179.518 111.685 179.306 111.975 179.164 112.338C179.025 112.702 178.955 113.106 178.955 113.549C178.955 114.003 179.027 114.405 179.169 114.755C179.313 115.101 179.527 115.374 179.808 115.573C180.092 115.769 180.444 115.867 180.865 115.867ZM185.569 116.873V110.327H186.541V111.316H186.609C186.728 110.992 186.944 110.729 187.257 110.527C187.569 110.326 187.921 110.225 188.313 110.225C188.387 110.225 188.48 110.226 188.59 110.229C188.701 110.232 188.785 110.236 188.842 110.242V111.265C188.808 111.256 188.73 111.243 188.607 111.226C188.488 111.206 188.362 111.196 188.228 111.196C187.91 111.196 187.626 111.263 187.376 111.397C187.129 111.527 186.933 111.709 186.788 111.942C186.646 112.172 186.575 112.435 186.575 112.731V116.873H185.569ZM192.494 117.009C191.903 117.009 191.384 116.868 190.938 116.587C190.495 116.306 190.149 115.912 189.899 115.407C189.652 114.901 189.528 114.31 189.528 113.634C189.528 112.952 189.652 112.357 189.899 111.848C190.149 111.34 190.495 110.945 190.938 110.664C191.384 110.383 191.903 110.242 192.494 110.242C193.085 110.242 193.602 110.383 194.045 110.664C194.491 110.945 194.838 111.34 195.085 111.848C195.335 112.357 195.46 112.952 195.46 113.634C195.46 114.31 195.335 114.901 195.085 115.407C194.838 115.912 194.491 116.306 194.045 116.587C193.602 116.868 193.085 117.009 192.494 117.009ZM192.494 116.106C192.943 116.106 193.312 115.99 193.602 115.76C193.892 115.53 194.106 115.228 194.245 114.853C194.384 114.478 194.454 114.071 194.454 113.634C194.454 113.196 194.384 112.789 194.245 112.411C194.106 112.033 193.892 111.728 193.602 111.495C193.312 111.262 192.943 111.145 192.494 111.145C192.045 111.145 191.676 111.262 191.386 111.495C191.096 111.728 190.882 112.033 190.742 112.411C190.603 112.789 190.534 113.196 190.534 113.634C190.534 114.071 190.603 114.478 190.742 114.853C190.882 115.228 191.096 115.53 191.386 115.76C191.676 115.99 192.045 116.106 192.494 116.106ZM201.12 114.196V110.327H202.126V116.873H201.12V115.765H201.052C200.898 116.097 200.66 116.38 200.336 116.613C200.012 116.843 199.603 116.958 199.109 116.958C198.699 116.958 198.336 116.868 198.018 116.689C197.699 116.508 197.449 116.235 197.268 115.871C197.086 115.505 196.995 115.043 196.995 114.486V110.327H198.001V114.418C198.001 114.895 198.134 115.276 198.401 115.56C198.671 115.844 199.015 115.986 199.432 115.986C199.682 115.986 199.937 115.922 200.195 115.794C200.457 115.667 200.675 115.471 200.851 115.206C201.03 114.942 201.12 114.606 201.12 114.196ZM203.968 119.327V110.327H204.939V111.367H205.058C205.132 111.253 205.235 111.108 205.365 110.932C205.499 110.753 205.689 110.594 205.936 110.455C206.186 110.313 206.524 110.242 206.951 110.242C207.502 110.242 207.987 110.38 208.408 110.655C208.828 110.931 209.156 111.321 209.392 111.827C209.628 112.333 209.746 112.929 209.746 113.617C209.746 114.31 209.628 114.911 209.392 115.419C209.156 115.925 208.83 116.317 208.412 116.596C207.995 116.871 207.513 117.009 206.968 117.009C206.547 117.009 206.21 116.939 205.958 116.8C205.705 116.658 205.51 116.498 205.374 116.319C205.237 116.137 205.132 115.986 205.058 115.867H204.973V119.327H203.968ZM204.956 113.6C204.956 114.094 205.029 114.53 205.174 114.908C205.318 115.283 205.53 115.577 205.808 115.79C206.087 116 206.428 116.106 206.831 116.106C207.252 116.106 207.603 115.995 207.884 115.773C208.168 115.549 208.381 115.248 208.523 114.87C208.668 114.489 208.74 114.066 208.74 113.6C208.74 113.14 208.669 112.725 208.527 112.356C208.388 111.983 208.176 111.689 207.892 111.473C207.611 111.255 207.257 111.145 206.831 111.145C206.422 111.145 206.078 111.249 205.8 111.456C205.522 111.661 205.311 111.948 205.169 112.317C205.027 112.684 204.956 113.111 204.956 113.6ZM215.661 112.935V116.873H214.655V110.327H215.627V111.35H215.712C215.865 111.017 216.098 110.75 216.411 110.549C216.723 110.344 217.127 110.242 217.621 110.242C218.064 110.242 218.452 110.333 218.784 110.515C219.117 110.694 219.375 110.966 219.56 111.333C219.745 111.696 219.837 112.157 219.837 112.713V116.873H218.831V112.782C218.831 112.267 218.698 111.867 218.431 111.58C218.164 111.29 217.797 111.145 217.331 111.145C217.01 111.145 216.723 111.215 216.47 111.354C216.22 111.493 216.023 111.696 215.878 111.963C215.733 112.231 215.661 112.554 215.661 112.935ZM223.601 117.026C223.186 117.026 222.81 116.948 222.471 116.792C222.133 116.633 221.865 116.404 221.666 116.106C221.467 115.804 221.368 115.441 221.368 115.015C221.368 114.64 221.442 114.336 221.589 114.103C221.737 113.867 221.935 113.682 222.182 113.549C222.429 113.415 222.702 113.316 223 113.25C223.301 113.182 223.604 113.128 223.908 113.088C224.305 113.037 224.628 112.999 224.875 112.973C225.125 112.945 225.307 112.898 225.42 112.833C225.537 112.767 225.595 112.654 225.595 112.492V112.458C225.595 112.037 225.48 111.711 225.25 111.478C225.023 111.245 224.677 111.128 224.214 111.128C223.734 111.128 223.358 111.233 223.085 111.444C222.812 111.654 222.621 111.878 222.51 112.117L221.555 111.776C221.726 111.378 221.953 111.069 222.237 110.847C222.524 110.623 222.837 110.466 223.175 110.378C223.516 110.287 223.851 110.242 224.18 110.242C224.391 110.242 224.632 110.267 224.905 110.319C225.18 110.367 225.446 110.468 225.702 110.621C225.96 110.775 226.175 111.006 226.345 111.316C226.516 111.625 226.601 112.04 226.601 112.56V116.873H225.595V115.986H225.544C225.476 116.128 225.362 116.28 225.203 116.442C225.044 116.604 224.832 116.742 224.568 116.856C224.304 116.969 223.981 117.026 223.601 117.026ZM223.754 116.123C224.152 116.123 224.487 116.044 224.76 115.888C225.035 115.732 225.243 115.53 225.382 115.283C225.524 115.036 225.595 114.776 225.595 114.503V113.583C225.552 113.634 225.459 113.681 225.314 113.723C225.172 113.763 225.007 113.799 224.819 113.83C224.635 113.858 224.454 113.884 224.278 113.907C224.105 113.927 223.964 113.944 223.856 113.958C223.595 113.992 223.351 114.047 223.123 114.124C222.899 114.198 222.717 114.31 222.578 114.461C222.442 114.608 222.373 114.81 222.373 115.066C222.373 115.415 222.503 115.679 222.761 115.858C223.023 116.034 223.354 116.123 223.754 116.123ZM228.436 116.873V110.327H229.408V111.35H229.493C229.63 111 229.85 110.729 230.154 110.536C230.458 110.34 230.823 110.242 231.249 110.242C231.681 110.242 232.04 110.34 232.327 110.536C232.617 110.729 232.843 111 233.005 111.35H233.073C233.24 111.012 233.492 110.743 233.827 110.544C234.162 110.343 234.564 110.242 235.033 110.242C235.618 110.242 236.097 110.425 236.469 110.792C236.841 111.155 237.027 111.722 237.027 112.492V116.873H236.022V112.492C236.022 112.009 235.889 111.664 235.625 111.456C235.361 111.249 235.05 111.145 234.692 111.145C234.232 111.145 233.875 111.284 233.622 111.563C233.37 111.838 233.243 112.188 233.243 112.611V116.873H232.22V112.39C232.22 112.017 232.1 111.718 231.858 111.49C231.617 111.26 231.306 111.145 230.925 111.145C230.664 111.145 230.419 111.215 230.192 111.354C229.968 111.493 229.786 111.686 229.647 111.934C229.51 112.178 229.442 112.461 229.442 112.782V116.873H228.436ZM241.61 117.009C240.98 117.009 240.436 116.87 239.978 116.591C239.524 116.31 239.173 115.918 238.926 115.415C238.681 114.909 238.559 114.321 238.559 113.651C238.559 112.981 238.681 112.39 238.926 111.878C239.173 111.364 239.517 110.963 239.957 110.677C240.4 110.387 240.917 110.242 241.508 110.242C241.849 110.242 242.186 110.299 242.518 110.412C242.85 110.526 243.153 110.711 243.426 110.966C243.698 111.219 243.916 111.554 244.078 111.972C244.24 112.39 244.321 112.904 244.321 113.515V113.941H239.275V113.071H243.298C243.298 112.702 243.224 112.373 243.076 112.083C242.931 111.793 242.724 111.564 242.454 111.397C242.187 111.229 241.872 111.145 241.508 111.145C241.107 111.145 240.761 111.245 240.468 111.444C240.179 111.64 239.955 111.895 239.799 112.211C239.643 112.526 239.565 112.864 239.565 113.225V113.804C239.565 114.299 239.65 114.718 239.821 115.061C239.994 115.402 240.234 115.662 240.541 115.841C240.848 116.017 241.204 116.106 241.61 116.106C241.875 116.106 242.113 116.069 242.326 115.995C242.542 115.918 242.728 115.804 242.884 115.654C243.041 115.5 243.161 115.31 243.247 115.083L244.218 115.356C244.116 115.685 243.944 115.975 243.703 116.225C243.461 116.472 243.163 116.665 242.808 116.804C242.453 116.941 242.054 117.009 241.61 117.009Z" fill="#AAAAAA"/>
</g>
<g filter="url(#filter2_d_1232_58254)">
<rect x="110" y="146.745" width="130.5" height="31.7454" rx="3.47895" fill="#FAFCFE" shape-rendering="crispEdges"/>
<rect x="110.217" y="146.963" width="130.065" height="31.3105" rx="3.26152" stroke="#C9D4DE" stroke-width="0.434869" shape-rendering="crispEdges"/>
<rect x="118.906" y="154.643" width="15.9492" height="15.9492" rx="7.97461" fill="#B6E0FE"/>
<path d="M126.88 162.219C127.834 162.219 128.608 161.446 128.608 160.492C128.608 159.537 127.834 158.764 126.88 158.764C125.926 158.764 125.152 159.537 125.152 160.492C125.152 161.446 125.926 162.219 126.88 162.219Z" stroke="#2680C2" stroke-width="0.629301" stroke-linecap="round" stroke-linejoin="round"/>
<path d="M124.141 166.472H129.619C130.226 166.472 130.694 165.95 130.41 165.413C129.993 164.624 129.043 163.681 126.88 163.681C124.717 163.681 123.766 164.624 123.349 165.413C123.066 165.95 123.534 166.472 124.141 166.472Z" stroke="#2680C2" stroke-width="0.629301" stroke-linecap="round" stroke-linejoin="round"/>
<rect x="143.762" y="155.945" width="87.8313" height="4.67242" rx="2.33621" fill="#D9E2EC"/>
<rect x="143.762" y="164.618" width="66.582" height="4.67242" rx="2.33621" fill="#D9E2EC"/>
</g>
<g filter="url(#filter3_d_1232_58254)">
<rect x="110" y="184.491" width="130.5" height="31.7454" rx="3.47895" fill="#FAFCFE" shape-rendering="crispEdges"/>
<rect x="110.217" y="184.708" width="130.065" height="31.3105" rx="3.26152" stroke="#C9D4DE" stroke-width="0.434869" shape-rendering="crispEdges"/>
<rect x="118.906" y="192.389" width="15.9492" height="15.9492" rx="7.97461" fill="#FBF1DB"/>
<path d="M124.622 204.218H129.141C129.728 204.218 130.204 203.742 130.204 203.154V198.768L127.944 196.509H124.622C124.034 196.509 123.558 196.985 123.558 197.572V203.154C123.558 203.742 124.034 204.218 124.622 204.218Z" stroke="#E9B949" stroke-width="0.629301" stroke-linecap="round" stroke-linejoin="round"/>
<path d="M130.071 198.901H127.811V196.642" stroke="#E9B949" stroke-width="0.629301" stroke-linecap="round" stroke-linejoin="round"/>
<path d="M125.685 202.091H128.077" stroke="#E9B949" stroke-width="0.629301" stroke-linecap="round" stroke-linejoin="round"/>
<path d="M125.685 200.496H128.077" stroke="#E9B949" stroke-width="0.629301" stroke-linecap="round" stroke-linejoin="round"/>
<rect x="143.762" y="193.691" width="87.8313" height="4.67242" rx="2.33621" fill="#D9E2EC"/>
<rect x="143.762" y="202.363" width="66.582" height="4.67242" rx="2.33621" fill="#D9E2EC"/>
</g>
<g filter="url(#filter4_d_1232_58254)">
<rect x="110" y="222.236" width="130.5" height="31.7454" rx="3.47895" fill="#FAFCFE" shape-rendering="crispEdges"/>
<rect x="110.217" y="222.453" width="130.065" height="31.3105" rx="3.26152" stroke="#C9D4DE" stroke-width="0.434869" shape-rendering="crispEdges"/>
<g filter="url(#filter5_i_1232_58254)">
<rect x="118.906" y="230.134" width="15.9492" height="15.9492" rx="7.97461" fill="#FFD3BA"/>
</g>
<path d="M123.558 235.317C123.558 234.73 124.034 234.254 124.621 234.254H129.14C129.728 234.254 130.204 234.73 130.204 235.317V241.963H123.558V235.317Z" stroke="#B3541E" stroke-width="0.629301" stroke-linecap="round" stroke-linejoin="round"/>
<path d="M130.735 241.963H123.027" stroke="#B3541E" stroke-width="0.629301" stroke-linecap="round" stroke-linejoin="round"/>
<path d="M127.678 240.477C127.678 240.05 127.784 239.704 127.915 239.704H127.974C128.104 239.704 128.21 240.05 128.21 240.477V241.83H127.678V240.477Z" stroke="#B3541E" stroke-width="0.629301" stroke-linecap="round" stroke-linejoin="round"/>
<path d="M125.818 236.49C126.111 236.49 126.349 236.252 126.349 235.958C126.349 235.664 126.111 235.426 125.818 235.426C125.524 235.426 125.286 235.664 125.286 235.958C125.286 236.252 125.524 236.49 125.818 236.49Z" fill="#B3541E"/>
<path d="M127.944 236.49C128.238 236.49 128.476 236.252 128.476 235.958C128.476 235.664 128.238 235.426 127.944 235.426C127.651 235.426 127.413 235.664 127.413 235.958C127.413 236.252 127.651 236.49 127.944 236.49Z" fill="#B3541E"/>
<path d="M125.818 238.302C126.111 238.302 126.349 238.064 126.349 237.77C126.349 237.476 126.111 237.238 125.818 237.238C125.524 237.238 125.286 237.476 125.286 237.77C125.286 238.064 125.524 238.302 125.818 238.302Z" fill="#B3541E"/>
<path d="M127.944 238.302C128.238 238.302 128.476 238.064 128.476 237.77C128.476 237.476 128.238 237.238 127.944 237.238C127.651 237.238 127.413 237.476 127.413 237.77C127.413 238.064 127.651 238.302 127.944 238.302Z" fill="#B3541E"/>
<path d="M125.818 240.114C126.111 240.114 126.349 239.876 126.349 239.582C126.349 239.289 126.111 239.051 125.818 239.051C125.524 239.051 125.286 239.289 125.286 239.582C125.286 239.876 125.524 240.114 125.818 240.114Z" fill="#B3541E"/>
<rect x="143.762" y="231.436" width="87.8313" height="4.67242" rx="2.33621" fill="#D9E2EC"/>
<rect x="143.762" y="240.108" width="66.582" height="4.67242" rx="2.33621" fill="#D9E2EC"/>
</g>
<g filter="url(#filter6_d_1232_58254)">
<rect x="110" y="259.981" width="130.5" height="31.7454" rx="3.47895" fill="#FAFCFE" shape-rendering="crispEdges"/>
<rect x="110.217" y="260.199" width="130.065" height="31.3105" rx="3.26152" stroke="#C9D4DE" stroke-width="0.434869" shape-rendering="crispEdges"/>
<rect x="118.906" y="267.879" width="15.9492" height="15.9492" rx="7.97461" fill="#E5EFD4"/>
<path d="M128.077 275.854C128.077 276.515 127.542 277.05 126.881 277.05C126.22 277.05 125.685 276.515 125.685 275.854C125.685 275.193 126.22 274.658 126.881 274.658C127.542 274.658 128.077 275.193 128.077 275.854Z" stroke="#7BB026" stroke-width="0.629301" stroke-linecap="round" stroke-linejoin="round"/>
<mask id="path-40-inside-1_1232_58254" fill="white">
<path d="M123.027 273.609L123.209 273.254C123.085 273.191 122.937 273.196 122.819 273.269C122.7 273.341 122.628 273.47 122.628 273.609H123.027ZM130.735 273.609H131.134C131.134 273.475 131.067 273.35 130.955 273.276L130.735 273.609ZM123.027 278.113H122.628C122.628 278.255 122.703 278.387 122.826 278.458L123.027 278.113ZM130.735 278.113L130.597 278.487C130.719 278.533 130.856 278.515 130.963 278.441C131.07 278.366 131.134 278.244 131.134 278.113H130.735ZM123.027 273.609C122.845 273.964 122.845 273.964 122.845 273.964C122.845 273.964 122.845 273.964 122.845 273.964C122.846 273.964 122.846 273.965 122.846 273.965C122.847 273.965 122.848 273.965 122.849 273.966C122.85 273.967 122.853 273.968 122.855 273.969C122.86 273.972 122.867 273.975 122.876 273.979C122.893 273.987 122.917 273.998 122.947 274.011C123.007 274.037 123.092 274.072 123.2 274.109C123.416 274.183 123.724 274.269 124.103 274.321C124.862 274.424 125.906 274.388 127.053 273.842L126.71 273.122C125.729 273.59 124.846 273.617 124.21 273.531C123.891 273.487 123.634 273.415 123.46 273.355C123.373 273.325 123.306 273.298 123.264 273.279C123.242 273.27 123.227 273.263 123.217 273.259C123.213 273.256 123.21 273.255 123.208 273.254C123.207 273.254 123.207 273.254 123.207 273.254C123.207 273.254 123.207 273.254 123.208 273.254C123.208 273.254 123.208 273.254 123.208 273.254C123.208 273.254 123.208 273.254 123.208 273.254C123.209 273.254 123.209 273.254 123.027 273.609ZM127.053 273.842C128.019 273.382 128.888 273.412 129.517 273.555C129.834 273.626 130.089 273.727 130.264 273.808C130.351 273.849 130.417 273.884 130.46 273.909C130.482 273.921 130.497 273.93 130.507 273.936C130.511 273.939 130.514 273.941 130.516 273.942C130.517 273.943 130.517 273.943 130.517 273.943C130.517 273.943 130.517 273.943 130.517 273.943C130.517 273.943 130.517 273.942 130.516 273.942C130.516 273.942 130.516 273.942 130.516 273.942C130.516 273.942 130.516 273.942 130.735 273.609C130.955 273.276 130.955 273.276 130.955 273.276C130.955 273.276 130.954 273.276 130.954 273.276C130.954 273.276 130.954 273.275 130.953 273.275C130.953 273.275 130.952 273.274 130.951 273.274C130.949 273.273 130.947 273.271 130.945 273.27C130.94 273.266 130.933 273.262 130.924 273.257C130.907 273.247 130.884 273.232 130.854 273.215C130.794 273.181 130.709 273.136 130.601 273.085C130.385 272.985 130.075 272.864 129.694 272.777C128.928 272.603 127.87 272.57 126.71 273.122L127.053 273.842ZM123.027 278.113C122.826 278.458 122.826 278.458 122.827 278.458C122.827 278.458 122.827 278.458 122.827 278.458C122.827 278.459 122.827 278.459 122.828 278.459C122.828 278.459 122.829 278.46 122.83 278.46C122.832 278.461 122.834 278.462 122.836 278.464C122.841 278.467 122.848 278.47 122.856 278.475C122.873 278.484 122.896 278.496 122.926 278.511C122.985 278.541 123.069 278.581 123.177 278.626C123.39 278.715 123.697 278.823 124.074 278.903C124.828 279.063 125.873 279.113 127.025 278.667L126.737 277.923C125.762 278.3 124.88 278.259 124.239 278.123C123.918 278.055 123.66 277.963 123.483 277.889C123.395 277.853 123.328 277.821 123.284 277.799C123.262 277.788 123.247 277.779 123.237 277.774C123.232 277.771 123.229 277.77 123.227 277.769C123.226 277.768 123.226 277.768 123.226 277.768C123.226 277.768 123.226 277.768 123.226 277.768C123.226 277.768 123.226 277.768 123.227 277.768C123.227 277.768 123.227 277.768 123.227 277.768C123.227 277.769 123.227 277.769 123.027 278.113ZM127.025 278.667C128.021 278.281 128.922 278.239 129.573 278.293C129.898 278.32 130.16 278.37 130.338 278.413C130.427 278.435 130.495 278.455 130.539 278.468C130.561 278.475 130.577 278.48 130.587 278.484C130.592 278.485 130.595 278.487 130.596 278.487C130.597 278.487 130.598 278.488 130.598 278.488C130.598 278.488 130.598 278.488 130.598 278.487C130.597 278.487 130.597 278.487 130.597 278.487C130.597 278.487 130.597 278.487 130.597 278.487C130.597 278.487 130.597 278.487 130.735 278.113C130.874 277.74 130.874 277.739 130.874 277.739C130.874 277.739 130.874 277.739 130.874 277.739C130.873 277.739 130.873 277.739 130.873 277.739C130.872 277.739 130.871 277.738 130.871 277.738C130.869 277.738 130.867 277.737 130.864 277.736C130.859 277.734 130.853 277.732 130.844 277.729C130.828 277.723 130.805 277.716 130.775 277.707C130.716 277.688 130.632 277.664 130.526 277.638C130.314 277.587 130.011 277.529 129.638 277.498C128.894 277.437 127.868 277.485 126.737 277.923L127.025 278.667ZM123.425 278.113V273.609H122.628V278.113H123.425ZM130.337 273.609V278.113H131.134V273.609H130.337Z"/>
</mask>
<path d="M123.027 273.609L123.209 273.254C123.085 273.191 122.937 273.196 122.819 273.269C122.7 273.341 122.628 273.47 122.628 273.609H123.027ZM130.735 273.609H131.134C131.134 273.475 131.067 273.35 130.955 273.276L130.735 273.609ZM123.027 278.113H122.628C122.628 278.255 122.703 278.387 122.826 278.458L123.027 278.113ZM130.735 278.113L130.597 278.487C130.719 278.533 130.856 278.515 130.963 278.441C131.07 278.366 131.134 278.244 131.134 278.113H130.735ZM123.027 273.609C122.845 273.964 122.845 273.964 122.845 273.964C122.845 273.964 122.845 273.964 122.845 273.964C122.846 273.964 122.846 273.965 122.846 273.965C122.847 273.965 122.848 273.965 122.849 273.966C122.85 273.967 122.853 273.968 122.855 273.969C122.86 273.972 122.867 273.975 122.876 273.979C122.893 273.987 122.917 273.998 122.947 274.011C123.007 274.037 123.092 274.072 123.2 274.109C123.416 274.183 123.724 274.269 124.103 274.321C124.862 274.424 125.906 274.388 127.053 273.842L126.71 273.122C125.729 273.59 124.846 273.617 124.21 273.531C123.891 273.487 123.634 273.415 123.46 273.355C123.373 273.325 123.306 273.298 123.264 273.279C123.242 273.27 123.227 273.263 123.217 273.259C123.213 273.256 123.21 273.255 123.208 273.254C123.207 273.254 123.207 273.254 123.207 273.254C123.207 273.254 123.207 273.254 123.208 273.254C123.208 273.254 123.208 273.254 123.208 273.254C123.208 273.254 123.208 273.254 123.208 273.254C123.209 273.254 123.209 273.254 123.027 273.609ZM127.053 273.842C128.019 273.382 128.888 273.412 129.517 273.555C129.834 273.626 130.089 273.727 130.264 273.808C130.351 273.849 130.417 273.884 130.46 273.909C130.482 273.921 130.497 273.93 130.507 273.936C130.511 273.939 130.514 273.941 130.516 273.942C130.517 273.943 130.517 273.943 130.517 273.943C130.517 273.943 130.517 273.943 130.517 273.943C130.517 273.943 130.517 273.942 130.516 273.942C130.516 273.942 130.516 273.942 130.516 273.942C130.516 273.942 130.516 273.942 130.735 273.609C130.955 273.276 130.955 273.276 130.955 273.276C130.955 273.276 130.954 273.276 130.954 273.276C130.954 273.276 130.954 273.275 130.953 273.275C130.953 273.275 130.952 273.274 130.951 273.274C130.949 273.273 130.947 273.271 130.945 273.27C130.94 273.266 130.933 273.262 130.924 273.257C130.907 273.247 130.884 273.232 130.854 273.215C130.794 273.181 130.709 273.136 130.601 273.085C130.385 272.985 130.075 272.864 129.694 272.777C128.928 272.603 127.87 272.57 126.71 273.122L127.053 273.842ZM123.027 278.113C122.826 278.458 122.826 278.458 122.827 278.458C122.827 278.458 122.827 278.458 122.827 278.458C122.827 278.459 122.827 278.459 122.828 278.459C122.828 278.459 122.829 278.46 122.83 278.46C122.832 278.461 122.834 278.462 122.836 278.464C122.841 278.467 122.848 278.47 122.856 278.475C122.873 278.484 122.896 278.496 122.926 278.511C122.985 278.541 123.069 278.581 123.177 278.626C123.39 278.715 123.697 278.823 124.074 278.903C124.828 279.063 125.873 279.113 127.025 278.667L126.737 277.923C125.762 278.3 124.88 278.259 124.239 278.123C123.918 278.055 123.66 277.963 123.483 277.889C123.395 277.853 123.328 277.821 123.284 277.799C123.262 277.788 123.247 277.779 123.237 277.774C123.232 277.771 123.229 277.77 123.227 277.769C123.226 277.768 123.226 277.768 123.226 277.768C123.226 277.768 123.226 277.768 123.226 277.768C123.226 277.768 123.226 277.768 123.227 277.768C123.227 277.768 123.227 277.768 123.227 277.768C123.227 277.769 123.227 277.769 123.027 278.113ZM127.025 278.667C128.021 278.281 128.922 278.239 129.573 278.293C129.898 278.32 130.16 278.37 130.338 278.413C130.427 278.435 130.495 278.455 130.539 278.468C130.561 278.475 130.577 278.48 130.587 278.484C130.592 278.485 130.595 278.487 130.596 278.487C130.597 278.487 130.598 278.488 130.598 278.488C130.598 278.488 130.598 278.488 130.598 278.487C130.597 278.487 130.597 278.487 130.597 278.487C130.597 278.487 130.597 278.487 130.597 278.487C130.597 278.487 130.597 278.487 130.735 278.113C130.874 277.74 130.874 277.739 130.874 277.739C130.874 277.739 130.874 277.739 130.874 277.739C130.873 277.739 130.873 277.739 130.873 277.739C130.872 277.739 130.871 277.738 130.871 277.738C130.869 277.738 130.867 277.737 130.864 277.736C130.859 277.734 130.853 277.732 130.844 277.729C130.828 277.723 130.805 277.716 130.775 277.707C130.716 277.688 130.632 277.664 130.526 277.638C130.314 277.587 130.011 277.529 129.638 277.498C128.894 277.437 127.868 277.485 126.737 277.923L127.025 278.667ZM123.425 278.113V273.609H122.628V278.113H123.425ZM130.337 273.609V278.113H131.134V273.609H130.337Z" fill="#7BB026" stroke="#7BB026" stroke-width="0.839068" mask="url(#path-40-inside-1_1232_58254)"/>
<rect x="143.762" y="269.182" width="87.8313" height="4.67242" rx="2.33621" fill="#D9E2EC"/>
<rect x="143.762" y="277.854" width="66.582" height="4.67242" rx="2.33621" fill="#D9E2EC"/>
</g>
<g filter="url(#filter7_d_1232_58254)">
<rect x="258.5" y="146.745" width="130.5" height="31.7454" rx="3.47895" fill="#FAFCFE" shape-rendering="crispEdges"/>
<rect x="258.717" y="146.963" width="130.065" height="31.3105" rx="3.26152" stroke="#C9D4DE" stroke-width="0.434869" shape-rendering="crispEdges"/>
<rect x="267.406" y="154.643" width="15.9492" height="15.9492" rx="7.97461" fill="#B6E0FE"/>
<path d="M275.38 162.219C276.334 162.219 277.108 161.446 277.108 160.492C277.108 159.537 276.334 158.764 275.38 158.764C274.426 158.764 273.652 159.537 273.652 160.492C273.652 161.446 274.426 162.219 275.38 162.219Z" stroke="#2680C2" stroke-width="0.629301" stroke-linecap="round" stroke-linejoin="round"/>
<path d="M272.641 166.472H278.119C278.726 166.472 279.194 165.95 278.91 165.413C278.493 164.624 277.543 163.681 275.38 163.681C273.217 163.681 272.266 164.624 271.849 165.413C271.566 165.95 272.034 166.472 272.641 166.472Z" stroke="#2680C2" stroke-width="0.629301" stroke-linecap="round" stroke-linejoin="round"/>
<rect x="292.262" y="155.945" width="87.8313" height="4.67242" rx="2.33621" fill="#D9E2EC"/>
<rect x="292.262" y="164.618" width="66.582" height="4.67242" rx="2.33621" fill="#D9E2EC"/>
</g>
<g filter="url(#filter8_d_1232_58254)">
<rect x="258.5" y="184.491" width="130.5" height="31.7454" rx="3.47895" fill="#FAFCFE" shape-rendering="crispEdges"/>
<rect x="258.717" y="184.708" width="130.065" height="31.3105" rx="3.26152" stroke="#C9D4DE" stroke-width="0.434869" shape-rendering="crispEdges"/>
<rect x="267.406" y="192.389" width="15.9492" height="15.9492" rx="7.97461" fill="#FBF1DB"/>
<path d="M273.122 204.218H277.641C278.228 204.218 278.704 203.742 278.704 203.154V198.768L276.444 196.509H273.122C272.534 196.509 272.058 196.985 272.058 197.572V203.154C272.058 203.742 272.534 204.218 273.122 204.218Z" stroke="#E9B949" stroke-width="0.629301" stroke-linecap="round" stroke-linejoin="round"/>
<path d="M278.571 198.901H276.311V196.642" stroke="#E9B949" stroke-width="0.629301" stroke-linecap="round" stroke-linejoin="round"/>
<path d="M274.185 202.091H276.577" stroke="#E9B949" stroke-width="0.629301" stroke-linecap="round" stroke-linejoin="round"/>
<path d="M274.185 200.496H276.577" stroke="#E9B949" stroke-width="0.629301" stroke-linecap="round" stroke-linejoin="round"/>
<rect x="292.262" y="193.691" width="87.8313" height="4.67242" rx="2.33621" fill="#D9E2EC"/>
<rect x="292.262" y="202.363" width="66.582" height="4.67242" rx="2.33621" fill="#D9E2EC"/>
</g>
<g filter="url(#filter9_dd_1232_58254)">
<rect x="258.5" y="222.236" width="130.5" height="31.7454" rx="3.47895" fill="#FAFCFE" shape-rendering="crispEdges"/>
<rect x="258.717" y="222.453" width="130.065" height="31.3105" rx="3.26152" stroke="#5AA6CB" stroke-width="0.434869" shape-rendering="crispEdges"/>
<g filter="url(#filter10_i_1232_58254)">
<rect x="267.406" y="230.134" width="15.9492" height="15.9492" rx="7.97461" fill="#FFD3BA"/>
</g>
<path d="M272.058 235.317C272.058 234.73 272.534 234.254 273.122 234.254H277.64C278.228 234.254 278.704 234.73 278.704 235.317V241.963H272.058V235.317Z" stroke="#B3541E" stroke-width="0.629301" stroke-linecap="round" stroke-linejoin="round"/>
<path d="M279.236 241.963H271.527" stroke="#B3541E" stroke-width="0.629301" stroke-linecap="round" stroke-linejoin="round"/>
<path d="M276.179 240.477C276.179 240.05 276.284 239.704 276.415 239.704H276.474C276.604 239.704 276.71 240.05 276.71 240.477V241.83H276.179V240.477Z" stroke="#B3541E" stroke-width="0.629301" stroke-linecap="round" stroke-linejoin="round"/>
<path d="M274.318 236.49C274.612 236.49 274.85 236.252 274.85 235.958C274.85 235.664 274.612 235.426 274.318 235.426C274.024 235.426 273.786 235.664 273.786 235.958C273.786 236.252 274.024 236.49 274.318 236.49Z" fill="#B3541E"/>
<path d="M276.444 236.49C276.738 236.49 276.976 236.252 276.976 235.958C276.976 235.664 276.738 235.426 276.444 235.426C276.151 235.426 275.913 235.664 275.913 235.958C275.913 236.252 276.151 236.49 276.444 236.49Z" fill="#B3541E"/>
<path d="M274.318 238.302C274.612 238.302 274.85 238.064 274.85 237.77C274.85 237.476 274.612 237.238 274.318 237.238C274.024 237.238 273.786 237.476 273.786 237.77C273.786 238.064 274.024 238.302 274.318 238.302Z" fill="#B3541E"/>
<path d="M276.444 238.302C276.738 238.302 276.976 238.064 276.976 237.77C276.976 237.476 276.738 237.238 276.444 237.238C276.151 237.238 275.913 237.476 275.913 237.77C275.913 238.064 276.151 238.302 276.444 238.302Z" fill="#B3541E"/>
<path d="M274.318 240.114C274.612 240.114 274.85 239.876 274.85 239.582C274.85 239.289 274.612 239.051 274.318 239.051C274.024 239.051 273.786 239.289 273.786 239.582C273.786 239.876 274.024 240.114 274.318 240.114Z" fill="#B3541E"/>
<path d="M292.922 240.608V235.162H294.762C295.187 235.162 295.537 235.235 295.81 235.38C296.083 235.524 296.285 235.722 296.416 235.973C296.547 236.225 296.613 236.511 296.613 236.832C296.613 237.153 296.547 237.438 296.416 237.686C296.285 237.934 296.083 238.129 295.812 238.271C295.541 238.411 295.194 238.481 294.772 238.481H293.283V237.885H294.751C295.042 237.885 295.276 237.843 295.453 237.758C295.632 237.673 295.762 237.552 295.841 237.396C295.923 237.238 295.964 237.05 295.964 236.832C295.964 236.614 295.923 236.424 295.841 236.261C295.76 236.098 295.63 235.972 295.451 235.883C295.272 235.793 295.035 235.747 294.741 235.747H293.581V240.608H292.922ZM295.485 238.162L296.825 240.608H296.06L294.741 238.162H295.485ZM299.295 240.693C298.902 240.693 298.562 240.607 298.277 240.433C297.993 240.257 297.774 240.013 297.62 239.699C297.467 239.383 297.391 239.016 297.391 238.598C297.391 238.18 297.467 237.811 297.62 237.492C297.774 237.171 297.989 236.921 298.263 236.742C298.54 236.561 298.863 236.471 299.231 236.471C299.444 236.471 299.654 236.506 299.862 236.577C300.069 236.648 300.258 236.763 300.428 236.923C300.598 237.081 300.734 237.29 300.835 237.55C300.936 237.811 300.986 238.132 300.986 238.513V238.779H297.838V238.236H300.348C300.348 238.006 300.302 237.8 300.21 237.619C300.119 237.439 299.99 237.296 299.822 237.191C299.655 237.087 299.458 237.034 299.231 237.034C298.981 237.034 298.765 237.096 298.582 237.221C298.402 237.343 298.262 237.502 298.165 237.699C298.067 237.896 298.019 238.107 298.019 238.332V238.694C298.019 239.002 298.072 239.264 298.178 239.478C298.286 239.691 298.436 239.853 298.628 239.965C298.819 240.075 299.042 240.13 299.295 240.13C299.46 240.13 299.609 240.107 299.742 240.061C299.877 240.013 299.993 239.942 300.09 239.848C300.188 239.752 300.263 239.633 300.316 239.492L300.923 239.662C300.859 239.867 300.751 240.048 300.601 240.204C300.45 240.358 300.264 240.479 300.042 240.566C299.821 240.651 299.572 240.693 299.295 240.693ZM301.941 240.608V236.524H302.547V237.162H302.6C302.686 236.944 302.823 236.775 303.013 236.654C303.202 236.532 303.43 236.471 303.696 236.471C303.966 236.471 304.19 236.532 304.369 236.654C304.55 236.775 304.691 236.944 304.792 237.162H304.834C304.939 236.951 305.096 236.784 305.305 236.66C305.514 236.534 305.765 236.471 306.057 236.471C306.423 236.471 306.721 236.585 306.954 236.814C307.186 237.041 307.302 237.394 307.302 237.875V240.608H306.674V237.875C306.674 237.573 306.592 237.358 306.427 237.229C306.262 237.099 306.068 237.034 305.845 237.034C305.557 237.034 305.335 237.121 305.177 237.295C305.019 237.467 304.941 237.685 304.941 237.949V240.608H304.302V237.811C304.302 237.579 304.227 237.392 304.076 237.25C303.926 237.106 303.732 237.034 303.494 237.034C303.331 237.034 303.178 237.078 303.037 237.165C302.897 237.252 302.783 237.372 302.696 237.526C302.611 237.679 302.569 237.855 302.569 238.056V240.608H301.941ZM310.109 240.693C309.74 240.693 309.416 240.606 309.138 240.43C308.862 240.255 308.645 240.009 308.489 239.694C308.335 239.378 308.258 239.009 308.258 238.587C308.258 238.162 308.335 237.791 308.489 237.473C308.645 237.156 308.862 236.909 309.138 236.734C309.416 236.558 309.74 236.471 310.109 236.471C310.477 236.471 310.8 236.558 311.077 236.734C311.355 236.909 311.571 237.156 311.725 237.473C311.881 237.791 311.959 238.162 311.959 238.587C311.959 239.009 311.881 239.378 311.725 239.694C311.571 240.009 311.355 240.255 311.077 240.43C310.8 240.606 310.477 240.693 310.109 240.693ZM310.109 240.13C310.389 240.13 310.619 240.058 310.8 239.914C310.981 239.771 311.115 239.582 311.202 239.348C311.288 239.114 311.332 238.86 311.332 238.587C311.332 238.314 311.288 238.06 311.202 237.824C311.115 237.588 310.981 237.398 310.8 237.252C310.619 237.107 310.389 237.034 310.109 237.034C309.829 237.034 309.598 237.107 309.417 237.252C309.236 237.398 309.103 237.588 309.016 237.824C308.929 238.06 308.885 238.314 308.885 238.587C308.885 238.86 308.929 239.114 309.016 239.348C309.103 239.582 309.236 239.771 309.417 239.914C309.598 240.058 309.829 240.13 310.109 240.13ZM316.111 236.524L314.601 240.608H313.963L312.452 236.524H313.133L314.26 239.779H314.303L315.43 236.524H316.111ZM318.506 240.693C318.112 240.693 317.773 240.607 317.487 240.433C317.204 240.257 316.985 240.013 316.83 239.699C316.678 239.383 316.602 239.016 316.602 238.598C316.602 238.18 316.678 237.811 316.83 237.492C316.985 237.171 317.199 236.921 317.474 236.742C317.751 236.561 318.073 236.471 318.442 236.471C318.655 236.471 318.865 236.506 319.072 236.577C319.28 236.648 319.468 236.763 319.639 236.923C319.809 237.081 319.944 237.29 320.045 237.55C320.146 237.811 320.197 238.132 320.197 238.513V238.779H317.049V238.236H319.559C319.559 238.006 319.513 237.8 319.421 237.619C319.33 237.439 319.201 237.296 319.032 237.191C318.866 237.087 318.669 237.034 318.442 237.034C318.192 237.034 317.976 237.096 317.793 237.221C317.612 237.343 317.473 237.502 317.376 237.699C317.278 237.896 317.229 238.107 317.229 238.332V238.694C317.229 239.002 317.283 239.264 317.389 239.478C317.497 239.691 317.647 239.853 317.838 239.965C318.03 240.075 318.252 240.13 318.506 240.13C318.671 240.13 318.82 240.107 318.953 240.061C319.087 240.013 319.203 239.942 319.301 239.848C319.398 239.752 319.474 239.633 319.527 239.492L320.133 239.662C320.069 239.867 319.962 240.048 319.811 240.204C319.661 240.358 319.475 240.479 319.253 240.566C319.031 240.651 318.782 240.693 318.506 240.693ZM325.077 236.524V237.056H322.875V236.524H325.077ZM323.534 240.608V235.96C323.534 235.726 323.589 235.531 323.699 235.375C323.809 235.219 323.952 235.102 324.127 235.024C324.303 234.946 324.488 234.907 324.683 234.907C324.837 234.907 324.963 234.92 325.061 234.944C325.158 234.969 325.231 234.992 325.279 235.013L325.098 235.556C325.066 235.545 325.022 235.532 324.965 235.516C324.91 235.5 324.837 235.492 324.747 235.492C324.539 235.492 324.39 235.544 324.297 235.649C324.207 235.754 324.162 235.907 324.162 236.109V240.608H323.534ZM325.956 240.608V236.524H326.562V237.141H326.605C326.679 236.939 326.814 236.775 327.009 236.649C327.204 236.523 327.424 236.46 327.669 236.46C327.715 236.46 327.772 236.461 327.842 236.463C327.911 236.464 327.963 236.467 327.998 236.471V237.109C327.977 237.104 327.928 237.096 327.852 237.085C327.778 237.073 327.699 237.066 327.615 237.066C327.417 237.066 327.24 237.108 327.084 237.191C326.929 237.273 326.807 237.386 326.717 237.532C326.628 237.675 326.584 237.839 326.584 238.024V240.608H325.956ZM330.277 240.693C329.909 240.693 329.585 240.606 329.307 240.43C329.03 240.255 328.814 240.009 328.658 239.694C328.504 239.378 328.427 239.009 328.427 238.587C328.427 238.162 328.504 237.791 328.658 237.473C328.814 237.156 329.03 236.909 329.307 236.734C329.585 236.558 329.909 236.471 330.277 236.471C330.646 236.471 330.969 236.558 331.245 236.734C331.524 236.909 331.74 237.156 331.894 237.473C332.05 237.791 332.128 238.162 332.128 238.587C332.128 239.009 332.05 239.378 331.894 239.694C331.74 240.009 331.524 240.255 331.245 240.43C330.969 240.606 330.646 240.693 330.277 240.693ZM330.277 240.13C330.557 240.13 330.788 240.058 330.969 239.914C331.15 239.771 331.283 239.582 331.37 239.348C331.457 239.114 331.501 238.86 331.501 238.587C331.501 238.314 331.457 238.06 331.37 237.824C331.283 237.588 331.15 237.398 330.969 237.252C330.788 237.107 330.557 237.034 330.277 237.034C329.997 237.034 329.767 237.107 329.586 237.252C329.405 237.398 329.271 237.588 329.184 237.824C329.098 238.06 329.054 238.314 329.054 238.587C329.054 238.86 329.098 239.114 329.184 239.348C329.271 239.582 329.405 239.771 329.586 239.914C329.767 240.058 329.997 240.13 330.277 240.13ZM333.086 240.608V236.524H333.692V237.162H333.746C333.831 236.944 333.968 236.775 334.158 236.654C334.347 236.532 334.575 236.471 334.841 236.471C335.111 236.471 335.335 236.532 335.514 236.654C335.695 236.775 335.836 236.944 335.937 237.162H335.979C336.084 236.951 336.241 236.784 336.45 236.66C336.659 236.534 336.91 236.471 337.203 236.471C337.568 236.471 337.866 236.585 338.099 236.814C338.331 237.041 338.447 237.394 338.447 237.875V240.608H337.819V237.875C337.819 237.573 337.737 237.358 337.572 237.229C337.407 237.099 337.213 237.034 336.99 237.034C336.703 237.034 336.48 237.121 336.322 237.295C336.165 237.467 336.086 237.685 336.086 237.949V240.608H335.447V237.811C335.447 237.579 335.372 237.392 335.221 237.25C335.071 237.106 334.877 237.034 334.639 237.034C334.476 237.034 334.324 237.078 334.182 237.165C334.042 237.252 333.928 237.372 333.841 237.526C333.756 237.679 333.714 237.855 333.714 238.056V240.608H333.086ZM343.349 242.225C343.046 242.225 342.786 242.186 342.567 242.108C342.349 242.032 342.168 241.931 342.022 241.805C341.879 241.681 341.764 241.548 341.679 241.406L342.179 241.055C342.236 241.13 342.308 241.215 342.395 241.31C342.481 241.408 342.6 241.492 342.751 241.563C342.903 241.636 343.103 241.672 343.349 241.672C343.679 241.672 343.951 241.592 344.166 241.433C344.38 241.273 344.487 241.023 344.487 240.683V239.853H344.434C344.388 239.928 344.323 240.02 344.237 240.13C344.154 240.238 344.034 240.335 343.876 240.42C343.72 240.503 343.509 240.545 343.243 240.545C342.913 240.545 342.617 240.467 342.355 240.311C342.094 240.155 341.888 239.928 341.735 239.63C341.584 239.332 341.509 238.97 341.509 238.545C341.509 238.126 341.583 237.762 341.73 237.452C341.877 237.14 342.082 236.899 342.344 236.729C342.606 236.557 342.91 236.471 343.254 236.471C343.519 236.471 343.73 236.515 343.886 236.604C344.044 236.691 344.165 236.79 344.248 236.901C344.333 237.011 344.399 237.102 344.445 237.173H344.509V236.524H345.115V240.725C345.115 241.076 345.035 241.362 344.876 241.582C344.718 241.803 344.505 241.965 344.237 242.068C343.972 242.173 343.675 242.225 343.349 242.225ZM343.328 239.981C343.58 239.981 343.792 239.923 343.966 239.808C344.14 239.693 344.272 239.527 344.362 239.311C344.453 239.094 344.498 238.836 344.498 238.534C344.498 238.24 344.454 237.98 344.365 237.755C344.276 237.53 344.145 237.354 343.972 237.226C343.798 237.098 343.583 237.034 343.328 237.034C343.062 237.034 342.84 237.102 342.663 237.237C342.488 237.371 342.356 237.552 342.267 237.779C342.18 238.006 342.137 238.258 342.137 238.534C342.137 238.818 342.181 239.069 342.27 239.287C342.36 239.503 342.493 239.673 342.668 239.797C342.846 239.92 343.066 239.981 343.328 239.981ZM346.264 240.608V236.524H346.87V237.141H346.913C346.987 236.939 347.122 236.775 347.317 236.649C347.512 236.523 347.732 236.46 347.976 236.46C348.022 236.46 348.08 236.461 348.149 236.463C348.218 236.464 348.271 236.467 348.306 236.471V237.109C348.285 237.104 348.236 237.096 348.16 237.085C348.085 237.073 348.006 237.066 347.923 237.066C347.725 237.066 347.547 237.108 347.391 237.191C347.237 237.273 347.115 237.386 347.024 237.532C346.936 237.675 346.891 237.839 346.891 238.024V240.608H346.264ZM350.585 240.693C350.216 240.693 349.893 240.606 349.614 240.43C349.338 240.255 349.121 240.009 348.965 239.694C348.811 239.378 348.734 239.009 348.734 238.587C348.734 238.162 348.811 237.791 348.965 237.473C349.121 237.156 349.338 236.909 349.614 236.734C349.893 236.558 350.216 236.471 350.585 236.471C350.954 236.471 351.276 236.558 351.553 236.734C351.831 236.909 352.047 237.156 352.202 237.473C352.358 237.791 352.436 238.162 352.436 238.587C352.436 239.009 352.358 239.378 352.202 239.694C352.047 240.009 351.831 240.255 351.553 240.43C351.276 240.606 350.954 240.693 350.585 240.693ZM350.585 240.13C350.865 240.13 351.095 240.058 351.276 239.914C351.457 239.771 351.591 239.582 351.678 239.348C351.765 239.114 351.808 238.86 351.808 238.587C351.808 238.314 351.765 238.06 351.678 237.824C351.591 237.588 351.457 237.398 351.276 237.252C351.095 237.107 350.865 237.034 350.585 237.034C350.305 237.034 350.074 237.107 349.894 237.252C349.713 237.398 349.579 237.588 349.492 237.824C349.405 238.06 349.362 238.314 349.362 238.587C349.362 238.86 349.405 239.114 349.492 239.348C349.579 239.582 349.713 239.771 349.894 239.914C350.074 240.058 350.305 240.13 350.585 240.13ZM355.968 238.938V236.524H356.595V240.608H355.968V239.917H355.925C355.829 240.124 355.681 240.301 355.478 240.446C355.276 240.59 355.021 240.662 354.713 240.662C354.457 240.662 354.23 240.606 354.032 240.494C353.833 240.381 353.677 240.21 353.564 239.983C353.45 239.755 353.394 239.467 353.394 239.119V236.524H354.021V239.077C354.021 239.375 354.105 239.612 354.271 239.789C354.44 239.967 354.654 240.055 354.915 240.055C355.071 240.055 355.229 240.015 355.391 239.936C355.554 239.856 355.69 239.734 355.8 239.569C355.912 239.404 355.968 239.194 355.968 238.938ZM357.745 242.14V236.524H358.351V237.173H358.426C358.472 237.102 358.535 237.011 358.617 236.901C358.7 236.79 358.819 236.691 358.973 236.604C359.129 236.515 359.34 236.471 359.606 236.471C359.95 236.471 360.253 236.557 360.516 236.729C360.778 236.901 360.983 237.144 361.13 237.46C361.277 237.775 361.351 238.148 361.351 238.577C361.351 239.009 361.277 239.384 361.13 239.702C360.983 240.017 360.779 240.262 360.518 240.436C360.258 240.608 359.957 240.693 359.617 240.693C359.354 240.693 359.144 240.65 358.987 240.563C358.829 240.475 358.707 240.374 358.622 240.263C358.537 240.149 358.472 240.055 358.426 239.981H358.372V242.14H357.745ZM358.362 238.566C358.362 238.875 358.407 239.147 358.497 239.383C358.588 239.617 358.72 239.8 358.894 239.933C359.067 240.064 359.28 240.13 359.532 240.13C359.794 240.13 360.013 240.061 360.189 239.922C360.366 239.782 360.499 239.594 360.587 239.359C360.678 239.121 360.723 238.857 360.723 238.566C360.723 238.279 360.679 238.02 360.59 237.79C360.503 237.557 360.371 237.374 360.194 237.239C360.018 237.103 359.798 237.034 359.532 237.034C359.276 237.034 359.062 237.099 358.888 237.229C358.714 237.356 358.583 237.535 358.495 237.766C358.406 237.994 358.362 238.261 358.362 238.566Z" fill="#195581"/>
</g>
<g filter="url(#filter11_d_1232_58254)">
<rect x="258.5" y="259.981" width="130.5" height="31.7454" rx="3.47895" fill="#FAFCFE" shape-rendering="crispEdges"/>
<rect x="258.717" y="260.199" width="130.065" height="31.3105" rx="3.26152" stroke="#C9D4DE" stroke-width="0.434869" shape-rendering="crispEdges"/>
<rect x="267.406" y="267.879" width="15.9492" height="15.9492" rx="7.97461" fill="#E5EFD4"/>
<path d="M276.577 275.854C276.577 276.515 276.042 277.05 275.381 277.05C274.721 277.05 274.185 276.515 274.185 275.854C274.185 275.193 274.721 274.658 275.381 274.658C276.042 274.658 276.577 275.193 276.577 275.854Z" stroke="#7BB026" stroke-width="0.629301" stroke-linecap="round" stroke-linejoin="round"/>
<mask id="path-75-inside-2_1232_58254" fill="white">
<path d="M271.527 273.609L271.709 273.254C271.585 273.191 271.437 273.196 271.319 273.269C271.2 273.341 271.128 273.47 271.128 273.609H271.527ZM279.235 273.609H279.634C279.634 273.475 279.567 273.35 279.455 273.276L279.235 273.609ZM271.527 278.113H271.128C271.128 278.255 271.203 278.387 271.326 278.458L271.527 278.113ZM279.235 278.113L279.097 278.487C279.219 278.533 279.356 278.515 279.463 278.441C279.57 278.366 279.634 278.244 279.634 278.113H279.235ZM271.527 273.609C271.345 273.964 271.345 273.964 271.345 273.964C271.345 273.964 271.345 273.964 271.345 273.964C271.346 273.964 271.346 273.965 271.346 273.965C271.347 273.965 271.348 273.965 271.349 273.966C271.35 273.967 271.353 273.968 271.355 273.969C271.36 273.972 271.367 273.975 271.376 273.979C271.393 273.987 271.417 273.998 271.447 274.011C271.507 274.037 271.592 274.072 271.7 274.109C271.916 274.183 272.224 274.269 272.603 274.321C273.362 274.424 274.406 274.388 275.553 273.842L275.21 273.122C274.229 273.59 273.346 273.617 272.71 273.531C272.391 273.487 272.134 273.415 271.96 273.355C271.873 273.325 271.806 273.298 271.764 273.279C271.742 273.27 271.727 273.263 271.717 273.259C271.713 273.256 271.71 273.255 271.708 273.254C271.707 273.254 271.707 273.254 271.707 273.254C271.707 273.254 271.707 273.254 271.708 273.254C271.708 273.254 271.708 273.254 271.708 273.254C271.708 273.254 271.708 273.254 271.708 273.254C271.709 273.254 271.709 273.254 271.527 273.609ZM275.553 273.842C276.519 273.382 277.388 273.412 278.017 273.555C278.334 273.626 278.589 273.727 278.764 273.808C278.851 273.849 278.917 273.884 278.96 273.909C278.982 273.921 278.997 273.93 279.007 273.936C279.011 273.939 279.014 273.941 279.016 273.942C279.017 273.943 279.017 273.943 279.017 273.943C279.017 273.943 279.017 273.943 279.017 273.943C279.017 273.943 279.017 273.942 279.016 273.942C279.016 273.942 279.016 273.942 279.016 273.942C279.016 273.942 279.016 273.942 279.235 273.609C279.455 273.276 279.455 273.276 279.455 273.276C279.455 273.276 279.454 273.276 279.454 273.276C279.454 273.276 279.454 273.275 279.453 273.275C279.453 273.275 279.452 273.274 279.451 273.274C279.449 273.273 279.447 273.271 279.445 273.27C279.44 273.266 279.433 273.262 279.424 273.257C279.407 273.247 279.384 273.232 279.354 273.215C279.294 273.181 279.209 273.136 279.101 273.085C278.885 272.985 278.575 272.864 278.194 272.777C277.428 272.603 276.37 272.57 275.21 273.122L275.553 273.842ZM271.527 278.113C271.326 278.458 271.326 278.458 271.327 278.458C271.327 278.458 271.327 278.458 271.327 278.458C271.327 278.459 271.327 278.459 271.328 278.459C271.328 278.459 271.329 278.46 271.33 278.46C271.332 278.461 271.334 278.462 271.336 278.464C271.341 278.467 271.348 278.47 271.356 278.475C271.373 278.484 271.396 278.496 271.426 278.511C271.485 278.541 271.569 278.581 271.677 278.626C271.89 278.715 272.197 278.823 272.574 278.903C273.328 279.063 274.373 279.113 275.525 278.667L275.237 277.923C274.262 278.3 273.38 278.259 272.739 278.123C272.418 278.055 272.16 277.963 271.983 277.889C271.895 277.853 271.828 277.821 271.784 277.799C271.762 277.788 271.747 277.779 271.737 277.774C271.732 277.771 271.729 277.77 271.727 277.769C271.726 277.768 271.726 277.768 271.726 277.768C271.726 277.768 271.726 277.768 271.726 277.768C271.726 277.768 271.726 277.768 271.727 277.768C271.727 277.768 271.727 277.768 271.727 277.768C271.727 277.769 271.727 277.769 271.527 278.113ZM275.525 278.667C276.521 278.281 277.422 278.239 278.073 278.293C278.398 278.32 278.66 278.37 278.838 278.413C278.927 278.435 278.995 278.455 279.039 278.468C279.061 278.475 279.077 278.48 279.087 278.484C279.092 278.485 279.095 278.487 279.096 278.487C279.097 278.487 279.098 278.488 279.098 278.488C279.098 278.488 279.098 278.488 279.098 278.487C279.097 278.487 279.097 278.487 279.097 278.487C279.097 278.487 279.097 278.487 279.097 278.487C279.097 278.487 279.097 278.487 279.235 278.113C279.374 277.74 279.374 277.739 279.374 277.739C279.374 277.739 279.374 277.739 279.374 277.739C279.373 277.739 279.373 277.739 279.373 277.739C279.372 277.739 279.371 277.738 279.371 277.738C279.369 277.738 279.367 277.737 279.364 277.736C279.359 277.734 279.353 277.732 279.344 277.729C279.328 277.723 279.305 277.716 279.275 277.707C279.216 277.688 279.132 277.664 279.026 277.638C278.814 277.587 278.511 277.529 278.138 277.498C277.394 277.437 276.368 277.485 275.237 277.923L275.525 278.667ZM271.925 278.113V273.609H271.128V278.113H271.925ZM278.837 273.609V278.113H279.634V273.609H278.837Z"/>
</mask>
<path d="M271.527 273.609L271.709 273.254C271.585 273.191 271.437 273.196 271.319 273.269C271.2 273.341 271.128 273.47 271.128 273.609H271.527ZM279.235 273.609H279.634C279.634 273.475 279.567 273.35 279.455 273.276L279.235 273.609ZM271.527 278.113H271.128C271.128 278.255 271.203 278.387 271.326 278.458L271.527 278.113ZM279.235 278.113L279.097 278.487C279.219 278.533 279.356 278.515 279.463 278.441C279.57 278.366 279.634 278.244 279.634 278.113H279.235ZM271.527 273.609C271.345 273.964 271.345 273.964 271.345 273.964C271.345 273.964 271.345 273.964 271.345 273.964C271.346 273.964 271.346 273.965 271.346 273.965C271.347 273.965 271.348 273.965 271.349 273.966C271.35 273.967 271.353 273.968 271.355 273.969C271.36 273.972 271.367 273.975 271.376 273.979C271.393 273.987 271.417 273.998 271.447 274.011C271.507 274.037 271.592 274.072 271.7 274.109C271.916 274.183 272.224 274.269 272.603 274.321C273.362 274.424 274.406 274.388 275.553 273.842L275.21 273.122C274.229 273.59 273.346 273.617 272.71 273.531C272.391 273.487 272.134 273.415 271.96 273.355C271.873 273.325 271.806 273.298 271.764 273.279C271.742 273.27 271.727 273.263 271.717 273.259C271.713 273.256 271.71 273.255 271.708 273.254C271.707 273.254 271.707 273.254 271.707 273.254C271.707 273.254 271.707 273.254 271.708 273.254C271.708 273.254 271.708 273.254 271.708 273.254C271.708 273.254 271.708 273.254 271.708 273.254C271.709 273.254 271.709 273.254 271.527 273.609ZM275.553 273.842C276.519 273.382 277.388 273.412 278.017 273.555C278.334 273.626 278.589 273.727 278.764 273.808C278.851 273.849 278.917 273.884 278.96 273.909C278.982 273.921 278.997 273.93 279.007 273.936C279.011 273.939 279.014 273.941 279.016 273.942C279.017 273.943 279.017 273.943 279.017 273.943C279.017 273.943 279.017 273.943 279.017 273.943C279.017 273.943 279.017 273.942 279.016 273.942C279.016 273.942 279.016 273.942 279.016 273.942C279.016 273.942 279.016 273.942 279.235 273.609C279.455 273.276 279.455 273.276 279.455 273.276C279.455 273.276 279.454 273.276 279.454 273.276C279.454 273.276 279.454 273.275 279.453 273.275C279.453 273.275 279.452 273.274 279.451 273.274C279.449 273.273 279.447 273.271 279.445 273.27C279.44 273.266 279.433 273.262 279.424 273.257C279.407 273.247 279.384 273.232 279.354 273.215C279.294 273.181 279.209 273.136 279.101 273.085C278.885 272.985 278.575 272.864 278.194 272.777C277.428 272.603 276.37 272.57 275.21 273.122L275.553 273.842ZM271.527 278.113C271.326 278.458 271.326 278.458 271.327 278.458C271.327 278.458 271.327 278.458 271.327 278.458C271.327 278.459 271.327 278.459 271.328 278.459C271.328 278.459 271.329 278.46 271.33 278.46C271.332 278.461 271.334 278.462 271.336 278.464C271.341 278.467 271.348 278.47 271.356 278.475C271.373 278.484 271.396 278.496 271.426 278.511C271.485 278.541 271.569 278.581 271.677 278.626C271.89 278.715 272.197 278.823 272.574 278.903C273.328 279.063 274.373 279.113 275.525 278.667L275.237 277.923C274.262 278.3 273.38 278.259 272.739 278.123C272.418 278.055 272.16 277.963 271.983 277.889C271.895 277.853 271.828 277.821 271.784 277.799C271.762 277.788 271.747 277.779 271.737 277.774C271.732 277.771 271.729 277.77 271.727 277.769C271.726 277.768 271.726 277.768 271.726 277.768C271.726 277.768 271.726 277.768 271.726 277.768C271.726 277.768 271.726 277.768 271.727 277.768C271.727 277.768 271.727 277.768 271.727 277.768C271.727 277.769 271.727 277.769 271.527 278.113ZM275.525 278.667C276.521 278.281 277.422 278.239 278.073 278.293C278.398 278.32 278.66 278.37 278.838 278.413C278.927 278.435 278.995 278.455 279.039 278.468C279.061 278.475 279.077 278.48 279.087 278.484C279.092 278.485 279.095 278.487 279.096 278.487C279.097 278.487 279.098 278.488 279.098 278.488C279.098 278.488 279.098 278.488 279.098 278.487C279.097 278.487 279.097 278.487 279.097 278.487C279.097 278.487 279.097 278.487 279.097 278.487C279.097 278.487 279.097 278.487 279.235 278.113C279.374 277.74 279.374 277.739 279.374 277.739C279.374 277.739 279.374 277.739 279.374 277.739C279.373 277.739 279.373 277.739 279.373 277.739C279.372 277.739 279.371 277.738 279.371 277.738C279.369 277.738 279.367 277.737 279.364 277.736C279.359 277.734 279.353 277.732 279.344 277.729C279.328 277.723 279.305 277.716 279.275 277.707C279.216 277.688 279.132 277.664 279.026 277.638C278.814 277.587 278.511 277.529 278.138 277.498C277.394 277.437 276.368 277.485 275.237 277.923L275.525 278.667ZM271.925 278.113V273.609H271.128V278.113H271.925ZM278.837 273.609V278.113H279.634V273.609H278.837Z" fill="#7BB026" stroke="#7BB026" stroke-width="0.839068" mask="url(#path-75-inside-2_1232_58254)"/>
<rect x="292.262" y="269.182" width="87.8313" height="4.67242" rx="2.33621" fill="#D9E2EC"/>
<rect x="292.262" y="277.854" width="66.582" height="4.67242" rx="2.33621" fill="#D9E2EC"/>
</g>
</g>
<defs>
<filter id="filter0_dd_1232_58254" x="73.4111" y="34" width="352.178" height="306.905" filterUnits="userSpaceOnUse" color-interpolation-filters="sRGB">
<feFlood flood-opacity="0" result="BackgroundImageFix"/>
<feColorMatrix in="SourceAlpha" type="matrix" values="0 0 0 0 0 0 0 0 0 0 0 0 0 0 0 0 0 0 127 0" result="hardAlpha"/>
<feMorphology radius="2.09815" operator="erode" in="SourceAlpha" result="effect1_dropShadow_1232_58254"/>
<feOffset dy="4.19629"/>
<feGaussianBlur stdDeviation="3.14722"/>
<feComposite in2="hardAlpha" operator="out"/>
<feColorMatrix type="matrix" values="0 0 0 0 0 0 0 0 0 0 0 0 0 0 0 0 0 0 0.03 0"/>
<feBlend mode="normal" in2="BackgroundImageFix" result="effect1_dropShadow_1232_58254"/>
<feColorMatrix in="SourceAlpha" type="matrix" values="0 0 0 0 0 0 0 0 0 0 0 0 0 0 0 0 0 0 127 0" result="hardAlpha"/>
<feMorphology radius="4.19629" operator="erode" in="SourceAlpha" result="effect2_dropShadow_1232_58254"/>
<feOffset dy="12.5889"/>
<feGaussianBlur stdDeviation="8.39259"/>
<feComposite in2="hardAlpha" operator="out"/>
<feColorMatrix type="matrix" values="0 0 0 0 0 0 0 0 0 0 0 0 0 0 0 0 0 0 0.08 0"/>
<feBlend mode="normal" in2="effect1_dropShadow_1232_58254" result="effect2_dropShadow_1232_58254"/>
<feBlend mode="normal" in="SourceGraphic" in2="effect2_dropShadow_1232_58254" result="shape"/>
</filter>
<filter id="filter1_d_1232_58254" x="109.13" y="96.5651" width="280.739" height="33.4851" filterUnits="userSpaceOnUse" color-interpolation-filters="sRGB">
<feFlood flood-opacity="0" result="BackgroundImageFix"/>
<feColorMatrix in="SourceAlpha" type="matrix" values="0 0 0 0 0 0 0 0 0 0 0 0 0 0 0 0 0 0 127 0" result="hardAlpha"/>
<feOffset dy="0.434869"/>
<feGaussianBlur stdDeviation="0.434869"/>
<feComposite in2="hardAlpha" operator="out"/>
<feColorMatrix type="matrix" values="0 0 0 0 0 0 0 0 0 0 0 0 0 0 0 0 0 0 0.04 0"/>
<feBlend mode="normal" in2="BackgroundImageFix" result="effect1_dropShadow_1232_58254"/>
<feBlend mode="normal" in="SourceGraphic" in2="effect1_dropShadow_1232_58254" result="shape"/>
</filter>
<filter id="filter2_d_1232_58254" x="109.13" y="146.31" width="132.239" height="33.4851" filterUnits="userSpaceOnUse" color-interpolation-filters="sRGB">
<feFlood flood-opacity="0" result="BackgroundImageFix"/>
<feColorMatrix in="SourceAlpha" type="matrix" values="0 0 0 0 0 0 0 0 0 0 0 0 0 0 0 0 0 0 127 0" result="hardAlpha"/>
<feOffset dy="0.434869"/>
<feGaussianBlur stdDeviation="0.434869"/>
<feComposite in2="hardAlpha" operator="out"/>
<feColorMatrix type="matrix" values="0 0 0 0 0 0 0 0 0 0 0 0 0 0 0 0 0 0 0.04 0"/>
<feBlend mode="normal" in2="BackgroundImageFix" result="effect1_dropShadow_1232_58254"/>
<feBlend mode="normal" in="SourceGraphic" in2="effect1_dropShadow_1232_58254" result="shape"/>
</filter>
<filter id="filter3_d_1232_58254" x="109.13" y="184.056" width="132.239" height="33.4851" filterUnits="userSpaceOnUse" color-interpolation-filters="sRGB">
<feFlood flood-opacity="0" result="BackgroundImageFix"/>
<feColorMatrix in="SourceAlpha" type="matrix" values="0 0 0 0 0 0 0 0 0 0 0 0 0 0 0 0 0 0 127 0" result="hardAlpha"/>
<feOffset dy="0.434869"/>
<feGaussianBlur stdDeviation="0.434869"/>
<feComposite in2="hardAlpha" operator="out"/>
<feColorMatrix type="matrix" values="0 0 0 0 0 0 0 0 0 0 0 0 0 0 0 0 0 0 0.04 0"/>
<feBlend mode="normal" in2="BackgroundImageFix" result="effect1_dropShadow_1232_58254"/>
<feBlend mode="normal" in="SourceGraphic" in2="effect1_dropShadow_1232_58254" result="shape"/>
</filter>
<filter id="filter4_d_1232_58254" x="109.13" y="221.801" width="132.239" height="33.4851" filterUnits="userSpaceOnUse" color-interpolation-filters="sRGB">
<feFlood flood-opacity="0" result="BackgroundImageFix"/>
<feColorMatrix in="SourceAlpha" type="matrix" values="0 0 0 0 0 0 0 0 0 0 0 0 0 0 0 0 0 0 127 0" result="hardAlpha"/>
<feOffset dy="0.434869"/>
<feGaussianBlur stdDeviation="0.434869"/>
<feComposite in2="hardAlpha" operator="out"/>
<feColorMatrix type="matrix" values="0 0 0 0 0 0 0 0 0 0 0 0 0 0 0 0 0 0 0.04 0"/>
<feBlend mode="normal" in2="BackgroundImageFix" result="effect1_dropShadow_1232_58254"/>
<feBlend mode="normal" in="SourceGraphic" in2="effect1_dropShadow_1232_58254" result="shape"/>
</filter>
<filter id="filter5_i_1232_58254" x="118.906" y="230.134" width="15.9492" height="15.9492" filterUnits="userSpaceOnUse" color-interpolation-filters="sRGB">
<feFlood flood-opacity="0" result="BackgroundImageFix"/>
<feBlend mode="normal" in="SourceGraphic" in2="BackgroundImageFix" result="shape"/>
<feColorMatrix in="SourceAlpha" type="matrix" values="0 0 0 0 0 0 0 0 0 0 0 0 0 0 0 0 0 0 127 0" result="hardAlpha"/>
<feOffset/>
<feGaussianBlur stdDeviation="0.629301"/>
<feComposite in2="hardAlpha" operator="arithmetic" k2="-1" k3="1"/>
<feColorMatrix type="matrix" values="0 0 0 0 0 0 0 0 0 0 0 0 0 0 0 0 0 0 0.1 0"/>
<feBlend mode="normal" in2="shape" result="effect1_innerShadow_1232_58254"/>
</filter>
<filter id="filter6_d_1232_58254" x="109.13" y="259.547" width="132.239" height="33.4851" filterUnits="userSpaceOnUse" color-interpolation-filters="sRGB">
<feFlood flood-opacity="0" result="BackgroundImageFix"/>
<feColorMatrix in="SourceAlpha" type="matrix" values="0 0 0 0 0 0 0 0 0 0 0 0 0 0 0 0 0 0 127 0" result="hardAlpha"/>
<feOffset dy="0.434869"/>
<feGaussianBlur stdDeviation="0.434869"/>
<feComposite in2="hardAlpha" operator="out"/>
<feColorMatrix type="matrix" values="0 0 0 0 0 0 0 0 0 0 0 0 0 0 0 0 0 0 0.04 0"/>
<feBlend mode="normal" in2="BackgroundImageFix" result="effect1_dropShadow_1232_58254"/>
<feBlend mode="normal" in="SourceGraphic" in2="effect1_dropShadow_1232_58254" result="shape"/>
</filter>
<filter id="filter7_d_1232_58254" x="257.63" y="146.31" width="132.239" height="33.4851" filterUnits="userSpaceOnUse" color-interpolation-filters="sRGB">
<feFlood flood-opacity="0" result="BackgroundImageFix"/>
<feColorMatrix in="SourceAlpha" type="matrix" values="0 0 0 0 0 0 0 0 0 0 0 0 0 0 0 0 0 0 127 0" result="hardAlpha"/>
<feOffset dy="0.434869"/>
<feGaussianBlur stdDeviation="0.434869"/>
<feComposite in2="hardAlpha" operator="out"/>
<feColorMatrix type="matrix" values="0 0 0 0 0 0 0 0 0 0 0 0 0 0 0 0 0 0 0.04 0"/>
<feBlend mode="normal" in2="BackgroundImageFix" result="effect1_dropShadow_1232_58254"/>
<feBlend mode="normal" in="SourceGraphic" in2="effect1_dropShadow_1232_58254" result="shape"/>
</filter>
<filter id="filter8_d_1232_58254" x="257.63" y="184.056" width="132.239" height="33.4851" filterUnits="userSpaceOnUse" color-interpolation-filters="sRGB">
<feFlood flood-opacity="0" result="BackgroundImageFix"/>
<feColorMatrix in="SourceAlpha" type="matrix" values="0 0 0 0 0 0 0 0 0 0 0 0 0 0 0 0 0 0 127 0" result="hardAlpha"/>
<feOffset dy="0.434869"/>
<feGaussianBlur stdDeviation="0.434869"/>
<feComposite in2="hardAlpha" operator="out"/>
<feColorMatrix type="matrix" values="0 0 0 0 0 0 0 0 0 0 0 0 0 0 0 0 0 0 0.04 0"/>
<feBlend mode="normal" in2="BackgroundImageFix" result="effect1_dropShadow_1232_58254"/>
<feBlend mode="normal" in="SourceGraphic" in2="effect1_dropShadow_1232_58254" result="shape"/>
</filter>
<filter id="filter9_dd_1232_58254" x="252.5" y="220.236" width="142.5" height="43.7456" filterUnits="userSpaceOnUse" color-interpolation-filters="sRGB">
<feFlood flood-opacity="0" result="BackgroundImageFix"/>
<feColorMatrix in="SourceAlpha" type="matrix" values="0 0 0 0 0 0 0 0 0 0 0 0 0 0 0 0 0 0 127 0" result="hardAlpha"/>
<feMorphology radius="2" operator="erode" in="SourceAlpha" result="effect1_dropShadow_1232_58254"/>
<feOffset dy="2"/>
<feGaussianBlur stdDeviation="2"/>
<feComposite in2="hardAlpha" operator="out"/>
<feColorMatrix type="matrix" values="0 0 0 0 0 0 0 0 0 0 0 0 0 0 0 0 0 0 0.06 0"/>
<feBlend mode="normal" in2="BackgroundImageFix" result="effect1_dropShadow_1232_58254"/>
<feColorMatrix in="SourceAlpha" type="matrix" values="0 0 0 0 0 0 0 0 0 0 0 0 0 0 0 0 0 0 127 0" result="hardAlpha"/>
<feMorphology radius="2" operator="erode" in="SourceAlpha" result="effect2_dropShadow_1232_58254"/>
<feOffset dy="4"/>
<feGaussianBlur stdDeviation="4"/>
<feComposite in2="hardAlpha" operator="out"/>
<feColorMatrix type="matrix" values="0 0 0 0 0 0 0 0 0 0 0 0 0 0 0 0 0 0 0.1 0"/>
<feBlend mode="normal" in2="effect1_dropShadow_1232_58254" result="effect2_dropShadow_1232_58254"/>
<feBlend mode="normal" in="SourceGraphic" in2="effect2_dropShadow_1232_58254" result="shape"/>
</filter>
<filter id="filter10_i_1232_58254" x="267.406" y="230.134" width="15.9492" height="15.9492" filterUnits="userSpaceOnUse" color-interpolation-filters="sRGB">
<feFlood flood-opacity="0" result="BackgroundImageFix"/>
<feBlend mode="normal" in="SourceGraphic" in2="BackgroundImageFix" result="shape"/>
<feColorMatrix in="SourceAlpha" type="matrix" values="0 0 0 0 0 0 0 0 0 0 0 0 0 0 0 0 0 0 127 0" result="hardAlpha"/>
<feOffset/>
<feGaussianBlur stdDeviation="0.629301"/>
<feComposite in2="hardAlpha" operator="arithmetic" k2="-1" k3="1"/>
<feColorMatrix type="matrix" values="0 0 0 0 0 0 0 0 0 0 0 0 0 0 0 0 0 0 0.1 0"/>
<feBlend mode="normal" in2="shape" result="effect1_innerShadow_1232_58254"/>
</filter>
<filter id="filter11_d_1232_58254" x="257.63" y="259.547" width="132.239" height="33.4851" filterUnits="userSpaceOnUse" color-interpolation-filters="sRGB">
<feFlood flood-opacity="0" result="BackgroundImageFix"/>
<feColorMatrix in="SourceAlpha" type="matrix" values="0 0 0 0 0 0 0 0 0 0 0 0 0 0 0 0 0 0 127 0" result="hardAlpha"/>
<feOffset dy="0.434869"/>
<feGaussianBlur stdDeviation="0.434869"/>
<feComposite in2="hardAlpha" operator="out"/>
<feColorMatrix type="matrix" values="0 0 0 0 0 0 0 0 0 0 0 0 0 0 0 0 0 0 0.04 0"/>
<feBlend mode="normal" in2="BackgroundImageFix" result="effect1_dropShadow_1232_58254"/>
<feBlend mode="normal" in="SourceGraphic" in2="effect1_dropShadow_1232_58254" result="shape"/>
</filter>
</defs>
</svg>
