<svg width="400" height="348" viewBox="0 0 400 348" fill="none" xmlns="http://www.w3.org/2000/svg">
<g filter="url(#filter0_dd_1216_249443)">
<rect x="39.6133" y="34" width="320.773" height="274.994" rx="9.94677" fill="white"/>
<rect x="40.235" y="34.6217" width="319.53" height="273.751" rx="9.3251" stroke="#2680C2" stroke-width="1.24335"/>
<path d="M73.4819 67.3828H71.3043C71.2646 67.1011 71.1834 66.8509 71.0607 66.6321C70.9381 66.41 70.7807 66.2211 70.5884 66.0653C70.3962 65.9096 70.1741 65.7902 69.9222 65.7074C69.6737 65.6245 69.4035 65.5831 69.1119 65.5831C68.5849 65.5831 68.1258 65.714 67.7347 65.9759C67.3436 66.2344 67.0404 66.6122 66.8249 67.1094C66.6095 67.6032 66.5018 68.2031 66.5018 68.9091C66.5018 69.6349 66.6095 70.2448 66.8249 70.7386C67.0437 71.2325 67.3486 71.6054 67.7397 71.8572C68.1308 72.1091 68.5832 72.2351 69.0969 72.2351C69.3853 72.2351 69.6521 72.197 69.8974 72.1207C70.146 72.0445 70.3664 71.9335 70.5586 71.7876C70.7508 71.6385 70.9099 71.4579 71.0359 71.2457C71.1651 71.0336 71.2546 70.7917 71.3043 70.5199L73.4819 70.5298C73.4255 70.9972 73.2847 71.4479 73.0593 71.8821C72.8372 72.313 72.5373 72.6991 72.1594 73.0405C71.7849 73.3786 71.3375 73.647 70.8171 73.8459C70.3001 74.0414 69.7151 74.1392 69.0621 74.1392C68.154 74.1392 67.342 73.9337 66.6261 73.5227C65.9135 73.1117 65.35 72.5168 64.9357 71.7379C64.5247 70.959 64.3192 70.0161 64.3192 68.9091C64.3192 67.7988 64.5281 66.8542 64.9457 66.0753C65.3633 65.2964 65.93 64.7031 66.646 64.2955C67.3619 63.8845 68.1673 63.679 69.0621 63.679C69.6521 63.679 70.199 63.7618 70.7028 63.9276C71.2099 64.0933 71.659 64.3352 72.0501 64.6534C72.4412 64.9683 72.7594 65.3544 73.0046 65.8118C73.2532 66.2692 73.4123 66.7929 73.4819 67.3828ZM79.8828 70.7486V66.3636H82.0007V74H79.9673V72.6129H79.8878C79.7154 73.0604 79.4287 73.42 79.0277 73.6918C78.63 73.9635 78.1444 74.0994 77.571 74.0994C77.0606 74.0994 76.6115 73.9834 76.2237 73.7514C75.8359 73.5194 75.5327 73.1896 75.3139 72.7621C75.0985 72.3345 74.9891 71.8224 74.9858 71.2259V66.3636H77.1037V70.848C77.107 71.2988 77.228 71.6551 77.4666 71.9169C77.7053 72.1787 78.0251 72.3097 78.4261 72.3097C78.6813 72.3097 78.92 72.2517 79.142 72.1357C79.3641 72.0163 79.5431 71.8407 79.679 71.6087C79.8182 71.3767 79.8861 71.09 79.8828 70.7486ZM90.0485 68.5412L88.1096 68.6605C88.0764 68.4948 88.0051 68.3456 87.8958 68.2131C87.7864 68.0772 87.6422 67.9695 87.4632 67.8899C87.2876 67.8071 87.0771 67.7656 86.8319 67.7656C86.5037 67.7656 86.227 67.8352 86.0016 67.9744C85.7762 68.1103 85.6635 68.2926 85.6635 68.5213C85.6635 68.7036 85.7364 68.8577 85.8823 68.9837C86.0281 69.1096 86.2784 69.2107 86.633 69.2869L88.0151 69.5653C88.7575 69.7178 89.311 69.9631 89.6756 70.3011C90.0402 70.6392 90.2225 71.0833 90.2225 71.6335C90.2225 72.134 90.075 72.5732 89.78 72.951C89.4883 73.3288 89.0873 73.6238 88.5769 73.8359C88.0698 74.0447 87.4848 74.1491 86.8219 74.1491C85.811 74.1491 85.0056 73.9387 84.4057 73.5178C83.8091 73.0935 83.4595 72.5168 83.3567 71.7876L85.4398 71.6783C85.5028 71.9865 85.6552 72.2218 85.8972 72.3842C86.1391 72.5433 86.449 72.6229 86.8269 72.6229C87.1981 72.6229 87.4964 72.5516 87.7218 72.4091C87.9505 72.2633 88.0665 72.076 88.0698 71.8473C88.0665 71.6551 87.9853 71.4976 87.8262 71.375C87.6671 71.2491 87.4218 71.1529 87.0904 71.0866L85.7679 70.8232C85.0222 70.674 84.467 70.4155 84.1025 70.0476C83.7412 69.6797 83.5605 69.2107 83.5605 68.6406C83.5605 68.1501 83.6931 67.7275 83.9583 67.3729C84.2267 67.0182 84.6029 66.7448 85.0868 66.5526C85.574 66.3603 86.1441 66.2642 86.7971 66.2642C87.7615 66.2642 88.5205 66.468 89.074 66.8757C89.6309 67.2834 89.9557 67.8385 90.0485 68.5412ZM95.6179 66.3636V67.9545H91.0192V66.3636H95.6179ZM92.0632 64.5341H94.1811V71.6534C94.1811 71.849 94.2109 72.0014 94.2706 72.1108C94.3303 72.2169 94.4131 72.2914 94.5192 72.3345C94.6286 72.3776 94.7545 72.3991 94.897 72.3991C94.9964 72.3991 95.0959 72.3909 95.1953 72.3743C95.2947 72.3544 95.371 72.3395 95.424 72.3295L95.7571 73.9055C95.651 73.9387 95.5019 73.9768 95.3097 74.0199C95.1174 74.0663 94.8838 74.0945 94.6087 74.1044C94.0982 74.1243 93.6508 74.0563 93.2663 73.9006C92.8852 73.7448 92.5885 73.5028 92.3764 73.1747C92.1643 72.8466 92.0599 72.4323 92.0632 71.9318V64.5341ZM100.366 74.1491C99.5935 74.1491 98.9257 73.9851 98.3622 73.657C97.8021 73.3255 97.3696 72.8648 97.0646 72.2749C96.7597 71.6816 96.6072 70.9938 96.6072 70.2116C96.6072 69.4228 96.7597 68.7334 97.0646 68.1435C97.3696 67.5502 97.8021 67.0895 98.3622 66.7614C98.9257 66.4299 99.5935 66.2642 100.366 66.2642C101.138 66.2642 101.804 66.4299 102.364 66.7614C102.928 67.0895 103.362 67.5502 103.667 68.1435C103.972 68.7334 104.124 69.4228 104.124 70.2116C104.124 70.9938 103.972 71.6816 103.667 72.2749C103.362 72.8648 102.928 73.3255 102.364 73.657C101.804 73.9851 101.138 74.1491 100.366 74.1491ZM100.376 72.5085C100.727 72.5085 101.02 72.4091 101.256 72.2102C101.491 72.008 101.668 71.733 101.788 71.3849C101.91 71.0369 101.972 70.6409 101.972 70.1967C101.972 69.7526 101.91 69.3565 101.788 69.0085C101.668 68.6605 101.491 68.3854 101.256 68.1832C101.02 67.9811 100.727 67.88 100.376 67.88C100.021 67.88 99.7228 67.9811 99.4808 68.1832C99.2422 68.3854 99.0616 68.6605 98.9389 69.0085C98.8196 69.3565 98.7599 69.7526 98.7599 70.1967C98.7599 70.6409 98.8196 71.0369 98.9389 71.3849C99.0616 71.733 99.2422 72.008 99.4808 72.2102C99.7228 72.4091 100.021 72.5085 100.376 72.5085ZM105.501 74V66.3636H107.52V67.7109H107.609C107.768 67.2635 108.034 66.9105 108.405 66.652C108.776 66.3935 109.22 66.2642 109.737 66.2642C110.261 66.2642 110.707 66.3951 111.075 66.657C111.442 66.9155 111.688 67.2668 111.81 67.7109H111.89C112.046 67.2734 112.327 66.9238 112.735 66.6619C113.146 66.3968 113.632 66.2642 114.192 66.2642C114.904 66.2642 115.483 66.4912 115.927 66.9453C116.374 67.3961 116.598 68.0357 116.598 68.8643V74H114.485V69.282C114.485 68.8577 114.372 68.5395 114.147 68.3274C113.922 68.1153 113.64 68.0092 113.302 68.0092C112.917 68.0092 112.617 68.1319 112.402 68.3771C112.187 68.6191 112.079 68.9389 112.079 69.3366V74H110.026V69.2372C110.026 68.8627 109.918 68.5644 109.702 68.3423C109.49 68.1203 109.21 68.0092 108.862 68.0092C108.627 68.0092 108.415 68.0689 108.226 68.1882C108.04 68.3042 107.893 68.4683 107.783 68.6804C107.674 68.8892 107.619 69.1345 107.619 69.4162V74H105.501ZM130.535 67.3828H128.357C128.317 67.1011 128.236 66.8509 128.113 66.6321C127.991 66.41 127.833 66.2211 127.641 66.0653C127.449 65.9096 127.227 65.7902 126.975 65.7074C126.726 65.6245 126.456 65.5831 126.165 65.5831C125.638 65.5831 125.179 65.714 124.787 65.9759C124.396 66.2344 124.093 66.6122 123.878 67.1094C123.662 67.6032 123.555 68.2031 123.555 68.9091C123.555 69.6349 123.662 70.2448 123.878 70.7386C124.096 71.2325 124.401 71.6054 124.792 71.8572C125.184 72.1091 125.636 72.2351 126.15 72.2351C126.438 72.2351 126.705 72.197 126.95 72.1207C127.199 72.0445 127.419 71.9335 127.611 71.7876C127.804 71.6385 127.963 71.4579 128.089 71.2457C128.218 71.0336 128.307 70.7917 128.357 70.5199L130.535 70.5298C130.478 70.9972 130.337 71.4479 130.112 71.8821C129.89 72.313 129.59 72.6991 129.212 73.0405C128.838 73.3786 128.39 73.647 127.87 73.8459C127.353 74.0414 126.768 74.1392 126.115 74.1392C125.207 74.1392 124.395 73.9337 123.679 73.5227C122.966 73.1117 122.403 72.5168 121.988 71.7379C121.577 70.959 121.372 70.0161 121.372 68.9091C121.372 67.7988 121.581 66.8542 121.998 66.0753C122.416 65.2964 122.983 64.7031 123.699 64.2955C124.415 63.8845 125.22 63.679 126.115 63.679C126.705 63.679 127.252 63.7618 127.756 63.9276C128.263 64.0933 128.712 64.3352 129.103 64.6534C129.494 64.9683 129.812 65.3544 130.057 65.8118C130.306 66.2692 130.465 66.7929 130.535 67.3828ZM135.489 74.1491C134.717 74.1491 134.049 73.9851 133.485 73.657C132.925 73.3255 132.493 72.8648 132.188 72.2749C131.883 71.6816 131.73 70.9938 131.73 70.2116C131.73 69.4228 131.883 68.7334 132.188 68.1435C132.493 67.5502 132.925 67.0895 133.485 66.7614C134.049 66.4299 134.717 66.2642 135.489 66.2642C136.261 66.2642 136.927 66.4299 137.487 66.7614C138.051 67.0895 138.485 67.5502 138.79 68.1435C139.095 68.7334 139.247 69.4228 139.247 70.2116C139.247 70.9938 139.095 71.6816 138.79 72.2749C138.485 72.8648 138.051 73.3255 137.487 73.657C136.927 73.9851 136.261 74.1491 135.489 74.1491ZM135.499 72.5085C135.85 72.5085 136.143 72.4091 136.379 72.2102C136.614 72.008 136.791 71.733 136.911 71.3849C137.033 71.0369 137.095 70.6409 137.095 70.1967C137.095 69.7526 137.033 69.3565 136.911 69.0085C136.791 68.6605 136.614 68.3854 136.379 68.1832C136.143 67.9811 135.85 67.88 135.499 67.88C135.144 67.88 134.846 67.9811 134.604 68.1832C134.365 68.3854 134.185 68.6605 134.062 69.0085C133.943 69.3565 133.883 69.7526 133.883 70.1967C133.883 70.6409 133.943 71.0369 134.062 71.3849C134.185 71.733 134.365 72.008 134.604 72.2102C134.846 72.4091 135.144 72.5085 135.499 72.5085ZM142.742 69.5852V74H140.624V66.3636H142.643V67.7109H142.732C142.901 67.2668 143.185 66.9155 143.583 66.657C143.98 66.3951 144.463 66.2642 145.029 66.2642C145.56 66.2642 146.022 66.3802 146.416 66.6122C146.811 66.8442 147.117 67.1757 147.336 67.6065C147.555 68.0341 147.664 68.5445 147.664 69.1378V74H145.546V69.5156C145.55 69.0483 145.43 68.6837 145.188 68.4219C144.946 68.1567 144.613 68.0241 144.189 68.0241C143.904 68.0241 143.652 68.0855 143.433 68.2081C143.218 68.3307 143.049 68.5097 142.926 68.745C142.807 68.977 142.746 69.2571 142.742 69.5852ZM153.395 66.3636V67.9545H148.797V66.3636H153.395ZM149.841 64.5341H151.958V71.6534C151.958 71.849 151.988 72.0014 152.048 72.1108C152.108 72.2169 152.19 72.2914 152.297 72.3345C152.406 72.3776 152.532 72.3991 152.674 72.3991C152.774 72.3991 152.873 72.3909 152.973 72.3743C153.072 72.3544 153.148 72.3395 153.201 72.3295L153.534 73.9055C153.428 73.9387 153.279 73.9768 153.087 74.0199C152.895 74.0663 152.661 74.0945 152.386 74.1044C151.876 74.1243 151.428 74.0563 151.044 73.9006C150.663 73.7448 150.366 73.5028 150.154 73.1747C149.942 72.8466 149.837 72.4323 149.841 71.9318V64.5341ZM156.952 74.1442C156.465 74.1442 156.031 74.0597 155.65 73.8906C155.269 73.7183 154.967 73.4647 154.745 73.13C154.526 72.7919 154.417 72.371 154.417 71.8672C154.417 71.4429 154.495 71.0866 154.651 70.7983C154.806 70.5099 155.018 70.2779 155.287 70.1023C155.555 69.9266 155.86 69.794 156.202 69.7045C156.546 69.6151 156.908 69.5521 157.286 69.5156C157.73 69.4692 158.088 69.4261 158.359 69.3864C158.631 69.3433 158.828 69.2803 158.951 69.1974C159.074 69.1146 159.135 68.992 159.135 68.8295V68.7997C159.135 68.4848 159.036 68.2412 158.837 68.0689C158.641 67.8965 158.363 67.8104 158.001 67.8104C157.62 67.8104 157.317 67.8949 157.092 68.0639C156.866 68.2296 156.717 68.4384 156.644 68.6903L154.685 68.5312C154.785 68.0672 154.98 67.6662 155.272 67.3281C155.564 66.9867 155.94 66.7249 156.401 66.5426C156.865 66.357 157.402 66.2642 158.011 66.2642C158.436 66.2642 158.842 66.3139 159.229 66.4134C159.621 66.5128 159.967 66.6669 160.268 66.8757C160.573 67.0845 160.814 67.353 160.989 67.6811C161.165 68.0059 161.253 68.3954 161.253 68.8494V74H159.244V72.9411H159.185C159.062 73.1797 158.898 73.3902 158.692 73.5724C158.487 73.7514 158.24 73.8923 157.952 73.995C157.663 74.0945 157.33 74.1442 156.952 74.1442ZM157.559 72.6825C157.871 72.6825 158.146 72.6212 158.384 72.4986C158.623 72.3726 158.81 72.2036 158.946 71.9915C159.082 71.7794 159.15 71.5391 159.15 71.2706V70.4602C159.084 70.5033 158.992 70.5431 158.876 70.5795C158.764 70.6127 158.636 70.6442 158.494 70.674C158.351 70.7005 158.209 70.7254 158.066 70.7486C157.924 70.7685 157.794 70.7867 157.678 70.8033C157.43 70.8397 157.213 70.8977 157.027 70.9773C156.841 71.0568 156.697 71.1645 156.594 71.3004C156.492 71.433 156.44 71.5987 156.44 71.7976C156.44 72.0859 156.545 72.3063 156.754 72.4588C156.966 72.608 157.234 72.6825 157.559 72.6825ZM166.346 74.1491C165.564 74.1491 164.891 73.9834 164.328 73.652C163.768 73.3172 163.337 72.8532 163.035 72.2599C162.737 71.6667 162.588 70.9839 162.588 70.2116C162.588 69.4295 162.739 68.7434 163.04 68.1534C163.345 67.5601 163.778 67.0978 164.338 66.7663C164.898 66.4316 165.564 66.2642 166.336 66.2642C167.002 66.2642 167.586 66.3852 168.086 66.6271C168.587 66.8691 168.983 67.2088 169.275 67.6463C169.566 68.0838 169.727 68.5975 169.757 69.1875H167.758C167.702 68.8063 167.553 68.4998 167.311 68.2678C167.072 68.0324 166.759 67.9148 166.371 67.9148C166.043 67.9148 165.756 68.0043 165.511 68.1832C165.269 68.3589 165.08 68.6158 164.944 68.9538C164.808 69.2919 164.74 69.7012 164.74 70.1818C164.74 70.669 164.807 71.0833 164.939 71.4247C165.075 71.7661 165.266 72.0263 165.511 72.2053C165.756 72.3842 166.043 72.4737 166.371 72.4737C166.613 72.4737 166.83 72.424 167.022 72.3246C167.218 72.2251 167.379 72.081 167.505 71.892C167.634 71.6998 167.718 71.4695 167.758 71.201H169.757C169.724 71.7843 169.565 72.2981 169.279 72.7422C168.998 73.183 168.608 73.5277 168.111 73.7763C167.614 74.0249 167.026 74.1491 166.346 74.1491ZM175.175 66.3636V67.9545H170.576V66.3636H175.175ZM171.62 64.5341H173.738V71.6534C173.738 71.849 173.768 72.0014 173.827 72.1108C173.887 72.2169 173.97 72.2914 174.076 72.3345C174.185 72.3776 174.311 72.3991 174.454 72.3991C174.553 72.3991 174.653 72.3909 174.752 72.3743C174.851 72.3544 174.928 72.3395 174.981 72.3295L175.314 73.9055C175.208 73.9387 175.059 73.9768 174.866 74.0199C174.674 74.0663 174.44 74.0945 174.165 74.1044C173.655 74.1243 173.207 74.0563 172.823 73.9006C172.442 73.7448 172.145 73.5028 171.933 73.1747C171.721 72.8466 171.617 72.4323 171.62 71.9318V64.5341ZM183.901 66.3636V67.9545H179.188V66.3636H183.901ZM180.267 74V65.8118C180.267 65.2583 180.374 64.7992 180.59 64.4347C180.809 64.0701 181.107 63.7966 181.485 63.6143C181.863 63.4321 182.292 63.3409 182.772 63.3409C183.097 63.3409 183.394 63.3658 183.662 63.4155C183.934 63.4652 184.136 63.5099 184.269 63.5497L183.891 65.1406C183.808 65.1141 183.705 65.0893 183.583 65.0661C183.463 65.0429 183.341 65.0312 183.215 65.0312C182.903 65.0312 182.686 65.1042 182.564 65.25C182.441 65.3925 182.38 65.593 182.38 65.8516V74H180.267ZM185.195 74V66.3636H187.313V74H185.195ZM186.259 65.3793C185.944 65.3793 185.674 65.2749 185.448 65.0661C185.226 64.8539 185.115 64.6004 185.115 64.3054C185.115 64.0137 185.226 63.7635 185.448 63.5547C185.674 63.3426 185.944 63.2365 186.259 63.2365C186.574 63.2365 186.842 63.3426 187.064 63.5547C187.289 63.7635 187.402 64.0137 187.402 64.3054C187.402 64.6004 187.289 64.8539 187.064 65.0661C186.842 65.2749 186.574 65.3793 186.259 65.3793ZM192.489 74.1491C191.704 74.1491 191.028 73.9901 190.461 73.6719C189.897 73.3504 189.463 72.8963 189.158 72.3097C188.853 71.7197 188.701 71.022 188.701 70.2166C188.701 69.4311 188.853 68.7417 189.158 68.1484C189.463 67.5552 189.893 67.0928 190.446 66.7614C191.003 66.4299 191.656 66.2642 192.405 66.2642C192.909 66.2642 193.378 66.3454 193.812 66.5078C194.249 66.6669 194.63 66.9072 194.955 67.2287C195.283 67.5502 195.539 67.9545 195.721 68.4418C195.903 68.9257 195.994 69.4924 195.994 70.142V70.7237H189.546V69.4112H194.001C194.001 69.1063 193.934 68.8362 193.802 68.6009C193.669 68.3655 193.485 68.1816 193.25 68.049C193.018 67.9131 192.748 67.8452 192.44 67.8452C192.118 67.8452 191.833 67.9197 191.585 68.0689C191.339 68.2147 191.147 68.4119 191.008 68.6605C190.869 68.9058 190.797 69.1792 190.794 69.4808V70.7287C190.794 71.1065 190.864 71.433 191.003 71.7081C191.145 71.9832 191.346 72.1953 191.604 72.3445C191.863 72.4936 192.17 72.5682 192.524 72.5682C192.759 72.5682 192.975 72.535 193.17 72.4688C193.366 72.4025 193.533 72.303 193.673 72.1705C193.812 72.0379 193.918 71.8755 193.991 71.6832L195.95 71.8125C195.85 72.2831 195.646 72.6941 195.338 73.0455C195.033 73.3935 194.639 73.6652 194.155 73.8608C193.674 74.053 193.119 74.1491 192.489 74.1491ZM199.494 63.8182V74H197.376V63.8182H199.494ZM204.005 74.1243C203.425 74.1243 202.899 73.9751 202.429 73.6768C201.961 73.3752 201.59 72.9328 201.315 72.3494C201.043 71.7628 200.907 71.0436 200.907 70.1918C200.907 69.3168 201.048 68.5893 201.33 68.0092C201.612 67.4259 201.986 66.9901 202.454 66.7017C202.924 66.41 203.44 66.2642 204 66.2642C204.427 66.2642 204.784 66.3371 205.069 66.483C205.357 66.6255 205.589 66.8045 205.765 67.0199C205.944 67.232 206.08 67.4408 206.172 67.6463H206.237V63.8182H208.35V74H206.262V72.777H206.172C206.073 72.9891 205.932 73.1996 205.75 73.4084C205.571 73.6139 205.337 73.7846 205.049 73.9205C204.764 74.0563 204.416 74.1243 204.005 74.1243ZM204.676 72.4389C205.017 72.4389 205.306 72.3461 205.541 72.1605C205.78 71.9716 205.962 71.7081 206.088 71.37C206.217 71.032 206.282 70.6359 206.282 70.1818C206.282 69.7277 206.219 69.3333 206.093 68.9986C205.967 68.6638 205.785 68.4053 205.546 68.223C205.307 68.0407 205.017 67.9496 204.676 67.9496C204.328 67.9496 204.035 68.044 203.796 68.233C203.557 68.4219 203.377 68.6837 203.254 69.0185C203.131 69.3532 203.07 69.741 203.07 70.1818C203.07 70.6259 203.131 71.0187 203.254 71.3601C203.38 71.6982 203.561 71.9633 203.796 72.1555C204.035 72.3445 204.328 72.4389 204.676 72.4389ZM216.445 68.5412L214.506 68.6605C214.473 68.4948 214.402 68.3456 214.292 68.2131C214.183 68.0772 214.039 67.9695 213.86 67.8899C213.684 67.8071 213.474 67.7656 213.228 67.7656C212.9 67.7656 212.623 67.8352 212.398 67.9744C212.173 68.1103 212.06 68.2926 212.06 68.5213C212.06 68.7036 212.133 68.8577 212.279 68.9837C212.425 69.1096 212.675 69.2107 213.029 69.2869L214.412 69.5653C215.154 69.7178 215.708 69.9631 216.072 70.3011C216.437 70.6392 216.619 71.0833 216.619 71.6335C216.619 72.134 216.471 72.5732 216.176 72.951C215.885 73.3288 215.484 73.6238 214.973 73.8359C214.466 74.0447 213.881 74.1491 213.218 74.1491C212.208 74.1491 211.402 73.9387 210.802 73.5178C210.206 73.0935 209.856 72.5168 209.753 71.7876L211.836 71.6783C211.899 71.9865 212.052 72.2218 212.294 72.3842C212.536 72.5433 212.846 72.6229 213.223 72.6229C213.595 72.6229 213.893 72.5516 214.118 72.4091C214.347 72.2633 214.463 72.076 214.466 71.8473C214.463 71.6551 214.382 71.4976 214.223 71.375C214.064 71.2491 213.818 71.1529 213.487 71.0866L212.164 70.8232C211.419 70.674 210.864 70.4155 210.499 70.0476C210.138 69.6797 209.957 69.2107 209.957 68.6406C209.957 68.1501 210.09 67.7275 210.355 67.3729C210.623 67.0182 210.999 66.7448 211.483 66.5526C211.971 66.3603 212.541 66.2642 213.194 66.2642C214.158 66.2642 214.917 66.468 215.471 66.8757C216.027 67.2834 216.352 67.8385 216.445 68.5412Z" fill="#486581"/>
<rect x="63.6133" y="83" width="272.773" height="4.67242" rx="2.33621" fill="#D9E2EC"/>
<rect x="63.6133" y="91.6724" width="251.082" height="4.67242" rx="2.33621" fill="#D9E2EC"/>
<path d="M64.7023 126.345V117.351H70.1301V118.317H65.7914V121.356H69.849V122.322H65.7914V125.379H70.2003V126.345H64.7023ZM71.9525 126.345V119.6H72.9537V120.654H73.0415C73.182 120.293 73.4089 120.014 73.7222 119.815C74.0354 119.613 74.4116 119.512 74.8508 119.512C75.2957 119.512 75.6661 119.613 75.9618 119.815C76.2604 120.014 76.4931 120.293 76.66 120.654H76.7303C76.903 120.305 77.1621 120.028 77.5075 119.824C77.853 119.616 78.2672 119.512 78.7503 119.512C79.3534 119.512 79.8467 119.701 80.2302 120.078C80.6137 120.453 80.8054 121.037 80.8054 121.83V126.345H79.7691V121.83C79.7691 121.333 79.6329 120.977 79.3607 120.763C79.0884 120.55 78.7678 120.443 78.399 120.443C77.9247 120.443 77.5573 120.586 77.2967 120.873C77.0362 121.157 76.9059 121.517 76.9059 121.953V126.345H75.852V121.725C75.852 121.342 75.7276 121.033 75.4787 120.798C75.2299 120.561 74.9093 120.443 74.517 120.443C74.2477 120.443 73.9959 120.514 73.7617 120.658C73.5304 120.801 73.3431 121 73.1996 121.255C73.0591 121.507 72.9888 121.798 72.9888 122.129V126.345H71.9525ZM84.6852 126.503C84.2578 126.503 83.8699 126.422 83.5215 126.261C83.1731 126.097 82.8965 125.862 82.6915 125.554C82.4866 125.244 82.3841 124.869 82.3841 124.43C82.3841 124.044 82.4602 123.73 82.6125 123.49C82.7647 123.247 82.9682 123.057 83.2229 122.919C83.4776 122.782 83.7586 122.679 84.066 122.612C84.3763 122.542 84.6881 122.486 85.0014 122.445C85.4112 122.393 85.7435 122.353 85.9982 122.327C86.2558 122.297 86.4432 122.249 86.5603 122.182C86.6803 122.114 86.7404 121.997 86.7404 121.83V121.795C86.7404 121.362 86.6218 121.025 86.3847 120.785C86.1504 120.545 85.7947 120.425 85.3176 120.425C84.8228 120.425 84.4349 120.534 84.1538 120.75C83.8728 120.967 83.6752 121.198 83.561 121.444L82.5773 121.093C82.753 120.683 82.9872 120.364 83.28 120.135C83.5756 119.904 83.8977 119.743 84.2461 119.652C84.5974 119.559 84.9428 119.512 85.2824 119.512C85.4991 119.512 85.7479 119.538 86.029 119.591C86.3129 119.641 86.5867 119.745 86.8501 119.903C87.1165 120.061 87.3376 120.299 87.5132 120.618C87.6889 120.938 87.7767 121.365 87.7767 121.901V126.345H86.7404V125.431H86.6877C86.6174 125.578 86.5003 125.734 86.3363 125.901C86.1724 126.068 85.9543 126.21 85.682 126.327C85.4098 126.444 85.0775 126.503 84.6852 126.503ZM84.8433 125.572C85.2531 125.572 85.5986 125.491 85.8796 125.33C86.1636 125.169 86.3773 124.961 86.5208 124.707C86.6672 124.452 86.7404 124.184 86.7404 123.903V122.955C86.6964 123.007 86.5998 123.056 86.4505 123.1C86.3041 123.141 86.1343 123.177 85.9411 123.209C85.7508 123.239 85.5649 123.265 85.3834 123.288C85.2048 123.309 85.0599 123.326 84.9487 123.341C84.6793 123.376 84.4276 123.433 84.1934 123.512C83.9621 123.588 83.7747 123.704 83.6313 123.859C83.4907 124.011 83.4205 124.219 83.4205 124.483C83.4205 124.843 83.5537 125.115 83.8201 125.3C84.0894 125.481 84.4305 125.572 84.8433 125.572ZM89.6683 126.345V119.6H90.7046V126.345H89.6683ZM90.1953 118.475C89.9932 118.475 89.8191 118.407 89.6727 118.269C89.5292 118.131 89.4575 117.966 89.4575 117.773C89.4575 117.58 89.5292 117.414 89.6727 117.277C89.8191 117.139 89.9932 117.07 90.1953 117.07C90.3973 117.07 90.57 117.139 90.7134 117.277C90.8598 117.414 90.933 117.58 90.933 117.773C90.933 117.966 90.8598 118.131 90.7134 118.269C90.57 118.407 90.3973 118.475 90.1953 118.475ZM93.6392 117.351V126.345H92.6028V117.351H93.6392Z" fill="#486581"/>
<rect x="64.0549" y="138.853" width="186.117" height="33.1167" rx="3.05999" fill="#FAFCFE"/>
<rect x="64.0549" y="138.853" width="186.117" height="33.1167" rx="3.05999" stroke="#C9D4DE" stroke-width="0.88329"/>
<rect x="259.055" y="138.853" width="76.1167" height="33.1167" rx="3.05999" fill="#FAFCFE"/>
<rect x="259.055" y="138.853" width="76.1167" height="33.1167" rx="3.05999" stroke="#C9D4DE" stroke-width="0.88329"/>
<path d="M64.7023 194.411V185.418H67.7412C68.4467 185.418 69.0234 185.545 69.4713 185.8C69.9222 186.051 70.2559 186.393 70.4726 186.823C70.6892 187.253 70.7975 187.733 70.7975 188.263C70.7975 188.793 70.6892 189.275 70.4726 189.708C70.2589 190.141 69.9281 190.487 69.4801 190.744C69.0322 190.999 68.4584 191.126 67.7587 191.126H65.5806V190.16H67.7236C68.2066 190.16 68.5945 190.077 68.8873 189.91C69.1801 189.743 69.3923 189.518 69.524 189.234C69.6587 188.947 69.726 188.623 69.726 188.263C69.726 187.903 69.6587 187.581 69.524 187.297C69.3923 187.013 69.1786 186.791 68.8829 186.63C68.5872 186.466 68.1949 186.384 67.706 186.384H65.7914V194.411H64.7023ZM73.4477 190.354V194.411H72.4114V185.418H73.4477V188.72H73.5355C73.6936 188.372 73.9308 188.095 74.2469 187.89C74.5661 187.682 74.9905 187.578 75.5204 187.578C75.9801 187.578 76.3826 187.67 76.7281 187.855C77.0735 188.036 77.3414 188.316 77.5317 188.694C77.7249 189.068 77.8215 189.546 77.8215 190.125V194.411H76.7852V190.195C76.7852 189.66 76.6461 189.245 76.368 188.953C76.0928 188.657 75.7107 188.509 75.2218 188.509C74.8822 188.509 74.5778 188.581 74.3084 188.724C74.042 188.868 73.8312 189.077 73.6761 189.352C73.5238 189.627 73.4477 189.961 73.4477 190.354ZM82.4577 194.552C81.8487 194.552 81.3145 194.407 80.8548 194.117C80.3981 193.827 80.041 193.422 79.7833 192.901C79.5286 192.379 79.4013 191.77 79.4013 191.074C79.4013 190.371 79.5286 189.758 79.7833 189.234C80.041 188.71 80.3981 188.303 80.8548 188.013C81.3145 187.723 81.8487 187.578 82.4577 187.578C83.0666 187.578 83.5994 187.723 84.0561 188.013C84.5158 188.303 84.8729 188.71 85.1276 189.234C85.3853 189.758 85.5141 190.371 85.5141 191.074C85.5141 191.77 85.3853 192.379 85.1276 192.901C84.8729 193.422 84.5158 193.827 84.0561 194.117C83.5994 194.407 83.0666 194.552 82.4577 194.552ZM82.4577 193.621C82.9202 193.621 83.3008 193.502 83.5994 193.265C83.898 193.028 84.1191 192.716 84.2625 192.33C84.406 191.943 84.4777 191.525 84.4777 191.074C84.4777 190.623 84.406 190.203 84.2625 189.813C84.1191 189.424 83.898 189.109 83.5994 188.869C83.3008 188.629 82.9202 188.509 82.4577 188.509C81.9951 188.509 81.6145 188.629 81.3159 188.869C81.0173 189.109 80.7963 189.424 80.6528 189.813C80.5094 190.203 80.4377 190.623 80.4377 191.074C80.4377 191.525 80.5094 191.943 80.6528 192.33C80.7963 192.716 81.0173 193.028 81.3159 193.265C81.6145 193.502 81.9951 193.621 82.4577 193.621ZM88.1324 190.354V194.411H87.0961V187.666H88.0973V188.72H88.1851C88.3432 188.377 88.5833 188.102 88.9053 187.894C89.2273 187.684 89.643 187.578 90.1524 187.578C90.6091 187.578 91.0087 187.672 91.3513 187.859C91.6938 188.044 91.9602 188.325 92.1505 188.702C92.3408 189.077 92.4359 189.551 92.4359 190.125V194.411H91.3996V190.195C91.3996 189.666 91.262 189.253 90.9868 188.957C90.7116 188.658 90.3339 188.509 89.8538 188.509C89.523 188.509 89.2273 188.581 88.9668 188.724C88.7091 188.868 88.5057 189.077 88.3564 189.352C88.2071 189.627 88.1324 189.961 88.1324 190.354ZM97.1577 194.552C96.5078 194.552 95.9472 194.408 95.4759 194.121C95.0074 193.831 94.6459 193.427 94.3912 192.909C94.1394 192.388 94.0135 191.782 94.0135 191.091C94.0135 190.4 94.1394 189.791 94.3912 189.264C94.6459 188.735 95.0001 188.322 95.4539 188.026C95.9106 187.727 96.4434 187.578 97.0524 187.578C97.4037 187.578 97.7506 187.637 98.0931 187.754C98.4356 187.871 98.7474 188.061 99.0285 188.325C99.3095 188.585 99.5335 188.931 99.7003 189.361C99.8672 189.791 99.9506 190.321 99.9506 190.951V191.39H94.7513V190.494H98.8967C98.8967 190.113 98.8206 189.774 98.6684 189.475C98.5191 189.177 98.3054 188.941 98.0272 188.768C97.752 188.596 97.4271 188.509 97.0524 188.509C96.6396 188.509 96.2824 188.612 95.9809 188.817C95.6822 189.019 95.4524 189.282 95.2914 189.607C95.1304 189.932 95.0499 190.28 95.0499 190.652V191.249C95.0499 191.759 95.1377 192.191 95.3134 192.545C95.492 192.896 95.7393 193.164 96.0555 193.348C96.3717 193.53 96.7391 193.621 97.1577 193.621C97.43 193.621 97.6759 193.583 97.8955 193.507C98.118 193.427 98.3097 193.31 98.4708 193.155C98.6318 192.997 98.7562 192.801 98.844 192.567L99.8453 192.848C99.7399 193.187 99.5627 193.486 99.3139 193.744C99.0651 193.998 98.7577 194.197 98.3917 194.341C98.0258 194.481 97.6144 194.552 97.1577 194.552Z" fill="#486581"/>
<rect x="64.0549" y="206.919" width="186.117" height="33.1167" rx="3.05999" fill="#FAFCFE"/>
<rect x="64.0549" y="206.919" width="186.117" height="33.1167" rx="3.05999" stroke="#C9D4DE" stroke-width="0.88329"/>
<rect x="259.055" y="206.919" width="76.1167" height="33.1167" rx="3.05999" fill="#FAFCFE"/>
<rect x="259.055" y="206.919" width="76.1167" height="33.1167" rx="3.05999" stroke="#C9D4DE" stroke-width="0.88329"/>
<rect x="63.6133" y="256.478" width="188.066" height="28.5164" rx="14.2582" fill="#2680C2"/>
<path d="M93.2946 268.937H91.3863C91.3514 268.69 91.2802 268.471 91.1728 268.279C91.0653 268.084 90.9273 267.919 90.7589 267.782C90.5904 267.646 90.3958 267.541 90.175 267.468C89.9572 267.396 89.7205 267.36 89.4649 267.36C89.003 267.36 88.6007 267.474 88.258 267.704C87.9152 267.93 87.6495 268.261 87.4607 268.697C87.2719 269.13 87.1775 269.656 87.1775 270.274C87.1775 270.91 87.2719 271.445 87.4607 271.878C87.6524 272.31 87.9196 272.637 88.2623 272.858C88.6051 273.079 89.0016 273.189 89.4518 273.189C89.7045 273.189 89.9383 273.156 90.1533 273.089C90.3711 273.022 90.5643 272.925 90.7327 272.797C90.9012 272.666 91.0406 272.508 91.151 272.322C91.2643 272.136 91.3427 271.924 91.3863 271.686L93.2946 271.695C93.2452 272.104 93.1218 272.499 92.9243 272.88C92.7297 273.257 92.4668 273.596 92.1357 273.895C91.8074 274.191 91.4153 274.426 90.9593 274.601C90.5062 274.772 89.9935 274.858 89.4213 274.858C88.6254 274.858 87.9138 274.678 87.2864 274.318C86.6619 273.957 86.1681 273.436 85.805 272.753C85.4449 272.071 85.2648 271.244 85.2648 270.274C85.2648 269.301 85.4478 268.473 85.8137 267.791C86.1797 267.108 86.6764 266.588 87.3038 266.231C87.9312 265.871 88.637 265.691 89.4213 265.691C89.9383 265.691 90.4176 265.763 90.8591 265.909C91.3035 266.054 91.6971 266.266 92.0398 266.545C92.3826 266.821 92.6614 267.159 92.8763 267.56C93.0942 267.961 93.2336 268.42 93.2946 268.937ZM94.6126 274.736V268.044H96.412V269.211H96.4817C96.6037 268.796 96.8085 268.482 97.096 268.27C97.3836 268.055 97.7147 267.948 98.0894 267.948C98.1824 267.948 98.2826 267.954 98.39 267.965C98.4975 267.977 98.5919 267.993 98.6732 268.013V269.66C98.5861 269.634 98.4656 269.611 98.3116 269.59C98.1577 269.57 98.0168 269.56 97.889 269.56C97.616 269.56 97.372 269.619 97.157 269.738C96.945 269.855 96.7765 270.017 96.6516 270.226C96.5296 270.436 96.4686 270.677 96.4686 270.95V274.736H94.6126ZM102.371 274.867C101.683 274.867 101.09 274.727 100.594 274.448C100.1 274.167 99.7193 273.769 99.452 273.254C99.1848 272.737 99.0512 272.126 99.0512 271.42C99.0512 270.732 99.1848 270.128 99.452 269.608C99.7193 269.088 100.095 268.683 100.58 268.392C101.068 268.102 101.641 267.956 102.297 267.956C102.739 267.956 103.15 268.028 103.53 268.17C103.914 268.309 104.248 268.52 104.532 268.802C104.82 269.083 105.043 269.438 105.203 269.865C105.363 270.289 105.443 270.786 105.443 271.355V271.865H99.7919V270.714H103.696C103.696 270.447 103.638 270.21 103.521 270.004C103.405 269.798 103.244 269.637 103.038 269.521C102.834 269.401 102.598 269.342 102.328 269.342C102.046 269.342 101.796 269.407 101.578 269.538C101.363 269.666 101.195 269.839 101.073 270.056C100.951 270.271 100.888 270.511 100.885 270.775V271.869C100.885 272.2 100.946 272.486 101.068 272.727C101.193 272.968 101.369 273.154 101.596 273.285C101.822 273.416 102.091 273.481 102.402 273.481C102.608 273.481 102.797 273.452 102.968 273.394C103.139 273.336 103.286 273.249 103.408 273.132C103.53 273.016 103.623 272.874 103.687 272.706L105.404 272.819C105.316 273.231 105.138 273.591 104.868 273.899C104.6 274.204 104.255 274.442 103.831 274.614C103.41 274.782 102.923 274.867 102.371 274.867ZM108.562 274.862C108.135 274.862 107.755 274.788 107.421 274.64C107.087 274.489 106.823 274.267 106.628 273.973C106.436 273.677 106.34 273.308 106.34 272.867C106.34 272.495 106.409 272.183 106.545 271.93C106.682 271.677 106.868 271.474 107.103 271.32C107.338 271.166 107.605 271.05 107.905 270.971C108.207 270.893 108.523 270.838 108.854 270.806C109.244 270.765 109.557 270.727 109.795 270.693C110.034 270.655 110.206 270.6 110.314 270.527C110.421 270.454 110.475 270.347 110.475 270.205V270.178C110.475 269.903 110.388 269.689 110.214 269.538C110.042 269.387 109.798 269.311 109.482 269.311C109.148 269.311 108.882 269.386 108.684 269.534C108.487 269.679 108.356 269.862 108.292 270.083L106.576 269.943C106.663 269.537 106.834 269.185 107.09 268.889C107.345 268.59 107.675 268.36 108.079 268.2C108.485 268.038 108.956 267.956 109.49 267.956C109.862 267.956 110.218 268 110.558 268.087C110.901 268.174 111.204 268.309 111.468 268.492C111.736 268.675 111.946 268.911 112.1 269.198C112.254 269.483 112.331 269.824 112.331 270.222V274.736H110.571V273.808H110.519C110.411 274.017 110.267 274.201 110.087 274.361C109.907 274.518 109.691 274.641 109.438 274.731C109.185 274.819 108.894 274.862 108.562 274.862ZM109.094 273.581C109.367 273.581 109.608 273.528 109.817 273.42C110.026 273.31 110.19 273.162 110.31 272.976C110.429 272.79 110.488 272.579 110.488 272.344V271.634C110.43 271.671 110.35 271.706 110.249 271.738C110.15 271.767 110.038 271.795 109.913 271.821C109.788 271.844 109.663 271.866 109.538 271.886C109.413 271.904 109.3 271.92 109.199 271.934C108.981 271.966 108.79 272.017 108.628 272.087C108.465 272.157 108.339 272.251 108.249 272.37C108.159 272.486 108.114 272.631 108.114 272.806C108.114 273.058 108.205 273.252 108.388 273.385C108.574 273.516 108.809 273.581 109.094 273.581ZM117.331 268.044V269.438H113.301V268.044H117.331ZM114.216 266.44H116.072V272.679C116.072 272.851 116.098 272.984 116.15 273.08C116.202 273.173 116.275 273.239 116.368 273.276C116.464 273.314 116.574 273.333 116.699 273.333C116.786 273.333 116.873 273.326 116.96 273.311C117.048 273.294 117.114 273.281 117.161 273.272L117.453 274.653C117.36 274.682 117.229 274.716 117.061 274.753C116.892 274.794 116.687 274.819 116.446 274.827C115.999 274.845 115.607 274.785 115.27 274.649C114.936 274.512 114.676 274.3 114.49 274.013C114.304 273.725 114.213 273.362 114.216 272.923V266.44ZM121.518 274.867C120.829 274.867 120.237 274.727 119.74 274.448C119.246 274.167 118.866 273.769 118.599 273.254C118.331 272.737 118.198 272.126 118.198 271.42C118.198 270.732 118.331 270.128 118.599 269.608C118.866 269.088 119.242 268.683 119.727 268.392C120.215 268.102 120.787 267.956 121.444 267.956C121.885 267.956 122.296 268.028 122.677 268.17C123.06 268.309 123.394 268.52 123.679 268.802C123.966 269.083 124.19 269.438 124.35 269.865C124.51 270.289 124.589 270.786 124.589 271.355V271.865H118.938V270.714H122.842C122.842 270.447 122.784 270.21 122.668 270.004C122.552 269.798 122.391 269.637 122.184 269.521C121.981 269.401 121.744 269.342 121.474 269.342C121.192 269.342 120.943 269.407 120.725 269.538C120.51 269.666 120.341 269.839 120.219 270.056C120.097 270.271 120.035 270.511 120.032 270.775V271.869C120.032 272.2 120.093 272.486 120.215 272.727C120.34 272.968 120.516 273.154 120.742 273.285C120.969 273.416 121.237 273.481 121.548 273.481C121.754 273.481 121.943 273.452 122.115 273.394C122.286 273.336 122.433 273.249 122.555 273.132C122.677 273.016 122.77 272.874 122.834 272.706L124.55 272.819C124.463 273.231 124.284 273.591 124.014 273.899C123.747 274.204 123.401 274.442 122.977 274.614C122.556 274.782 122.07 274.867 121.518 274.867ZM130.496 270.867V274.736H128.64V268.044H130.409V269.224H130.488C130.636 268.835 130.884 268.527 131.233 268.301C131.581 268.071 132.004 267.956 132.5 267.956C132.965 267.956 133.37 268.058 133.716 268.261C134.062 268.465 134.33 268.755 134.522 269.133C134.714 269.508 134.81 269.955 134.81 270.475V274.736H132.954V270.806C132.957 270.396 132.852 270.077 132.64 269.847C132.428 269.615 132.136 269.499 131.764 269.499C131.514 269.499 131.294 269.553 131.102 269.66C130.913 269.767 130.765 269.924 130.658 270.131C130.553 270.334 130.499 270.579 130.496 270.867ZM139.322 274.867C138.634 274.867 138.041 274.727 137.545 274.448C137.051 274.167 136.67 273.769 136.403 273.254C136.136 272.737 136.002 272.126 136.002 271.42C136.002 270.732 136.136 270.128 136.403 269.608C136.67 269.088 137.047 268.683 137.532 268.392C138.02 268.102 138.592 267.956 139.248 267.956C139.69 267.956 140.101 268.028 140.481 268.17C140.865 268.309 141.199 268.52 141.483 268.802C141.771 269.083 141.995 269.438 142.154 269.865C142.314 270.289 142.394 270.786 142.394 271.355V271.865H136.743V270.714H140.647C140.647 270.447 140.589 270.21 140.473 270.004C140.356 269.798 140.195 269.637 139.989 269.521C139.786 269.401 139.549 269.342 139.279 269.342C138.997 269.342 138.747 269.407 138.529 269.538C138.314 269.666 138.146 269.839 138.024 270.056C137.902 270.271 137.84 270.511 137.837 270.775V271.869C137.837 272.2 137.898 272.486 138.02 272.727C138.145 272.968 138.32 273.154 138.547 273.285C138.773 273.416 139.042 273.481 139.353 273.481C139.559 273.481 139.748 273.452 139.919 273.394C140.091 273.336 140.237 273.249 140.359 273.132C140.481 273.016 140.574 272.874 140.638 272.706L142.355 272.819C142.268 273.231 142.089 273.591 141.819 273.899C141.552 274.204 141.206 274.442 140.782 274.614C140.361 274.782 139.874 274.867 139.322 274.867ZM144.877 274.736L143.056 268.044H144.934L145.971 272.54H146.032L147.113 268.044H148.956L150.053 272.514H150.11L151.13 268.044H153.003L151.186 274.736H149.221L148.071 270.527H147.988L146.838 274.736H144.877ZM159.857 274.867C159.171 274.867 158.581 274.721 158.088 274.431C157.597 274.137 157.219 273.731 156.955 273.211C156.693 272.691 156.563 272.093 156.563 271.416C156.563 270.73 156.695 270.129 156.959 269.612C157.226 269.092 157.606 268.687 158.096 268.396C158.587 268.103 159.171 267.956 159.848 267.956C160.432 267.956 160.943 268.062 161.382 268.275C161.82 268.487 162.167 268.784 162.423 269.168C162.678 269.551 162.819 270.001 162.845 270.518H161.094C161.045 270.184 160.914 269.916 160.702 269.712C160.493 269.506 160.218 269.403 159.878 269.403C159.591 269.403 159.34 269.481 159.125 269.638C158.913 269.792 158.747 270.017 158.628 270.314C158.509 270.61 158.449 270.969 158.449 271.39C158.449 271.817 158.507 272.18 158.624 272.479C158.743 272.778 158.91 273.006 159.125 273.163C159.34 273.32 159.591 273.398 159.878 273.398C160.09 273.398 160.281 273.355 160.449 273.268C160.621 273.18 160.761 273.054 160.872 272.888C160.985 272.72 161.059 272.518 161.094 272.283H162.845C162.816 272.794 162.677 273.244 162.427 273.634C162.18 274.02 161.839 274.322 161.403 274.54C160.968 274.758 160.452 274.867 159.857 274.867ZM168.325 271.886V268.044H170.181V274.736H168.399V273.52H168.33C168.179 273.912 167.927 274.228 167.576 274.466C167.227 274.704 166.802 274.823 166.299 274.823C165.852 274.823 165.459 274.721 165.119 274.518C164.779 274.315 164.513 274.026 164.321 273.651C164.133 273.276 164.037 272.828 164.034 272.305V268.044H165.89V271.974C165.893 272.369 165.999 272.681 166.208 272.91C166.417 273.14 166.697 273.254 167.049 273.254C167.272 273.254 167.482 273.204 167.676 273.102C167.871 272.997 168.028 272.843 168.147 272.64C168.269 272.437 168.328 272.186 168.325 271.886ZM177.234 269.952L175.535 270.056C175.506 269.911 175.444 269.781 175.348 269.664C175.252 269.545 175.125 269.451 174.969 269.381C174.815 269.309 174.63 269.272 174.415 269.272C174.128 269.272 173.885 269.333 173.688 269.455C173.49 269.574 173.391 269.734 173.391 269.934C173.391 270.094 173.455 270.229 173.583 270.34C173.711 270.45 173.93 270.539 174.241 270.605L175.452 270.849C176.103 270.983 176.588 271.198 176.907 271.494C177.227 271.791 177.387 272.18 177.387 272.662C177.387 273.101 177.257 273.485 176.999 273.817C176.743 274.148 176.392 274.406 175.945 274.592C175.5 274.775 174.988 274.867 174.407 274.867C173.521 274.867 172.815 274.682 172.289 274.313C171.766 273.941 171.46 273.436 171.37 272.797L173.195 272.701C173.251 272.971 173.384 273.178 173.596 273.32C173.808 273.459 174.08 273.529 174.411 273.529C174.736 273.529 174.998 273.467 175.195 273.342C175.396 273.214 175.497 273.05 175.5 272.849C175.497 272.681 175.426 272.543 175.287 272.435C175.147 272.325 174.932 272.241 174.642 272.183L173.483 271.952C172.829 271.821 172.343 271.594 172.023 271.272C171.707 270.95 171.548 270.539 171.548 270.039C171.548 269.609 171.665 269.239 171.897 268.928C172.132 268.617 172.462 268.378 172.886 268.209C173.313 268.041 173.813 267.956 174.385 267.956C175.23 267.956 175.895 268.135 176.38 268.492C176.868 268.85 177.153 269.336 177.234 269.952ZM182.115 268.044V269.438H178.085V268.044H182.115ZM179 266.44H180.856V272.679C180.856 272.851 180.882 272.984 180.934 273.08C180.987 273.173 181.059 273.239 181.152 273.276C181.248 273.314 181.358 273.333 181.483 273.333C181.57 273.333 181.658 273.326 181.745 273.311C181.832 273.294 181.899 273.281 181.945 273.272L182.237 274.653C182.144 274.682 182.013 274.716 181.845 274.753C181.677 274.794 181.472 274.819 181.231 274.827C180.783 274.845 180.391 274.785 180.054 274.649C179.72 274.512 179.46 274.3 179.274 274.013C179.088 273.725 178.997 273.362 179 272.923V266.44ZM186.276 274.867C185.599 274.867 185.014 274.723 184.52 274.435C184.029 274.145 183.65 273.741 183.383 273.224C183.116 272.704 182.982 272.101 182.982 271.416C182.982 270.725 183.116 270.12 183.383 269.603C183.65 269.083 184.029 268.68 184.52 268.392C185.014 268.102 185.599 267.956 186.276 267.956C186.953 267.956 187.537 268.102 188.027 268.392C188.521 268.68 188.902 269.083 189.169 269.603C189.436 270.12 189.57 270.725 189.57 271.416C189.57 272.101 189.436 272.704 189.169 273.224C188.902 273.741 188.521 274.145 188.027 274.435C187.537 274.723 186.953 274.867 186.276 274.867ZM186.285 273.429C186.593 273.429 186.85 273.342 187.056 273.167C187.262 272.99 187.417 272.749 187.522 272.444C187.63 272.139 187.683 271.792 187.683 271.403C187.683 271.014 187.63 270.666 187.522 270.361C187.417 270.056 187.262 269.815 187.056 269.638C186.85 269.461 186.593 269.372 186.285 269.372C185.974 269.372 185.712 269.461 185.5 269.638C185.291 269.815 185.133 270.056 185.026 270.361C184.921 270.666 184.869 271.014 184.869 271.403C184.869 271.792 184.921 272.139 185.026 272.444C185.133 272.749 185.291 272.99 185.5 273.167C185.712 273.342 185.974 273.429 186.285 273.429ZM190.777 274.736V268.044H192.546V269.224H192.624C192.763 268.832 192.996 268.523 193.321 268.296C193.646 268.07 194.036 267.956 194.489 267.956C194.948 267.956 195.338 268.071 195.661 268.301C195.983 268.527 196.198 268.835 196.306 269.224H196.375C196.512 268.841 196.759 268.534 197.116 268.305C197.476 268.073 197.902 267.956 198.393 267.956C199.017 267.956 199.524 268.155 199.913 268.553C200.305 268.948 200.501 269.509 200.501 270.235V274.736H198.65V270.601C198.65 270.229 198.551 269.95 198.353 269.765C198.156 269.579 197.909 269.486 197.613 269.486C197.276 269.486 197.013 269.593 196.824 269.808C196.635 270.02 196.541 270.3 196.541 270.649V274.736H194.742V270.562C194.742 270.234 194.647 269.972 194.458 269.778C194.272 269.583 194.027 269.486 193.722 269.486C193.516 269.486 193.33 269.538 193.164 269.643C193.002 269.744 192.872 269.888 192.777 270.074C192.681 270.257 192.633 270.472 192.633 270.719V274.736H190.777ZM208.406 268.044V269.438H204.276V268.044H208.406ZM205.221 274.736V267.56C205.221 267.075 205.315 266.673 205.504 266.353C205.696 266.034 205.957 265.794 206.288 265.634C206.62 265.474 206.996 265.395 207.417 265.395C207.702 265.395 207.962 265.416 208.197 265.46C208.435 265.503 208.612 265.543 208.728 265.578L208.397 266.972C208.325 266.949 208.235 266.927 208.127 266.906C208.023 266.886 207.915 266.876 207.805 266.876C207.532 266.876 207.341 266.94 207.234 267.068C207.126 267.193 207.073 267.368 207.073 267.595V274.736H205.221ZM209.54 274.736V268.044H211.396V274.736H209.54ZM210.472 267.181C210.196 267.181 209.96 267.089 209.762 266.906C209.567 266.721 209.47 266.498 209.47 266.24C209.47 265.984 209.567 265.765 209.762 265.582C209.96 265.396 210.196 265.303 210.472 265.303C210.748 265.303 210.983 265.396 211.178 265.582C211.376 265.765 211.474 265.984 211.474 266.24C211.474 266.498 211.376 266.721 211.178 266.906C210.983 267.089 210.748 267.181 210.472 267.181ZM215.933 274.867C215.244 274.867 214.652 274.727 214.155 274.448C213.661 274.167 213.281 273.769 213.013 273.254C212.746 272.737 212.613 272.126 212.613 271.42C212.613 270.732 212.746 270.128 213.013 269.608C213.281 269.088 213.657 268.683 214.142 268.392C214.63 268.102 215.202 267.956 215.858 267.956C216.3 267.956 216.711 268.028 217.091 268.17C217.475 268.309 217.809 268.52 218.094 268.802C218.381 269.083 218.605 269.438 218.765 269.865C218.924 270.289 219.004 270.786 219.004 271.355V271.865H213.353V270.714H217.257C217.257 270.447 217.199 270.21 217.083 270.004C216.967 269.798 216.805 269.637 216.599 269.521C216.396 269.401 216.159 269.342 215.889 269.342C215.607 269.342 215.357 269.407 215.14 269.538C214.925 269.666 214.756 269.839 214.634 270.056C214.512 270.271 214.45 270.511 214.447 270.775V271.869C214.447 272.2 214.508 272.486 214.63 272.727C214.755 272.968 214.93 273.154 215.157 273.285C215.384 273.416 215.652 273.481 215.963 273.481C216.169 273.481 216.358 273.452 216.529 273.394C216.701 273.336 216.848 273.249 216.969 273.132C217.091 273.016 217.184 272.874 217.248 272.706L218.965 272.819C218.878 273.231 218.699 273.591 218.429 273.899C218.162 274.204 217.816 274.442 217.392 274.614C216.971 274.782 216.484 274.867 215.933 274.867ZM222.071 265.813V274.736H220.215V265.813H222.071ZM226.024 274.845C225.516 274.845 225.056 274.714 224.643 274.453C224.234 274.188 223.908 273.801 223.667 273.289C223.429 272.775 223.31 272.145 223.31 271.398C223.31 270.632 223.433 269.994 223.68 269.486C223.927 268.975 224.255 268.593 224.665 268.34C225.077 268.084 225.529 267.956 226.02 267.956C226.395 267.956 226.707 268.02 226.957 268.148C227.209 268.273 227.413 268.43 227.567 268.619C227.724 268.805 227.843 268.988 227.924 269.168H227.981V265.813H229.832V274.736H228.002V273.664H227.924C227.837 273.85 227.713 274.034 227.554 274.217C227.397 274.397 227.192 274.547 226.939 274.666C226.689 274.785 226.384 274.845 226.024 274.845ZM226.612 273.368C226.912 273.368 227.164 273.286 227.371 273.124C227.58 272.958 227.739 272.727 227.85 272.431C227.963 272.135 228.02 271.788 228.02 271.39C228.02 270.992 227.965 270.646 227.854 270.353C227.744 270.059 227.584 269.833 227.375 269.673C227.166 269.513 226.912 269.433 226.612 269.433C226.308 269.433 226.05 269.516 225.841 269.682C225.632 269.847 225.474 270.077 225.366 270.37C225.259 270.664 225.205 271.003 225.205 271.39C225.205 271.779 225.259 272.123 225.366 272.422C225.477 272.719 225.635 272.951 225.841 273.119C226.05 273.285 226.308 273.368 226.612 273.368Z" fill="white"/>
</g>
<defs>
<filter id="filter0_dd_1216_249443" x="27.0244" y="34" width="345.951" height="300.171" filterUnits="userSpaceOnUse" color-interpolation-filters="sRGB">
<feFlood flood-opacity="0" result="BackgroundImageFix"/>
<feColorMatrix in="SourceAlpha" type="matrix" values="0 0 0 0 0 0 0 0 0 0 0 0 0 0 0 0 0 0 127 0" result="hardAlpha"/>
<feMorphology radius="2.09815" operator="erode" in="SourceAlpha" result="effect1_dropShadow_1216_249443"/>
<feOffset dy="4.19629"/>
<feGaussianBlur stdDeviation="3.14722"/>
<feComposite in2="hardAlpha" operator="out"/>
<feColorMatrix type="matrix" values="0 0 0 0 0 0 0 0 0 0 0 0 0 0 0 0 0 0 0.03 0"/>
<feBlend mode="normal" in2="BackgroundImageFix" result="effect1_dropShadow_1216_249443"/>
<feColorMatrix in="SourceAlpha" type="matrix" values="0 0 0 0 0 0 0 0 0 0 0 0 0 0 0 0 0 0 127 0" result="hardAlpha"/>
<feMorphology radius="4.19629" operator="erode" in="SourceAlpha" result="effect2_dropShadow_1216_249443"/>
<feOffset dy="12.5889"/>
<feGaussianBlur stdDeviation="8.39259"/>
<feComposite in2="hardAlpha" operator="out"/>
<feColorMatrix type="matrix" values="0 0 0 0 0 0 0 0 0 0 0 0 0 0 0 0 0 0 0.08 0"/>
<feBlend mode="normal" in2="effect1_dropShadow_1216_249443" result="effect2_dropShadow_1216_249443"/>
<feBlend mode="normal" in="SourceGraphic" in2="effect2_dropShadow_1216_249443" result="shape"/>
</filter>
</defs>
</svg>
