<svg width="500" height="348" viewBox="0 0 500 348" fill="none" xmlns="http://www.w3.org/2000/svg">
<g filter="url(#filter0_dd_1232_68939)">
<g clip-path="url(#clip0_1232_68939)">
<rect x="119" y="44.7173" width="262" height="257.565" rx="9.94677" fill="white"/>
<path d="M135.885 76.7173V66.5355H142.746V68.3103H138.038V70.7365H142.393V72.5113H138.038V74.9424H142.766V76.7173H135.885ZM146.187 69.0809L147.589 71.7507L149.026 69.0809H151.199L148.986 72.8991L151.258 76.7173H149.096L147.589 74.0774L146.108 76.7173H143.92L146.187 72.8991L144 69.0809H146.187ZM152.456 79.5809V69.0809H154.545V70.3636H154.639C154.732 70.1581 154.866 69.9493 155.042 69.7372C155.221 69.5217 155.453 69.3428 155.738 69.2002C156.026 69.0544 156.384 68.9815 156.812 68.9815C157.368 68.9815 157.882 69.1273 158.353 69.419C158.823 69.7073 159.2 70.1432 159.481 70.7265C159.763 71.3065 159.904 72.034 159.904 72.909C159.904 73.7608 159.766 74.4801 159.491 75.0667C159.22 75.6501 158.848 76.0925 158.378 76.3941C157.91 76.6924 157.387 76.8416 156.807 76.8416C156.396 76.8416 156.046 76.7736 155.758 76.6377C155.473 76.5018 155.239 76.3312 155.057 76.1257C154.874 75.9169 154.735 75.7064 154.639 75.4943H154.574V79.5809H152.456ZM154.53 72.8991C154.53 73.3532 154.593 73.7492 154.719 74.0873C154.845 74.4254 155.027 74.6889 155.265 74.8778C155.504 75.0634 155.794 75.1562 156.135 75.1562C156.48 75.1562 156.772 75.0617 157.01 74.8728C157.249 74.6806 157.43 74.4154 157.552 74.0774C157.678 73.736 157.741 73.3432 157.741 72.8991C157.741 72.4583 157.68 72.0705 157.557 71.7358C157.435 71.401 157.254 71.1392 157.015 70.9502C156.777 70.7613 156.483 70.6669 156.135 70.6669C155.791 70.6669 155.499 70.758 155.26 70.9403C155.025 71.1226 154.845 71.3811 154.719 71.7159C154.593 72.0506 154.53 72.445 154.53 72.8991ZM164.766 76.8664C163.994 76.8664 163.326 76.7024 162.763 76.3742C162.202 76.0428 161.77 75.5821 161.465 74.9921C161.16 74.3989 161.008 73.7111 161.008 72.9289C161.008 72.1401 161.16 71.4507 161.465 70.8608C161.77 70.2675 162.202 69.8068 162.763 69.4786C163.326 69.1472 163.994 68.9815 164.766 68.9815C165.538 68.9815 166.205 69.1472 166.765 69.4786C167.328 69.8068 167.762 70.2675 168.067 70.8608C168.372 71.4507 168.525 72.1401 168.525 72.9289C168.525 73.7111 168.372 74.3989 168.067 74.9921C167.762 75.5821 167.328 76.0428 166.765 76.3742C166.205 76.7024 165.538 76.8664 164.766 76.8664ZM164.776 75.2258C165.127 75.2258 165.421 75.1264 165.656 74.9275C165.891 74.7253 166.069 74.4502 166.188 74.1022C166.311 73.7542 166.372 73.3581 166.372 72.914C166.372 72.4699 166.311 72.0738 166.188 71.7258C166.069 71.3778 165.891 71.1027 165.656 70.9005C165.421 70.6983 165.127 70.5973 164.776 70.5973C164.421 70.5973 164.123 70.6983 163.881 70.9005C163.643 71.1027 163.462 71.3778 163.339 71.7258C163.22 72.0738 163.16 72.4699 163.16 72.914C163.16 73.3581 163.22 73.7542 163.339 74.1022C163.462 74.4502 163.643 74.7253 163.881 74.9275C164.123 75.1264 164.421 75.2258 164.776 75.2258ZM169.902 76.7173V69.0809H171.955V70.4133H172.035C172.174 69.9393 172.407 69.5814 172.736 69.3394C173.064 69.0942 173.442 68.9715 173.869 68.9715C173.975 68.9715 174.09 68.9782 174.212 68.9914C174.335 69.0047 174.443 69.0229 174.535 69.0461V70.9254C174.436 70.8956 174.298 70.869 174.123 70.8458C173.947 70.8226 173.786 70.811 173.64 70.811C173.329 70.811 173.05 70.879 172.805 71.0149C172.563 71.1474 172.371 71.3331 172.229 71.5717C172.089 71.8103 172.02 72.0854 172.02 72.397V76.7173H169.902ZM180.075 69.0809V70.6718H175.476V69.0809H180.075ZM176.52 67.2514H178.638V74.3707C178.638 74.5662 178.668 74.7187 178.728 74.8281C178.787 74.9341 178.87 75.0087 178.976 75.0518C179.086 75.0949 179.212 75.1164 179.354 75.1164C179.453 75.1164 179.553 75.1081 179.652 75.0916C179.752 75.0717 179.828 75.0568 179.881 75.0468L180.214 76.6228C180.108 76.656 179.959 76.6941 179.767 76.7372C179.574 76.7836 179.341 76.8117 179.066 76.8217C178.555 76.8416 178.108 76.7736 177.723 76.6179C177.342 76.4621 177.046 76.2201 176.833 75.892C176.621 75.5639 176.517 75.1496 176.52 74.6491V67.2514ZM187.509 76.8416C186.929 76.8416 186.403 76.6924 185.933 76.3941C185.465 76.0925 185.094 75.6501 184.819 75.0667C184.547 74.4801 184.411 73.7608 184.411 72.909C184.411 72.034 184.552 71.3065 184.834 70.7265C185.116 70.1432 185.49 69.7073 185.958 69.419C186.428 69.1273 186.944 68.9815 187.504 68.9815C187.931 68.9815 188.288 69.0544 188.573 69.2002C188.861 69.3428 189.093 69.5217 189.269 69.7372C189.448 69.9493 189.584 70.1581 189.676 70.3636H189.741V66.5355H191.854V76.7173H189.766V75.4943H189.676C189.577 75.7064 189.436 75.9169 189.254 76.1257C189.075 76.3312 188.841 76.5018 188.553 76.6377C188.268 76.7736 187.92 76.8416 187.509 76.8416ZM188.18 75.1562C188.521 75.1562 188.81 75.0634 189.045 74.8778C189.284 74.6889 189.466 74.4254 189.592 74.0873C189.721 73.7492 189.786 73.3532 189.786 72.8991C189.786 72.445 189.723 72.0506 189.597 71.7159C189.471 71.3811 189.289 71.1226 189.05 70.9403C188.811 70.758 188.521 70.6669 188.18 70.6669C187.832 70.6669 187.539 70.7613 187.3 70.9502C187.061 71.1392 186.881 71.401 186.758 71.7358C186.635 72.0705 186.574 72.4583 186.574 72.8991C186.574 73.3432 186.635 73.736 186.758 74.0774C186.884 74.4154 187.065 74.6806 187.3 74.8728C187.539 75.0617 187.832 75.1562 188.18 75.1562ZM195.773 76.8615C195.286 76.8615 194.851 76.7769 194.47 76.6079C194.089 76.4356 193.787 76.182 193.565 75.8473C193.347 75.5092 193.237 75.0883 193.237 74.5845C193.237 74.1602 193.315 73.8039 193.471 73.5156C193.627 73.2272 193.839 72.9952 194.107 72.8196C194.376 72.6439 194.681 72.5113 195.022 72.4218C195.367 72.3323 195.728 72.2694 196.106 72.2329C196.55 72.1865 196.908 72.1434 197.18 72.1036C197.451 72.0606 197.649 71.9976 197.771 71.9147C197.894 71.8319 197.955 71.7092 197.955 71.5468V71.517C197.955 71.2021 197.856 70.9585 197.657 70.7862C197.461 70.6138 197.183 70.5277 196.822 70.5277C196.441 70.5277 196.137 70.6122 195.912 70.7812C195.687 70.9469 195.537 71.1557 195.464 71.4076L193.506 71.2485C193.605 70.7845 193.801 70.3835 194.092 70.0454C194.384 69.704 194.76 69.4422 195.221 69.2599C195.685 69.0743 196.222 68.9815 196.832 68.9815C197.256 68.9815 197.662 69.0312 198.05 69.1306C198.441 69.2301 198.787 69.3842 199.089 69.593C199.394 69.8018 199.634 70.0703 199.81 70.3984C199.985 70.7232 200.073 71.1126 200.073 71.5667V76.7173H198.065V75.6583H198.005C197.882 75.897 197.718 76.1074 197.513 76.2897C197.307 76.4687 197.06 76.6096 196.772 76.7123C196.484 76.8117 196.151 76.8615 195.773 76.8615ZM196.379 75.3998C196.691 75.3998 196.966 75.3385 197.205 75.2159C197.443 75.0899 197.63 74.9209 197.766 74.7088C197.902 74.4966 197.97 74.2563 197.97 73.9879V73.1775C197.904 73.2206 197.813 73.2604 197.697 73.2968C197.584 73.33 197.456 73.3615 197.314 73.3913C197.171 73.4178 197.029 73.4427 196.886 73.4659C196.744 73.4858 196.615 73.504 196.499 73.5206C196.25 73.557 196.033 73.615 195.847 73.6946C195.662 73.7741 195.518 73.8818 195.415 74.0177C195.312 74.1503 195.261 74.316 195.261 74.5149C195.261 74.8032 195.365 75.0236 195.574 75.1761C195.786 75.3252 196.054 75.3998 196.379 75.3998ZM205.778 69.0809V70.6718H201.179V69.0809H205.778ZM202.223 67.2514H204.341V74.3707C204.341 74.5662 204.371 74.7187 204.431 74.8281C204.49 74.9341 204.573 75.0087 204.679 75.0518C204.789 75.0949 204.915 75.1164 205.057 75.1164C205.157 75.1164 205.256 75.1081 205.355 75.0916C205.455 75.0717 205.531 75.0568 205.584 75.0468L205.917 76.6228C205.811 76.656 205.662 76.6941 205.47 76.7372C205.278 76.7836 205.044 76.8117 204.769 76.8217C204.258 76.8416 203.811 76.7736 203.426 76.6179C203.045 76.4621 202.749 76.2201 202.537 75.892C202.324 75.5639 202.22 75.1496 202.223 74.6491V67.2514ZM209.335 76.8615C208.848 76.8615 208.414 76.7769 208.033 76.6079C207.652 76.4356 207.35 76.182 207.128 75.8473C206.909 75.5092 206.8 75.0883 206.8 74.5845C206.8 74.1602 206.878 73.8039 207.033 73.5156C207.189 73.2272 207.401 72.9952 207.67 72.8196C207.938 72.6439 208.243 72.5113 208.585 72.4218C208.929 72.3323 209.29 72.2694 209.668 72.2329C210.112 72.1865 210.47 72.1434 210.742 72.1036C211.014 72.0606 211.211 71.9976 211.334 71.9147C211.456 71.8319 211.518 71.7092 211.518 71.5468V71.517C211.518 71.2021 211.418 70.9585 211.219 70.7862C211.024 70.6138 210.746 70.5277 210.384 70.5277C210.003 70.5277 209.7 70.6122 209.474 70.7812C209.249 70.9469 209.1 71.1557 209.027 71.4076L207.068 71.2485C207.168 70.7845 207.363 70.3835 207.655 70.0454C207.946 69.704 208.323 69.4422 208.783 69.2599C209.247 69.0743 209.784 68.9815 210.394 68.9815C210.818 68.9815 211.224 69.0312 211.612 69.1306C212.003 69.2301 212.35 69.3842 212.651 69.593C212.956 69.8018 213.196 70.0703 213.372 70.3984C213.548 70.7232 213.636 71.1126 213.636 71.5667V76.7173H211.627V75.6583H211.567C211.445 75.897 211.281 76.1074 211.075 76.2897C210.87 76.4687 210.623 76.6096 210.335 76.7123C210.046 76.8117 209.713 76.8615 209.335 76.8615ZM209.942 75.3998C210.253 75.3998 210.528 75.3385 210.767 75.2159C211.006 75.0899 211.193 74.9209 211.329 74.7088C211.465 74.4966 211.533 74.2563 211.533 73.9879V73.1775C211.466 73.2206 211.375 73.2604 211.259 73.2968C211.147 73.33 211.019 73.3615 210.876 73.3913C210.734 73.4178 210.591 73.4427 210.449 73.4659C210.306 73.4858 210.177 73.504 210.061 73.5206C209.813 73.557 209.595 73.615 209.41 73.6946C209.224 73.7741 209.08 73.8818 208.977 74.0177C208.875 74.1503 208.823 74.316 208.823 74.5149C208.823 74.8032 208.928 75.0236 209.136 75.1761C209.348 75.3252 209.617 75.3998 209.942 75.3998Z" fill="#486581"/>
<rect x="135" y="94.7173" width="230" height="4.97338" rx="2.48669" fill="#D9E2EC"/>
<rect x="135" y="107.691" width="217.578" height="4.97338" rx="2.48669" fill="#D9E2EC"/>
<rect x="135" y="120.664" width="211.184" height="4.97338" rx="2.48669" fill="#D9E2EC"/>
<rect x="135" y="133.637" width="222.004" height="4.97338" rx="2.48669" fill="#D9E2EC"/>
<circle cx="141.834" cy="161.445" r="6.33398" stroke="#486581"/>
<rect x="156.668" y="158.958" width="69.5703" height="4.97338" rx="2.48669" fill="#D9E2EC"/>
<circle cx="141.833" cy="161.445" r="3.77832" fill="#486581"/>
<circle cx="141.834" cy="183.113" r="6.33398" stroke="#486581"/>
<rect x="156.668" y="180.626" width="69.5703" height="4.97338" rx="2.48669" fill="#D9E2EC"/>
<circle cx="141.834" cy="204.781" r="6.33398" stroke="#486581"/>
<rect x="156.668" y="202.294" width="69.5703" height="4.97338" rx="2.48669" fill="#D9E2EC"/>
<circle cx="141.833" cy="204.781" r="3.77832" fill="#486581"/>
<circle cx="141.834" cy="226.449" r="6.33398" stroke="#486581"/>
<rect x="156.668" y="223.962" width="69.5703" height="4.97338" rx="2.48669" fill="#D9E2EC"/>
<rect x="135" y="249.283" width="197" height="37" rx="18.5" fill="#2680C2"/>
<path d="M155.494 273.283H151.885V263.101H155.524C156.548 263.101 157.43 263.305 158.169 263.712C158.908 264.117 159.477 264.698 159.874 265.457C160.275 266.216 160.476 267.125 160.476 268.182C160.476 269.242 160.275 270.154 159.874 270.916C159.477 271.679 158.905 272.264 158.159 272.671C157.417 273.079 156.528 273.283 155.494 273.283ZM154.038 271.438H155.405C156.041 271.438 156.576 271.326 157.011 271.1C157.448 270.871 157.776 270.519 157.995 270.041C158.217 269.561 158.328 268.941 158.328 268.182C158.328 267.429 158.217 266.815 157.995 266.337C157.776 265.86 157.45 265.509 157.016 265.283C156.581 265.058 156.046 264.945 155.41 264.945H154.038V271.438ZM165.481 273.432C164.709 273.432 164.041 273.268 163.477 272.94C162.917 272.608 162.485 272.148 162.18 271.558C161.875 270.964 161.722 270.277 161.722 269.494C161.722 268.706 161.875 268.016 162.18 267.426C162.485 266.833 162.917 266.372 163.477 266.044C164.041 265.713 164.709 265.547 165.481 265.547C166.253 265.547 166.919 265.713 167.48 266.044C168.043 266.372 168.477 266.833 168.782 267.426C169.087 268.016 169.24 268.706 169.24 269.494C169.24 270.277 169.087 270.964 168.782 271.558C168.477 272.148 168.043 272.608 167.48 272.94C166.919 273.268 166.253 273.432 165.481 273.432ZM165.491 271.791C165.842 271.791 166.136 271.692 166.371 271.493C166.606 271.291 166.784 271.016 166.903 270.668C167.026 270.32 167.087 269.924 167.087 269.479C167.087 269.035 167.026 268.639 166.903 268.291C166.784 267.943 166.606 267.668 166.371 267.466C166.136 267.264 165.842 267.163 165.491 267.163C165.136 267.163 164.838 267.264 164.596 267.466C164.357 267.668 164.177 267.943 164.054 268.291C163.935 268.639 163.875 269.035 163.875 269.479C163.875 269.924 163.935 270.32 164.054 270.668C164.177 271.016 164.357 271.291 164.596 271.493C164.838 271.692 165.136 271.791 165.491 271.791ZM171.932 273.283L169.854 265.646H171.996L173.18 270.777H173.249L174.482 265.646H176.585L177.838 270.747H177.903L179.066 265.646H181.204L179.131 273.283H176.888L175.576 268.48H175.481L174.169 273.283H171.932ZM184.451 268.868V273.283H182.333V265.646H184.352V266.994H184.441C184.61 266.55 184.894 266.198 185.292 265.94C185.689 265.678 186.172 265.547 186.738 265.547C187.269 265.547 187.731 265.663 188.125 265.895C188.52 266.127 188.826 266.458 189.045 266.889C189.264 267.317 189.373 267.827 189.373 268.42V273.283H187.255V268.798C187.259 268.331 187.139 267.966 186.897 267.705C186.655 267.439 186.322 267.307 185.898 267.307C185.613 267.307 185.361 267.368 185.142 267.491C184.927 267.613 184.758 267.792 184.635 268.028C184.516 268.26 184.455 268.54 184.451 268.868ZM193.16 263.101V273.283H191.042V263.101H193.16ZM198.307 273.432C197.535 273.432 196.867 273.268 196.304 272.94C195.743 272.608 195.311 272.148 195.006 271.558C194.701 270.964 194.549 270.277 194.549 269.494C194.549 268.706 194.701 268.016 195.006 267.426C195.311 266.833 195.743 266.372 196.304 266.044C196.867 265.713 197.535 265.547 198.307 265.547C199.079 265.547 199.746 265.713 200.306 266.044C200.869 266.372 201.303 266.833 201.608 267.426C201.913 268.016 202.066 268.706 202.066 269.494C202.066 270.277 201.913 270.964 201.608 271.558C201.303 272.148 200.869 272.608 200.306 272.94C199.746 273.268 199.079 273.432 198.307 273.432ZM198.317 271.791C198.668 271.791 198.962 271.692 199.197 271.493C199.432 271.291 199.61 271.016 199.729 270.668C199.852 270.32 199.913 269.924 199.913 269.479C199.913 269.035 199.852 268.639 199.729 268.291C199.61 267.943 199.432 267.668 199.197 267.466C198.962 267.264 198.668 267.163 198.317 267.163C197.962 267.163 197.664 267.264 197.422 267.466C197.184 267.668 197.003 267.943 196.88 268.291C196.761 268.639 196.701 269.035 196.701 269.479C196.701 269.924 196.761 270.32 196.88 270.668C197.003 271.016 197.184 271.291 197.422 271.493C197.664 271.692 197.962 271.791 198.317 271.791ZM205.62 273.427C205.133 273.427 204.699 273.342 204.318 273.173C203.937 273.001 203.635 272.747 203.413 272.413C203.194 272.075 203.085 271.654 203.085 271.15C203.085 270.726 203.163 270.369 203.319 270.081C203.474 269.793 203.686 269.561 203.955 269.385C204.223 269.209 204.528 269.077 204.87 268.987C205.214 268.898 205.576 268.835 205.953 268.798C206.398 268.752 206.756 268.709 207.027 268.669C207.299 268.626 207.496 268.563 207.619 268.48C207.742 268.397 207.803 268.275 207.803 268.112V268.082C207.803 267.768 207.703 267.524 207.505 267.352C207.309 267.179 207.031 267.093 206.669 267.093C206.288 267.093 205.985 267.178 205.76 267.347C205.534 267.512 205.385 267.721 205.312 267.973L203.353 267.814C203.453 267.35 203.648 266.949 203.94 266.611C204.232 266.269 204.608 266.008 205.069 265.825C205.533 265.64 206.069 265.547 206.679 265.547C207.104 265.547 207.51 265.597 207.897 265.696C208.288 265.795 208.635 265.95 208.936 266.158C209.241 266.367 209.482 266.636 209.657 266.964C209.833 267.289 209.921 267.678 209.921 268.132V273.283H207.912V272.224H207.853C207.73 272.462 207.566 272.673 207.36 272.855C207.155 273.034 206.908 273.175 206.62 273.278C206.331 273.377 205.998 273.427 205.62 273.427ZM206.227 271.965C206.538 271.965 206.814 271.904 207.052 271.781C207.291 271.655 207.478 271.486 207.614 271.274C207.75 271.062 207.818 270.822 207.818 270.553V269.743C207.752 269.786 207.66 269.826 207.544 269.862C207.432 269.895 207.304 269.927 207.162 269.957C207.019 269.983 206.877 270.008 206.734 270.031C206.592 270.051 206.462 270.069 206.346 270.086C206.098 270.122 205.881 270.18 205.695 270.26C205.509 270.34 205.365 270.447 205.262 270.583C205.16 270.716 205.108 270.881 205.108 271.08C205.108 271.369 205.213 271.589 205.422 271.742C205.634 271.891 205.902 271.965 206.227 271.965ZM214.378 273.407C213.798 273.407 213.272 273.258 212.802 272.96C212.335 272.658 211.963 272.215 211.688 271.632C211.416 271.045 211.281 270.326 211.281 269.474C211.281 268.599 211.421 267.872 211.703 267.292C211.985 266.709 212.359 266.273 212.827 265.984C213.297 265.693 213.813 265.547 214.373 265.547C214.8 265.547 215.157 265.62 215.442 265.766C215.73 265.908 215.962 266.087 216.138 266.303C216.317 266.515 216.453 266.724 216.545 266.929H216.61V263.101H218.723V273.283H216.635V272.06H216.545C216.446 272.272 216.305 272.482 216.123 272.691C215.944 272.897 215.71 273.067 215.422 273.203C215.137 273.339 214.789 273.407 214.378 273.407ZM215.049 271.722C215.39 271.722 215.679 271.629 215.914 271.443C216.153 271.254 216.335 270.991 216.461 270.653C216.59 270.315 216.655 269.919 216.655 269.465C216.655 269.01 216.592 268.616 216.466 268.281C216.34 267.947 216.158 267.688 215.919 267.506C215.68 267.323 215.39 267.232 215.049 267.232C214.701 267.232 214.408 267.327 214.169 267.516C213.93 267.705 213.75 267.966 213.627 268.301C213.504 268.636 213.443 269.024 213.443 269.465C213.443 269.909 213.504 270.301 213.627 270.643C213.753 270.981 213.934 271.246 214.169 271.438C214.408 271.627 214.701 271.722 215.049 271.722ZM230.058 267.824L228.119 267.943C228.086 267.778 228.015 267.628 227.906 267.496C227.796 267.36 227.652 267.252 227.473 267.173C227.297 267.09 227.087 267.048 226.842 267.048C226.513 267.048 226.237 267.118 226.011 267.257C225.786 267.393 225.673 267.575 225.673 267.804C225.673 267.986 225.746 268.14 225.892 268.266C226.038 268.392 226.288 268.493 226.643 268.57L228.025 268.848C228.767 269.001 229.321 269.246 229.685 269.584C230.05 269.922 230.232 270.366 230.232 270.916C230.232 271.417 230.085 271.856 229.79 272.234C229.498 272.612 229.097 272.907 228.587 273.119C228.08 273.327 227.495 273.432 226.832 273.432C225.821 273.432 225.015 273.221 224.415 272.8C223.819 272.376 223.469 271.8 223.366 271.07L225.45 270.961C225.513 271.269 225.665 271.505 225.907 271.667C226.149 271.826 226.459 271.906 226.837 271.906C227.208 271.906 227.506 271.834 227.732 271.692C227.96 271.546 228.076 271.359 228.08 271.13C228.076 270.938 227.995 270.78 227.836 270.658C227.677 270.532 227.432 270.436 227.1 270.369L225.778 270.106C225.032 269.957 224.477 269.698 224.112 269.33C223.751 268.962 223.57 268.493 223.57 267.923C223.57 267.433 223.703 267.01 223.968 266.656C224.237 266.301 224.613 266.028 225.097 265.835C225.584 265.643 226.154 265.547 226.807 265.547C227.771 265.547 228.53 265.751 229.084 266.158C229.641 266.566 229.965 267.121 230.058 267.824ZM235.046 273.432C234.26 273.432 233.584 273.273 233.018 272.955C232.454 272.633 232.02 272.179 231.715 271.592C231.41 271.002 231.258 270.305 231.258 269.499C231.258 268.714 231.41 268.024 231.715 267.431C232.02 266.838 232.449 266.376 233.003 266.044C233.559 265.713 234.212 265.547 234.961 265.547C235.465 265.547 235.934 265.628 236.368 265.791C236.806 265.95 237.187 266.19 237.512 266.511C237.84 266.833 238.095 267.237 238.278 267.724C238.46 268.208 238.551 268.775 238.551 269.425V270.006H232.103V268.694H236.557C236.557 268.389 236.491 268.119 236.358 267.884C236.226 267.648 236.042 267.464 235.807 267.332C235.575 267.196 235.305 267.128 234.996 267.128C234.675 267.128 234.39 267.202 234.141 267.352C233.896 267.497 233.704 267.695 233.564 267.943C233.425 268.188 233.354 268.462 233.351 268.764V270.011C233.351 270.389 233.42 270.716 233.559 270.991C233.702 271.266 233.903 271.478 234.161 271.627C234.42 271.776 234.726 271.851 235.081 271.851C235.316 271.851 235.532 271.818 235.727 271.751C235.923 271.685 236.09 271.586 236.229 271.453C236.368 271.321 236.474 271.158 236.547 270.966L238.506 271.095C238.407 271.566 238.203 271.977 237.895 272.328C237.59 272.676 237.195 272.948 236.711 273.144C236.231 273.336 235.676 273.432 235.046 273.432ZM242.051 263.101V273.283H239.933V263.101H242.051ZM247.228 273.432C246.442 273.432 245.766 273.273 245.199 272.955C244.636 272.633 244.202 272.179 243.897 271.592C243.592 271.002 243.439 270.305 243.439 269.499C243.439 268.714 243.592 268.024 243.897 267.431C244.202 266.838 244.631 266.376 245.184 266.044C245.741 265.713 246.394 265.547 247.143 265.547C247.647 265.547 248.116 265.628 248.55 265.791C248.988 265.95 249.369 266.19 249.694 266.511C250.022 266.833 250.277 267.237 250.459 267.724C250.641 268.208 250.733 268.775 250.733 269.425V270.006H244.284V268.694H248.739C248.739 268.389 248.673 268.119 248.54 267.884C248.408 267.648 248.224 267.464 247.988 267.332C247.756 267.196 247.486 267.128 247.178 267.128C246.856 267.128 246.571 267.202 246.323 267.352C246.078 267.497 245.885 267.695 245.746 267.943C245.607 268.188 245.536 268.462 245.532 268.764V270.011C245.532 270.389 245.602 270.716 245.741 270.991C245.884 271.266 246.084 271.478 246.343 271.627C246.601 271.776 246.908 271.851 247.262 271.851C247.498 271.851 247.713 271.818 247.909 271.751C248.104 271.685 248.272 271.586 248.411 271.453C248.55 271.321 248.656 271.158 248.729 270.966L250.688 271.095C250.588 271.566 250.385 271.977 250.076 272.328C249.771 272.676 249.377 272.948 248.893 273.144C248.413 273.336 247.857 273.432 247.228 273.432ZM255.565 273.432C254.783 273.432 254.11 273.266 253.547 272.935C252.986 272.6 252.556 272.136 252.254 271.543C251.956 270.949 251.806 270.267 251.806 269.494C251.806 268.712 251.957 268.026 252.259 267.436C252.564 266.843 252.996 266.38 253.556 266.049C254.117 265.714 254.783 265.547 255.555 265.547C256.221 265.547 256.805 265.668 257.305 265.91C257.806 266.152 258.202 266.492 258.493 266.929C258.785 267.367 258.946 267.88 258.975 268.47H256.977C256.921 268.089 256.771 267.782 256.529 267.55C256.291 267.315 255.978 267.197 255.59 267.197C255.262 267.197 254.975 267.287 254.73 267.466C254.488 267.642 254.299 267.898 254.163 268.237C254.027 268.575 253.959 268.984 253.959 269.465C253.959 269.952 254.025 270.366 254.158 270.707C254.294 271.049 254.484 271.309 254.73 271.488C254.975 271.667 255.262 271.756 255.59 271.756C255.832 271.756 256.049 271.707 256.241 271.607C256.437 271.508 256.597 271.364 256.723 271.175C256.853 270.983 256.937 270.752 256.977 270.484H258.975C258.942 271.067 258.783 271.581 258.498 272.025C258.217 272.466 257.827 272.81 257.33 273.059C256.833 273.308 256.244 273.432 255.565 273.432ZM264.393 265.646V267.237H259.795V265.646H264.393ZM260.839 263.817H262.956V270.936C262.956 271.132 262.986 271.284 263.046 271.394C263.106 271.5 263.189 271.574 263.295 271.617C263.404 271.66 263.53 271.682 263.672 271.682C263.772 271.682 263.871 271.674 263.971 271.657C264.07 271.637 264.146 271.622 264.199 271.612L264.532 273.188C264.426 273.221 264.277 273.26 264.085 273.303C263.893 273.349 263.659 273.377 263.384 273.387C262.874 273.407 262.426 273.339 262.042 273.183C261.661 273.028 261.364 272.786 261.152 272.457C260.94 272.129 260.835 271.715 260.839 271.215V263.817ZM269.171 273.432C268.385 273.432 267.709 273.273 267.143 272.955C266.579 272.633 266.145 272.179 265.84 271.592C265.535 271.002 265.383 270.305 265.383 269.499C265.383 268.714 265.535 268.024 265.84 267.431C266.145 266.838 266.574 266.376 267.128 266.044C267.684 265.713 268.337 265.547 269.086 265.547C269.59 265.547 270.059 265.628 270.493 265.791C270.931 265.95 271.312 266.19 271.637 266.511C271.965 266.833 272.22 267.237 272.403 267.724C272.585 268.208 272.676 268.775 272.676 269.425V270.006H266.228V268.694H270.682C270.682 268.389 270.616 268.119 270.483 267.884C270.351 267.648 270.167 267.464 269.932 267.332C269.7 267.196 269.43 267.128 269.121 267.128C268.8 267.128 268.515 267.202 268.266 267.352C268.021 267.497 267.829 267.695 267.689 267.943C267.55 268.188 267.479 268.462 267.476 268.764V270.011C267.476 270.389 267.545 270.716 267.684 270.991C267.827 271.266 268.028 271.478 268.286 271.627C268.545 271.776 268.851 271.851 269.206 271.851C269.441 271.851 269.657 271.818 269.852 271.751C270.048 271.685 270.215 271.586 270.354 271.453C270.493 271.321 270.599 271.158 270.672 270.966L272.631 271.095C272.532 271.566 272.328 271.977 272.02 272.328C271.715 272.676 271.32 272.948 270.836 273.144C270.356 273.336 269.801 273.432 269.171 273.432ZM276.872 273.407C276.292 273.407 275.767 273.258 275.296 272.96C274.829 272.658 274.457 272.215 274.182 271.632C273.911 271.045 273.775 270.326 273.775 269.474C273.775 268.599 273.916 267.872 274.197 267.292C274.479 266.709 274.854 266.273 275.321 265.984C275.791 265.693 276.307 265.547 276.867 265.547C277.295 265.547 277.651 265.62 277.936 265.766C278.224 265.908 278.456 266.087 278.632 266.303C278.811 266.515 278.947 266.724 279.04 266.929H279.104V263.101H281.217V273.283H279.129V272.06H279.04C278.94 272.272 278.799 272.482 278.617 272.691C278.438 272.897 278.204 273.067 277.916 273.203C277.631 273.339 277.283 273.407 276.872 273.407ZM277.543 271.722C277.885 271.722 278.173 271.629 278.408 271.443C278.647 271.254 278.829 270.991 278.955 270.653C279.084 270.315 279.149 269.919 279.149 269.465C279.149 269.01 279.086 268.616 278.96 268.281C278.834 267.947 278.652 267.688 278.413 267.506C278.175 267.323 277.885 267.232 277.543 267.232C277.195 267.232 276.902 267.327 276.663 267.516C276.425 267.705 276.244 267.966 276.121 268.301C275.999 268.636 275.937 269.024 275.937 269.465C275.937 269.909 275.999 270.301 276.121 270.643C276.247 270.981 276.428 271.246 276.663 271.438C276.902 271.627 277.195 271.722 277.543 271.722ZM289.013 273.407C288.433 273.407 287.907 273.258 287.437 272.96C286.969 272.658 286.598 272.215 286.323 271.632C286.051 271.045 285.915 270.326 285.915 269.474C285.915 268.599 286.056 267.872 286.338 267.292C286.62 266.709 286.994 266.273 287.461 265.984C287.932 265.693 288.448 265.547 289.008 265.547C289.435 265.547 289.791 265.62 290.077 265.766C290.365 265.908 290.597 266.087 290.773 266.303C290.952 266.515 291.087 266.724 291.18 266.929H291.245V263.101H293.358V273.283H291.27V272.06H291.18C291.081 272.272 290.94 272.482 290.758 272.691C290.579 272.897 290.345 273.067 290.057 273.203C289.772 273.339 289.424 273.407 289.013 273.407ZM289.684 271.722C290.025 271.722 290.314 271.629 290.549 271.443C290.787 271.254 290.97 270.991 291.096 270.653C291.225 270.315 291.29 269.919 291.29 269.465C291.29 269.01 291.227 268.616 291.101 268.281C290.975 267.947 290.792 267.688 290.554 267.506C290.315 267.323 290.025 267.232 289.684 267.232C289.336 267.232 289.042 267.327 288.804 267.516C288.565 267.705 288.385 267.966 288.262 268.301C288.139 268.636 288.078 269.024 288.078 269.465C288.078 269.909 288.139 270.301 288.262 270.643C288.388 270.981 288.568 271.246 288.804 271.438C289.042 271.627 289.336 271.722 289.684 271.722ZM297.277 273.427C296.789 273.427 296.355 273.342 295.974 273.173C295.593 273.001 295.291 272.747 295.069 272.413C294.85 272.075 294.741 271.654 294.741 271.15C294.741 270.726 294.819 270.369 294.975 270.081C295.131 269.793 295.343 269.561 295.611 269.385C295.88 269.209 296.185 269.077 296.526 268.987C296.871 268.898 297.232 268.835 297.61 268.798C298.054 268.752 298.412 268.709 298.684 268.669C298.955 268.626 299.153 268.563 299.275 268.48C299.398 268.397 299.459 268.275 299.459 268.112V268.082C299.459 267.768 299.36 267.524 299.161 267.352C298.965 267.179 298.687 267.093 298.326 267.093C297.944 267.093 297.641 267.178 297.416 267.347C297.19 267.512 297.041 267.721 296.968 267.973L295.01 267.814C295.109 267.35 295.305 266.949 295.596 266.611C295.888 266.269 296.264 266.008 296.725 265.825C297.189 265.64 297.726 265.547 298.336 265.547C298.76 265.547 299.166 265.597 299.554 265.696C299.945 265.795 300.291 265.95 300.593 266.158C300.898 266.367 301.138 266.636 301.314 266.964C301.489 267.289 301.577 267.678 301.577 268.132V273.283H299.569V272.224H299.509C299.386 272.462 299.222 272.673 299.017 272.855C298.811 273.034 298.564 273.175 298.276 273.278C297.988 273.377 297.654 273.427 297.277 273.427ZM297.883 271.965C298.195 271.965 298.47 271.904 298.708 271.781C298.947 271.655 299.134 271.486 299.27 271.274C299.406 271.062 299.474 270.822 299.474 270.553V269.743C299.408 269.786 299.317 269.826 299.201 269.862C299.088 269.895 298.96 269.927 298.818 269.957C298.675 269.983 298.533 270.008 298.39 270.031C298.248 270.051 298.118 270.069 298.002 270.086C297.754 270.122 297.537 270.18 297.351 270.26C297.166 270.34 297.021 270.447 296.919 270.583C296.816 270.716 296.765 270.881 296.765 271.08C296.765 271.369 296.869 271.589 297.078 271.742C297.29 271.891 297.558 271.965 297.883 271.965ZM307.282 265.646V267.237H302.683V265.646H307.282ZM303.727 263.817H305.845V270.936C305.845 271.132 305.875 271.284 305.935 271.394C305.994 271.5 306.077 271.574 306.183 271.617C306.293 271.66 306.419 271.682 306.561 271.682C306.661 271.682 306.76 271.674 306.859 271.657C306.959 271.637 307.035 271.622 307.088 271.612L307.421 273.188C307.315 273.221 307.166 273.26 306.974 273.303C306.781 273.349 306.548 273.377 306.273 273.387C305.762 273.407 305.315 273.339 304.93 273.183C304.549 273.028 304.253 272.786 304.04 272.457C303.828 272.129 303.724 271.715 303.727 271.215V263.817ZM310.839 273.427C310.352 273.427 309.918 273.342 309.537 273.173C309.155 273.001 308.854 272.747 308.632 272.413C308.413 272.075 308.304 271.654 308.304 271.15C308.304 270.726 308.382 270.369 308.537 270.081C308.693 269.793 308.905 269.561 309.174 269.385C309.442 269.209 309.747 269.077 310.088 268.987C310.433 268.898 310.794 268.835 311.172 268.798C311.616 268.752 311.974 268.709 312.246 268.669C312.518 268.626 312.715 268.563 312.838 268.48C312.96 268.397 313.022 268.275 313.022 268.112V268.082C313.022 267.768 312.922 267.524 312.723 267.352C312.528 267.179 312.249 267.093 311.888 267.093C311.507 267.093 311.204 267.178 310.978 267.347C310.753 267.512 310.604 267.721 310.531 267.973L308.572 267.814C308.672 267.35 308.867 266.949 309.159 266.611C309.45 266.269 309.827 266.008 310.287 265.825C310.751 265.64 311.288 265.547 311.898 265.547C312.322 265.547 312.728 265.597 313.116 265.696C313.507 265.795 313.854 265.95 314.155 266.158C314.46 266.367 314.7 266.636 314.876 266.964C315.052 267.289 315.14 267.678 315.14 268.132V273.283H313.131V272.224H313.071C312.949 272.462 312.785 272.673 312.579 272.855C312.374 273.034 312.127 273.175 311.838 273.278C311.55 273.377 311.217 273.427 310.839 273.427ZM311.446 271.965C311.757 271.965 312.032 271.904 312.271 271.781C312.51 271.655 312.697 271.486 312.833 271.274C312.969 271.062 313.037 270.822 313.037 270.553V269.743C312.97 269.786 312.879 269.826 312.763 269.862C312.65 269.895 312.523 269.927 312.38 269.957C312.238 269.983 312.095 270.008 311.953 270.031C311.81 270.051 311.681 270.069 311.565 270.086C311.316 270.122 311.099 270.18 310.914 270.26C310.728 270.34 310.584 270.447 310.481 270.583C310.378 270.716 310.327 270.881 310.327 271.08C310.327 271.369 310.431 271.589 310.64 271.742C310.852 271.891 311.121 271.965 311.446 271.965Z" fill="white"/>
</g>
<rect x="119.5" y="45.2173" width="261" height="256.565" rx="9.44677" stroke="#2680C2"/>
</g>
<defs>
<filter id="filter0_dd_1232_68939" x="106.411" y="44.7173" width="287.178" height="282.743" filterUnits="userSpaceOnUse" color-interpolation-filters="sRGB">
<feFlood flood-opacity="0" result="BackgroundImageFix"/>
<feColorMatrix in="SourceAlpha" type="matrix" values="0 0 0 0 0 0 0 0 0 0 0 0 0 0 0 0 0 0 127 0" result="hardAlpha"/>
<feMorphology radius="2.09815" operator="erode" in="SourceAlpha" result="effect1_dropShadow_1232_68939"/>
<feOffset dy="4.19629"/>
<feGaussianBlur stdDeviation="3.14722"/>
<feComposite in2="hardAlpha" operator="out"/>
<feColorMatrix type="matrix" values="0 0 0 0 0 0 0 0 0 0 0 0 0 0 0 0 0 0 0.03 0"/>
<feBlend mode="normal" in2="BackgroundImageFix" result="effect1_dropShadow_1232_68939"/>
<feColorMatrix in="SourceAlpha" type="matrix" values="0 0 0 0 0 0 0 0 0 0 0 0 0 0 0 0 0 0 127 0" result="hardAlpha"/>
<feMorphology radius="4.19629" operator="erode" in="SourceAlpha" result="effect2_dropShadow_1232_68939"/>
<feOffset dy="12.5889"/>
<feGaussianBlur stdDeviation="8.39259"/>
<feComposite in2="hardAlpha" operator="out"/>
<feColorMatrix type="matrix" values="0 0 0 0 0 0 0 0 0 0 0 0 0 0 0 0 0 0 0.08 0"/>
<feBlend mode="normal" in2="effect1_dropShadow_1232_68939" result="effect2_dropShadow_1232_68939"/>
<feBlend mode="normal" in="SourceGraphic" in2="effect2_dropShadow_1232_68939" result="shape"/>
</filter>
<clipPath id="clip0_1232_68939">
<rect x="119" y="44.7173" width="262" height="257.565" rx="9.94677" fill="white"/>
</clipPath>
</defs>
</svg>
