<svg width="500" height="348" viewBox="0 0 500 348" fill="none" xmlns="http://www.w3.org/2000/svg">
<g filter="url(#filter0_dd_1232_72187)">
<g clip-path="url(#clip0_1232_72187)">
<rect x="104.441" y="30.8896" width="291.151" height="287.5" rx="7.3016" fill="white"/>
<g clip-path="url(#clip1_1232_72187)">
<rect x="104.445" y="27.2388" width="293.889" height="28.2937" fill="#2680C2"/>
<rect x="151.9" y="88.1981" width="38.3862" height="14.8119" stroke="#C9D4DE" stroke-width="0.228175"/>
<mask id="path-5-inside-1_1232_72187" fill="white">
<path d="M113.576 88.084H152.19V103.124H113.576V88.084Z"/>
</mask>
<path d="M113.576 88.084V87.8558H113.347V88.084H113.576ZM113.576 103.124H113.347V103.352H113.576V103.124ZM113.576 88.3122H152.19V87.8558H113.576V88.3122ZM152.19 102.896H113.576V103.352H152.19V102.896ZM113.804 103.124V88.084H113.347V103.124H113.804Z" fill="#C9D4DE" mask="url(#path-5-inside-1_1232_72187)"/>
<rect x="190.261" y="88.1981" width="38.3862" height="14.8119" stroke="#C9D4DE" stroke-width="0.228175"/>
<rect x="228.616" y="88.1981" width="38.3862" height="14.8119" stroke="#C9D4DE" stroke-width="0.228175"/>
<rect x="266.982" y="88.1981" width="38.3862" height="14.8119" stroke="#C9D4DE" stroke-width="0.228175"/>
<rect x="305.338" y="88.1981" width="38.3862" height="14.8119" stroke="#C9D4DE" stroke-width="0.228175"/>
<rect x="228.689" y="88.1981" width="38.3862" height="14.8119" fill="#E6F1FA" stroke="#C9D4DE" stroke-width="0.228175"/>
<rect x="228.575" y="55.9399" width="38.6144" height="32.1444" fill="#E6F1FA"/>
<rect x="343.698" y="88.1981" width="39.6564" height="14.8119" stroke="#C9D4DE" stroke-width="0.228175"/>
<rect x="151.9" y="102.945" width="38.3862" height="14.517" stroke="#C9D4DE" stroke-width="0.228175"/>
<mask id="path-15-inside-2_1232_72187" fill="white">
<path d="M113.576 102.831H152.19V117.576H113.576V102.831Z"/>
</mask>
<path d="M113.576 102.831V102.602H113.347V102.831H113.576ZM113.576 117.576H113.347V117.804H113.576V117.576ZM113.576 103.059H152.19V102.602H113.576V103.059ZM152.19 117.348H113.576V117.804H152.19V117.348ZM113.804 117.576V102.831H113.347V117.576H113.804Z" fill="#C9D4DE" mask="url(#path-15-inside-2_1232_72187)"/>
<rect x="190.261" y="102.945" width="38.3862" height="14.517" stroke="#C9D4DE" stroke-width="0.228175"/>
<rect x="228.616" y="102.945" width="38.3862" height="14.517" stroke="#C9D4DE" stroke-width="0.228175"/>
<rect x="266.982" y="102.945" width="38.3862" height="14.517" stroke="#C9D4DE" stroke-width="0.228175"/>
<rect x="305.338" y="102.945" width="38.3862" height="14.517" stroke="#C9D4DE" stroke-width="0.228175"/>
<rect x="228.689" y="102.945" width="38.3862" height="14.517" fill="#E6F1FA" stroke="#C9D4DE" stroke-width="0.228175"/>
<rect x="343.698" y="102.945" width="39.6564" height="14.517" stroke="#C9D4DE" stroke-width="0.228175"/>
<rect x="151.9" y="117.394" width="38.3862" height="14.8119" stroke="#C9D4DE" stroke-width="0.228175"/>
<mask id="path-24-inside-3_1232_72187" fill="white">
<path d="M113.576 117.28H152.19V132.32H113.576V117.28Z"/>
</mask>
<path d="M113.576 117.28V117.052H113.347V117.28H113.576ZM113.576 132.32H113.347V132.549H113.576V132.32ZM113.576 117.508H152.19V117.052H113.576V117.508ZM152.19 132.092H113.576V132.549H152.19V132.092ZM113.804 132.32V117.28H113.347V132.32H113.804Z" fill="#C9D4DE" mask="url(#path-24-inside-3_1232_72187)"/>
<rect x="190.261" y="117.394" width="38.3862" height="14.8119" stroke="#C9D4DE" stroke-width="0.228175"/>
<rect x="228.616" y="117.394" width="38.3862" height="14.8119" stroke="#C9D4DE" stroke-width="0.228175"/>
<rect x="266.982" y="117.394" width="38.3862" height="14.8119" stroke="#C9D4DE" stroke-width="0.228175"/>
<rect x="305.338" y="117.394" width="38.3862" height="14.8119" stroke="#C9D4DE" stroke-width="0.228175"/>
<rect x="228.689" y="117.394" width="38.3862" height="14.8119" fill="#E6F1FA" stroke="#C9D4DE" stroke-width="0.228175"/>
<rect x="343.698" y="117.394" width="39.6564" height="14.8119" stroke="#C9D4DE" stroke-width="0.228175"/>
<rect x="151.9" y="132.139" width="38.3862" height="14.8119" stroke="#C9D4DE" stroke-width="0.228175"/>
<mask id="path-33-inside-4_1232_72187" fill="white">
<path d="M113.576 132.025H152.19V147.065H113.576V132.025Z"/>
</mask>
<path d="M113.576 132.025V131.796H113.347V132.025H113.576ZM113.576 147.065H113.347V147.293H113.576V147.065ZM113.576 132.253H152.19V131.796H113.576V132.253ZM152.19 146.837H113.576V147.293H152.19V146.837ZM113.804 147.065V132.025H113.347V147.065H113.804Z" fill="#C9D4DE" mask="url(#path-33-inside-4_1232_72187)"/>
<rect x="190.261" y="132.139" width="38.3862" height="14.8119" stroke="#C9D4DE" stroke-width="0.228175"/>
<rect x="228.616" y="132.139" width="38.3862" height="14.8119" stroke="#C9D4DE" stroke-width="0.228175"/>
<rect x="266.982" y="132.139" width="38.3862" height="14.8119" stroke="#C9D4DE" stroke-width="0.228175"/>
<rect x="305.338" y="132.139" width="38.3862" height="14.8119" stroke="#C9D4DE" stroke-width="0.228175"/>
<rect x="228.689" y="132.139" width="38.3862" height="14.8119" fill="#E6F1FA" stroke="#C9D4DE" stroke-width="0.228175"/>
<rect x="343.698" y="132.139" width="39.6564" height="14.8119" stroke="#C9D4DE" stroke-width="0.228175"/>
<rect x="151.9" y="146.884" width="38.3862" height="14.8119" stroke="#C9D4DE" stroke-width="0.228175"/>
<mask id="path-42-inside-5_1232_72187" fill="white">
<path d="M113.576 146.77H152.19V161.81H113.576V146.77Z"/>
</mask>
<path d="M113.576 146.77V146.542H113.347V146.77H113.576ZM113.576 161.81H113.347V162.038H113.576V161.81ZM113.576 146.998H152.19V146.542H113.576V146.998ZM152.19 161.582H113.576V162.038H152.19V161.582ZM113.804 161.81V146.77H113.347V161.81H113.804Z" fill="#C9D4DE" mask="url(#path-42-inside-5_1232_72187)"/>
<rect x="190.261" y="146.884" width="38.3862" height="14.8119" stroke="#C9D4DE" stroke-width="0.228175"/>
<rect x="228.616" y="146.884" width="38.3862" height="14.8119" stroke="#C9D4DE" stroke-width="0.228175"/>
<rect x="266.982" y="146.884" width="38.3862" height="14.8119" stroke="#C9D4DE" stroke-width="0.228175"/>
<rect x="305.338" y="146.884" width="38.3862" height="14.8119" stroke="#C9D4DE" stroke-width="0.228175"/>
<rect x="228.689" y="146.884" width="38.3862" height="14.8119" fill="#E6F1FA" stroke="#C9D4DE" stroke-width="0.228175"/>
<rect x="343.698" y="146.884" width="39.6564" height="14.8119" stroke="#C9D4DE" stroke-width="0.228175"/>
<rect x="151.9" y="161.631" width="38.3862" height="14.8119" stroke="#C9D4DE" stroke-width="0.228175"/>
<mask id="path-51-inside-6_1232_72187" fill="white">
<path d="M113.576 161.517H152.19V176.557H113.576V161.517Z"/>
</mask>
<path d="M113.576 161.517V161.289H113.347V161.517H113.576ZM113.576 176.557H113.347V176.786H113.576V176.557ZM113.576 161.746H152.19V161.289H113.576V161.746ZM152.19 176.329H113.576V176.786H152.19V176.329ZM113.804 176.557V161.517H113.347V176.557H113.804Z" fill="#C9D4DE" mask="url(#path-51-inside-6_1232_72187)"/>
<rect x="190.261" y="161.631" width="38.3862" height="14.8119" stroke="#C9D4DE" stroke-width="0.228175"/>
<rect x="228.616" y="161.631" width="38.3862" height="14.8119" stroke="#C9D4DE" stroke-width="0.228175"/>
<rect x="266.982" y="161.631" width="38.3862" height="14.8119" stroke="#C9D4DE" stroke-width="0.228175"/>
<rect x="305.338" y="161.631" width="38.3862" height="14.8119" stroke="#C9D4DE" stroke-width="0.228175"/>
<rect x="228.689" y="161.631" width="38.3862" height="14.8119" fill="#E6F1FA" stroke="#C9D4DE" stroke-width="0.228175"/>
<rect x="343.698" y="161.631" width="39.6564" height="14.8119" stroke="#C9D4DE" stroke-width="0.228175"/>
<rect x="151.9" y="176.375" width="38.3862" height="14.8119" stroke="#C9D4DE" stroke-width="0.228175"/>
<mask id="path-60-inside-7_1232_72187" fill="white">
<path d="M113.576 176.261H152.19V191.301H113.576V176.261Z"/>
</mask>
<path d="M113.576 176.261V176.033H113.347V176.261H113.576ZM113.576 191.301H113.347V191.529H113.576V191.301ZM113.576 176.489H152.19V176.033H113.576V176.489ZM152.19 191.073H113.576V191.529H152.19V191.073ZM113.804 191.301V176.261H113.347V191.301H113.804Z" fill="#C9D4DE" mask="url(#path-60-inside-7_1232_72187)"/>
<rect x="190.261" y="176.375" width="38.3862" height="14.8119" stroke="#C9D4DE" stroke-width="0.228175"/>
<rect x="228.616" y="176.375" width="38.3862" height="14.8119" stroke="#C9D4DE" stroke-width="0.228175"/>
<rect x="266.982" y="176.375" width="38.3862" height="14.8119" stroke="#C9D4DE" stroke-width="0.228175"/>
<rect x="305.338" y="176.375" width="38.3862" height="14.8119" stroke="#C9D4DE" stroke-width="0.228175"/>
<rect x="228.689" y="176.375" width="38.3862" height="14.8119" fill="#E6F1FA" stroke="#C9D4DE" stroke-width="0.228175"/>
<rect x="343.698" y="176.375" width="39.6564" height="14.8119" stroke="#C9D4DE" stroke-width="0.228175"/>
<rect x="151.9" y="191.12" width="38.3862" height="14.8119" stroke="#C9D4DE" stroke-width="0.228175"/>
<mask id="path-69-inside-8_1232_72187" fill="white">
<path d="M113.576 191.006H152.19V206.046H113.576V191.006Z"/>
</mask>
<path d="M113.576 191.006V190.778H113.347V191.006H113.576ZM113.576 206.046H113.347V206.275H113.576V206.046ZM113.576 191.235H152.19V190.778H113.576V191.235ZM152.19 205.818H113.576V206.275H152.19V205.818ZM113.804 206.046V191.006H113.347V206.046H113.804Z" fill="#C9D4DE" mask="url(#path-69-inside-8_1232_72187)"/>
<rect x="190.261" y="191.12" width="38.3862" height="14.8119" stroke="#C9D4DE" stroke-width="0.228175"/>
<rect x="228.616" y="191.12" width="38.3862" height="14.8119" stroke="#C9D4DE" stroke-width="0.228175"/>
<rect x="266.982" y="191.12" width="38.3862" height="14.8119" stroke="#C9D4DE" stroke-width="0.228175"/>
<rect x="305.338" y="191.12" width="38.3862" height="14.8119" stroke="#C9D4DE" stroke-width="0.228175"/>
<rect x="228.689" y="191.12" width="38.3862" height="14.8119" fill="#E6F1FA" stroke="#C9D4DE" stroke-width="0.228175"/>
<rect x="343.698" y="191.12" width="39.6564" height="14.8119" stroke="#C9D4DE" stroke-width="0.228175"/>
<rect x="151.9" y="205.865" width="38.3862" height="14.8119" stroke="#C9D4DE" stroke-width="0.228175"/>
<mask id="path-78-inside-9_1232_72187" fill="white">
<path d="M113.576 205.751H152.19V220.791H113.576V205.751Z"/>
</mask>
<path d="M113.576 205.751V205.523H113.347V205.751H113.576ZM113.576 220.791H113.347V221.019H113.576V220.791ZM113.576 205.979H152.19V205.523H113.576V205.979ZM152.19 220.563H113.576V221.019H152.19V220.563ZM113.804 220.791V205.751H113.347V220.791H113.804Z" fill="#C9D4DE" mask="url(#path-78-inside-9_1232_72187)"/>
<rect x="190.261" y="205.865" width="38.3862" height="14.8119" stroke="#C9D4DE" stroke-width="0.228175"/>
<rect x="228.616" y="205.865" width="38.3862" height="14.8119" stroke="#C9D4DE" stroke-width="0.228175"/>
<rect x="266.982" y="205.865" width="38.3862" height="14.8119" stroke="#C9D4DE" stroke-width="0.228175"/>
<rect x="305.338" y="205.865" width="38.3862" height="14.8119" stroke="#C9D4DE" stroke-width="0.228175"/>
<rect x="228.689" y="205.865" width="38.3862" height="14.8119" fill="#E6F1FA" stroke="#C9D4DE" stroke-width="0.228175"/>
<rect x="343.698" y="205.865" width="39.6564" height="14.8119" stroke="#C9D4DE" stroke-width="0.228175"/>
<rect x="151.9" y="220.611" width="38.3862" height="14.8119" stroke="#C9D4DE" stroke-width="0.228175"/>
<mask id="path-87-inside-10_1232_72187" fill="white">
<path d="M113.576 220.497H152.19V235.537H113.576V220.497Z"/>
</mask>
<path d="M113.576 220.497V220.268H113.347V220.497H113.576ZM113.576 235.537H113.347V235.765H113.576V235.537ZM113.576 220.725H152.19V220.268H113.576V220.725ZM152.19 235.308H113.576V235.765H152.19V235.308ZM113.804 235.537V220.497H113.347V235.537H113.804Z" fill="#C9D4DE" mask="url(#path-87-inside-10_1232_72187)"/>
<rect x="190.261" y="220.611" width="38.3862" height="14.8119" stroke="#C9D4DE" stroke-width="0.228175"/>
<rect x="228.616" y="220.611" width="38.3862" height="14.8119" stroke="#C9D4DE" stroke-width="0.228175"/>
<rect x="266.982" y="220.611" width="38.3862" height="14.8119" stroke="#C9D4DE" stroke-width="0.228175"/>
<rect x="305.338" y="220.611" width="38.3862" height="14.8119" stroke="#C9D4DE" stroke-width="0.228175"/>
<rect x="228.689" y="220.611" width="38.3862" height="14.8119" fill="#E6F1FA" stroke="#C9D4DE" stroke-width="0.228175"/>
<rect x="343.698" y="220.611" width="39.6564" height="14.8119" stroke="#C9D4DE" stroke-width="0.228175"/>
<rect x="151.9" y="235.355" width="38.3862" height="14.8119" stroke="#C9D4DE" stroke-width="0.228175"/>
<rect x="151.9" y="235.355" width="38.3862" height="14.8119" stroke="#C9D4DE" stroke-width="0.228175"/>
<mask id="path-97-inside-11_1232_72187" fill="white">
<path d="M113.576 235.241H152.19V250.281H113.576V235.241Z"/>
</mask>
<path d="M113.576 235.241V235.013H113.347V235.241H113.576ZM113.576 250.281H113.347V250.509H113.576V250.281ZM113.576 235.469H152.19V235.013H113.576V235.469ZM152.19 250.053H113.576V250.509H152.19V250.053ZM113.804 250.281V235.241H113.347V250.281H113.804Z" fill="#C9D4DE" mask="url(#path-97-inside-11_1232_72187)"/>
<rect x="190.261" y="235.355" width="38.3862" height="14.8119" stroke="#C9D4DE" stroke-width="0.228175"/>
<rect x="228.616" y="235.355" width="38.3862" height="14.8119" stroke="#C9D4DE" stroke-width="0.228175"/>
<rect x="266.982" y="235.355" width="38.3862" height="14.8119" stroke="#C9D4DE" stroke-width="0.228175"/>
<rect x="305.338" y="235.355" width="38.3862" height="14.8119" stroke="#C9D4DE" stroke-width="0.228175"/>
<rect x="228.689" y="235.355" width="38.3862" height="14.8119" fill="#E6F1FA" stroke="#C9D4DE" stroke-width="0.228175"/>
<rect x="343.698" y="235.355" width="39.6564" height="14.8119" stroke="#C9D4DE" stroke-width="0.228175"/>
<g filter="url(#filter1_d_1232_72187)">
<rect x="113.577" y="74.2246" width="39.282" height="13.8604" fill="white"/>
<rect x="152.61" y="74.2246" width="38.5217" height="13.8604" fill="white"/>
<rect x="190.874" y="74.2246" width="38.5217" height="13.8604" fill="white"/>
<rect x="229.143" y="74.2246" width="38.5217" height="13.8604" fill="white"/>
<rect x="267.411" y="74.2246" width="38.5217" height="13.8604" fill="white"/>
<rect x="343.944" y="74.2246" width="39.7889" height="13.8604" fill="white"/>
<rect x="305.443" y="74.2246" width="39.7889" height="13.8604" fill="white"/>
<rect x="228.959" y="73.9297" width="38.0149" height="13.8604" fill="#E6F1FA"/>
</g>
<rect x="151.901" y="250.101" width="38.3862" height="14.8119" stroke="#C9D4DE" stroke-width="0.228175"/>
<mask id="path-114-inside-12_1232_72187" fill="white">
<path d="M113.577 249.987H152.191V265.027H113.577V249.987Z"/>
</mask>
<path d="M113.577 249.987V249.759H113.348V249.987H113.577ZM113.577 265.027H113.348V265.256H113.577V265.027ZM113.577 250.215H152.191V249.759H113.577V250.215ZM152.191 264.799H113.577V265.256H152.191V264.799ZM113.805 265.027V249.987H113.348V265.027H113.805Z" fill="#C9D4DE" mask="url(#path-114-inside-12_1232_72187)"/>
<rect x="190.262" y="250.101" width="38.3862" height="14.8119" stroke="#C9D4DE" stroke-width="0.228175"/>
<rect x="228.617" y="250.101" width="38.3862" height="14.8119" stroke="#C9D4DE" stroke-width="0.228175"/>
<rect x="266.983" y="250.101" width="38.3862" height="14.8119" stroke="#C9D4DE" stroke-width="0.228175"/>
<rect x="305.339" y="250.101" width="38.3862" height="14.8119" stroke="#C9D4DE" stroke-width="0.228175"/>
<rect x="228.69" y="250.101" width="38.3862" height="14.8119" fill="#E6F1FA" stroke="#C9D4DE" stroke-width="0.228175"/>
<rect x="343.699" y="250.101" width="39.6564" height="14.8119" stroke="#C9D4DE" stroke-width="0.228175"/>
<path d="M114.884 263.046V263.193L114.236 264.668H113.953L114.6 263.26H113.76V263.046H114.884ZM115.457 263.694V265.131H115.189V263.462H115.436L115.457 263.694ZM116.243 264.054V264.077C116.243 264.165 116.232 264.246 116.211 264.321C116.191 264.396 116.161 264.461 116.121 264.516C116.082 264.571 116.033 264.614 115.975 264.645C115.917 264.675 115.851 264.69 115.775 264.69C115.7 264.69 115.634 264.677 115.578 264.649C115.522 264.621 115.475 264.581 115.436 264.53C115.397 264.479 115.366 264.418 115.342 264.349C115.319 264.28 115.303 264.203 115.293 264.12V264.03C115.303 263.941 115.319 263.861 115.342 263.789C115.366 263.717 115.397 263.655 115.436 263.603C115.475 263.551 115.522 263.511 115.578 263.483C115.633 263.454 115.698 263.44 115.773 263.44C115.848 263.44 115.916 263.455 115.974 263.485C116.033 263.514 116.082 263.555 116.122 263.61C116.162 263.663 116.193 263.728 116.213 263.803C116.233 263.878 116.243 263.962 116.243 264.054ZM115.974 264.077V264.054C115.974 263.998 115.969 263.947 115.959 263.899C115.948 263.851 115.932 263.809 115.91 263.772C115.887 263.736 115.859 263.708 115.824 263.688C115.79 263.667 115.748 263.656 115.7 263.656C115.653 263.656 115.612 263.665 115.578 263.681C115.543 263.696 115.515 263.718 115.492 263.747C115.469 263.775 115.451 263.808 115.438 263.846C115.426 263.883 115.417 263.923 115.412 263.967V264.183C115.42 264.237 115.436 264.286 115.457 264.33C115.479 264.375 115.509 264.411 115.549 264.437C115.589 264.463 115.64 264.476 115.702 264.476C115.751 264.476 115.792 264.466 115.826 264.445C115.86 264.424 115.888 264.396 115.91 264.359C115.932 264.322 115.948 264.28 115.959 264.231C115.969 264.183 115.974 264.132 115.974 264.077ZM116.808 263.708V264.668H116.54V263.462H116.792L116.808 263.708ZM116.765 264.021L116.673 264.02C116.673 263.936 116.684 263.859 116.704 263.789C116.725 263.718 116.756 263.657 116.796 263.605C116.836 263.552 116.886 263.512 116.945 263.484C117.005 263.455 117.075 263.44 117.153 263.44C117.208 263.44 117.259 263.448 117.304 263.465C117.35 263.48 117.39 263.505 117.423 263.539C117.457 263.574 117.483 263.617 117.501 263.671C117.52 263.724 117.529 263.789 117.529 263.865V264.668H117.26V263.888C117.26 263.829 117.251 263.783 117.234 263.75C117.217 263.716 117.192 263.693 117.159 263.679C117.127 263.664 117.089 263.656 117.044 263.656C116.994 263.656 116.951 263.666 116.915 263.685C116.88 263.705 116.851 263.731 116.829 263.764C116.807 263.798 116.791 263.836 116.78 263.88C116.77 263.924 116.765 263.971 116.765 264.021ZM117.512 263.949L117.386 263.977C117.386 263.904 117.396 263.836 117.416 263.771C117.437 263.706 117.467 263.649 117.507 263.6C117.547 263.55 117.596 263.511 117.655 263.483C117.713 263.454 117.781 263.44 117.856 263.44C117.918 263.44 117.973 263.449 118.021 263.466C118.07 263.482 118.112 263.508 118.146 263.544C118.18 263.579 118.206 263.626 118.224 263.683C118.242 263.74 118.251 263.808 118.251 263.888V264.668H117.981V263.887C117.981 263.826 117.972 263.779 117.954 263.745C117.937 263.712 117.913 263.689 117.881 263.676C117.849 263.663 117.811 263.656 117.766 263.656C117.725 263.656 117.688 263.664 117.656 263.68C117.625 263.695 117.598 263.716 117.577 263.743C117.555 263.77 117.539 263.801 117.528 263.836C117.517 263.871 117.512 263.908 117.512 263.949Z" fill="#486581"/>
<rect x="151.901" y="264.847" width="38.3862" height="14.8119" stroke="#C9D4DE" stroke-width="0.228175"/>
<mask id="path-124-inside-13_1232_72187" fill="white">
<path d="M113.577 264.732H152.191V279.772H113.577V264.732Z"/>
</mask>
<path d="M113.577 264.732V264.504H113.348V264.732H113.577ZM113.577 279.772H113.348V280.001H113.577V279.772ZM113.577 264.961H152.191V264.504H113.577V264.961ZM152.191 279.544H113.577V280.001H152.191V279.544ZM113.805 279.772V264.732H113.348V279.772H113.805Z" fill="#C9D4DE" mask="url(#path-124-inside-13_1232_72187)"/>
<rect x="190.262" y="264.847" width="38.3862" height="14.8119" stroke="#C9D4DE" stroke-width="0.228175"/>
<rect x="228.617" y="264.847" width="38.3862" height="14.8119" stroke="#C9D4DE" stroke-width="0.228175"/>
<rect x="266.983" y="264.847" width="38.3862" height="14.8119" stroke="#C9D4DE" stroke-width="0.228175"/>
<rect x="305.339" y="264.847" width="38.3862" height="14.8119" stroke="#C9D4DE" stroke-width="0.228175"/>
<rect x="228.69" y="264.847" width="38.3862" height="14.8119" fill="#E6F1FA" stroke="#C9D4DE" stroke-width="0.228175"/>
<rect x="343.699" y="264.847" width="39.6564" height="14.8119" stroke="#C9D4DE" stroke-width="0.228175"/>
<path d="M114.867 278.971C114.867 279.072 114.844 279.157 114.797 279.226C114.75 279.295 114.686 279.348 114.606 279.383C114.525 279.418 114.435 279.436 114.334 279.436C114.233 279.436 114.142 279.418 114.061 279.383C113.98 279.348 113.916 279.295 113.869 279.226C113.822 279.157 113.799 279.072 113.799 278.971C113.799 278.904 113.812 278.844 113.838 278.79C113.864 278.735 113.901 278.688 113.948 278.648C113.996 278.608 114.053 278.577 114.118 278.556C114.183 278.534 114.254 278.523 114.331 278.523C114.434 278.523 114.526 278.542 114.607 278.58C114.688 278.618 114.751 278.67 114.797 278.737C114.844 278.804 114.867 278.882 114.867 278.971ZM114.598 278.958C114.598 278.904 114.587 278.856 114.564 278.815C114.542 278.774 114.511 278.743 114.471 278.721C114.431 278.698 114.384 278.687 114.331 278.687C114.278 278.687 114.232 278.698 114.192 278.721C114.153 278.743 114.122 278.774 114.1 278.815C114.078 278.856 114.067 278.904 114.067 278.958C114.067 279.013 114.078 279.06 114.1 279.101C114.121 279.14 114.152 279.17 114.192 279.191C114.232 279.212 114.279 279.222 114.334 279.222C114.388 279.222 114.435 279.212 114.474 279.191C114.513 279.17 114.544 279.14 114.565 279.101C114.587 279.06 114.598 279.013 114.598 278.958ZM114.831 278.218C114.831 278.299 114.809 278.371 114.766 278.434C114.724 278.497 114.665 278.547 114.59 278.584C114.515 278.619 114.429 278.637 114.334 278.637C114.237 278.637 114.151 278.619 114.075 278.584C114 278.547 113.941 278.497 113.898 278.434C113.856 278.371 113.835 278.299 113.835 278.218C113.835 278.122 113.856 278.04 113.898 277.974C113.941 277.907 114 277.856 114.075 277.821C114.15 277.787 114.236 277.769 114.333 277.769C114.429 277.769 114.515 277.787 114.59 277.821C114.665 277.856 114.724 277.907 114.766 277.974C114.809 278.04 114.831 278.122 114.831 278.218ZM114.562 278.227C114.562 278.179 114.552 278.136 114.533 278.1C114.515 278.063 114.488 278.034 114.454 278.013C114.42 277.992 114.379 277.982 114.333 277.982C114.286 277.982 114.245 277.992 114.211 278.012C114.177 278.032 114.151 278.06 114.132 278.097C114.113 278.133 114.104 278.177 114.104 278.227C114.104 278.277 114.113 278.32 114.132 278.357C114.151 278.394 114.177 278.422 114.211 278.443C114.246 278.464 114.287 278.474 114.334 278.474C114.38 278.474 114.421 278.464 114.455 278.443C114.489 278.422 114.516 278.394 114.534 278.357C114.553 278.32 114.562 278.277 114.562 278.227ZM115.457 278.44V279.877H115.189V278.208H115.436L115.457 278.44ZM116.243 278.8V278.823C116.243 278.911 116.232 278.992 116.211 279.067C116.191 279.141 116.161 279.206 116.121 279.262C116.082 279.317 116.033 279.36 115.975 279.39C115.917 279.421 115.851 279.436 115.775 279.436C115.7 279.436 115.634 279.422 115.578 279.395C115.522 279.366 115.475 279.327 115.436 279.275C115.397 279.224 115.366 279.164 115.342 279.095C115.319 279.025 115.303 278.949 115.293 278.865V278.775C115.303 278.687 115.319 278.607 115.342 278.535C115.366 278.462 115.397 278.4 115.436 278.348C115.475 278.296 115.522 278.256 115.578 278.228C115.633 278.2 115.698 278.186 115.773 278.186C115.848 278.186 115.916 278.201 115.974 278.23C116.033 278.259 116.082 278.301 116.122 278.355C116.162 278.409 116.193 278.473 116.213 278.549C116.233 278.624 116.243 278.708 116.243 278.8ZM115.974 278.823V278.8C115.974 278.744 115.969 278.692 115.959 278.645C115.948 278.597 115.932 278.554 115.91 278.518C115.887 278.481 115.859 278.453 115.824 278.433C115.79 278.412 115.748 278.402 115.7 278.402C115.653 278.402 115.612 278.41 115.578 278.426C115.543 278.442 115.515 278.464 115.492 278.492C115.469 278.52 115.451 278.553 115.438 278.591C115.426 278.628 115.417 278.669 115.412 278.713V278.929C115.42 278.982 115.436 279.031 115.457 279.076C115.479 279.121 115.509 279.156 115.549 279.183C115.589 279.209 115.64 279.222 115.702 279.222C115.751 279.222 115.792 279.212 115.826 279.191C115.86 279.17 115.888 279.141 115.91 279.105C115.932 279.068 115.948 279.025 115.959 278.977C115.969 278.929 115.974 278.877 115.974 278.823ZM116.808 278.453V279.414H116.54V278.208H116.792L116.808 278.453ZM116.765 278.766L116.673 278.765C116.673 278.682 116.684 278.605 116.704 278.535C116.725 278.464 116.756 278.403 116.796 278.351C116.836 278.298 116.886 278.257 116.945 278.229C117.005 278.2 117.075 278.186 117.153 278.186C117.208 278.186 117.259 278.194 117.304 278.21C117.35 278.226 117.39 278.251 117.423 278.285C117.457 278.319 117.483 278.363 117.501 278.416C117.52 278.47 117.529 278.535 117.529 278.61V279.414H117.26V278.634C117.26 278.575 117.251 278.529 117.234 278.496C117.217 278.462 117.192 278.438 117.159 278.424C117.127 278.409 117.089 278.402 117.044 278.402C116.994 278.402 116.951 278.412 116.915 278.431C116.88 278.45 116.851 278.477 116.829 278.51C116.807 278.543 116.791 278.582 116.78 278.626C116.77 278.67 116.765 278.716 116.765 278.766ZM117.512 278.695L117.386 278.723C117.386 278.65 117.396 278.581 117.416 278.517C117.437 278.451 117.467 278.394 117.507 278.345C117.547 278.295 117.596 278.256 117.655 278.228C117.713 278.2 117.781 278.186 117.856 278.186C117.918 278.186 117.973 278.194 118.021 278.211C118.07 278.228 118.112 278.254 118.146 278.289C118.18 278.325 118.206 278.371 118.224 278.429C118.242 278.485 118.251 278.553 118.251 278.634V279.414H117.981V278.633C117.981 278.572 117.972 278.524 117.954 278.491C117.937 278.458 117.913 278.435 117.881 278.422C117.849 278.409 117.811 278.402 117.766 278.402C117.725 278.402 117.688 278.41 117.656 278.425C117.625 278.44 117.598 278.461 117.577 278.489C117.555 278.516 117.539 278.546 117.528 278.581C117.517 278.616 117.512 278.654 117.512 278.695Z" fill="#486581"/>
<rect x="151.901" y="279.592" width="38.3862" height="14.8119" stroke="#C9D4DE" stroke-width="0.228175"/>
<mask id="path-134-inside-14_1232_72187" fill="white">
<path d="M113.577 279.478H152.191V294.518H113.577V279.478Z"/>
</mask>
<path d="M113.577 279.478V279.25H113.348V279.478H113.577ZM113.577 294.518H113.348V294.746H113.577V294.518ZM113.577 279.706H152.191V279.25H113.577V279.706ZM152.191 294.29H113.577V294.746H152.191V294.29ZM113.805 294.518V279.478H113.348V294.518H113.805Z" fill="#C9D4DE" mask="url(#path-134-inside-14_1232_72187)"/>
<rect x="190.262" y="279.592" width="38.3862" height="14.8119" stroke="#C9D4DE" stroke-width="0.228175"/>
<rect x="228.617" y="279.592" width="38.3862" height="14.8119" stroke="#C9D4DE" stroke-width="0.228175"/>
<rect x="266.983" y="279.592" width="38.3862" height="14.8119" stroke="#C9D4DE" stroke-width="0.228175"/>
<rect x="305.339" y="279.592" width="38.3862" height="14.8119" stroke="#C9D4DE" stroke-width="0.228175"/>
<rect x="228.69" y="279.592" width="38.3862" height="14.8119" fill="#E6F1FA" stroke="#C9D4DE" stroke-width="0.228175"/>
<rect x="343.699" y="279.592" width="39.6564" height="14.8119" stroke="#C9D4DE" stroke-width="0.228175"/>
<rect x="151.901" y="294.337" width="38.3862" height="14.8119" stroke="#C9D4DE" stroke-width="0.228175"/>
<mask id="path-143-inside-15_1232_72187" fill="white">
<path d="M113.577 294.223H152.191V309.263H113.577V294.223Z"/>
</mask>
<path d="M113.577 294.223V293.995H113.348V294.223H113.577ZM113.577 309.263H113.348V309.491H113.577V309.263ZM113.577 294.451H152.191V293.995H113.577V294.451ZM152.191 309.035H113.577V309.491H152.191V309.035ZM113.805 309.263V294.223H113.348V309.263H113.805Z" fill="#C9D4DE" mask="url(#path-143-inside-15_1232_72187)"/>
<rect x="190.262" y="294.337" width="38.3862" height="14.8119" stroke="#C9D4DE" stroke-width="0.228175"/>
<rect x="228.617" y="294.337" width="38.3862" height="14.8119" stroke="#C9D4DE" stroke-width="0.228175"/>
<rect x="266.983" y="294.337" width="38.3862" height="14.8119" stroke="#C9D4DE" stroke-width="0.228175"/>
<rect x="305.339" y="294.337" width="38.3862" height="14.8119" stroke="#C9D4DE" stroke-width="0.228175"/>
<rect x="228.69" y="294.337" width="38.3862" height="14.8119" fill="#E6F1FA" stroke="#C9D4DE" stroke-width="0.228175"/>
<rect x="343.699" y="294.337" width="39.6564" height="14.8119" stroke="#C9D4DE" stroke-width="0.228175"/>
<path d="M114.023 293.947H114.045C114.148 293.947 114.233 293.934 114.301 293.907C114.37 293.879 114.425 293.842 114.466 293.793C114.507 293.745 114.536 293.688 114.554 293.623C114.572 293.557 114.581 293.486 114.581 293.41V293.13C114.581 293.064 114.574 293.006 114.56 292.957C114.546 292.906 114.527 292.864 114.502 292.831C114.477 292.796 114.449 292.771 114.416 292.754C114.384 292.737 114.35 292.728 114.313 292.728C114.272 292.728 114.235 292.737 114.202 292.756C114.17 292.774 114.143 292.799 114.121 292.831C114.099 292.862 114.083 292.899 114.071 292.941C114.06 292.983 114.054 293.027 114.054 293.075C114.054 293.119 114.059 293.162 114.07 293.204C114.081 293.245 114.097 293.281 114.119 293.313C114.14 293.345 114.167 293.37 114.2 293.389C114.233 293.407 114.271 293.417 114.315 293.417C114.356 293.417 114.395 293.409 114.429 293.393C114.464 293.377 114.495 293.355 114.521 293.328C114.547 293.3 114.567 293.269 114.582 293.235C114.597 293.201 114.605 293.166 114.607 293.13L114.709 293.162C114.709 293.218 114.697 293.274 114.673 293.329C114.65 293.383 114.618 293.433 114.577 293.478C114.536 293.523 114.488 293.558 114.433 293.585C114.379 293.612 114.32 293.625 114.256 293.625C114.178 293.625 114.11 293.611 114.051 293.582C113.992 293.552 113.943 293.512 113.904 293.461C113.865 293.411 113.836 293.353 113.817 293.287C113.797 293.222 113.788 293.153 113.788 293.081C113.788 293.003 113.8 292.93 113.823 292.862C113.847 292.794 113.882 292.733 113.927 292.681C113.972 292.629 114.027 292.588 114.092 292.559C114.157 292.529 114.231 292.514 114.314 292.514C114.401 292.514 114.478 292.531 114.544 292.565C114.61 292.6 114.666 292.647 114.711 292.707C114.757 292.767 114.791 292.837 114.814 292.916C114.837 292.996 114.848 293.081 114.848 293.173V293.267C114.848 293.363 114.84 293.456 114.823 293.545C114.806 293.633 114.778 293.715 114.739 293.791C114.701 293.866 114.651 293.932 114.589 293.989C114.527 294.046 114.451 294.09 114.362 294.122C114.272 294.153 114.168 294.169 114.047 294.169H114.023V293.947ZM115.457 293.185V294.622H115.189V292.953H115.436L115.457 293.185ZM116.243 293.545V293.568C116.243 293.656 116.232 293.737 116.211 293.812C116.191 293.886 116.161 293.951 116.121 294.007C116.082 294.062 116.033 294.105 115.975 294.135C115.917 294.166 115.851 294.181 115.775 294.181C115.7 294.181 115.634 294.167 115.578 294.14C115.522 294.112 115.475 294.072 115.436 294.021C115.397 293.969 115.366 293.909 115.342 293.84C115.319 293.77 115.303 293.694 115.293 293.611V293.52C115.303 293.432 115.319 293.352 115.342 293.28C115.366 293.208 115.397 293.146 115.436 293.094C115.475 293.042 115.522 293.001 115.578 292.973C115.633 292.945 115.698 292.931 115.773 292.931C115.848 292.931 115.916 292.946 115.974 292.975C116.033 293.004 116.082 293.046 116.122 293.1C116.162 293.154 116.193 293.218 116.213 293.294C116.233 293.369 116.243 293.453 116.243 293.545ZM115.974 293.568V293.545C115.974 293.489 115.969 293.437 115.959 293.39C115.948 293.342 115.932 293.299 115.91 293.263C115.887 293.227 115.859 293.198 115.824 293.178C115.79 293.157 115.748 293.147 115.7 293.147C115.653 293.147 115.612 293.155 115.578 293.172C115.543 293.187 115.515 293.209 115.492 293.237C115.469 293.266 115.451 293.299 115.438 293.336C115.426 293.374 115.417 293.414 115.412 293.458V293.674C115.42 293.728 115.436 293.777 115.457 293.821C115.479 293.866 115.509 293.901 115.549 293.928C115.589 293.954 115.64 293.967 115.702 293.967C115.751 293.967 115.792 293.957 115.826 293.936C115.86 293.915 115.888 293.886 115.91 293.85C115.932 293.813 115.948 293.77 115.959 293.722C115.969 293.674 115.974 293.622 115.974 293.568ZM116.808 293.198V294.159H116.54V292.953H116.792L116.808 293.198ZM116.765 293.511L116.673 293.51C116.673 293.427 116.684 293.35 116.704 293.28C116.725 293.209 116.756 293.148 116.796 293.096C116.836 293.043 116.886 293.003 116.945 292.974C117.005 292.945 117.075 292.931 117.153 292.931C117.208 292.931 117.259 292.939 117.304 292.955C117.35 292.971 117.39 292.996 117.423 293.03C117.457 293.064 117.483 293.108 117.501 293.162C117.52 293.215 117.529 293.28 117.529 293.355V294.159H117.26V293.379C117.26 293.32 117.251 293.274 117.234 293.241C117.217 293.207 117.192 293.183 117.159 293.169C117.127 293.154 117.089 293.147 117.044 293.147C116.994 293.147 116.951 293.157 116.915 293.176C116.88 293.195 116.851 293.222 116.829 293.255C116.807 293.289 116.791 293.327 116.78 293.371C116.77 293.415 116.765 293.462 116.765 293.511ZM117.512 293.44L117.386 293.468C117.386 293.395 117.396 293.326 117.416 293.262C117.437 293.196 117.467 293.139 117.507 293.09C117.547 293.04 117.596 293.001 117.655 292.973C117.713 292.945 117.781 292.931 117.856 292.931C117.918 292.931 117.973 292.939 118.021 292.957C118.07 292.973 118.112 292.999 118.146 293.035C118.18 293.07 118.206 293.117 118.224 293.174C118.242 293.23 118.251 293.299 118.251 293.379V294.159H117.981V293.378C117.981 293.317 117.972 293.27 117.954 293.236C117.937 293.203 117.913 293.18 117.881 293.167C117.849 293.154 117.811 293.147 117.766 293.147C117.725 293.147 117.688 293.155 117.656 293.17C117.625 293.185 117.598 293.206 117.577 293.234C117.555 293.261 117.539 293.292 117.528 293.326C117.517 293.361 117.512 293.399 117.512 293.44Z" fill="#486581"/>
<line x1="343.735" y1="88.0854" x2="343.735" y2="55.941" stroke="#C9D4DE" stroke-width="0.228175"/>
<line x1="305.369" y1="88.0854" x2="305.37" y2="55.941" stroke="#C9D4DE" stroke-width="0.228175"/>
<line x1="267.014" y1="88.0854" x2="267.014" y2="55.941" stroke="#C9D4DE" stroke-width="0.228175"/>
<line x1="228.658" y1="88.0854" x2="228.658" y2="55.941" stroke="#C9D4DE" stroke-width="0.228175"/>
<line x1="190.293" y1="88.0854" x2="190.293" y2="55.941" stroke="#C9D4DE" stroke-width="0.228175"/>
<line x1="151.932" y1="88.0854" x2="151.932" y2="55.941" stroke="#C9D4DE" stroke-width="0.228175"/>
<rect x="305.487" y="87.7905" width="38.1063" height="0.589806" fill="#F0F9FF"/>
<path d="M129.718 41.5691C129.704 41.4541 129.649 41.3649 129.552 41.3014C129.456 41.2379 129.337 41.2061 129.196 41.2061C129.093 41.2061 129.003 41.2227 128.926 41.256C128.85 41.2893 128.79 41.335 128.747 41.3933C128.705 41.4515 128.684 41.5177 128.684 41.5918C128.684 41.6538 128.698 41.7071 128.728 41.7517C128.758 41.7956 128.797 41.8323 128.843 41.8618C128.89 41.8905 128.94 41.9143 128.991 41.9332C129.042 41.9514 129.09 41.9661 129.133 41.9775L129.369 42.041C129.429 42.0569 129.497 42.0788 129.571 42.1068C129.646 42.1348 129.717 42.173 129.785 42.2214C129.854 42.269 129.911 42.3303 129.955 42.4051C130 42.48 130.022 42.5719 130.022 42.6808C130.022 42.8063 129.989 42.9198 129.923 43.0211C129.858 43.1225 129.763 43.203 129.638 43.2627C129.513 43.3225 129.361 43.3524 129.183 43.3524C129.016 43.3524 128.872 43.3255 128.75 43.2718C128.629 43.2181 128.534 43.1433 128.465 43.0472C128.396 42.9512 128.357 42.8396 128.348 42.7126H128.638C128.646 42.8003 128.675 42.8729 128.727 42.9304C128.779 42.9871 128.845 43.0294 128.924 43.0574C129.004 43.0846 129.09 43.0983 129.183 43.0983C129.29 43.0983 129.386 43.0809 129.472 43.0461C129.557 43.0105 129.625 42.9614 129.675 42.8986C129.725 42.8351 129.75 42.761 129.75 42.6763C129.75 42.5991 129.728 42.5364 129.685 42.488C129.642 42.4396 129.585 42.4002 129.515 42.37C129.445 42.3397 129.369 42.3133 129.287 42.2906L129.001 42.2089C128.82 42.1567 128.676 42.0822 128.57 41.9854C128.464 41.8886 128.411 41.7619 128.411 41.6054C128.411 41.4753 128.446 41.3619 128.517 41.2651C128.588 41.1675 128.683 41.0919 128.803 41.0382C128.923 40.9837 129.057 40.9565 129.205 40.9565C129.355 40.9565 129.488 40.9834 129.605 41.0371C129.721 41.09 129.813 41.1626 129.881 41.2549C129.95 41.3471 129.987 41.4519 129.99 41.5691H129.718ZM132.466 40.9883H132.747V42.5265C132.747 42.6853 132.71 42.8271 132.635 42.9519C132.561 43.0759 132.456 43.1739 132.32 43.2457C132.185 43.3168 132.026 43.3524 131.844 43.3524C131.662 43.3524 131.503 43.3168 131.368 43.2457C131.232 43.1739 131.127 43.0759 131.052 42.9519C130.978 42.8271 130.941 42.6853 130.941 42.5265V40.9883H131.222V42.5038C131.222 42.6173 131.247 42.7182 131.297 42.8067C131.347 42.8944 131.418 42.9636 131.51 43.0143C131.604 43.0642 131.715 43.0892 131.844 43.0892C131.973 43.0892 132.084 43.0642 132.178 43.0143C132.271 42.9636 132.342 42.8944 132.391 42.8067C132.441 42.7182 132.466 42.6173 132.466 42.5038V40.9883ZM135.607 40.9883V43.3115H135.335L134.069 41.4874H134.046V43.3115H133.765V40.9883H134.037L135.308 42.8169H135.331V40.9883H135.607Z" fill="white"/>
<path d="M127.597 47.222V50.209H127.183L125.665 48.0183H125.637V50.209H125.186V47.222H125.603L127.123 49.4156H127.151V47.222H127.597ZM131.306 48.7155C131.306 49.0344 131.247 49.3086 131.131 49.5381C131.014 49.7666 130.854 49.9426 130.651 50.0661C130.449 50.1886 130.219 50.2498 129.961 50.2498C129.702 50.2498 129.471 50.1886 129.268 50.0661C129.066 49.9426 128.906 49.7661 128.79 49.5366C128.673 49.3071 128.615 49.0334 128.615 48.7155C128.615 48.3965 128.673 48.1228 128.79 47.8943C128.906 47.6649 129.066 47.4889 129.268 47.3664C129.471 47.2429 129.702 47.1811 129.961 47.1811C130.219 47.1811 130.449 47.2429 130.651 47.3664C130.854 47.4889 131.014 47.6649 131.131 47.8943C131.247 48.1228 131.306 48.3965 131.306 48.7155ZM130.859 48.7155C130.859 48.4724 130.82 48.2677 130.741 48.1014C130.663 47.9342 130.556 47.8078 130.42 47.7222C130.285 47.6357 130.132 47.5924 129.961 47.5924C129.789 47.5924 129.635 47.6357 129.5 47.7222C129.365 47.8078 129.258 47.9342 129.179 48.1014C129.101 48.2677 129.062 48.4724 129.062 48.7155C129.062 48.9586 129.101 49.1637 129.179 49.331C129.258 49.4972 129.365 49.6236 129.5 49.7102C129.635 49.7957 129.789 49.8385 129.961 49.8385C130.132 49.8385 130.285 49.7957 130.42 49.7102C130.556 49.6236 130.663 49.4972 130.741 49.331C130.82 49.1637 130.859 48.9586 130.859 48.7155ZM132.437 47.222L133.268 49.6548H133.301L134.133 47.222H134.62L133.545 50.209H133.024L131.949 47.222H132.437ZM137.111 50.209L138.415 47.6303V47.6085H136.907V47.222H138.881V47.6216L137.582 50.209H137.111Z" fill="white"/>
<path d="M167.055 40.6934H167.391L168.181 42.6218H168.208L168.997 40.6934H169.333V43.0166H169.07V41.2515H169.047L168.321 43.0166H168.067L167.341 41.2515H167.318V43.0166H167.055V40.6934ZM172.314 41.855C172.314 42.1 172.269 42.3118 172.181 42.4902C172.093 42.6687 171.971 42.8064 171.817 42.9032C171.663 43 171.486 43.0484 171.288 43.0484C171.09 43.0484 170.914 43 170.76 42.9032C170.605 42.8064 170.484 42.6687 170.395 42.4902C170.307 42.3118 170.263 42.1 170.263 41.855C170.263 41.61 170.307 41.3982 170.395 41.2197C170.484 41.0412 170.605 40.9036 170.76 40.8068C170.914 40.71 171.09 40.6616 171.288 40.6616C171.486 40.6616 171.663 40.71 171.817 40.8068C171.971 40.9036 172.093 41.0412 172.181 41.2197C172.269 41.3982 172.314 41.61 172.314 41.855ZM172.041 41.855C172.041 41.6538 172.008 41.484 171.94 41.3456C171.874 41.2072 171.784 41.1025 171.669 41.0314C171.556 40.9603 171.429 40.9248 171.288 40.9248C171.148 40.9248 171.02 40.9603 170.906 41.0314C170.792 41.1025 170.702 41.2072 170.635 41.3456C170.568 41.484 170.535 41.6538 170.535 41.855C170.535 42.0561 170.568 42.2259 170.635 42.3643C170.702 42.5027 170.792 42.6075 170.906 42.6786C171.02 42.7496 171.148 42.7852 171.288 42.7852C171.429 42.7852 171.556 42.7496 171.669 42.6786C171.784 42.6075 171.874 42.5027 171.94 42.3643C172.008 42.2259 172.041 42.0561 172.041 41.855ZM175.085 40.6934V43.0166H174.813L173.547 41.1925H173.524V43.0166H173.243V40.6934H173.515L174.786 42.522H174.809V40.6934H175.085Z" fill="white"/>
<path d="M166.21 46.9278V49.9148H165.795L164.277 47.7241H164.249V49.9148H163.799V46.9278H164.216L165.736 49.1214H165.763V46.9278H166.21ZM169.918 48.4213C169.918 48.7402 169.86 49.0144 169.743 49.2439C169.626 49.4724 169.466 49.6484 169.263 49.7719C169.061 49.8944 168.831 49.9556 168.573 49.9556C168.315 49.9556 168.084 49.8944 167.881 49.7719C167.678 49.6484 167.519 49.4719 167.402 49.2424C167.286 49.013 167.227 48.7392 167.227 48.4213C167.227 48.1024 167.286 47.8286 167.402 47.6001C167.519 47.3707 167.678 47.1947 167.881 47.0722C168.084 46.9487 168.315 46.8869 168.573 46.8869C168.831 46.8869 169.061 46.9487 169.263 47.0722C169.466 47.1947 169.626 47.3707 169.743 47.6001C169.86 47.8286 169.918 48.1024 169.918 48.4213ZM169.472 48.4213C169.472 48.1782 169.432 47.9735 169.354 47.8073C169.276 47.64 169.169 47.5136 169.033 47.428C168.898 47.3415 168.744 47.2982 168.573 47.2982C168.401 47.2982 168.248 47.3415 168.112 47.428C167.977 47.5136 167.87 47.64 167.792 47.8073C167.714 47.9735 167.675 48.1782 167.675 48.4213C167.675 48.6644 167.714 48.8695 167.792 49.0368C167.87 49.203 167.977 49.3294 168.112 49.416C168.248 49.5016 168.401 49.5443 168.573 49.5443C168.744 49.5443 168.898 49.5016 169.033 49.416C169.169 49.3294 169.276 49.203 169.354 49.0368C169.432 48.8695 169.472 48.6644 169.472 48.4213ZM171.049 46.9278L171.88 49.3606H171.914L172.745 46.9278H173.232L172.157 49.9148H171.637L170.562 46.9278H171.049ZM176.632 49.9556C176.423 49.9556 176.238 49.9197 176.078 49.8477C175.918 49.7758 175.793 49.6766 175.703 49.5502C175.612 49.4238 175.568 49.2799 175.569 49.1185C175.568 48.992 175.593 48.8759 175.646 48.7699C175.699 48.6629 175.772 48.5739 175.863 48.503C175.955 48.431 176.057 48.3853 176.17 48.3659V48.3484C176.021 48.3124 175.902 48.2327 175.812 48.1092C175.723 47.9857 175.678 47.8437 175.679 47.6833C175.678 47.5306 175.719 47.3945 175.801 47.2749C175.883 47.1543 175.996 47.0595 176.14 46.9905C176.284 46.9215 176.448 46.8869 176.632 46.8869C176.814 46.8869 176.976 46.9219 177.119 46.992C177.263 47.061 177.376 47.1558 177.459 47.2764C177.541 47.396 177.583 47.5316 177.584 47.6833C177.583 47.8437 177.538 47.9857 177.447 48.1092C177.357 48.2327 177.239 48.3124 177.094 48.3484V48.3659C177.206 48.3853 177.307 48.431 177.396 48.503C177.487 48.5739 177.558 48.6629 177.612 48.7699C177.666 48.8759 177.694 48.992 177.695 49.1185C177.694 49.2799 177.648 49.4238 177.558 49.5502C177.468 49.6766 177.342 49.7758 177.182 49.8477C177.022 49.9197 176.839 49.9556 176.632 49.9556ZM176.632 49.5866C176.755 49.5866 176.862 49.5662 176.953 49.5254C177.043 49.4836 177.113 49.4257 177.163 49.3518C177.212 49.2769 177.238 49.1894 177.239 49.0893C177.238 48.9852 177.21 48.8934 177.157 48.8136C177.104 48.7339 177.033 48.6712 176.943 48.6255C176.852 48.5798 176.749 48.5569 176.632 48.5569C176.514 48.5569 176.41 48.5798 176.318 48.6255C176.227 48.6712 176.155 48.7339 176.102 48.8136C176.05 48.8934 176.024 48.9852 176.025 49.0893C176.024 49.1894 176.048 49.2769 176.097 49.3518C176.146 49.4257 176.217 49.4836 176.308 49.5254C176.399 49.5662 176.507 49.5866 176.632 49.5866ZM176.632 48.1967C176.731 48.1967 176.819 48.1767 176.896 48.1369C176.973 48.097 177.033 48.0416 177.077 47.9706C177.121 47.8996 177.144 47.8165 177.145 47.7212C177.144 47.6279 177.122 47.5462 177.078 47.4762C177.035 47.4062 176.976 47.3522 176.899 47.3143C176.822 47.2754 176.733 47.2559 176.632 47.2559C176.529 47.2559 176.438 47.2754 176.361 47.3143C176.284 47.3522 176.224 47.4062 176.181 47.4762C176.138 47.5462 176.117 47.6279 176.118 47.7212C176.117 47.8165 176.139 47.8996 176.183 47.9706C176.226 48.0416 176.287 48.097 176.363 48.1369C176.441 48.1767 176.531 48.1967 176.632 48.1967Z" fill="white"/>
<path d="M205.802 41.2379V40.9883H207.545V41.2379H206.814V43.3115H206.533V41.2379H205.802ZM209.96 40.9883H210.241V42.5265C210.241 42.6853 210.204 42.8271 210.129 42.9519C210.055 43.0759 209.95 43.1739 209.815 43.2457C209.679 43.3168 209.52 43.3524 209.338 43.3524C209.156 43.3524 208.997 43.3168 208.862 43.2457C208.726 43.1739 208.621 43.0759 208.546 42.9519C208.472 42.8271 208.435 42.6853 208.435 42.5265V40.9883H208.716V42.5038C208.716 42.6173 208.741 42.7182 208.791 42.8067C208.841 42.8944 208.912 42.9636 209.005 43.0143C209.098 43.0642 209.209 43.0892 209.338 43.0892C209.467 43.0892 209.579 43.0642 209.672 43.0143C209.765 42.9636 209.836 42.8944 209.885 42.8067C209.935 42.7182 209.96 42.6173 209.96 42.5038V40.9883ZM211.259 43.3115V40.9883H212.661V41.2379H211.541V42.0229H212.589V42.2724H211.541V43.062H212.68V43.3115H211.259Z" fill="white"/>
<path d="M204.832 47.222V50.209H204.418L202.899 48.0183H202.872V50.209H202.421V47.222H202.838L204.358 49.4156H204.386V47.222H204.832ZM208.54 48.7155C208.54 49.0344 208.482 49.3086 208.365 49.5381C208.249 49.7666 208.089 49.9426 207.885 50.0661C207.683 50.1886 207.453 50.2498 207.196 50.2498C206.937 50.2498 206.706 50.1886 206.503 50.0661C206.3 49.9426 206.141 49.7661 206.024 49.5366C205.908 49.3071 205.849 49.0334 205.849 48.7155C205.849 48.3965 205.908 48.1228 206.024 47.8943C206.141 47.6649 206.3 47.4889 206.503 47.3664C206.706 47.2429 206.937 47.1811 207.196 47.1811C207.453 47.1811 207.683 47.2429 207.885 47.3664C208.089 47.4889 208.249 47.6649 208.365 47.8943C208.482 48.1228 208.54 48.3965 208.54 48.7155ZM208.094 48.7155C208.094 48.4724 208.055 48.2677 207.976 48.1014C207.898 47.9342 207.791 47.8078 207.655 47.7222C207.52 47.6357 207.367 47.5924 207.196 47.5924C207.023 47.5924 206.87 47.6357 206.735 47.7222C206.599 47.8078 206.493 47.9342 206.414 48.1014C206.336 48.2677 206.297 48.4724 206.297 48.7155C206.297 48.9586 206.336 49.1637 206.414 49.331C206.493 49.4972 206.599 49.6236 206.735 49.7102C206.87 49.7957 207.023 49.8385 207.196 49.8385C207.367 49.8385 207.52 49.7957 207.655 49.7102C207.791 49.6236 207.898 49.4972 207.976 49.331C208.055 49.1637 208.094 48.9586 208.094 48.7155ZM209.671 47.222L210.503 49.6548H210.536L211.367 47.222H211.855L210.78 50.209H210.259L209.184 47.222H209.671ZM215.238 47.1811C215.371 47.1821 215.502 47.2064 215.632 47.2541C215.761 47.3017 215.878 47.3795 215.982 47.4874C216.087 47.5953 216.17 47.7412 216.233 47.925C216.296 48.1078 216.328 48.3353 216.329 48.6075C216.329 48.8691 216.303 49.102 216.25 49.3062C216.198 49.5094 216.122 49.681 216.024 49.821C215.927 49.961 215.809 50.0675 215.67 50.1404C215.531 50.2134 215.374 50.2498 215.2 50.2498C215.022 50.2498 214.864 50.2148 214.726 50.1448C214.588 50.0748 214.476 49.9781 214.389 49.8546C214.303 49.7301 214.249 49.5872 214.227 49.4258H214.672C214.701 49.5541 214.761 49.6582 214.85 49.7379C214.94 49.8166 215.057 49.856 215.2 49.856C215.419 49.856 215.589 49.7607 215.712 49.5702C215.834 49.3786 215.896 49.1112 215.897 48.768H215.874C215.823 48.8516 215.76 48.9236 215.684 48.9838C215.609 49.0441 215.525 49.0908 215.432 49.1239C215.339 49.1569 215.239 49.1734 215.133 49.1734C214.961 49.1734 214.804 49.1311 214.663 49.0466C214.522 48.962 214.41 48.8458 214.326 48.698C214.243 48.5502 214.201 48.3815 214.201 48.1919C214.201 48.0032 214.244 47.8321 214.329 47.6785C214.416 47.5248 214.536 47.4033 214.691 47.3139C214.847 47.2234 215.029 47.1792 215.238 47.1811ZM215.239 47.5603C215.126 47.5603 215.023 47.5885 214.932 47.6449C214.841 47.7004 214.77 47.7757 214.717 47.871C214.665 47.9653 214.639 48.0703 214.639 48.186C214.639 48.3017 214.664 48.4068 214.714 48.5011C214.766 48.5944 214.836 48.6688 214.924 48.7242C215.014 48.7787 215.116 48.8059 215.231 48.8059C215.316 48.8059 215.396 48.7894 215.47 48.7563C215.544 48.7233 215.608 48.6776 215.664 48.6192C215.719 48.5599 215.763 48.4928 215.794 48.4179C215.825 48.3431 215.84 48.2643 215.84 48.1817C215.84 48.0718 215.814 47.9697 215.762 47.8754C215.71 47.7811 215.639 47.7052 215.549 47.6478C215.458 47.5895 215.355 47.5603 215.239 47.5603Z" fill="white"/>
<path d="M244.712 43.3115L244.077 40.9883H244.362L244.848 42.8805H244.871L245.365 40.9883H245.683L246.177 42.8805H246.2L246.686 40.9883H246.972L246.336 43.3115H246.046L245.533 41.4602H245.515L245.002 43.3115H244.712ZM247.778 43.3115V40.9883H249.181V41.2379H248.06V42.0229H249.108V42.2724H248.06V43.062H249.199V43.3115H247.778ZM250.861 43.3115H250.144V40.9883H250.893C251.118 40.9883 251.311 41.0348 251.471 41.1278C251.631 41.2201 251.754 41.3528 251.84 41.526C251.925 41.6984 251.968 41.9049 251.968 42.1454C251.968 42.3874 251.925 42.5957 251.839 42.7704C251.752 42.9444 251.627 43.0782 251.462 43.172C251.297 43.265 251.097 43.3115 250.861 43.3115ZM250.425 43.062H250.843C251.035 43.062 251.194 43.0249 251.32 42.9508C251.447 42.8767 251.541 42.7712 251.603 42.6343C251.665 42.4974 251.696 42.3344 251.696 42.1454C251.696 41.9578 251.665 41.7964 251.604 41.661C251.543 41.5249 251.451 41.4205 251.329 41.3479C251.208 41.2745 251.056 41.2379 250.874 41.2379H250.425V43.062Z" fill="white"/>
<path d="M241.923 46.9278V49.9148H241.509L239.991 47.7241H239.963V49.9148H239.513V46.9278H239.93L241.449 49.1214H241.477V46.9278H241.923ZM245.632 48.4213C245.632 48.7402 245.574 49.0144 245.457 49.2439C245.34 49.4724 245.18 49.6484 244.977 49.7719C244.775 49.8944 244.545 49.9556 244.287 49.9556C244.028 49.9556 243.798 49.8944 243.594 49.7719C243.392 49.6484 243.233 49.4719 243.116 49.2424C242.999 49.013 242.941 48.7392 242.941 48.4213C242.941 48.1024 242.999 47.8286 243.116 47.6001C243.233 47.3707 243.392 47.1947 243.594 47.0722C243.798 46.9487 244.028 46.8869 244.287 46.8869C244.545 46.8869 244.775 46.9487 244.977 47.0722C245.18 47.1947 245.34 47.3707 245.457 47.6001C245.574 47.8286 245.632 48.1024 245.632 48.4213ZM245.186 48.4213C245.186 48.1782 245.146 47.9735 245.067 47.8073C244.99 47.64 244.883 47.5136 244.747 47.428C244.611 47.3415 244.458 47.2982 244.287 47.2982C244.115 47.2982 243.961 47.3415 243.826 47.428C243.691 47.5136 243.584 47.64 243.505 47.8073C243.428 47.9735 243.389 48.1782 243.389 48.4213C243.389 48.6644 243.428 48.8695 243.505 49.0368C243.584 49.203 243.691 49.3294 243.826 49.416C243.961 49.5016 244.115 49.5443 244.287 49.5443C244.458 49.5443 244.611 49.5016 244.747 49.416C244.883 49.3294 244.99 49.203 245.067 49.0368C245.146 48.8695 245.186 48.6644 245.186 48.4213ZM246.763 46.9278L247.594 49.3606H247.628L248.459 46.9278H248.946L247.871 49.9148H247.351L246.276 46.9278H246.763ZM252.47 46.9278V49.9148H252.017V47.3799H252L251.285 47.8466V47.4149L252.031 46.9278H252.47ZM254.774 49.9644C254.543 49.9634 254.347 49.9026 254.183 49.7821C254.02 49.6615 253.895 49.486 253.808 49.2556C253.722 49.0251 253.679 48.7475 253.679 48.4227C253.679 48.099 253.722 47.8223 253.808 47.5929C253.896 47.3634 254.021 47.1884 254.185 47.0678C254.349 46.9472 254.545 46.8869 254.774 46.8869C255.002 46.8869 255.198 46.9477 255.362 47.0693C255.525 47.1898 255.65 47.3648 255.736 47.5943C255.824 47.8228 255.868 48.099 255.868 48.4227C255.868 48.7485 255.824 49.0266 255.738 49.257C255.651 49.4865 255.526 49.662 255.363 49.7835C255.2 49.9041 255.003 49.9644 254.774 49.9644ZM254.774 49.575C254.976 49.575 255.134 49.4763 255.248 49.2789C255.363 49.0815 255.42 48.7961 255.42 48.4227C255.42 48.1748 255.394 47.9653 255.341 47.7941C255.29 47.622 255.215 47.4917 255.118 47.4032C255.022 47.3138 254.907 47.2691 254.774 47.2691C254.573 47.2691 254.415 47.3682 254.3 47.5666C254.185 47.765 254.127 48.0503 254.126 48.4227C254.126 48.6717 254.152 48.8822 254.204 49.0543C254.256 49.2254 254.33 49.3552 254.427 49.4437C254.523 49.5312 254.639 49.575 254.774 49.575Z" fill="white"/>
<path d="M282.78 41.2379V40.9883H284.522V41.2379H283.792V43.3115H283.511V41.2379H282.78ZM285.413 43.3115V40.9883H285.694V42.0229H286.933V40.9883H287.214V43.3115H286.933V42.2724H285.694V43.3115H285.413ZM289.759 40.9883H290.04V42.5265C290.04 42.6853 290.003 42.8271 289.928 42.9519C289.854 43.0759 289.749 43.1739 289.613 43.2457C289.478 43.3168 289.319 43.3524 289.137 43.3524C288.955 43.3524 288.796 43.3168 288.661 43.2457C288.525 43.1739 288.42 43.0759 288.345 42.9519C288.271 42.8271 288.234 42.6853 288.234 42.5265V40.9883H288.515V42.5038C288.515 42.6173 288.54 42.7182 288.59 42.8067C288.64 42.8944 288.711 42.9636 288.803 43.0143C288.897 43.0642 289.008 43.0892 289.137 43.0892C289.266 43.0892 289.377 43.0642 289.471 43.0143C289.564 42.9636 289.635 42.8944 289.684 42.8067C289.734 42.7182 289.759 42.6173 289.759 42.5038V40.9883Z" fill="white"/>
<path d="M280.274 47.222V50.209H279.86L278.342 48.0183H278.314V50.209H277.863V47.222H278.281L279.8 49.4156H279.828V47.222H280.274ZM283.983 48.7155C283.983 49.0344 283.924 49.3086 283.808 49.5381C283.691 49.7666 283.531 49.9426 283.328 50.0661C283.126 50.1886 282.896 50.2498 282.638 50.2498C282.379 50.2498 282.148 50.1886 281.945 50.0661C281.743 49.9426 281.584 49.7661 281.467 49.5366C281.35 49.3071 281.292 49.0334 281.292 48.7155C281.292 48.3965 281.35 48.1228 281.467 47.8943C281.584 47.6649 281.743 47.4889 281.945 47.3664C282.148 47.2429 282.379 47.1811 282.638 47.1811C282.896 47.1811 283.126 47.2429 283.328 47.3664C283.531 47.4889 283.691 47.6649 283.808 47.8943C283.924 48.1228 283.983 48.3965 283.983 48.7155ZM283.537 48.7155C283.537 48.4724 283.497 48.2677 283.418 48.1014C283.341 47.9342 283.234 47.8078 283.097 47.7222C282.962 47.6357 282.809 47.5924 282.638 47.5924C282.466 47.5924 282.312 47.6357 282.177 47.7222C282.042 47.8078 281.935 47.9342 281.856 48.1014C281.779 48.2677 281.74 48.4724 281.74 48.7155C281.74 48.9586 281.779 49.1637 281.856 49.331C281.935 49.4972 282.042 49.6236 282.177 49.7102C282.312 49.7957 282.466 49.8385 282.638 49.8385C282.809 49.8385 282.962 49.7957 283.097 49.7102C283.234 49.6236 283.341 49.4972 283.418 49.331C283.497 49.1637 283.537 48.9586 283.537 48.7155ZM285.114 47.222L285.945 49.6548H285.979L286.81 47.222H287.297L286.222 50.209H285.701L284.627 47.222H285.114ZM290.821 47.222V50.209H290.368V47.6741H290.351L289.636 48.1408V47.7091L290.382 47.222H290.821ZM293.218 47.222V50.209H292.766V47.6741H292.749L292.034 48.1408V47.7091L292.779 47.222H293.218Z" fill="white"/>
<path d="M320.423 43.3115V40.9883H321.961V41.3933H320.914V41.9468H321.859V42.3518H320.914V43.3115H320.423ZM322.748 43.3115V40.9883H323.665C323.84 40.9883 323.99 41.0197 324.114 41.0824C324.239 41.1445 324.334 41.2326 324.399 41.3468C324.464 41.4602 324.497 41.5937 324.497 41.7472C324.497 41.9015 324.464 42.0342 324.397 42.1454C324.331 42.2558 324.234 42.3405 324.108 42.3995C323.983 42.4585 323.831 42.488 323.652 42.488H323.038V42.0932H323.573C323.667 42.0932 323.744 42.0803 323.806 42.0546C323.868 42.0289 323.915 41.9903 323.945 41.9389C323.976 41.8875 323.991 41.8236 323.991 41.7472C323.991 41.6701 323.976 41.605 323.945 41.5521C323.915 41.4991 323.868 41.4591 323.805 41.4318C323.743 41.4039 323.665 41.3899 323.57 41.3899H323.239V43.3115H322.748ZM324.003 42.2543L324.58 43.3115H324.038L323.473 42.2543H324.003ZM325.792 40.9883V43.3115H325.301V40.9883H325.792Z" fill="white"/>
<path d="M317.409 47.222V50.209H316.732L315.653 48.6396H315.635V50.209H314.824V47.222H315.513L316.574 48.7855H316.598V47.222H317.409ZM321.142 48.7155C321.142 49.048 321.078 49.3285 320.948 49.557C320.819 49.7846 320.644 49.9571 320.425 50.0748C320.205 50.1915 319.96 50.2498 319.69 50.2498C319.417 50.2498 319.171 50.191 318.952 50.0733C318.733 49.9547 318.559 49.7816 318.429 49.5541C318.301 49.3256 318.237 49.0461 318.237 48.7155C318.237 48.3829 318.301 48.1029 318.429 47.8754C318.559 47.6469 318.733 47.4743 318.952 47.3576C319.171 47.24 319.417 47.1811 319.69 47.1811C319.96 47.1811 320.205 47.24 320.425 47.3576C320.644 47.4743 320.819 47.6469 320.948 47.8754C321.078 48.1029 321.142 48.3829 321.142 48.7155ZM320.308 48.7155C320.308 48.5366 320.284 48.3859 320.237 48.2633C320.19 48.1399 320.12 48.0465 320.028 47.9833C319.937 47.9191 319.824 47.887 319.69 47.887C319.555 47.887 319.442 47.9191 319.35 47.9833C319.258 48.0465 319.189 48.1399 319.141 48.2633C319.095 48.3859 319.071 48.5366 319.071 48.7155C319.071 48.8944 319.095 49.0456 319.141 49.1691C319.189 49.2916 319.258 49.3849 319.35 49.4491C319.442 49.5123 319.555 49.5439 319.69 49.5439C319.824 49.5439 319.937 49.5123 320.028 49.4491C320.12 49.3849 320.19 49.2916 320.237 49.1691C320.284 49.0456 320.308 48.8944 320.308 48.7155ZM322.602 47.222L323.215 49.328H323.238L323.851 47.222H324.767L323.781 50.209H322.672L321.686 47.222H322.602ZM328.255 47.222V50.209H327.444V47.9687H327.427L326.773 48.3596V47.6712L327.509 47.222H328.255ZM329.325 50.209V49.6256L330.439 48.7038C330.513 48.6425 330.576 48.5852 330.629 48.5317C330.682 48.4773 330.723 48.4213 330.751 48.364C330.781 48.3066 330.795 48.2429 330.795 48.1729C330.795 48.0961 330.779 48.0305 330.746 47.976C330.713 47.9216 330.669 47.8798 330.611 47.8506C330.554 47.8204 330.488 47.8054 330.413 47.8054C330.338 47.8054 330.272 47.8204 330.215 47.8506C330.158 47.8807 330.115 47.925 330.083 47.9833C330.052 48.0416 330.037 48.1126 330.037 48.1962H329.267C329.267 47.9862 329.314 47.8054 329.408 47.6537C329.502 47.502 329.636 47.3853 329.808 47.3036C329.98 47.222 330.182 47.1811 330.413 47.1811C330.652 47.1811 330.859 47.2195 331.034 47.2963C331.21 47.3722 331.346 47.4791 331.441 47.6172C331.538 47.7553 331.586 47.9172 331.586 48.1029C331.586 48.2176 331.562 48.3319 331.514 48.4457C331.467 48.5584 331.381 48.6834 331.257 48.8205C331.134 48.9576 330.959 49.1209 330.731 49.3105L330.451 49.5439V49.5614H331.618V50.209H329.325Z" fill="white"/>
<path d="M360.385 41.5691C360.372 41.4541 360.317 41.3649 360.22 41.3014C360.123 41.2379 360.004 41.2061 359.864 41.2061C359.761 41.2061 359.671 41.2227 359.594 41.256C359.517 41.2893 359.458 41.335 359.414 41.3933C359.372 41.4515 359.351 41.5177 359.351 41.5918C359.351 41.6538 359.366 41.7071 359.395 41.7517C359.425 41.7956 359.464 41.8323 359.511 41.8618C359.558 41.8905 359.607 41.9143 359.658 41.9332C359.71 41.9514 359.757 41.9661 359.8 41.9775L360.036 42.041C360.097 42.0569 360.164 42.0788 360.238 42.1068C360.313 42.1348 360.384 42.173 360.452 42.2214C360.521 42.269 360.578 42.3303 360.623 42.4051C360.667 42.48 360.689 42.5719 360.689 42.6808C360.689 42.8063 360.657 42.9198 360.591 43.0211C360.526 43.1225 360.43 43.203 360.305 43.2627C360.18 43.3225 360.028 43.3524 359.85 43.3524C359.684 43.3524 359.54 43.3255 359.418 43.2718C359.297 43.2181 359.202 43.1433 359.132 43.0472C359.063 42.9512 359.024 42.8396 359.015 42.7126H359.305C359.313 42.8003 359.343 42.8729 359.394 42.9304C359.446 42.9871 359.512 43.0294 359.591 43.0574C359.672 43.0846 359.758 43.0983 359.85 43.0983C359.957 43.0983 360.054 43.0809 360.139 43.0461C360.225 43.0105 360.292 42.9614 360.342 42.8986C360.392 42.8351 360.417 42.761 360.417 42.6763C360.417 42.5991 360.396 42.5364 360.353 42.488C360.309 42.4396 360.253 42.4002 360.182 42.37C360.112 42.3397 360.036 42.3133 359.954 42.2906L359.669 42.2089C359.487 42.1567 359.343 42.0822 359.237 41.9854C359.132 41.8886 359.079 41.7619 359.079 41.6054C359.079 41.4753 359.114 41.3619 359.184 41.2651C359.255 41.1675 359.35 41.0919 359.47 41.0382C359.59 40.9837 359.724 40.9565 359.873 40.9565C360.022 40.9565 360.156 40.9834 360.272 41.0371C360.388 41.09 360.481 41.1626 360.549 41.2549C360.618 41.3471 360.654 41.4519 360.658 41.5691H360.385ZM361.704 43.3115H361.409L362.262 40.9883H362.552L363.405 43.3115H363.11L362.416 41.3558H362.398L361.704 43.3115ZM361.813 42.404H363.001V42.6536H361.813V42.404ZM363.825 41.2379V40.9883H365.567V41.2379H364.837V43.3115H364.556V41.2379H363.825Z" fill="white"/>
<path d="M357 47.222V50.209H356.586L355.068 48.0183H355.04V50.209H354.589V47.222H355.007L356.526 49.4156H356.554V47.222H357ZM360.709 48.7155C360.709 49.0344 360.651 49.3086 360.534 49.5381C360.417 49.7666 360.257 49.9426 360.054 50.0661C359.852 50.1886 359.622 50.2498 359.364 50.2498C359.105 50.2498 358.875 50.1886 358.671 50.0661C358.469 49.9426 358.31 49.7661 358.193 49.5366C358.076 49.3071 358.018 49.0334 358.018 48.7155C358.018 48.3965 358.076 48.1228 358.193 47.8943C358.31 47.6649 358.469 47.4889 358.671 47.3664C358.875 47.2429 359.105 47.1811 359.364 47.1811C359.622 47.1811 359.852 47.2429 360.054 47.3664C360.257 47.4889 360.417 47.6649 360.534 47.8943C360.651 48.1228 360.709 48.3965 360.709 48.7155ZM360.263 48.7155C360.263 48.4724 360.223 48.2677 360.144 48.1014C360.067 47.9342 359.96 47.8078 359.824 47.7222C359.688 47.6357 359.535 47.5924 359.364 47.5924C359.192 47.5924 359.038 47.6357 358.903 47.7222C358.768 47.8078 358.661 47.9342 358.582 48.1014C358.505 48.2677 358.466 48.4724 358.466 48.7155C358.466 48.9586 358.505 49.1637 358.582 49.331C358.661 49.4972 358.768 49.6236 358.903 49.7102C359.038 49.7957 359.192 49.8385 359.364 49.8385C359.535 49.8385 359.688 49.7957 359.824 49.7102C359.96 49.6236 360.067 49.4972 360.144 49.331C360.223 49.1637 360.263 48.9586 360.263 48.7155ZM361.84 47.222L362.671 49.6548H362.705L363.536 47.222H364.023L362.948 50.209H362.428L361.353 47.222H361.84ZM367.547 47.222V50.209H367.094V47.6741H367.077L366.362 48.1408V47.7091L367.108 47.222H367.547ZM369.851 50.2498C369.651 50.2498 369.472 50.2153 369.314 50.1463C369.158 50.0772 369.034 49.9815 368.942 49.8589C368.852 49.7355 368.803 49.5925 368.796 49.4301H369.254C369.26 49.5186 369.29 49.5954 369.343 49.6606C369.398 49.7248 369.469 49.7743 369.556 49.8094C369.644 49.8444 369.741 49.8619 369.848 49.8619C369.966 49.8619 370.07 49.8414 370.16 49.8006C370.251 49.7598 370.323 49.7029 370.374 49.63C370.426 49.5561 370.452 49.471 370.452 49.3747C370.452 49.2746 370.426 49.1866 370.374 49.1107C370.324 49.0339 370.249 48.9736 370.151 48.9299C370.054 48.8861 369.936 48.8642 369.798 48.8642H369.546V48.4967H369.798C369.909 48.4967 370.006 48.4768 370.09 48.4369C370.175 48.397 370.241 48.3416 370.288 48.2706C370.336 48.1987 370.36 48.1146 370.36 48.0183C370.36 47.9259 370.339 47.8457 370.297 47.7777C370.256 47.7086 370.198 47.6547 370.122 47.6158C370.047 47.5769 369.959 47.5574 369.857 47.5574C369.759 47.5574 369.669 47.5754 369.584 47.6114C369.5 47.6464 369.432 47.697 369.38 47.7631C369.327 47.8282 369.299 47.9065 369.295 47.9979H368.859C368.864 47.8365 368.912 47.6945 369.002 47.572C369.093 47.4495 369.214 47.3537 369.364 47.2847C369.513 47.2156 369.68 47.1811 369.863 47.1811C370.054 47.1811 370.219 47.2186 370.358 47.2934C370.498 47.3673 370.606 47.466 370.682 47.5895C370.759 47.713 370.797 47.8482 370.796 47.995C370.797 48.1622 370.75 48.3042 370.656 48.4209C370.563 48.5375 370.438 48.6158 370.283 48.6557V48.679C370.481 48.7092 370.635 48.7879 370.743 48.9153C370.853 49.0427 370.908 49.2007 370.907 49.3893C370.908 49.5536 370.862 49.7009 370.77 49.8312C370.678 49.9615 370.553 50.0641 370.395 50.139C370.236 50.2129 370.055 50.2498 369.851 50.2498Z" fill="white"/>
<g clip-path="url(#clip2_1232_72187)">
<path d="M378.16 49.2936L380.685 46.3597L378.16 43.4264L378.54 42.9844L381.43 46.3597L378.54 49.7349L378.16 49.2936Z" fill="#E6F1FA"/>
<path d="M378.541 43.1161L381.318 46.3604L378.541 49.6053L378.274 49.2941L380.686 46.4907L380.798 46.3604L380.686 46.2301L378.274 43.4265L378.541 43.1161V43.1161ZM378.542 42.8547L378.049 43.4265L380.573 46.3604L378.049 49.2943L378.542 49.8659L381.542 46.3604L378.542 42.8547Z" fill="#195581"/>
</g>
<g clip-path="url(#clip3_1232_72187)">
<path d="M118.492 43.1241L115.968 46.058L118.492 48.9914L118.113 49.4333L115.223 46.058L118.113 42.6828L118.492 43.1241Z" fill="#E6F1FA"/>
<path d="M118.112 49.3029L115.334 46.0585L118.112 42.8137L118.379 43.1248L115.967 45.9282L115.855 46.0585L115.967 46.1889L118.379 48.9925L118.112 49.3029V49.3029ZM118.111 49.5642L118.603 48.9925L116.079 46.0585L118.603 43.1246L118.111 42.5531L115.11 46.0585L118.111 49.5642Z" fill="#195581"/>
</g>
<path d="M113.582 88.1521L383.224 88.1521" stroke="#C9D4DE" stroke-width="0.45635"/>
<rect x="115.401" y="148.628" width="34.6826" height="25.5556" rx="1.8254" fill="#54DAFF"/>
<rect x="307.068" y="148.628" width="34.6826" height="40.1588" rx="1.8254" fill="#54DAFF"/>
<rect x="346.31" y="184.223" width="34.6826" height="40.1588" rx="1.8254" fill="#2093DE"/>
<rect x="230.4" y="119.422" width="34.6826" height="40.1588" rx="1.8254" fill="#54DAFF"/>
<rect x="153.732" y="134.938" width="34.6826" height="24.6429" rx="1.8254" fill="#2093DE"/>
<rect x="268.732" y="134.938" width="34.6826" height="24.6429" rx="1.8254" fill="#0C6ECB"/>
<rect x="230.4" y="193.35" width="34.6826" height="25.5556" rx="1.8254" fill="#54DAFF"/>
<rect x="153.732" y="193.35" width="34.6826" height="25.5556" rx="1.8254" fill="#2093DE"/>
<rect x="230.4" y="237.16" width="34.6826" height="10.9524" rx="1.8254" fill="#0C6ECB"/>
<rect x="268.732" y="237.16" width="34.6826" height="10.9524" rx="1.8254" fill="#0C6ECB"/>
<rect x="268.732" y="207.954" width="34.6826" height="10.9524" rx="1.8254" fill="#54DAFF"/>
<rect x="346.31" y="119.422" width="34.6826" height="10.9524" rx="1.8254" fill="#0C6ECB"/>
<rect x="268.732" y="178.747" width="34.6826" height="10.9524" rx="1.8254" fill="#0C6ECB"/>
<rect x="192.064" y="178.747" width="34.6826" height="10.9524" rx="1.8254" fill="#0C6ECB"/>
<rect x="192.064" y="163.231" width="34.6826" height="10.9524" rx="1.8254" fill="#0C6ECB"/>
<rect x="153.732" y="237.16" width="34.6826" height="25.5556" rx="1.8254" fill="#54DAFF"/>
<rect x="307.068" y="237.16" width="34.6826" height="40.1588" rx="1.8254" fill="#2093DE"/>
</g>
</g>
<rect x="104.898" y="31.346" width="290.239" height="286.588" rx="6.84525" stroke="#2680C2" stroke-width="0.9127"/>
</g>
<g filter="url(#filter2_dd_1232_72187)">
<rect x="57.2773" y="84.4497" width="87.0759" height="80.8966" rx="12.3586" fill="white"/>
<rect x="57.6273" y="84.7997" width="86.3759" height="80.1966" rx="12.0086" stroke="#6EAAD6" stroke-width="0.7"/>
<path d="M121.243 117.728H119.565V117.642H100.815V125.975H112.589C110.872 130.826 106.256 134.308 100.815 134.308C93.9122 134.308 88.3153 128.712 88.3153 121.808C88.3153 114.905 93.9122 109.308 100.815 109.308C104.002 109.308 106.901 110.511 109.108 112.474L115.001 106.581C111.28 103.114 106.303 100.975 100.815 100.975C89.3101 100.975 79.9819 110.303 79.9819 121.808C79.9819 133.314 89.3101 142.642 100.815 142.642C112.32 142.642 121.649 133.314 121.649 121.808C121.649 120.412 121.505 119.048 121.243 117.728Z" fill="#FFC107"/>
<path d="M82.384 112.112L89.2288 117.131C91.0809 112.546 95.5663 109.308 100.815 109.308C104.002 109.308 106.901 110.511 109.108 112.474L115.001 106.581C111.28 103.114 106.303 100.975 100.815 100.975C92.8132 100.975 85.8736 105.493 82.384 112.112Z" fill="#FF3D00"/>
<path d="M100.815 142.642C106.197 142.642 111.086 140.582 114.783 137.233L108.335 131.777C106.243 133.361 103.643 134.308 100.815 134.308C95.3965 134.308 90.7955 130.853 89.0622 126.031L82.2684 131.266C85.7163 138.012 92.7184 142.642 100.815 142.642Z" fill="#4CAF50"/>
<path d="M121.243 117.728H119.565V117.642H100.815V125.975H112.589C111.764 128.305 110.265 130.315 108.332 131.778L108.335 131.776L114.783 137.232C114.327 137.647 121.649 132.225 121.649 121.808C121.649 120.411 121.505 119.048 121.243 117.728Z" fill="#1976D2"/>
</g>
<g filter="url(#filter3_dd_1232_72187)">
<rect x="57.2798" y="178.457" width="87.0759" height="80.8966" rx="12.3586" fill="white"/>
<rect x="57.6298" y="178.807" width="86.3759" height="80.1966" rx="12.0086" stroke="#6EAAD6" stroke-width="0.7"/>
<path d="M120.874 215.343L113.781 211.211V223.288H121.65V216.693C121.65 216.137 121.355 215.623 120.874 215.343Z" fill="#103262"/>
<path d="M89.3587 201.232H99.7754V210.607H89.3587V201.232Z" fill="#0084D7"/>
<path d="M99.7767 201.232H110.193V210.607H99.7767V201.232Z" fill="#33AFEC"/>
<path d="M110.193 201.232H120.609V210.607H110.193V201.232Z" fill="#54DAFF"/>
<path d="M99.7767 210.607H110.193V219.982H99.7767V210.607Z" fill="#027AD4"/>
<path d="M99.7767 219.982H110.193V229.357H99.7767V219.982Z" fill="#0553A4"/>
<path d="M110.193 210.607H120.609V219.982H110.193V210.607Z" fill="#25A2E5"/>
<path d="M110.193 219.982H120.609V229.357H110.193V219.982Z" fill="#0262B8"/>
<path opacity="0.019" d="M89.3587 229.357H120.609V216.063L106.015 224.397L89.3587 216.063V229.357Z" fill="black"/>
<path opacity="0.038" d="M89.3587 229.357H120.609V216.312L106.015 224.645L89.3587 216.312V229.357Z" fill="black"/>
<path opacity="0.057" d="M89.3587 229.357H120.609V216.559L106.015 224.892L89.3587 216.559V229.357Z" fill="black"/>
<path opacity="0.076" d="M89.3587 229.357H120.609V216.807L106.015 225.14L89.3587 216.807V229.357Z" fill="black"/>
<path opacity="0.095" d="M89.3587 229.357H120.609V217.055L106.015 225.388L89.3587 217.055V229.357Z" fill="black"/>
<path opacity="0.114" d="M89.3587 229.357H120.609V217.304L106.015 225.637L89.3587 217.304V229.357Z" fill="black"/>
<path opacity="0.133" d="M89.3587 229.357H120.609V217.552L106.015 225.885L89.3587 217.552V229.357Z" fill="black"/>
<path opacity="0.152" d="M89.3587 229.357H120.609V217.8L106.015 226.133L89.3587 217.8V229.357Z" fill="black"/>
<path opacity="0.171" d="M89.3587 229.357H120.609V218.048L106.015 226.381L89.3587 218.048V229.357Z" fill="black"/>
<path opacity="0.191" d="M89.3587 229.357H120.609V218.296L106.015 226.629L89.3587 218.296V229.357Z" fill="black"/>
<path opacity="0.209" d="M89.3587 229.357H120.609V218.543L106.015 226.877L89.3587 218.543V229.357Z" fill="black"/>
<path opacity="0.229" d="M89.3587 229.357H120.609V218.792L106.015 227.125L89.3587 218.792V229.357Z" fill="black"/>
<path opacity="0.248" d="M89.3587 229.357H120.609V219.039L106.015 227.372L89.3587 219.039V229.357Z" fill="black"/>
<path opacity="0.267" d="M89.3587 229.357H120.609V219.287L106.015 227.62L89.3587 219.287V229.357Z" fill="black"/>
<path opacity="0.286" d="M89.3587 229.357H120.609V219.535L106.015 227.868L89.3587 219.535V229.357Z" fill="black"/>
<path opacity="0.305" d="M89.3587 229.357H120.609V219.784L106.015 228.118L89.3587 219.784V229.357Z" fill="black"/>
<path opacity="0.324" d="M89.3587 229.357H120.609V220.032L106.015 228.366L89.3587 220.032V229.357Z" fill="black"/>
<path opacity="0.343" d="M89.3587 229.357H120.609V220.28L106.015 228.614L89.3587 220.28V229.357Z" fill="black"/>
<path opacity="0.362" d="M89.3587 229.357H120.609V220.528L106.015 228.861L89.3587 220.528V229.357Z" fill="black"/>
<path opacity="0.381" d="M89.3587 229.357H120.609V220.776L106.015 229.109L89.3587 220.776V229.357Z" fill="black"/>
<path opacity="0.4" d="M89.3587 229.357H120.609V221.023L106.015 229.357L89.3587 221.023V229.357Z" fill="black"/>
<path d="M91.9012 234.565H119.571C120.721 234.565 121.653 233.639 121.654 232.488C121.657 227.779 121.65 216.693 121.65 216.693C121.65 216.693 121.643 216.925 119.826 217.956C118.01 218.987 91.1751 234.113 91.1751 234.113C91.1751 234.113 91.4189 234.565 91.9012 234.565Z" fill="url(#paint0_linear_1232_72187)"/>
<path d="M120.609 201.232H89.3587V199.149C89.3587 197.998 90.291 197.065 91.4421 197.065H118.525C119.676 197.065 120.609 197.998 120.609 199.149V201.232Z" fill="url(#paint1_linear_1232_72187)"/>
<path d="M89.3587 216.857V232.482C89.3587 233.633 90.291 234.566 91.4421 234.566H107.067H119.571C120.052 234.566 120.491 234.397 120.843 234.123L89.3587 216.857Z" fill="url(#paint2_linear_1232_72187)"/>
<path opacity="0.05" d="M98.0244 204.357H89.3587V229.357H98.0244C100.142 229.357 101.859 227.641 101.859 225.523V208.192C101.859 206.074 100.142 204.357 98.0244 204.357Z" fill="black"/>
<path opacity="0.07" d="M97.9139 228.316H89.3587V204.704H97.9139C99.7098 204.704 101.165 206.159 101.165 207.955V225.065C101.164 226.86 99.7087 228.316 97.9139 228.316Z" fill="black"/>
<path opacity="0.09" d="M97.8025 227.274H89.3587V205.052H97.8025C99.2754 205.052 100.469 206.246 100.469 207.718V224.607C100.47 226.08 99.2754 227.274 97.8025 227.274Z" fill="black"/>
<path d="M97.6927 226.232H81.0261C79.875 226.232 78.9427 225.299 78.9427 224.148V207.482C78.9427 206.331 79.875 205.398 81.0261 205.398H97.6927C98.8438 205.398 99.7761 206.331 99.7761 207.482V224.148C99.7761 225.299 98.8438 226.232 97.6927 226.232Z" fill="url(#paint3_linear_1232_72187)"/>
<path d="M89.36 210.285C86.1194 210.285 84.1673 212.761 84.1673 215.815C84.1673 218.87 86.1121 221.346 89.36 221.346C92.609 221.346 94.5527 218.87 94.5527 215.816C94.5527 212.761 92.6007 210.285 89.36 210.285ZM89.36 219.479C87.5215 219.479 86.4225 217.839 86.4225 215.816C86.4225 213.793 87.5267 212.154 89.36 212.154C91.1934 212.154 92.2986 213.795 92.2986 215.816C92.2986 217.838 91.1975 219.479 89.36 219.479Z" fill="white"/>
</g>
<defs>
<filter id="filter0_dd_1232_72187" x="95.2003" y="30.8896" width="309.633" height="305.983" filterUnits="userSpaceOnUse" color-interpolation-filters="sRGB">
<feFlood flood-opacity="0" result="BackgroundImageFix"/>
<feColorMatrix in="SourceAlpha" type="matrix" values="0 0 0 0 0 0 0 0 0 0 0 0 0 0 0 0 0 0 127 0" result="hardAlpha"/>
<feMorphology radius="1.54018" operator="erode" in="SourceAlpha" result="effect1_dropShadow_1232_72187"/>
<feOffset dy="3.08036"/>
<feGaussianBlur stdDeviation="2.31027"/>
<feComposite in2="hardAlpha" operator="out"/>
<feColorMatrix type="matrix" values="0 0 0 0 0 0 0 0 0 0 0 0 0 0 0 0 0 0 0.03 0"/>
<feBlend mode="normal" in2="BackgroundImageFix" result="effect1_dropShadow_1232_72187"/>
<feColorMatrix in="SourceAlpha" type="matrix" values="0 0 0 0 0 0 0 0 0 0 0 0 0 0 0 0 0 0 127 0" result="hardAlpha"/>
<feMorphology radius="3.08036" operator="erode" in="SourceAlpha" result="effect2_dropShadow_1232_72187"/>
<feOffset dy="9.24109"/>
<feGaussianBlur stdDeviation="6.16073"/>
<feComposite in2="hardAlpha" operator="out"/>
<feColorMatrix type="matrix" values="0 0 0 0 0 0 0 0 0 0 0 0 0 0 0 0 0 0 0.08 0"/>
<feBlend mode="normal" in2="effect1_dropShadow_1232_72187" result="effect2_dropShadow_1232_72187"/>
<feBlend mode="normal" in="SourceGraphic" in2="effect2_dropShadow_1232_72187" result="shape"/>
</filter>
<filter id="filter1_d_1232_72187" x="111.751" y="73.9297" width="272.894" height="17.1215" filterUnits="userSpaceOnUse" color-interpolation-filters="sRGB">
<feFlood flood-opacity="0" result="BackgroundImageFix"/>
<feColorMatrix in="SourceAlpha" type="matrix" values="0 0 0 0 0 0 0 0 0 0 0 0 0 0 0 0 0 0 127 0" result="hardAlpha"/>
<feOffset dx="-0.45635" dy="1.59723"/>
<feGaussianBlur stdDeviation="0.684525"/>
<feComposite in2="hardAlpha" operator="out"/>
<feColorMatrix type="matrix" values="0 0 0 0 0 0 0 0 0 0 0 0 0 0 0 0 0 0 0.05 0"/>
<feBlend mode="normal" in2="BackgroundImageFix" result="effect1_dropShadow_1232_72187"/>
<feBlend mode="normal" in="SourceGraphic" in2="effect1_dropShadow_1232_72187" result="shape"/>
</filter>
<filter id="filter2_dd_1232_72187" x="48.0084" y="81.3601" width="105.614" height="99.4344" filterUnits="userSpaceOnUse" color-interpolation-filters="sRGB">
<feFlood flood-opacity="0" result="BackgroundImageFix"/>
<feColorMatrix in="SourceAlpha" type="matrix" values="0 0 0 0 0 0 0 0 0 0 0 0 0 0 0 0 0 0 127 0" result="hardAlpha"/>
<feMorphology radius="3.08966" operator="erode" in="SourceAlpha" result="effect1_dropShadow_1232_72187"/>
<feOffset dy="3.08966"/>
<feGaussianBlur stdDeviation="3.08966"/>
<feComposite in2="hardAlpha" operator="out"/>
<feColorMatrix type="matrix" values="0 0 0 0 0 0 0 0 0 0 0 0 0 0 0 0 0 0 0.06 0"/>
<feBlend mode="normal" in2="BackgroundImageFix" result="effect1_dropShadow_1232_72187"/>
<feColorMatrix in="SourceAlpha" type="matrix" values="0 0 0 0 0 0 0 0 0 0 0 0 0 0 0 0 0 0 127 0" result="hardAlpha"/>
<feMorphology radius="3.08966" operator="erode" in="SourceAlpha" result="effect2_dropShadow_1232_72187"/>
<feOffset dy="6.17931"/>
<feGaussianBlur stdDeviation="6.17931"/>
<feComposite in2="hardAlpha" operator="out"/>
<feColorMatrix type="matrix" values="0 0 0 0 0 0 0 0 0 0 0 0 0 0 0 0 0 0 0.1 0"/>
<feBlend mode="normal" in2="effect1_dropShadow_1232_72187" result="effect2_dropShadow_1232_72187"/>
<feBlend mode="normal" in="SourceGraphic" in2="effect2_dropShadow_1232_72187" result="shape"/>
</filter>
<filter id="filter3_dd_1232_72187" x="48.0108" y="175.367" width="105.614" height="99.4344" filterUnits="userSpaceOnUse" color-interpolation-filters="sRGB">
<feFlood flood-opacity="0" result="BackgroundImageFix"/>
<feColorMatrix in="SourceAlpha" type="matrix" values="0 0 0 0 0 0 0 0 0 0 0 0 0 0 0 0 0 0 127 0" result="hardAlpha"/>
<feMorphology radius="3.08966" operator="erode" in="SourceAlpha" result="effect1_dropShadow_1232_72187"/>
<feOffset dy="3.08966"/>
<feGaussianBlur stdDeviation="3.08966"/>
<feComposite in2="hardAlpha" operator="out"/>
<feColorMatrix type="matrix" values="0 0 0 0 0 0 0 0 0 0 0 0 0 0 0 0 0 0 0.06 0"/>
<feBlend mode="normal" in2="BackgroundImageFix" result="effect1_dropShadow_1232_72187"/>
<feColorMatrix in="SourceAlpha" type="matrix" values="0 0 0 0 0 0 0 0 0 0 0 0 0 0 0 0 0 0 127 0" result="hardAlpha"/>
<feMorphology radius="3.08966" operator="erode" in="SourceAlpha" result="effect2_dropShadow_1232_72187"/>
<feOffset dy="6.17931"/>
<feGaussianBlur stdDeviation="6.17931"/>
<feComposite in2="hardAlpha" operator="out"/>
<feColorMatrix type="matrix" values="0 0 0 0 0 0 0 0 0 0 0 0 0 0 0 0 0 0 0.1 0"/>
<feBlend mode="normal" in2="effect1_dropShadow_1232_72187" result="effect2_dropShadow_1232_72187"/>
<feBlend mode="normal" in="SourceGraphic" in2="effect2_dropShadow_1232_72187" result="shape"/>
</filter>
<linearGradient id="paint0_linear_1232_72187" x1="116.364" y1="216.395" x2="109.448" y2="228.34" gradientUnits="userSpaceOnUse">
<stop stop-color="#31ABEC"/>
<stop offset="1" stop-color="#1582D5"/>
</linearGradient>
<linearGradient id="paint1_linear_1232_72187" x1="90.0514" y1="198.099" x2="118.822" y2="200.268" gradientUnits="userSpaceOnUse">
<stop offset="0.042" stop-color="#076DB4"/>
<stop offset="0.85" stop-color="#0461AF"/>
</linearGradient>
<linearGradient id="paint2_linear_1232_72187" x1="105.143" y1="225.418" x2="100.44" y2="233.628" gradientUnits="userSpaceOnUse">
<stop stop-color="#33ACEE"/>
<stop offset="1" stop-color="#1B8EDF"/>
</linearGradient>
<linearGradient id="paint3_linear_1232_72187" x1="79.4948" y1="205.951" x2="99.1615" y2="225.617" gradientUnits="userSpaceOnUse">
<stop stop-color="#1784D8"/>
<stop offset="1" stop-color="#0864C5"/>
</linearGradient>
<clipPath id="clip0_1232_72187">
<rect x="104.441" y="30.8896" width="291.151" height="287.5" rx="7.3016" fill="white"/>
</clipPath>
<clipPath id="clip1_1232_72187">
<rect width="291.151" height="287.5" fill="white" transform="translate(104.443 30.8896)"/>
</clipPath>
<clipPath id="clip2_1232_72187">
<rect width="6.35105" height="7.37258" fill="white" transform="translate(376.619 42.6702)"/>
</clipPath>
<clipPath id="clip3_1232_72187">
<rect width="6.35105" height="7.37258" fill="white" transform="translate(120.034 49.7478) rotate(180)"/>
</clipPath>
</defs>
</svg>
