<svg width="500" height="348" viewBox="0 0 500 348" fill="none" xmlns="http://www.w3.org/2000/svg">
<g filter="url(#filter0_dd_1232_74661)">
<g clip-path="url(#clip0_1232_74661)">
<rect x="85.9805" y="43.7529" width="327" height="259.894" rx="9.94677" fill="white"/>
<path d="M102.865 75.7529V65.5711H106.882C107.655 65.5711 108.313 65.7186 108.856 66.0136C109.4 66.3052 109.814 66.7113 110.099 67.2316C110.387 67.7487 110.532 68.3453 110.532 69.0214C110.532 69.6975 110.386 70.2941 110.094 70.8112C109.802 71.3282 109.38 71.7309 108.826 72.0193C108.276 72.3076 107.61 72.4518 106.828 72.4518H104.267V70.7267H106.48C106.894 70.7267 107.235 70.6554 107.504 70.5129C107.776 70.367 107.978 70.1665 108.11 69.9113C108.246 69.6528 108.314 69.3561 108.314 69.0214C108.314 68.6833 108.246 68.3883 108.11 68.1365C107.978 67.8812 107.776 67.684 107.504 67.5448C107.232 67.4023 106.887 67.3311 106.47 67.3311H105.018V75.7529H102.865ZM111.89 75.7529V68.1166H113.943V69.449H114.023C114.162 68.975 114.396 68.617 114.724 68.3751C115.052 68.1298 115.43 68.0072 115.857 68.0072C115.963 68.0072 116.078 68.0138 116.2 68.0271C116.323 68.0403 116.431 68.0586 116.524 68.0818V69.961C116.424 69.9312 116.287 69.9047 116.111 69.8815C115.935 69.8583 115.775 69.8467 115.629 69.8467C115.317 69.8467 115.039 69.9146 114.794 70.0505C114.552 70.1831 114.359 70.3687 114.217 70.6073C114.078 70.846 114.008 71.1211 114.008 71.4326V75.7529H111.89ZM120.713 75.9021C119.941 75.9021 119.273 75.738 118.71 75.4099C118.15 75.0785 117.717 74.6177 117.412 74.0278C117.107 73.4345 116.955 72.7468 116.955 71.9646C116.955 71.1758 117.107 70.4864 117.412 69.8964C117.717 69.3031 118.15 68.8424 118.71 68.5143C119.273 68.1829 119.941 68.0171 120.713 68.0171C121.486 68.0171 122.152 68.1829 122.712 68.5143C123.275 68.8424 123.71 69.3031 124.015 69.8964C124.319 70.4864 124.472 71.1758 124.472 71.9646C124.472 72.7468 124.319 73.4345 124.015 74.0278C123.71 74.6177 123.275 75.0785 122.712 75.4099C122.152 75.738 121.486 75.9021 120.713 75.9021ZM120.723 74.2615C121.075 74.2615 121.368 74.162 121.603 73.9632C121.839 73.761 122.016 73.4859 122.135 73.1379C122.258 72.7899 122.319 72.3938 122.319 71.9497C122.319 71.5055 122.258 71.1095 122.135 70.7615C122.016 70.4134 121.839 70.1383 121.603 69.9362C121.368 69.734 121.075 69.6329 120.723 69.6329C120.369 69.6329 120.07 69.734 119.828 69.9362C119.59 70.1383 119.409 70.4134 119.287 70.7615C119.167 71.1095 119.108 71.5055 119.108 71.9497C119.108 72.3938 119.167 72.7899 119.287 73.1379C119.409 73.4859 119.59 73.761 119.828 73.9632C120.07 74.162 120.369 74.2615 120.723 74.2615ZM129.289 78.7757C128.603 78.7757 128.015 78.6812 127.525 78.4923C127.037 78.3067 126.65 78.0531 126.361 77.7316C126.073 77.4101 125.886 77.0489 125.799 76.6478L127.758 76.3843C127.818 76.5368 127.912 76.6793 128.042 76.8119C128.171 76.9445 128.342 77.0505 128.554 77.1301C128.769 77.2129 129.031 77.2544 129.339 77.2544C129.8 77.2544 130.179 77.1417 130.478 76.9163C130.779 76.6942 130.93 76.3213 130.93 75.7977V74.4007H130.841C130.748 74.6128 130.609 74.8133 130.423 75.0022C130.237 75.1911 129.999 75.3453 129.707 75.4646C129.415 75.5839 129.067 75.6436 128.663 75.6436C128.09 75.6436 127.568 75.511 127.097 75.2458C126.63 74.9774 126.257 74.568 125.978 74.0178C125.703 73.4643 125.566 72.765 125.566 71.9198C125.566 71.0548 125.707 70.3322 125.988 69.7522C126.27 69.1722 126.645 68.738 127.112 68.4497C127.583 68.1613 128.098 68.0171 128.658 68.0171C129.086 68.0171 129.444 68.0901 129.732 68.2359C130.02 68.3784 130.252 68.5574 130.428 68.7728C130.607 68.9849 130.744 69.1937 130.841 69.3992H130.92V68.1166H133.023V75.8275C133.023 76.4771 132.864 77.0207 132.546 77.4582C132.228 77.8957 131.787 78.2238 131.223 78.4426C130.663 78.6646 130.019 78.7757 129.289 78.7757ZM129.334 74.0526C129.676 74.0526 129.964 73.9681 130.199 73.7991C130.438 73.6267 130.62 73.3815 130.746 73.0633C130.875 72.7418 130.94 72.3573 130.94 71.9099C130.94 71.4624 130.877 71.0747 130.751 70.7465C130.625 70.4151 130.443 70.1582 130.204 69.9759C129.966 69.7936 129.676 69.7025 129.334 69.7025C128.986 69.7025 128.693 69.797 128.454 69.9859C128.216 70.1715 128.035 70.43 127.912 70.7615C127.79 71.0929 127.728 71.4757 127.728 71.9099C127.728 72.3507 127.79 72.7319 127.912 73.0534C128.038 73.3715 128.219 73.6185 128.454 73.7941C128.693 73.9665 128.986 74.0526 129.334 74.0526ZM134.708 75.7529V68.1166H136.762V69.449H136.841C136.98 68.975 137.214 68.617 137.542 68.3751C137.87 68.1298 138.248 68.0072 138.676 68.0072C138.782 68.0072 138.896 68.0138 139.019 68.0271C139.141 68.0403 139.249 68.0586 139.342 68.0818V69.961C139.243 69.9312 139.105 69.9047 138.929 69.8815C138.754 69.8583 138.593 69.8467 138.447 69.8467C138.136 69.8467 137.857 69.9146 137.612 70.0505C137.37 70.1831 137.178 70.3687 137.035 70.6073C136.896 70.846 136.826 71.1211 136.826 71.4326V75.7529H134.708ZM142.396 75.8971C141.909 75.8971 141.474 75.8126 141.093 75.6436C140.712 75.4712 140.41 75.2177 140.188 74.8829C139.97 74.5448 139.86 74.1239 139.86 73.6201C139.86 73.1959 139.938 72.8396 140.094 72.5512C140.25 72.2629 140.462 72.0309 140.73 71.8552C140.999 71.6795 141.304 71.547 141.645 71.4575C141.99 71.368 142.351 71.305 142.729 71.2686C143.173 71.2222 143.531 71.1791 143.803 71.1393C144.075 71.0962 144.272 71.0332 144.394 70.9504C144.517 70.8675 144.578 70.7449 144.578 70.5825V70.5526C144.578 70.2378 144.479 69.9942 144.28 69.8218C144.084 69.6495 143.806 69.5633 143.445 69.5633C143.064 69.5633 142.76 69.6478 142.535 69.8169C142.31 69.9826 142.16 70.1914 142.088 70.4433L140.129 70.2842C140.228 69.8202 140.424 69.4191 140.715 69.0811C141.007 68.7397 141.383 68.4778 141.844 68.2955C142.308 68.1099 142.845 68.0171 143.455 68.0171C143.879 68.0171 144.285 68.0669 144.673 68.1663C145.064 68.2657 145.41 68.4198 145.712 68.6286C146.017 68.8374 146.257 69.1059 146.433 69.434C146.608 69.7588 146.696 70.1483 146.696 70.6024V75.7529H144.688V74.694H144.628C144.505 74.9326 144.341 75.1431 144.136 75.3254C143.93 75.5044 143.683 75.6452 143.395 75.748C143.107 75.8474 142.774 75.8971 142.396 75.8971ZM143.002 74.4355C143.314 74.4355 143.589 74.3741 143.828 74.2515C144.066 74.1256 144.253 73.9565 144.389 73.7444C144.525 73.5323 144.593 73.292 144.593 73.0235V72.2132C144.527 72.2562 144.436 72.296 144.32 72.3325C144.207 72.3656 144.079 72.3971 143.937 72.4269C143.794 72.4535 143.652 72.4783 143.509 72.5015C143.367 72.5214 143.238 72.5396 143.122 72.5562C142.873 72.5927 142.656 72.6507 142.47 72.7302C142.285 72.8097 142.141 72.9175 142.038 73.0534C141.935 73.1859 141.884 73.3517 141.884 73.5505C141.884 73.8389 141.988 74.0593 142.197 74.2117C142.409 74.3609 142.677 74.4355 143.002 74.4355ZM148.339 75.7529V68.1166H150.358V69.4639H150.447C150.606 69.0164 150.872 68.6634 151.243 68.4049C151.614 68.1464 152.058 68.0171 152.575 68.0171C153.099 68.0171 153.545 68.1481 153.912 68.4099C154.28 68.6684 154.526 69.0197 154.648 69.4639H154.728C154.884 69.0264 155.165 68.6767 155.573 68.4149C155.984 68.1497 156.47 68.0171 157.03 68.0171C157.742 68.0171 158.321 68.2442 158.765 68.6982C159.212 69.149 159.436 69.7887 159.436 70.6173V75.7529H157.323V71.0349C157.323 70.6106 157.21 70.2925 156.985 70.0803C156.76 69.8682 156.478 69.7622 156.14 69.7622C155.755 69.7622 155.455 69.8848 155.24 70.1301C155.024 70.372 154.917 70.6918 154.917 71.0896V75.7529H152.863V70.9901C152.863 70.6156 152.756 70.3173 152.54 70.0953C152.328 69.8732 152.048 69.7622 151.7 69.7622C151.465 69.7622 151.253 69.8218 151.064 69.9411C150.878 70.0571 150.731 70.2212 150.621 70.4333C150.512 70.6421 150.457 70.8874 150.457 71.1691V75.7529H148.339ZM161.109 75.7529V68.1166H163.127V69.4639H163.217C163.376 69.0164 163.641 68.6634 164.012 68.4049C164.383 68.1464 164.828 68.0171 165.345 68.0171C165.868 68.0171 166.314 68.1481 166.682 68.4099C167.05 68.6684 167.295 69.0197 167.418 69.4639H167.497C167.653 69.0264 167.935 68.6767 168.343 68.4149C168.753 68.1497 169.239 68.0171 169.799 68.0171C170.512 68.0171 171.09 68.2442 171.534 68.6982C171.982 69.149 172.205 69.7887 172.205 70.6173V75.7529H170.093V71.0349C170.093 70.6106 169.98 70.2925 169.754 70.0803C169.529 69.8682 169.247 69.7622 168.909 69.7622C168.525 69.7622 168.225 69.8848 168.009 70.1301C167.794 70.372 167.686 70.6918 167.686 71.0896V75.7529H165.633V70.9901C165.633 70.6156 165.525 70.3173 165.31 70.0953C165.098 69.8732 164.818 69.7622 164.47 69.7622C164.234 69.7622 164.022 69.8218 163.833 69.9411C163.648 70.0571 163.5 70.2212 163.391 70.4333C163.281 70.6421 163.227 70.8874 163.227 71.1691V75.7529H161.109ZM177.358 75.9021C176.573 75.9021 175.897 75.743 175.33 75.4248C174.767 75.1033 174.332 74.6492 174.028 74.0626C173.723 73.4726 173.57 72.7749 173.57 71.9695C173.57 71.184 173.723 70.4946 174.028 69.9014C174.332 69.3081 174.762 68.8457 175.315 68.5143C175.872 68.1829 176.525 68.0171 177.274 68.0171C177.778 68.0171 178.247 68.0983 178.681 68.2607C179.118 68.4198 179.5 68.6601 179.824 68.9816C180.153 69.3031 180.408 69.7075 180.59 70.1947C180.772 70.6786 180.863 71.2454 180.863 71.895V72.4767H174.415V71.1642H178.87C178.87 70.8592 178.804 70.5891 178.671 70.3538C178.538 70.1185 178.354 69.9345 178.119 69.8019C177.887 69.666 177.617 69.5981 177.309 69.5981C176.987 69.5981 176.702 69.6727 176.454 69.8218C176.208 69.9677 176.016 70.1649 175.877 70.4134C175.738 70.6587 175.666 70.9321 175.663 71.2338V72.4816C175.663 72.8595 175.733 73.1859 175.872 73.461C176.015 73.7361 176.215 73.9482 176.474 74.0974C176.732 74.2465 177.039 74.3211 177.393 74.3211C177.629 74.3211 177.844 74.288 178.04 74.2217C178.235 74.1554 178.403 74.056 178.542 73.9234C178.681 73.7908 178.787 73.6284 178.86 73.4362L180.819 73.5654C180.719 74.0361 180.515 74.4471 180.207 74.7984C179.902 75.1464 179.508 75.4182 179.024 75.6137C178.543 75.806 177.988 75.9021 177.358 75.9021ZM182.246 75.7529V68.1166H184.299V69.449H184.378C184.518 68.975 184.751 68.617 185.079 68.3751C185.407 68.1298 185.785 68.0072 186.213 68.0072C186.319 68.0072 186.433 68.0138 186.556 68.0271C186.679 68.0403 186.786 68.0586 186.879 68.0818V69.961C186.78 69.9312 186.642 69.9047 186.466 69.8815C186.291 69.8583 186.13 69.8467 185.984 69.8467C185.673 69.8467 185.394 69.9146 185.149 70.0505C184.907 70.1831 184.715 70.3687 184.572 70.6073C184.433 70.846 184.363 71.1211 184.363 71.4326V75.7529H182.246ZM193.009 75.7529H190.702L194.217 65.5711H196.991L200.501 75.7529H198.194L195.644 67.8978H195.564L193.009 75.7529ZM192.865 71.7508H198.314V73.4312H192.865V71.7508ZM201.727 75.7529V65.5711H205.744C206.516 65.5711 207.174 65.7186 207.718 66.0136C208.261 66.3052 208.675 66.7113 208.96 67.2316C209.249 67.7487 209.393 68.3453 209.393 69.0214C209.393 69.6975 209.247 70.2941 208.955 70.8112C208.664 71.3282 208.241 71.7309 207.688 72.0193C207.137 72.3076 206.471 72.4518 205.689 72.4518H203.129V70.7267H205.341C205.755 70.7267 206.097 70.6554 206.365 70.5129C206.637 70.367 206.839 70.1665 206.972 69.9113C207.108 69.6528 207.176 69.3561 207.176 69.0214C207.176 68.6833 207.108 68.3883 206.972 68.1365C206.839 67.8812 206.637 67.684 206.365 67.5448C206.093 67.4023 205.749 67.3311 205.331 67.3311H203.879V75.7529H201.727ZM212.944 65.5711V75.7529H210.791V65.5711H212.944Z" fill="#486581"/>
<path d="M103.395 109.753H102.287L105.492 101.026H106.583L109.787 109.753H108.679L106.071 102.406H106.003L103.395 109.753ZM103.804 106.344H108.27V107.281H103.804V106.344ZM111.147 109.753V101.026H114.096C114.78 101.026 115.34 101.149 115.775 101.396C116.212 101.641 116.536 101.972 116.746 102.389C116.956 102.807 117.061 103.273 117.061 103.787C117.061 104.301 116.956 104.769 116.746 105.189C116.539 105.609 116.218 105.945 115.783 106.195C115.348 106.442 114.792 106.565 114.113 106.565H111.999V105.628H114.078C114.547 105.628 114.924 105.547 115.208 105.385C115.492 105.223 115.698 105.004 115.826 104.729C115.956 104.45 116.022 104.136 116.022 103.787C116.022 103.438 115.956 103.125 115.826 102.85C115.698 102.574 115.49 102.358 115.203 102.202C114.917 102.043 114.536 101.963 114.061 101.963H112.203V109.753H111.147ZM119.821 101.026V109.753H118.764V101.026H119.821ZM127.104 109.906C126.69 109.906 126.313 109.828 125.975 109.672C125.637 109.513 125.369 109.284 125.17 108.986C124.971 108.685 124.871 108.321 124.871 107.895C124.871 107.52 124.945 107.216 125.093 106.983C125.241 106.747 125.438 106.563 125.685 106.429C125.933 106.296 126.205 106.196 126.504 106.131C126.805 106.063 127.107 106.009 127.411 105.969C127.809 105.918 128.131 105.879 128.379 105.854C128.629 105.825 128.81 105.778 128.924 105.713C129.04 105.648 129.099 105.534 129.099 105.372V105.338C129.099 104.918 128.984 104.591 128.754 104.358C128.526 104.125 128.181 104.009 127.718 104.009C127.238 104.009 126.862 104.114 126.589 104.324C126.316 104.534 126.124 104.759 126.013 104.997L125.059 104.656C125.229 104.259 125.457 103.949 125.741 103.727C126.028 103.503 126.34 103.347 126.678 103.259C127.019 103.168 127.354 103.122 127.684 103.122C127.894 103.122 128.136 103.148 128.408 103.199C128.684 103.247 128.95 103.348 129.205 103.502C129.464 103.655 129.678 103.886 129.849 104.196C130.019 104.506 130.104 104.921 130.104 105.44V109.753H129.099V108.867H129.048C128.979 109.009 128.866 109.161 128.707 109.323C128.548 109.484 128.336 109.622 128.072 109.736C127.808 109.85 127.485 109.906 127.104 109.906ZM127.258 109.003C127.656 109.003 127.991 108.925 128.263 108.769C128.539 108.612 128.746 108.411 128.886 108.163C129.028 107.916 129.099 107.656 129.099 107.384V106.463C129.056 106.514 128.962 106.561 128.817 106.604C128.675 106.644 128.511 106.679 128.323 106.71C128.138 106.739 127.958 106.764 127.782 106.787C127.609 106.807 127.468 106.824 127.36 106.838C127.099 106.872 126.854 106.928 126.627 107.004C126.403 107.078 126.221 107.19 126.082 107.341C125.945 107.489 125.877 107.69 125.877 107.946C125.877 108.296 126.006 108.56 126.265 108.739C126.526 108.915 126.857 109.003 127.258 109.003ZM134.599 109.889C133.985 109.889 133.457 109.744 133.014 109.455C132.571 109.165 132.23 108.766 131.991 108.257C131.752 107.749 131.633 107.168 131.633 106.514C131.633 105.85 131.755 105.263 132 104.754C132.247 104.243 132.591 103.844 133.031 103.557C133.474 103.267 133.991 103.122 134.582 103.122C135.042 103.122 135.457 103.207 135.826 103.378C136.196 103.548 136.498 103.787 136.734 104.094C136.97 104.401 137.116 104.759 137.173 105.168H136.167C136.091 104.869 135.92 104.605 135.656 104.375C135.395 104.142 135.042 104.026 134.599 104.026C134.207 104.026 133.863 104.128 133.568 104.332C133.275 104.534 133.047 104.82 132.882 105.189C132.72 105.555 132.639 105.986 132.639 106.48C132.639 106.986 132.718 107.426 132.877 107.801C133.039 108.176 133.267 108.467 133.559 108.675C133.855 108.882 134.201 108.986 134.599 108.986C134.86 108.986 135.098 108.94 135.311 108.85C135.524 108.759 135.704 108.628 135.852 108.457C136 108.287 136.105 108.082 136.167 107.844H137.173C137.116 108.23 136.975 108.578 136.751 108.888C136.529 109.195 136.235 109.439 135.869 109.621C135.505 109.8 135.082 109.889 134.599 109.889ZM141.302 109.889C140.689 109.889 140.16 109.744 139.717 109.455C139.274 109.165 138.933 108.766 138.694 108.257C138.456 107.749 138.336 107.168 138.336 106.514C138.336 105.85 138.458 105.263 138.703 104.754C138.95 104.243 139.294 103.844 139.734 103.557C140.177 103.267 140.694 103.122 141.285 103.122C141.745 103.122 142.16 103.207 142.529 103.378C142.899 103.548 143.201 103.787 143.437 104.094C143.673 104.401 143.819 104.759 143.876 105.168H142.87C142.794 104.869 142.623 104.605 142.359 104.375C142.098 104.142 141.745 104.026 141.302 104.026C140.91 104.026 140.566 104.128 140.271 104.332C139.978 104.534 139.75 104.82 139.585 105.189C139.423 105.555 139.342 105.986 139.342 106.48C139.342 106.986 139.422 107.426 139.581 107.801C139.743 108.176 139.97 108.467 140.262 108.675C140.558 108.882 140.904 108.986 141.302 108.986C141.564 108.986 141.801 108.94 142.014 108.85C142.227 108.759 142.407 108.628 142.555 108.457C142.703 108.287 142.808 108.082 142.87 107.844H143.876C143.819 108.23 143.679 108.578 143.454 108.888C143.233 109.195 142.939 109.439 142.572 109.621C142.208 109.8 141.785 109.889 141.302 109.889ZM148.091 109.889C147.46 109.889 146.916 109.75 146.458 109.472C146.004 109.19 145.653 108.798 145.406 108.296C145.162 107.79 145.039 107.202 145.039 106.531C145.039 105.861 145.162 105.27 145.406 104.759C145.653 104.244 145.997 103.844 146.437 103.557C146.88 103.267 147.397 103.122 147.988 103.122C148.329 103.122 148.666 103.179 148.998 103.293C149.331 103.406 149.633 103.591 149.906 103.847C150.179 104.1 150.396 104.435 150.558 104.852C150.72 105.27 150.801 105.784 150.801 106.395V106.821H145.755V105.952H149.778C149.778 105.582 149.704 105.253 149.556 104.963C149.412 104.673 149.204 104.445 148.934 104.277C148.667 104.109 148.352 104.026 147.988 104.026C147.588 104.026 147.241 104.125 146.949 104.324C146.659 104.52 146.436 104.776 146.279 105.091C146.123 105.406 146.045 105.744 146.045 106.105V106.685C146.045 107.179 146.13 107.598 146.301 107.942C146.474 108.283 146.714 108.543 147.021 108.722C147.328 108.898 147.684 108.986 148.091 108.986C148.355 108.986 148.593 108.949 148.806 108.875C149.022 108.798 149.208 108.685 149.365 108.534C149.521 108.381 149.642 108.19 149.727 107.963L150.699 108.236C150.596 108.565 150.424 108.855 150.183 109.105C149.941 109.352 149.643 109.546 149.288 109.685C148.933 109.821 148.534 109.889 148.091 109.889ZM156.967 104.673L156.064 104.929C156.007 104.778 155.923 104.632 155.812 104.49C155.704 104.345 155.556 104.226 155.369 104.132C155.181 104.038 154.941 103.992 154.649 103.992C154.248 103.992 153.914 104.084 153.647 104.269C153.383 104.45 153.251 104.682 153.251 104.963C153.251 105.213 153.342 105.411 153.524 105.555C153.706 105.7 153.99 105.821 154.376 105.918L155.348 106.156C155.933 106.298 156.369 106.516 156.656 106.808C156.943 107.098 157.086 107.472 157.086 107.929C157.086 108.304 156.978 108.639 156.762 108.935C156.549 109.23 156.251 109.463 155.868 109.634C155.484 109.804 155.038 109.889 154.529 109.889C153.862 109.889 153.309 109.744 152.872 109.455C152.434 109.165 152.157 108.742 152.041 108.185L152.995 107.946C153.086 108.298 153.258 108.563 153.511 108.739C153.767 108.915 154.1 109.003 154.512 109.003C154.981 109.003 155.353 108.903 155.629 108.705C155.907 108.503 156.047 108.261 156.047 107.98C156.047 107.753 155.967 107.563 155.808 107.409C155.649 107.253 155.404 107.136 155.075 107.06L153.984 106.804C153.385 106.662 152.944 106.442 152.663 106.144C152.385 105.842 152.245 105.466 152.245 105.014C152.245 104.645 152.349 104.318 152.556 104.034C152.767 103.75 153.052 103.527 153.413 103.365C153.777 103.203 154.189 103.122 154.649 103.122C155.297 103.122 155.805 103.264 156.174 103.548C156.547 103.832 156.811 104.207 156.967 104.673ZM163.237 104.673L162.333 104.929C162.276 104.778 162.192 104.632 162.082 104.49C161.974 104.345 161.826 104.226 161.638 104.132C161.451 104.038 161.211 103.992 160.918 103.992C160.518 103.992 160.184 104.084 159.917 104.269C159.653 104.45 159.521 104.682 159.521 104.963C159.521 105.213 159.612 105.411 159.793 105.555C159.975 105.7 160.259 105.821 160.646 105.918L161.617 106.156C162.202 106.298 162.638 106.516 162.925 106.808C163.212 107.098 163.356 107.472 163.356 107.929C163.356 108.304 163.248 108.639 163.032 108.935C162.819 109.23 162.521 109.463 162.137 109.634C161.754 109.804 161.308 109.889 160.799 109.889C160.131 109.889 159.579 109.744 159.141 109.455C158.704 109.165 158.427 108.742 158.31 108.185L159.265 107.946C159.356 108.298 159.528 108.563 159.781 108.739C160.036 108.915 160.37 109.003 160.782 109.003C161.251 109.003 161.623 108.903 161.898 108.705C162.177 108.503 162.316 108.261 162.316 107.98C162.316 107.753 162.237 107.563 162.077 107.409C161.918 107.253 161.674 107.136 161.344 107.06L160.254 106.804C159.654 106.662 159.214 106.442 158.933 106.144C158.654 105.842 158.515 105.466 158.515 105.014C158.515 104.645 158.619 104.318 158.826 104.034C159.036 103.75 159.322 103.527 159.683 103.365C160.046 103.203 160.458 103.122 160.918 103.122C161.566 103.122 162.075 103.264 162.444 103.548C162.816 103.832 163.08 104.207 163.237 104.673Z" fill="#486581"/>
<rect x="101.98" y="122.753" width="295" height="4.97338" rx="2.48669" fill="#D9E2EC"/>
<rect x="101.98" y="135.726" width="281.105" height="4.97338" rx="2.48669" fill="#D9E2EC"/>
<rect x="101.98" y="148.7" width="295" height="34" rx="3.47895" fill="#F8E8C2"/>
<path d="M117.949 159.033C114.29 159.033 111.314 162.024 111.314 165.7C111.314 169.376 114.304 172.367 117.98 172.367C121.656 172.367 124.647 169.376 124.647 165.7C124.647 162.024 121.642 159.033 117.949 159.033ZM117.98 171.033C115.04 171.033 112.647 168.641 112.647 165.7C112.647 162.759 115.025 160.367 117.949 160.367C120.908 160.367 123.314 162.759 123.314 165.7C123.314 168.641 120.921 171.033 117.98 171.033Z" fill="#755D25"/>
<path d="M117.314 162.367H118.647V167.033H117.314V162.367ZM117.314 167.7H118.647V169.033H117.314V167.7Z" fill="#755D25"/>
<path d="M130.56 161.91V160.972H137.105V161.91H134.361V169.7H133.304V161.91H130.56ZM139.606 165.762V169.7H138.6V160.972H139.606V164.177H139.691C139.844 163.839 140.075 163.57 140.381 163.372C140.691 163.17 141.103 163.069 141.617 163.069C142.063 163.069 142.454 163.159 142.789 163.337C143.124 163.514 143.384 163.785 143.569 164.151C143.756 164.515 143.85 164.978 143.85 165.541V169.7H142.844V165.609C142.844 165.089 142.71 164.687 142.44 164.403C142.173 164.116 141.802 163.972 141.327 163.972C140.998 163.972 140.702 164.042 140.441 164.181C140.183 164.32 139.978 164.524 139.827 164.791C139.68 165.058 139.606 165.382 139.606 165.762ZM148.434 169.836C147.804 169.836 147.26 169.697 146.802 169.418C146.348 169.137 145.997 168.745 145.75 168.242C145.505 167.737 145.383 167.149 145.383 166.478C145.383 165.808 145.505 165.217 145.75 164.705C145.997 164.191 146.341 163.791 146.781 163.504C147.224 163.214 147.741 163.069 148.332 163.069C148.673 163.069 149.01 163.126 149.342 163.239C149.674 163.353 149.977 163.538 150.25 163.793C150.522 164.046 150.74 164.382 150.902 164.799C151.064 165.217 151.145 165.731 151.145 166.342V166.768H146.099V165.899H150.122C150.122 165.529 150.048 165.2 149.9 164.91C149.755 164.62 149.548 164.391 149.278 164.224C149.011 164.056 148.696 163.972 148.332 163.972C147.931 163.972 147.585 164.072 147.292 164.271C147.002 164.467 146.779 164.722 146.623 165.038C146.467 165.353 146.389 165.691 146.389 166.052V166.632C146.389 167.126 146.474 167.545 146.645 167.889C146.818 168.23 147.058 168.489 147.365 168.668C147.672 168.845 148.028 168.933 148.434 168.933C148.699 168.933 148.937 168.896 149.15 168.822C149.366 168.745 149.552 168.632 149.708 168.481C149.865 168.328 149.985 168.137 150.071 167.91L151.042 168.183C150.94 168.512 150.768 168.802 150.527 169.052C150.285 169.299 149.987 169.492 149.632 169.632C149.277 169.768 148.877 169.836 148.434 169.836ZM156.544 169.7H155.436L158.64 160.972H159.731L162.936 169.7H161.828L159.22 162.353H159.152L156.544 169.7ZM156.953 166.291H161.419V167.228H156.953V166.291ZM164.295 169.7V160.972H167.244C167.929 160.972 168.488 161.096 168.923 161.343C169.36 161.587 169.684 161.918 169.895 162.336C170.105 162.754 170.21 163.22 170.21 163.734C170.21 164.248 170.105 164.715 169.895 165.136C169.687 165.556 169.366 165.891 168.931 166.141C168.497 166.389 167.94 166.512 167.261 166.512H165.147V165.575H167.227C167.696 165.575 168.072 165.494 168.356 165.332C168.64 165.17 168.846 164.951 168.974 164.676C169.105 164.397 169.17 164.083 169.17 163.734C169.17 163.384 169.105 163.072 168.974 162.796C168.846 162.521 168.639 162.305 168.352 162.149C168.065 161.989 167.684 161.91 167.21 161.91H165.352V169.7H164.295ZM172.969 160.972V169.7H171.912V160.972H172.969ZM179.332 165.762V169.7H178.327V160.972H179.332V164.177H179.418C179.571 163.839 179.801 163.57 180.108 163.372C180.418 163.17 180.83 163.069 181.344 163.069C181.79 163.069 182.18 163.159 182.516 163.337C182.851 163.514 183.111 163.785 183.295 164.151C183.483 164.515 183.577 164.978 183.577 165.541V169.7H182.571V165.609C182.571 165.089 182.436 164.687 182.166 164.403C181.899 164.116 181.528 163.972 181.054 163.972C180.724 163.972 180.429 164.042 180.168 164.181C179.909 164.32 179.705 164.524 179.554 164.791C179.406 165.058 179.332 165.382 179.332 165.762ZM187.343 169.853C186.928 169.853 186.551 169.775 186.213 169.619C185.875 169.46 185.607 169.231 185.408 168.933C185.209 168.632 185.11 168.268 185.11 167.842C185.11 167.467 185.184 167.163 185.331 166.93C185.479 166.694 185.676 166.509 185.924 166.376C186.171 166.242 186.444 166.143 186.742 166.078C187.043 166.009 187.346 165.955 187.65 165.916C188.047 165.864 188.37 165.826 188.617 165.801C188.867 165.772 189.049 165.725 189.162 165.66C189.279 165.595 189.337 165.481 189.337 165.319V165.285C189.337 164.864 189.222 164.538 188.992 164.305C188.765 164.072 188.419 163.955 187.956 163.955C187.476 163.955 187.1 164.061 186.827 164.271C186.554 164.481 186.363 164.705 186.252 164.944L185.297 164.603C185.468 164.205 185.695 163.896 185.979 163.674C186.266 163.45 186.578 163.293 186.917 163.205C187.257 163.114 187.593 163.069 187.922 163.069C188.132 163.069 188.374 163.095 188.647 163.146C188.922 163.194 189.188 163.295 189.444 163.448C189.702 163.602 189.917 163.833 190.087 164.143C190.257 164.453 190.343 164.867 190.343 165.387V169.7H189.337V168.813H189.286C189.218 168.955 189.104 169.107 188.945 169.269C188.786 169.431 188.574 169.569 188.31 169.683C188.046 169.796 187.723 169.853 187.343 169.853ZM187.496 168.95C187.894 168.95 188.229 168.872 188.502 168.715C188.777 168.559 188.985 168.357 189.124 168.11C189.266 167.863 189.337 167.603 189.337 167.33V166.41C189.294 166.461 189.201 166.508 189.056 166.551C188.914 166.59 188.749 166.626 188.561 166.657C188.377 166.686 188.196 166.711 188.02 166.734C187.847 166.754 187.706 166.771 187.598 166.785C187.337 166.819 187.093 166.874 186.865 166.951C186.641 167.025 186.459 167.137 186.32 167.288C186.184 167.436 186.115 167.637 186.115 167.893C186.115 168.242 186.245 168.507 186.503 168.686C186.765 168.862 187.096 168.95 187.496 168.95ZM196.815 164.62L195.911 164.876C195.854 164.725 195.771 164.579 195.66 164.437C195.552 164.292 195.404 164.173 195.217 164.079C195.029 163.985 194.789 163.938 194.496 163.938C194.096 163.938 193.762 164.031 193.495 164.215C193.231 164.397 193.099 164.629 193.099 164.91C193.099 165.16 193.19 165.357 193.371 165.502C193.553 165.647 193.837 165.768 194.224 165.864L195.195 166.103C195.781 166.245 196.217 166.462 196.504 166.755C196.79 167.045 196.934 167.418 196.934 167.876C196.934 168.251 196.826 168.586 196.61 168.882C196.397 169.177 196.099 169.41 195.715 169.58C195.332 169.751 194.886 169.836 194.377 169.836C193.71 169.836 193.157 169.691 192.719 169.401C192.282 169.112 192.005 168.688 191.888 168.132L192.843 167.893C192.934 168.245 193.106 168.509 193.359 168.686C193.614 168.862 193.948 168.95 194.36 168.95C194.829 168.95 195.201 168.85 195.477 168.651C195.755 168.45 195.894 168.208 195.894 167.927C195.894 167.7 195.815 167.509 195.656 167.356C195.496 167.2 195.252 167.083 194.923 167.007L193.832 166.751C193.232 166.609 192.792 166.389 192.511 166.09C192.232 165.789 192.093 165.413 192.093 164.961C192.093 164.592 192.197 164.265 192.404 163.981C192.614 163.697 192.9 163.474 193.261 163.312C193.624 163.15 194.036 163.069 194.496 163.069C195.144 163.069 195.653 163.211 196.022 163.495C196.394 163.779 196.658 164.154 196.815 164.62ZM201.959 169.7V160.972H202.965V164.194H203.05C203.124 164.08 203.226 163.936 203.357 163.759C203.49 163.58 203.681 163.421 203.928 163.282C204.178 163.14 204.516 163.069 204.942 163.069C205.493 163.069 205.979 163.207 206.4 163.482C206.82 163.758 207.148 164.149 207.384 164.654C207.62 165.16 207.738 165.757 207.738 166.444C207.738 167.137 207.62 167.738 207.384 168.247C207.148 168.752 206.821 169.144 206.404 169.423C205.986 169.698 205.505 169.836 204.959 169.836C204.539 169.836 204.202 169.766 203.949 169.627C203.696 169.485 203.502 169.325 203.365 169.146C203.229 168.964 203.124 168.813 203.05 168.694H202.931V169.7H201.959ZM202.948 166.427C202.948 166.921 203.02 167.357 203.165 167.735C203.31 168.11 203.522 168.404 203.8 168.617C204.078 168.828 204.419 168.933 204.823 168.933C205.243 168.933 205.594 168.822 205.875 168.6C206.159 168.376 206.373 168.075 206.515 167.697C206.659 167.316 206.732 166.893 206.732 166.427C206.732 165.967 206.661 165.552 206.519 165.183C206.38 164.811 206.168 164.516 205.884 164.301C205.603 164.082 205.249 163.972 204.823 163.972C204.414 163.972 204.07 164.076 203.792 164.284C203.513 164.488 203.303 164.775 203.161 165.144C203.019 165.511 202.948 165.938 202.948 166.427ZM212.02 169.836C211.39 169.836 210.846 169.697 210.388 169.418C209.934 169.137 209.583 168.745 209.336 168.242C209.091 167.737 208.969 167.149 208.969 166.478C208.969 165.808 209.091 165.217 209.336 164.705C209.583 164.191 209.926 163.791 210.367 163.504C210.81 163.214 211.327 163.069 211.918 163.069C212.259 163.069 212.596 163.126 212.928 163.239C213.26 163.353 213.563 163.538 213.836 163.793C214.108 164.046 214.326 164.382 214.488 164.799C214.65 165.217 214.73 165.731 214.73 166.342V166.768H209.685V165.899H213.708C213.708 165.529 213.634 165.2 213.486 164.91C213.341 164.62 213.134 164.391 212.864 164.224C212.597 164.056 212.282 163.972 211.918 163.972C211.517 163.972 211.171 164.072 210.878 164.271C210.588 164.467 210.365 164.722 210.209 165.038C210.053 165.353 209.975 165.691 209.975 166.052V166.632C209.975 167.126 210.06 167.545 210.23 167.889C210.404 168.23 210.644 168.489 210.951 168.668C211.257 168.845 211.614 168.933 212.02 168.933C212.284 168.933 212.523 168.896 212.736 168.822C212.952 168.745 213.138 168.632 213.294 168.481C213.451 168.328 213.571 168.137 213.657 167.91L214.628 168.183C214.526 168.512 214.354 168.802 214.113 169.052C213.871 169.299 213.573 169.492 213.218 169.632C212.863 169.768 212.463 169.836 212.02 169.836ZM219.005 169.836C218.374 169.836 217.83 169.697 217.373 169.418C216.918 169.137 216.567 168.745 216.32 168.242C216.076 167.737 215.953 167.149 215.953 166.478C215.953 165.808 216.076 165.217 216.32 164.705C216.567 164.191 216.911 163.791 217.351 163.504C217.794 163.214 218.311 163.069 218.902 163.069C219.243 163.069 219.58 163.126 219.912 163.239C220.245 163.353 220.547 163.538 220.82 163.793C221.093 164.046 221.31 164.382 221.472 164.799C221.634 165.217 221.715 165.731 221.715 166.342V166.768H216.669V165.899H220.692C220.692 165.529 220.618 165.2 220.471 164.91C220.326 164.62 220.118 164.391 219.848 164.224C219.581 164.056 219.266 163.972 218.902 163.972C218.502 163.972 218.155 164.072 217.863 164.271C217.573 164.467 217.35 164.722 217.194 165.038C217.037 165.353 216.959 165.691 216.959 166.052V166.632C216.959 167.126 217.044 167.545 217.215 167.889C217.388 168.23 217.628 168.489 217.935 168.668C218.242 168.845 218.598 168.933 219.005 168.933C219.269 168.933 219.507 168.896 219.721 168.822C219.936 168.745 220.123 168.632 220.279 168.481C220.435 168.328 220.556 168.137 220.641 167.91L221.613 168.183C221.51 168.512 221.338 168.802 221.097 169.052C220.855 169.299 220.557 169.492 220.202 169.632C219.847 169.768 219.448 169.836 219.005 169.836ZM224.25 165.762V169.7H223.245V163.154H224.216V164.177H224.301C224.455 163.845 224.688 163.578 225 163.376C225.313 163.171 225.716 163.069 226.211 163.069C226.654 163.069 227.042 163.16 227.374 163.342C227.706 163.521 227.965 163.793 228.15 164.16C228.334 164.524 228.426 164.984 228.426 165.541V169.7H227.421V165.609C227.421 165.095 227.287 164.694 227.02 164.407C226.753 164.117 226.387 163.972 225.921 163.972C225.6 163.972 225.313 164.042 225.06 164.181C224.81 164.32 224.613 164.524 224.468 164.791C224.323 165.058 224.25 165.382 224.25 165.762ZM236.384 169.836C235.753 169.836 235.209 169.697 234.751 169.418C234.297 169.137 233.946 168.745 233.699 168.242C233.455 167.737 233.332 167.149 233.332 166.478C233.332 165.808 233.455 165.217 233.699 164.705C233.946 164.191 234.29 163.791 234.73 163.504C235.173 163.214 235.69 163.069 236.281 163.069C236.622 163.069 236.959 163.126 237.291 163.239C237.624 163.353 237.926 163.538 238.199 163.793C238.472 164.046 238.689 164.382 238.851 164.799C239.013 165.217 239.094 165.731 239.094 166.342V166.768H234.048V165.899H238.071C238.071 165.529 237.997 165.2 237.849 164.91C237.705 164.62 237.497 164.391 237.227 164.224C236.96 164.056 236.645 163.972 236.281 163.972C235.881 163.972 235.534 164.072 235.241 164.271C234.952 164.467 234.729 164.722 234.572 165.038C234.416 165.353 234.338 165.691 234.338 166.052V166.632C234.338 167.126 234.423 167.545 234.594 167.889C234.767 168.23 235.007 168.489 235.314 168.668C235.621 168.845 235.977 168.933 236.384 168.933C236.648 168.933 236.886 168.896 237.099 168.822C237.315 168.745 237.501 168.632 237.658 168.481C237.814 168.328 237.935 168.137 238.02 167.91L238.991 168.183C238.889 168.512 238.717 168.802 238.476 169.052C238.234 169.299 237.936 169.492 237.581 169.632C237.226 169.768 236.827 169.836 236.384 169.836ZM241.629 165.762V169.7H240.624V163.154H241.595V164.177H241.68C241.834 163.845 242.067 163.578 242.379 163.376C242.692 163.171 243.095 163.069 243.589 163.069C244.033 163.069 244.42 163.16 244.753 163.342C245.085 163.521 245.344 163.793 245.528 164.16C245.713 164.524 245.805 164.984 245.805 165.541V169.7H244.8V165.609C244.8 165.095 244.666 164.694 244.399 164.407C244.132 164.117 243.766 163.972 243.3 163.972C242.979 163.972 242.692 164.042 242.439 164.181C242.189 164.32 241.991 164.524 241.847 164.791C241.702 165.058 241.629 165.382 241.629 165.762ZM249.569 169.853C249.154 169.853 248.778 169.775 248.44 169.619C248.102 169.46 247.833 169.231 247.635 168.933C247.436 168.632 247.336 168.268 247.336 167.842C247.336 167.467 247.41 167.163 247.558 166.93C247.706 166.694 247.903 166.509 248.15 166.376C248.397 166.242 248.67 166.143 248.968 166.078C249.27 166.009 249.572 165.955 249.876 165.916C250.274 165.864 250.596 165.826 250.843 165.801C251.093 165.772 251.275 165.725 251.389 165.66C251.505 165.595 251.564 165.481 251.564 165.319V165.285C251.564 164.864 251.449 164.538 251.218 164.305C250.991 164.072 250.646 163.955 250.183 163.955C249.703 163.955 249.326 164.061 249.054 164.271C248.781 164.481 248.589 164.705 248.478 164.944L247.524 164.603C247.694 164.205 247.922 163.896 248.206 163.674C248.493 163.45 248.805 163.293 249.143 163.205C249.484 163.114 249.819 163.069 250.149 163.069C250.359 163.069 250.6 163.095 250.873 163.146C251.149 163.194 251.414 163.295 251.67 163.448C251.929 163.602 252.143 163.833 252.314 164.143C252.484 164.453 252.569 164.867 252.569 165.387V169.7H251.564V168.813H251.512C251.444 168.955 251.331 169.107 251.172 169.269C251.012 169.431 250.801 169.569 250.537 169.683C250.272 169.796 249.95 169.853 249.569 169.853ZM249.723 168.95C250.12 168.95 250.456 168.872 250.728 168.715C251.004 168.559 251.211 168.357 251.35 168.11C251.493 167.863 251.564 167.603 251.564 167.33V166.41C251.521 166.461 251.427 166.508 251.282 166.551C251.14 166.59 250.975 166.626 250.788 166.657C250.603 166.686 250.423 166.711 250.247 166.734C250.074 166.754 249.933 166.771 249.825 166.785C249.564 166.819 249.319 166.874 249.092 166.951C248.868 167.025 248.686 167.137 248.547 167.288C248.41 167.436 248.342 167.637 248.342 167.893C248.342 168.242 248.471 168.507 248.73 168.686C248.991 168.862 249.322 168.95 249.723 168.95ZM254.541 169.7V160.972H255.547V164.194H255.632C255.706 164.08 255.808 163.936 255.939 163.759C256.072 163.58 256.263 163.421 256.51 163.282C256.76 163.14 257.098 163.069 257.524 163.069C258.075 163.069 258.561 163.207 258.982 163.482C259.402 163.758 259.73 164.149 259.966 164.654C260.202 165.16 260.32 165.757 260.32 166.444C260.32 167.137 260.202 167.738 259.966 168.247C259.73 168.752 259.403 169.144 258.986 169.423C258.568 169.698 258.087 169.836 257.541 169.836C257.121 169.836 256.784 169.766 256.531 169.627C256.278 169.485 256.084 169.325 255.947 169.146C255.811 168.964 255.706 168.813 255.632 168.694H255.513V169.7H254.541ZM255.53 166.427C255.53 166.921 255.602 167.357 255.747 167.735C255.892 168.11 256.104 168.404 256.382 168.617C256.661 168.828 257.001 168.933 257.405 168.933C257.825 168.933 258.176 168.822 258.457 168.6C258.741 168.376 258.955 168.075 259.097 167.697C259.241 167.316 259.314 166.893 259.314 166.427C259.314 165.967 259.243 165.552 259.101 165.183C258.962 164.811 258.75 164.516 258.466 164.301C258.185 164.082 257.831 163.972 257.405 163.972C256.996 163.972 256.652 164.076 256.374 164.284C256.095 164.488 255.885 164.775 255.743 165.144C255.601 165.511 255.53 165.938 255.53 166.427ZM262.864 160.972V169.7H261.858V160.972H262.864ZM267.45 169.836C266.819 169.836 266.275 169.697 265.818 169.418C265.363 169.137 265.012 168.745 264.765 168.242C264.521 167.737 264.399 167.149 264.399 166.478C264.399 165.808 264.521 165.217 264.765 164.705C265.012 164.191 265.356 163.791 265.797 163.504C266.24 163.214 266.757 163.069 267.348 163.069C267.689 163.069 268.025 163.126 268.358 163.239C268.69 163.353 268.993 163.538 269.265 163.793C269.538 164.046 269.755 164.382 269.917 164.799C270.079 165.217 270.16 165.731 270.16 166.342V166.768H265.115V165.899H269.137C269.137 165.529 269.064 165.2 268.916 164.91C268.771 164.62 268.564 164.391 268.294 164.224C268.027 164.056 267.711 163.972 267.348 163.972C266.947 163.972 266.6 164.072 266.308 164.271C266.018 164.467 265.795 164.722 265.639 165.038C265.483 165.353 265.404 165.691 265.404 166.052V166.632C265.404 167.126 265.49 167.545 265.66 167.889C265.833 168.23 266.074 168.489 266.38 168.668C266.687 168.845 267.044 168.933 267.45 168.933C267.714 168.933 267.953 168.896 268.166 168.822C268.382 168.745 268.568 168.632 268.724 168.481C268.88 168.328 269.001 168.137 269.086 167.91L270.058 168.183C269.956 168.512 269.784 168.802 269.542 169.052C269.301 169.299 269.002 169.492 268.647 169.632C268.292 169.768 267.893 169.836 267.45 169.836ZM274.162 169.836C273.616 169.836 273.135 169.698 272.717 169.423C272.299 169.144 271.973 168.752 271.737 168.247C271.501 167.738 271.383 167.137 271.383 166.444C271.383 165.757 271.501 165.16 271.737 164.654C271.973 164.149 272.301 163.758 272.721 163.482C273.142 163.207 273.627 163.069 274.179 163.069C274.605 163.069 274.941 163.14 275.189 163.282C275.439 163.421 275.629 163.58 275.76 163.759C275.893 163.936 275.997 164.08 276.071 164.194H276.156V160.972H277.162V169.7H276.19V168.694H276.071C275.997 168.813 275.892 168.964 275.755 169.146C275.619 169.325 275.424 169.485 275.172 169.627C274.919 169.766 274.582 169.836 274.162 169.836ZM274.298 168.933C274.701 168.933 275.042 168.828 275.321 168.617C275.599 168.404 275.811 168.11 275.956 167.735C276.1 167.357 276.173 166.921 276.173 166.427C276.173 165.938 276.102 165.511 275.96 165.144C275.818 164.775 275.608 164.488 275.329 164.284C275.051 164.076 274.707 163.972 274.298 163.972C273.872 163.972 273.517 164.082 273.233 164.301C272.951 164.516 272.74 164.811 272.598 165.183C272.458 165.552 272.389 165.967 272.389 166.427C272.389 166.893 272.46 167.316 272.602 167.697C272.747 168.075 272.96 168.376 273.241 168.6C273.525 168.822 273.877 168.933 274.298 168.933ZM280.473 160.972L280.387 167.245H279.399L279.314 160.972H280.473ZM279.893 169.768C279.683 169.768 279.502 169.693 279.352 169.542C279.201 169.391 279.126 169.211 279.126 169.001C279.126 168.791 279.201 168.61 279.352 168.46C279.502 168.309 279.683 168.234 279.893 168.234C280.103 168.234 280.284 168.309 280.434 168.46C280.585 168.61 280.66 168.791 280.66 169.001C280.66 169.14 280.625 169.268 280.554 169.384C280.485 169.501 280.393 169.595 280.277 169.666C280.163 169.734 280.035 169.768 279.893 169.768Z" fill="#755D25"/>
<path d="M103.395 211.7H102.287L105.492 202.972H106.583L109.787 211.7H108.679L106.071 204.353H106.003L103.395 211.7ZM103.804 208.291H108.27V209.228H103.804V208.291ZM111.147 211.7V202.972H114.096C114.78 202.972 115.34 203.096 115.775 203.343C116.212 203.587 116.536 203.918 116.746 204.336C116.956 204.754 117.061 205.22 117.061 205.734C117.061 206.248 116.956 206.715 116.746 207.136C116.539 207.556 116.218 207.891 115.783 208.141C115.348 208.389 114.792 208.512 114.113 208.512H111.999V207.575H114.078C114.547 207.575 114.924 207.494 115.208 207.332C115.492 207.17 115.698 206.951 115.826 206.676C115.956 206.397 116.022 206.083 116.022 205.734C116.022 205.384 115.956 205.072 115.826 204.796C115.698 204.521 115.49 204.305 115.203 204.149C114.917 203.989 114.536 203.91 114.061 203.91H112.203V211.7H111.147ZM119.821 202.972V211.7H118.764V202.972H119.821ZM125.315 211.7V202.972H126.371V207.302H126.474L130.394 202.972H131.775L128.11 206.91L131.775 211.7H130.496L127.462 207.643L126.371 208.87V211.7H125.315ZM135.27 211.836C134.64 211.836 134.096 211.697 133.638 211.418C133.184 211.137 132.833 210.745 132.586 210.242C132.341 209.737 132.219 209.149 132.219 208.478C132.219 207.808 132.341 207.217 132.586 206.705C132.833 206.191 133.176 205.791 133.617 205.504C134.06 205.214 134.577 205.069 135.168 205.069C135.509 205.069 135.846 205.126 136.178 205.239C136.51 205.353 136.813 205.538 137.086 205.793C137.358 206.046 137.576 206.382 137.738 206.799C137.9 207.217 137.98 207.731 137.98 208.342V208.768H132.935V207.899H136.958C136.958 207.529 136.884 207.2 136.736 206.91C136.591 206.62 136.384 206.391 136.114 206.224C135.847 206.056 135.532 205.972 135.168 205.972C134.767 205.972 134.421 206.072 134.128 206.271C133.838 206.467 133.615 206.722 133.459 207.038C133.303 207.353 133.225 207.691 133.225 208.052V208.632C133.225 209.126 133.31 209.545 133.48 209.889C133.654 210.23 133.894 210.489 134.201 210.668C134.507 210.845 134.864 210.933 135.27 210.933C135.534 210.933 135.773 210.896 135.986 210.822C136.202 210.745 136.388 210.632 136.544 210.481C136.701 210.328 136.821 210.137 136.907 209.91L137.878 210.183C137.776 210.512 137.604 210.802 137.363 211.052C137.121 211.299 136.823 211.492 136.468 211.632C136.113 211.768 135.713 211.836 135.27 211.836ZM139.959 214.154C139.788 214.154 139.636 214.14 139.503 214.112C139.369 214.086 139.277 214.061 139.226 214.035L139.482 213.149C139.726 213.211 139.942 213.234 140.129 213.217C140.317 213.2 140.483 213.116 140.628 212.965C140.776 212.818 140.911 212.578 141.033 212.245L141.22 211.734L138.8 205.154H139.891L141.697 210.37H141.766L143.572 205.154H144.663L141.885 212.654C141.76 212.992 141.605 213.272 141.42 213.494C141.236 213.718 141.021 213.884 140.777 213.992C140.536 214.1 140.263 214.154 139.959 214.154ZM150.627 206.62L149.724 206.876C149.667 206.725 149.583 206.579 149.472 206.437C149.364 206.292 149.217 206.173 149.029 206.079C148.842 205.985 148.602 205.938 148.309 205.938C147.908 205.938 147.575 206.031 147.308 206.215C147.043 206.397 146.911 206.629 146.911 206.91C146.911 207.16 147.002 207.357 147.184 207.502C147.366 207.647 147.65 207.768 148.036 207.864L149.008 208.103C149.593 208.245 150.029 208.462 150.316 208.755C150.603 209.045 150.746 209.418 150.746 209.876C150.746 210.251 150.638 210.586 150.423 210.882C150.21 211.177 149.911 211.41 149.528 211.58C149.144 211.751 148.698 211.836 148.19 211.836C147.522 211.836 146.969 211.691 146.532 211.401C146.094 211.112 145.817 210.688 145.701 210.132L146.656 209.893C146.746 210.245 146.918 210.509 147.171 210.686C147.427 210.862 147.761 210.95 148.173 210.95C148.641 210.95 149.013 210.85 149.289 210.651C149.567 210.45 149.707 210.208 149.707 209.927C149.707 209.7 149.627 209.509 149.468 209.356C149.309 209.2 149.065 209.083 148.735 209.007L147.644 208.751C147.045 208.609 146.604 208.389 146.323 208.09C146.045 207.789 145.906 207.413 145.906 206.961C145.906 206.592 146.009 206.265 146.217 205.981C146.427 205.697 146.712 205.474 147.073 205.312C147.437 205.15 147.849 205.069 148.309 205.069C148.957 205.069 149.465 205.211 149.835 205.495C150.207 205.779 150.471 206.154 150.627 206.62Z" fill="#486581"/>
<rect x="101.98" y="224.7" width="295" height="4.97338" rx="2.48669" fill="#D9E2EC"/>
<rect x="101.98" y="237.673" width="281.105" height="4.97338" rx="2.48669" fill="#D9E2EC"/>
<rect x="101.98" y="250.646" width="176" height="37" rx="18.5" fill="#2680C2"/>
<path d="M127.849 268.029H125.672C125.632 267.748 125.551 267.497 125.428 267.279C125.305 267.057 125.148 266.868 124.956 266.712C124.763 266.556 124.541 266.437 124.289 266.354C124.041 266.271 123.771 266.23 123.479 266.23C122.952 266.23 122.493 266.36 122.102 266.622C121.711 266.881 121.408 267.259 121.192 267.756C120.977 268.25 120.869 268.85 120.869 269.556C120.869 270.281 120.977 270.891 121.192 271.385C121.411 271.879 121.716 272.252 122.107 272.504C122.498 272.756 122.95 272.882 123.464 272.882C123.752 272.882 124.019 272.843 124.265 272.767C124.513 272.691 124.734 272.58 124.926 272.434C125.118 272.285 125.277 272.104 125.403 271.892C125.532 271.68 125.622 271.438 125.672 271.166L127.849 271.176C127.793 271.644 127.652 272.094 127.426 272.529C127.204 272.959 126.904 273.346 126.527 273.687C126.152 274.025 125.705 274.294 125.184 274.492C124.667 274.688 124.082 274.786 123.429 274.786C122.521 274.786 121.709 274.58 120.993 274.169C120.281 273.758 119.717 273.163 119.303 272.384C118.892 271.606 118.686 270.663 118.686 269.556C118.686 268.445 118.895 267.501 119.313 266.722C119.73 265.943 120.297 265.35 121.013 264.942C121.729 264.531 122.534 264.325 123.429 264.325C124.019 264.325 124.566 264.408 125.07 264.574C125.577 264.74 126.026 264.982 126.417 265.3C126.808 265.615 127.127 266.001 127.372 266.458C127.62 266.916 127.779 267.439 127.849 268.029ZM129.353 274.646V267.01H131.406V268.343H131.486C131.625 267.869 131.859 267.511 132.187 267.269C132.515 267.023 132.893 266.901 133.32 266.901C133.426 266.901 133.541 266.907 133.663 266.921C133.786 266.934 133.894 266.952 133.987 266.975V268.855C133.887 268.825 133.75 268.798 133.574 268.775C133.398 268.752 133.237 268.74 133.092 268.74C132.78 268.74 132.502 268.808 132.256 268.944C132.014 269.077 131.822 269.262 131.68 269.501C131.54 269.74 131.471 270.015 131.471 270.326V274.646H129.353ZM138.206 274.796C137.421 274.796 136.744 274.637 136.178 274.318C135.614 273.997 135.18 273.543 134.875 272.956C134.57 272.366 134.418 271.669 134.418 270.863C134.418 270.078 134.57 269.388 134.875 268.795C135.18 268.202 135.609 267.739 136.163 267.408C136.72 267.076 137.373 266.911 138.122 266.911C138.625 266.911 139.094 266.992 139.529 267.154C139.966 267.313 140.347 267.554 140.672 267.875C141 268.197 141.255 268.601 141.438 269.088C141.62 269.572 141.711 270.139 141.711 270.789V271.37H135.263V270.058H139.718C139.718 269.753 139.651 269.483 139.519 269.247C139.386 269.012 139.202 268.828 138.967 268.695C138.735 268.56 138.465 268.492 138.156 268.492C137.835 268.492 137.55 268.566 137.301 268.715C137.056 268.861 136.864 269.058 136.725 269.307C136.585 269.552 136.514 269.826 136.511 270.127V271.375C136.511 271.753 136.58 272.079 136.72 272.355C136.862 272.63 137.063 272.842 137.321 272.991C137.58 273.14 137.886 273.215 138.241 273.215C138.476 273.215 138.692 273.182 138.887 273.115C139.083 273.049 139.25 272.95 139.389 272.817C139.529 272.684 139.635 272.522 139.708 272.33L141.666 272.459C141.567 272.93 141.363 273.341 141.055 273.692C140.75 274.04 140.356 274.312 139.872 274.507C139.391 274.7 138.836 274.796 138.206 274.796ZM145.271 274.791C144.784 274.791 144.349 274.706 143.968 274.537C143.587 274.365 143.285 274.111 143.063 273.776C142.845 273.438 142.735 273.017 142.735 272.514C142.735 272.089 142.813 271.733 142.969 271.445C143.125 271.156 143.337 270.924 143.605 270.749C143.874 270.573 144.179 270.441 144.52 270.351C144.865 270.262 145.226 270.199 145.604 270.162C146.048 270.116 146.406 270.073 146.678 270.033C146.95 269.99 147.147 269.927 147.269 269.844C147.392 269.761 147.453 269.638 147.453 269.476V269.446C147.453 269.131 147.354 268.888 147.155 268.715C146.959 268.543 146.681 268.457 146.32 268.457C145.939 268.457 145.635 268.541 145.41 268.71C145.185 268.876 145.035 269.085 144.963 269.337L143.004 269.178C143.103 268.714 143.299 268.313 143.59 267.975C143.882 267.633 144.258 267.371 144.719 267.189C145.183 267.003 145.72 266.911 146.33 266.911C146.754 266.911 147.16 266.96 147.548 267.06C147.939 267.159 148.285 267.313 148.587 267.522C148.892 267.731 149.132 267.999 149.308 268.328C149.483 268.652 149.571 269.042 149.571 269.496V274.646H147.563V273.588H147.503C147.38 273.826 147.216 274.037 147.011 274.219C146.805 274.398 146.558 274.539 146.27 274.642C145.982 274.741 145.649 274.791 145.271 274.791ZM145.877 273.329C146.189 273.329 146.464 273.268 146.703 273.145C146.941 273.019 147.128 272.85 147.264 272.638C147.4 272.426 147.468 272.186 147.468 271.917V271.107C147.402 271.15 147.311 271.19 147.195 271.226C147.082 271.259 146.954 271.291 146.812 271.32C146.669 271.347 146.527 271.372 146.384 271.395C146.242 271.415 146.113 271.433 145.997 271.45C145.748 271.486 145.531 271.544 145.345 271.624C145.16 271.703 145.016 271.811 144.913 271.947C144.81 272.079 144.759 272.245 144.759 272.444C144.759 272.732 144.863 272.953 145.072 273.105C145.284 273.254 145.552 273.329 145.877 273.329ZM155.276 267.01V268.601H150.677V267.01H155.276ZM151.721 265.181H153.839V272.3C153.839 272.495 153.869 272.648 153.929 272.757C153.988 272.863 154.071 272.938 154.177 272.981C154.287 273.024 154.413 273.046 154.555 273.046C154.655 273.046 154.754 273.037 154.854 273.021C154.953 273.001 155.029 272.986 155.082 272.976L155.415 274.552C155.309 274.585 155.16 274.623 154.968 274.666C154.776 274.713 154.542 274.741 154.267 274.751C153.756 274.771 153.309 274.703 152.925 274.547C152.543 274.391 152.247 274.149 152.035 273.821C151.823 273.493 151.718 273.079 151.721 272.578V265.181ZM160.054 274.796C159.268 274.796 158.592 274.637 158.025 274.318C157.462 273.997 157.028 273.543 156.723 272.956C156.418 272.366 156.265 271.669 156.265 270.863C156.265 270.078 156.418 269.388 156.723 268.795C157.028 268.202 157.457 267.739 158.01 267.408C158.567 267.076 159.22 266.911 159.969 266.911C160.473 266.911 160.942 266.992 161.376 267.154C161.814 267.313 162.195 267.554 162.52 267.875C162.848 268.197 163.103 268.601 163.285 269.088C163.468 269.572 163.559 270.139 163.559 270.789V271.37H157.111V270.058H161.565C161.565 269.753 161.499 269.483 161.366 269.247C161.234 269.012 161.05 268.828 160.814 268.695C160.582 268.56 160.312 268.492 160.004 268.492C159.683 268.492 159.398 268.566 159.149 268.715C158.904 268.861 158.711 269.058 158.572 269.307C158.433 269.552 158.362 269.826 158.358 270.127V271.375C158.358 271.753 158.428 272.079 158.567 272.355C158.71 272.63 158.91 272.842 159.169 272.991C159.427 273.14 159.734 273.215 160.089 273.215C160.324 273.215 160.539 273.182 160.735 273.115C160.93 273.049 161.098 272.95 161.237 272.817C161.376 272.684 161.482 272.522 161.555 272.33L163.514 272.459C163.415 272.93 163.211 273.341 162.903 273.692C162.598 274.04 162.203 274.312 161.719 274.507C161.239 274.7 160.684 274.796 160.054 274.796ZM170.359 274.791C169.871 274.791 169.437 274.706 169.056 274.537C168.675 274.365 168.373 274.111 168.151 273.776C167.933 273.438 167.823 273.017 167.823 272.514C167.823 272.089 167.901 271.733 168.057 271.445C168.213 271.156 168.425 270.924 168.693 270.749C168.962 270.573 169.267 270.441 169.608 270.351C169.953 270.262 170.314 270.199 170.692 270.162C171.136 270.116 171.494 270.073 171.766 270.033C172.037 269.99 172.235 269.927 172.357 269.844C172.48 269.761 172.541 269.638 172.541 269.476V269.446C172.541 269.131 172.442 268.888 172.243 268.715C172.047 268.543 171.769 268.457 171.408 268.457C171.027 268.457 170.723 268.541 170.498 268.71C170.272 268.876 170.123 269.085 170.05 269.337L168.092 269.178C168.191 268.714 168.387 268.313 168.678 267.975C168.97 267.633 169.346 267.371 169.807 267.189C170.271 267.003 170.808 266.911 171.418 266.911C171.842 266.911 172.248 266.96 172.636 267.06C173.027 267.159 173.373 267.313 173.675 267.522C173.98 267.731 174.22 267.999 174.396 268.328C174.571 268.652 174.659 269.042 174.659 269.496V274.646H172.651V273.588H172.591C172.468 273.826 172.304 274.037 172.099 274.219C171.893 274.398 171.646 274.539 171.358 274.642C171.07 274.741 170.737 274.791 170.359 274.791ZM170.965 273.329C171.277 273.329 171.552 273.268 171.79 273.145C172.029 273.019 172.216 272.85 172.352 272.638C172.488 272.426 172.556 272.186 172.556 271.917V271.107C172.49 271.15 172.399 271.19 172.283 271.226C172.17 271.259 172.042 271.291 171.9 271.32C171.757 271.347 171.615 271.372 171.472 271.395C171.33 271.415 171.201 271.433 171.085 271.45C170.836 271.486 170.619 271.544 170.433 271.624C170.248 271.703 170.103 271.811 170.001 271.947C169.898 272.079 169.847 272.245 169.847 272.444C169.847 272.732 169.951 272.953 170.16 273.105C170.372 273.254 170.64 273.329 170.965 273.329ZM181.66 270.232V274.646H179.542V267.01H181.561V268.357H181.65C181.819 267.913 182.103 267.562 182.501 267.303C182.898 267.042 183.381 266.911 183.947 266.911C184.478 266.911 184.94 267.027 185.334 267.259C185.729 267.491 186.035 267.822 186.254 268.253C186.473 268.681 186.582 269.191 186.582 269.784V274.646H184.464V270.162C184.468 269.695 184.348 269.33 184.106 269.068C183.864 268.803 183.531 268.671 183.107 268.671C182.822 268.671 182.57 268.732 182.351 268.855C182.136 268.977 181.967 269.156 181.844 269.392C181.725 269.624 181.664 269.904 181.66 270.232ZM191.732 274.796C190.946 274.796 190.27 274.637 189.703 274.318C189.14 273.997 188.705 273.543 188.401 272.956C188.096 272.366 187.943 271.669 187.943 270.863C187.943 270.078 188.096 269.388 188.401 268.795C188.705 268.202 189.135 267.739 189.688 267.408C190.245 267.076 190.898 266.911 191.647 266.911C192.151 266.911 192.62 266.992 193.054 267.154C193.491 267.313 193.873 267.554 194.197 267.875C194.526 268.197 194.781 268.601 194.963 269.088C195.145 269.572 195.237 270.139 195.237 270.789V271.37H188.788V270.058H193.243C193.243 269.753 193.177 269.483 193.044 269.247C192.911 269.012 192.728 268.828 192.492 268.695C192.26 268.56 191.99 268.492 191.682 268.492C191.36 268.492 191.075 268.566 190.827 268.715C190.581 268.861 190.389 269.058 190.25 269.307C190.111 269.552 190.04 269.826 190.036 270.127V271.375C190.036 271.753 190.106 272.079 190.245 272.355C190.388 272.63 190.588 272.842 190.847 272.991C191.105 273.14 191.412 273.215 191.766 273.215C192.002 273.215 192.217 273.182 192.413 273.115C192.608 273.049 192.776 272.95 192.915 272.817C193.054 272.684 193.16 272.522 193.233 272.33L195.192 272.459C195.092 272.93 194.888 273.341 194.58 273.692C194.275 274.04 193.881 274.312 193.397 274.507C192.916 274.7 192.361 274.796 191.732 274.796ZM198.07 274.646L195.992 267.01H198.135L199.318 272.141H199.388L200.621 267.01H202.724L203.977 272.111H204.041L205.205 267.01H207.342L205.269 274.646H203.027L201.714 269.844H201.62L200.308 274.646H198.07ZM213.507 274.646H211.2L214.715 264.465H217.489L220.999 274.646H218.692L216.142 266.791H216.062L213.507 274.646ZM213.363 270.644H218.812V272.325H213.363V270.644ZM222.225 274.646V264.465H226.242C227.014 264.465 227.672 264.612 228.216 264.907C228.759 265.199 229.173 265.605 229.458 266.125C229.747 266.642 229.891 267.239 229.891 267.915C229.891 268.591 229.745 269.188 229.453 269.705C229.162 270.222 228.739 270.624 228.186 270.913C227.636 271.201 226.969 271.345 226.187 271.345H223.627V269.62H225.839C226.253 269.62 226.595 269.549 226.863 269.406C227.135 269.261 227.337 269.06 227.47 268.805C227.606 268.546 227.674 268.25 227.674 267.915C227.674 267.577 227.606 267.282 227.47 267.03C227.337 266.775 227.135 266.578 226.863 266.438C226.592 266.296 226.247 266.225 225.829 266.225H224.377V274.646H222.225ZM233.442 264.465V274.646H231.289V264.465H233.442ZM240.333 272.449L240.338 269.909H240.646L243.092 267.01H245.523L242.237 270.848H241.735L240.333 272.449ZM238.414 274.646V264.465H240.531V274.646H238.414ZM243.186 274.646L240.939 271.32L242.351 269.824L245.667 274.646H243.186ZM249.728 274.796C248.942 274.796 248.266 274.637 247.699 274.318C247.136 273.997 246.702 273.543 246.397 272.956C246.092 272.366 245.939 271.669 245.939 270.863C245.939 270.078 246.092 269.388 246.397 268.795C246.702 268.202 247.131 267.739 247.684 267.408C248.241 267.076 248.894 266.911 249.643 266.911C250.147 266.911 250.616 266.992 251.05 267.154C251.488 267.313 251.869 267.554 252.194 267.875C252.522 268.197 252.777 268.601 252.959 269.088C253.141 269.572 253.233 270.139 253.233 270.789V271.37H246.784V270.058H251.239C251.239 269.753 251.173 269.483 251.04 269.247C250.908 269.012 250.724 268.828 250.488 268.695C250.256 268.56 249.986 268.492 249.678 268.492C249.356 268.492 249.071 268.566 248.823 268.715C248.578 268.861 248.385 269.058 248.246 269.307C248.107 269.552 248.036 269.826 248.032 270.127V271.375C248.032 271.753 248.102 272.079 248.241 272.355C248.384 272.63 248.584 272.842 248.843 272.991C249.101 273.14 249.408 273.215 249.762 273.215C249.998 273.215 250.213 273.182 250.409 273.115C250.604 273.049 250.772 272.95 250.911 272.817C251.05 272.684 251.156 272.522 251.229 272.33L253.188 272.459C253.088 272.93 252.885 273.341 252.576 273.692C252.271 274.04 251.877 274.312 251.393 274.507C250.913 274.7 250.357 274.796 249.728 274.796ZM255.717 277.51C255.449 277.51 255.197 277.489 254.961 277.445C254.729 277.406 254.537 277.354 254.385 277.291L254.862 275.71C255.111 275.787 255.334 275.828 255.533 275.835C255.735 275.841 255.909 275.795 256.055 275.695C256.204 275.596 256.325 275.427 256.418 275.188L256.542 274.865L253.803 267.01H256.03L257.611 272.618H257.691L259.287 267.01H261.529L258.561 275.472C258.418 275.883 258.224 276.241 257.979 276.546C257.737 276.854 257.431 277.091 257.059 277.257C256.688 277.426 256.241 277.51 255.717 277.51Z" fill="white"/>
</g>
<rect x="86.4805" y="44.2529" width="326" height="258.894" rx="9.44677" stroke="#2680C2"/>
</g>
<defs>
<filter id="filter0_dd_1232_74661" x="73.3916" y="43.7529" width="352.178" height="285.071" filterUnits="userSpaceOnUse" color-interpolation-filters="sRGB">
<feFlood flood-opacity="0" result="BackgroundImageFix"/>
<feColorMatrix in="SourceAlpha" type="matrix" values="0 0 0 0 0 0 0 0 0 0 0 0 0 0 0 0 0 0 127 0" result="hardAlpha"/>
<feMorphology radius="2.09815" operator="erode" in="SourceAlpha" result="effect1_dropShadow_1232_74661"/>
<feOffset dy="4.19629"/>
<feGaussianBlur stdDeviation="3.14722"/>
<feComposite in2="hardAlpha" operator="out"/>
<feColorMatrix type="matrix" values="0 0 0 0 0 0 0 0 0 0 0 0 0 0 0 0 0 0 0.03 0"/>
<feBlend mode="normal" in2="BackgroundImageFix" result="effect1_dropShadow_1232_74661"/>
<feColorMatrix in="SourceAlpha" type="matrix" values="0 0 0 0 0 0 0 0 0 0 0 0 0 0 0 0 0 0 127 0" result="hardAlpha"/>
<feMorphology radius="4.19629" operator="erode" in="SourceAlpha" result="effect2_dropShadow_1232_74661"/>
<feOffset dy="12.5889"/>
<feGaussianBlur stdDeviation="8.39259"/>
<feComposite in2="hardAlpha" operator="out"/>
<feColorMatrix type="matrix" values="0 0 0 0 0 0 0 0 0 0 0 0 0 0 0 0 0 0 0.08 0"/>
<feBlend mode="normal" in2="effect1_dropShadow_1232_74661" result="effect2_dropShadow_1232_74661"/>
<feBlend mode="normal" in="SourceGraphic" in2="effect2_dropShadow_1232_74661" result="shape"/>
</filter>
<clipPath id="clip0_1232_74661">
<rect x="85.9805" y="43.7529" width="327" height="259.894" rx="9.94677" fill="white"/>
</clipPath>
</defs>
</svg>
