<svg width="500" height="349" viewBox="0 0 500 349" fill="none" xmlns="http://www.w3.org/2000/svg">
<g filter="url(#filter0_dd_1232_73914)">
<g clip-path="url(#clip0_1232_73914)">
<rect x="86.25" y="55.8677" width="327" height="237.265" rx="9.94677" fill="white"/>
<path d="M267.069 97.0929L266.425 95.2707C266.425 95.2707 269.105 91.1975 262.459 89.8041C262.459 89.8041 262.888 84.7662 260.53 82.4081C265.675 77.3702 264.496 69.7599 252.813 74.6905C246.81 63.2214 223.657 90.1256 233.304 94.4132C232.34 95.6994 232.34 102.131 238.985 102.774C243.487 112.421 254.42 113.064 260.744 110.17C267.069 107.276 270.713 98.0576 267.069 97.0929ZM238.878 101.38C233.411 100.844 232.876 93.3413 237.592 92.591C242.308 91.8407 243.487 101.809 238.878 101.38ZM237.27 91.1975C235.77 91.1975 233.947 93.2341 233.947 93.2341C226.659 89.6969 247.132 66.2227 251.526 75.3337C251.526 75.3337 240.807 80.4787 237.27 91.1975ZM258.708 100.309C258.708 99.8798 256.457 100.952 252.384 99.5582C252.705 97.3073 257.529 101.488 265.568 96.021L266.211 98.2719C269.212 97.736 266.211 107.919 256.564 107.812C248.739 107.705 246.274 99.6654 250.562 95.2707C251.419 94.4132 247.453 92.6982 248.203 88.9466C248.525 87.3387 249.918 84.9806 253.456 85.6237C256.993 86.2669 257.743 83.0512 260.101 84.2303C262.459 85.4094 261.066 89.9113 261.388 90.5544C261.709 91.1975 265.139 91.3047 265.782 93.1269C266.425 94.9491 261.388 98.9151 253.563 97.8432C251.741 97.6288 250.669 99.987 251.848 101.488C254.206 104.918 263.853 102.667 265.461 99.3438C261.388 102.452 253.027 103.631 252.384 100.309C254.742 101.38 258.708 100.737 258.708 100.309ZM244.666 83.3728C247.024 80.4787 250.133 78.7637 250.133 78.7637L249.49 80.3715C249.49 80.3715 251.741 78.6565 254.206 78.6565L253.348 79.514C256.135 79.6212 257.314 80.6931 257.314 80.6931C257.314 80.6931 250.776 78.7637 244.666 83.3728ZM259.137 87.5531C260.53 87.4459 260.101 90.6616 260.101 90.6616H259.244C259.244 90.6616 257.743 87.6603 259.137 87.5531ZM252.813 91.0903C251.848 91.1975 250.776 91.7335 250.883 91.3047C251.312 89.5897 255.278 90.0184 255.171 91.5191C255.063 93.0197 254.206 90.876 252.813 91.0903ZM255.063 92.3766C255.171 92.591 254.313 92.3766 253.67 92.4838C253.027 92.591 252.384 92.9125 252.384 92.6982C252.384 92.4838 254.849 91.5191 255.063 92.3766ZM257.207 92.6982C257.529 92.055 258.815 92.6982 258.494 93.3413C258.172 93.9844 256.886 93.3413 257.207 92.6982ZM259.887 92.9125C259.244 92.9125 259.244 91.5191 259.887 91.5191C260.53 91.5191 260.53 93.0197 259.887 93.0197V92.9125ZM240.593 98.5935C240.915 98.9151 239.95 99.5582 239.2 99.0223C238.449 98.4863 240.057 95.9138 238.128 95.2707C236.198 94.6275 236.734 97.0929 236.198 96.7713C235.662 96.4497 236.949 93.0197 239.2 94.4132C241.451 95.8066 238.557 97.9504 239.843 98.5935C241.129 99.2366 240.379 98.3791 240.593 98.5935Z" fill="#1E1E1E"/>
<path d="M180.038 125.501H182.45L184.771 129.886H184.871L187.192 125.501H189.604L185.89 132.084V135.683H183.752V132.084L180.038 125.501ZM192.59 135.832C191.818 135.832 191.15 135.668 190.587 135.34C190.027 135.009 189.594 134.548 189.289 133.958C188.984 133.365 188.832 132.677 188.832 131.895C188.832 131.106 188.984 130.417 189.289 129.827C189.594 129.233 190.027 128.773 190.587 128.444C191.15 128.113 191.818 127.947 192.59 127.947C193.363 127.947 194.029 128.113 194.589 128.444C195.152 128.773 195.587 129.233 195.892 129.827C196.196 130.417 196.349 131.106 196.349 131.895C196.349 132.677 196.196 133.365 195.892 133.958C195.587 134.548 195.152 135.009 194.589 135.34C194.029 135.668 193.363 135.832 192.59 135.832ZM192.6 134.192C192.952 134.192 193.245 134.092 193.48 133.893C193.716 133.691 193.893 133.416 194.012 133.068C194.135 132.72 194.196 132.324 194.196 131.88C194.196 131.436 194.135 131.04 194.012 130.692C193.893 130.344 193.716 130.069 193.48 129.866C193.245 129.664 192.952 129.563 192.6 129.563C192.246 129.563 191.947 129.664 191.705 129.866C191.467 130.069 191.286 130.344 191.164 130.692C191.044 131.04 190.985 131.436 190.985 131.88C190.985 132.324 191.044 132.72 191.164 133.068C191.286 133.416 191.467 133.691 191.705 133.893C191.947 134.092 192.246 134.192 192.6 134.192ZM202.623 132.432V128.047H204.741V135.683H202.708V134.296H202.628C202.456 134.743 202.169 135.103 201.768 135.375C201.37 135.647 200.885 135.783 200.311 135.783C199.801 135.783 199.352 135.667 198.964 135.435C198.576 135.203 198.273 134.873 198.054 134.445C197.839 134.018 197.729 133.506 197.726 132.909V128.047H199.844V132.531C199.847 132.982 199.968 133.338 200.207 133.6C200.445 133.862 200.765 133.993 201.166 133.993C201.422 133.993 201.66 133.935 201.882 133.819C202.104 133.699 202.283 133.524 202.419 133.292C202.558 133.06 202.626 132.773 202.623 132.432ZM206.435 135.683V128.047H208.488V129.379H208.568C208.707 128.905 208.941 128.547 209.269 128.305C209.597 128.06 209.975 127.937 210.402 127.937C210.508 127.937 210.623 127.944 210.745 127.957C210.868 127.971 210.976 127.989 211.069 128.012V129.891C210.969 129.861 210.832 129.835 210.656 129.812C210.48 129.788 210.319 129.777 210.174 129.777C209.862 129.777 209.584 129.845 209.338 129.981C209.096 130.113 208.904 130.299 208.762 130.538C208.623 130.776 208.553 131.051 208.553 131.363V135.683H206.435ZM215.444 135.683V125.501H222.304V127.276H217.596V129.702H221.951V131.477H217.596V133.908H222.324V135.683H215.444ZM223.976 135.683V128.047H225.994V129.394H226.084C226.243 128.947 226.508 128.594 226.879 128.335C227.251 128.077 227.695 127.947 228.212 127.947C228.735 127.947 229.181 128.078 229.549 128.34C229.917 128.599 230.162 128.95 230.285 129.394H230.365C230.52 128.957 230.802 128.607 231.21 128.345C231.621 128.08 232.106 127.947 232.666 127.947C233.379 127.947 233.957 128.174 234.401 128.628C234.849 129.079 235.073 129.719 235.073 130.547V135.683H232.96V130.965C232.96 130.541 232.847 130.223 232.622 130.011C232.396 129.798 232.115 129.692 231.776 129.692C231.392 129.692 231.092 129.815 230.877 130.06C230.661 130.302 230.553 130.622 230.553 131.02V135.683H228.5V130.92C228.5 130.546 228.392 130.247 228.177 130.025C227.965 129.803 227.685 129.692 227.337 129.692C227.102 129.692 226.889 129.752 226.7 129.871C226.515 129.987 226.367 130.151 226.258 130.364C226.149 130.572 226.094 130.818 226.094 131.099V135.683H223.976ZM238.923 135.827C238.436 135.827 238.002 135.743 237.621 135.574C237.239 135.401 236.938 135.148 236.716 134.813C236.497 134.475 236.388 134.054 236.388 133.55C236.388 133.126 236.465 132.77 236.621 132.481C236.777 132.193 236.989 131.961 237.258 131.785C237.526 131.61 237.831 131.477 238.172 131.388C238.517 131.298 238.878 131.235 239.256 131.199C239.7 131.152 240.058 131.109 240.33 131.069C240.602 131.026 240.799 130.963 240.922 130.881C241.044 130.798 241.106 130.675 241.106 130.513V130.483C241.106 130.168 241.006 129.924 240.807 129.752C240.612 129.58 240.333 129.493 239.972 129.493C239.591 129.493 239.288 129.578 239.062 129.747C238.837 129.913 238.688 130.122 238.615 130.373L236.656 130.214C236.756 129.75 236.951 129.349 237.243 129.011C237.534 128.67 237.911 128.408 238.371 128.226C238.835 128.04 239.372 127.947 239.982 127.947C240.406 127.947 240.812 127.997 241.2 128.096C241.591 128.196 241.938 128.35 242.239 128.559C242.544 128.768 242.784 129.036 242.96 129.364C243.136 129.689 243.224 130.078 243.224 130.533V135.683H241.215V134.624H241.155C241.033 134.863 240.869 135.073 240.663 135.256C240.458 135.435 240.211 135.575 239.922 135.678C239.634 135.778 239.301 135.827 238.923 135.827ZM239.53 134.366C239.841 134.366 240.116 134.304 240.355 134.182C240.594 134.056 240.781 133.887 240.917 133.675C241.053 133.462 241.121 133.222 241.121 132.954V132.143C241.054 132.186 240.963 132.226 240.847 132.263C240.734 132.296 240.607 132.327 240.464 132.357C240.322 132.384 240.179 132.408 240.037 132.432C239.894 132.452 239.765 132.47 239.649 132.486C239.4 132.523 239.183 132.581 238.998 132.66C238.812 132.74 238.668 132.848 238.565 132.984C238.462 133.116 238.411 133.282 238.411 133.481C238.411 133.769 238.515 133.989 238.724 134.142C238.936 134.291 239.205 134.366 239.53 134.366ZM244.867 135.683V128.047H246.985V135.683H244.867ZM245.931 127.062C245.616 127.062 245.346 126.958 245.12 126.749C244.898 126.537 244.787 126.283 244.787 125.989C244.787 125.697 244.898 125.447 245.12 125.238C245.346 125.026 245.616 124.92 245.931 124.92C246.245 124.92 246.514 125.026 246.736 125.238C246.961 125.447 247.074 125.697 247.074 125.989C247.074 126.283 246.961 126.537 246.736 126.749C246.514 126.958 246.245 127.062 245.931 127.062ZM250.799 125.501V135.683H248.681V125.501H250.799ZM255.388 127.276V125.501H263.75V127.276H260.633V135.683H258.505V127.276H255.388ZM267.46 135.832C266.675 135.832 265.998 135.673 265.432 135.355C264.868 135.033 264.434 134.579 264.129 133.993C263.824 133.403 263.672 132.705 263.672 131.9C263.672 131.114 263.824 130.425 264.129 129.832C264.434 129.238 264.863 128.776 265.417 128.444C265.974 128.113 266.626 127.947 267.376 127.947C267.879 127.947 268.348 128.029 268.782 128.191C269.22 128.35 269.601 128.59 269.926 128.912C270.254 129.233 270.509 129.638 270.692 130.125C270.874 130.609 270.965 131.176 270.965 131.825V132.407H264.517V131.094H268.971C268.971 130.789 268.905 130.519 268.773 130.284C268.64 130.049 268.456 129.865 268.221 129.732C267.989 129.596 267.719 129.528 267.41 129.528C267.089 129.528 266.804 129.603 266.555 129.752C266.31 129.898 266.118 130.095 265.979 130.344C265.839 130.589 265.768 130.862 265.765 131.164V132.412C265.765 132.79 265.834 133.116 265.974 133.391C266.116 133.666 266.317 133.878 266.575 134.028C266.834 134.177 267.14 134.251 267.495 134.251C267.73 134.251 267.946 134.218 268.141 134.152C268.337 134.086 268.504 133.986 268.643 133.854C268.782 133.721 268.889 133.559 268.961 133.366L270.92 133.496C270.821 133.966 270.617 134.377 270.309 134.729C270.004 135.077 269.609 135.348 269.126 135.544C268.645 135.736 268.09 135.832 267.46 135.832ZM272.347 135.683V128.047H274.366V129.394H274.455C274.614 128.947 274.879 128.594 275.251 128.335C275.622 128.077 276.066 127.947 276.583 127.947C277.107 127.947 277.552 128.078 277.92 128.34C278.288 128.599 278.533 128.95 278.656 129.394H278.736C278.891 128.957 279.173 128.607 279.581 128.345C279.992 128.08 280.477 127.947 281.037 127.947C281.75 127.947 282.328 128.174 282.773 128.628C283.22 129.079 283.444 129.719 283.444 130.547V135.683H281.331V130.965C281.331 130.541 281.218 130.223 280.993 130.011C280.767 129.798 280.486 129.692 280.148 129.692C279.763 129.692 279.463 129.815 279.248 130.06C279.032 130.302 278.925 130.622 278.925 131.02V135.683H276.871V130.92C276.871 130.546 276.764 130.247 276.548 130.025C276.336 129.803 276.056 129.692 275.708 129.692C275.473 129.692 275.26 129.752 275.072 129.871C274.886 129.987 274.738 130.151 274.629 130.364C274.52 130.572 274.465 130.818 274.465 131.099V135.683H272.347ZM285.117 138.547V128.047H287.205V129.329H287.299C287.392 129.124 287.526 128.915 287.702 128.703C287.881 128.488 288.113 128.309 288.398 128.166C288.686 128.02 289.044 127.947 289.472 127.947C290.029 127.947 290.542 128.093 291.013 128.385C291.484 128.673 291.86 129.109 292.142 129.692C292.423 130.272 292.564 131 292.564 131.875C292.564 132.727 292.427 133.446 292.151 134.033C291.88 134.616 291.508 135.058 291.038 135.36C290.57 135.658 290.047 135.807 289.467 135.807C289.056 135.807 288.706 135.739 288.418 135.604C288.133 135.468 287.899 135.297 287.717 135.091C287.535 134.883 287.395 134.672 287.299 134.46H287.235V138.547H285.117ZM287.19 131.865C287.19 132.319 287.253 132.715 287.379 133.053C287.505 133.391 287.687 133.655 287.926 133.844C288.164 134.029 288.454 134.122 288.796 134.122C289.14 134.122 289.432 134.028 289.671 133.839C289.909 133.646 290.09 133.381 290.213 133.043C290.338 132.702 290.401 132.309 290.401 131.865C290.401 131.424 290.34 131.036 290.218 130.702C290.095 130.367 289.914 130.105 289.676 129.916C289.437 129.727 289.144 129.633 288.796 129.633C288.451 129.633 288.159 129.724 287.921 129.906C287.685 130.088 287.505 130.347 287.379 130.682C287.253 131.016 287.19 131.411 287.19 131.865ZM296.094 125.501V135.683H293.976V125.501H296.094ZM299.968 135.827C299.481 135.827 299.047 135.743 298.665 135.574C298.284 135.401 297.983 135.148 297.761 134.813C297.542 134.475 297.433 134.054 297.433 133.55C297.433 133.126 297.51 132.77 297.666 132.481C297.822 132.193 298.034 131.961 298.303 131.785C298.571 131.61 298.876 131.477 299.217 131.388C299.562 131.298 299.923 131.235 300.301 131.199C300.745 131.152 301.103 131.109 301.375 131.069C301.647 131.026 301.844 130.963 301.967 130.881C302.089 130.798 302.151 130.675 302.151 130.513V130.483C302.151 130.168 302.051 129.924 301.852 129.752C301.657 129.58 301.378 129.493 301.017 129.493C300.636 129.493 300.333 129.578 300.107 129.747C299.882 129.913 299.733 130.122 299.66 130.373L297.701 130.214C297.8 129.75 297.996 129.349 298.288 129.011C298.579 128.67 298.955 128.408 299.416 128.226C299.88 128.04 300.417 127.947 301.027 127.947C301.451 127.947 301.857 127.997 302.245 128.096C302.636 128.196 302.982 128.35 303.284 128.559C303.589 128.768 303.829 129.036 304.005 129.364C304.181 129.689 304.268 130.078 304.268 130.533V135.683H302.26V134.624H302.2C302.078 134.863 301.914 135.073 301.708 135.256C301.503 135.435 301.256 135.575 300.967 135.678C300.679 135.778 300.346 135.827 299.968 135.827ZM300.575 134.366C300.886 134.366 301.161 134.304 301.4 134.182C301.638 134.056 301.826 133.887 301.962 133.675C302.098 133.462 302.165 133.222 302.165 132.954V132.143C302.099 132.186 302.008 132.226 301.892 132.263C301.779 132.296 301.652 132.327 301.509 132.357C301.367 132.384 301.224 132.408 301.082 132.432C300.939 132.452 300.81 132.47 300.694 132.486C300.445 132.523 300.228 132.581 300.043 132.66C299.857 132.74 299.713 132.848 299.61 132.984C299.507 133.116 299.456 133.282 299.456 133.481C299.456 133.769 299.56 133.989 299.769 134.142C299.981 134.291 300.25 134.366 300.575 134.366ZM309.973 128.047V129.638H305.375V128.047H309.973ZM306.419 126.217H308.537V133.337C308.537 133.532 308.566 133.685 308.626 133.794C308.686 133.9 308.769 133.975 308.875 134.018C308.984 134.061 309.11 134.082 309.252 134.082C309.352 134.082 309.451 134.074 309.551 134.057C309.65 134.038 309.726 134.023 309.779 134.013L310.113 135.589C310.007 135.622 309.857 135.66 309.665 135.703C309.473 135.749 309.239 135.778 308.964 135.788C308.454 135.807 308.006 135.739 307.622 135.584C307.241 135.428 306.944 135.186 306.732 134.858C306.52 134.53 306.415 134.115 306.419 133.615V126.217ZM314.751 135.832C313.966 135.832 313.289 135.673 312.723 135.355C312.159 135.033 311.725 134.579 311.42 133.993C311.115 133.403 310.963 132.705 310.963 131.9C310.963 131.114 311.115 130.425 311.42 129.832C311.725 129.238 312.154 128.776 312.708 128.444C313.265 128.113 313.917 127.947 314.667 127.947C315.17 127.947 315.639 128.029 316.074 128.191C316.511 128.35 316.892 128.59 317.217 128.912C317.545 129.233 317.8 129.638 317.983 130.125C318.165 130.609 318.256 131.176 318.256 131.825V132.407H311.808V131.094H316.262C316.262 130.789 316.196 130.519 316.064 130.284C315.931 130.049 315.747 129.865 315.512 129.732C315.28 129.596 315.01 129.528 314.701 129.528C314.38 129.528 314.095 129.603 313.846 129.752C313.601 129.898 313.409 130.095 313.27 130.344C313.13 130.589 313.059 130.862 313.056 131.164V132.412C313.056 132.79 313.125 133.116 313.265 133.391C313.407 133.666 313.608 133.878 313.866 134.028C314.125 134.177 314.431 134.251 314.786 134.251C315.021 134.251 315.237 134.218 315.432 134.152C315.628 134.086 315.795 133.986 315.934 133.854C316.074 133.721 316.18 133.559 316.252 133.366L318.211 133.496C318.112 133.966 317.908 134.377 317.6 134.729C317.295 135.077 316.9 135.348 316.417 135.544C315.936 135.736 315.381 135.832 314.751 135.832Z" fill="#486581"/>
<rect x="102.25" y="148.683" width="287.438" height="4.97338" rx="2.48669" fill="#D9E2EC"/>
<rect x="102.25" y="157.656" width="282" height="4.97338" rx="2.48669" fill="#D9E2EC"/>
<rect x="102.25" y="166.63" width="205.258" height="4.97338" rx="2.48669" fill="#D9E2EC"/>
<rect x="105.75" y="179.603" width="140" height="55.5293" rx="8" fill="#D9E2EC"/>
<rect x="253.75" y="179.603" width="140" height="55.5293" rx="8" fill="#D9E2EC"/>
<rect x="192.75" y="243.132" width="114" height="34" rx="17" fill="#2680C2"/>
</g>
<rect x="86.8717" y="56.4893" width="325.757" height="236.022" rx="9.3251" stroke="#2680C2" stroke-width="1.24335"/>
</g>
<defs>
<filter id="filter0_dd_1232_73914" x="73.6611" y="55.8677" width="352.178" height="262.442" filterUnits="userSpaceOnUse" color-interpolation-filters="sRGB">
<feFlood flood-opacity="0" result="BackgroundImageFix"/>
<feColorMatrix in="SourceAlpha" type="matrix" values="0 0 0 0 0 0 0 0 0 0 0 0 0 0 0 0 0 0 127 0" result="hardAlpha"/>
<feMorphology radius="2.09815" operator="erode" in="SourceAlpha" result="effect1_dropShadow_1232_73914"/>
<feOffset dy="4.19629"/>
<feGaussianBlur stdDeviation="3.14722"/>
<feComposite in2="hardAlpha" operator="out"/>
<feColorMatrix type="matrix" values="0 0 0 0 0 0 0 0 0 0 0 0 0 0 0 0 0 0 0.03 0"/>
<feBlend mode="normal" in2="BackgroundImageFix" result="effect1_dropShadow_1232_73914"/>
<feColorMatrix in="SourceAlpha" type="matrix" values="0 0 0 0 0 0 0 0 0 0 0 0 0 0 0 0 0 0 127 0" result="hardAlpha"/>
<feMorphology radius="4.19629" operator="erode" in="SourceAlpha" result="effect2_dropShadow_1232_73914"/>
<feOffset dy="12.5889"/>
<feGaussianBlur stdDeviation="8.39259"/>
<feComposite in2="hardAlpha" operator="out"/>
<feColorMatrix type="matrix" values="0 0 0 0 0 0 0 0 0 0 0 0 0 0 0 0 0 0 0.08 0"/>
<feBlend mode="normal" in2="effect1_dropShadow_1232_73914" result="effect2_dropShadow_1232_73914"/>
<feBlend mode="normal" in="SourceGraphic" in2="effect2_dropShadow_1232_73914" result="shape"/>
</filter>
<clipPath id="clip0_1232_73914">
<rect x="86.25" y="55.8677" width="327" height="237.265" rx="9.94677" fill="white"/>
</clipPath>
</defs>
</svg>
