<svg width="500" height="348" viewBox="0 0 500 348" fill="none" xmlns="http://www.w3.org/2000/svg">
<g filter="url(#filter0_dd_1232_61402)">
<rect x="93.1614" y="50.4443" width="327" height="148.544" rx="9.94677" fill="white"/>
<rect x="93.7831" y="51.066" width="325.757" height="147.3" rx="9.3251" stroke="#2680C2" stroke-width="1.24335"/>
<path d="M110.046 82.4443V72.2625H114.063C114.836 72.2625 115.494 72.41 116.037 72.705C116.581 72.9967 116.995 73.4027 117.28 73.923C117.568 74.4401 117.713 75.0367 117.713 75.7128C117.713 76.3889 117.567 76.9855 117.275 77.5026C116.983 78.0196 116.561 78.4223 116.007 78.7107C115.457 78.999 114.791 79.1432 114.009 79.1432H111.448V77.4181H113.661C114.075 77.4181 114.416 77.3468 114.685 77.2043C114.957 77.0584 115.159 76.8579 115.291 76.6027C115.427 76.3442 115.495 76.0476 115.495 75.7128C115.495 75.3747 115.427 75.0798 115.291 74.8279C115.159 74.5726 114.957 74.3754 114.685 74.2362C114.413 74.0937 114.068 74.0225 113.651 74.0225H112.199V82.4443H110.046ZM119.071 82.4443V74.808H121.189V82.4443H119.071ZM120.135 73.8236C119.82 73.8236 119.55 73.7192 119.325 73.5104C119.103 73.2983 118.992 73.0447 118.992 72.7497C118.992 72.4581 119.103 72.2078 119.325 71.999C119.55 71.7869 119.82 71.6808 120.135 71.6808C120.45 71.6808 120.718 71.7869 120.94 71.999C121.166 72.2078 121.278 72.4581 121.278 72.7497C121.278 73.0447 121.166 73.2983 120.94 73.5104C120.718 73.7192 120.45 73.8236 120.135 73.8236ZM122.886 85.308V74.808H124.974V76.0906H125.068C125.161 75.8852 125.295 75.6763 125.471 75.4642C125.65 75.2488 125.882 75.0698 126.167 74.9273C126.455 74.7815 126.813 74.7085 127.241 74.7085C127.797 74.7085 128.311 74.8544 128.782 75.146C129.252 75.4344 129.629 75.8702 129.91 76.4536C130.192 77.0336 130.333 77.7611 130.333 78.6361C130.333 79.4879 130.195 80.2071 129.92 80.7938C129.649 81.3771 129.277 81.8196 128.807 82.1212C128.339 82.4195 127.816 82.5686 127.236 82.5686C126.825 82.5686 126.475 82.5007 126.187 82.3648C125.902 82.2289 125.668 82.0582 125.486 81.8527C125.303 81.6439 125.164 81.4334 125.068 81.2213H125.003V85.308H122.886ZM124.959 78.6262C124.959 79.0802 125.022 79.4763 125.148 79.8144C125.274 80.1524 125.456 80.4159 125.694 80.6048C125.933 80.7905 126.223 80.8833 126.564 80.8833C126.909 80.8833 127.201 80.7888 127.439 80.5999C127.678 80.4076 127.859 80.1425 127.981 79.8044C128.107 79.463 128.17 79.0703 128.17 78.6262C128.17 78.1853 128.109 77.7976 127.986 77.4628C127.864 77.128 127.683 76.8662 127.444 76.6773C127.206 76.4884 126.913 76.3939 126.564 76.3939C126.22 76.3939 125.928 76.4851 125.689 76.6673C125.454 76.8496 125.274 77.1082 125.148 77.4429C125.022 77.7777 124.959 78.1721 124.959 78.6262ZM135.225 82.5935C134.439 82.5935 133.763 82.4344 133.197 82.1162C132.633 81.7947 132.199 81.3406 131.894 80.754C131.589 80.164 131.437 79.4664 131.437 78.661C131.437 77.8754 131.589 77.186 131.894 76.5928C132.199 75.9995 132.628 75.5371 133.182 75.2057C133.738 74.8743 134.391 74.7085 135.14 74.7085C135.644 74.7085 136.113 74.7897 136.547 74.9521C136.985 75.1112 137.366 75.3515 137.691 75.673C138.019 75.9945 138.274 76.3989 138.457 76.8861C138.639 77.37 138.73 77.9368 138.73 78.5864V79.1681H132.282V77.8556H136.736C136.736 77.5506 136.67 77.2805 136.538 77.0452C136.405 76.8099 136.221 76.6259 135.986 76.4933C135.754 76.3575 135.484 76.2895 135.175 76.2895C134.854 76.2895 134.569 76.3641 134.32 76.5132C134.075 76.6591 133.883 76.8563 133.743 77.1048C133.604 77.3501 133.533 77.6235 133.53 77.9252V79.173C133.53 79.5509 133.599 79.8773 133.738 80.1524C133.881 80.4275 134.082 80.6396 134.34 80.7888C134.599 80.9379 134.905 81.0125 135.26 81.0125C135.495 81.0125 135.711 80.9794 135.906 80.9131C136.102 80.8468 136.269 80.7474 136.408 80.6148C136.547 80.4822 136.654 80.3198 136.726 80.1276L138.685 80.2568C138.586 80.7275 138.382 81.1385 138.074 81.4898C137.769 81.8378 137.374 82.1096 136.89 82.3051C136.41 82.4974 135.855 82.5935 135.225 82.5935ZM142.23 72.2625V82.4443H140.112V72.2625H142.23ZM143.927 82.4443V74.808H146.044V82.4443H143.927ZM144.99 73.8236C144.676 73.8236 144.405 73.7192 144.18 73.5104C143.958 73.2983 143.847 73.0447 143.847 72.7497C143.847 72.4581 143.958 72.2078 144.18 71.999C144.405 71.7869 144.676 71.6808 144.99 71.6808C145.305 71.6808 145.574 71.7869 145.796 71.999C146.021 72.2078 146.134 72.4581 146.134 72.7497C146.134 73.0447 146.021 73.2983 145.796 73.5104C145.574 73.7192 145.305 73.8236 144.99 73.8236ZM149.859 78.0296V82.4443H147.741V74.808H149.759V76.1553H149.849C150.018 75.7111 150.301 75.3598 150.699 75.1013C151.097 74.8395 151.579 74.7085 152.146 74.7085C152.676 74.7085 153.138 74.8245 153.533 75.0566C153.927 75.2886 154.234 75.62 154.453 76.0509C154.671 76.4784 154.781 76.9888 154.781 77.5821V82.4443H152.663V77.96C152.666 77.4926 152.547 77.128 152.305 76.8662C152.063 76.6011 151.73 76.4685 151.306 76.4685C151.021 76.4685 150.769 76.5298 150.55 76.6524C150.334 76.7751 150.165 76.954 150.043 77.1894C149.924 77.4214 149.862 77.7014 149.859 78.0296ZM159.93 82.5935C159.145 82.5935 158.468 82.4344 157.902 82.1162C157.338 81.7947 156.904 81.3406 156.599 80.754C156.294 80.164 156.142 79.4664 156.142 78.661C156.142 77.8754 156.294 77.186 156.599 76.5928C156.904 75.9995 157.333 75.5371 157.887 75.2057C158.444 74.8743 159.097 74.7085 159.846 74.7085C160.349 74.7085 160.818 74.7897 161.253 74.9521C161.69 75.1112 162.071 75.3515 162.396 75.673C162.724 75.9945 162.979 76.3989 163.162 76.8861C163.344 77.37 163.435 77.9368 163.435 78.5864V79.1681H156.987V77.8556H161.441C161.441 77.5506 161.375 77.2805 161.243 77.0452C161.11 76.8099 160.926 76.6259 160.691 76.4933C160.459 76.3575 160.189 76.2895 159.88 76.2895C159.559 76.2895 159.274 76.3641 159.025 76.5132C158.78 76.6591 158.588 76.8563 158.449 77.1048C158.309 77.3501 158.238 77.6235 158.235 77.9252V79.173C158.235 79.5509 158.304 79.8773 158.444 80.1524C158.586 80.4275 158.787 80.6396 159.045 80.7888C159.304 80.9379 159.61 81.0125 159.965 81.0125C160.2 81.0125 160.416 80.9794 160.611 80.9131C160.807 80.8468 160.974 80.7474 161.113 80.6148C161.253 80.4822 161.359 80.3198 161.432 80.1276L163.39 80.2568C163.291 80.7275 163.087 81.1385 162.779 81.4898C162.474 81.8378 162.079 82.1096 161.596 82.3051C161.115 82.4974 160.56 82.5935 159.93 82.5935ZM168.057 82.4443V74.808H170.111V76.1404H170.19C170.329 75.6664 170.563 75.3084 170.891 75.0665C171.219 74.8212 171.597 74.6986 172.025 74.6986C172.131 74.6986 172.245 74.7052 172.368 74.7185C172.49 74.7317 172.598 74.75 172.691 74.7732V76.6524C172.591 76.6226 172.454 76.5961 172.278 76.5729C172.103 76.5497 171.942 76.5381 171.796 76.5381C171.484 76.5381 171.206 76.606 170.961 76.7419C170.719 76.8745 170.527 77.0601 170.384 77.2987C170.245 77.5374 170.175 77.8125 170.175 78.124V82.4443H168.057ZM176.911 82.5935C176.125 82.5935 175.449 82.4344 174.882 82.1162C174.319 81.7947 173.885 81.3406 173.58 80.754C173.275 80.164 173.122 79.4664 173.122 78.661C173.122 77.8754 173.275 77.186 173.58 76.5928C173.885 75.9995 174.314 75.5371 174.867 75.2057C175.424 74.8743 176.077 74.7085 176.826 74.7085C177.33 74.7085 177.799 74.7897 178.233 74.9521C178.67 75.1112 179.052 75.3515 179.376 75.673C179.705 75.9945 179.96 76.3989 180.142 76.8861C180.324 77.37 180.416 77.9368 180.416 78.5864V79.1681H173.967V77.8556H178.422C178.422 77.5506 178.356 77.2805 178.223 77.0452C178.09 76.8099 177.907 76.6259 177.671 76.4933C177.439 76.3575 177.169 76.2895 176.861 76.2895C176.539 76.2895 176.254 76.3641 176.006 76.5132C175.76 76.6591 175.568 76.8563 175.429 77.1048C175.29 77.3501 175.219 77.6235 175.215 77.9252V79.173C175.215 79.5509 175.285 79.8773 175.424 80.1524C175.567 80.4275 175.767 80.6396 176.026 80.7888C176.284 80.9379 176.591 81.0125 176.945 81.0125C177.181 81.0125 177.396 80.9794 177.592 80.9131C177.787 80.8468 177.955 80.7474 178.094 80.6148C178.233 80.4822 178.339 80.3198 178.412 80.1276L180.371 80.2568C180.271 80.7275 180.068 81.1385 179.759 81.4898C179.454 81.8378 179.06 82.1096 178.576 82.3051C178.095 82.4974 177.54 82.5935 176.911 82.5935ZM181.798 85.308V74.808H183.886V76.0906H183.98C184.073 75.8852 184.207 75.6763 184.383 75.4642C184.562 75.2488 184.794 75.0698 185.079 74.9273C185.367 74.7815 185.725 74.7085 186.153 74.7085C186.71 74.7085 187.223 74.8544 187.694 75.146C188.165 75.4344 188.541 75.8702 188.822 76.4536C189.104 77.0336 189.245 77.7611 189.245 78.6361C189.245 79.4879 189.108 80.2071 188.832 80.7938C188.561 81.3771 188.189 81.8196 187.719 82.1212C187.251 82.4195 186.728 82.5686 186.148 82.5686C185.737 82.5686 185.387 82.5007 185.099 82.3648C184.814 82.2289 184.58 82.0582 184.398 81.8527C184.215 81.6439 184.076 81.4334 183.98 81.2213H183.916V85.308H181.798ZM183.871 78.6262C183.871 79.0802 183.934 79.4763 184.06 79.8144C184.186 80.1524 184.368 80.4159 184.607 80.6048C184.845 80.7905 185.135 80.8833 185.477 80.8833C185.821 80.8833 186.113 80.7888 186.352 80.5999C186.59 80.4076 186.771 80.1425 186.894 79.8044C187.019 79.463 187.082 79.0703 187.082 78.6262C187.082 78.1853 187.021 77.7976 186.898 77.4628C186.776 77.128 186.595 76.8662 186.357 76.6773C186.118 76.4884 185.825 76.3939 185.477 76.3939C185.132 76.3939 184.84 76.4851 184.602 76.6673C184.366 76.8496 184.186 77.1082 184.06 77.4429C183.934 77.7777 183.871 78.1721 183.871 78.6262ZM194.107 82.5935C193.335 82.5935 192.667 82.4294 192.104 82.1013C191.544 81.7699 191.111 81.3092 190.806 80.7192C190.501 80.1259 190.349 79.4382 190.349 78.656C190.349 77.8672 190.501 77.1778 190.806 76.5878C191.111 75.9945 191.544 75.5338 192.104 75.2057C192.667 74.8743 193.335 74.7085 194.107 74.7085C194.88 74.7085 195.546 74.8743 196.106 75.2057C196.669 75.5338 197.103 75.9945 197.408 76.5878C197.713 77.1778 197.866 77.8672 197.866 78.656C197.866 79.4382 197.713 80.1259 197.408 80.7192C197.103 81.3092 196.669 81.7699 196.106 82.1013C195.546 82.4294 194.88 82.5935 194.107 82.5935ZM194.117 80.9529C194.469 80.9529 194.762 80.8534 194.997 80.6546C195.233 80.4524 195.41 80.1773 195.529 79.8293C195.652 79.4813 195.713 79.0852 195.713 78.6411C195.713 78.1969 195.652 77.8009 195.529 77.4529C195.41 77.1048 195.233 76.8298 194.997 76.6276C194.762 76.4254 194.469 76.3243 194.117 76.3243C193.763 76.3243 193.464 76.4254 193.222 76.6276C192.984 76.8298 192.803 77.1048 192.68 77.4529C192.561 77.8009 192.501 78.1969 192.501 78.6411C192.501 79.0852 192.561 79.4813 192.68 79.8293C192.803 80.1773 192.984 80.4524 193.222 80.6546C193.464 80.8534 193.763 80.9529 194.117 80.9529ZM199.243 82.4443V74.808H201.296V76.1404H201.376C201.515 75.6664 201.749 75.3084 202.077 75.0665C202.405 74.8212 202.783 74.6986 203.21 74.6986C203.316 74.6986 203.431 74.7052 203.553 74.7185C203.676 74.7317 203.784 74.75 203.876 74.7732V76.6524C203.777 76.6226 203.639 76.5961 203.464 76.5729C203.288 76.5497 203.127 76.5381 202.982 76.5381C202.67 76.5381 202.392 76.606 202.146 76.7419C201.904 76.8745 201.712 77.0601 201.57 77.2987C201.43 77.5374 201.361 77.8125 201.361 78.124V82.4443H199.243ZM209.416 74.808V76.3989H204.817V74.808H209.416ZM205.861 72.9784H207.979V80.0977C207.979 80.2933 208.009 80.4458 208.069 80.5551C208.128 80.6612 208.211 80.7358 208.317 80.7789C208.427 80.8219 208.553 80.8435 208.695 80.8435C208.795 80.8435 208.894 80.8352 208.993 80.8186C209.093 80.7987 209.169 80.7838 209.222 80.7739L209.555 82.3499C209.449 82.383 209.3 82.4211 209.108 82.4642C208.916 82.5106 208.682 82.5388 208.407 82.5487C207.896 82.5686 207.449 82.5007 207.064 82.3449C206.683 82.1891 206.387 81.9472 206.175 81.6191C205.962 81.2909 205.858 80.8766 205.861 80.3762V72.9784Z" fill="#486581"/>
<g filter="url(#filter1_d_1232_61402)">
<rect x="109.161" y="103.444" width="295" height="79.5435" rx="3.47895" fill="#FAFCFE" shape-rendering="crispEdges"/>
<rect x="109.379" y="103.662" width="294.565" height="79.1087" rx="3.26152" stroke="#C9D4DE" stroke-width="0.434869" shape-rendering="crispEdges"/>
<rect x="118.068" y="108.788" width="15.9492" height="15.9492" rx="7.97461" fill="#E5EFD4"/>
<path d="M127.239 116.763C127.239 117.423 126.703 117.959 126.043 117.959C125.382 117.959 124.846 117.423 124.846 116.763C124.846 116.102 125.382 115.567 126.043 115.567C126.703 115.567 127.239 116.102 127.239 116.763Z" stroke="#7BB026" stroke-width="0.616458" stroke-linecap="round" stroke-linejoin="round"/>
<mask id="path-8-inside-1_1232_61402" fill="white">
<path d="M122.188 114.518L122.37 114.163C122.246 114.1 122.099 114.105 121.98 114.178C121.862 114.25 121.789 114.379 121.789 114.518H122.188ZM129.897 114.518H130.296C130.296 114.384 130.228 114.259 130.116 114.185L129.897 114.518ZM122.188 119.022H121.789C121.789 119.164 121.865 119.296 121.988 119.367L122.188 119.022ZM129.897 119.022L129.758 119.396C129.88 119.442 130.017 119.424 130.125 119.35C130.232 119.275 130.296 119.153 130.296 119.022H129.897ZM122.188 114.518C122.006 114.873 122.006 114.873 122.006 114.873C122.007 114.873 122.007 114.873 122.007 114.873C122.007 114.873 122.007 114.874 122.008 114.874C122.008 114.874 122.009 114.874 122.01 114.875C122.012 114.876 122.014 114.877 122.017 114.878C122.022 114.881 122.029 114.884 122.037 114.888C122.054 114.896 122.078 114.907 122.108 114.92C122.168 114.946 122.253 114.98 122.361 115.018C122.577 115.092 122.885 115.178 123.264 115.23C124.023 115.333 125.068 115.297 126.214 114.751L125.871 114.031C124.891 114.498 124.008 114.526 123.372 114.44C123.053 114.396 122.796 114.324 122.621 114.264C122.534 114.234 122.468 114.207 122.425 114.188C122.404 114.179 122.388 114.172 122.379 114.167C122.374 114.165 122.371 114.164 122.37 114.163C122.369 114.163 122.369 114.163 122.369 114.163C122.369 114.163 122.369 114.163 122.369 114.163C122.369 114.163 122.369 114.163 122.37 114.163C122.37 114.163 122.37 114.163 122.37 114.163C122.37 114.163 122.37 114.163 122.188 114.518ZM126.214 114.751C127.18 114.291 128.049 114.321 128.679 114.464C128.995 114.535 129.251 114.636 129.425 114.717C129.512 114.758 129.579 114.793 129.622 114.818C129.643 114.83 129.659 114.839 129.668 114.845C129.673 114.848 129.676 114.85 129.677 114.851C129.678 114.852 129.679 114.852 129.679 114.852C129.679 114.852 129.678 114.852 129.678 114.852C129.678 114.851 129.678 114.851 129.678 114.851C129.678 114.851 129.678 114.851 129.678 114.851C129.677 114.851 129.677 114.851 129.897 114.518C130.116 114.185 130.116 114.185 130.116 114.185C130.116 114.185 130.116 114.185 130.116 114.185C130.115 114.185 130.115 114.184 130.115 114.184C130.114 114.184 130.113 114.183 130.113 114.183C130.111 114.182 130.109 114.18 130.106 114.179C130.101 114.175 130.094 114.171 130.086 114.166C130.069 114.155 130.045 114.141 130.015 114.124C129.956 114.09 129.87 114.045 129.762 113.994C129.546 113.894 129.237 113.772 128.855 113.686C128.09 113.512 127.031 113.478 125.871 114.031L126.214 114.751ZM122.188 119.022C121.988 119.367 121.988 119.367 121.988 119.367C121.988 119.367 121.988 119.367 121.988 119.367C121.989 119.368 121.989 119.368 121.989 119.368C121.99 119.368 121.991 119.369 121.991 119.369C121.993 119.37 121.995 119.371 121.998 119.373C122.003 119.375 122.009 119.379 122.018 119.384C122.034 119.393 122.058 119.405 122.087 119.42C122.146 119.45 122.231 119.49 122.338 119.534C122.552 119.624 122.858 119.732 123.235 119.812C123.989 119.972 125.035 120.021 126.186 119.576L125.899 118.832C124.924 119.209 124.042 119.168 123.401 119.032C123.08 118.964 122.821 118.872 122.645 118.798C122.557 118.762 122.489 118.73 122.446 118.708C122.424 118.697 122.408 118.688 122.398 118.683C122.394 118.68 122.39 118.679 122.389 118.678C122.388 118.677 122.387 118.677 122.387 118.677C122.387 118.677 122.387 118.677 122.388 118.677C122.388 118.677 122.388 118.677 122.388 118.677C122.388 118.677 122.388 118.677 122.388 118.677C122.388 118.678 122.389 118.678 122.188 119.022ZM126.186 119.576C127.182 119.19 128.083 119.148 128.734 119.202C129.06 119.229 129.322 119.279 129.5 119.322C129.589 119.344 129.656 119.364 129.7 119.377C129.722 119.384 129.738 119.389 129.748 119.393C129.753 119.394 129.756 119.395 129.758 119.396C129.759 119.396 129.759 119.397 129.759 119.397C129.759 119.397 129.759 119.396 129.759 119.396C129.759 119.396 129.759 119.396 129.759 119.396C129.759 119.396 129.758 119.396 129.758 119.396C129.758 119.396 129.758 119.396 129.897 119.022C130.036 118.648 130.036 118.648 130.035 118.648C130.035 118.648 130.035 118.648 130.035 118.648C130.035 118.648 130.034 118.648 130.034 118.648C130.034 118.648 130.033 118.647 130.032 118.647C130.03 118.647 130.028 118.646 130.026 118.645C130.021 118.643 130.014 118.641 130.006 118.638C129.989 118.632 129.966 118.625 129.937 118.615C129.878 118.597 129.794 118.573 129.688 118.547C129.475 118.496 129.172 118.438 128.8 118.407C128.055 118.346 127.029 118.394 125.899 118.832L126.186 119.576ZM122.587 119.022V114.518H121.789V119.022H122.587ZM129.498 114.518V119.022H130.296V114.518H129.498Z"/>
</mask>
<path d="M122.188 114.518L122.37 114.163C122.246 114.1 122.099 114.105 121.98 114.178C121.862 114.25 121.789 114.379 121.789 114.518H122.188ZM129.897 114.518H130.296C130.296 114.384 130.228 114.259 130.116 114.185L129.897 114.518ZM122.188 119.022H121.789C121.789 119.164 121.865 119.296 121.988 119.367L122.188 119.022ZM129.897 119.022L129.758 119.396C129.88 119.442 130.017 119.424 130.125 119.35C130.232 119.275 130.296 119.153 130.296 119.022H129.897ZM122.188 114.518C122.006 114.873 122.006 114.873 122.006 114.873C122.007 114.873 122.007 114.873 122.007 114.873C122.007 114.873 122.007 114.874 122.008 114.874C122.008 114.874 122.009 114.874 122.01 114.875C122.012 114.876 122.014 114.877 122.017 114.878C122.022 114.881 122.029 114.884 122.037 114.888C122.054 114.896 122.078 114.907 122.108 114.92C122.168 114.946 122.253 114.98 122.361 115.018C122.577 115.092 122.885 115.178 123.264 115.23C124.023 115.333 125.068 115.297 126.214 114.751L125.871 114.031C124.891 114.498 124.008 114.526 123.372 114.44C123.053 114.396 122.796 114.324 122.621 114.264C122.534 114.234 122.468 114.207 122.425 114.188C122.404 114.179 122.388 114.172 122.379 114.167C122.374 114.165 122.371 114.164 122.37 114.163C122.369 114.163 122.369 114.163 122.369 114.163C122.369 114.163 122.369 114.163 122.369 114.163C122.369 114.163 122.369 114.163 122.37 114.163C122.37 114.163 122.37 114.163 122.37 114.163C122.37 114.163 122.37 114.163 122.188 114.518ZM126.214 114.751C127.18 114.291 128.049 114.321 128.679 114.464C128.995 114.535 129.251 114.636 129.425 114.717C129.512 114.758 129.579 114.793 129.622 114.818C129.643 114.83 129.659 114.839 129.668 114.845C129.673 114.848 129.676 114.85 129.677 114.851C129.678 114.852 129.679 114.852 129.679 114.852C129.679 114.852 129.678 114.852 129.678 114.852C129.678 114.851 129.678 114.851 129.678 114.851C129.678 114.851 129.678 114.851 129.678 114.851C129.677 114.851 129.677 114.851 129.897 114.518C130.116 114.185 130.116 114.185 130.116 114.185C130.116 114.185 130.116 114.185 130.116 114.185C130.115 114.185 130.115 114.184 130.115 114.184C130.114 114.184 130.113 114.183 130.113 114.183C130.111 114.182 130.109 114.18 130.106 114.179C130.101 114.175 130.094 114.171 130.086 114.166C130.069 114.155 130.045 114.141 130.015 114.124C129.956 114.09 129.87 114.045 129.762 113.994C129.546 113.894 129.237 113.772 128.855 113.686C128.09 113.512 127.031 113.478 125.871 114.031L126.214 114.751ZM122.188 119.022C121.988 119.367 121.988 119.367 121.988 119.367C121.988 119.367 121.988 119.367 121.988 119.367C121.989 119.368 121.989 119.368 121.989 119.368C121.99 119.368 121.991 119.369 121.991 119.369C121.993 119.37 121.995 119.371 121.998 119.373C122.003 119.375 122.009 119.379 122.018 119.384C122.034 119.393 122.058 119.405 122.087 119.42C122.146 119.45 122.231 119.49 122.338 119.534C122.552 119.624 122.858 119.732 123.235 119.812C123.989 119.972 125.035 120.021 126.186 119.576L125.899 118.832C124.924 119.209 124.042 119.168 123.401 119.032C123.08 118.964 122.821 118.872 122.645 118.798C122.557 118.762 122.489 118.73 122.446 118.708C122.424 118.697 122.408 118.688 122.398 118.683C122.394 118.68 122.39 118.679 122.389 118.678C122.388 118.677 122.387 118.677 122.387 118.677C122.387 118.677 122.387 118.677 122.388 118.677C122.388 118.677 122.388 118.677 122.388 118.677C122.388 118.677 122.388 118.677 122.388 118.677C122.388 118.678 122.389 118.678 122.188 119.022ZM126.186 119.576C127.182 119.19 128.083 119.148 128.734 119.202C129.06 119.229 129.322 119.279 129.5 119.322C129.589 119.344 129.656 119.364 129.7 119.377C129.722 119.384 129.738 119.389 129.748 119.393C129.753 119.394 129.756 119.395 129.758 119.396C129.759 119.396 129.759 119.397 129.759 119.397C129.759 119.397 129.759 119.396 129.759 119.396C129.759 119.396 129.759 119.396 129.759 119.396C129.759 119.396 129.758 119.396 129.758 119.396C129.758 119.396 129.758 119.396 129.897 119.022C130.036 118.648 130.036 118.648 130.035 118.648C130.035 118.648 130.035 118.648 130.035 118.648C130.035 118.648 130.034 118.648 130.034 118.648C130.034 118.648 130.033 118.647 130.032 118.647C130.03 118.647 130.028 118.646 130.026 118.645C130.021 118.643 130.014 118.641 130.006 118.638C129.989 118.632 129.966 118.625 129.937 118.615C129.878 118.597 129.794 118.573 129.688 118.547C129.475 118.496 129.172 118.438 128.8 118.407C128.055 118.346 127.029 118.394 125.899 118.832L126.186 119.576ZM122.587 119.022V114.518H121.789V119.022H122.587ZM129.498 114.518V119.022H130.296V114.518H129.498Z" fill="#7BB026" stroke="#7BB026" stroke-width="0.821944" mask="url(#path-8-inside-1_1232_61402)"/>
<path d="M143.722 119.763V113.945H144.426V119.138H147.131V119.763H143.722ZM148.222 119.763V113.945H151.733V114.57H148.926V116.536H151.551V117.161H148.926V119.138H151.779V119.763H148.222ZM153.242 119.763H152.503L154.639 113.945H155.367L157.503 119.763H156.764L155.026 114.865H154.98L153.242 119.763ZM153.514 117.49H156.492V118.115H153.514V117.49ZM160.205 119.763H158.409V113.945H160.284C160.849 113.945 161.332 114.061 161.733 114.294C162.135 114.525 162.442 114.858 162.656 115.291C162.87 115.723 162.977 116.24 162.977 116.842C162.977 117.449 162.869 117.97 162.654 118.408C162.438 118.843 162.123 119.179 161.71 119.414C161.297 119.646 160.796 119.763 160.205 119.763ZM159.114 119.138H160.159C160.64 119.138 161.039 119.045 161.355 118.86C161.672 118.674 161.907 118.41 162.063 118.067C162.218 117.724 162.296 117.316 162.296 116.842C162.296 116.373 162.219 115.968 162.065 115.629C161.912 115.289 161.683 115.027 161.378 114.845C161.073 114.662 160.693 114.57 160.239 114.57H159.114V119.138ZM167.341 115.399C167.307 115.111 167.169 114.888 166.926 114.729C166.684 114.57 166.386 114.49 166.034 114.49C165.777 114.49 165.551 114.532 165.358 114.615C165.167 114.699 165.017 114.813 164.909 114.959C164.803 115.105 164.75 115.271 164.75 115.456C164.75 115.611 164.787 115.745 164.861 115.857C164.937 115.967 165.033 116.058 165.151 116.132C165.268 116.204 165.391 116.264 165.52 116.311C165.649 116.357 165.767 116.394 165.875 116.422L166.466 116.581C166.618 116.621 166.786 116.676 166.972 116.746C167.159 116.816 167.338 116.912 167.509 117.033C167.681 117.152 167.823 117.306 167.935 117.493C168.047 117.681 168.102 117.911 168.102 118.183C168.102 118.498 168.02 118.782 167.855 119.036C167.692 119.289 167.454 119.491 167.139 119.641C166.827 119.79 166.447 119.865 166 119.865C165.583 119.865 165.223 119.798 164.918 119.664C164.615 119.529 164.376 119.342 164.202 119.101C164.029 118.86 163.932 118.581 163.909 118.263H164.636C164.655 118.483 164.729 118.664 164.858 118.808C164.989 118.95 165.154 119.057 165.352 119.127C165.553 119.195 165.769 119.229 166 119.229C166.269 119.229 166.511 119.185 166.725 119.098C166.939 119.009 167.108 118.886 167.233 118.729C167.358 118.57 167.421 118.384 167.421 118.172C167.421 117.979 167.367 117.822 167.259 117.7C167.151 117.579 167.009 117.481 166.832 117.405C166.656 117.329 166.466 117.263 166.261 117.206L165.546 117.002C165.091 116.871 164.731 116.684 164.466 116.442C164.201 116.199 164.068 115.882 164.068 115.49C164.068 115.164 164.156 114.88 164.332 114.638C164.511 114.394 164.749 114.204 165.048 114.07C165.35 113.933 165.686 113.865 166.057 113.865C166.432 113.865 166.765 113.932 167.057 114.067C167.349 114.199 167.58 114.381 167.75 114.612C167.922 114.843 168.013 115.106 168.023 115.399H167.341Z" fill="black"/>
<rect x="118.068" y="133.644" width="277.187" height="44" rx="4" fill="#D4E6F3"/>
<path d="M147.444 150.644V144.826H149.41C149.867 144.826 150.24 144.908 150.53 145.073C150.821 145.236 151.037 145.457 151.177 145.735C151.317 146.013 151.388 146.324 151.388 146.667C151.388 147.01 151.317 147.321 151.177 147.601C151.039 147.882 150.825 148.105 150.535 148.272C150.245 148.437 149.874 148.519 149.422 148.519H148.013V147.894H149.399C149.711 147.894 149.962 147.84 150.152 147.732C150.341 147.624 150.478 147.478 150.564 147.295C150.651 147.109 150.694 146.9 150.694 146.667C150.694 146.434 150.651 146.225 150.564 146.042C150.478 145.858 150.34 145.714 150.149 145.61C149.958 145.504 149.704 145.451 149.388 145.451H148.149V150.644H147.444ZM152.432 150.644V146.28H153.079V146.939H153.125C153.204 146.724 153.348 146.548 153.557 146.414C153.765 146.279 154 146.212 154.261 146.212C154.31 146.212 154.372 146.213 154.446 146.215C154.52 146.217 154.576 146.22 154.613 146.224V146.905C154.591 146.9 154.539 146.891 154.457 146.88C154.378 146.867 154.293 146.86 154.204 146.86C153.992 146.86 153.803 146.904 153.636 146.993C153.471 147.081 153.341 147.202 153.244 147.357C153.149 147.511 153.102 147.686 153.102 147.883V150.644H152.432ZM157.048 150.735C156.654 150.735 156.308 150.641 156.011 150.454C155.716 150.266 155.485 150.004 155.318 149.667C155.153 149.33 155.071 148.936 155.071 148.485C155.071 148.03 155.153 147.634 155.318 147.295C155.485 146.956 155.716 146.692 156.011 146.505C156.308 146.317 156.654 146.224 157.048 146.224C157.442 146.224 157.787 146.317 158.082 146.505C158.379 146.692 158.611 146.956 158.775 147.295C158.942 147.634 159.025 148.03 159.025 148.485C159.025 148.936 158.942 149.33 158.775 149.667C158.611 150.004 158.379 150.266 158.082 150.454C157.787 150.641 157.442 150.735 157.048 150.735ZM157.048 150.133C157.347 150.133 157.594 150.056 157.787 149.903C157.98 149.749 158.123 149.547 158.216 149.297C158.308 149.047 158.355 148.777 158.355 148.485C158.355 148.193 158.308 147.922 158.216 147.67C158.123 147.418 157.98 147.214 157.787 147.059C157.594 146.904 157.347 146.826 157.048 146.826C156.749 146.826 156.503 146.904 156.309 147.059C156.116 147.214 155.973 147.418 155.88 147.67C155.788 147.922 155.741 148.193 155.741 148.485C155.741 148.777 155.788 149.047 155.88 149.297C155.973 149.547 156.116 149.749 156.309 149.903C156.503 150.056 156.749 150.133 157.048 150.133ZM163.14 147.258L162.537 147.428C162.5 147.328 162.444 147.23 162.37 147.136C162.298 147.039 162.199 146.959 162.074 146.897C161.949 146.834 161.789 146.803 161.594 146.803C161.327 146.803 161.105 146.865 160.927 146.988C160.75 147.109 160.662 147.263 160.662 147.451C160.662 147.618 160.723 147.749 160.844 147.846C160.965 147.942 161.155 148.023 161.412 148.087L162.06 148.246C162.45 148.341 162.741 148.486 162.932 148.681C163.124 148.874 163.219 149.123 163.219 149.428C163.219 149.678 163.147 149.902 163.003 150.099C162.861 150.296 162.662 150.451 162.407 150.564C162.151 150.678 161.854 150.735 161.515 150.735C161.07 150.735 160.701 150.638 160.41 150.445C160.118 150.252 159.933 149.97 159.856 149.599L160.492 149.439C160.553 149.674 160.667 149.85 160.836 149.968C161.006 150.085 161.229 150.144 161.503 150.144C161.816 150.144 162.064 150.078 162.248 149.945C162.433 149.811 162.526 149.65 162.526 149.462C162.526 149.311 162.473 149.184 162.367 149.082C162.261 148.977 162.098 148.9 161.878 148.849L161.151 148.678C160.751 148.583 160.458 148.437 160.27 148.238C160.085 148.037 159.992 147.786 159.992 147.485C159.992 147.239 160.061 147.021 160.199 146.832C160.339 146.642 160.53 146.493 160.77 146.386C161.013 146.278 161.287 146.224 161.594 146.224C162.026 146.224 162.365 146.318 162.611 146.508C162.859 146.697 163.035 146.947 163.14 147.258ZM164.228 152.28V146.28H164.876V146.974H164.956C165.005 146.898 165.073 146.801 165.16 146.684C165.249 146.564 165.376 146.458 165.541 146.366C165.708 146.271 165.933 146.224 166.217 146.224C166.585 146.224 166.908 146.315 167.189 146.499C167.469 146.683 167.688 146.943 167.845 147.28C168.002 147.618 168.081 148.015 168.081 148.474C168.081 148.936 168.002 149.336 167.845 149.675C167.688 150.012 167.47 150.274 167.192 150.459C166.913 150.643 166.592 150.735 166.228 150.735C165.948 150.735 165.724 150.689 165.555 150.596C165.387 150.501 165.257 150.394 165.166 150.275C165.075 150.154 165.005 150.053 164.956 149.974H164.899V152.28H164.228ZM164.888 148.462C164.888 148.792 164.936 149.082 165.032 149.334C165.129 149.584 165.27 149.78 165.456 149.922C165.641 150.063 165.869 150.133 166.138 150.133C166.418 150.133 166.652 150.059 166.839 149.911C167.029 149.761 167.171 149.561 167.265 149.309C167.362 149.055 167.41 148.773 167.41 148.462C167.41 148.155 167.363 147.879 167.268 147.633C167.175 147.385 167.034 147.189 166.845 147.045C166.657 146.899 166.422 146.826 166.138 146.826C165.865 146.826 165.636 146.895 165.45 147.033C165.264 147.17 165.124 147.361 165.03 147.607C164.935 147.851 164.888 148.136 164.888 148.462ZM170.933 150.735C170.513 150.735 170.15 150.642 169.845 150.457C169.542 150.269 169.308 150.008 169.143 149.672C168.98 149.335 168.899 148.943 168.899 148.496C168.899 148.049 168.98 147.655 169.143 147.314C169.308 146.972 169.537 146.705 169.831 146.513C170.126 146.32 170.471 146.224 170.865 146.224C171.092 146.224 171.317 146.261 171.538 146.337C171.76 146.413 171.961 146.536 172.143 146.707C172.325 146.875 172.47 147.099 172.578 147.377C172.686 147.655 172.74 147.998 172.74 148.405V148.689H169.376V148.11H172.058C172.058 147.864 172.009 147.644 171.91 147.451C171.814 147.258 171.675 147.105 171.495 146.993C171.317 146.882 171.107 146.826 170.865 146.826C170.598 146.826 170.367 146.892 170.172 147.025C169.978 147.155 169.83 147.326 169.726 147.536C169.621 147.746 169.569 147.972 169.569 148.212V148.599C169.569 148.928 169.626 149.207 169.74 149.437C169.855 149.664 170.015 149.837 170.22 149.957C170.424 150.074 170.662 150.133 170.933 150.133C171.109 150.133 171.268 150.108 171.41 150.059C171.554 150.008 171.678 149.932 171.782 149.832C171.887 149.729 171.967 149.602 172.024 149.451L172.672 149.633C172.603 149.852 172.489 150.046 172.328 150.212C172.167 150.377 171.968 150.506 171.731 150.599C171.495 150.689 171.228 150.735 170.933 150.735ZM175.532 150.735C175.123 150.735 174.771 150.638 174.476 150.445C174.18 150.252 173.953 149.986 173.794 149.647C173.635 149.308 173.555 148.921 173.555 148.485C173.555 148.042 173.637 147.651 173.799 147.312C173.964 146.971 174.193 146.705 174.487 146.513C174.782 146.32 175.127 146.224 175.521 146.224C175.828 146.224 176.104 146.28 176.351 146.394C176.597 146.508 176.799 146.667 176.956 146.871C177.113 147.076 177.21 147.314 177.248 147.587H176.578C176.527 147.388 176.413 147.212 176.237 147.059C176.063 146.904 175.828 146.826 175.532 146.826C175.271 146.826 175.042 146.894 174.845 147.03C174.65 147.165 174.497 147.355 174.388 147.601C174.28 147.846 174.226 148.133 174.226 148.462C174.226 148.799 174.279 149.093 174.385 149.343C174.493 149.593 174.644 149.787 174.839 149.925C175.036 150.064 175.267 150.133 175.532 150.133C175.707 150.133 175.865 150.102 176.007 150.042C176.149 149.981 176.269 149.894 176.368 149.78C176.466 149.667 176.536 149.53 176.578 149.371H177.248C177.21 149.629 177.117 149.861 176.967 150.067C176.819 150.272 176.623 150.435 176.379 150.556C176.137 150.675 175.854 150.735 175.532 150.735ZM180.126 146.28V146.849H177.865V146.28H180.126ZM178.524 145.235H179.194V149.394C179.194 149.583 179.222 149.725 179.277 149.82C179.334 149.913 179.406 149.975 179.493 150.008C179.582 150.038 179.675 150.053 179.774 150.053C179.848 150.053 179.908 150.049 179.956 150.042C180.003 150.032 180.041 150.025 180.069 150.019L180.206 150.621C180.16 150.638 180.097 150.655 180.015 150.672C179.934 150.691 179.831 150.701 179.706 150.701C179.516 150.701 179.331 150.66 179.149 150.579C178.969 150.497 178.819 150.373 178.7 150.207C178.583 150.04 178.524 149.83 178.524 149.576V145.235Z" fill="#486581"/>
<rect x="184.521" y="144.644" width="202.734" height="6" rx="3" fill="#486581"/>
<path d="M128.886 164.826H129.659L130.307 165.678L130.477 165.905L131.443 167.189H130.67L130.034 166.337L129.875 166.121L128.886 164.826ZM131.682 163.735C131.682 164.349 131.571 164.879 131.349 165.326C131.128 165.773 130.824 166.118 130.437 166.36C130.051 166.602 129.61 166.724 129.113 166.724C128.617 166.724 128.176 166.602 127.79 166.36C127.403 166.118 127.099 165.773 126.878 165.326C126.656 164.879 126.545 164.349 126.545 163.735C126.545 163.121 126.656 162.591 126.878 162.144C127.099 161.697 127.403 161.352 127.79 161.11C128.176 160.868 128.617 160.746 129.113 160.746C129.61 160.746 130.051 160.868 130.437 161.11C130.824 161.352 131.128 161.697 131.349 162.144C131.571 162.591 131.682 163.121 131.682 163.735ZM131 163.735C131 163.231 130.915 162.806 130.747 162.459C130.58 162.113 130.354 161.85 130.068 161.672C129.784 161.494 129.466 161.405 129.113 161.405C128.761 161.405 128.442 161.494 128.156 161.672C127.872 161.85 127.646 162.113 127.477 162.459C127.31 162.806 127.227 163.231 127.227 163.735C127.227 164.239 127.31 164.664 127.477 165.011C127.646 165.357 127.872 165.619 128.156 165.797C128.442 165.975 128.761 166.064 129.113 166.064C129.466 166.064 129.784 165.975 130.068 165.797C130.354 165.619 130.58 165.357 130.747 165.011C130.915 164.664 131 164.239 131 163.735ZM135.525 164.86V162.28H136.196V166.644H135.525V165.905H135.48C135.378 166.127 135.219 166.315 135.003 166.471C134.787 166.624 134.514 166.701 134.184 166.701C133.912 166.701 133.669 166.641 133.457 166.522C133.245 166.401 133.078 166.219 132.957 165.976C132.836 165.732 132.775 165.424 132.775 165.053V162.28H133.446V165.008C133.446 165.326 133.535 165.58 133.713 165.769C133.893 165.958 134.122 166.053 134.4 166.053C134.567 166.053 134.736 166.011 134.909 165.925C135.083 165.84 135.229 165.709 135.346 165.533C135.466 165.357 135.525 165.133 135.525 164.86ZM138.708 166.746C138.431 166.746 138.18 166.694 137.955 166.59C137.73 166.484 137.551 166.332 137.418 166.133C137.285 165.932 137.219 165.689 137.219 165.405C137.219 165.155 137.268 164.953 137.367 164.797C137.465 164.64 137.597 164.517 137.762 164.428C137.927 164.339 138.108 164.273 138.307 164.229C138.508 164.184 138.71 164.148 138.912 164.121C139.178 164.087 139.393 164.062 139.557 164.045C139.724 164.026 139.845 163.994 139.921 163.951C139.999 163.907 140.037 163.832 140.037 163.724V163.701C140.037 163.421 139.961 163.203 139.807 163.047C139.656 162.892 139.426 162.814 139.117 162.814C138.797 162.814 138.546 162.885 138.364 163.025C138.182 163.165 138.054 163.314 137.981 163.474L137.344 163.246C137.458 162.981 137.609 162.775 137.799 162.627C137.99 162.477 138.198 162.373 138.424 162.314C138.651 162.254 138.875 162.224 139.094 162.224C139.234 162.224 139.395 162.241 139.577 162.275C139.761 162.307 139.938 162.374 140.108 162.476C140.281 162.579 140.424 162.733 140.537 162.939C140.651 163.146 140.708 163.422 140.708 163.769V166.644H140.037V166.053H140.003C139.958 166.148 139.882 166.249 139.776 166.357C139.67 166.465 139.529 166.557 139.353 166.633C139.177 166.708 138.962 166.746 138.708 166.746ZM138.81 166.144C139.075 166.144 139.299 166.092 139.481 165.988C139.664 165.884 139.803 165.749 139.895 165.584C139.99 165.42 140.037 165.246 140.037 165.064V164.451C140.009 164.485 139.946 164.516 139.85 164.545C139.755 164.571 139.645 164.595 139.52 164.616C139.397 164.635 139.277 164.652 139.16 164.667C139.044 164.68 138.95 164.691 138.878 164.701C138.704 164.724 138.541 164.761 138.39 164.812C138.24 164.861 138.119 164.936 138.026 165.036C137.935 165.135 137.89 165.269 137.89 165.439C137.89 165.672 137.976 165.849 138.148 165.968C138.322 166.085 138.543 166.144 138.81 166.144ZM142.602 160.826V166.644H141.932V160.826H142.602ZM143.83 166.644V162.28H144.5V166.644H143.83ZM144.171 161.553C144.04 161.553 143.928 161.509 143.833 161.42C143.74 161.331 143.694 161.224 143.694 161.099C143.694 160.974 143.74 160.867 143.833 160.778C143.928 160.689 144.04 160.644 144.171 160.644C144.302 160.644 144.413 160.689 144.506 160.778C144.601 160.867 144.648 160.974 144.648 161.099C144.648 161.224 144.601 161.331 144.506 161.42C144.413 161.509 144.302 161.553 144.171 161.553ZM147.672 162.28V162.849H145.319V162.28H147.672ZM146.024 166.644V161.678C146.024 161.428 146.083 161.22 146.2 161.053C146.317 160.886 146.47 160.761 146.657 160.678C146.845 160.595 147.043 160.553 147.251 160.553C147.416 160.553 147.55 160.566 147.655 160.593C147.759 160.619 147.836 160.644 147.888 160.667L147.694 161.246C147.66 161.235 147.613 161.221 147.552 161.204C147.494 161.187 147.416 161.178 147.319 161.178C147.098 161.178 146.938 161.234 146.839 161.346C146.743 161.457 146.694 161.621 146.694 161.837V166.644H146.024ZM148.611 166.644V162.28H149.282V166.644H148.611ZM148.952 161.553C148.821 161.553 148.709 161.509 148.614 161.42C148.521 161.331 148.475 161.224 148.475 161.099C148.475 160.974 148.521 160.867 148.614 160.778C148.709 160.689 148.821 160.644 148.952 160.644C149.083 160.644 149.195 160.689 149.287 160.778C149.382 160.867 149.429 160.974 149.429 161.099C149.429 161.224 149.382 161.331 149.287 161.42C149.195 161.509 149.083 161.553 148.952 161.553ZM152.339 166.735C151.919 166.735 151.556 166.642 151.251 166.457C150.948 166.269 150.714 166.008 150.549 165.672C150.387 165.335 150.305 164.943 150.305 164.496C150.305 164.049 150.387 163.655 150.549 163.314C150.714 162.972 150.943 162.705 151.237 162.513C151.532 162.32 151.877 162.224 152.271 162.224C152.498 162.224 152.723 162.261 152.944 162.337C153.166 162.413 153.368 162.536 153.549 162.707C153.731 162.875 153.876 163.099 153.984 163.377C154.092 163.655 154.146 163.998 154.146 164.405V164.689H150.782V164.11H153.464C153.464 163.864 153.415 163.644 153.317 163.451C153.22 163.258 153.082 163.105 152.902 162.993C152.724 162.882 152.513 162.826 152.271 162.826C152.004 162.826 151.773 162.892 151.578 163.025C151.385 163.155 151.236 163.326 151.132 163.536C151.028 163.746 150.976 163.972 150.976 164.212V164.599C150.976 164.928 151.032 165.207 151.146 165.437C151.262 165.664 151.422 165.837 151.626 165.957C151.831 166.074 152.068 166.133 152.339 166.133C152.515 166.133 152.674 166.108 152.817 166.059C152.96 166.008 153.085 165.932 153.189 165.832C153.293 165.729 153.373 165.602 153.43 165.451L154.078 165.633C154.01 165.852 153.895 166.046 153.734 166.212C153.573 166.377 153.374 166.506 153.138 166.599C152.901 166.689 152.635 166.735 152.339 166.735ZM156.814 166.735C156.45 166.735 156.129 166.643 155.851 166.459C155.572 166.274 155.354 166.012 155.197 165.675C155.04 165.336 154.961 164.936 154.961 164.474C154.961 164.015 155.04 163.618 155.197 163.28C155.354 162.943 155.573 162.683 155.853 162.499C156.134 162.315 156.458 162.224 156.825 162.224C157.109 162.224 157.334 162.271 157.498 162.366C157.665 162.458 157.792 162.564 157.879 162.684C157.968 162.801 158.037 162.898 158.086 162.974H158.143V160.826H158.814V166.644H158.166V165.974H158.086C158.037 166.053 157.967 166.154 157.876 166.275C157.785 166.394 157.656 166.501 157.487 166.596C157.318 166.689 157.094 166.735 156.814 166.735ZM156.905 166.133C157.174 166.133 157.401 166.063 157.586 165.922C157.772 165.78 157.913 165.584 158.01 165.334C158.106 165.082 158.155 164.792 158.155 164.462C158.155 164.136 158.107 163.851 158.013 163.607C157.918 163.361 157.778 163.17 157.592 163.033C157.406 162.895 157.177 162.826 156.905 162.826C156.62 162.826 156.384 162.899 156.194 163.045C156.007 163.189 155.866 163.385 155.771 163.633C155.678 163.879 155.632 164.155 155.632 164.462C155.632 164.773 155.679 165.055 155.774 165.309C155.87 165.561 156.013 165.761 156.2 165.911C156.389 166.059 156.624 166.133 156.905 166.133ZM162.476 166.644V160.826H163.18V166.019H165.885V166.644H162.476ZM168.714 166.735C168.294 166.735 167.931 166.642 167.626 166.457C167.323 166.269 167.089 166.008 166.924 165.672C166.762 165.335 166.68 164.943 166.68 164.496C166.68 164.049 166.762 163.655 166.924 163.314C167.089 162.972 167.318 162.705 167.612 162.513C167.907 162.32 168.252 162.224 168.646 162.224C168.873 162.224 169.098 162.261 169.319 162.337C169.541 162.413 169.743 162.536 169.924 162.707C170.106 162.875 170.251 163.099 170.359 163.377C170.467 163.655 170.521 163.998 170.521 164.405V164.689H167.157V164.11H169.839C169.839 163.864 169.79 163.644 169.692 163.451C169.595 163.258 169.457 163.105 169.277 162.993C169.099 162.882 168.888 162.826 168.646 162.826C168.379 162.826 168.148 162.892 167.953 163.025C167.76 163.155 167.611 163.326 167.507 163.536C167.403 163.746 167.351 163.972 167.351 164.212V164.599C167.351 164.928 167.407 165.207 167.521 165.437C167.637 165.664 167.797 165.837 168.001 165.957C168.206 166.074 168.443 166.133 168.714 166.133C168.89 166.133 169.049 166.108 169.192 166.059C169.335 166.008 169.46 165.932 169.564 165.832C169.668 165.729 169.748 165.602 169.805 165.451L170.453 165.633C170.385 165.852 170.27 166.046 170.109 166.212C169.948 166.377 169.749 166.506 169.513 166.599C169.276 166.689 169.01 166.735 168.714 166.735ZM172.825 166.746C172.549 166.746 172.298 166.694 172.072 166.59C171.847 166.484 171.668 166.332 171.535 166.133C171.403 165.932 171.336 165.689 171.336 165.405C171.336 165.155 171.386 164.953 171.484 164.797C171.583 164.64 171.714 164.517 171.879 164.428C172.044 164.339 172.226 164.273 172.424 164.229C172.625 164.184 172.827 164.148 173.03 164.121C173.295 164.087 173.51 164.062 173.674 164.045C173.841 164.026 173.962 163.994 174.038 163.951C174.116 163.907 174.155 163.832 174.155 163.724V163.701C174.155 163.421 174.078 163.203 173.924 163.047C173.773 162.892 173.543 162.814 173.234 162.814C172.914 162.814 172.663 162.885 172.481 163.025C172.299 163.165 172.172 163.314 172.098 163.474L171.461 163.246C171.575 162.981 171.727 162.775 171.916 162.627C172.107 162.477 172.316 162.373 172.541 162.314C172.768 162.254 172.992 162.224 173.211 162.224C173.352 162.224 173.513 162.241 173.694 162.275C173.878 162.307 174.055 162.374 174.226 162.476C174.398 162.579 174.541 162.733 174.655 162.939C174.768 163.146 174.825 163.422 174.825 163.769V166.644H174.155V166.053H174.12C174.075 166.148 173.999 166.249 173.893 166.357C173.787 166.465 173.646 166.557 173.47 166.633C173.294 166.708 173.079 166.746 172.825 166.746ZM172.927 166.144C173.192 166.144 173.416 166.092 173.598 165.988C173.781 165.884 173.92 165.749 174.013 165.584C174.107 165.42 174.155 165.246 174.155 165.064V164.451C174.126 164.485 174.064 164.516 173.967 164.545C173.872 164.571 173.763 164.595 173.638 164.616C173.514 164.635 173.394 164.652 173.277 164.667C173.161 164.68 173.067 164.691 172.995 164.701C172.821 164.724 172.658 164.761 172.507 164.812C172.357 164.861 172.236 164.936 172.143 165.036C172.052 165.135 172.007 165.269 172.007 165.439C172.007 165.672 172.093 165.849 172.265 165.968C172.44 166.085 172.66 166.144 172.927 166.144ZM177.696 166.735C177.333 166.735 177.012 166.643 176.733 166.459C176.455 166.274 176.237 166.012 176.08 165.675C175.923 165.336 175.844 164.936 175.844 164.474C175.844 164.015 175.923 163.618 176.08 163.28C176.237 162.943 176.456 162.683 176.736 162.499C177.017 162.315 177.34 162.224 177.708 162.224C177.992 162.224 178.216 162.271 178.381 162.366C178.548 162.458 178.675 162.564 178.762 162.684C178.851 162.801 178.92 162.898 178.969 162.974H179.026V160.826H179.696V166.644H179.049V165.974H178.969C178.92 166.053 178.85 166.154 178.759 166.275C178.668 166.394 178.538 166.501 178.37 166.596C178.201 166.689 177.977 166.735 177.696 166.735ZM177.787 166.133C178.056 166.133 178.284 166.063 178.469 165.922C178.655 165.78 178.796 165.584 178.893 165.334C178.989 165.082 179.037 164.792 179.037 164.462C179.037 164.136 178.99 163.851 178.895 163.607C178.801 163.361 178.66 163.17 178.475 163.033C178.289 162.895 178.06 162.826 177.787 162.826C177.503 162.826 177.267 162.899 177.077 163.045C176.89 163.189 176.749 163.385 176.654 163.633C176.561 163.879 176.515 164.155 176.515 164.462C176.515 164.773 176.562 165.055 176.657 165.309C176.753 165.561 176.895 165.761 177.083 165.911C177.272 166.059 177.507 166.133 177.787 166.133Z" fill="#486581"/>
<rect x="185.068" y="160.644" width="160.27" height="6" rx="3" fill="#A7CA6E"/>
</g>
</g>
<g filter="url(#filter2_dd_1232_61402)">
<rect x="93.1614" y="208.751" width="327" height="91.5943" rx="9.94677" fill="white"/>
<rect x="93.7831" y="209.373" width="325.757" height="90.351" rx="9.3251" stroke="#2680C2" stroke-width="1.24335"/>
<g filter="url(#filter3_d_1232_61402)">
<rect x="109.161" y="224.751" width="295" height="59.5943" rx="3.47895" fill="#FAFCFE" shape-rendering="crispEdges"/>
<rect x="109.379" y="224.968" width="294.565" height="59.1594" rx="3.26152" stroke="#C9D4DE" stroke-width="0.434869" shape-rendering="crispEdges"/>
<path d="M121.954 234.731C121.92 234.443 121.782 234.22 121.54 234.061C121.297 233.902 121 233.822 120.647 233.822C120.39 233.822 120.165 233.864 119.971 233.947C119.78 234.031 119.63 234.145 119.522 234.291C119.416 234.437 119.363 234.603 119.363 234.788C119.363 234.943 119.4 235.077 119.474 235.189C119.55 235.299 119.647 235.39 119.764 235.464C119.881 235.536 120.004 235.596 120.133 235.643C120.262 235.689 120.38 235.726 120.488 235.754L121.079 235.913C121.231 235.953 121.399 236.008 121.585 236.078C121.772 236.148 121.951 236.244 122.122 236.365C122.294 236.484 122.436 236.638 122.548 236.825C122.66 237.013 122.716 237.243 122.716 237.515C122.716 237.83 122.633 238.114 122.469 238.368C122.306 238.621 122.067 238.823 121.753 238.973C121.44 239.122 121.06 239.197 120.613 239.197C120.197 239.197 119.836 239.13 119.531 238.996C119.228 238.861 118.989 238.674 118.815 238.433C118.643 238.193 118.545 237.913 118.522 237.595H119.25C119.269 237.815 119.343 237.996 119.471 238.14C119.602 238.282 119.767 238.389 119.966 238.459C120.166 238.527 120.382 238.561 120.613 238.561C120.882 238.561 121.124 238.517 121.338 238.43C121.552 238.341 121.721 238.218 121.846 238.061C121.971 237.902 122.034 237.716 122.034 237.504C122.034 237.311 121.98 237.154 121.872 237.032C121.764 236.911 121.622 236.813 121.446 236.737C121.27 236.661 121.079 236.595 120.875 236.538L120.159 236.334C119.704 236.203 119.344 236.016 119.079 235.774C118.814 235.532 118.682 235.214 118.682 234.822C118.682 234.496 118.77 234.212 118.946 233.97C119.124 233.726 119.362 233.536 119.662 233.402C119.963 233.265 120.299 233.197 120.67 233.197C121.045 233.197 121.379 233.264 121.67 233.399C121.962 233.532 122.193 233.713 122.363 233.944C122.536 234.175 122.627 234.438 122.636 234.731H121.954ZM123.556 233.902V233.277H127.919V233.902H126.09V239.095H125.385V233.902H123.556ZM128.566 239.095H127.827L129.964 233.277H130.691L132.827 239.095H132.089L130.35 234.197H130.304L128.566 239.095ZM128.839 236.822H131.816V237.447H128.839V236.822ZM132.736 233.902V233.277H137.099V233.902H135.27V239.095H134.565V233.902H132.736ZM142.005 233.277H142.709V237.129C142.709 237.527 142.616 237.882 142.428 238.194C142.242 238.505 141.98 238.75 141.641 238.93C141.302 239.108 140.904 239.197 140.448 239.197C139.991 239.197 139.594 239.108 139.255 238.93C138.916 238.75 138.652 238.505 138.465 238.194C138.279 237.882 138.187 237.527 138.187 237.129V233.277H138.891V237.072C138.891 237.356 138.954 237.609 139.079 237.831C139.204 238.05 139.382 238.224 139.613 238.351C139.846 238.476 140.124 238.538 140.448 238.538C140.772 238.538 141.05 238.476 141.283 238.351C141.516 238.224 141.694 238.05 141.817 237.831C141.942 237.609 142.005 237.356 142.005 237.072V233.277ZM147.298 234.731C147.264 234.443 147.126 234.22 146.883 234.061C146.641 233.902 146.344 233.822 145.991 233.822C145.734 233.822 145.508 233.864 145.315 233.947C145.124 234.031 144.974 234.145 144.866 234.291C144.76 234.437 144.707 234.603 144.707 234.788C144.707 234.943 144.744 235.077 144.818 235.189C144.894 235.299 144.99 235.39 145.108 235.464C145.225 235.536 145.348 235.596 145.477 235.643C145.606 235.689 145.724 235.726 145.832 235.754L146.423 235.913C146.575 235.953 146.743 236.008 146.929 236.078C147.116 236.148 147.295 236.244 147.466 236.365C147.638 236.484 147.78 236.638 147.892 236.825C148.004 237.013 148.059 237.243 148.059 237.515C148.059 237.83 147.977 238.114 147.812 238.368C147.649 238.621 147.411 238.823 147.096 238.973C146.784 239.122 146.404 239.197 145.957 239.197C145.54 239.197 145.18 239.13 144.875 238.996C144.572 238.861 144.333 238.674 144.159 238.433C143.986 238.193 143.889 237.913 143.866 237.595H144.594C144.612 237.815 144.686 237.996 144.815 238.14C144.946 238.282 145.111 238.389 145.309 238.459C145.51 238.527 145.726 238.561 145.957 238.561C146.226 238.561 146.468 238.517 146.682 238.43C146.896 238.341 147.065 238.218 147.19 238.061C147.315 237.902 147.378 237.716 147.378 237.504C147.378 237.311 147.324 237.154 147.216 237.032C147.108 236.911 146.966 236.813 146.79 236.737C146.613 236.661 146.423 236.595 146.219 236.538L145.503 236.334C145.048 236.203 144.688 236.016 144.423 235.774C144.158 235.532 144.025 235.214 144.025 234.822C144.025 234.496 144.113 234.212 144.29 233.97C144.468 233.726 144.706 233.536 145.005 233.402C145.307 233.265 145.643 233.197 146.014 233.197C146.389 233.197 146.722 233.264 147.014 233.399C147.306 233.532 147.537 233.713 147.707 233.944C147.879 234.175 147.97 234.438 147.98 234.731H147.298Z" fill="#486581"/>
<rect x="118.318" y="251.251" width="276.687" height="27.5" rx="3.75" fill="#D4E6F3"/>
<rect x="118.318" y="251.251" width="276.687" height="27.5" rx="3.75" stroke="#195581" stroke-width="0.5"/>
<circle cx="130.068" cy="265.001" r="4" fill="#486581"/>
<path d="M138.772 268.001V262.183H140.738C141.195 262.183 141.568 262.266 141.858 262.43C142.149 262.593 142.365 262.814 142.505 263.092C142.646 263.371 142.716 263.681 142.716 264.024C142.716 264.367 142.646 264.679 142.505 264.959C142.367 265.239 142.153 265.463 141.863 265.629C141.574 265.794 141.202 265.876 140.75 265.876H139.341V265.251H140.727C141.04 265.251 141.29 265.197 141.48 265.09C141.669 264.982 141.807 264.836 141.892 264.652C141.979 264.466 142.022 264.257 142.022 264.024C142.022 263.791 141.979 263.583 141.892 263.399C141.807 263.215 141.668 263.072 141.477 262.967C141.286 262.861 141.032 262.808 140.716 262.808H139.477V268.001H138.772ZM143.76 268.001V263.638H144.407V264.297H144.453C144.532 264.081 144.676 263.906 144.885 263.771C145.093 263.637 145.328 263.57 145.589 263.57C145.638 263.57 145.7 263.571 145.774 263.572C145.848 263.574 145.904 263.577 145.942 263.581V264.263C145.919 264.257 145.867 264.249 145.785 264.237C145.706 264.224 145.621 264.217 145.532 264.217C145.32 264.217 145.131 264.262 144.964 264.351C144.799 264.438 144.669 264.559 144.572 264.715C144.477 264.868 144.43 265.043 144.43 265.24V268.001H143.76ZM148.376 268.092C147.982 268.092 147.637 267.999 147.339 267.811C147.044 267.624 146.813 267.361 146.646 267.024C146.481 266.687 146.399 266.293 146.399 265.842C146.399 265.388 146.481 264.991 146.646 264.652C146.813 264.313 147.044 264.05 147.339 263.862C147.637 263.675 147.982 263.581 148.376 263.581C148.77 263.581 149.115 263.675 149.41 263.862C149.708 264.05 149.939 264.313 150.103 264.652C150.27 264.991 150.353 265.388 150.353 265.842C150.353 266.293 150.27 266.687 150.103 267.024C149.939 267.361 149.708 267.624 149.41 267.811C149.115 267.999 148.77 268.092 148.376 268.092ZM148.376 267.49C148.675 267.49 148.922 267.413 149.115 267.26C149.308 267.107 149.451 266.905 149.544 266.655C149.637 266.405 149.683 266.134 149.683 265.842C149.683 265.551 149.637 265.279 149.544 265.027C149.451 264.775 149.308 264.572 149.115 264.416C148.922 264.261 148.675 264.183 148.376 264.183C148.077 264.183 147.831 264.261 147.638 264.416C147.444 264.572 147.301 264.775 147.209 265.027C147.116 265.279 147.069 265.551 147.069 265.842C147.069 266.134 147.116 266.405 147.209 266.655C147.301 266.905 147.444 267.107 147.638 267.26C147.831 267.413 148.077 267.49 148.376 267.49ZM154.468 264.615L153.866 264.786C153.828 264.685 153.772 264.588 153.698 264.493C153.626 264.396 153.527 264.317 153.402 264.254C153.277 264.192 153.117 264.161 152.922 264.161C152.655 264.161 152.433 264.222 152.255 264.345C152.079 264.466 151.991 264.621 151.991 264.808C151.991 264.975 152.051 265.107 152.172 265.203C152.294 265.3 152.483 265.38 152.741 265.445L153.388 265.604C153.778 265.698 154.069 265.843 154.26 266.038C154.452 266.232 154.547 266.481 154.547 266.786C154.547 267.036 154.475 267.259 154.331 267.456C154.189 267.653 153.991 267.808 153.735 267.922C153.479 268.036 153.182 268.092 152.843 268.092C152.398 268.092 152.029 267.996 151.738 267.803C151.446 267.609 151.261 267.327 151.184 266.956L151.82 266.797C151.881 267.032 151.995 267.208 152.164 267.325C152.334 267.443 152.557 267.501 152.831 267.501C153.144 267.501 153.392 267.435 153.576 267.303C153.761 267.168 153.854 267.007 153.854 266.82C153.854 266.668 153.801 266.541 153.695 266.439C153.589 266.335 153.426 266.257 153.206 266.206L152.479 266.036C152.08 265.941 151.786 265.794 151.598 265.595C151.413 265.394 151.32 265.144 151.32 264.842C151.32 264.596 151.389 264.378 151.527 264.189C151.668 264 151.858 263.851 152.098 263.743C152.341 263.635 152.616 263.581 152.922 263.581C153.354 263.581 153.693 263.676 153.939 263.865C154.187 264.054 154.364 264.304 154.468 264.615ZM155.557 269.638V263.638H156.204V264.331H156.284C156.333 264.255 156.401 264.159 156.488 264.041C156.577 263.922 156.704 263.816 156.869 263.723C157.036 263.628 157.261 263.581 157.545 263.581C157.913 263.581 158.236 263.673 158.517 263.857C158.797 264.04 159.016 264.301 159.173 264.638C159.33 264.975 159.409 265.373 159.409 265.831C159.409 266.293 159.33 266.694 159.173 267.033C159.016 267.37 158.798 267.631 158.52 267.817C158.241 268.001 157.92 268.092 157.557 268.092C157.276 268.092 157.052 268.046 156.883 267.953C156.715 267.858 156.585 267.751 156.494 267.632C156.403 267.511 156.333 267.411 156.284 267.331H156.227V269.638H155.557ZM156.216 265.82C156.216 266.149 156.264 266.44 156.361 266.692C156.457 266.942 156.598 267.138 156.784 267.28C156.969 267.42 157.197 267.49 157.466 267.49C157.746 267.49 157.98 267.416 158.167 267.269C158.357 267.119 158.499 266.918 158.594 266.666C158.69 266.412 158.738 266.13 158.738 265.82C158.738 265.513 158.691 265.236 158.596 264.99C158.504 264.742 158.362 264.546 158.173 264.402C157.986 264.256 157.75 264.183 157.466 264.183C157.193 264.183 156.964 264.252 156.778 264.391C156.593 264.527 156.452 264.718 156.358 264.965C156.263 265.209 156.216 265.494 156.216 265.82ZM162.261 268.092C161.841 268.092 161.478 268 161.173 267.814C160.87 267.626 160.636 267.365 160.471 267.03C160.308 266.693 160.227 266.301 160.227 265.854C160.227 265.407 160.308 265.013 160.471 264.672C160.636 264.329 160.865 264.062 161.159 263.871C161.454 263.678 161.799 263.581 162.193 263.581C162.42 263.581 162.645 263.619 162.866 263.695C163.088 263.77 163.29 263.894 163.471 264.064C163.653 264.233 163.798 264.456 163.906 264.734C164.014 265.013 164.068 265.356 164.068 265.763V266.047H160.704V265.467H163.386C163.386 265.221 163.337 265.001 163.238 264.808C163.142 264.615 163.004 264.463 162.824 264.351C162.646 264.239 162.435 264.183 162.193 264.183C161.926 264.183 161.695 264.25 161.5 264.382C161.307 264.513 161.158 264.683 161.054 264.894C160.95 265.104 160.897 265.329 160.897 265.57V265.956C160.897 266.286 160.954 266.565 161.068 266.794C161.183 267.021 161.344 267.195 161.548 267.314C161.753 267.431 161.99 267.49 162.261 267.49C162.437 267.49 162.596 267.465 162.738 267.416C162.882 267.365 163.006 267.289 163.111 267.189C163.215 267.087 163.295 266.96 163.352 266.808L164 266.99C163.932 267.21 163.817 267.403 163.656 267.57C163.495 267.734 163.296 267.863 163.059 267.956C162.823 268.047 162.557 268.092 162.261 268.092ZM166.861 268.092C166.451 268.092 166.099 267.996 165.804 267.803C165.508 267.609 165.281 267.343 165.122 267.004C164.963 266.665 164.883 266.278 164.883 265.842C164.883 265.399 164.965 265.008 165.128 264.669C165.292 264.328 165.522 264.062 165.815 263.871C166.111 263.678 166.455 263.581 166.849 263.581C167.156 263.581 167.433 263.638 167.679 263.751C167.925 263.865 168.127 264.024 168.284 264.229C168.441 264.433 168.539 264.672 168.576 264.945H167.906C167.855 264.746 167.741 264.57 167.565 264.416C167.391 264.261 167.156 264.183 166.861 264.183C166.599 264.183 166.37 264.251 166.173 264.388C165.978 264.522 165.826 264.713 165.716 264.959C165.608 265.203 165.554 265.49 165.554 265.82C165.554 266.157 165.607 266.45 165.713 266.7C165.821 266.95 165.972 267.144 166.167 267.283C166.364 267.421 166.595 267.49 166.861 267.49C167.035 267.49 167.193 267.46 167.335 267.399C167.477 267.339 167.597 267.251 167.696 267.138C167.794 267.024 167.864 266.888 167.906 266.729H168.576C168.539 266.986 168.445 267.218 168.295 267.425C168.147 267.629 167.951 267.792 167.707 267.913C167.465 268.033 167.183 268.092 166.861 268.092ZM171.454 263.638V264.206H169.193V263.638H171.454ZM169.852 262.592H170.522V266.751C170.522 266.941 170.55 267.083 170.605 267.178C170.662 267.27 170.734 267.333 170.821 267.365C170.91 267.395 171.004 267.411 171.102 267.411C171.176 267.411 171.236 267.407 171.284 267.399C171.331 267.39 171.369 267.382 171.397 267.376L171.534 267.979C171.488 267.996 171.425 268.013 171.344 268.03C171.262 268.049 171.159 268.058 171.034 268.058C170.844 268.058 170.659 268.018 170.477 267.936C170.297 267.855 170.147 267.731 170.028 267.564C169.911 267.397 169.852 267.187 169.852 266.933V262.592Z" fill="#486581"/>
</g>
</g>
<defs>
<filter id="filter0_dd_1232_61402" x="80.5726" y="50.4443" width="352.178" height="173.721" filterUnits="userSpaceOnUse" color-interpolation-filters="sRGB">
<feFlood flood-opacity="0" result="BackgroundImageFix"/>
<feColorMatrix in="SourceAlpha" type="matrix" values="0 0 0 0 0 0 0 0 0 0 0 0 0 0 0 0 0 0 127 0" result="hardAlpha"/>
<feMorphology radius="2.09815" operator="erode" in="SourceAlpha" result="effect1_dropShadow_1232_61402"/>
<feOffset dy="4.19629"/>
<feGaussianBlur stdDeviation="3.14722"/>
<feComposite in2="hardAlpha" operator="out"/>
<feColorMatrix type="matrix" values="0 0 0 0 0 0 0 0 0 0 0 0 0 0 0 0 0 0 0.03 0"/>
<feBlend mode="normal" in2="BackgroundImageFix" result="effect1_dropShadow_1232_61402"/>
<feColorMatrix in="SourceAlpha" type="matrix" values="0 0 0 0 0 0 0 0 0 0 0 0 0 0 0 0 0 0 127 0" result="hardAlpha"/>
<feMorphology radius="4.19629" operator="erode" in="SourceAlpha" result="effect2_dropShadow_1232_61402"/>
<feOffset dy="12.5889"/>
<feGaussianBlur stdDeviation="8.39259"/>
<feComposite in2="hardAlpha" operator="out"/>
<feColorMatrix type="matrix" values="0 0 0 0 0 0 0 0 0 0 0 0 0 0 0 0 0 0 0.08 0"/>
<feBlend mode="normal" in2="effect1_dropShadow_1232_61402" result="effect2_dropShadow_1232_61402"/>
<feBlend mode="normal" in="SourceGraphic" in2="effect2_dropShadow_1232_61402" result="shape"/>
</filter>
<filter id="filter1_d_1232_61402" x="108.292" y="103.009" width="296.739" height="81.2829" filterUnits="userSpaceOnUse" color-interpolation-filters="sRGB">
<feFlood flood-opacity="0" result="BackgroundImageFix"/>
<feColorMatrix in="SourceAlpha" type="matrix" values="0 0 0 0 0 0 0 0 0 0 0 0 0 0 0 0 0 0 127 0" result="hardAlpha"/>
<feOffset dy="0.434869"/>
<feGaussianBlur stdDeviation="0.434869"/>
<feComposite in2="hardAlpha" operator="out"/>
<feColorMatrix type="matrix" values="0 0 0 0 0 0 0 0 0 0 0 0 0 0 0 0 0 0 0.04 0"/>
<feBlend mode="normal" in2="BackgroundImageFix" result="effect1_dropShadow_1232_61402"/>
<feBlend mode="normal" in="SourceGraphic" in2="effect1_dropShadow_1232_61402" result="shape"/>
</filter>
<filter id="filter2_dd_1232_61402" x="80.5726" y="208.751" width="352.178" height="116.772" filterUnits="userSpaceOnUse" color-interpolation-filters="sRGB">
<feFlood flood-opacity="0" result="BackgroundImageFix"/>
<feColorMatrix in="SourceAlpha" type="matrix" values="0 0 0 0 0 0 0 0 0 0 0 0 0 0 0 0 0 0 127 0" result="hardAlpha"/>
<feMorphology radius="2.09815" operator="erode" in="SourceAlpha" result="effect1_dropShadow_1232_61402"/>
<feOffset dy="4.19629"/>
<feGaussianBlur stdDeviation="3.14722"/>
<feComposite in2="hardAlpha" operator="out"/>
<feColorMatrix type="matrix" values="0 0 0 0 0 0 0 0 0 0 0 0 0 0 0 0 0 0 0.03 0"/>
<feBlend mode="normal" in2="BackgroundImageFix" result="effect1_dropShadow_1232_61402"/>
<feColorMatrix in="SourceAlpha" type="matrix" values="0 0 0 0 0 0 0 0 0 0 0 0 0 0 0 0 0 0 127 0" result="hardAlpha"/>
<feMorphology radius="4.19629" operator="erode" in="SourceAlpha" result="effect2_dropShadow_1232_61402"/>
<feOffset dy="12.5889"/>
<feGaussianBlur stdDeviation="8.39259"/>
<feComposite in2="hardAlpha" operator="out"/>
<feColorMatrix type="matrix" values="0 0 0 0 0 0 0 0 0 0 0 0 0 0 0 0 0 0 0.08 0"/>
<feBlend mode="normal" in2="effect1_dropShadow_1232_61402" result="effect2_dropShadow_1232_61402"/>
<feBlend mode="normal" in="SourceGraphic" in2="effect2_dropShadow_1232_61402" result="shape"/>
</filter>
<filter id="filter3_d_1232_61402" x="108.292" y="224.316" width="296.739" height="61.3337" filterUnits="userSpaceOnUse" color-interpolation-filters="sRGB">
<feFlood flood-opacity="0" result="BackgroundImageFix"/>
<feColorMatrix in="SourceAlpha" type="matrix" values="0 0 0 0 0 0 0 0 0 0 0 0 0 0 0 0 0 0 127 0" result="hardAlpha"/>
<feOffset dy="0.434869"/>
<feGaussianBlur stdDeviation="0.434869"/>
<feComposite in2="hardAlpha" operator="out"/>
<feColorMatrix type="matrix" values="0 0 0 0 0 0 0 0 0 0 0 0 0 0 0 0 0 0 0.04 0"/>
<feBlend mode="normal" in2="BackgroundImageFix" result="effect1_dropShadow_1232_61402"/>
<feBlend mode="normal" in="SourceGraphic" in2="effect1_dropShadow_1232_61402" result="shape"/>
</filter>
</defs>
</svg>
