<svg width="400" height="348" viewBox="0 0 400 348" fill="none" xmlns="http://www.w3.org/2000/svg">
<g filter="url(#filter0_dd_1216_250193)">
<rect x="59" y="34" width="282" height="262.587" rx="9.94677" fill="white"/>
<rect x="59.6217" y="34.6217" width="280.757" height="261.343" rx="9.3251" stroke="#2680C2" stroke-width="1.24335"/>
<path d="M92.8686 67.3828H90.6911C90.6513 67.1011 90.5701 66.8509 90.4474 66.6321C90.3248 66.41 90.1674 66.2211 89.9751 66.0653C89.7829 65.9096 89.5608 65.7902 89.3089 65.7074C89.0604 65.6245 88.7902 65.5831 88.4986 65.5831C87.9716 65.5831 87.5125 65.714 87.1214 65.9759C86.7304 66.2344 86.4271 66.6122 86.2116 67.1094C85.9962 67.6032 85.8885 68.2031 85.8885 68.9091C85.8885 69.6349 85.9962 70.2448 86.2116 70.7386C86.4304 71.2325 86.7353 71.6054 87.1264 71.8572C87.5175 72.1091 87.9699 72.2351 88.4837 72.2351C88.772 72.2351 89.0388 72.197 89.2841 72.1207C89.5327 72.0445 89.7531 71.9335 89.9453 71.7876C90.1375 71.6385 90.2966 71.4579 90.4226 71.2457C90.5518 71.0336 90.6413 70.7917 90.6911 70.5199L92.8686 70.5298C92.8123 70.9972 92.6714 71.4479 92.446 71.8821C92.224 72.313 91.924 72.6991 91.5462 73.0405C91.1716 73.3786 90.7242 73.647 90.2038 73.8459C89.6868 74.0414 89.1018 74.1392 88.4489 74.1392C87.5407 74.1392 86.7287 73.9337 86.0128 73.5227C85.3002 73.1117 84.7367 72.5168 84.3224 71.7379C83.9115 70.959 83.706 70.0161 83.706 68.9091C83.706 67.7988 83.9148 66.8542 84.3324 66.0753C84.75 65.2964 85.3168 64.7031 86.0327 64.2955C86.7486 63.8845 87.554 63.679 88.4489 63.679C89.0388 63.679 89.5857 63.7618 90.0895 63.9276C90.5966 64.0933 91.0457 64.3352 91.4368 64.6534C91.8279 64.9683 92.1461 65.3544 92.3913 65.8118C92.6399 66.2692 92.799 66.7929 92.8686 67.3828ZM94.3725 74V66.3636H96.4258V67.696H96.5053C96.6445 67.2221 96.8782 66.8641 97.2063 66.6222C97.5344 66.3769 97.9123 66.2543 98.3398 66.2543C98.4459 66.2543 98.5603 66.2609 98.6829 66.2741C98.8055 66.2874 98.9132 66.3056 99.006 66.3288V68.2081C98.9066 68.1783 98.7691 68.1518 98.5934 68.1286C98.4177 68.1054 98.257 68.0938 98.1112 68.0938C97.7996 68.0938 97.5212 68.1617 97.2759 68.2976C97.034 68.4302 96.8417 68.6158 96.6992 68.8544C96.56 69.093 96.4904 69.3681 96.4904 69.6797V74H94.3725ZM103.226 74.1491C102.44 74.1491 101.764 73.9901 101.197 73.6719C100.634 73.3504 100.2 72.8963 99.8947 72.3097C99.5898 71.7197 99.4373 71.022 99.4373 70.2166C99.4373 69.4311 99.5898 68.7417 99.8947 68.1484C100.2 67.5552 100.629 67.0928 101.182 66.7614C101.739 66.4299 102.392 66.2642 103.141 66.2642C103.645 66.2642 104.114 66.3454 104.548 66.5078C104.986 66.6669 105.367 66.9072 105.692 67.2287C106.02 67.5502 106.275 67.9545 106.457 68.4418C106.64 68.9257 106.731 69.4924 106.731 70.142V70.7237H100.282V69.4112H104.737C104.737 69.1063 104.671 68.8362 104.538 68.6009C104.406 68.3655 104.222 68.1816 103.986 68.049C103.754 67.9131 103.484 67.8452 103.176 67.8452C102.854 67.8452 102.569 67.9197 102.321 68.0689C102.076 68.2147 101.883 68.4119 101.744 68.6605C101.605 68.9058 101.534 69.1792 101.53 69.4808V70.7287C101.53 71.1065 101.6 71.433 101.739 71.7081C101.882 71.9832 102.082 72.1953 102.341 72.3445C102.599 72.4936 102.906 72.5682 103.26 72.5682C103.496 72.5682 103.711 72.535 103.907 72.4688C104.102 72.4025 104.27 72.303 104.409 72.1705C104.548 72.0379 104.654 71.8755 104.727 71.6832L106.686 71.8125C106.586 72.2831 106.383 72.6941 106.074 73.0455C105.769 73.3935 105.375 73.6652 104.891 73.8608C104.411 74.053 103.855 74.1491 103.226 74.1491ZM110.29 74.1442C109.803 74.1442 109.369 74.0597 108.988 73.8906C108.607 73.7183 108.305 73.4647 108.083 73.13C107.864 72.7919 107.755 72.371 107.755 71.8672C107.755 71.4429 107.833 71.0866 107.988 70.7983C108.144 70.5099 108.356 70.2779 108.625 70.1023C108.893 69.9266 109.198 69.794 109.54 69.7045C109.884 69.6151 110.246 69.5521 110.623 69.5156C111.068 69.4692 111.425 69.4261 111.697 69.3864C111.969 69.3433 112.166 69.2803 112.289 69.1974C112.412 69.1146 112.473 68.992 112.473 68.8295V68.7997C112.473 68.4848 112.373 68.2412 112.175 68.0689C111.979 67.8965 111.701 67.8104 111.339 67.8104C110.958 67.8104 110.655 67.8949 110.43 68.0639C110.204 68.2296 110.055 68.4384 109.982 68.6903L108.023 68.5312C108.123 68.0672 108.318 67.6662 108.61 67.3281C108.902 66.9867 109.278 66.7249 109.738 66.5426C110.202 66.357 110.739 66.2642 111.349 66.2642C111.773 66.2642 112.18 66.3139 112.567 66.4134C112.958 66.5128 113.305 66.6669 113.606 66.8757C113.911 67.0845 114.152 67.353 114.327 67.6811C114.503 68.0059 114.591 68.3954 114.591 68.8494V74H112.582V72.9411H112.523C112.4 73.1797 112.236 73.3902 112.03 73.5724C111.825 73.7514 111.578 73.8923 111.29 73.995C111.001 74.0945 110.668 74.1442 110.29 74.1442ZM110.897 72.6825C111.208 72.6825 111.483 72.6212 111.722 72.4986C111.961 72.3726 112.148 72.2036 112.284 71.9915C112.42 71.7794 112.488 71.5391 112.488 71.2706V70.4602C112.421 70.5033 112.33 70.5431 112.214 70.5795C112.102 70.6127 111.974 70.6442 111.831 70.674C111.689 70.7005 111.546 70.7254 111.404 70.7486C111.261 70.7685 111.132 70.7867 111.016 70.8033C110.768 70.8397 110.55 70.8977 110.365 70.9773C110.179 71.0568 110.035 71.1645 109.932 71.3004C109.83 71.433 109.778 71.5987 109.778 71.7976C109.778 72.0859 109.883 72.3063 110.091 72.4588C110.304 72.608 110.572 72.6825 110.897 72.6825ZM120.296 66.3636V67.9545H115.697V66.3636H120.296ZM116.741 64.5341H118.859V71.6534C118.859 71.849 118.889 72.0014 118.948 72.1108C119.008 72.2169 119.091 72.2914 119.197 72.3345C119.306 72.3776 119.432 72.3991 119.575 72.3991C119.674 72.3991 119.774 72.3909 119.873 72.3743C119.972 72.3544 120.049 72.3395 120.102 72.3295L120.435 73.9055C120.329 73.9387 120.18 73.9768 119.987 74.0199C119.795 74.0663 119.561 74.0945 119.286 74.1044C118.776 74.1243 118.329 74.0563 117.944 73.9006C117.563 73.7448 117.266 73.5028 117.054 73.1747C116.842 72.8466 116.738 72.4323 116.741 71.9318V64.5341ZM125.073 74.1491C124.288 74.1491 123.612 73.9901 123.045 73.6719C122.481 73.3504 122.047 72.8963 121.742 72.3097C121.437 71.7197 121.285 71.022 121.285 70.2166C121.285 69.4311 121.437 68.7417 121.742 68.1484C122.047 67.5552 122.477 67.0928 123.03 66.7614C123.587 66.4299 124.24 66.2642 124.989 66.2642C125.493 66.2642 125.962 66.3454 126.396 66.5078C126.833 66.6669 127.214 66.9072 127.539 67.2287C127.867 67.5502 128.123 67.9545 128.305 68.4418C128.487 68.9257 128.578 69.4924 128.578 70.142V70.7237H122.13V69.4112H126.585C126.585 69.1063 126.518 68.8362 126.386 68.6009C126.253 68.3655 126.069 68.1816 125.834 68.049C125.602 67.9131 125.332 67.8452 125.024 67.8452C124.702 67.8452 124.417 67.9197 124.169 68.0689C123.923 68.2147 123.731 68.4119 123.592 68.6605C123.453 68.9058 123.381 69.1792 123.378 69.4808V70.7287C123.378 71.1065 123.448 71.433 123.587 71.7081C123.729 71.9832 123.93 72.1953 124.188 72.3445C124.447 72.4936 124.753 72.5682 125.108 72.5682C125.343 72.5682 125.559 72.535 125.754 72.4688C125.95 72.4025 126.117 72.303 126.257 72.1705C126.396 72.0379 126.502 71.8755 126.575 71.6832L128.534 71.8125C128.434 72.2831 128.23 72.6941 127.922 73.0455C127.617 73.3935 127.223 73.6652 126.739 73.8608C126.258 74.053 125.703 74.1491 125.073 74.1491ZM135.378 74.1442C134.891 74.1442 134.457 74.0597 134.076 73.8906C133.694 73.7183 133.393 73.4647 133.171 73.13C132.952 72.7919 132.843 72.371 132.843 71.8672C132.843 71.4429 132.921 71.0866 133.076 70.7983C133.232 70.5099 133.444 70.2779 133.713 70.1023C133.981 69.9266 134.286 69.794 134.627 69.7045C134.972 69.6151 135.333 69.5521 135.711 69.5156C136.155 69.4692 136.513 69.4261 136.785 69.3864C137.057 69.3433 137.254 69.2803 137.377 69.1974C137.499 69.1146 137.561 68.992 137.561 68.8295V68.7997C137.561 68.4848 137.461 68.2412 137.262 68.0689C137.067 67.8965 136.788 67.8104 136.427 67.8104C136.046 67.8104 135.743 67.8949 135.517 68.0639C135.292 68.2296 135.143 68.4384 135.07 68.6903L133.111 68.5312C133.211 68.0672 133.406 67.6662 133.698 67.3281C133.989 66.9867 134.366 66.7249 134.826 66.5426C135.29 66.357 135.827 66.2642 136.437 66.2642C136.861 66.2642 137.267 66.3139 137.655 66.4134C138.046 66.5128 138.393 66.6669 138.694 66.8757C138.999 67.0845 139.239 67.353 139.415 67.6811C139.591 68.0059 139.679 68.3954 139.679 68.8494V74H137.67V72.9411H137.61C137.488 73.1797 137.324 73.3902 137.118 73.5724C136.913 73.7514 136.666 73.8923 136.377 73.995C136.089 74.0945 135.756 74.1442 135.378 74.1442ZM135.985 72.6825C136.296 72.6825 136.571 72.6212 136.81 72.4986C137.049 72.3726 137.236 72.2036 137.372 71.9915C137.508 71.7794 137.576 71.5391 137.576 71.2706V70.4602C137.509 70.5033 137.418 70.5431 137.302 70.5795C137.19 70.6127 137.062 70.6442 136.919 70.674C136.777 70.7005 136.634 70.7254 136.492 70.7486C136.349 70.7685 136.22 70.7867 136.104 70.8033C135.855 70.8397 135.638 70.8977 135.453 70.9773C135.267 71.0568 135.123 71.1645 135.02 71.3004C134.917 71.433 134.866 71.5987 134.866 71.7976C134.866 72.0859 134.971 72.3063 135.179 72.4588C135.391 72.608 135.66 72.6825 135.985 72.6825ZM146.68 69.5852V74H144.562V66.3636H146.58V67.7109H146.67C146.839 67.2668 147.122 66.9155 147.52 66.657C147.918 66.3951 148.4 66.2642 148.967 66.2642C149.497 66.2642 149.959 66.3802 150.354 66.6122C150.748 66.8442 151.055 67.1757 151.274 67.6065C151.492 68.0341 151.602 68.5445 151.602 69.1378V74H149.484V69.5156C149.487 69.0483 149.368 68.6837 149.126 68.4219C148.884 68.1567 148.551 68.0241 148.127 68.0241C147.842 68.0241 147.59 68.0855 147.371 68.2081C147.155 68.3307 146.986 68.5097 146.864 68.745C146.744 68.977 146.683 69.2571 146.68 69.5852ZM156.751 74.1491C155.966 74.1491 155.289 73.9901 154.723 73.6719C154.159 73.3504 153.725 72.8963 153.42 72.3097C153.115 71.7197 152.963 71.022 152.963 70.2166C152.963 69.4311 153.115 68.7417 153.42 68.1484C153.725 67.5552 154.154 67.0928 154.708 66.7614C155.265 66.4299 155.917 66.2642 156.667 66.2642C157.17 66.2642 157.639 66.3454 158.074 66.5078C158.511 66.6669 158.892 66.9072 159.217 67.2287C159.545 67.5502 159.8 67.9545 159.983 68.4418C160.165 68.9257 160.256 69.4924 160.256 70.142V70.7237H153.808V69.4112H158.262C158.262 69.1063 158.196 68.8362 158.064 68.6009C157.931 68.3655 157.747 68.1816 157.512 68.049C157.28 67.9131 157.01 67.8452 156.701 67.8452C156.38 67.8452 156.095 67.9197 155.846 68.0689C155.601 68.2147 155.409 68.4119 155.27 68.6605C155.13 68.9058 155.059 69.1792 155.056 69.4808V70.7287C155.056 71.1065 155.125 71.433 155.265 71.7081C155.407 71.9832 155.608 72.1953 155.866 72.3445C156.125 72.4936 156.431 72.5682 156.786 72.5682C157.021 72.5682 157.237 72.535 157.432 72.4688C157.628 72.4025 157.795 72.303 157.934 72.1705C158.074 72.0379 158.18 71.8755 158.252 71.6832L160.211 71.8125C160.112 72.2831 159.908 72.6941 159.6 73.0455C159.295 73.3935 158.9 73.6652 158.417 73.8608C157.936 74.053 157.381 74.1491 156.751 74.1491ZM163.09 74L161.012 66.3636H163.154L164.338 71.4943H164.407L165.64 66.3636H167.743L168.996 71.4645H169.061L170.224 66.3636H172.362L170.289 74H168.047L166.734 69.1974H166.64L165.327 74H163.09ZM176.732 76.8636V66.3636H178.82V67.6463H178.914C179.007 67.4408 179.141 67.232 179.317 67.0199C179.496 66.8045 179.728 66.6255 180.013 66.483C180.301 66.3371 180.659 66.2642 181.087 66.2642C181.644 66.2642 182.158 66.41 182.628 66.7017C183.099 66.9901 183.475 67.4259 183.757 68.0092C184.038 68.5893 184.179 69.3168 184.179 70.1918C184.179 71.0436 184.042 71.7628 183.767 72.3494C183.495 72.9328 183.124 73.3752 182.653 73.6768C182.186 73.9751 181.662 74.1243 181.082 74.1243C180.671 74.1243 180.321 74.0563 180.033 73.9205C179.748 73.7846 179.514 73.6139 179.332 73.4084C179.15 73.1996 179.011 72.9891 178.914 72.777H178.85V76.8636H176.732ZM178.805 70.1818C178.805 70.6359 178.868 71.032 178.994 71.37C179.12 71.7081 179.302 71.9716 179.541 72.1605C179.779 72.3461 180.069 72.4389 180.411 72.4389C180.756 72.4389 181.047 72.3445 181.286 72.1555C181.525 71.9633 181.705 71.6982 181.828 71.3601C181.954 71.0187 182.017 70.6259 182.017 70.1818C182.017 69.741 181.955 69.3532 181.833 69.0185C181.71 68.6837 181.529 68.4219 181.291 68.233C181.052 68.044 180.759 67.9496 180.411 67.9496C180.066 67.9496 179.775 68.0407 179.536 68.223C179.301 68.4053 179.12 68.6638 178.994 68.9986C178.868 69.3333 178.805 69.7277 178.805 70.1818ZM185.591 74V66.3636H187.709V74H185.591ZM186.655 65.3793C186.34 65.3793 186.07 65.2749 185.845 65.0661C185.623 64.8539 185.512 64.6004 185.512 64.3054C185.512 64.0137 185.623 63.7635 185.845 63.5547C186.07 63.3426 186.34 63.2365 186.655 63.2365C186.97 63.2365 187.239 63.3426 187.461 63.5547C187.686 63.7635 187.799 64.0137 187.799 64.3054C187.799 64.6004 187.686 64.8539 187.461 65.0661C187.239 65.2749 186.97 65.3793 186.655 65.3793ZM189.406 76.8636V66.3636H191.494V67.6463H191.588C191.681 67.4408 191.815 67.232 191.991 67.0199C192.17 66.8045 192.402 66.6255 192.687 66.483C192.975 66.3371 193.333 66.2642 193.761 66.2642C194.318 66.2642 194.831 66.41 195.302 66.7017C195.773 66.9901 196.149 67.4259 196.431 68.0092C196.712 68.5893 196.853 69.3168 196.853 70.1918C196.853 71.0436 196.716 71.7628 196.441 72.3494C196.169 72.9328 195.798 73.3752 195.327 73.6768C194.86 73.9751 194.336 74.1243 193.756 74.1243C193.345 74.1243 192.995 74.0563 192.707 73.9205C192.422 73.7846 192.188 73.6139 192.006 73.4084C191.824 73.1996 191.684 72.9891 191.588 72.777H191.524V76.8636H189.406ZM191.479 70.1818C191.479 70.6359 191.542 71.032 191.668 71.37C191.794 71.7081 191.976 71.9716 192.215 72.1605C192.453 72.3461 192.743 72.4389 193.085 72.4389C193.429 72.4389 193.721 72.3445 193.96 72.1555C194.198 71.9633 194.379 71.6982 194.502 71.3601C194.628 71.0187 194.691 70.6259 194.691 70.1818C194.691 69.741 194.629 69.3532 194.507 69.0185C194.384 68.6837 194.203 68.4219 193.965 68.233C193.726 68.044 193.433 67.9496 193.085 67.9496C192.74 67.9496 192.448 68.0407 192.21 68.223C191.974 68.4053 191.794 68.6638 191.668 68.9986C191.542 69.3333 191.479 69.7277 191.479 70.1818ZM201.745 74.1491C200.96 74.1491 200.284 73.9901 199.717 73.6719C199.153 73.3504 198.719 72.8963 198.414 72.3097C198.109 71.7197 197.957 71.022 197.957 70.2166C197.957 69.4311 198.109 68.7417 198.414 68.1484C198.719 67.5552 199.148 67.0928 199.702 66.7614C200.259 66.4299 200.912 66.2642 201.661 66.2642C202.164 66.2642 202.633 66.3454 203.068 66.5078C203.505 66.6669 203.886 66.9072 204.211 67.2287C204.539 67.5502 204.794 67.9545 204.977 68.4418C205.159 68.9257 205.25 69.4924 205.25 70.142V70.7237H198.802V69.4112H203.257C203.257 69.1063 203.19 68.8362 203.058 68.6009C202.925 68.3655 202.741 68.1816 202.506 68.049C202.274 67.9131 202.004 67.8452 201.695 67.8452C201.374 67.8452 201.089 67.9197 200.84 68.0689C200.595 68.2147 200.403 68.4119 200.264 68.6605C200.124 68.9058 200.053 69.1792 200.05 69.4808V70.7287C200.05 71.1065 200.119 71.433 200.259 71.7081C200.401 71.9832 200.602 72.1953 200.86 72.3445C201.119 72.4936 201.425 72.5682 201.78 72.5682C202.015 72.5682 202.231 72.535 202.426 72.4688C202.622 72.4025 202.789 72.303 202.928 72.1705C203.068 72.0379 203.174 71.8755 203.247 71.6832L205.205 71.8125C205.106 72.2831 204.902 72.6941 204.594 73.0455C204.289 73.3935 203.895 73.6652 203.411 73.8608C202.93 74.053 202.375 74.1491 201.745 74.1491ZM208.75 63.8182V74H206.632V63.8182H208.75ZM210.447 74V66.3636H212.565V74H210.447ZM211.511 65.3793C211.196 65.3793 210.926 65.2749 210.7 65.0661C210.478 64.8539 210.367 64.6004 210.367 64.3054C210.367 64.0137 210.478 63.7635 210.7 63.5547C210.926 63.3426 211.196 63.2365 211.511 63.2365C211.826 63.2365 212.094 63.3426 212.316 63.5547C212.541 63.7635 212.654 64.0137 212.654 64.3054C212.654 64.6004 212.541 64.8539 212.316 65.0661C212.094 65.2749 211.826 65.3793 211.511 65.3793ZM216.379 69.5852V74H214.261V66.3636H216.28V67.7109H216.369C216.538 67.2668 216.822 66.9155 217.219 66.657C217.617 66.3951 218.099 66.2642 218.666 66.2642C219.196 66.2642 219.659 66.3802 220.053 66.6122C220.448 66.8442 220.754 67.1757 220.973 67.6065C221.192 68.0341 221.301 68.5445 221.301 69.1378V74H219.183V69.5156C219.186 69.0483 219.067 68.6837 218.825 68.4219C218.583 68.1567 218.25 68.0241 217.826 68.0241C217.541 68.0241 217.289 68.0855 217.07 68.2081C216.855 68.3307 216.686 68.5097 216.563 68.745C216.444 68.977 216.382 69.2571 216.379 69.5852ZM226.45 74.1491C225.665 74.1491 224.989 73.9901 224.422 73.6719C223.858 73.3504 223.424 72.8963 223.119 72.3097C222.814 71.7197 222.662 71.022 222.662 70.2166C222.662 69.4311 222.814 68.7417 223.119 68.1484C223.424 67.5552 223.853 67.0928 224.407 66.7614C224.964 66.4299 225.617 66.2642 226.366 66.2642C226.87 66.2642 227.339 66.3454 227.773 66.5078C228.21 66.6669 228.591 66.9072 228.916 67.2287C229.244 67.5502 229.5 67.9545 229.682 68.4418C229.864 68.9257 229.955 69.4924 229.955 70.142V70.7237H223.507V69.4112H227.962C227.962 69.1063 227.895 68.8362 227.763 68.6009C227.63 68.3655 227.446 68.1816 227.211 68.049C226.979 67.9131 226.709 67.8452 226.401 67.8452C226.079 67.8452 225.794 67.9197 225.545 68.0689C225.3 68.2147 225.108 68.4119 224.969 68.6605C224.83 68.9058 224.758 69.1792 224.755 69.4808V70.7287C224.755 71.1065 224.825 71.433 224.964 71.7081C225.106 71.9832 225.307 72.1953 225.565 72.3445C225.824 72.4936 226.13 72.5682 226.485 72.5682C226.72 72.5682 226.936 72.535 227.131 72.4688C227.327 72.4025 227.494 72.303 227.634 72.1705C227.773 72.0379 227.879 71.8755 227.952 71.6832L229.911 71.8125C229.811 72.2831 229.607 72.6941 229.299 73.0455C228.994 73.3935 228.6 73.6652 228.116 73.8608C227.635 74.053 227.08 74.1491 226.45 74.1491Z" fill="#486581"/>
<circle cx="89.834" cy="101.834" r="6.33398" stroke="#486581"/>
<rect x="104.668" y="99.3472" width="172.961" height="4.97338" rx="2.48669" fill="#D9E2EC"/>
<circle cx="89.833" cy="101.834" r="3.77832" fill="#486581"/>
<circle cx="89.834" cy="123.502" r="6.33398" stroke="#486581"/>
<rect x="104.668" y="121.015" width="158.93" height="4.97338" rx="2.48669" fill="#D9E2EC"/>
<circle cx="89.834" cy="145.17" r="6.33398" stroke="#486581"/>
<rect x="104.668" y="142.683" width="180.613" height="4.97338" rx="2.48669" fill="#D9E2EC"/>
<path d="M91.2206 173.01V182.004H90.1667L85.2659 174.943H85.1781V182.004H84.0891V173.01H85.143L90.0613 180.089H90.1491V173.01H91.2206ZM95.2442 182.162C94.8168 182.162 94.4289 182.081 94.0805 181.92C93.7321 181.757 93.4554 181.521 93.2505 181.213C93.0456 180.903 92.9431 180.528 92.9431 180.089C92.9431 179.703 93.0192 179.39 93.1715 179.15C93.3237 178.907 93.5272 178.716 93.7819 178.579C94.0366 178.441 94.3176 178.339 94.625 178.271C94.9353 178.201 95.2471 178.145 95.5604 178.104C95.9702 178.052 96.3025 178.012 96.5572 177.986C96.8148 177.957 97.0022 177.908 97.1193 177.841C97.2393 177.774 97.2993 177.656 97.2993 177.49V177.454C97.2993 177.021 97.1808 176.685 96.9436 176.444C96.7094 176.204 96.3537 176.084 95.8766 176.084C95.3818 176.084 94.9939 176.193 94.7128 176.409C94.4318 176.626 94.2342 176.857 94.12 177.103L93.1363 176.752C93.312 176.342 93.5462 176.023 93.839 175.795C94.1346 175.563 94.4567 175.402 94.8051 175.311C95.1564 175.218 95.5018 175.171 95.8414 175.171C96.0581 175.171 96.3069 175.197 96.5879 175.25C96.8719 175.3 97.1457 175.404 97.4091 175.562C97.6755 175.72 97.8966 175.958 98.0722 176.278C98.2479 176.597 98.3357 177.024 98.3357 177.56V182.004H97.2993V181.091H97.2467C97.1764 181.237 97.0593 181.394 96.8953 181.56C96.7314 181.727 96.5133 181.869 96.241 181.986C95.9688 182.103 95.6365 182.162 95.2442 182.162ZM95.4023 181.231C95.8121 181.231 96.1576 181.151 96.4386 180.99C96.7226 180.828 96.9363 180.621 97.0798 180.366C97.2262 180.111 97.2993 179.843 97.2993 179.562V178.614C97.2554 178.666 97.1588 178.715 97.0095 178.759C96.8631 178.8 96.6933 178.836 96.5001 178.868C96.3098 178.898 96.1239 178.924 95.9424 178.948C95.7638 178.968 95.6189 178.986 95.5077 179C95.2383 179.035 94.9866 179.092 94.7524 179.171C94.5211 179.248 94.3337 179.363 94.1903 179.518C94.0497 179.671 93.9795 179.878 93.9795 180.142C93.9795 180.502 94.1127 180.774 94.3791 180.959C94.6484 181.14 94.9895 181.231 95.4023 181.231ZM100.227 182.004V175.259H101.229V176.313H101.316C101.457 175.953 101.684 175.673 101.997 175.474C102.31 175.272 102.686 175.171 103.126 175.171C103.571 175.171 103.941 175.272 104.237 175.474C104.535 175.673 104.768 175.953 104.935 176.313H105.005C105.178 175.964 105.437 175.688 105.782 175.483C106.128 175.275 106.542 175.171 107.025 175.171C107.628 175.171 108.121 175.36 108.505 175.737C108.889 176.112 109.08 176.696 109.08 177.49V182.004H108.044V177.49C108.044 176.992 107.908 176.636 107.635 176.422C107.363 176.209 107.043 176.102 106.674 176.102C106.2 176.102 105.832 176.245 105.572 176.532C105.311 176.816 105.181 177.176 105.181 177.613V182.004H104.127V177.384C104.127 177.001 104.002 176.692 103.754 176.458C103.505 176.22 103.184 176.102 102.792 176.102C102.522 176.102 102.271 176.174 102.037 176.317C101.805 176.461 101.618 176.66 101.474 176.914C101.334 177.166 101.264 177.457 101.264 177.788V182.004H100.227ZM113.803 182.144C113.153 182.144 112.593 182.001 112.121 181.714C111.653 181.424 111.291 181.02 111.037 180.502C110.785 179.981 110.659 179.375 110.659 178.684C110.659 177.993 110.785 177.384 111.037 176.857C111.291 176.327 111.646 175.915 112.099 175.619C112.556 175.32 113.089 175.171 113.698 175.171C114.049 175.171 114.396 175.23 114.739 175.347C115.081 175.464 115.393 175.654 115.674 175.917C115.955 176.178 116.179 176.523 116.346 176.954C116.513 177.384 116.596 177.914 116.596 178.544V178.983H111.397V178.087H115.542C115.542 177.706 115.466 177.367 115.314 177.068C115.164 176.769 114.951 176.534 114.673 176.361C114.397 176.188 114.072 176.102 113.698 176.102C113.285 176.102 112.928 176.204 112.626 176.409C112.328 176.611 112.098 176.875 111.937 177.2C111.776 177.525 111.695 177.873 111.695 178.245V178.842C111.695 179.352 111.783 179.783 111.959 180.138C112.137 180.489 112.385 180.757 112.701 180.941C113.017 181.123 113.385 181.213 113.803 181.213C114.075 181.213 114.321 181.175 114.541 181.099C114.763 181.02 114.955 180.903 115.116 180.748C115.277 180.59 115.402 180.394 115.489 180.16L116.491 180.441C116.385 180.78 116.208 181.079 115.959 181.336C115.71 181.591 115.403 181.79 115.037 181.934C114.671 182.074 114.26 182.144 113.803 182.144Z" fill="#486581"/>
<rect x="83.4416" y="194.512" width="233.117" height="33.1167" rx="3.05999" fill="#FAFCFE"/>
<rect x="83.4416" y="194.512" width="233.117" height="33.1167" rx="3.05999" stroke="#C9D4DE" stroke-width="0.88329"/>
<rect x="83" y="244.07" width="159.066" height="28.5164" rx="14.2582" fill="#2680C2"/>
<path d="M112.681 256.53H110.773C110.738 256.283 110.667 256.063 110.559 255.872C110.452 255.677 110.314 255.511 110.146 255.375C109.977 255.238 109.782 255.134 109.562 255.061C109.344 254.989 109.107 254.952 108.852 254.952C108.39 254.952 107.987 255.067 107.645 255.297C107.302 255.523 107.036 255.854 106.847 256.29C106.659 256.723 106.564 257.248 106.564 257.867C106.564 258.503 106.659 259.038 106.847 259.47C107.039 259.903 107.306 260.23 107.649 260.451C107.992 260.672 108.388 260.782 108.838 260.782C109.091 260.782 109.325 260.748 109.54 260.682C109.758 260.615 109.951 260.518 110.119 260.39C110.288 260.259 110.427 260.101 110.538 259.915C110.651 259.729 110.729 259.517 110.773 259.279L112.681 259.287C112.632 259.697 112.508 260.092 112.311 260.473C112.116 260.85 111.853 261.189 111.522 261.488C111.194 261.784 110.802 262.019 110.346 262.194C109.893 262.365 109.38 262.451 108.808 262.451C108.012 262.451 107.3 262.271 106.673 261.91C106.049 261.55 105.555 261.029 105.192 260.346C104.832 259.664 104.651 258.837 104.651 257.867C104.651 256.894 104.834 256.066 105.2 255.384C105.566 254.701 106.063 254.181 106.691 253.824C107.318 253.464 108.024 253.284 108.808 253.284C109.325 253.284 109.804 253.356 110.246 253.501C110.69 253.647 111.084 253.859 111.426 254.138C111.769 254.414 112.048 254.752 112.263 255.153C112.481 255.554 112.62 256.013 112.681 256.53ZM113.999 262.329V255.636H115.799V256.804H115.868C115.99 256.389 116.195 256.075 116.483 255.863C116.77 255.648 117.101 255.541 117.476 255.541C117.569 255.541 117.669 255.546 117.777 255.558C117.884 255.57 117.979 255.586 118.06 255.606V257.253C117.973 257.227 117.852 257.203 117.698 257.183C117.544 257.163 117.403 257.153 117.276 257.153C117.003 257.153 116.759 257.212 116.544 257.331C116.332 257.447 116.163 257.61 116.038 257.819C115.916 258.028 115.855 258.269 115.855 258.542V262.329H113.999ZM121.758 262.459C121.069 262.459 120.477 262.32 119.98 262.041C119.486 261.759 119.106 261.361 118.839 260.847C118.572 260.33 118.438 259.719 118.438 259.013C118.438 258.325 118.572 257.72 118.839 257.2C119.106 256.681 119.482 256.275 119.967 255.985C120.455 255.694 121.027 255.549 121.684 255.549C122.125 255.549 122.536 255.62 122.917 255.763C123.3 255.902 123.634 256.113 123.919 256.394C124.206 256.676 124.43 257.031 124.59 257.458C124.75 257.882 124.83 258.378 124.83 258.948V259.457H119.179V258.307H123.082C123.082 258.04 123.024 257.803 122.908 257.597C122.792 257.391 122.631 257.23 122.424 257.113C122.221 256.994 121.984 256.935 121.714 256.935C121.433 256.935 121.183 257 120.965 257.131C120.75 257.259 120.582 257.431 120.46 257.649C120.338 257.864 120.275 258.104 120.272 258.368V259.462C120.272 259.793 120.333 260.079 120.455 260.32C120.58 260.561 120.756 260.747 120.982 260.878C121.209 261.008 121.478 261.074 121.788 261.074C121.995 261.074 122.183 261.045 122.355 260.987C122.526 260.929 122.673 260.841 122.795 260.725C122.917 260.609 123.01 260.467 123.074 260.298L124.79 260.412C124.703 260.824 124.525 261.184 124.254 261.492C123.987 261.797 123.642 262.035 123.217 262.207C122.796 262.375 122.31 262.459 121.758 262.459ZM127.949 262.455C127.522 262.455 127.142 262.381 126.808 262.233C126.474 262.082 126.209 261.86 126.015 261.566C125.823 261.27 125.727 260.901 125.727 260.459C125.727 260.088 125.795 259.775 125.932 259.523C126.068 259.27 126.254 259.067 126.49 258.913C126.725 258.759 126.992 258.643 127.291 258.564C127.593 258.486 127.91 258.431 128.241 258.399C128.63 258.358 128.944 258.32 129.182 258.285C129.42 258.248 129.593 258.192 129.701 258.12C129.808 258.047 129.862 257.94 129.862 257.797V257.771C129.862 257.495 129.775 257.282 129.6 257.131C129.429 256.98 129.185 256.904 128.868 256.904C128.534 256.904 128.269 256.978 128.071 257.126C127.874 257.272 127.743 257.455 127.679 257.675L125.962 257.536C126.049 257.129 126.221 256.778 126.476 256.482C126.732 256.182 127.062 255.953 127.465 255.793C127.872 255.631 128.343 255.549 128.877 255.549C129.249 255.549 129.605 255.593 129.945 255.68C130.287 255.767 130.591 255.902 130.855 256.085C131.122 256.268 131.333 256.503 131.487 256.791C131.641 257.076 131.718 257.417 131.718 257.815V262.329H129.958V261.401H129.905C129.798 261.61 129.654 261.794 129.474 261.954C129.294 262.111 129.078 262.234 128.825 262.324C128.572 262.411 128.28 262.455 127.949 262.455ZM128.481 261.174C128.754 261.174 128.995 261.12 129.204 261.013C129.413 260.902 129.577 260.754 129.696 260.568C129.815 260.383 129.875 260.172 129.875 259.937V259.226C129.817 259.264 129.737 259.299 129.635 259.331C129.536 259.36 129.425 259.388 129.3 259.414C129.175 259.437 129.05 259.459 128.925 259.479C128.8 259.497 128.687 259.513 128.585 259.527C128.367 259.559 128.177 259.61 128.014 259.68C127.852 259.749 127.725 259.844 127.635 259.963C127.545 260.079 127.5 260.224 127.5 260.398C127.5 260.651 127.592 260.844 127.775 260.978C127.961 261.109 128.196 261.174 128.481 261.174ZM136.717 255.636V257.031H132.687V255.636H136.717ZM133.602 254.033H135.458V260.272C135.458 260.444 135.484 260.577 135.537 260.673C135.589 260.766 135.662 260.831 135.755 260.869C135.85 260.907 135.961 260.926 136.086 260.926C136.173 260.926 136.26 260.918 136.347 260.904C136.434 260.886 136.501 260.873 136.547 260.865L136.839 262.246C136.746 262.275 136.616 262.308 136.447 262.346C136.279 262.387 136.074 262.411 135.833 262.42C135.386 262.438 134.994 262.378 134.657 262.241C134.323 262.105 134.063 261.893 133.877 261.605C133.691 261.318 133.599 260.955 133.602 260.516V254.033ZM140.904 262.459C140.216 262.459 139.623 262.32 139.127 262.041C138.633 261.759 138.253 261.361 137.985 260.847C137.718 260.33 137.584 259.719 137.584 259.013C137.584 258.325 137.718 257.72 137.985 257.2C138.253 256.681 138.629 256.275 139.114 255.985C139.602 255.694 140.174 255.549 140.83 255.549C141.272 255.549 141.683 255.62 142.063 255.763C142.447 255.902 142.781 256.113 143.065 256.394C143.353 256.676 143.577 257.031 143.736 257.458C143.896 257.882 143.976 258.378 143.976 258.948V259.457H138.325V258.307H142.229C142.229 258.04 142.171 257.803 142.055 257.597C141.938 257.391 141.777 257.23 141.571 257.113C141.368 256.994 141.131 256.935 140.861 256.935C140.579 256.935 140.329 257 140.111 257.131C139.897 257.259 139.728 257.431 139.606 257.649C139.484 257.864 139.422 258.104 139.419 258.368V259.462C139.419 259.793 139.48 260.079 139.602 260.32C139.727 260.561 139.902 260.747 140.129 260.878C140.355 261.008 140.624 261.074 140.935 261.074C141.141 261.074 141.33 261.045 141.501 260.987C141.673 260.929 141.819 260.841 141.941 260.725C142.063 260.609 142.156 260.467 142.22 260.298L143.937 260.412C143.85 260.824 143.671 261.184 143.401 261.492C143.134 261.797 142.788 262.035 142.364 262.207C141.943 262.375 141.456 262.459 140.904 262.459ZM151.587 255.636V257.031H147.556V255.636H151.587ZM148.471 254.033H150.327V260.272C150.327 260.444 150.354 260.577 150.406 260.673C150.458 260.766 150.531 260.831 150.624 260.869C150.72 260.907 150.83 260.926 150.955 260.926C151.042 260.926 151.129 260.918 151.216 260.904C151.303 260.886 151.37 260.873 151.417 260.865L151.709 262.246C151.616 262.275 151.485 262.308 151.316 262.346C151.148 262.387 150.943 262.411 150.702 262.42C150.255 262.438 149.863 262.378 149.526 262.241C149.192 262.105 148.932 261.893 148.746 261.605C148.56 261.318 148.468 260.955 148.471 260.516V254.033ZM154.795 258.46V262.329H152.939V253.406H154.743V256.817H154.822C154.973 256.422 155.217 256.113 155.554 255.889C155.89 255.663 156.313 255.549 156.821 255.549C157.286 255.549 157.691 255.651 158.037 255.854C158.386 256.055 158.656 256.344 158.847 256.721C159.042 257.096 159.138 257.545 159.135 258.068V262.329H157.279V258.399C157.282 257.986 157.177 257.665 156.965 257.436C156.756 257.206 156.463 257.092 156.085 257.092C155.832 257.092 155.609 257.145 155.414 257.253C155.222 257.36 155.071 257.517 154.961 257.723C154.854 257.927 154.798 258.172 154.795 258.46ZM160.596 262.329V255.636H162.452V262.329H160.596ZM161.528 254.774C161.252 254.774 161.015 254.682 160.818 254.499C160.623 254.313 160.526 254.091 160.526 253.833C160.526 253.577 160.623 253.358 160.818 253.175C161.015 252.989 161.252 252.896 161.528 252.896C161.804 252.896 162.039 252.989 162.234 253.175C162.431 253.358 162.53 253.577 162.53 253.833C162.53 254.091 162.431 254.313 162.234 254.499C162.039 254.682 161.804 254.774 161.528 254.774ZM169.507 257.545L167.807 257.649C167.778 257.504 167.716 257.373 167.62 257.257C167.524 257.138 167.398 257.044 167.241 256.974C167.087 256.901 166.903 256.865 166.688 256.865C166.4 256.865 166.158 256.926 165.96 257.048C165.763 257.167 165.664 257.327 165.664 257.527C165.664 257.687 165.728 257.822 165.856 257.932C165.983 258.043 166.203 258.131 166.513 258.198L167.725 258.442C168.375 258.576 168.86 258.791 169.18 259.087C169.499 259.383 169.659 259.773 169.659 260.255C169.659 260.693 169.53 261.078 169.271 261.409C169.016 261.74 168.664 261.999 168.217 262.185C167.773 262.368 167.26 262.459 166.679 262.459C165.793 262.459 165.087 262.275 164.562 261.906C164.039 261.534 163.732 261.029 163.642 260.39L165.468 260.294C165.523 260.564 165.657 260.77 165.869 260.913C166.081 261.052 166.352 261.122 166.683 261.122C167.009 261.122 167.27 261.059 167.468 260.934C167.668 260.807 167.77 260.642 167.773 260.442C167.77 260.274 167.699 260.136 167.559 260.028C167.42 259.918 167.205 259.834 166.914 259.775L165.755 259.545C165.102 259.414 164.615 259.187 164.296 258.865C163.979 258.542 163.821 258.131 163.821 257.632C163.821 257.202 163.937 256.832 164.169 256.521C164.405 256.21 164.734 255.97 165.158 255.802C165.585 255.633 166.085 255.549 166.657 255.549C167.502 255.549 168.168 255.728 168.653 256.085C169.141 256.442 169.425 256.929 169.507 257.545ZM173.668 264.838V255.636H175.497V256.76H175.58C175.662 256.58 175.779 256.397 175.933 256.211C176.09 256.023 176.293 255.866 176.543 255.741C176.796 255.613 177.109 255.549 177.484 255.549C177.972 255.549 178.422 255.677 178.835 255.933C179.247 256.185 179.577 256.567 179.824 257.079C180.071 257.587 180.194 258.224 180.194 258.991C180.194 259.738 180.074 260.368 179.833 260.882C179.594 261.393 179.269 261.781 178.857 262.045C178.447 262.307 177.988 262.438 177.48 262.438C177.12 262.438 176.813 262.378 176.561 262.259C176.311 262.14 176.106 261.99 175.946 261.81C175.786 261.627 175.664 261.443 175.58 261.257H175.524V264.838H173.668ZM175.484 258.982C175.484 259.38 175.54 259.728 175.65 260.024C175.76 260.32 175.92 260.551 176.129 260.717C176.338 260.879 176.592 260.961 176.892 260.961C177.194 260.961 177.449 260.878 177.658 260.712C177.868 260.544 178.026 260.311 178.133 260.015C178.244 259.716 178.299 259.372 178.299 258.982C178.299 258.596 178.245 258.256 178.138 257.963C178.03 257.67 177.872 257.44 177.663 257.275C177.454 257.109 177.197 257.026 176.892 257.026C176.59 257.026 176.334 257.106 176.125 257.266C175.919 257.426 175.76 257.652 175.65 257.946C175.54 258.239 175.484 258.585 175.484 258.982ZM181.432 262.329V255.636H183.288V262.329H181.432ZM182.364 254.774C182.088 254.774 181.851 254.682 181.654 254.499C181.459 254.313 181.362 254.091 181.362 253.833C181.362 253.577 181.459 253.358 181.654 253.175C181.851 252.989 182.088 252.896 182.364 252.896C182.64 252.896 182.875 252.989 183.07 253.175C183.267 253.358 183.366 253.577 183.366 253.833C183.366 254.091 183.267 254.313 183.07 254.499C182.875 254.682 182.64 254.774 182.364 254.774ZM184.774 264.838V255.636H186.604V256.76H186.687C186.768 256.58 186.886 256.397 187.04 256.211C187.197 256.023 187.4 255.866 187.65 255.741C187.903 255.613 188.216 255.549 188.591 255.549C189.079 255.549 189.529 255.677 189.942 255.933C190.354 256.185 190.684 256.567 190.931 257.079C191.178 257.587 191.301 258.224 191.301 258.991C191.301 259.738 191.181 260.368 190.939 260.882C190.701 261.393 190.376 261.781 189.964 262.045C189.554 262.307 189.095 262.438 188.587 262.438C188.227 262.438 187.92 262.378 187.667 262.259C187.418 262.14 187.213 261.99 187.053 261.81C186.893 261.627 186.771 261.443 186.687 261.257H186.63V264.838H184.774ZM186.591 258.982C186.591 259.38 186.646 259.728 186.757 260.024C186.867 260.32 187.027 260.551 187.236 260.717C187.445 260.879 187.699 260.961 187.999 260.961C188.301 260.961 188.556 260.878 188.765 260.712C188.975 260.544 189.133 260.311 189.24 260.015C189.351 259.716 189.406 259.372 189.406 258.982C189.406 258.596 189.352 258.256 189.245 257.963C189.137 257.67 188.979 257.44 188.77 257.275C188.561 257.109 188.304 257.026 187.999 257.026C187.696 257.026 187.441 257.106 187.232 257.266C187.026 257.426 186.867 257.652 186.757 257.946C186.646 258.239 186.591 258.585 186.591 258.982ZM195.588 262.459C194.9 262.459 194.307 262.32 193.811 262.041C193.317 261.759 192.936 261.361 192.669 260.847C192.402 260.33 192.268 259.719 192.268 259.013C192.268 258.325 192.402 257.72 192.669 257.2C192.936 256.681 193.313 256.275 193.798 255.985C194.286 255.694 194.858 255.549 195.514 255.549C195.956 255.549 196.367 255.62 196.747 255.763C197.131 255.902 197.465 256.113 197.749 256.394C198.037 256.676 198.261 257.031 198.42 257.458C198.58 257.882 198.66 258.378 198.66 258.948V259.457H193.009V258.307H196.913C196.913 258.04 196.855 257.803 196.739 257.597C196.622 257.391 196.461 257.23 196.255 257.113C196.052 256.994 195.815 256.935 195.545 256.935C195.263 256.935 195.013 257 194.795 257.131C194.58 257.259 194.412 257.431 194.29 257.649C194.168 257.864 194.106 258.104 194.103 258.368V259.462C194.103 259.793 194.164 260.079 194.286 260.32C194.411 260.561 194.586 260.747 194.813 260.878C195.039 261.008 195.308 261.074 195.619 261.074C195.825 261.074 196.014 261.045 196.185 260.987C196.357 260.929 196.503 260.841 196.625 260.725C196.747 260.609 196.84 260.467 196.904 260.298L198.621 260.412C198.534 260.824 198.355 261.184 198.085 261.492C197.818 261.797 197.472 262.035 197.048 262.207C196.627 262.375 196.14 262.459 195.588 262.459ZM201.727 253.406V262.329H199.871V253.406H201.727ZM203.214 262.329V255.636H205.07V262.329H203.214ZM204.146 254.774C203.871 254.774 203.634 254.682 203.436 254.499C203.242 254.313 203.144 254.091 203.144 253.833C203.144 253.577 203.242 253.358 203.436 253.175C203.634 252.989 203.871 252.896 204.146 252.896C204.422 252.896 204.658 252.989 204.852 253.175C205.05 253.358 205.149 253.577 205.149 253.833C205.149 254.091 205.05 254.313 204.852 254.499C204.658 254.682 204.422 254.774 204.146 254.774ZM208.413 258.46V262.329H206.557V255.636H208.326V256.817H208.404C208.552 256.428 208.801 256.12 209.149 255.893C209.498 255.664 209.92 255.549 210.417 255.549C210.882 255.549 211.287 255.651 211.633 255.854C211.978 256.058 212.247 256.348 212.439 256.726C212.63 257.1 212.726 257.548 212.726 258.068V262.329H210.87V258.399C210.873 257.989 210.769 257.67 210.557 257.44C210.345 257.208 210.053 257.092 209.681 257.092C209.431 257.092 209.21 257.145 209.019 257.253C208.83 257.36 208.682 257.517 208.574 257.723C208.47 257.927 208.416 258.172 208.413 258.46ZM217.239 262.459C216.551 262.459 215.958 262.32 215.461 262.041C214.968 261.759 214.587 261.361 214.32 260.847C214.053 260.33 213.919 259.719 213.919 259.013C213.919 258.325 214.053 257.72 214.32 257.2C214.587 256.681 214.963 256.275 215.448 255.985C215.936 255.694 216.509 255.549 217.165 255.549C217.606 255.549 218.017 255.62 218.398 255.763C218.781 255.902 219.115 256.113 219.4 256.394C219.688 256.676 219.911 257.031 220.071 257.458C220.231 257.882 220.311 258.378 220.311 258.948V259.457H214.66V258.307H218.564C218.564 258.04 218.505 257.803 218.389 257.597C218.273 257.391 218.112 257.23 217.906 257.113C217.702 256.994 217.466 256.935 217.195 256.935C216.914 256.935 216.664 257 216.446 257.131C216.231 257.259 216.063 257.431 215.941 257.649C215.819 257.864 215.756 258.104 215.753 258.368V259.462C215.753 259.793 215.814 260.079 215.936 260.32C216.061 260.561 216.237 260.747 216.464 260.878C216.69 261.008 216.959 261.074 217.27 261.074C217.476 261.074 217.665 261.045 217.836 260.987C218.007 260.929 218.154 260.841 218.276 260.725C218.398 260.609 218.491 260.467 218.555 260.298L220.271 260.412C220.184 260.824 220.006 261.184 219.736 261.492C219.468 261.797 219.123 262.035 218.699 262.207C218.277 262.375 217.791 262.459 217.239 262.459Z" fill="white"/>
</g>
<defs>
<filter id="filter0_dd_1216_250193" x="46.4111" y="34" width="307.178" height="287.764" filterUnits="userSpaceOnUse" color-interpolation-filters="sRGB">
<feFlood flood-opacity="0" result="BackgroundImageFix"/>
<feColorMatrix in="SourceAlpha" type="matrix" values="0 0 0 0 0 0 0 0 0 0 0 0 0 0 0 0 0 0 127 0" result="hardAlpha"/>
<feMorphology radius="2.09815" operator="erode" in="SourceAlpha" result="effect1_dropShadow_1216_250193"/>
<feOffset dy="4.19629"/>
<feGaussianBlur stdDeviation="3.14722"/>
<feComposite in2="hardAlpha" operator="out"/>
<feColorMatrix type="matrix" values="0 0 0 0 0 0 0 0 0 0 0 0 0 0 0 0 0 0 0.03 0"/>
<feBlend mode="normal" in2="BackgroundImageFix" result="effect1_dropShadow_1216_250193"/>
<feColorMatrix in="SourceAlpha" type="matrix" values="0 0 0 0 0 0 0 0 0 0 0 0 0 0 0 0 0 0 127 0" result="hardAlpha"/>
<feMorphology radius="4.19629" operator="erode" in="SourceAlpha" result="effect2_dropShadow_1216_250193"/>
<feOffset dy="12.5889"/>
<feGaussianBlur stdDeviation="8.39259"/>
<feComposite in2="hardAlpha" operator="out"/>
<feColorMatrix type="matrix" values="0 0 0 0 0 0 0 0 0 0 0 0 0 0 0 0 0 0 0.08 0"/>
<feBlend mode="normal" in2="effect1_dropShadow_1216_250193" result="effect2_dropShadow_1216_250193"/>
<feBlend mode="normal" in="SourceGraphic" in2="effect2_dropShadow_1216_250193" result="shape"/>
</filter>
</defs>
</svg>
