<svg width="500" height="348" viewBox="0 0 500 348" fill="none" xmlns="http://www.w3.org/2000/svg">
<g filter="url(#filter0_dd_1232_67405)">
<g clip-path="url(#clip0_1232_67405)">
<rect x="86.2305" y="31.0583" width="327" height="275.105" rx="9.94677" fill="white"/>
<path d="M102.728 54.6514V52.8765H111.09V54.6514H107.973V63.0583H105.845V54.6514H102.728ZM113.566 63.2025C113.078 63.2025 112.644 63.118 112.263 62.949C111.882 62.7766 111.58 62.5231 111.358 62.1883C111.14 61.8503 111.03 61.4293 111.03 60.9255C111.03 60.5013 111.108 60.145 111.264 59.8566C111.42 59.5683 111.632 59.3363 111.9 59.1606C112.169 58.985 112.474 58.8524 112.815 58.7629C113.16 58.6734 113.521 58.6104 113.899 58.574C114.343 58.5276 114.701 58.4845 114.973 58.4447C115.244 58.4016 115.442 58.3387 115.564 58.2558C115.687 58.1729 115.748 58.0503 115.748 57.8879V57.8581C115.748 57.5432 115.649 57.2996 115.45 57.1272C115.254 56.9549 114.976 56.8687 114.615 56.8687C114.234 56.8687 113.93 56.9532 113.705 57.1223C113.48 57.288 113.33 57.4968 113.257 57.7487L111.299 57.5896C111.398 57.1256 111.594 56.7245 111.885 56.3865C112.177 56.0451 112.553 55.7833 113.014 55.601C113.478 55.4154 114.015 55.3226 114.625 55.3226C115.049 55.3226 115.455 55.3723 115.843 55.4717C116.234 55.5711 116.58 55.7253 116.882 55.9341C117.187 56.1429 117.427 56.4113 117.603 56.7395C117.778 57.0643 117.866 57.4537 117.866 57.9078V63.0583H115.858V61.9994H115.798C115.675 62.238 115.511 62.4485 115.306 62.6308C115.1 62.8098 114.853 62.9506 114.565 63.0534C114.277 63.1528 113.944 63.2025 113.566 63.2025ZM114.172 61.7409C114.484 61.7409 114.759 61.6796 114.998 61.5569C115.236 61.431 115.423 61.2619 115.559 61.0498C115.695 60.8377 115.763 60.5974 115.763 60.3289V59.5186C115.697 59.5617 115.606 59.6014 115.49 59.6379C115.377 59.671 115.249 59.7025 115.107 59.7324C114.964 59.7589 114.822 59.7837 114.679 59.8069C114.537 59.8268 114.408 59.845 114.292 59.8616C114.043 59.8981 113.826 59.9561 113.64 60.0356C113.455 60.1152 113.31 60.2229 113.208 60.3588C113.105 60.4914 113.054 60.6571 113.054 60.8559C113.054 61.1443 113.158 61.3647 113.367 61.5172C113.579 61.6663 113.847 61.7409 114.172 61.7409ZM125.863 57.5995L123.924 57.7189C123.891 57.5531 123.82 57.404 123.71 57.2714C123.601 57.1355 123.457 57.0278 123.278 56.9483C123.102 56.8654 122.892 56.824 122.646 56.824C122.318 56.824 122.041 56.8936 121.816 57.0328C121.591 57.1687 121.478 57.351 121.478 57.5797C121.478 57.7619 121.551 57.9161 121.697 58.042C121.843 58.168 122.093 58.2691 122.447 58.3453L123.83 58.6237C124.572 58.7762 125.125 59.0214 125.49 59.3595C125.855 59.6976 126.037 60.1417 126.037 60.6919C126.037 61.1923 125.889 61.6315 125.594 62.0093C125.303 62.3872 124.902 62.6822 124.391 62.8943C123.884 63.1031 123.299 63.2075 122.636 63.2075C121.625 63.2075 120.82 62.997 120.22 62.5761C119.624 62.1519 119.274 61.5752 119.171 60.846L121.254 60.7366C121.317 61.0449 121.47 61.2802 121.712 61.4426C121.954 61.6017 122.263 61.6812 122.641 61.6812C123.013 61.6812 123.311 61.61 123.536 61.4674C123.765 61.3216 123.881 61.1343 123.884 60.9057C123.881 60.7134 123.8 60.556 123.641 60.4333C123.482 60.3074 123.236 60.2113 122.905 60.145L121.582 59.8815C120.837 59.7324 120.281 59.4738 119.917 59.1059C119.556 58.738 119.375 58.2691 119.375 57.699C119.375 57.2084 119.508 56.7859 119.773 56.4312C120.041 56.0766 120.417 55.8031 120.901 55.6109C121.388 55.4187 121.959 55.3226 122.612 55.3226C123.576 55.3226 124.335 55.5264 124.888 55.9341C125.445 56.3417 125.77 56.8969 125.863 57.5995ZM129.29 60.8609L129.295 58.3204H129.603L132.049 55.422H134.48L131.194 59.2601H130.692L129.29 60.8609ZM127.371 63.0583V52.8765H129.488V63.0583H127.371ZM132.143 63.0583L129.896 59.7324L131.308 58.2359L134.624 63.0583H132.143ZM138.759 63.0583V55.422H140.812V56.7544H140.892C141.031 56.2804 141.265 55.9225 141.593 55.6805C141.921 55.4352 142.299 55.3126 142.727 55.3126C142.833 55.3126 142.947 55.3192 143.07 55.3325C143.192 55.3458 143.3 55.364 143.393 55.3872V57.2664C143.293 57.2366 143.156 57.2101 142.98 57.1869C142.804 57.1637 142.644 57.1521 142.498 57.1521C142.186 57.1521 141.908 57.22 141.663 57.3559C141.421 57.4885 141.228 57.6741 141.086 57.9128C140.947 58.1514 140.877 58.4265 140.877 58.738V63.0583H138.759ZM147.612 63.2075C146.827 63.2075 146.151 63.0484 145.584 62.7302C145.021 62.4087 144.586 61.9547 144.281 61.368C143.977 60.778 143.824 60.0804 143.824 59.275C143.824 58.4895 143.977 57.8001 144.281 57.2068C144.586 56.6135 145.016 56.1512 145.569 55.8197C146.126 55.4883 146.779 55.3226 147.528 55.3226C148.032 55.3226 148.501 55.4038 148.935 55.5662C149.372 55.7253 149.753 55.9655 150.078 56.287C150.406 56.6085 150.662 57.0129 150.844 57.5001C151.026 57.984 151.117 58.5508 151.117 59.2004V59.7821H144.669V58.4696H149.124C149.124 58.1646 149.057 57.8945 148.925 57.6592C148.792 57.4239 148.608 57.2399 148.373 57.1074C148.141 56.9715 147.871 56.9035 147.563 56.9035C147.241 56.9035 146.956 56.9781 146.708 57.1272C146.462 57.2731 146.27 57.4703 146.131 57.7189C145.992 57.9641 145.92 58.2376 145.917 58.5392V59.787C145.917 60.1649 145.987 60.4914 146.126 60.7664C146.268 61.0415 146.469 61.2537 146.727 61.4028C146.986 61.552 147.293 61.6265 147.647 61.6265C147.883 61.6265 148.098 61.5934 148.294 61.5271C148.489 61.4608 148.656 61.3614 148.796 61.2288C148.935 61.0962 149.041 60.9338 149.114 60.7416L151.073 60.8708C150.973 61.3415 150.769 61.7525 150.461 62.1038C150.156 62.4518 149.762 62.7236 149.278 62.9191C148.797 63.1114 148.242 63.2075 147.612 63.2075ZM152.499 65.922V55.422H154.588V56.7047H154.682C154.775 56.4992 154.909 56.2904 155.085 56.0782C155.264 55.8628 155.496 55.6838 155.781 55.5413C156.069 55.3955 156.427 55.3226 156.855 55.3226C157.411 55.3226 157.925 55.4684 158.396 55.7601C158.866 56.0484 159.243 56.4842 159.524 57.0676C159.806 57.6476 159.947 58.3751 159.947 59.2501C159.947 60.1019 159.809 60.8211 159.534 61.4078C159.262 61.9911 158.891 62.4336 158.421 62.7352C157.953 63.0335 157.43 63.1826 156.85 63.1826C156.439 63.1826 156.089 63.1147 155.801 62.9788C155.516 62.8429 155.282 62.6722 155.1 62.4667C154.917 62.2579 154.778 62.0475 154.682 61.8353H154.617V65.922H152.499ZM154.573 59.2402C154.573 59.6942 154.636 60.0903 154.762 60.4284C154.887 60.7664 155.07 61.0299 155.308 61.2189C155.547 61.4045 155.837 61.4973 156.178 61.4973C156.523 61.4973 156.815 61.4028 157.053 61.2139C157.292 61.0217 157.473 60.7565 157.595 60.4184C157.721 60.0771 157.784 59.6843 157.784 59.2402C157.784 58.7994 157.723 58.4116 157.6 58.0768C157.478 57.7421 157.297 57.4802 157.058 57.2913C156.82 57.1024 156.526 57.0079 156.178 57.0079C155.834 57.0079 155.542 57.0991 155.303 57.2814C155.068 57.4637 154.887 57.7222 154.762 58.0569C154.636 58.3917 154.573 58.7861 154.573 59.2402ZM164.809 63.2075C164.037 63.2075 163.369 63.0434 162.806 62.7153C162.245 62.3839 161.813 61.9232 161.508 61.3332C161.203 60.7399 161.051 60.0522 161.051 59.27C161.051 58.4812 161.203 57.7918 161.508 57.2018C161.813 56.6085 162.245 56.1478 162.806 55.8197C163.369 55.4883 164.037 55.3226 164.809 55.3226C165.581 55.3226 166.248 55.4883 166.808 55.8197C167.371 56.1478 167.805 56.6085 168.11 57.2018C168.415 57.7918 168.568 58.4812 168.568 59.27C168.568 60.0522 168.415 60.7399 168.11 61.3332C167.805 61.9232 167.371 62.3839 166.808 62.7153C166.248 63.0434 165.581 63.2075 164.809 63.2075ZM164.819 61.5669C165.17 61.5669 165.464 61.4674 165.699 61.2686C165.934 61.0664 166.112 60.7913 166.231 60.4433C166.354 60.0953 166.415 59.6992 166.415 59.2551C166.415 58.811 166.354 58.4149 166.231 58.0669C166.112 57.7189 165.934 57.4438 165.699 57.2416C165.464 57.0394 165.17 56.9383 164.819 56.9383C164.464 56.9383 164.166 57.0394 163.924 57.2416C163.686 57.4438 163.505 57.7189 163.382 58.0669C163.263 58.4149 163.203 58.811 163.203 59.2551C163.203 59.6992 163.263 60.0953 163.382 60.4433C163.505 60.7913 163.686 61.0664 163.924 61.2686C164.166 61.4674 164.464 61.5669 164.819 61.5669ZM169.945 63.0583V55.422H171.998V56.7544H172.078C172.217 56.2804 172.45 55.9225 172.779 55.6805C173.107 55.4352 173.485 55.3126 173.912 55.3126C174.018 55.3126 174.133 55.3192 174.255 55.3325C174.378 55.3458 174.485 55.364 174.578 55.3872V57.2664C174.479 57.2366 174.341 57.2101 174.166 57.1869C173.99 57.1637 173.829 57.1521 173.683 57.1521C173.372 57.1521 173.093 57.22 172.848 57.3559C172.606 57.4885 172.414 57.6741 172.271 57.9128C172.132 58.1514 172.063 58.4265 172.063 58.738V63.0583H169.945ZM180.118 55.422V57.0129H175.519V55.422H180.118ZM176.563 53.5924H178.681V60.7118C178.681 60.9073 178.711 61.0598 178.771 61.1691C178.83 61.2752 178.913 61.3498 179.019 61.3929C179.129 61.436 179.254 61.4575 179.397 61.4575C179.496 61.4575 179.596 61.4492 179.695 61.4326C179.795 61.4128 179.871 61.3978 179.924 61.3879L180.257 62.9639C180.151 62.997 180.002 63.0351 179.81 63.0782C179.617 63.1246 179.384 63.1528 179.109 63.1628C178.598 63.1826 178.151 63.1147 177.766 62.9589C177.385 62.8031 177.089 62.5612 176.876 62.2331C176.664 61.9049 176.56 61.4906 176.563 60.9902V53.5924ZM187.756 57.5995L185.817 57.7189C185.783 57.5531 185.712 57.404 185.603 57.2714C185.493 57.1355 185.349 57.0278 185.17 56.9483C184.995 56.8654 184.784 56.824 184.539 56.824C184.211 56.824 183.934 56.8936 183.709 57.0328C183.483 57.1687 183.371 57.351 183.371 57.5797C183.371 57.7619 183.443 57.9161 183.589 58.042C183.735 58.168 183.985 58.2691 184.34 58.3453L185.722 58.6237C186.465 58.7762 187.018 59.0214 187.383 59.3595C187.747 59.6976 187.93 60.1417 187.93 60.6919C187.93 61.1923 187.782 61.6315 187.487 62.0093C187.195 62.3872 186.794 62.6822 186.284 62.8943C185.777 63.1031 185.192 63.2075 184.529 63.2075C183.518 63.2075 182.713 62.997 182.113 62.5761C181.516 62.1519 181.166 61.5752 181.064 60.846L183.147 60.7366C183.21 61.0449 183.362 61.2802 183.604 61.4426C183.846 61.6017 184.156 61.6812 184.534 61.6812C184.905 61.6812 185.203 61.61 185.429 61.4674C185.657 61.3216 185.773 61.1343 185.777 60.9057C185.773 60.7134 185.692 60.556 185.533 60.4333C185.374 60.3074 185.129 60.2113 184.797 60.145L183.475 59.8815C182.729 59.7324 182.174 59.4738 181.809 59.1059C181.448 58.738 181.268 58.2691 181.268 57.699C181.268 57.2084 181.4 56.7859 181.665 56.4312C181.934 56.0766 182.31 55.8031 182.794 55.6109C183.281 55.4187 183.851 55.3226 184.504 55.3226C185.469 55.3226 186.228 55.5264 186.781 55.9341C187.338 56.3417 187.663 56.8969 187.756 57.5995Z" fill="#486581"/>
<g filter="url(#filter1_d_1232_67405)">
<rect x="102.23" y="73.0583" width="295" height="67.0352" rx="3.47895" fill="#FAFCFE" shape-rendering="crispEdges"/>
<rect x="102.73" y="73.5583" width="294" height="66.0352" rx="2.97895" stroke="#C9D4DE" shape-rendering="crispEdges"/>
<circle cx="117.971" cy="106.576" r="6.33398" stroke="#486581"/>
<path d="M137.225 106.212C137.225 107.133 137.059 107.928 136.727 108.599C136.394 109.269 135.938 109.786 135.359 110.15C134.779 110.513 134.117 110.695 133.373 110.695C132.629 110.695 131.967 110.513 131.387 110.15C130.808 109.786 130.352 109.269 130.019 108.599C129.687 107.928 129.521 107.133 129.521 106.212C129.521 105.292 129.687 104.496 130.019 103.826C130.352 103.155 130.808 102.638 131.387 102.275C131.967 101.911 132.629 101.729 133.373 101.729C134.117 101.729 134.779 101.911 135.359 102.275C135.938 102.638 136.394 103.155 136.727 103.826C137.059 104.496 137.225 105.292 137.225 106.212ZM136.203 106.212C136.203 105.457 136.076 104.819 135.823 104.299C135.573 103.779 135.234 103.386 134.805 103.119C134.379 102.851 133.902 102.718 133.373 102.718C132.845 102.718 132.366 102.851 131.937 103.119C131.511 103.386 131.171 103.779 130.919 104.299C130.669 104.819 130.544 105.457 130.544 106.212C130.544 106.968 130.669 107.606 130.919 108.126C131.171 108.646 131.511 109.039 131.937 109.306C132.366 109.573 132.845 109.707 133.373 109.707C133.902 109.707 134.379 109.573 134.805 109.306C135.234 109.039 135.573 108.646 135.823 108.126C136.076 107.606 136.203 106.968 136.203 106.212ZM138.866 110.576V104.03H139.838V105.019H139.906C140.025 104.695 140.241 104.432 140.554 104.231C140.866 104.029 141.218 103.928 141.61 103.928C141.684 103.928 141.777 103.93 141.887 103.932C141.998 103.935 142.082 103.94 142.139 103.945V104.968C142.105 104.959 142.027 104.947 141.904 104.93C141.785 104.91 141.659 104.9 141.525 104.9C141.207 104.9 140.923 104.967 140.673 105.1C140.426 105.231 140.23 105.413 140.085 105.646C139.943 105.876 139.872 106.138 139.872 106.434V110.576H138.866ZM145.603 110.712C145.058 110.712 144.576 110.575 144.159 110.299C143.741 110.021 143.414 109.628 143.179 109.123C142.943 108.614 142.825 108.013 142.825 107.32C142.825 106.633 142.943 106.036 143.179 105.53C143.414 105.025 143.742 104.634 144.163 104.359C144.583 104.083 145.069 103.945 145.62 103.945C146.046 103.945 146.383 104.016 146.63 104.158C146.88 104.298 147.071 104.457 147.201 104.636C147.335 104.812 147.438 104.957 147.512 105.07H147.598V101.849H148.603V110.576H147.632V109.57H147.512C147.438 109.69 147.333 109.84 147.197 110.022C147.061 110.201 146.866 110.361 146.613 110.503C146.36 110.643 146.024 110.712 145.603 110.712ZM145.74 109.809C146.143 109.809 146.484 109.704 146.762 109.494C147.041 109.28 147.252 108.986 147.397 108.611C147.542 108.234 147.615 107.798 147.615 107.303C147.615 106.815 147.544 106.387 147.402 106.021C147.259 105.651 147.049 105.364 146.771 105.16C146.492 104.952 146.149 104.849 145.74 104.849C145.313 104.849 144.958 104.958 144.674 105.177C144.393 105.393 144.181 105.687 144.039 106.059C143.9 106.428 143.831 106.843 143.831 107.303C143.831 107.769 143.902 108.192 144.044 108.573C144.188 108.951 144.402 109.252 144.683 109.476C144.967 109.698 145.319 109.809 145.74 109.809ZM153.329 110.712C152.698 110.712 152.154 110.573 151.697 110.295C151.242 110.013 150.892 109.621 150.644 109.119C150.4 108.613 150.278 108.025 150.278 107.354C150.278 106.684 150.4 106.093 150.644 105.582C150.892 105.067 151.235 104.667 151.676 104.38C152.119 104.09 152.636 103.945 153.227 103.945C153.568 103.945 153.904 104.002 154.237 104.116C154.569 104.229 154.872 104.414 155.144 104.67C155.417 104.923 155.634 105.258 155.796 105.675C155.958 106.093 156.039 106.607 156.039 107.218V107.644H150.994V106.775H155.017C155.017 106.405 154.943 106.076 154.795 105.786C154.65 105.496 154.443 105.268 154.173 105.1C153.906 104.932 153.59 104.849 153.227 104.849C152.826 104.849 152.48 104.948 152.187 105.147C151.897 105.343 151.674 105.599 151.518 105.914C151.362 106.229 151.284 106.567 151.284 106.928V107.508C151.284 108.002 151.369 108.421 151.539 108.765C151.713 109.106 151.953 109.366 152.259 109.545C152.566 109.721 152.923 109.809 153.329 109.809C153.593 109.809 153.832 109.772 154.045 109.698C154.261 109.621 154.447 109.508 154.603 109.357C154.759 109.204 154.88 109.013 154.965 108.786L155.937 109.059C155.835 109.388 155.663 109.678 155.421 109.928C155.18 110.175 154.882 110.369 154.527 110.508C154.171 110.644 153.772 110.712 153.329 110.712ZM157.569 110.576V104.03H158.541V105.019H158.609C158.728 104.695 158.944 104.432 159.257 104.231C159.569 104.029 159.921 103.928 160.313 103.928C160.387 103.928 160.48 103.93 160.59 103.932C160.701 103.935 160.785 103.94 160.842 103.945V104.968C160.808 104.959 160.73 104.947 160.608 104.93C160.488 104.91 160.362 104.9 160.228 104.9C159.91 104.9 159.626 104.967 159.376 105.1C159.129 105.231 158.933 105.413 158.788 105.646C158.646 105.876 158.575 106.138 158.575 106.434V110.576H157.569ZM168.068 110.712C167.477 110.712 166.959 110.572 166.513 110.29C166.07 110.009 165.723 109.616 165.473 109.11C165.226 108.604 165.102 108.013 165.102 107.337C165.102 106.655 165.226 106.06 165.473 105.552C165.723 105.043 166.07 104.648 166.513 104.367C166.959 104.086 167.477 103.945 168.068 103.945C168.659 103.945 169.176 104.086 169.619 104.367C170.065 104.648 170.412 105.043 170.659 105.552C170.909 106.06 171.034 106.655 171.034 107.337C171.034 108.013 170.909 108.604 170.659 109.11C170.412 109.616 170.065 110.009 169.619 110.29C169.176 110.572 168.659 110.712 168.068 110.712ZM168.068 109.809C168.517 109.809 168.886 109.694 169.176 109.464C169.466 109.234 169.68 108.931 169.82 108.556C169.959 108.181 170.028 107.775 170.028 107.337C170.028 106.9 169.959 106.492 169.82 106.114C169.68 105.736 169.466 105.431 169.176 105.198C168.886 104.965 168.517 104.849 168.068 104.849C167.619 104.849 167.25 104.965 166.96 105.198C166.67 105.431 166.456 105.736 166.317 106.114C166.177 106.492 166.108 106.9 166.108 107.337C166.108 107.775 166.177 108.181 166.317 108.556C166.456 108.931 166.67 109.234 166.96 109.464C167.25 109.694 167.619 109.809 168.068 109.809ZM175.484 104.03V104.883H171.956V104.03H175.484ZM173.012 110.576V103.127C173.012 102.752 173.1 102.44 173.277 102.19C173.453 101.94 173.681 101.752 173.963 101.627C174.244 101.502 174.541 101.44 174.853 101.44C175.1 101.44 175.302 101.459 175.458 101.499C175.615 101.539 175.731 101.576 175.808 101.61L175.518 102.479C175.467 102.462 175.396 102.441 175.305 102.415C175.217 102.39 175.1 102.377 174.956 102.377C174.623 102.377 174.383 102.461 174.235 102.628C174.09 102.796 174.018 103.042 174.018 103.366V110.576H173.012ZM179.808 104.03V104.883H176.28V104.03H179.808ZM177.337 110.576V103.127C177.337 102.752 177.425 102.44 177.601 102.19C177.777 101.94 178.006 101.752 178.287 101.627C178.568 101.502 178.865 101.44 179.177 101.44C179.425 101.44 179.626 101.459 179.783 101.499C179.939 101.539 180.055 101.576 180.132 101.61L179.842 102.479C179.791 102.462 179.72 102.441 179.629 102.415C179.541 102.39 179.425 102.377 179.28 102.377C178.947 102.377 178.707 102.461 178.56 102.628C178.415 102.796 178.342 103.042 178.342 103.366V110.576H177.337ZM181.218 110.576V104.03H182.223V110.576H181.218ZM181.729 102.94C181.533 102.94 181.364 102.873 181.222 102.739C181.083 102.606 181.013 102.445 181.013 102.258C181.013 102.07 181.083 101.91 181.222 101.776C181.364 101.643 181.533 101.576 181.729 101.576C181.925 101.576 182.093 101.643 182.232 101.776C182.374 101.91 182.445 102.07 182.445 102.258C182.445 102.445 182.374 102.606 182.232 102.739C182.093 102.873 181.925 102.94 181.729 102.94ZM186.724 110.712C186.111 110.712 185.582 110.567 185.139 110.278C184.696 109.988 184.355 109.589 184.116 109.08C183.878 108.572 183.758 107.991 183.758 107.337C183.758 106.673 183.881 106.086 184.125 105.577C184.372 105.066 184.716 104.667 185.156 104.38C185.599 104.09 186.116 103.945 186.707 103.945C187.168 103.945 187.582 104.03 187.952 104.201C188.321 104.371 188.623 104.61 188.859 104.917C189.095 105.224 189.241 105.582 189.298 105.991H188.293C188.216 105.692 188.045 105.428 187.781 105.198C187.52 104.965 187.168 104.849 186.724 104.849C186.332 104.849 185.989 104.951 185.693 105.155C185.4 105.357 185.172 105.643 185.007 106.012C184.845 106.378 184.764 106.809 184.764 107.303C184.764 107.809 184.844 108.249 185.003 108.624C185.165 108.999 185.392 109.29 185.685 109.498C185.98 109.705 186.327 109.809 186.724 109.809C186.986 109.809 187.223 109.763 187.436 109.673C187.649 109.582 187.829 109.451 187.977 109.28C188.125 109.11 188.23 108.905 188.293 108.667H189.298C189.241 109.053 189.101 109.401 188.876 109.711C188.655 110.018 188.361 110.262 187.994 110.444C187.631 110.623 187.207 110.712 186.724 110.712ZM193.513 110.712C192.882 110.712 192.338 110.573 191.881 110.295C191.426 110.013 191.075 109.621 190.828 109.119C190.584 108.613 190.462 108.025 190.462 107.354C190.462 106.684 190.584 106.093 190.828 105.582C191.075 105.067 191.419 104.667 191.859 104.38C192.302 104.09 192.82 103.945 193.41 103.945C193.751 103.945 194.088 104.002 194.42 104.116C194.753 104.229 195.055 104.414 195.328 104.67C195.601 104.923 195.818 105.258 195.98 105.675C196.142 106.093 196.223 106.607 196.223 107.218V107.644H191.177V106.775H195.2C195.2 106.405 195.126 106.076 194.979 105.786C194.834 105.496 194.626 105.268 194.356 105.1C194.089 104.932 193.774 104.849 193.41 104.849C193.01 104.849 192.663 104.948 192.371 105.147C192.081 105.343 191.858 105.599 191.702 105.914C191.545 106.229 191.467 106.567 191.467 106.928V107.508C191.467 108.002 191.552 108.421 191.723 108.765C191.896 109.106 192.136 109.366 192.443 109.545C192.75 109.721 193.106 109.809 193.513 109.809C193.777 109.809 194.016 109.772 194.229 109.698C194.445 109.621 194.631 109.508 194.787 109.357C194.943 109.204 195.064 109.013 195.149 108.786L196.121 109.059C196.018 109.388 195.846 109.678 195.605 109.928C195.364 110.175 195.065 110.369 194.71 110.508C194.355 110.644 193.956 110.712 193.513 110.712ZM205.764 105.496L204.861 105.752C204.804 105.601 204.72 105.455 204.609 105.313C204.501 105.168 204.354 105.049 204.166 104.955C203.979 104.861 203.739 104.815 203.446 104.815C203.045 104.815 202.712 104.907 202.445 105.092C202.18 105.273 202.048 105.505 202.048 105.786C202.048 106.036 202.139 106.234 202.321 106.378C202.503 106.523 202.787 106.644 203.173 106.741L204.145 106.979C204.73 107.121 205.166 107.339 205.453 107.631C205.74 107.921 205.883 108.295 205.883 108.752C205.883 109.127 205.775 109.462 205.56 109.758C205.346 110.053 205.048 110.286 204.665 110.457C204.281 110.627 203.835 110.712 203.327 110.712C202.659 110.712 202.106 110.567 201.669 110.278C201.231 109.988 200.954 109.565 200.838 109.008L201.793 108.769C201.883 109.121 202.055 109.386 202.308 109.562C202.564 109.738 202.898 109.826 203.31 109.826C203.778 109.826 204.15 109.726 204.426 109.528C204.704 109.326 204.844 109.084 204.844 108.803C204.844 108.576 204.764 108.386 204.605 108.232C204.446 108.076 204.202 107.959 203.872 107.883L202.781 107.627C202.182 107.485 201.741 107.265 201.46 106.967C201.182 106.665 201.043 106.289 201.043 105.837C201.043 105.468 201.146 105.141 201.354 104.857C201.564 104.573 201.849 104.35 202.21 104.188C202.574 104.026 202.986 103.945 203.446 103.945C204.094 103.945 204.602 104.087 204.971 104.371C205.344 104.655 205.608 105.03 205.764 105.496ZM211.522 107.9V104.03H212.528V110.576H211.522V109.468H211.454C211.301 109.8 211.062 110.083 210.738 110.316C210.414 110.546 210.005 110.661 209.511 110.661C209.102 110.661 208.738 110.572 208.42 110.393C208.102 110.211 207.852 109.938 207.67 109.575C207.488 109.208 207.397 108.746 207.397 108.19V104.03H208.403V108.121C208.403 108.599 208.536 108.979 208.804 109.263C209.073 109.548 209.417 109.69 209.835 109.69C210.085 109.69 210.339 109.626 210.598 109.498C210.859 109.37 211.078 109.174 211.254 108.91C211.433 108.646 211.522 108.309 211.522 107.9ZM214.37 113.03V104.03H215.342V105.07H215.461C215.535 104.957 215.637 104.812 215.768 104.636C215.901 104.457 216.092 104.298 216.339 104.158C216.589 104.016 216.927 103.945 217.353 103.945C217.904 103.945 218.39 104.083 218.81 104.359C219.231 104.634 219.559 105.025 219.795 105.53C220.03 106.036 220.148 106.633 220.148 107.32C220.148 108.013 220.03 108.614 219.795 109.123C219.559 109.628 219.232 110.021 218.815 110.299C218.397 110.575 217.915 110.712 217.37 110.712C216.949 110.712 216.613 110.643 216.36 110.503C216.107 110.361 215.913 110.201 215.776 110.022C215.64 109.84 215.535 109.69 215.461 109.57H215.376V113.03H214.37ZM215.359 107.303C215.359 107.798 215.431 108.234 215.576 108.611C215.721 108.986 215.932 109.28 216.211 109.494C216.489 109.704 216.83 109.809 217.234 109.809C217.654 109.809 218.005 109.698 218.286 109.476C218.57 109.252 218.783 108.951 218.925 108.573C219.07 108.192 219.143 107.769 219.143 107.303C219.143 106.843 219.072 106.428 218.93 106.059C218.79 105.687 218.579 105.393 218.295 105.177C218.013 104.958 217.66 104.849 217.234 104.849C216.824 104.849 216.481 104.952 216.202 105.16C215.924 105.364 215.714 105.651 215.572 106.021C215.43 106.387 215.359 106.815 215.359 107.303ZM222.688 101.849V110.576H221.682V101.849H222.688ZM224.53 110.576V104.03H225.536V110.576H224.53ZM225.041 102.94C224.845 102.94 224.676 102.873 224.534 102.739C224.395 102.606 224.326 102.445 224.326 102.258C224.326 102.07 224.395 101.91 224.534 101.776C224.676 101.643 224.845 101.576 225.041 101.576C225.237 101.576 225.405 101.643 225.544 101.776C225.686 101.91 225.757 102.07 225.757 102.258C225.757 102.445 225.686 102.606 225.544 102.739C225.405 102.873 225.237 102.94 225.041 102.94ZM230.122 110.712C229.491 110.712 228.947 110.573 228.49 110.295C228.035 110.013 227.685 109.621 227.437 109.119C227.193 108.613 227.071 108.025 227.071 107.354C227.071 106.684 227.193 106.093 227.437 105.582C227.685 105.067 228.028 104.667 228.469 104.38C228.912 104.09 229.429 103.945 230.02 103.945C230.361 103.945 230.697 104.002 231.03 104.116C231.362 104.229 231.665 104.414 231.937 104.67C232.21 104.923 232.427 105.258 232.589 105.675C232.751 106.093 232.832 106.607 232.832 107.218V107.644H227.787V106.775H231.81C231.81 106.405 231.736 106.076 231.588 105.786C231.443 105.496 231.236 105.268 230.966 105.1C230.699 104.932 230.383 104.849 230.02 104.849C229.619 104.849 229.273 104.948 228.98 105.147C228.69 105.343 228.467 105.599 228.311 105.914C228.155 106.229 228.077 106.567 228.077 106.928V107.508C228.077 108.002 228.162 108.421 228.332 108.765C228.506 109.106 228.746 109.366 229.052 109.545C229.359 109.721 229.716 109.809 230.122 109.809C230.386 109.809 230.625 109.772 230.838 109.698C231.054 109.621 231.24 109.508 231.396 109.357C231.552 109.204 231.673 109.013 231.758 108.786L232.73 109.059C232.628 109.388 232.456 109.678 232.214 109.928C231.973 110.175 231.675 110.369 231.32 110.508C230.964 110.644 230.565 110.712 230.122 110.712ZM238.998 105.496L238.095 105.752C238.038 105.601 237.954 105.455 237.844 105.313C237.736 105.168 237.588 105.049 237.4 104.955C237.213 104.861 236.973 104.815 236.68 104.815C236.28 104.815 235.946 104.907 235.679 105.092C235.415 105.273 235.283 105.505 235.283 105.786C235.283 106.036 235.373 106.234 235.555 106.378C235.737 106.523 236.021 106.644 236.408 106.741L237.379 106.979C237.964 107.121 238.4 107.339 238.687 107.631C238.974 107.921 239.118 108.295 239.118 108.752C239.118 109.127 239.01 109.462 238.794 109.758C238.581 110.053 238.283 110.286 237.899 110.457C237.516 110.627 237.07 110.712 236.561 110.712C235.893 110.712 235.341 110.567 234.903 110.278C234.466 109.988 234.189 109.565 234.072 109.008L235.027 108.769C235.118 109.121 235.29 109.386 235.543 109.562C235.798 109.738 236.132 109.826 236.544 109.826C237.013 109.826 237.385 109.726 237.66 109.528C237.939 109.326 238.078 109.084 238.078 108.803C238.078 108.576 237.998 108.386 237.839 108.232C237.68 108.076 237.436 107.959 237.106 107.883L236.016 107.627C235.416 107.485 234.976 107.265 234.695 106.967C234.416 106.665 234.277 106.289 234.277 105.837C234.277 105.468 234.381 105.141 234.588 104.857C234.798 104.573 235.084 104.35 235.445 104.188C235.808 104.026 236.22 103.945 236.68 103.945C237.328 103.945 237.837 104.087 238.206 104.371C238.578 104.655 238.842 105.03 238.998 105.496Z" fill="#486581"/>
<circle cx="265.129" cy="93.5642" r="4.50586" fill="#D9E2EC"/>
<rect x="273.635" y="91.0775" width="70.8707" height="4.97338" rx="2.48669" fill="#D9E2EC"/>
<circle cx="265.129" cy="106.576" r="4.50586" fill="#D9E2EC"/>
<rect x="273.635" y="104.089" width="63.6914" height="4.97338" rx="2.48669" fill="#D9E2EC"/>
<circle cx="265.129" cy="119.588" r="4.50586" fill="#D9E2EC"/>
<rect x="273.635" y="117.101" width="67.4141" height="4.97338" rx="2.48669" fill="#D9E2EC"/>
<rect x="365.324" y="95.5759" width="23" height="22" rx="4" fill="#F1D3D3"/>
<path d="M372.955 110.695C372.455 110.695 372.004 110.596 371.604 110.397C371.203 110.198 370.882 109.925 370.641 109.579C370.399 109.232 370.267 108.837 370.244 108.394H371.267C371.307 108.789 371.486 109.116 371.804 109.374C372.125 109.63 372.509 109.758 372.955 109.758C373.313 109.758 373.631 109.674 373.909 109.506C374.19 109.339 374.411 109.109 374.57 108.816C374.732 108.521 374.813 108.187 374.813 107.815C374.813 107.434 374.729 107.094 374.561 106.796C374.396 106.495 374.169 106.258 373.879 106.084C373.59 105.911 373.259 105.823 372.886 105.82C372.619 105.817 372.345 105.859 372.064 105.944C371.783 106.026 371.551 106.133 371.369 106.263L370.381 106.144L370.909 101.849H375.443V102.786H371.796L371.489 105.36H371.54C371.719 105.218 371.943 105.1 372.213 105.006C372.483 104.913 372.764 104.866 373.057 104.866C373.591 104.866 374.067 104.994 374.484 105.249C374.905 105.502 375.234 105.849 375.473 106.289C375.715 106.729 375.835 107.232 375.835 107.798C375.835 108.354 375.71 108.851 375.46 109.289C375.213 109.724 374.872 110.067 374.438 110.32C374.003 110.57 373.509 110.695 372.955 110.695ZM380.017 110.712C379.471 110.712 378.99 110.575 378.572 110.299C378.155 110.021 377.828 109.628 377.592 109.123C377.356 108.614 377.238 108.013 377.238 107.32C377.238 106.633 377.356 106.036 377.592 105.53C377.828 105.025 378.156 104.634 378.576 104.359C378.997 104.083 379.483 103.945 380.034 103.945C380.46 103.945 380.797 104.016 381.044 104.158C381.294 104.298 381.484 104.457 381.615 104.636C381.748 104.812 381.852 104.957 381.926 105.07H382.011V101.849H383.017V110.576H382.045V109.57H381.926C381.852 109.69 381.747 109.84 381.611 110.022C381.474 110.201 381.28 110.361 381.027 110.503C380.774 110.643 380.437 110.712 380.017 110.712ZM380.153 109.809C380.557 109.809 380.897 109.704 381.176 109.494C381.454 109.28 381.666 108.986 381.811 108.611C381.956 108.234 382.028 107.798 382.028 107.303C382.028 106.815 381.957 106.387 381.815 106.021C381.673 105.651 381.463 105.364 381.184 105.16C380.906 104.952 380.562 104.849 380.153 104.849C379.727 104.849 379.372 104.958 379.088 105.177C378.807 105.393 378.595 105.687 378.453 106.059C378.314 106.428 378.244 106.843 378.244 107.303C378.244 107.769 378.315 108.192 378.457 108.573C378.602 108.951 378.815 109.252 379.096 109.476C379.38 109.698 379.733 109.809 380.153 109.809Z" fill="#9B1F1F"/>
</g>
<g filter="url(#filter2_d_1232_67405)">
<rect x="102.23" y="148.094" width="295" height="67.0352" rx="3.47895" fill="#FAFCFE" shape-rendering="crispEdges"/>
<rect x="102.73" y="148.594" width="294" height="66.0352" rx="2.97895" stroke="#C9D4DE" shape-rendering="crispEdges"/>
<circle cx="117.971" cy="181.611" r="6.33398" stroke="#486581"/>
<path d="M134.634 179.066C134.583 178.634 134.376 178.299 134.012 178.06C133.649 177.821 133.203 177.702 132.674 177.702C132.288 177.702 131.95 177.764 131.66 177.889C131.373 178.014 131.149 178.186 130.987 178.405C130.828 178.624 130.748 178.872 130.748 179.151C130.748 179.384 130.804 179.584 130.914 179.752C131.028 179.916 131.173 180.054 131.349 180.165C131.525 180.273 131.71 180.363 131.903 180.434C132.096 180.502 132.274 180.557 132.436 180.6L133.322 180.838C133.549 180.898 133.802 180.98 134.081 181.086C134.362 181.191 134.63 181.334 134.886 181.516C135.144 181.695 135.358 181.925 135.525 182.206C135.693 182.488 135.777 182.833 135.777 183.242C135.777 183.713 135.653 184.139 135.406 184.52C135.161 184.901 134.804 185.203 134.332 185.428C133.863 185.652 133.294 185.764 132.623 185.764C131.998 185.764 131.457 185.664 131 185.462C130.545 185.26 130.187 184.979 129.926 184.618C129.667 184.257 129.521 183.838 129.487 183.361H130.578C130.606 183.691 130.717 183.963 130.91 184.179C131.106 184.392 131.353 184.551 131.652 184.657C131.953 184.759 132.277 184.81 132.623 184.81C133.027 184.81 133.389 184.745 133.71 184.614C134.031 184.48 134.285 184.296 134.473 184.06C134.66 183.821 134.754 183.543 134.754 183.225C134.754 182.935 134.673 182.699 134.511 182.517C134.349 182.336 134.136 182.188 133.872 182.074C133.608 181.961 133.322 181.861 133.015 181.776L131.941 181.469C131.259 181.273 130.72 180.993 130.322 180.63C129.924 180.266 129.725 179.79 129.725 179.202C129.725 178.713 129.858 178.287 130.122 177.924C130.389 177.557 130.747 177.273 131.196 177.071C131.647 176.867 132.152 176.764 132.708 176.764C133.271 176.764 133.771 176.865 134.208 177.067C134.646 177.266 134.992 177.539 135.248 177.885C135.507 178.232 135.643 178.625 135.657 179.066H134.634ZM140.037 185.747C139.423 185.747 138.895 185.603 138.452 185.313C138.008 185.023 137.668 184.624 137.429 184.115C137.19 183.607 137.071 183.026 137.071 182.372C137.071 181.708 137.193 181.121 137.437 180.613C137.685 180.101 138.028 179.702 138.469 179.415C138.912 179.125 139.429 178.98 140.02 178.98C140.48 178.98 140.895 179.066 141.264 179.236C141.633 179.407 141.936 179.645 142.172 179.952C142.408 180.259 142.554 180.617 142.611 181.026H141.605C141.528 180.728 141.358 180.463 141.094 180.233C140.832 180 140.48 179.884 140.037 179.884C139.645 179.884 139.301 179.986 139.006 180.191C138.713 180.392 138.484 180.678 138.32 181.047C138.158 181.414 138.077 181.844 138.077 182.338C138.077 182.844 138.156 183.284 138.315 183.659C138.477 184.034 138.704 184.326 138.997 184.533C139.293 184.74 139.639 184.844 140.037 184.844C140.298 184.844 140.535 184.799 140.748 184.708C140.962 184.617 141.142 184.486 141.29 184.316C141.437 184.145 141.543 183.941 141.605 183.702H142.611C142.554 184.088 142.413 184.436 142.189 184.746C141.967 185.053 141.673 185.297 141.307 185.479C140.943 185.658 140.52 185.747 140.037 185.747ZM145.087 181.674V185.611H144.081V176.884H145.087V180.088H145.172C145.325 179.75 145.555 179.482 145.862 179.283C146.172 179.081 146.584 178.98 147.098 178.98C147.544 178.98 147.935 179.07 148.27 179.249C148.605 179.425 148.865 179.696 149.05 180.063C149.237 180.426 149.331 180.889 149.331 181.452V185.611H148.325V181.52C148.325 181 148.19 180.598 147.92 180.314C147.653 180.027 147.283 179.884 146.808 179.884C146.479 179.884 146.183 179.953 145.922 180.093C145.663 180.232 145.459 180.435 145.308 180.702C145.16 180.969 145.087 181.293 145.087 181.674ZM153.915 185.747C153.284 185.747 152.74 185.608 152.283 185.33C151.828 185.049 151.478 184.657 151.23 184.154C150.986 183.648 150.864 183.06 150.864 182.389C150.864 181.719 150.986 181.128 151.23 180.617C151.478 180.103 151.821 179.702 152.262 179.415C152.705 179.125 153.222 178.98 153.813 178.98C154.154 178.98 154.49 179.037 154.823 179.151C155.155 179.264 155.458 179.449 155.73 179.705C156.003 179.958 156.22 180.293 156.382 180.711C156.544 181.128 156.625 181.642 156.625 182.253V182.679H151.58V181.81H155.603C155.603 181.441 155.529 181.111 155.381 180.821C155.236 180.532 155.029 180.303 154.759 180.135C154.492 179.968 154.176 179.884 153.813 179.884C153.412 179.884 153.066 179.983 152.773 180.182C152.483 180.378 152.26 180.634 152.104 180.949C151.948 181.264 151.87 181.603 151.87 181.963V182.543C151.87 183.037 151.955 183.456 152.125 183.8C152.299 184.141 152.539 184.401 152.845 184.58C153.152 184.756 153.509 184.844 153.915 184.844C154.179 184.844 154.418 184.807 154.631 184.733C154.847 184.657 155.033 184.543 155.189 184.392C155.345 184.239 155.466 184.049 155.551 183.821L156.523 184.094C156.421 184.424 156.249 184.713 156.007 184.963C155.766 185.211 155.468 185.404 155.112 185.543C154.757 185.679 154.358 185.747 153.915 185.747ZM160.627 185.747C160.081 185.747 159.6 185.61 159.182 185.334C158.764 185.056 158.438 184.664 158.202 184.158C157.966 183.649 157.848 183.049 157.848 182.355C157.848 181.668 157.966 181.071 158.202 180.566C158.438 180.06 158.766 179.669 159.186 179.394C159.607 179.118 160.093 178.98 160.644 178.98C161.07 178.98 161.407 179.051 161.654 179.193C161.904 179.333 162.094 179.492 162.225 179.671C162.358 179.847 162.462 179.992 162.536 180.105H162.621V176.884H163.627V185.611H162.655V184.605H162.536C162.462 184.725 162.357 184.875 162.22 185.057C162.084 185.236 161.889 185.397 161.637 185.539C161.384 185.678 161.047 185.747 160.627 185.747ZM160.763 184.844C161.166 184.844 161.507 184.739 161.786 184.529C162.064 184.316 162.276 184.022 162.421 183.647C162.566 183.269 162.638 182.833 162.638 182.338C162.638 181.85 162.567 181.422 162.425 181.056C162.283 180.686 162.073 180.399 161.794 180.195C161.516 179.988 161.172 179.884 160.763 179.884C160.337 179.884 159.982 179.993 159.698 180.212C159.416 180.428 159.205 180.722 159.063 181.094C158.924 181.463 158.854 181.878 158.854 182.338C158.854 182.804 158.925 183.228 159.067 183.608C159.212 183.986 159.425 184.287 159.706 184.512C159.99 184.733 160.343 184.844 160.763 184.844ZM169.733 182.935V179.066H170.739V185.611H169.733V184.503H169.665C169.512 184.836 169.273 185.118 168.949 185.351C168.625 185.581 168.216 185.696 167.722 185.696C167.313 185.696 166.949 185.607 166.631 185.428C166.313 185.246 166.063 184.973 165.881 184.61C165.699 184.243 165.608 183.782 165.608 183.225V179.066H166.614V183.157C166.614 183.634 166.747 184.014 167.014 184.299C167.284 184.583 167.628 184.725 168.046 184.725C168.296 184.725 168.55 184.661 168.808 184.533C169.07 184.405 169.289 184.209 169.465 183.945C169.644 183.681 169.733 183.344 169.733 182.935ZM173.587 176.884V185.611H172.581V176.884H173.587ZM178.173 185.747C177.542 185.747 176.998 185.608 176.541 185.33C176.086 185.049 175.735 184.657 175.488 184.154C175.244 183.648 175.122 183.06 175.122 182.389C175.122 181.719 175.244 181.128 175.488 180.617C175.735 180.103 176.079 179.702 176.519 179.415C176.963 179.125 177.48 178.98 178.071 178.98C178.411 178.98 178.748 179.037 179.081 179.151C179.413 179.264 179.715 179.449 179.988 179.705C180.261 179.958 180.478 180.293 180.64 180.711C180.802 181.128 180.883 181.642 180.883 182.253V182.679H175.838V181.81H179.86C179.86 181.441 179.786 181.111 179.639 180.821C179.494 180.532 179.286 180.303 179.017 180.135C178.75 179.968 178.434 179.884 178.071 179.884C177.67 179.884 177.323 179.983 177.031 180.182C176.741 180.378 176.518 180.634 176.362 180.949C176.206 181.264 176.127 181.603 176.127 181.963V182.543C176.127 183.037 176.213 183.456 176.383 183.8C176.556 184.141 176.796 184.401 177.103 184.58C177.41 184.756 177.767 184.844 178.173 184.844C178.437 184.844 178.676 184.807 178.889 184.733C179.105 184.657 179.291 184.543 179.447 184.392C179.603 184.239 179.724 184.049 179.809 183.821L180.781 184.094C180.679 184.424 180.507 184.713 180.265 184.963C180.024 185.211 179.725 185.404 179.37 185.543C179.015 185.679 178.616 185.747 178.173 185.747ZM190.424 180.532L189.521 180.787C189.464 180.637 189.38 180.49 189.269 180.348C189.161 180.203 189.014 180.084 188.826 179.99C188.639 179.897 188.399 179.85 188.106 179.85C187.706 179.85 187.372 179.942 187.105 180.127C186.84 180.309 186.708 180.54 186.708 180.821C186.708 181.071 186.799 181.269 186.981 181.414C187.163 181.559 187.447 181.679 187.833 181.776L188.805 182.014C189.39 182.157 189.826 182.374 190.113 182.666C190.4 182.956 190.544 183.33 190.544 183.787C190.544 184.162 190.436 184.497 190.22 184.793C190.007 185.088 189.708 185.321 189.325 185.492C188.941 185.662 188.495 185.747 187.987 185.747C187.319 185.747 186.767 185.603 186.329 185.313C185.892 185.023 185.615 184.6 185.498 184.043L186.453 183.804C186.544 184.157 186.715 184.421 186.968 184.597C187.224 184.773 187.558 184.861 187.97 184.861C188.438 184.861 188.811 184.762 189.086 184.563C189.365 184.361 189.504 184.12 189.504 183.838C189.504 183.611 189.424 183.421 189.265 183.267C189.106 183.111 188.862 182.995 188.532 182.918L187.441 182.662C186.842 182.52 186.402 182.3 186.12 182.002C185.842 181.701 185.703 181.324 185.703 180.872C185.703 180.503 185.806 180.176 186.014 179.892C186.224 179.608 186.509 179.385 186.87 179.223C187.234 179.061 187.646 178.98 188.106 178.98C188.754 178.98 189.262 179.122 189.632 179.407C190.004 179.691 190.268 180.066 190.424 180.532ZM192.057 185.611V179.066H193.063V185.611H192.057ZM192.569 177.975C192.373 177.975 192.204 177.908 192.062 177.774C191.922 177.641 191.853 177.48 191.853 177.293C191.853 177.105 191.922 176.945 192.062 176.811C192.204 176.678 192.373 176.611 192.569 176.611C192.765 176.611 192.932 176.678 193.072 176.811C193.214 176.945 193.285 177.105 193.285 177.293C193.285 177.48 193.214 177.641 193.072 177.774C192.932 177.908 192.765 177.975 192.569 177.975ZM197.752 179.066V179.918H194.36V179.066H197.752ZM195.348 177.497H196.354V183.736C196.354 184.02 196.395 184.233 196.478 184.375C196.563 184.514 196.671 184.608 196.801 184.657C196.935 184.702 197.076 184.725 197.223 184.725C197.334 184.725 197.425 184.719 197.496 184.708C197.567 184.693 197.624 184.682 197.666 184.674L197.871 185.577C197.803 185.603 197.708 185.628 197.585 185.654C197.463 185.682 197.308 185.696 197.121 185.696C196.837 185.696 196.558 185.635 196.286 185.513C196.016 185.391 195.791 185.205 195.612 184.955C195.436 184.705 195.348 184.389 195.348 184.009V177.497ZM201.938 185.747C201.308 185.747 200.764 185.608 200.306 185.33C199.852 185.049 199.501 184.657 199.254 184.154C199.009 183.648 198.887 183.06 198.887 182.389C198.887 181.719 199.009 181.128 199.254 180.617C199.501 180.103 199.845 179.702 200.285 179.415C200.728 179.125 201.245 178.98 201.836 178.98C202.177 178.98 202.514 179.037 202.846 179.151C203.179 179.264 203.481 179.449 203.754 179.705C204.027 179.958 204.244 180.293 204.406 180.711C204.568 181.128 204.649 181.642 204.649 182.253V182.679H199.603V181.81H203.626C203.626 181.441 203.552 181.111 203.404 180.821C203.259 180.532 203.052 180.303 202.782 180.135C202.515 179.968 202.2 179.884 201.836 179.884C201.436 179.884 201.089 179.983 200.796 180.182C200.507 180.378 200.284 180.634 200.127 180.949C199.971 181.264 199.893 181.603 199.893 181.963V182.543C199.893 183.037 199.978 183.456 200.149 183.8C200.322 184.141 200.562 184.401 200.869 184.58C201.176 184.756 201.532 184.844 201.938 184.844C202.203 184.844 202.441 184.807 202.654 184.733C202.87 184.657 203.056 184.543 203.213 184.392C203.369 184.239 203.49 184.049 203.575 183.821L204.546 184.094C204.444 184.424 204.272 184.713 204.031 184.963C203.789 185.211 203.491 185.404 203.136 185.543C202.781 185.679 202.382 185.747 201.938 185.747ZM214.906 179.066L212.485 185.611H211.463L209.042 179.066H210.133L211.94 184.282H212.008L213.815 179.066H214.906ZM216.233 185.611V179.066H217.239V185.611H216.233ZM216.745 177.975C216.549 177.975 216.38 177.908 216.237 177.774C216.098 177.641 216.029 177.48 216.029 177.293C216.029 177.105 216.098 176.945 216.237 176.811C216.38 176.678 216.549 176.611 216.745 176.611C216.941 176.611 217.108 176.678 217.247 176.811C217.389 176.945 217.46 177.105 217.46 177.293C217.46 177.48 217.389 177.641 217.247 177.774C217.108 177.908 216.941 177.975 216.745 177.975ZM223.717 180.532L222.814 180.787C222.757 180.637 222.673 180.49 222.562 180.348C222.454 180.203 222.307 180.084 222.119 179.99C221.932 179.897 221.692 179.85 221.399 179.85C220.998 179.85 220.665 179.942 220.398 180.127C220.133 180.309 220.001 180.54 220.001 180.821C220.001 181.071 220.092 181.269 220.274 181.414C220.456 181.559 220.74 181.679 221.126 181.776L222.098 182.014C222.683 182.157 223.119 182.374 223.406 182.666C223.693 182.956 223.837 183.33 223.837 183.787C223.837 184.162 223.729 184.497 223.513 184.793C223.3 185.088 223.001 185.321 222.618 185.492C222.234 185.662 221.788 185.747 221.28 185.747C220.612 185.747 220.06 185.603 219.622 185.313C219.185 185.023 218.908 184.6 218.791 184.043L219.746 183.804C219.837 184.157 220.008 184.421 220.261 184.597C220.517 184.773 220.851 184.861 221.263 184.861C221.731 184.861 222.104 184.762 222.379 184.563C222.658 184.361 222.797 184.12 222.797 183.838C222.797 183.611 222.717 183.421 222.558 183.267C222.399 183.111 222.155 182.995 221.825 182.918L220.734 182.662C220.135 182.52 219.695 182.3 219.413 182.002C219.135 181.701 218.996 181.324 218.996 180.872C218.996 180.503 219.099 180.176 219.307 179.892C219.517 179.608 219.802 179.385 220.163 179.223C220.527 179.061 220.939 178.98 221.399 178.98C222.047 178.98 222.555 179.122 222.925 179.407C223.297 179.691 223.561 180.066 223.717 180.532ZM225.35 185.611V179.066H226.356V185.611H225.35ZM225.862 177.975C225.666 177.975 225.497 177.908 225.355 177.774C225.215 177.641 225.146 177.48 225.146 177.293C225.146 177.105 225.215 176.945 225.355 176.811C225.497 176.678 225.666 176.611 225.862 176.611C226.058 176.611 226.225 176.678 226.365 176.811C226.507 176.945 226.578 177.105 226.578 177.293C226.578 177.48 226.507 177.641 226.365 177.774C226.225 177.908 226.058 177.975 225.862 177.975ZM231.045 179.066V179.918H227.653V179.066H231.045ZM228.641 177.497H229.647V183.736C229.647 184.02 229.688 184.233 229.771 184.375C229.856 184.514 229.964 184.608 230.094 184.657C230.228 184.702 230.369 184.725 230.516 184.725C230.627 184.725 230.718 184.719 230.789 184.708C230.86 184.693 230.917 184.682 230.959 184.674L231.164 185.577C231.096 185.603 231.001 185.628 230.878 185.654C230.756 185.682 230.601 185.696 230.414 185.696C230.13 185.696 229.851 185.635 229.579 185.513C229.309 185.391 229.084 185.205 228.905 184.955C228.729 184.705 228.641 184.389 228.641 184.009V177.497Z" fill="#486581"/>
<circle cx="265.13" cy="168.599" r="4.50586" fill="#D9E2EC"/>
<rect x="273.636" y="166.113" width="70.8707" height="4.97338" rx="2.48669" fill="#D9E2EC"/>
<circle cx="265.13" cy="181.611" r="4.50586" fill="#D9E2EC"/>
<rect x="273.636" y="179.124" width="63.6914" height="4.97338" rx="2.48669" fill="#D9E2EC"/>
<circle cx="265.13" cy="194.623" r="4.50586" fill="#D9E2EC"/>
<rect x="273.636" y="192.136" width="67.4141" height="4.97338" rx="2.48669" fill="#D9E2EC"/>
<rect x="365.324" y="170.611" width="23" height="22" rx="4" fill="#F1D3D3"/>
<path d="M370.227 185.611V184.844L373.108 181.691C373.446 181.321 373.725 181 373.943 180.728C374.162 180.452 374.324 180.193 374.429 179.952C374.537 179.708 374.591 179.452 374.591 179.185C374.591 178.878 374.517 178.613 374.369 178.388C374.225 178.164 374.026 177.99 373.773 177.868C373.52 177.746 373.236 177.685 372.921 177.685C372.585 177.685 372.293 177.755 372.043 177.894C371.796 178.03 371.604 178.222 371.467 178.469C371.334 178.716 371.267 179.006 371.267 179.338H370.261C370.261 178.827 370.379 178.378 370.615 177.992C370.851 177.605 371.172 177.304 371.578 177.088C371.987 176.872 372.446 176.764 372.955 176.764C373.466 176.764 373.919 176.872 374.314 177.088C374.709 177.304 375.019 177.595 375.243 177.962C375.467 178.328 375.58 178.736 375.58 179.185C375.58 179.506 375.521 179.82 375.405 180.127C375.291 180.431 375.092 180.77 374.808 181.145C374.527 181.517 374.136 181.972 373.636 182.509L371.676 184.605V184.674H375.733V185.611H370.227ZM379.982 185.747C379.436 185.747 378.955 185.61 378.537 185.334C378.119 185.056 377.793 184.664 377.557 184.158C377.321 183.649 377.203 183.049 377.203 182.355C377.203 181.668 377.321 181.071 377.557 180.566C377.793 180.06 378.121 179.669 378.541 179.394C378.962 179.118 379.448 178.98 379.999 178.98C380.425 178.98 380.761 179.051 381.009 179.193C381.259 179.333 381.449 179.492 381.58 179.671C381.713 179.847 381.817 179.992 381.891 180.105H381.976V176.884H382.982V185.611H382.01V184.605H381.891C381.817 184.725 381.712 184.875 381.575 185.057C381.439 185.236 381.244 185.397 380.992 185.539C380.739 185.678 380.402 185.747 379.982 185.747ZM380.118 184.844C380.521 184.844 380.862 184.739 381.141 184.529C381.419 184.316 381.631 184.022 381.776 183.647C381.921 183.269 381.993 182.833 381.993 182.338C381.993 181.85 381.922 181.422 381.78 181.056C381.638 180.686 381.428 180.399 381.149 180.195C380.871 179.988 380.527 179.884 380.118 179.884C379.692 179.884 379.337 179.993 379.053 180.212C378.771 180.428 378.56 180.722 378.418 181.094C378.279 181.463 378.209 181.878 378.209 182.338C378.209 182.804 378.28 183.228 378.422 183.608C378.567 183.986 378.78 184.287 379.061 184.512C379.345 184.733 379.698 184.844 380.118 184.844Z" fill="#9B1F1F"/>
</g>
<g filter="url(#filter3_d_1232_67405)">
<rect x="102.23" y="223.129" width="295" height="67.0352" rx="3.47895" fill="#FAFCFE" shape-rendering="crispEdges"/>
<rect x="102.73" y="223.629" width="294" height="66.0352" rx="2.97895" stroke="#C9D4DE" shape-rendering="crispEdges"/>
<circle cx="117.971" cy="256.646" r="6.33398" stroke="#486581"/>
<path d="M134.634 254.101C134.583 253.669 134.376 253.334 134.012 253.095C133.649 252.856 133.203 252.737 132.674 252.737C132.288 252.737 131.95 252.8 131.66 252.925C131.373 253.05 131.149 253.222 130.987 253.44C130.828 253.659 130.748 253.908 130.748 254.186C130.748 254.419 130.804 254.619 130.914 254.787C131.028 254.952 131.173 255.089 131.349 255.2C131.525 255.308 131.71 255.398 131.903 255.469C132.096 255.537 132.274 255.592 132.436 255.635L133.322 255.874C133.549 255.933 133.802 256.016 134.081 256.121C134.362 256.226 134.63 256.369 134.886 256.551C135.144 256.73 135.358 256.96 135.525 257.241C135.693 257.523 135.777 257.868 135.777 258.277C135.777 258.749 135.653 259.175 135.406 259.555C135.161 259.936 134.804 260.239 134.332 260.463C133.863 260.687 133.294 260.8 132.623 260.8C131.998 260.8 131.457 260.699 131 260.497C130.545 260.295 130.187 260.014 129.926 259.653C129.667 259.293 129.521 258.874 129.487 258.396H130.578C130.606 258.726 130.717 258.999 130.91 259.214C131.106 259.427 131.353 259.587 131.652 259.692C131.953 259.794 132.277 259.845 132.623 259.845C133.027 259.845 133.389 259.78 133.71 259.649C134.031 259.516 134.285 259.331 134.473 259.095C134.66 258.856 134.754 258.578 134.754 258.26C134.754 257.97 134.673 257.734 134.511 257.552C134.349 257.371 134.136 257.223 133.872 257.109C133.608 256.996 133.322 256.896 133.015 256.811L131.941 256.504C131.259 256.308 130.72 256.028 130.322 255.665C129.924 255.301 129.725 254.825 129.725 254.237C129.725 253.749 129.858 253.322 130.122 252.959C130.389 252.592 130.747 252.308 131.196 252.106C131.647 251.902 132.152 251.8 132.708 251.8C133.271 251.8 133.771 251.901 134.208 252.102C134.646 252.301 134.992 252.574 135.248 252.92C135.507 253.267 135.643 253.66 135.657 254.101H134.634ZM140.122 260.783C139.491 260.783 138.947 260.643 138.49 260.365C138.035 260.084 137.685 259.692 137.437 259.189C137.193 258.683 137.071 258.095 137.071 257.425C137.071 256.754 137.193 256.163 137.437 255.652C137.685 255.138 138.028 254.737 138.469 254.45C138.912 254.16 139.429 254.016 140.02 254.016C140.361 254.016 140.697 254.072 141.03 254.186C141.362 254.3 141.665 254.484 141.937 254.74C142.21 254.993 142.427 255.328 142.589 255.746C142.751 256.163 142.832 256.677 142.832 257.288V257.714H137.787V256.845H141.81C141.81 256.476 141.736 256.146 141.588 255.856C141.443 255.567 141.236 255.338 140.966 255.17C140.699 255.003 140.383 254.919 140.02 254.919C139.619 254.919 139.273 255.018 138.98 255.217C138.69 255.413 138.467 255.669 138.311 255.984C138.155 256.3 138.077 256.638 138.077 256.999V257.578C138.077 258.072 138.162 258.491 138.332 258.835C138.506 259.176 138.746 259.436 139.052 259.615C139.359 259.791 139.716 259.879 140.122 259.879C140.386 259.879 140.625 259.842 140.838 259.768C141.054 259.692 141.24 259.578 141.396 259.427C141.552 259.274 141.673 259.084 141.758 258.856L142.73 259.129C142.628 259.459 142.456 259.749 142.214 259.999C141.973 260.246 141.675 260.439 141.32 260.578C140.964 260.714 140.565 260.783 140.122 260.783ZM145.368 256.709V260.646H144.362V254.101H145.334V255.124H145.419C145.572 254.791 145.805 254.524 146.118 254.322C146.43 254.118 146.834 254.016 147.328 254.016C147.771 254.016 148.159 254.106 148.491 254.288C148.824 254.467 149.082 254.74 149.267 255.106C149.452 255.47 149.544 255.93 149.544 256.487V260.646H148.538V256.555C148.538 256.041 148.405 255.641 148.138 255.354C147.871 255.064 147.504 254.919 147.038 254.919C146.717 254.919 146.43 254.989 146.177 255.128C145.927 255.267 145.73 255.47 145.585 255.737C145.44 256.004 145.368 256.328 145.368 256.709ZM153.853 260.783C153.308 260.783 152.826 260.645 152.409 260.369C151.991 260.091 151.664 259.699 151.429 259.193C151.193 258.685 151.075 258.084 151.075 257.391C151.075 256.703 151.193 256.106 151.429 255.601C151.664 255.095 151.992 254.704 152.413 254.429C152.833 254.153 153.319 254.016 153.87 254.016C154.296 254.016 154.633 254.087 154.88 254.229C155.13 254.368 155.321 254.527 155.451 254.706C155.585 254.882 155.688 255.027 155.762 255.141H155.848V251.919H156.853V260.646H155.882V259.641H155.762C155.688 259.76 155.583 259.91 155.447 260.092C155.311 260.271 155.116 260.432 154.863 260.574C154.61 260.713 154.274 260.783 153.853 260.783ZM153.99 259.879C154.393 259.879 154.734 259.774 155.012 259.564C155.291 259.351 155.502 259.057 155.647 258.682C155.792 258.304 155.865 257.868 155.865 257.374C155.865 256.885 155.794 256.457 155.652 256.091C155.509 255.722 155.299 255.435 155.021 255.23C154.742 255.023 154.399 254.919 153.99 254.919C153.563 254.919 153.208 255.028 152.924 255.247C152.643 255.463 152.431 255.757 152.289 256.129C152.15 256.499 152.081 256.913 152.081 257.374C152.081 257.839 152.152 258.263 152.294 258.643C152.438 259.021 152.652 259.322 152.933 259.547C153.217 259.768 153.569 259.879 153.99 259.879ZM162.346 260.646V251.919H163.352V255.141H163.437C163.511 255.027 163.613 254.882 163.744 254.706C163.877 254.527 164.068 254.368 164.315 254.229C164.565 254.087 164.903 254.016 165.329 254.016C165.88 254.016 166.366 254.153 166.786 254.429C167.207 254.704 167.535 255.095 167.771 255.601C168.007 256.106 168.125 256.703 168.125 257.391C168.125 258.084 168.007 258.685 167.771 259.193C167.535 259.699 167.208 260.091 166.791 260.369C166.373 260.645 165.892 260.783 165.346 260.783C164.926 260.783 164.589 260.713 164.336 260.574C164.083 260.432 163.889 260.271 163.752 260.092C163.616 259.91 163.511 259.76 163.437 259.641H163.318V260.646H162.346ZM163.335 257.374C163.335 257.868 163.407 258.304 163.552 258.682C163.697 259.057 163.909 259.351 164.187 259.564C164.465 259.774 164.806 259.879 165.21 259.879C165.63 259.879 165.981 259.768 166.262 259.547C166.546 259.322 166.759 259.021 166.902 258.643C167.046 258.263 167.119 257.839 167.119 257.374C167.119 256.913 167.048 256.499 166.906 256.129C166.767 255.757 166.555 255.463 166.271 255.247C165.99 255.028 165.636 254.919 165.21 254.919C164.801 254.919 164.457 255.023 164.179 255.23C163.9 255.435 163.69 255.722 163.548 256.091C163.406 256.457 163.335 256.885 163.335 257.374ZM169.663 260.646V254.101H170.669V260.646H169.663ZM170.174 253.01C169.978 253.01 169.809 252.943 169.667 252.81C169.528 252.676 169.458 252.516 169.458 252.328C169.458 252.141 169.528 251.98 169.667 251.847C169.809 251.713 169.978 251.646 170.174 251.646C170.37 251.646 170.538 251.713 170.677 251.847C170.819 251.98 170.89 252.141 170.89 252.328C170.89 252.516 170.819 252.676 170.677 252.81C170.538 252.943 170.37 253.01 170.174 253.01ZM172.511 260.646V254.101H173.482V255.089H173.55C173.67 254.766 173.886 254.503 174.198 254.301C174.511 254.099 174.863 253.999 175.255 253.999C175.329 253.999 175.421 254 175.532 254.003C175.643 254.006 175.726 254.01 175.783 254.016V255.038C175.749 255.03 175.671 255.017 175.549 255C175.43 254.98 175.303 254.97 175.17 254.97C174.851 254.97 174.567 255.037 174.317 255.17C174.07 255.301 173.874 255.483 173.729 255.716C173.587 255.946 173.516 256.209 173.516 256.504V260.646H172.511ZM180.232 254.101V254.953H176.84V254.101H180.232ZM177.829 252.533H178.834V258.771C178.834 259.055 178.876 259.268 178.958 259.41C179.043 259.55 179.151 259.643 179.282 259.692C179.415 259.737 179.556 259.76 179.704 259.76C179.815 259.76 179.905 259.754 179.976 259.743C180.047 259.729 180.104 259.717 180.147 259.709L180.351 260.612C180.283 260.638 180.188 260.663 180.066 260.689C179.944 260.717 179.789 260.731 179.601 260.731C179.317 260.731 179.039 260.67 178.766 260.548C178.496 260.426 178.272 260.24 178.093 259.99C177.917 259.74 177.829 259.425 177.829 259.044V252.533ZM182.891 256.709V260.646H181.886V251.919H182.891V255.124H182.976C183.13 254.785 183.36 254.517 183.667 254.318C183.976 254.116 184.388 254.016 184.903 254.016C185.349 254.016 185.739 254.105 186.074 254.284C186.41 254.46 186.67 254.731 186.854 255.098C187.042 255.462 187.136 255.925 187.136 256.487V260.646H186.13V256.555C186.13 256.035 185.995 255.633 185.725 255.349C185.458 255.062 185.087 254.919 184.613 254.919C184.283 254.919 183.988 254.989 183.726 255.128C183.468 255.267 183.263 255.47 183.113 255.737C182.965 256.004 182.891 256.328 182.891 256.709ZM191.447 260.783C190.902 260.783 190.42 260.645 190.002 260.369C189.585 260.091 189.258 259.699 189.022 259.193C188.786 258.685 188.669 258.084 188.669 257.391C188.669 256.703 188.786 256.106 189.022 255.601C189.258 255.095 189.586 254.704 190.007 254.429C190.427 254.153 190.913 254.016 191.464 254.016C191.89 254.016 192.227 254.087 192.474 254.229C192.724 254.368 192.914 254.527 193.045 254.706C193.179 254.882 193.282 255.027 193.356 255.141H193.441V251.919H194.447V260.646H193.475V259.641H193.356C193.282 259.76 193.177 259.91 193.041 260.092C192.904 260.271 192.71 260.432 192.457 260.574C192.204 260.713 191.867 260.783 191.447 260.783ZM191.583 259.879C191.987 259.879 192.328 259.774 192.606 259.564C192.884 259.351 193.096 259.057 193.241 258.682C193.386 258.304 193.458 257.868 193.458 257.374C193.458 256.885 193.387 256.457 193.245 256.091C193.103 255.722 192.893 255.435 192.615 255.23C192.336 255.023 191.992 254.919 191.583 254.919C191.157 254.919 190.802 255.028 190.518 255.247C190.237 255.463 190.025 255.757 189.883 256.129C189.744 256.499 189.674 256.913 189.674 257.374C189.674 257.839 189.745 258.263 189.887 258.643C190.032 259.021 190.245 259.322 190.527 259.547C190.811 259.768 191.163 259.879 191.583 259.879ZM198.355 260.8C197.94 260.8 197.563 260.722 197.225 260.565C196.887 260.406 196.619 260.177 196.42 259.879C196.221 259.578 196.122 259.214 196.122 258.788C196.122 258.413 196.196 258.109 196.343 257.876C196.491 257.641 196.688 257.456 196.936 257.322C197.183 257.189 197.456 257.089 197.754 257.024C198.055 256.956 198.358 256.902 198.661 256.862C199.059 256.811 199.382 256.773 199.629 256.747C199.879 256.719 200.061 256.672 200.174 256.606C200.291 256.541 200.349 256.427 200.349 256.266V256.231C200.349 255.811 200.234 255.484 200.004 255.251C199.777 255.018 199.431 254.902 198.968 254.902C198.488 254.902 198.112 255.007 197.839 255.217C197.566 255.427 197.375 255.652 197.264 255.891L196.309 255.55C196.48 255.152 196.707 254.842 196.991 254.621C197.278 254.396 197.59 254.24 197.929 254.152C198.269 254.061 198.605 254.016 198.934 254.016C199.144 254.016 199.386 254.041 199.659 254.092C199.934 254.141 200.2 254.241 200.456 254.395C200.714 254.548 200.929 254.78 201.099 255.089C201.269 255.399 201.355 255.814 201.355 256.334V260.646H200.349V259.76H200.298C200.23 259.902 200.116 260.054 199.957 260.216C199.798 260.378 199.586 260.516 199.322 260.629C199.058 260.743 198.735 260.8 198.355 260.8ZM198.508 259.896C198.906 259.896 199.241 259.818 199.514 259.662C199.789 259.506 199.997 259.304 200.136 259.057C200.278 258.81 200.349 258.55 200.349 258.277V257.356C200.306 257.408 200.213 257.454 200.068 257.497C199.926 257.537 199.761 257.572 199.573 257.604C199.389 257.632 199.208 257.658 199.032 257.68C198.859 257.7 198.718 257.717 198.61 257.731C198.349 257.766 198.105 257.821 197.877 257.898C197.653 257.972 197.471 258.084 197.332 258.234C197.196 258.382 197.127 258.584 197.127 258.839C197.127 259.189 197.257 259.453 197.515 259.632C197.777 259.808 198.108 259.896 198.508 259.896ZM203.604 263.101C203.433 263.101 203.281 263.087 203.148 263.058C203.014 263.033 202.922 263.007 202.871 262.981L203.126 262.095C203.371 262.158 203.587 262.18 203.774 262.163C203.962 262.146 204.128 262.062 204.273 261.912C204.42 261.764 204.555 261.524 204.677 261.192L204.865 260.68L202.445 254.101H203.535L205.342 259.317H205.41L207.217 254.101H208.308L205.53 261.601C205.405 261.939 205.25 262.219 205.065 262.44C204.881 262.665 204.666 262.831 204.422 262.939C204.18 263.047 203.908 263.101 203.604 263.101ZM215.67 260.783C215.056 260.783 214.528 260.638 214.084 260.348C213.641 260.058 213.3 259.659 213.062 259.151C212.823 258.642 212.704 258.061 212.704 257.408C212.704 256.743 212.826 256.156 213.07 255.648C213.317 255.136 213.661 254.737 214.101 254.45C214.545 254.16 215.062 254.016 215.653 254.016C216.113 254.016 216.528 254.101 216.897 254.271C217.266 254.442 217.569 254.68 217.805 254.987C218.04 255.294 218.187 255.652 218.244 256.061H217.238C217.161 255.763 216.991 255.499 216.726 255.268C216.465 255.035 216.113 254.919 215.67 254.919C215.278 254.919 214.934 255.021 214.638 255.226C214.346 255.427 214.117 255.713 213.952 256.082C213.79 256.449 213.709 256.879 213.709 257.374C213.709 257.879 213.789 258.32 213.948 258.695C214.11 259.07 214.337 259.361 214.63 259.568C214.925 259.776 215.272 259.879 215.67 259.879C215.931 259.879 216.168 259.834 216.381 259.743C216.594 259.652 216.775 259.521 216.922 259.351C217.07 259.18 217.175 258.976 217.238 258.737H218.244C218.187 259.124 218.046 259.472 217.822 259.781C217.6 260.088 217.306 260.332 216.94 260.514C216.576 260.693 216.153 260.783 215.67 260.783ZM221.64 260.8C221.225 260.8 220.849 260.722 220.511 260.565C220.172 260.406 219.904 260.177 219.705 259.879C219.506 259.578 219.407 259.214 219.407 258.788C219.407 258.413 219.481 258.109 219.628 257.876C219.776 257.641 219.974 257.456 220.221 257.322C220.468 257.189 220.741 257.089 221.039 257.024C221.34 256.956 221.643 256.902 221.947 256.862C222.344 256.811 222.667 256.773 222.914 256.747C223.164 256.719 223.346 256.672 223.459 256.606C223.576 256.541 223.634 256.427 223.634 256.266V256.231C223.634 255.811 223.519 255.484 223.289 255.251C223.062 255.018 222.717 254.902 222.253 254.902C221.773 254.902 221.397 255.007 221.124 255.217C220.851 255.427 220.66 255.652 220.549 255.891L219.594 255.55C219.765 255.152 219.992 254.842 220.276 254.621C220.563 254.396 220.876 254.24 221.214 254.152C221.555 254.061 221.89 254.016 222.219 254.016C222.43 254.016 222.671 254.041 222.944 254.092C223.219 254.141 223.485 254.241 223.741 254.395C223.999 254.548 224.214 254.78 224.384 255.089C224.555 255.399 224.64 255.814 224.64 256.334V260.646H223.634V259.76H223.583C223.515 259.902 223.401 260.054 223.242 260.216C223.083 260.378 222.871 260.516 222.607 260.629C222.343 260.743 222.021 260.8 221.64 260.8ZM221.793 259.896C222.191 259.896 222.526 259.818 222.799 259.662C223.074 259.506 223.282 259.304 223.421 259.057C223.563 258.81 223.634 258.55 223.634 258.277V257.356C223.592 257.408 223.498 257.454 223.353 257.497C223.211 257.537 223.046 257.572 222.859 257.604C222.674 257.632 222.494 257.658 222.317 257.68C222.144 257.7 222.003 257.717 221.896 257.731C221.634 257.766 221.39 257.821 221.163 257.898C220.938 257.972 220.756 258.084 220.617 258.234C220.481 258.382 220.413 258.584 220.413 258.839C220.413 259.189 220.542 259.453 220.8 259.632C221.062 259.808 221.393 259.896 221.793 259.896ZM226.475 260.646V254.101H227.447V255.089H227.515C227.634 254.766 227.85 254.503 228.163 254.301C228.475 254.099 228.828 253.999 229.22 253.999C229.294 253.999 229.386 254 229.497 254.003C229.608 254.006 229.691 254.01 229.748 254.016V255.038C229.714 255.03 229.636 255.017 229.514 255C229.394 254.98 229.268 254.97 229.134 254.97C228.816 254.97 228.532 255.037 228.282 255.17C228.035 255.301 227.839 255.483 227.694 255.716C227.552 255.946 227.481 256.209 227.481 256.504V260.646H226.475ZM233.213 260.783C232.667 260.783 232.186 260.645 231.768 260.369C231.35 260.091 231.024 259.699 230.788 259.193C230.552 258.685 230.434 258.084 230.434 257.391C230.434 256.703 230.552 256.106 230.788 255.601C231.024 255.095 231.352 254.704 231.772 254.429C232.193 254.153 232.679 254.016 233.23 254.016C233.656 254.016 233.992 254.087 234.24 254.229C234.49 254.368 234.68 254.527 234.811 254.706C234.944 254.882 235.048 255.027 235.122 255.141H235.207V251.919H236.213V260.646H235.241V259.641H235.122C235.048 259.76 234.943 259.91 234.806 260.092C234.67 260.271 234.475 260.432 234.223 260.574C233.97 260.713 233.633 260.783 233.213 260.783ZM233.349 259.879C233.752 259.879 234.093 259.774 234.372 259.564C234.65 259.351 234.862 259.057 235.007 258.682C235.152 258.304 235.224 257.868 235.224 257.374C235.224 256.885 235.153 256.457 235.011 256.091C234.869 255.722 234.659 255.435 234.38 255.23C234.102 255.023 233.758 254.919 233.349 254.919C232.923 254.919 232.568 255.028 232.284 255.247C232.002 255.463 231.791 255.757 231.649 256.129C231.509 256.499 231.44 256.913 231.44 257.374C231.44 257.839 231.511 258.263 231.653 258.643C231.798 259.021 232.011 259.322 232.292 259.547C232.576 259.768 232.929 259.879 233.349 259.879Z" fill="#486581"/>
<circle cx="265.295" cy="243.635" r="4.50586" fill="#D9E2EC"/>
<rect x="273.801" y="241.148" width="70.8707" height="4.97338" rx="2.48669" fill="#D9E2EC"/>
<circle cx="265.295" cy="256.646" r="4.50586" fill="#D9E2EC"/>
<rect x="273.801" y="254.16" width="63.6914" height="4.97338" rx="2.48669" fill="#D9E2EC"/>
<circle cx="265.295" cy="269.658" r="4.50586" fill="#D9E2EC"/>
<rect x="273.801" y="267.171" width="67.4141" height="4.97338" rx="2.48669" fill="#D9E2EC"/>
<rect x="366.324" y="245.646" width="22" height="22" rx="4" fill="#F1D3D3"/>
<path d="M374.296 251.919V260.646H373.239V253.027H373.188L371.057 254.442V253.368L373.239 251.919H374.296ZM379.294 260.783C378.749 260.783 378.267 260.645 377.85 260.369C377.432 260.091 377.105 259.699 376.869 259.193C376.634 258.685 376.516 258.084 376.516 257.391C376.516 256.703 376.634 256.106 376.869 255.601C377.105 255.095 377.433 254.704 377.854 254.429C378.274 254.153 378.76 254.016 379.311 254.016C379.737 254.016 380.074 254.087 380.321 254.229C380.571 254.368 380.761 254.527 380.892 254.706C381.026 254.882 381.129 255.027 381.203 255.141H381.288V251.919H382.294V260.646H381.323V259.641H381.203C381.129 259.76 381.024 259.91 380.888 260.092C380.752 260.271 380.557 260.432 380.304 260.574C380.051 260.713 379.715 260.783 379.294 260.783ZM379.431 259.879C379.834 259.879 380.175 259.774 380.453 259.564C380.732 259.351 380.943 259.057 381.088 258.682C381.233 258.304 381.306 257.868 381.306 257.374C381.306 256.885 381.234 256.457 381.092 256.091C380.95 255.722 380.74 255.435 380.462 255.23C380.183 255.023 379.84 254.919 379.431 254.919C379.004 254.919 378.649 255.028 378.365 255.247C378.084 255.463 377.872 255.757 377.73 256.129C377.591 256.499 377.521 256.913 377.521 257.374C377.521 257.839 377.592 258.263 377.734 258.643C377.879 259.021 378.092 259.322 378.374 259.547C378.658 259.768 379.01 259.879 379.431 259.879Z" fill="#9B1F1F"/>
</g>
</g>
<rect x="86.7305" y="31.5583" width="326" height="274.105" rx="9.44677" stroke="#2680C2"/>
</g>
<defs>
<filter id="filter0_dd_1232_67405" x="73.6416" y="31.0583" width="352.178" height="300.283" filterUnits="userSpaceOnUse" color-interpolation-filters="sRGB">
<feFlood flood-opacity="0" result="BackgroundImageFix"/>
<feColorMatrix in="SourceAlpha" type="matrix" values="0 0 0 0 0 0 0 0 0 0 0 0 0 0 0 0 0 0 127 0" result="hardAlpha"/>
<feMorphology radius="2.09815" operator="erode" in="SourceAlpha" result="effect1_dropShadow_1232_67405"/>
<feOffset dy="4.19629"/>
<feGaussianBlur stdDeviation="3.14722"/>
<feComposite in2="hardAlpha" operator="out"/>
<feColorMatrix type="matrix" values="0 0 0 0 0 0 0 0 0 0 0 0 0 0 0 0 0 0 0.03 0"/>
<feBlend mode="normal" in2="BackgroundImageFix" result="effect1_dropShadow_1232_67405"/>
<feColorMatrix in="SourceAlpha" type="matrix" values="0 0 0 0 0 0 0 0 0 0 0 0 0 0 0 0 0 0 127 0" result="hardAlpha"/>
<feMorphology radius="4.19629" operator="erode" in="SourceAlpha" result="effect2_dropShadow_1232_67405"/>
<feOffset dy="12.5889"/>
<feGaussianBlur stdDeviation="8.39259"/>
<feComposite in2="hardAlpha" operator="out"/>
<feColorMatrix type="matrix" values="0 0 0 0 0 0 0 0 0 0 0 0 0 0 0 0 0 0 0.08 0"/>
<feBlend mode="normal" in2="effect1_dropShadow_1232_67405" result="effect2_dropShadow_1232_67405"/>
<feBlend mode="normal" in="SourceGraphic" in2="effect2_dropShadow_1232_67405" result="shape"/>
</filter>
<filter id="filter1_d_1232_67405" x="101.361" y="72.6235" width="296.739" height="68.7746" filterUnits="userSpaceOnUse" color-interpolation-filters="sRGB">
<feFlood flood-opacity="0" result="BackgroundImageFix"/>
<feColorMatrix in="SourceAlpha" type="matrix" values="0 0 0 0 0 0 0 0 0 0 0 0 0 0 0 0 0 0 127 0" result="hardAlpha"/>
<feOffset dy="0.434869"/>
<feGaussianBlur stdDeviation="0.434869"/>
<feComposite in2="hardAlpha" operator="out"/>
<feColorMatrix type="matrix" values="0 0 0 0 0 0 0 0 0 0 0 0 0 0 0 0 0 0 0.04 0"/>
<feBlend mode="normal" in2="BackgroundImageFix" result="effect1_dropShadow_1232_67405"/>
<feBlend mode="normal" in="SourceGraphic" in2="effect1_dropShadow_1232_67405" result="shape"/>
</filter>
<filter id="filter2_d_1232_67405" x="101.361" y="147.659" width="296.739" height="68.7746" filterUnits="userSpaceOnUse" color-interpolation-filters="sRGB">
<feFlood flood-opacity="0" result="BackgroundImageFix"/>
<feColorMatrix in="SourceAlpha" type="matrix" values="0 0 0 0 0 0 0 0 0 0 0 0 0 0 0 0 0 0 127 0" result="hardAlpha"/>
<feOffset dy="0.434869"/>
<feGaussianBlur stdDeviation="0.434869"/>
<feComposite in2="hardAlpha" operator="out"/>
<feColorMatrix type="matrix" values="0 0 0 0 0 0 0 0 0 0 0 0 0 0 0 0 0 0 0.04 0"/>
<feBlend mode="normal" in2="BackgroundImageFix" result="effect1_dropShadow_1232_67405"/>
<feBlend mode="normal" in="SourceGraphic" in2="effect1_dropShadow_1232_67405" result="shape"/>
</filter>
<filter id="filter3_d_1232_67405" x="101.361" y="222.694" width="296.739" height="68.7746" filterUnits="userSpaceOnUse" color-interpolation-filters="sRGB">
<feFlood flood-opacity="0" result="BackgroundImageFix"/>
<feColorMatrix in="SourceAlpha" type="matrix" values="0 0 0 0 0 0 0 0 0 0 0 0 0 0 0 0 0 0 127 0" result="hardAlpha"/>
<feOffset dy="0.434869"/>
<feGaussianBlur stdDeviation="0.434869"/>
<feComposite in2="hardAlpha" operator="out"/>
<feColorMatrix type="matrix" values="0 0 0 0 0 0 0 0 0 0 0 0 0 0 0 0 0 0 0.04 0"/>
<feBlend mode="normal" in2="BackgroundImageFix" result="effect1_dropShadow_1232_67405"/>
<feBlend mode="normal" in="SourceGraphic" in2="effect1_dropShadow_1232_67405" result="shape"/>
</filter>
<clipPath id="clip0_1232_67405">
<rect x="86.2305" y="31.0583" width="327" height="275.105" rx="9.94677" fill="white"/>
</clipPath>
</defs>
</svg>
