<svg width="500" height="348" viewBox="0 0 500 348" fill="none" xmlns="http://www.w3.org/2000/svg">
<g filter="url(#filter0_dd_1232_65810)">
<g clip-path="url(#clip0_1232_65810)">
<rect x="203.082" y="56.1392" width="217" height="234.882" rx="9.94677" fill="white"/>
<path d="M236.801 89.3927H234.942C234.889 89.0878 234.791 88.8177 234.649 88.5824C234.506 88.3437 234.329 88.1415 234.117 87.9758C233.905 87.8101 233.663 87.6858 233.391 87.603C233.123 87.5168 232.833 87.4737 232.521 87.4737C231.967 87.4737 231.477 87.6129 231.049 87.8913C230.622 88.1664 230.287 88.5708 230.045 89.1044C229.803 89.6347 229.682 90.2826 229.682 91.0483C229.682 91.8271 229.803 92.4834 230.045 93.017C230.29 93.5473 230.625 93.9484 231.049 94.2201C231.477 94.4886 231.966 94.6228 232.516 94.6228C232.821 94.6228 233.106 94.5831 233.371 94.5035C233.64 94.4207 233.88 94.2997 234.092 94.1406C234.307 93.9815 234.488 93.786 234.634 93.5539C234.783 93.3219 234.886 93.0568 234.942 92.7585L236.801 92.7684C236.732 93.2523 236.581 93.7064 236.349 94.1307C236.12 94.5549 235.82 94.9294 235.449 95.2542C235.078 95.5757 234.644 95.8276 234.147 96.0099C233.65 96.1889 233.098 96.2784 232.491 96.2784C231.596 96.2784 230.797 96.0712 230.095 95.6569C229.392 95.2426 228.839 94.6444 228.434 93.8622C228.03 93.08 227.828 92.142 227.828 91.0483C227.828 89.9512 228.032 89.0132 228.439 88.2343C228.847 87.4521 229.402 86.8539 230.105 86.4396C230.807 86.0253 231.603 85.8182 232.491 85.8182C233.058 85.8182 233.585 85.8977 234.072 86.0568C234.559 86.2159 234.993 86.4495 235.375 86.7578C235.756 87.0627 236.069 87.4372 236.314 87.8814C236.563 88.3222 236.725 88.826 236.801 89.3927ZM241.742 96.2883C240.996 96.2883 240.35 96.1243 239.803 95.7961C239.256 95.468 238.832 95.009 238.53 94.419C238.232 93.829 238.083 93.1396 238.083 92.3508C238.083 91.562 238.232 90.8709 238.53 90.2777C238.832 89.6844 239.256 89.2237 239.803 88.8956C240.35 88.5674 240.996 88.4034 241.742 88.4034C242.488 88.4034 243.134 88.5674 243.681 88.8956C244.228 89.2237 244.65 89.6844 244.949 90.2777C245.25 90.8709 245.401 91.562 245.401 92.3508C245.401 93.1396 245.25 93.829 244.949 94.419C244.65 95.009 244.228 95.468 243.681 95.7961C243.134 96.1243 242.488 96.2883 241.742 96.2883ZM241.752 94.8466C242.156 94.8466 242.494 94.7355 242.766 94.5135C243.038 94.2881 243.24 93.9865 243.373 93.6086C243.509 93.2308 243.577 92.8099 243.577 92.3459C243.577 91.8785 243.509 91.4559 243.373 91.0781C243.24 90.6969 243.038 90.3937 242.766 90.1683C242.494 89.9429 242.156 89.8302 241.752 89.8302C241.338 89.8302 240.993 89.9429 240.718 90.1683C240.446 90.3937 240.242 90.6969 240.106 91.0781C239.974 91.4559 239.907 91.8785 239.907 92.3459C239.907 92.8099 239.974 93.2308 240.106 93.6086C240.242 93.9865 240.446 94.2881 240.718 94.5135C240.993 94.7355 241.338 94.8466 241.752 94.8466ZM248.728 91.6647V96.1392H246.929V88.5028H248.649V89.8004H248.738C248.914 89.3728 249.194 89.0331 249.578 88.7812C249.966 88.5293 250.445 88.4034 251.015 88.4034C251.542 88.4034 252.001 88.5161 252.392 88.7414C252.787 88.9668 253.092 89.2933 253.307 89.7209C253.526 90.1484 253.634 90.6671 253.63 91.277V96.1392H251.831V91.5554C251.831 91.045 251.698 90.6456 251.433 90.3572C251.171 90.0689 250.808 89.9247 250.344 89.9247C250.029 89.9247 249.749 89.9943 249.504 90.1335C249.262 90.2694 249.071 90.4666 248.932 90.7251C248.796 90.9836 248.728 91.2968 248.728 91.6647ZM259.273 88.5028V89.8949H254.883V88.5028H259.273ZM255.967 86.6733H257.767V93.8423C257.767 94.0843 257.803 94.2699 257.876 94.3991C257.952 94.5251 258.052 94.6112 258.174 94.6576C258.297 94.704 258.433 94.7272 258.582 94.7272C258.695 94.7272 258.797 94.719 258.89 94.7024C258.986 94.6858 259.059 94.6709 259.109 94.6576L259.412 96.0646C259.316 96.0977 259.179 96.1342 259 96.174C258.824 96.2137 258.609 96.237 258.353 96.2436C257.903 96.2568 257.497 96.1889 257.135 96.0397C256.774 95.8873 256.487 95.652 256.275 95.3338C256.066 95.0156 255.964 94.6179 255.967 94.1406V86.6733ZM262.976 96.2933C262.492 96.2933 262.056 96.2071 261.668 96.0348C261.284 95.8591 260.979 95.6006 260.753 95.2592C260.531 94.9178 260.42 94.4969 260.42 93.9964C260.42 93.5655 260.5 93.2093 260.659 92.9275C260.818 92.6458 261.035 92.4204 261.31 92.2514C261.585 92.0824 261.895 91.9548 262.24 91.8686C262.588 91.7791 262.948 91.7145 263.319 91.6747C263.766 91.6283 264.129 91.5869 264.407 91.5504C264.686 91.5106 264.888 91.451 265.014 91.3714C265.143 91.2886 265.208 91.161 265.208 90.9886V90.9588C265.208 90.5843 265.097 90.2942 264.875 90.0887C264.653 89.8833 264.333 89.7805 263.915 89.7805C263.474 89.7805 263.125 89.8766 262.866 90.0689C262.611 90.2611 262.439 90.4881 262.349 90.75L260.669 90.5113C260.801 90.0473 261.02 89.6595 261.325 89.348C261.63 89.0331 262.003 88.7978 262.444 88.642C262.885 88.4829 263.372 88.4034 263.905 88.4034C264.273 88.4034 264.64 88.4465 265.004 88.5326C265.369 88.6188 265.702 88.7613 266.003 88.9602C266.305 89.1557 266.547 89.4226 266.729 89.7606C266.915 90.0987 267.008 90.5213 267.008 91.0284V96.1392H265.278V95.0902H265.218C265.108 95.3023 264.954 95.5012 264.756 95.6868C264.56 95.8691 264.313 96.0165 264.015 96.1292C263.72 96.2386 263.373 96.2933 262.976 96.2933ZM263.443 94.9709C263.804 94.9709 264.117 94.8996 264.383 94.7571C264.648 94.6112 264.852 94.419 264.994 94.1804C265.14 93.9417 265.213 93.6816 265.213 93.3998V92.5C265.157 92.5464 265.06 92.5895 264.925 92.6292C264.792 92.669 264.643 92.7038 264.477 92.7336C264.311 92.7635 264.147 92.79 263.985 92.8132C263.823 92.8364 263.682 92.8563 263.562 92.8728C263.294 92.9093 263.054 92.969 262.841 93.0518C262.629 93.1347 262.462 93.2507 262.339 93.3998C262.217 93.5457 262.155 93.7346 262.155 93.9666C262.155 94.298 262.276 94.5483 262.518 94.7173C262.76 94.8863 263.068 94.9709 263.443 94.9709ZM272.148 96.2883C271.386 96.2883 270.731 96.1209 270.184 95.7862C269.641 95.4514 269.222 94.9891 268.927 94.3991C268.635 93.8058 268.489 93.1231 268.489 92.3508C268.489 91.5753 268.638 90.8908 268.937 90.2976C269.235 89.701 269.656 89.2369 270.199 88.9055C270.746 88.5708 271.393 88.4034 272.138 88.4034C272.758 88.4034 273.307 88.5177 273.784 88.7464C274.265 88.9718 274.647 89.2916 274.932 89.7059C275.217 90.1169 275.38 90.5975 275.42 91.1477H273.699C273.63 90.7798 273.464 90.4732 273.202 90.228C272.944 89.9794 272.597 89.8551 272.163 89.8551C271.795 89.8551 271.472 89.9545 271.194 90.1534C270.915 90.3489 270.698 90.6307 270.542 90.9986C270.39 91.3664 270.314 91.8073 270.314 92.321C270.314 92.8414 270.39 93.2888 270.542 93.6633C270.695 94.0345 270.909 94.3212 271.184 94.5234C271.462 94.7223 271.789 94.8217 272.163 94.8217C272.428 94.8217 272.665 94.772 272.874 94.6726C273.086 94.5698 273.264 94.4223 273.406 94.2301C273.549 94.0378 273.646 93.8042 273.699 93.5291H275.42C275.376 94.0693 275.217 94.5483 274.942 94.9659C274.667 95.3802 274.293 95.705 273.819 95.9403C273.345 96.1723 272.788 96.2883 272.148 96.2883ZM280.711 88.5028V89.8949H276.321V88.5028H280.711ZM277.404 86.6733H279.204V93.8423C279.204 94.0843 279.241 94.2699 279.314 94.3991C279.39 94.5251 279.489 94.6112 279.612 94.6576C279.734 94.704 279.87 94.7272 280.02 94.7272C280.132 94.7272 280.235 94.719 280.328 94.7024C280.424 94.6858 280.497 94.6709 280.547 94.6576L280.85 96.0646C280.754 96.0977 280.616 96.1342 280.437 96.174C280.261 96.2137 280.046 96.237 279.791 96.2436C279.34 96.2568 278.934 96.1889 278.573 96.0397C278.212 95.8873 277.925 95.652 277.713 95.3338C277.504 95.0156 277.401 94.6179 277.404 94.1406V86.6733ZM288.142 90.5213L286.501 90.7003C286.455 90.5345 286.374 90.3788 286.258 90.2329C286.145 90.0871 285.992 89.9694 285.8 89.8799C285.608 89.7905 285.373 89.7457 285.094 89.7457C284.72 89.7457 284.405 89.8269 284.15 89.9893C283.898 90.1517 283.773 90.3622 283.777 90.6207C283.773 90.8428 283.855 91.0234 284.02 91.1626C284.189 91.3018 284.468 91.4162 284.856 91.5057L286.158 91.7841C286.881 91.9398 287.418 92.1868 287.769 92.5248C288.124 92.8629 288.303 93.3054 288.306 93.8522C288.303 94.3328 288.162 94.7571 287.883 95.125C287.608 95.4896 287.225 95.7746 286.735 95.9801C286.244 96.1856 285.681 96.2883 285.045 96.2883C284.11 96.2883 283.358 96.0928 282.787 95.7017C282.217 95.3073 281.878 94.7587 281.768 94.0561L283.523 93.887C283.603 94.2317 283.772 94.4919 284.03 94.6676C284.289 94.8432 284.625 94.9311 285.04 94.9311C285.467 94.9311 285.81 94.8432 286.069 94.6676C286.331 94.4919 286.461 94.2748 286.461 94.0163C286.461 93.7976 286.377 93.6169 286.208 93.4744C286.042 93.3319 285.784 93.2225 285.432 93.1463L284.13 92.8728C283.397 92.7204 282.855 92.4635 282.504 92.1022C282.153 91.7377 281.979 91.277 281.982 90.7201C281.979 90.2495 282.106 89.8418 282.365 89.4971C282.627 89.1491 282.99 88.8807 283.454 88.6917C283.921 88.4995 284.46 88.4034 285.069 88.4034C285.964 88.4034 286.669 88.594 287.182 88.9751C287.699 89.3563 288.019 89.8717 288.142 90.5213ZM295.46 96.2933C294.976 96.2933 294.54 96.2071 294.153 96.0348C293.768 95.8591 293.463 95.6006 293.238 95.2592C293.016 94.9178 292.905 94.4969 292.905 93.9964C292.905 93.5655 292.984 93.2093 293.143 92.9275C293.302 92.6458 293.519 92.4204 293.795 92.2514C294.07 92.0824 294.38 91.9548 294.724 91.8686C295.072 91.7791 295.432 91.7145 295.803 91.6747C296.251 91.6283 296.613 91.5869 296.892 91.5504C297.17 91.5106 297.372 91.451 297.498 91.3714C297.628 91.2886 297.692 91.161 297.692 90.9886V90.9588C297.692 90.5843 297.581 90.2942 297.359 90.0887C297.137 89.8833 296.817 89.7805 296.4 89.7805C295.959 89.7805 295.609 89.8766 295.351 90.0689C295.095 90.2611 294.923 90.4881 294.834 90.75L293.153 90.5113C293.286 90.0473 293.505 89.6595 293.809 89.348C294.114 89.0331 294.487 88.7978 294.928 88.642C295.369 88.4829 295.856 88.4034 296.39 88.4034C296.758 88.4034 297.124 88.4465 297.488 88.5326C297.853 88.6188 298.186 88.7613 298.488 88.9602C298.789 89.1557 299.031 89.4226 299.214 89.7606C299.399 90.0987 299.492 90.5213 299.492 91.0284V96.1392H297.762V95.0902H297.702C297.593 95.3023 297.439 95.5012 297.24 95.6868C297.044 95.8691 296.797 96.0165 296.499 96.1292C296.204 96.2386 295.858 96.2933 295.46 96.2933ZM295.927 94.9709C296.289 94.9709 296.602 94.8996 296.867 94.7571C297.132 94.6112 297.336 94.419 297.479 94.1804C297.624 93.9417 297.697 93.6816 297.697 93.3998V92.5C297.641 92.5464 297.545 92.5895 297.409 92.6292C297.276 92.669 297.127 92.7038 296.961 92.7336C296.796 92.7635 296.632 92.79 296.469 92.8132C296.307 92.8364 296.166 92.8563 296.047 92.8728C295.778 92.9093 295.538 92.969 295.326 93.0518C295.114 93.1347 294.946 93.2507 294.824 93.3998C294.701 93.5457 294.64 93.7346 294.64 93.9666C294.64 94.298 294.761 94.5483 295.003 94.7173C295.245 94.8863 295.553 94.9709 295.927 94.9709ZM303.101 91.6647V96.1392H301.302V88.5028H303.022V89.8004H303.111C303.287 89.3728 303.567 89.0331 303.952 88.7812C304.339 88.5293 304.818 88.4034 305.388 88.4034C305.915 88.4034 306.374 88.5161 306.765 88.7414C307.16 88.9668 307.465 89.2933 307.68 89.7209C307.899 90.1484 308.007 90.6671 308.003 91.277V96.1392H306.204V91.5554C306.204 91.045 306.071 90.6456 305.806 90.3572C305.544 90.0689 305.181 89.9247 304.717 89.9247C304.402 89.9247 304.122 89.9943 303.877 90.1335C303.635 90.2694 303.444 90.4666 303.305 90.7251C303.169 90.9836 303.101 91.2968 303.101 91.6647ZM312.667 96.2734C312.067 96.2734 311.53 96.1193 311.056 95.8111C310.582 95.5028 310.207 95.0554 309.932 94.4687C309.657 93.8821 309.52 93.1695 309.52 92.3309C309.52 91.4825 309.659 90.7665 309.937 90.1832C310.219 89.5966 310.599 89.1541 311.076 88.8558C311.553 88.5542 312.085 88.4034 312.672 88.4034C313.119 88.4034 313.487 88.4796 313.775 88.6321C314.064 88.7812 314.292 88.9619 314.461 89.174C314.631 89.3828 314.761 89.58 314.854 89.7656H314.929V85.9574H316.733V96.1392H314.964V94.9361H314.854C314.761 95.1217 314.627 95.3189 314.452 95.5277C314.276 95.7332 314.044 95.9088 313.756 96.0547C313.467 96.2005 313.104 96.2734 312.667 96.2734ZM313.169 94.7968C313.55 94.7968 313.875 94.6941 314.143 94.4886C314.412 94.2798 314.616 93.9898 314.755 93.6186C314.894 93.2474 314.964 92.8148 314.964 92.321C314.964 91.8271 314.894 91.3979 314.755 91.0334C314.619 90.6688 314.417 90.3854 314.148 90.1832C313.883 89.981 313.557 89.8799 313.169 89.8799C312.768 89.8799 312.433 89.9843 312.165 90.1932C311.896 90.402 311.694 90.6903 311.558 91.0582C311.422 91.4261 311.354 91.847 311.354 92.321C311.354 92.7983 311.422 93.2242 311.558 93.5987C311.697 93.9699 311.901 94.2632 312.17 94.4787C312.441 94.6908 312.774 94.7968 313.169 94.7968ZM325.455 96.2883C324.693 96.2883 324.038 96.1209 323.491 95.7862C322.948 95.4514 322.528 94.9891 322.233 94.3991C321.942 93.8058 321.796 93.1231 321.796 92.3508C321.796 91.5753 321.945 90.8908 322.243 90.2976C322.542 89.701 322.962 89.2369 323.506 88.9055C324.053 88.5708 324.699 88.4034 325.445 88.4034C326.065 88.4034 326.613 88.5177 327.091 88.7464C327.571 88.9718 327.954 89.2916 328.239 89.7059C328.524 90.1169 328.686 90.5975 328.726 91.1477H327.006C326.936 90.7798 326.771 90.4732 326.509 90.228C326.25 89.9794 325.904 89.8551 325.47 89.8551C325.102 89.8551 324.779 89.9545 324.5 90.1534C324.222 90.3489 324.005 90.6307 323.849 90.9986C323.697 91.3664 323.62 91.8073 323.62 92.321C323.62 92.8414 323.697 93.2888 323.849 93.6633C324.002 94.0345 324.215 94.3212 324.49 94.5234C324.769 94.7223 325.095 94.8217 325.47 94.8217C325.735 94.8217 325.972 94.772 326.181 94.6726C326.393 94.5698 326.57 94.4223 326.713 94.2301C326.855 94.0378 326.953 93.8042 327.006 93.5291H328.726C328.683 94.0693 328.524 94.5483 328.249 94.9659C327.974 95.3802 327.599 95.705 327.125 95.9403C326.651 96.1723 326.095 96.2883 325.455 96.2883ZM333.535 96.2883C332.789 96.2883 332.143 96.1243 331.596 95.7961C331.049 95.468 330.625 95.009 330.323 94.419C330.025 93.829 329.876 93.1396 329.876 92.3508C329.876 91.562 330.025 90.8709 330.323 90.2777C330.625 89.6844 331.049 89.2237 331.596 88.8956C332.143 88.5674 332.789 88.4034 333.535 88.4034C334.281 88.4034 334.927 88.5674 335.474 88.8956C336.021 89.2237 336.443 89.6844 336.742 90.2777C337.043 90.8709 337.194 91.562 337.194 92.3508C337.194 93.1396 337.043 93.829 336.742 94.419C336.443 95.009 336.021 95.468 335.474 95.7961C334.927 96.1243 334.281 96.2883 333.535 96.2883ZM333.545 94.8466C333.949 94.8466 334.287 94.7355 334.559 94.5135C334.831 94.2881 335.033 93.9865 335.166 93.6086C335.302 93.2308 335.369 92.8099 335.369 92.3459C335.369 91.8785 335.302 91.4559 335.166 91.0781C335.033 90.6969 334.831 90.3937 334.559 90.1683C334.287 89.9429 333.949 89.8302 333.545 89.8302C333.131 89.8302 332.786 89.9429 332.511 90.1683C332.239 90.3937 332.035 90.6969 331.899 91.0781C331.767 91.4559 331.7 91.8785 331.7 92.3459C331.7 92.8099 331.767 93.2308 331.899 93.6086C332.035 93.9865 332.239 94.2881 332.511 94.5135C332.786 94.7355 333.131 94.8466 333.545 94.8466ZM338.722 96.1392V88.5028H340.442V89.8004H340.531C340.69 89.3629 340.954 89.0215 341.322 88.7762C341.69 88.5277 342.129 88.4034 342.639 88.4034C343.156 88.4034 343.592 88.5293 343.947 88.7812C344.305 89.0298 344.557 89.3695 344.702 89.8004H344.782C344.951 89.3762 345.236 89.0381 345.637 88.7862C346.041 88.531 346.52 88.4034 347.074 88.4034C347.777 88.4034 348.35 88.6254 348.794 89.0696C349.238 89.5137 349.46 90.1617 349.46 91.0135V96.1392H347.656V91.2919C347.656 90.8179 347.53 90.4716 347.278 90.2528C347.026 90.0307 346.718 89.9197 346.353 89.9197C345.919 89.9197 345.579 90.0556 345.334 90.3274C345.092 90.5959 344.971 90.9455 344.971 91.3764V96.1392H343.206V91.2173C343.206 90.8229 343.087 90.508 342.848 90.2727C342.613 90.0374 342.304 89.9197 341.923 89.9197C341.665 89.9197 341.429 89.986 341.217 90.1186C341.005 90.2478 340.836 90.4318 340.71 90.6704C340.584 90.9057 340.521 91.1808 340.521 91.4957V96.1392H338.722ZM351.286 99.0028V88.5028H353.056V89.7656H353.16C353.253 89.58 353.384 89.3828 353.553 89.174C353.722 88.9619 353.951 88.7812 354.239 88.6321C354.528 88.4796 354.895 88.4034 355.343 88.4034C355.933 88.4034 356.465 88.5542 356.939 88.8558C357.416 89.1541 357.794 89.5966 358.072 90.1832C358.354 90.7665 358.495 91.4825 358.495 92.3309C358.495 93.1695 358.357 93.8821 358.082 94.4687C357.807 95.0554 357.433 95.5028 356.959 95.8111C356.485 96.1193 355.948 96.2734 355.348 96.2734C354.91 96.2734 354.547 96.2005 354.259 96.0547C353.971 95.9088 353.739 95.7332 353.563 95.5277C353.391 95.3189 353.256 95.1217 353.16 94.9361H353.086V99.0028H351.286ZM353.051 92.321C353.051 92.8148 353.121 93.2474 353.26 93.6186C353.402 93.9898 353.606 94.2798 353.871 94.4886C354.14 94.6941 354.465 94.7968 354.846 94.7968C355.243 94.7968 355.577 94.6908 355.845 94.4787C356.113 94.2632 356.316 93.9699 356.452 93.5987C356.591 93.2242 356.66 92.7983 356.66 92.321C356.66 91.847 356.592 91.4261 356.456 91.0582C356.321 90.6903 356.118 90.402 355.85 90.1932C355.581 89.9843 355.247 89.8799 354.846 89.8799C354.461 89.8799 354.135 89.981 353.866 90.1832C353.598 90.3854 353.394 90.6688 353.255 91.0334C353.119 91.3979 353.051 91.8271 353.051 92.321ZM362.233 96.2933C361.75 96.2933 361.314 96.2071 360.926 96.0348C360.541 95.8591 360.237 95.6006 360.011 95.2592C359.789 94.9178 359.678 94.4969 359.678 93.9964C359.678 93.5655 359.758 93.2093 359.917 92.9275C360.076 92.6458 360.293 92.4204 360.568 92.2514C360.843 92.0824 361.153 91.9548 361.498 91.8686C361.846 91.7791 362.205 91.7145 362.577 91.6747C363.024 91.6283 363.387 91.5869 363.665 91.5504C363.944 91.5106 364.146 91.451 364.272 91.3714C364.401 91.2886 364.466 91.161 364.466 90.9886V90.9588C364.466 90.5843 364.355 90.2942 364.133 90.0887C363.911 89.8833 363.591 89.7805 363.173 89.7805C362.732 89.7805 362.383 89.8766 362.124 90.0689C361.869 90.2611 361.697 90.4881 361.607 90.75L359.927 90.5113C360.059 90.0473 360.278 89.6595 360.583 89.348C360.888 89.0331 361.261 88.7978 361.702 88.642C362.142 88.4829 362.63 88.4034 363.163 88.4034C363.531 88.4034 363.897 88.4465 364.262 88.5326C364.626 88.6188 364.96 88.7613 365.261 88.9602C365.563 89.1557 365.805 89.4226 365.987 89.7606C366.173 90.0987 366.265 90.5213 366.265 91.0284V96.1392H364.535V95.0902H364.476C364.366 95.3023 364.212 95.5012 364.013 95.6868C363.818 95.8691 363.571 96.0165 363.273 96.1292C362.978 96.2386 362.631 96.2933 362.233 96.2933ZM362.701 94.9709C363.062 94.9709 363.375 94.8996 363.64 94.7571C363.906 94.6112 364.109 94.419 364.252 94.1804C364.398 93.9417 364.471 93.6816 364.471 93.3998V92.5C364.414 92.5464 364.318 92.5895 364.182 92.6292C364.05 92.669 363.901 92.7038 363.735 92.7336C363.569 92.7635 363.405 92.79 363.243 92.8132C363.08 92.8364 362.939 92.8563 362.82 92.8728C362.552 92.9093 362.311 92.969 362.099 93.0518C361.887 93.1347 361.72 93.2507 361.597 93.3998C361.474 93.5457 361.413 93.7346 361.413 93.9666C361.413 94.298 361.534 94.5483 361.776 94.7173C362.018 94.8863 362.326 94.9709 362.701 94.9709ZM369.875 91.6647V96.1392H368.075V88.5028H369.795V89.8004H369.885C370.06 89.3728 370.34 89.0331 370.725 88.7812C371.113 88.5293 371.592 88.4034 372.162 88.4034C372.689 88.4034 373.148 88.5161 373.539 88.7414C373.933 88.9668 374.238 89.2933 374.454 89.7209C374.672 90.1484 374.78 90.6671 374.777 91.277V96.1392H372.977V91.5554C372.977 91.045 372.845 90.6456 372.579 90.3572C372.318 90.0689 371.955 89.9247 371.491 89.9247C371.176 89.9247 370.896 89.9943 370.65 90.1335C370.408 90.2694 370.218 90.4666 370.079 90.7251C369.943 90.9836 369.875 91.2968 369.875 91.6647ZM376.606 96.1392V88.5028H378.406V96.1392H376.606ZM377.511 87.419C377.226 87.419 376.981 87.3245 376.775 87.1356C376.57 86.9434 376.467 86.713 376.467 86.4446C376.467 86.1728 376.57 85.9424 376.775 85.7535C376.981 85.5613 377.226 85.4652 377.511 85.4652C377.8 85.4652 378.045 85.5613 378.247 85.7535C378.452 85.9424 378.555 86.1728 378.555 86.4446C378.555 86.713 378.452 86.9434 378.247 87.1356C378.045 87.3245 377.8 87.419 377.511 87.419ZM383.637 96.2883C382.872 96.2883 382.211 96.1292 381.654 95.8111C381.1 95.4896 380.674 95.0355 380.376 94.4488C380.078 93.8589 379.929 93.1645 379.929 92.3657C379.929 91.5802 380.078 90.8908 380.376 90.2976C380.678 89.701 381.099 89.2369 381.639 88.9055C382.179 88.5708 382.814 88.4034 383.543 88.4034C384.014 88.4034 384.458 88.4796 384.875 88.6321C385.296 88.7812 385.667 89.0132 385.989 89.3281C386.314 89.643 386.569 90.044 386.755 90.5312C386.94 91.0151 387.033 91.5918 387.033 92.2613V92.8132H380.774V91.6001H385.308C385.305 91.2554 385.23 90.9488 385.084 90.6804C384.938 90.4086 384.734 90.1948 384.473 90.039C384.214 89.8833 383.913 89.8054 383.568 89.8054C383.2 89.8054 382.877 89.8949 382.598 90.0738C382.32 90.2495 382.103 90.4815 381.947 90.7699C381.795 91.0549 381.717 91.3681 381.713 91.7095V92.7684C381.713 93.2126 381.795 93.5937 381.957 93.9119C382.119 94.2268 382.346 94.4687 382.638 94.6378C382.93 94.8035 383.271 94.8863 383.662 94.8863C383.924 94.8863 384.161 94.8499 384.373 94.777C384.585 94.7007 384.769 94.5897 384.925 94.4439C385.081 94.298 385.199 94.1174 385.278 93.902L386.958 94.0909C386.852 94.535 386.65 94.9228 386.352 95.2542C386.057 95.5824 385.679 95.8376 385.218 96.0199C384.758 96.1988 384.231 96.2883 383.637 96.2883ZM394.591 90.5213L392.95 90.7003C392.904 90.5345 392.823 90.3788 392.707 90.2329C392.594 90.0871 392.442 89.9694 392.249 89.8799C392.057 89.7905 391.822 89.7457 391.544 89.7457C391.169 89.7457 390.854 89.8269 390.599 89.9893C390.347 90.1517 390.223 90.3622 390.226 90.6207C390.223 90.8428 390.304 91.0234 390.47 91.1626C390.639 91.3018 390.917 91.4162 391.305 91.5057L392.607 91.7841C393.33 91.9398 393.867 92.1868 394.218 92.5248C394.573 92.8629 394.752 93.3054 394.755 93.8522C394.752 94.3328 394.611 94.7571 394.333 95.125C394.057 95.4896 393.675 95.7746 393.184 95.9801C392.694 96.1856 392.13 96.2883 391.494 96.2883C390.559 96.2883 389.807 96.0928 389.237 95.7017C388.667 95.3073 388.327 94.7587 388.218 94.0561L389.972 93.887C390.052 94.2317 390.221 94.4919 390.48 94.6676C390.738 94.8432 391.075 94.9311 391.489 94.9311C391.916 94.9311 392.259 94.8432 392.518 94.6676C392.78 94.4919 392.911 94.2748 392.911 94.0163C392.911 93.7976 392.826 93.6169 392.657 93.4744C392.491 93.3319 392.233 93.2225 391.882 93.1463L390.579 92.8728C389.847 92.7204 389.305 92.4635 388.953 92.1022C388.602 91.7377 388.428 91.277 388.431 90.7201C388.428 90.2495 388.556 89.8418 388.814 89.4971C389.076 89.1491 389.439 88.8807 389.903 88.6917C390.37 88.4995 390.909 88.4034 391.519 88.4034C392.414 88.4034 393.118 88.594 393.632 88.9751C394.149 89.3563 394.468 89.8717 394.591 90.5213Z" fill="#486581"/>
<path d="M227.082 111.589H396.082" stroke="#D9E2EC" stroke-width="1.30664"/>
<g filter="url(#filter1_d_1232_65810)">
<rect x="227.082" y="122.039" width="169" height="31.7454" rx="3.47895" fill="#FAFCFE" shape-rendering="crispEdges"/>
<rect x="227.299" y="122.257" width="168.565" height="31.3105" rx="3.26152" stroke="#C9D4DE" stroke-width="0.434869" shape-rendering="crispEdges"/>
<rect x="235.989" y="129.937" width="15.9492" height="15.9492" rx="7.97461" fill="#B6E0FE"/>
<path d="M243.962 137.513C244.916 137.513 245.69 136.74 245.69 135.785C245.69 134.831 244.916 134.058 243.962 134.058C243.008 134.058 242.234 134.831 242.234 135.785C242.234 136.74 243.008 137.513 243.962 137.513Z" stroke="#2680C2" stroke-width="0.629301" stroke-linecap="round" stroke-linejoin="round"/>
<path d="M241.223 141.766H246.701C247.308 141.766 247.776 141.244 247.492 140.708C247.075 139.918 246.125 138.975 243.962 138.975C241.799 138.975 240.848 139.918 240.431 140.708C240.148 141.244 240.616 141.766 241.223 141.766Z" stroke="#2680C2" stroke-width="0.629301" stroke-linecap="round" stroke-linejoin="round"/>
<rect x="260.844" y="131.239" width="129.473" height="4.67242" rx="2.33621" fill="#D9E2EC"/>
<rect x="260.844" y="139.912" width="66.582" height="4.67242" rx="2.33621" fill="#D9E2EC"/>
</g>
<g filter="url(#filter2_d_1232_65810)">
<rect x="227.082" y="159.785" width="169" height="31.7454" rx="3.47895" fill="#FAFCFE" shape-rendering="crispEdges"/>
<rect x="227.299" y="160.002" width="168.565" height="31.3105" rx="3.26152" stroke="#C9D4DE" stroke-width="0.434869" shape-rendering="crispEdges"/>
<rect x="235.989" y="167.683" width="15.9492" height="15.9492" rx="7.97461" fill="#B6E0FE"/>
<path d="M243.962 175.259C244.916 175.259 245.69 174.485 245.69 173.531C245.69 172.577 244.916 171.803 243.962 171.803C243.008 171.803 242.234 172.577 242.234 173.531C242.234 174.485 243.008 175.259 243.962 175.259Z" stroke="#2680C2" stroke-width="0.629301" stroke-linecap="round" stroke-linejoin="round"/>
<path d="M241.223 179.512H246.701C247.308 179.512 247.776 178.99 247.492 178.453C247.075 177.663 246.125 176.721 243.962 176.721C241.799 176.721 240.848 177.663 240.431 178.453C240.148 178.99 240.616 179.512 241.223 179.512Z" stroke="#2680C2" stroke-width="0.629301" stroke-linecap="round" stroke-linejoin="round"/>
<rect x="260.844" y="168.985" width="129.473" height="4.67242" rx="2.33621" fill="#D9E2EC"/>
<rect x="260.844" y="177.657" width="66.582" height="4.67242" rx="2.33621" fill="#D9E2EC"/>
</g>
<g filter="url(#filter3_d_1232_65810)">
<rect x="227.082" y="197.53" width="169" height="31.7454" rx="3.47895" fill="#FAFCFE" shape-rendering="crispEdges"/>
<rect x="227.299" y="197.747" width="168.565" height="31.3105" rx="3.26152" stroke="#C9D4DE" stroke-width="0.434869" shape-rendering="crispEdges"/>
<rect x="235.989" y="205.428" width="15.9492" height="15.9492" rx="7.97461" fill="#B6E0FE"/>
<path d="M243.962 213.004C244.916 213.004 245.69 212.23 245.69 211.276C245.69 210.322 244.916 209.548 243.962 209.548C243.008 209.548 242.234 210.322 242.234 211.276C242.234 212.23 243.008 213.004 243.962 213.004Z" stroke="#2680C2" stroke-width="0.629301" stroke-linecap="round" stroke-linejoin="round"/>
<path d="M241.223 217.257H246.701C247.308 217.257 247.776 216.735 247.492 216.198C247.075 215.409 246.125 214.466 243.962 214.466C241.799 214.466 240.848 215.409 240.431 216.198C240.148 216.735 240.616 217.257 241.223 217.257Z" stroke="#2680C2" stroke-width="0.629301" stroke-linecap="round" stroke-linejoin="round"/>
<rect x="260.844" y="206.73" width="129.473" height="4.67242" rx="2.33621" fill="#D9E2EC"/>
<rect x="260.844" y="215.403" width="66.582" height="4.67242" rx="2.33621" fill="#D9E2EC"/>
</g>
<g filter="url(#filter4_d_1232_65810)">
<rect x="227.082" y="235.275" width="169" height="31.7454" rx="3.47895" fill="#FAFCFE" shape-rendering="crispEdges"/>
<rect x="227.299" y="235.493" width="168.565" height="31.3105" rx="3.26152" stroke="#C9D4DE" stroke-width="0.434869" shape-rendering="crispEdges"/>
<rect x="235.989" y="243.174" width="15.9492" height="15.9492" rx="7.97461" fill="#B6E0FE"/>
<path d="M243.962 250.749C244.916 250.749 245.69 249.976 245.69 249.022C245.69 248.067 244.916 247.294 243.962 247.294C243.008 247.294 242.234 248.067 242.234 249.022C242.234 249.976 243.008 250.749 243.962 250.749Z" stroke="#2680C2" stroke-width="0.629301" stroke-linecap="round" stroke-linejoin="round"/>
<path d="M241.223 255.003H246.701C247.308 255.003 247.776 254.481 247.492 253.944C247.075 253.154 246.125 252.211 243.962 252.211C241.799 252.211 240.848 253.154 240.431 253.944C240.148 254.481 240.616 255.003 241.223 255.003Z" stroke="#2680C2" stroke-width="0.629301" stroke-linecap="round" stroke-linejoin="round"/>
<rect x="260.844" y="244.476" width="129.473" height="4.67242" rx="2.33621" fill="#D9E2EC"/>
<rect x="260.844" y="253.148" width="66.582" height="4.67242" rx="2.33621" fill="#D9E2EC"/>
</g>
</g>
<rect x="203.582" y="56.6392" width="216" height="233.882" rx="9.44677" stroke="#2680C2"/>
</g>
<g filter="url(#filter5_dd_1232_65810)">
<rect x="69.418" y="67.2559" width="145.906" height="211.305" rx="12.9969" fill="white"/>
<rect x="69.918" y="67.7559" width="144.906" height="210.305" rx="12.4969" stroke="#2680C2"/>
<path d="M87.1931 96.8935C87.1411 96.4073 86.9221 96.0286 86.5361 95.7577C86.1537 95.4867 85.6563 95.3512 85.0438 95.3512C84.6132 95.3512 84.2439 95.4161 83.9358 95.5461C83.6277 95.676 83.392 95.8523 83.2286 96.075C83.0653 96.2978 82.9818 96.552 82.9781 96.8379C82.9781 97.0754 83.0319 97.2814 83.1396 97.4559C83.2509 97.6304 83.4013 97.7789 83.5906 97.9014C83.7799 98.0201 83.9896 98.1204 84.2198 98.202C84.4499 98.2837 84.6819 98.3524 84.9158 98.4081L85.9848 98.6753C86.4154 98.7755 86.8293 98.911 87.2265 99.0818C87.6274 99.2525 87.9856 99.4678 88.3012 99.7277C88.6204 99.9875 88.8728 100.301 89.0584 100.669C89.244 101.036 89.3368 101.467 89.3368 101.96C89.3368 102.629 89.1661 103.217 88.8246 103.726C88.483 104.23 87.9893 104.626 87.3434 104.912C86.7013 105.194 85.9236 105.335 85.0104 105.335C84.1232 105.335 83.353 105.197 82.6997 104.923C82.0501 104.648 81.5415 104.247 81.174 103.72C80.8102 103.193 80.6135 102.551 80.5838 101.793H82.6162C82.6458 102.191 82.7683 102.521 82.9836 102.785C83.1989 103.048 83.4792 103.245 83.8244 103.375C84.1734 103.505 84.5631 103.57 84.9937 103.57C85.4429 103.57 85.8364 103.503 86.1742 103.369C86.5157 103.232 86.7829 103.043 86.976 102.801C87.169 102.556 87.2673 102.27 87.2711 101.944C87.2673 101.647 87.1801 101.402 87.0094 101.209C86.8386 101.012 86.5992 100.849 86.2911 100.719C85.9867 100.585 85.6303 100.466 85.222 100.362L83.9246 100.028C82.9855 99.7871 82.2431 99.4214 81.6974 98.9315C81.1555 98.4378 80.8845 97.7826 80.8845 96.9659C80.8845 96.294 81.0664 95.7057 81.4302 95.2008C81.7976 94.696 82.2969 94.3044 82.928 94.026C83.559 93.7439 84.2736 93.6028 85.0717 93.6028C85.8809 93.6028 86.5899 93.7439 87.1987 94.026C87.8112 94.3044 88.2919 94.6923 88.6408 95.1897C88.9897 95.6834 89.1698 96.2514 89.1809 96.8935H87.1931ZM94.82 105.329C93.9848 105.329 93.2609 105.145 92.6484 104.778C92.0359 104.41 91.5608 103.896 91.223 103.236C90.8889 102.575 90.7219 101.803 90.7219 100.919C90.7219 100.036 90.8889 99.2618 91.223 98.5974C91.5608 97.9329 92.0359 97.4169 92.6484 97.0494C93.2609 96.682 93.9848 96.4982 94.82 96.4982C95.6552 96.4982 96.379 96.682 96.9915 97.0494C97.604 97.4169 98.0773 97.9329 98.4114 98.5974C98.7492 99.2618 98.9181 100.036 98.9181 100.919C98.9181 101.803 98.7492 102.575 98.4114 103.236C98.0773 103.896 97.604 104.41 96.9915 104.778C96.379 105.145 95.6552 105.329 94.82 105.329ZM94.8311 103.714C95.284 103.714 95.6626 103.59 95.967 103.341C96.2714 103.089 96.4978 102.751 96.6463 102.328C96.7985 101.905 96.8746 101.433 96.8746 100.914C96.8746 100.39 96.7985 99.917 96.6463 99.4938C96.4978 99.0669 96.2714 98.7273 95.967 98.4749C95.6626 98.2225 95.284 98.0962 94.8311 98.0962C94.3671 98.0962 93.981 98.2225 93.6729 98.4749C93.3686 98.7273 93.1403 99.0669 92.9881 99.4938C92.8396 99.917 92.7654 100.39 92.7654 100.914C92.7654 101.433 92.8396 101.905 92.9881 102.328C93.1403 102.751 93.3686 103.089 93.6729 103.341C93.981 103.59 94.3671 103.714 94.8311 103.714ZM100.629 105.162V96.6096H102.583V98.035H102.672C102.828 97.5413 103.096 97.1608 103.474 96.8935C103.856 96.6226 104.293 96.4871 104.783 96.4871C104.894 96.4871 105.018 96.4926 105.156 96.5038C105.297 96.5112 105.414 96.5242 105.506 96.5428V98.3969C105.421 98.3672 105.286 98.3412 105.1 98.319C104.918 98.293 104.742 98.28 104.571 98.28C104.204 98.28 103.873 98.3598 103.58 98.5194C103.29 98.6753 103.062 98.8925 102.895 99.1709C102.728 99.4493 102.645 99.7704 102.645 100.134V105.162H100.629ZM111.576 96.6096V98.1686H106.659V96.6096H111.576ZM107.873 94.5605H109.889V102.59C109.889 102.861 109.929 103.069 110.011 103.213C110.096 103.354 110.208 103.451 110.345 103.503C110.482 103.555 110.635 103.581 110.802 103.581C110.928 103.581 111.043 103.572 111.147 103.553C111.255 103.534 111.336 103.518 111.392 103.503L111.732 105.079C111.624 105.116 111.47 105.157 111.269 105.201C111.073 105.246 110.831 105.272 110.546 105.279C110.041 105.294 109.586 105.218 109.181 105.051C108.777 104.88 108.456 104.616 108.218 104.26C107.984 103.904 107.869 103.458 107.873 102.924V94.5605ZM119.612 105.335C119.07 105.335 118.582 105.238 118.147 105.045C117.717 104.848 117.375 104.559 117.123 104.177C116.874 103.794 116.75 103.323 116.75 102.762C116.75 102.28 116.839 101.881 117.017 101.565C117.195 101.25 117.438 100.997 117.747 100.808C118.055 100.619 118.402 100.476 118.788 100.379C119.177 100.279 119.58 100.207 119.996 100.162C120.497 100.11 120.904 100.064 121.215 100.023C121.527 99.9783 121.754 99.9114 121.895 99.8223C122.039 99.7295 122.112 99.5866 122.112 99.3936V99.3602C122.112 98.9407 121.988 98.6159 121.739 98.3858C121.49 98.1556 121.132 98.0406 120.664 98.0406C120.17 98.0406 119.779 98.1482 119.489 98.3635C119.203 98.5788 119.01 98.8331 118.91 99.1263L117.028 98.8591C117.177 98.3394 117.422 97.9051 117.763 97.5561C118.105 97.2035 118.522 96.9399 119.016 96.7655C119.51 96.5873 120.055 96.4982 120.653 96.4982C121.065 96.4982 121.475 96.5465 121.884 96.643C122.292 96.7395 122.665 96.8991 123.003 97.1218C123.341 97.3408 123.612 97.6397 123.816 98.0183C124.024 98.3969 124.128 98.8702 124.128 99.4381V105.162H122.19V103.987H122.123C122.001 104.225 121.828 104.448 121.605 104.655C121.386 104.86 121.11 105.025 120.776 105.151C120.445 105.273 120.057 105.335 119.612 105.335ZM120.135 103.854C120.54 103.854 120.891 103.774 121.188 103.614C121.485 103.451 121.713 103.236 121.872 102.968C122.036 102.701 122.117 102.41 122.117 102.094V101.086C122.054 101.138 121.947 101.187 121.794 101.231C121.646 101.276 121.479 101.315 121.293 101.348C121.108 101.381 120.924 101.411 120.742 101.437C120.56 101.463 120.402 101.485 120.269 101.504C119.968 101.545 119.699 101.612 119.461 101.704C119.224 101.797 119.036 101.927 118.899 102.094C118.762 102.257 118.693 102.469 118.693 102.729C118.693 103.1 118.829 103.38 119.1 103.57C119.371 103.759 119.716 103.854 120.135 103.854ZM128.17 100.151V105.162H126.154V96.6096H128.081V98.0628H128.181C128.378 97.584 128.691 97.2035 129.122 96.9214C129.556 96.6393 130.093 96.4982 130.731 96.4982C131.321 96.4982 131.836 96.6244 132.274 96.8768C132.715 97.1293 133.057 97.4949 133.298 97.9737C133.543 98.4526 133.664 99.0335 133.66 99.7166V105.162H131.644V100.028C131.644 99.4567 131.496 99.0094 131.199 98.6865C130.906 98.3635 130.499 98.202 129.98 98.202C129.627 98.202 129.313 98.28 129.039 98.4359C128.768 98.5881 128.554 98.809 128.398 99.0985C128.246 99.388 128.17 99.7388 128.17 100.151ZM138.883 105.312C138.211 105.312 137.61 105.14 137.079 104.795C136.548 104.449 136.129 103.948 135.82 103.291C135.512 102.634 135.358 101.836 135.358 100.897C135.358 99.9467 135.514 99.1449 135.826 98.4916C136.142 97.8345 136.567 97.339 137.101 97.0049C137.636 96.6671 138.231 96.4982 138.888 96.4982C139.39 96.4982 139.802 96.5836 140.125 96.7543C140.448 96.9214 140.704 97.1237 140.893 97.3613C141.082 97.5951 141.229 97.816 141.333 98.0239H141.416V93.7587H143.438V105.162H141.455V103.815H141.333C141.229 104.023 141.079 104.243 140.882 104.477C140.685 104.707 140.425 104.904 140.102 105.067C139.779 105.231 139.373 105.312 138.883 105.312ZM139.445 103.659C139.872 103.659 140.236 103.544 140.537 103.314C140.837 103.08 141.066 102.755 141.221 102.339C141.377 101.923 141.455 101.439 141.455 100.886C141.455 100.333 141.377 99.852 141.221 99.4437C141.069 99.0354 140.843 98.718 140.542 98.4916C140.245 98.2651 139.88 98.1519 139.445 98.1519C138.996 98.1519 138.621 98.2689 138.321 98.5027C138.02 98.7366 137.793 99.0595 137.641 99.4716C137.489 99.8836 137.413 100.355 137.413 100.886C137.413 101.42 137.489 101.897 137.641 102.317C137.797 102.733 138.025 103.061 138.326 103.302C138.63 103.54 139.004 103.659 139.445 103.659ZM153.807 96.6096V98.1686H148.751V96.6096H153.807ZM150.015 105.162V95.8022C150.015 95.2268 150.134 94.748 150.371 94.3656C150.613 93.9833 150.935 93.6975 151.34 93.5082C151.745 93.3188 152.194 93.2242 152.688 93.2242C153.036 93.2242 153.346 93.252 153.617 93.3077C153.888 93.3634 154.089 93.4135 154.219 93.458L153.818 95.0171C153.732 94.9911 153.625 94.9651 153.495 94.9391C153.365 94.9094 153.22 94.8946 153.061 94.8946C152.686 94.8946 152.42 94.9855 152.264 95.1674C152.112 95.3456 152.036 95.6017 152.036 95.9358V105.162H150.015ZM155.385 105.162V96.6096H157.401V105.162H155.385ZM156.399 95.3957C156.079 95.3957 155.805 95.2899 155.575 95.0783C155.344 94.863 155.229 94.6051 155.229 94.3044C155.229 94 155.344 93.742 155.575 93.5304C155.805 93.3151 156.079 93.2075 156.399 93.2075C156.722 93.2075 156.996 93.3151 157.223 93.5304C157.453 93.742 157.568 94 157.568 94.3044C157.568 94.6051 157.453 94.863 157.223 95.0783C156.996 95.2899 156.722 95.3957 156.399 95.3957ZM161.489 93.7587V105.162H159.474V93.7587H161.489ZM167.833 96.6096V98.1686H162.916V96.6096H167.833ZM164.13 94.5605H166.146V102.59C166.146 102.861 166.186 103.069 166.268 103.213C166.353 103.354 166.465 103.451 166.602 103.503C166.739 103.555 166.892 103.581 167.059 103.581C167.185 103.581 167.3 103.572 167.404 103.553C167.512 103.534 167.593 103.518 167.649 103.503L167.989 105.079C167.881 105.116 167.727 105.157 167.526 105.201C167.33 105.246 167.088 105.272 166.803 105.279C166.298 105.294 165.843 105.218 165.438 105.051C165.034 104.88 164.713 104.616 164.475 104.26C164.241 103.904 164.126 103.458 164.13 102.924V94.5605ZM173.213 105.329C172.355 105.329 171.615 105.151 170.991 104.795C170.371 104.435 169.894 103.926 169.56 103.269C169.226 102.608 169.059 101.831 169.059 100.936C169.059 100.056 169.226 99.2841 169.56 98.6196C169.898 97.9515 170.369 97.4318 170.974 97.0606C171.58 96.6857 172.29 96.4982 173.107 96.4982C173.634 96.4982 174.132 96.5836 174.599 96.7543C175.071 96.9214 175.486 97.1812 175.847 97.5339C176.21 97.8865 176.496 98.3357 176.704 98.8813C176.912 99.4233 177.016 100.069 177.016 100.819V101.437H170.006V100.078H175.084C175.08 99.6924 174.996 99.3491 174.833 99.0484C174.67 98.744 174.442 98.5046 174.148 98.3301C173.859 98.1556 173.521 98.0684 173.135 98.0684C172.723 98.0684 172.361 98.1686 172.049 98.3691C171.737 98.5658 171.494 98.8257 171.32 99.1486C171.149 99.4678 171.062 99.8186 171.058 100.201V101.387C171.058 101.884 171.149 102.311 171.331 102.668C171.513 103.02 171.767 103.291 172.094 103.481C172.42 103.666 172.803 103.759 173.241 103.759C173.534 103.759 173.799 103.718 174.037 103.636C174.274 103.551 174.481 103.427 174.655 103.263C174.829 103.1 174.961 102.898 175.05 102.656L176.932 102.868C176.814 103.365 176.587 103.8 176.253 104.171C175.923 104.539 175.499 104.824 174.983 105.028C174.468 105.229 173.877 105.329 173.213 105.329ZM178.721 105.162V96.6096H180.675V98.035H180.765C180.92 97.5413 181.188 97.1608 181.566 96.8935C181.949 96.6226 182.385 96.4871 182.875 96.4871C182.986 96.4871 183.111 96.4926 183.248 96.5038C183.389 96.5112 183.506 96.5242 183.599 96.5428V98.3969C183.513 98.3672 183.378 98.3412 183.192 98.319C183.01 98.293 182.834 98.28 182.663 98.28C182.296 98.28 181.965 98.3598 181.672 98.5194C181.383 98.6753 181.154 98.8925 180.987 99.1709C180.82 99.4493 180.737 99.7704 180.737 100.134V105.162H178.721Z" fill="#486581"/>
<path d="M79.8711 120.615H204.871" stroke="#D9E2EC" stroke-width="1.30664"/>
<path d="M83.1377 142.068H80.7917V134.466H83.2416C83.9791 134.466 84.6101 134.618 85.1348 134.923C85.6594 135.225 86.0616 135.659 86.3412 136.226C86.6208 136.79 86.7607 137.465 86.7607 138.252C86.7607 139.044 86.6196 139.726 86.3375 140.298C86.0554 140.867 85.6446 141.305 85.1051 141.612C84.5656 141.916 83.9098 142.068 83.1377 142.068ZM81.7123 141.252H83.0783C83.7069 141.252 84.2278 141.13 84.6411 140.888C85.0543 140.645 85.3624 140.3 85.5654 139.852C85.7683 139.404 85.8698 138.871 85.8698 138.252C85.8698 137.639 85.7695 137.11 85.5691 136.667C85.3686 136.222 85.0692 135.88 84.6708 135.643C84.2723 135.403 83.7762 135.283 83.1822 135.283H81.7123V141.252ZM89.8639 142.202C89.5026 142.202 89.1747 142.134 88.8802 141.998C88.5857 141.859 88.3519 141.66 88.1787 141.4C88.0054 141.138 87.9188 140.821 87.9188 140.45C87.9188 140.123 87.9832 139.858 88.1118 139.656C88.2405 139.45 88.4125 139.289 88.6278 139.173C88.8431 139.057 89.0807 138.97 89.3405 138.913C89.6028 138.854 89.8664 138.807 90.1312 138.772C90.4777 138.728 90.7585 138.694 90.9738 138.672C91.1916 138.647 91.35 138.606 91.449 138.549C91.5504 138.492 91.6012 138.393 91.6012 138.252V138.223C91.6012 137.856 91.5009 137.572 91.3005 137.369C91.1025 137.166 90.8018 137.065 90.3985 137.065C89.9802 137.065 89.6523 137.156 89.4148 137.339C89.1772 137.522 89.0102 137.718 88.9136 137.926L88.0821 137.629C88.2306 137.282 88.4286 137.013 88.6761 136.82C88.926 136.624 89.1982 136.488 89.4927 136.411C89.7897 136.332 90.0817 136.292 90.3688 136.292C90.5519 136.292 90.7622 136.315 90.9998 136.359C91.2399 136.401 91.4712 136.489 91.694 136.623C91.9192 136.756 92.106 136.958 92.2545 137.228C92.403 137.498 92.4772 137.859 92.4772 138.312V142.068H91.6012V141.296H91.5566C91.4972 141.42 91.3982 141.552 91.2597 141.693C91.1211 141.835 90.9367 141.955 90.7066 142.054C90.4764 142.153 90.1955 142.202 89.8639 142.202ZM89.9976 141.415C90.344 141.415 90.636 141.347 90.8736 141.211C91.1136 141.075 91.2943 140.899 91.4156 140.684C91.5393 140.468 91.6012 140.242 91.6012 140.004V139.203C91.564 139.247 91.4824 139.288 91.3562 139.325C91.2324 139.36 91.0889 139.391 90.9256 139.418C90.7647 139.443 90.6076 139.465 90.4541 139.485C90.3032 139.502 90.1807 139.517 90.0866 139.529C89.859 139.559 89.6462 139.607 89.4482 139.674C89.2527 139.738 89.0943 139.836 88.973 139.967C88.8542 140.096 88.7949 140.272 88.7949 140.494C88.7949 140.799 88.9075 141.029 89.1327 141.185C89.3603 141.338 89.6486 141.415 89.9976 141.415ZM96.5558 136.367V137.109H93.601V136.367H96.5558ZM94.4622 135.001H95.3383V140.435C95.3383 140.683 95.3741 140.868 95.4459 140.992C95.5202 141.113 95.6142 141.195 95.728 141.237C95.8443 141.276 95.9668 141.296 96.0955 141.296C96.192 141.296 96.2712 141.291 96.3331 141.281C96.395 141.269 96.4445 141.259 96.4816 141.252L96.6598 142.039C96.6004 142.061 96.5175 142.083 96.411 142.105C96.3046 142.13 96.1698 142.143 96.0064 142.143C95.759 142.143 95.5164 142.089 95.2789 141.983C95.0438 141.877 94.8483 141.714 94.6924 141.497C94.5389 141.279 94.4622 141.004 94.4622 140.673V135.001ZM100.203 142.187C99.6535 142.187 99.1796 142.066 98.7812 141.823C98.3852 141.578 98.0796 141.237 97.8643 140.799C97.6515 140.358 97.5451 139.846 97.5451 139.262C97.5451 138.678 97.6515 138.163 97.8643 137.718C98.0796 137.27 98.3791 136.921 98.7626 136.671C99.1487 136.419 99.5991 136.292 100.114 136.292C100.411 136.292 100.704 136.342 100.994 136.441C101.283 136.54 101.547 136.701 101.784 136.923C102.022 137.144 102.211 137.436 102.352 137.8C102.493 138.163 102.564 138.611 102.564 139.143V139.514H98.1687V138.757H101.673C101.673 138.436 101.609 138.148 101.48 137.896C101.354 137.644 101.173 137.444 100.938 137.298C100.705 137.152 100.431 137.079 100.114 137.079C99.7649 137.079 99.463 137.166 99.2081 137.339C98.9557 137.51 98.7614 137.733 98.6253 138.007C98.4892 138.282 98.4211 138.577 98.4211 138.891V139.396C98.4211 139.826 98.4954 140.191 98.6438 140.491C98.7948 140.788 99.0039 141.014 99.2712 141.17C99.5384 141.323 99.849 141.4 100.203 141.4C100.433 141.4 100.641 141.368 100.827 141.304C101.015 141.237 101.177 141.138 101.313 141.007C101.449 140.873 101.554 140.707 101.628 140.509L102.475 140.747C102.386 141.034 102.236 141.286 102.026 141.504C101.815 141.719 101.555 141.888 101.246 142.009C100.937 142.128 100.589 142.187 100.203 142.187ZM106.955 142.068V134.466H109.524C110.118 134.466 110.605 134.568 110.986 134.77C111.368 134.971 111.65 135.247 111.833 135.598C112.016 135.95 112.107 136.349 112.107 136.797C112.107 137.245 112.016 137.642 111.833 137.989C111.65 138.335 111.369 138.608 110.99 138.805C110.611 139.001 110.128 139.099 109.539 139.099H107.46V138.267H109.509C109.915 138.267 110.242 138.208 110.489 138.089C110.739 137.97 110.92 137.802 111.031 137.584C111.145 137.364 111.202 137.102 111.202 136.797C111.202 136.493 111.145 136.227 111.031 135.999C110.917 135.772 110.735 135.596 110.485 135.472C110.235 135.346 109.905 135.283 109.494 135.283H107.876V142.068H106.955ZM110.534 138.653L112.404 142.068H111.335L109.494 138.653H110.534ZM115.201 142.202C114.839 142.202 114.511 142.134 114.217 141.998C113.922 141.859 113.688 141.66 113.515 141.4C113.342 141.138 113.255 140.821 113.255 140.45C113.255 140.123 113.32 139.858 113.448 139.656C113.577 139.45 113.749 139.289 113.964 139.173C114.18 139.057 114.417 138.97 114.677 138.913C114.939 138.854 115.203 138.807 115.468 138.772C115.814 138.728 116.095 138.694 116.31 138.672C116.528 138.647 116.687 138.606 116.786 138.549C116.887 138.492 116.938 138.393 116.938 138.252V138.223C116.938 137.856 116.838 137.572 116.637 137.369C116.439 137.166 116.138 137.065 115.735 137.065C115.317 137.065 114.989 137.156 114.751 137.339C114.514 137.522 114.347 137.718 114.25 137.926L113.419 137.629C113.567 137.282 113.765 137.013 114.013 136.82C114.263 136.624 114.535 136.488 114.829 136.411C115.126 136.332 115.418 136.292 115.705 136.292C115.888 136.292 116.099 136.315 116.336 136.359C116.576 136.401 116.808 136.489 117.031 136.623C117.256 136.756 117.443 136.958 117.591 137.228C117.74 137.498 117.814 137.859 117.814 138.312V142.068H116.938V141.296H116.893C116.834 141.42 116.735 141.552 116.596 141.693C116.458 141.835 116.273 141.955 116.043 142.054C115.813 142.153 115.532 142.202 115.201 142.202ZM115.334 141.415C115.681 141.415 115.973 141.347 116.21 141.211C116.45 141.075 116.631 140.899 116.752 140.684C116.876 140.468 116.938 140.242 116.938 140.004V139.203C116.901 139.247 116.819 139.288 116.693 139.325C116.569 139.36 116.425 139.391 116.262 139.418C116.101 139.443 115.944 139.465 115.791 139.485C115.64 139.502 115.517 139.517 115.423 139.529C115.196 139.559 114.983 139.607 114.785 139.674C114.589 139.738 114.431 139.836 114.31 139.967C114.191 140.096 114.131 140.272 114.131 140.494C114.131 140.799 114.244 141.029 114.469 141.185C114.697 141.338 114.985 141.415 115.334 141.415ZM120.289 138.638V142.068H119.413V136.367H120.259V137.258H120.333C120.467 136.968 120.67 136.735 120.942 136.56C121.214 136.382 121.566 136.292 121.996 136.292C122.382 136.292 122.72 136.372 123.01 136.53C123.299 136.686 123.524 136.923 123.685 137.243C123.846 137.559 123.927 137.96 123.927 138.445V142.068H123.051V138.505C123.051 138.057 122.934 137.708 122.702 137.458C122.469 137.206 122.15 137.079 121.744 137.079C121.464 137.079 121.214 137.14 120.994 137.261C120.776 137.383 120.604 137.559 120.478 137.792C120.352 138.025 120.289 138.307 120.289 138.638ZM127.829 144.325C127.406 144.325 127.042 144.271 126.738 144.162C126.433 144.056 126.18 143.914 125.977 143.739C125.776 143.566 125.617 143.38 125.498 143.182L126.196 142.692C126.275 142.796 126.375 142.915 126.496 143.048C126.618 143.184 126.783 143.302 126.994 143.401C127.207 143.502 127.485 143.553 127.829 143.553C128.289 143.553 128.669 143.442 128.968 143.219C129.268 142.996 129.418 142.647 129.418 142.172V141.014H129.343C129.279 141.118 129.187 141.247 129.069 141.4C128.952 141.551 128.784 141.686 128.564 141.805C128.346 141.921 128.052 141.979 127.68 141.979C127.22 141.979 126.807 141.87 126.441 141.653C126.077 141.435 125.788 141.118 125.576 140.702C125.365 140.287 125.26 139.782 125.26 139.188C125.26 138.604 125.363 138.095 125.568 137.662C125.774 137.227 126.059 136.89 126.426 136.652C126.792 136.412 127.215 136.292 127.695 136.292C128.066 136.292 128.361 136.354 128.579 136.478C128.799 136.599 128.967 136.738 129.084 136.894C129.202 137.047 129.294 137.173 129.358 137.272H129.447V136.367H130.294V142.232C130.294 142.722 130.182 143.12 129.96 143.427C129.739 143.736 129.442 143.963 129.069 144.106C128.698 144.252 128.284 144.325 127.829 144.325ZM127.799 141.192C128.151 141.192 128.448 141.112 128.69 140.951C128.933 140.79 129.117 140.559 129.243 140.257C129.369 139.955 129.432 139.594 129.432 139.173C129.432 138.762 129.371 138.4 129.247 138.085C129.123 137.771 128.94 137.525 128.698 137.347C128.455 137.168 128.156 137.079 127.799 137.079C127.428 137.079 127.119 137.173 126.871 137.361C126.626 137.55 126.442 137.802 126.318 138.119C126.197 138.436 126.136 138.787 126.136 139.173C126.136 139.569 126.198 139.919 126.322 140.223C126.448 140.525 126.634 140.763 126.879 140.936C127.126 141.107 127.433 141.192 127.799 141.192ZM134.288 142.187C133.738 142.187 133.265 142.066 132.866 141.823C132.47 141.578 132.165 141.237 131.949 140.799C131.736 140.358 131.63 139.846 131.63 139.262C131.63 138.678 131.736 138.163 131.949 137.718C132.165 137.27 132.464 136.921 132.848 136.671C133.234 136.419 133.684 136.292 134.199 136.292C134.496 136.292 134.789 136.342 135.079 136.441C135.368 136.54 135.632 136.701 135.869 136.923C136.107 137.144 136.296 137.436 136.437 137.8C136.578 138.163 136.649 138.611 136.649 139.143V139.514H132.254V138.757H135.758C135.758 138.436 135.693 138.148 135.565 137.896C135.439 137.644 135.258 137.444 135.023 137.298C134.79 137.152 134.516 137.079 134.199 137.079C133.85 137.079 133.548 137.166 133.293 137.339C133.041 137.51 132.846 137.733 132.71 138.007C132.574 138.282 132.506 138.577 132.506 138.891V139.396C132.506 139.826 132.58 140.191 132.729 140.491C132.88 140.788 133.089 141.014 133.356 141.17C133.623 141.323 133.934 141.4 134.288 141.4C134.518 141.4 134.726 141.368 134.911 141.304C135.1 141.237 135.262 141.138 135.398 141.007C135.534 140.873 135.639 140.707 135.713 140.509L136.56 140.747C136.471 141.034 136.321 141.286 136.11 141.504C135.9 141.719 135.64 141.888 135.331 142.009C135.022 142.128 134.674 142.187 134.288 142.187Z" fill="#000C14"/>
<path d="M83.3307 154.693V162.295H82.4101V155.658H82.3656L80.5096 156.89V155.955L82.4101 154.693H83.3307ZM87.9968 162.399C87.4375 162.399 86.9611 162.247 86.5676 161.942C86.1741 161.635 85.8735 161.191 85.6656 160.61C85.4577 160.026 85.3538 159.32 85.3538 158.494C85.3538 157.672 85.4577 156.971 85.6656 156.389C85.8759 155.805 86.1779 155.36 86.5713 155.053C86.9673 154.743 87.4424 154.589 87.9968 154.589C88.5511 154.589 89.025 154.743 89.4185 155.053C89.8144 155.36 90.1163 155.805 90.3242 156.389C90.5346 156.971 90.6397 157.672 90.6397 158.494C90.6397 159.32 90.5358 160.026 90.3279 160.61C90.1201 161.191 89.8194 161.635 89.4259 161.942C89.0324 162.247 88.556 162.399 87.9968 162.399ZM87.9968 161.582C88.5511 161.582 88.9817 161.315 89.2886 160.78C89.5954 160.246 89.7489 159.484 89.7489 158.494C89.7489 157.836 89.6783 157.275 89.5373 156.812C89.3987 156.349 89.1982 155.997 88.9359 155.754C88.6761 155.512 88.363 155.391 87.9968 155.391C87.4474 155.391 87.018 155.662 86.7087 156.203C86.3993 156.743 86.2447 157.506 86.2447 158.494C86.2447 159.152 86.314 159.711 86.4526 160.172C86.5911 160.632 86.7903 160.982 87.0502 161.222C87.3125 161.462 87.628 161.582 87.9968 161.582ZM94.7527 154.336L92.3027 163.438H91.5009L93.9509 154.336H94.7527ZM98.2559 162.399C97.6967 162.399 97.2203 162.247 96.8268 161.942C96.4333 161.635 96.1326 161.191 95.9248 160.61C95.7169 160.026 95.613 159.32 95.613 158.494C95.613 157.672 95.7169 156.971 95.9248 156.389C96.1351 155.805 96.437 155.36 96.8305 155.053C97.2265 154.743 97.7016 154.589 98.2559 154.589C98.8103 154.589 99.2842 154.743 99.6776 155.053C100.074 155.36 100.376 155.805 100.583 156.389C100.794 156.971 100.899 157.672 100.899 158.494C100.899 159.32 100.795 160.026 100.587 160.61C100.379 161.191 100.079 161.635 99.6851 161.942C99.2916 162.247 98.8152 162.399 98.2559 162.399ZM98.2559 161.582C98.8103 161.582 99.2409 161.315 99.5477 160.78C99.8546 160.246 100.008 159.484 100.008 158.494C100.008 157.836 99.9375 157.275 99.7964 156.812C99.6579 156.349 99.4574 155.997 99.1951 155.754C98.9352 155.512 98.6222 155.391 98.2559 155.391C97.7066 155.391 97.2772 155.662 96.9679 156.203C96.6585 156.743 96.5038 157.506 96.5038 158.494C96.5038 159.152 96.5731 159.711 96.7117 160.172C96.8503 160.632 97.0495 160.982 97.3094 161.222C97.5717 161.462 97.8872 161.582 98.2559 161.582ZM104.878 162.399C104.388 162.399 103.951 162.315 103.568 162.146C103.187 161.978 102.884 161.744 102.658 161.445C102.436 161.143 102.314 160.793 102.295 160.394H103.23C103.25 160.639 103.334 160.851 103.482 161.029C103.631 161.205 103.825 161.341 104.065 161.437C104.305 161.534 104.571 161.582 104.863 161.582C105.19 161.582 105.48 161.525 105.732 161.411C105.984 161.298 106.182 161.139 106.326 160.936C106.469 160.733 106.541 160.498 106.541 160.231C106.541 159.951 106.472 159.705 106.333 159.492C106.195 159.277 105.992 159.109 105.725 158.988C105.457 158.866 105.131 158.806 104.745 158.806H104.136V157.989H104.745C105.047 157.989 105.311 157.935 105.539 157.826C105.769 157.717 105.949 157.563 106.077 157.365C106.208 157.167 106.274 156.935 106.274 156.667C106.274 156.41 106.217 156.186 106.103 155.996C105.989 155.805 105.829 155.657 105.621 155.55C105.415 155.444 105.173 155.391 104.893 155.391C104.631 155.391 104.383 155.439 104.151 155.535C103.921 155.629 103.732 155.767 103.586 155.947C103.44 156.126 103.361 156.341 103.349 156.593H102.458C102.473 156.195 102.593 155.846 102.818 155.546C103.043 155.245 103.338 155.009 103.702 154.841C104.068 154.673 104.47 154.589 104.908 154.589C105.378 154.589 105.781 154.684 106.118 154.875C106.455 155.063 106.713 155.311 106.894 155.621C107.075 155.93 107.165 156.264 107.165 156.623C107.165 157.051 107.052 157.416 106.827 157.718C106.604 158.02 106.301 158.229 105.918 158.345V158.405C106.398 158.484 106.773 158.688 107.042 159.017C107.312 159.344 107.447 159.748 107.447 160.231C107.447 160.644 107.334 161.016 107.109 161.345C106.886 161.671 106.582 161.929 106.196 162.117C105.81 162.305 105.371 162.399 104.878 162.399ZM111.668 154.336L109.218 163.438H108.416L110.866 154.336H111.668ZM112.691 162.295V161.627L115.201 158.88C115.495 158.558 115.738 158.279 115.928 158.041C116.119 157.801 116.26 157.576 116.351 157.365C116.445 157.153 116.492 156.93 116.492 156.697C116.492 156.43 116.428 156.199 116.299 156.003C116.173 155.808 116 155.657 115.78 155.55C115.559 155.444 115.312 155.391 115.037 155.391C114.745 155.391 114.49 155.451 114.272 155.572C114.057 155.691 113.89 155.858 113.771 156.074C113.655 156.289 113.597 156.541 113.597 156.831H112.721C112.721 156.385 112.824 155.994 113.029 155.658C113.234 155.321 113.514 155.059 113.868 154.871C114.224 154.683 114.624 154.589 115.067 154.589C115.512 154.589 115.907 154.683 116.251 154.871C116.595 155.059 116.865 155.313 117.06 155.632C117.256 155.951 117.353 156.306 117.353 156.697C117.353 156.977 117.303 157.25 117.201 157.518C117.102 157.782 116.929 158.078 116.682 158.405C116.437 158.729 116.096 159.125 115.661 159.593L113.953 161.419V161.478H117.487V162.295H112.691ZM121.5 162.399C120.941 162.399 120.464 162.247 120.071 161.942C119.677 161.635 119.377 161.191 119.169 160.61C118.961 160.026 118.857 159.32 118.857 158.494C118.857 157.672 118.961 156.971 119.169 156.389C119.379 155.805 119.681 155.36 120.074 155.053C120.47 154.743 120.946 154.589 121.5 154.589C122.054 154.589 122.528 154.743 122.922 155.053C123.318 155.36 123.619 155.805 123.827 156.389C124.038 156.971 124.143 157.672 124.143 158.494C124.143 159.32 124.039 160.026 123.831 160.61C123.623 161.191 123.322 161.635 122.929 161.942C122.536 162.247 122.059 162.399 121.5 162.399ZM121.5 161.582C122.054 161.582 122.485 161.315 122.792 160.78C123.099 160.246 123.252 159.484 123.252 158.494C123.252 157.836 123.181 157.275 123.04 156.812C122.902 156.349 122.701 155.997 122.439 155.754C122.179 155.512 121.866 155.391 121.5 155.391C120.95 155.391 120.521 155.662 120.212 156.203C119.902 156.743 119.748 157.506 119.748 158.494C119.748 159.152 119.817 159.711 119.956 160.172C120.094 160.632 120.293 160.982 120.553 161.222C120.816 161.462 121.131 161.582 121.5 161.582ZM125.553 162.295V161.627L128.063 158.88C128.357 158.558 128.6 158.279 128.79 158.041C128.981 157.801 129.122 157.576 129.213 157.365C129.308 157.153 129.355 156.93 129.355 156.697C129.355 156.43 129.29 156.199 129.162 156.003C129.035 155.808 128.862 155.657 128.642 155.55C128.422 155.444 128.174 155.391 127.899 155.391C127.607 155.391 127.353 155.451 127.135 155.572C126.919 155.691 126.752 155.858 126.634 156.074C126.517 156.289 126.459 156.541 126.459 156.831H125.583C125.583 156.385 125.686 155.994 125.891 155.658C126.097 155.321 126.376 155.059 126.73 154.871C127.086 154.683 127.486 154.589 127.929 154.589C128.375 154.589 128.769 154.683 129.113 154.871C129.457 155.059 129.727 155.313 129.922 155.632C130.118 155.951 130.216 156.306 130.216 156.697C130.216 156.977 130.165 157.25 130.064 157.518C129.965 157.782 129.791 158.078 129.544 158.405C129.299 158.729 128.959 159.125 128.523 159.593L126.815 161.419V161.478H130.349V162.295H125.553ZM131.541 160.736V159.979L134.882 154.693H135.431V155.866H135.06L132.536 159.86V159.919H137.035V160.736H131.541ZM135.119 162.295V160.506V160.153V154.693H135.995V162.295H135.119ZM144.647 158.085V158.902H141.321V158.085H144.647ZM151.786 154.693V162.295H150.866V155.658H150.821L148.965 156.89V155.955L150.866 154.693H151.786ZM156.452 162.399C155.893 162.399 155.417 162.247 155.023 161.942C154.63 161.635 154.329 161.191 154.121 160.61C153.913 160.026 153.81 159.32 153.81 158.494C153.81 157.672 153.913 156.971 154.121 156.389C154.332 155.805 154.634 155.36 155.027 155.053C155.423 154.743 155.898 154.589 156.452 154.589C157.007 154.589 157.481 154.743 157.874 155.053C158.27 155.36 158.572 155.805 158.78 156.389C158.99 156.971 159.095 157.672 159.095 158.494C159.095 159.32 158.992 160.026 158.784 160.61C158.576 161.191 158.275 161.635 157.882 161.942C157.488 162.247 157.012 162.399 156.452 162.399ZM156.452 161.582C157.007 161.582 157.437 161.315 157.744 160.78C158.051 160.246 158.205 159.484 158.205 158.494C158.205 157.836 158.134 157.275 157.993 156.812C157.854 156.349 157.654 155.997 157.392 155.754C157.132 155.512 156.819 155.391 156.452 155.391C155.903 155.391 155.474 155.662 155.164 156.203C154.855 156.743 154.7 157.506 154.7 158.494C154.7 159.152 154.77 159.711 154.908 160.172C155.047 160.632 155.246 160.982 155.506 161.222C155.768 161.462 156.084 161.582 156.452 161.582ZM163.208 154.336L160.758 163.438H159.957L162.407 154.336H163.208ZM166.905 154.693V162.295H165.984V155.658H165.94L164.084 156.89V155.955L165.984 154.693H166.905ZM171.571 162.399C171.011 162.399 170.535 162.247 170.142 161.942C169.748 161.635 169.447 161.191 169.24 160.61C169.032 160.026 168.928 159.32 168.928 158.494C168.928 157.672 169.032 156.971 169.24 156.389C169.45 155.805 169.752 155.36 170.145 155.053C170.541 154.743 171.016 154.589 171.571 154.589C172.125 154.589 172.599 154.743 172.992 155.053C173.388 155.36 173.69 155.805 173.898 156.389C174.109 156.971 174.214 157.672 174.214 158.494C174.214 159.32 174.11 160.026 173.902 160.61C173.694 161.191 173.393 161.635 173 161.942C172.606 162.247 172.13 162.399 171.571 162.399ZM171.571 161.582C172.125 161.582 172.556 161.315 172.863 160.78C173.169 160.246 173.323 159.484 173.323 158.494C173.323 157.836 173.252 157.275 173.111 156.812C172.973 156.349 172.772 155.997 172.51 155.754C172.25 155.512 171.937 155.391 171.571 155.391C171.021 155.391 170.592 155.662 170.283 156.203C169.973 156.743 169.819 157.506 169.819 158.494C169.819 159.152 169.888 159.711 170.027 160.172C170.165 160.632 170.364 160.982 170.624 161.222C170.886 161.462 171.202 161.582 171.571 161.582ZM178.327 154.336L175.877 163.438H175.075L177.525 154.336H178.327ZM179.35 162.295V161.627L181.86 158.88C182.154 158.558 182.397 158.279 182.587 158.041C182.778 157.801 182.919 157.576 183.01 157.365C183.104 157.153 183.151 156.93 183.151 156.697C183.151 156.43 183.087 156.199 182.958 156.003C182.832 155.808 182.659 155.657 182.439 155.55C182.218 155.444 181.971 155.391 181.696 155.391C181.404 155.391 181.149 155.451 180.932 155.572C180.716 155.691 180.549 155.858 180.43 156.074C180.314 156.289 180.256 156.541 180.256 156.831H179.38C179.38 156.385 179.483 155.994 179.688 155.658C179.893 155.321 180.173 155.059 180.527 154.871C180.883 154.683 181.283 154.589 181.726 154.589C182.171 154.589 182.566 154.683 182.91 154.871C183.254 155.059 183.524 155.313 183.719 155.632C183.915 155.951 184.013 156.306 184.013 156.697C184.013 156.977 183.962 157.25 183.86 157.518C183.761 157.782 183.588 158.078 183.341 158.405C183.096 158.729 182.755 159.125 182.32 159.593L180.612 161.419V161.478H184.146V162.295H179.35ZM188.159 162.399C187.6 162.399 187.123 162.247 186.73 161.942C186.336 161.635 186.036 161.191 185.828 160.61C185.62 160.026 185.516 159.32 185.516 158.494C185.516 157.672 185.62 156.971 185.828 156.389C186.038 155.805 186.34 155.36 186.734 155.053C187.129 154.743 187.605 154.589 188.159 154.589C188.713 154.589 189.187 154.743 189.581 155.053C189.977 155.36 190.279 155.805 190.486 156.389C190.697 156.971 190.802 157.672 190.802 158.494C190.802 159.32 190.698 160.026 190.49 160.61C190.282 161.191 189.982 161.635 189.588 161.942C189.195 162.247 188.718 162.399 188.159 162.399ZM188.159 161.582C188.713 161.582 189.144 161.315 189.451 160.78C189.758 160.246 189.911 159.484 189.911 158.494C189.911 157.836 189.84 157.275 189.699 156.812C189.561 156.349 189.36 155.997 189.098 155.754C188.838 155.512 188.525 155.391 188.159 155.391C187.61 155.391 187.18 155.662 186.871 156.203C186.562 156.743 186.407 157.506 186.407 158.494C186.407 159.152 186.476 159.711 186.615 160.172C186.753 160.632 186.953 160.982 187.212 161.222C187.475 161.462 187.79 161.582 188.159 161.582ZM192.212 162.295V161.627L194.722 158.88C195.016 158.558 195.259 158.279 195.449 158.041C195.64 157.801 195.781 157.576 195.873 157.365C195.967 157.153 196.014 156.93 196.014 156.697C196.014 156.43 195.949 156.199 195.821 156.003C195.694 155.808 195.521 155.657 195.301 155.55C195.081 155.444 194.833 155.391 194.559 155.391C194.266 155.391 194.012 155.451 193.794 155.572C193.579 155.691 193.411 155.858 193.293 156.074C193.176 156.289 193.118 156.541 193.118 156.831H192.242C192.242 156.385 192.345 155.994 192.55 155.658C192.756 155.321 193.035 155.059 193.389 154.871C193.746 154.683 194.145 154.589 194.588 154.589C195.034 154.589 195.428 154.683 195.772 154.871C196.116 155.059 196.386 155.313 196.582 155.632C196.777 155.951 196.875 156.306 196.875 156.697C196.875 156.977 196.824 157.25 196.723 157.518C196.624 157.782 196.45 158.078 196.203 158.405C195.958 158.729 195.618 159.125 195.182 159.593L193.475 161.419V161.478H197.008V162.295H192.212ZM198.2 160.736V159.979L201.541 154.693H202.09V155.866H201.719L199.195 159.86V159.919H203.694V160.736H198.2ZM201.778 162.295V160.506V160.153V154.693H202.654V162.295H201.778Z" fill="#486581"/>
<path d="M81.1035 187.748H80.1384L82.9298 180.146H83.8801L86.6716 187.748H85.7064L83.4347 181.348H83.3753L81.1035 187.748ZM81.4599 184.778H85.3501V185.595H81.4599V184.778ZM91.7756 183.323L90.9887 183.546C90.9392 183.415 90.8662 183.287 90.7697 183.164C90.6756 183.037 90.5469 182.934 90.3836 182.852C90.2203 182.77 90.0112 182.729 89.7563 182.729C89.4073 182.729 89.1166 182.81 88.8839 182.971C88.6538 183.129 88.5387 183.331 88.5387 183.576C88.5387 183.793 88.6179 183.965 88.7763 184.092C88.9347 184.218 89.1821 184.323 89.5187 184.407L90.3651 184.615C90.8748 184.739 91.2547 184.928 91.5046 185.183C91.7546 185.435 91.8796 185.761 91.8796 186.159C91.8796 186.486 91.7855 186.778 91.5975 187.035C91.4118 187.293 91.152 187.496 90.8179 187.644C90.4838 187.793 90.0953 187.867 89.6523 187.867C89.0708 187.867 88.5895 187.741 88.2084 187.488C87.8272 187.236 87.586 186.867 87.4845 186.382L88.316 186.174C88.3952 186.481 88.5449 186.711 88.7652 186.865C88.9879 187.018 89.2787 187.095 89.6375 187.095C90.0458 187.095 90.37 187.008 90.61 186.835C90.8526 186.659 90.9738 186.449 90.9738 186.204C90.9738 186.006 90.9045 185.84 90.766 185.706C90.6274 185.57 90.4145 185.469 90.1275 185.402L89.1772 185.179C88.655 185.056 88.2715 184.864 88.0265 184.604C87.7839 184.342 87.6627 184.014 87.6627 183.62C87.6627 183.299 87.753 183.014 87.9337 182.766C88.1168 182.519 88.3655 182.325 88.6798 182.184C88.9965 182.043 89.3554 181.972 89.7563 181.972C90.3205 181.972 90.7635 182.096 91.0852 182.343C91.4094 182.591 91.6395 182.917 91.7756 183.323ZM97.237 183.323L96.45 183.546C96.4005 183.415 96.3275 183.287 96.231 183.164C96.137 183.037 96.0083 182.934 95.845 182.852C95.6816 182.77 95.4725 182.729 95.2176 182.729C94.8687 182.729 94.5779 182.81 94.3453 182.971C94.1151 183.129 94.0001 183.331 94.0001 183.576C94.0001 183.793 94.0793 183.965 94.2376 184.092C94.396 184.218 94.6435 184.323 94.9801 184.407L95.8264 184.615C96.3362 184.739 96.7161 184.928 96.966 185.183C97.2159 185.435 97.3409 185.761 97.3409 186.159C97.3409 186.486 97.2469 186.778 97.0588 187.035C96.8732 187.293 96.6134 187.496 96.2793 187.644C95.9452 187.793 95.5567 187.867 95.1137 187.867C94.5321 187.867 94.0508 187.741 93.6697 187.488C93.2886 187.236 93.0473 186.867 92.9459 186.382L93.7774 186.174C93.8565 186.481 94.0063 186.711 94.2265 186.865C94.4492 187.018 94.74 187.095 95.0988 187.095C95.5072 187.095 95.8314 187.008 96.0714 186.835C96.3139 186.659 96.4352 186.449 96.4352 186.204C96.4352 186.006 96.3659 185.84 96.2273 185.706C96.0887 185.57 95.8759 185.469 95.5888 185.402L94.6385 185.179C94.1164 185.056 93.7328 184.864 93.4878 184.604C93.2453 184.342 93.124 184.014 93.124 183.62C93.124 183.299 93.2144 183.014 93.395 182.766C93.5781 182.519 93.8268 182.325 94.1411 182.184C94.4579 182.043 94.8167 181.972 95.2176 181.972C95.7819 181.972 96.2248 182.096 96.5465 182.343C96.8707 182.591 97.1009 182.917 97.237 183.323ZM98.6596 187.748V182.046H99.5357V187.748H98.6596ZM99.1051 181.096C98.9343 181.096 98.7871 181.038 98.6633 180.922C98.5421 180.805 98.4814 180.665 98.4814 180.502C98.4814 180.339 98.5421 180.199 98.6633 180.083C98.7871 179.966 98.9343 179.908 99.1051 179.908C99.2758 179.908 99.4218 179.966 99.5431 180.083C99.6668 180.199 99.7287 180.339 99.7287 180.502C99.7287 180.665 99.6668 180.805 99.5431 180.922C99.4218 181.038 99.2758 181.096 99.1051 181.096ZM103.442 190.005C103.018 190.005 102.655 189.951 102.35 189.842C102.046 189.735 101.792 189.594 101.589 189.418C101.389 189.245 101.229 189.06 101.111 188.862L101.808 188.372C101.888 188.476 101.988 188.594 102.109 188.728C102.23 188.864 102.396 188.982 102.606 189.081C102.819 189.182 103.098 189.233 103.442 189.233C103.902 189.233 104.282 189.122 104.581 188.899C104.881 188.676 105.03 188.327 105.03 187.852V186.694H104.956C104.892 186.798 104.8 186.926 104.681 187.08C104.565 187.231 104.397 187.366 104.177 187.485C103.959 187.601 103.664 187.659 103.293 187.659C102.833 187.659 102.42 187.55 102.053 187.332C101.69 187.115 101.401 186.798 101.188 186.382C100.978 185.966 100.873 185.461 100.873 184.868C100.873 184.283 100.976 183.775 101.181 183.342C101.386 182.906 101.672 182.57 102.039 182.332C102.405 182.092 102.828 181.972 103.308 181.972C103.679 181.972 103.974 182.034 104.191 182.158C104.412 182.279 104.58 182.418 104.696 182.573C104.815 182.727 104.907 182.853 104.971 182.952H105.06V182.046H105.906V187.911C105.906 188.401 105.795 188.8 105.572 189.107C105.352 189.416 105.055 189.642 104.681 189.786C104.31 189.932 103.897 190.005 103.442 190.005ZM103.412 186.872C103.763 186.872 104.06 186.792 104.303 186.631C104.545 186.47 104.73 186.238 104.856 185.937C104.982 185.635 105.045 185.273 105.045 184.853C105.045 184.442 104.983 184.079 104.86 183.765C104.736 183.451 104.553 183.205 104.31 183.026C104.068 182.848 103.768 182.759 103.412 182.759C103.041 182.759 102.731 182.853 102.484 183.041C102.239 183.229 102.055 183.482 101.931 183.798C101.81 184.115 101.749 184.467 101.749 184.853C101.749 185.249 101.811 185.599 101.935 185.903C102.061 186.205 102.246 186.443 102.491 186.616C102.739 186.787 103.046 186.872 103.412 186.872ZM108.386 184.318V187.748H107.51V182.046H108.356V182.937H108.431C108.564 182.648 108.767 182.415 109.039 182.239C109.312 182.061 109.663 181.972 110.094 181.972C110.48 181.972 110.818 182.051 111.107 182.21C111.397 182.366 111.622 182.603 111.783 182.922C111.943 183.239 112.024 183.64 112.024 184.125V187.748H111.148V184.184C111.148 183.737 111.032 183.388 110.799 183.138C110.566 182.885 110.247 182.759 109.841 182.759C109.562 182.759 109.312 182.82 109.091 182.941C108.874 183.062 108.702 183.239 108.575 183.472C108.449 183.704 108.386 183.987 108.386 184.318ZM116.015 187.867C115.466 187.867 114.992 187.746 114.594 187.503C114.198 187.258 113.892 186.917 113.677 186.479C113.464 186.038 113.357 185.526 113.357 184.942C113.357 184.358 113.464 183.843 113.677 183.398C113.892 182.95 114.191 182.601 114.575 182.351C114.961 182.098 115.411 181.972 115.926 181.972C116.223 181.972 116.516 182.022 116.806 182.121C117.096 182.22 117.359 182.38 117.597 182.603C117.834 182.823 118.024 183.115 118.165 183.479C118.306 183.843 118.376 184.291 118.376 184.823V185.194H113.981V184.437H117.485C117.485 184.115 117.421 183.828 117.292 183.576C117.166 183.323 116.985 183.124 116.75 182.978C116.518 182.832 116.243 182.759 115.926 182.759C115.577 182.759 115.275 182.846 115.02 183.019C114.768 183.19 114.574 183.412 114.438 183.687C114.302 183.962 114.234 184.256 114.234 184.571V185.075C114.234 185.506 114.308 185.871 114.456 186.17C114.607 186.467 114.816 186.694 115.084 186.85C115.351 187.003 115.661 187.08 116.015 187.08C116.245 187.08 116.453 187.048 116.639 186.983C116.827 186.917 116.989 186.818 117.125 186.686C117.261 186.553 117.366 186.387 117.441 186.189L118.287 186.427C118.198 186.714 118.048 186.966 117.838 187.184C117.628 187.399 117.368 187.567 117.058 187.689C116.749 187.807 116.401 187.867 116.015 187.867ZM121.862 187.867C121.387 187.867 120.967 187.747 120.603 187.507C120.24 187.264 119.955 186.923 119.75 186.482C119.544 186.039 119.442 185.516 119.442 184.912C119.442 184.313 119.544 183.793 119.75 183.353C119.955 182.913 120.241 182.572 120.607 182.332C120.973 182.092 121.397 181.972 121.877 181.972C122.248 181.972 122.541 182.034 122.756 182.158C122.974 182.279 123.14 182.418 123.254 182.573C123.37 182.727 123.46 182.853 123.525 182.952H123.599V180.146H124.475V187.748H123.629V186.872H123.525C123.46 186.976 123.369 187.107 123.25 187.265C123.131 187.421 122.962 187.561 122.742 187.685C122.521 187.806 122.228 187.867 121.862 187.867ZM121.981 187.08C122.332 187.08 122.629 186.988 122.871 186.805C123.114 186.62 123.298 186.363 123.425 186.037C123.551 185.708 123.614 185.328 123.614 184.897C123.614 184.472 123.552 184.099 123.428 183.78C123.305 183.458 123.121 183.208 122.879 183.03C122.636 182.849 122.337 182.759 121.981 182.759C121.609 182.759 121.3 182.854 121.053 183.045C120.808 183.233 120.623 183.489 120.499 183.813C120.378 184.135 120.318 184.496 120.318 184.897C120.318 185.303 120.379 185.672 120.503 186.003C120.629 186.333 120.815 186.595 121.06 186.79C121.307 186.983 121.614 187.08 121.981 187.08ZM132.734 185.417V182.046H133.61V187.748H132.734V186.783H132.675C132.541 187.072 132.333 187.319 132.051 187.522C131.769 187.722 131.413 187.822 130.982 187.822C130.626 187.822 130.309 187.744 130.032 187.588C129.755 187.43 129.537 187.192 129.379 186.876C129.22 186.556 129.141 186.154 129.141 185.669V182.046H130.017V185.61C130.017 186.026 130.133 186.357 130.366 186.605C130.601 186.852 130.901 186.976 131.264 186.976C131.482 186.976 131.704 186.92 131.929 186.809C132.157 186.698 132.347 186.527 132.5 186.297C132.656 186.067 132.734 185.773 132.734 185.417ZM139.254 183.323L138.467 183.546C138.417 183.415 138.344 183.287 138.248 183.164C138.154 183.037 138.025 182.934 137.862 182.852C137.698 182.77 137.489 182.729 137.234 182.729C136.885 182.729 136.595 182.81 136.362 182.971C136.132 183.129 136.017 183.331 136.017 183.576C136.017 183.793 136.096 183.965 136.254 184.092C136.413 184.218 136.66 184.323 136.997 184.407L137.843 184.615C138.353 184.739 138.733 184.928 138.983 185.183C139.233 185.435 139.358 185.761 139.358 186.159C139.358 186.486 139.264 186.778 139.075 187.035C138.89 187.293 138.63 187.496 138.296 187.644C137.962 187.793 137.573 187.867 137.13 187.867C136.549 187.867 136.067 187.741 135.686 187.488C135.305 187.236 135.064 186.867 134.963 186.382L135.794 186.174C135.873 186.481 136.023 186.711 136.243 186.865C136.466 187.018 136.757 187.095 137.116 187.095C137.524 187.095 137.848 187.008 138.088 186.835C138.331 186.659 138.452 186.449 138.452 186.204C138.452 186.006 138.383 185.84 138.244 185.706C138.105 185.57 137.893 185.469 137.605 185.402L136.655 185.179C136.133 185.056 135.749 184.864 135.504 184.604C135.262 184.342 135.141 184.014 135.141 183.62C135.141 183.299 135.231 183.014 135.412 182.766C135.595 182.519 135.844 182.325 136.158 182.184C136.475 182.043 136.833 181.972 137.234 181.972C137.799 181.972 138.241 182.096 138.563 182.343C138.887 182.591 139.118 182.917 139.254 183.323ZM143.067 187.867C142.517 187.867 142.044 187.746 141.645 187.503C141.249 187.258 140.944 186.917 140.728 186.479C140.515 186.038 140.409 185.526 140.409 184.942C140.409 184.358 140.515 183.843 140.728 183.398C140.944 182.95 141.243 182.601 141.627 182.351C142.013 182.098 142.463 181.972 142.978 181.972C143.275 181.972 143.568 182.022 143.858 182.121C144.147 182.22 144.411 182.38 144.648 182.603C144.886 182.823 145.075 183.115 145.216 183.479C145.357 183.843 145.428 184.291 145.428 184.823V185.194H141.033V184.437H144.537C144.537 184.115 144.472 183.828 144.344 183.576C144.218 183.323 144.037 183.124 143.802 182.978C143.569 182.832 143.295 182.759 142.978 182.759C142.629 182.759 142.327 182.846 142.072 183.019C141.82 183.19 141.625 183.412 141.489 183.687C141.353 183.962 141.285 184.256 141.285 184.571V185.075C141.285 185.506 141.359 185.871 141.508 186.17C141.659 186.467 141.868 186.694 142.135 186.85C142.402 187.003 142.713 187.08 143.067 187.08C143.297 187.08 143.505 187.048 143.69 186.983C143.879 186.917 144.041 186.818 144.177 186.686C144.313 186.553 144.418 186.387 144.492 186.189L145.339 186.427C145.25 186.714 145.1 186.966 144.889 187.184C144.679 187.399 144.419 187.567 144.11 187.689C143.801 187.807 143.453 187.867 143.067 187.867ZM146.76 187.748V182.046H147.607V182.908H147.666C147.77 182.625 147.958 182.397 148.23 182.221C148.503 182.045 148.809 181.957 149.151 181.957C149.215 181.957 149.296 181.959 149.392 181.961C149.489 181.963 149.562 181.967 149.611 181.972V182.863C149.581 182.856 149.513 182.844 149.407 182.83C149.303 182.812 149.193 182.804 149.077 182.804C148.799 182.804 148.552 182.862 148.334 182.978C148.119 183.092 147.948 183.25 147.822 183.453C147.698 183.654 147.636 183.883 147.636 184.14V187.748H146.76Z" fill="#000C14"/>
<path d="M81.1035 207.975H80.1384L82.9298 200.372H83.8801L86.6716 207.975H85.7064L83.4347 201.575H83.3753L81.1035 207.975ZM81.4599 205.005H85.3501V205.822H81.4599V205.005ZM88.613 204.545V207.975H87.7369V202.273H88.5833V203.164H88.6575C88.7911 202.874 88.9941 202.642 89.2663 202.466C89.5385 202.288 89.8899 202.199 90.3205 202.199C90.7066 202.199 91.0444 202.278 91.3339 202.436C91.6234 202.592 91.8486 202.83 92.0095 203.149C92.1703 203.466 92.2508 203.867 92.2508 204.352V207.975H91.3747V204.411C91.3747 203.963 91.2584 203.614 91.0258 203.364C90.7932 203.112 90.4739 202.986 90.0681 202.986C89.7884 202.986 89.5385 203.046 89.3183 203.168C89.1005 203.289 88.9285 203.466 88.8023 203.698C88.6761 203.931 88.613 204.213 88.613 204.545ZM94.2117 210.113C94.0632 210.113 93.9308 210.1 93.8145 210.076C93.6982 210.053 93.6177 210.031 93.5732 210.009L93.7959 209.237C94.0087 209.291 94.1968 209.311 94.3601 209.296C94.5235 209.281 94.6682 209.208 94.7945 209.077C94.9231 208.948 95.0407 208.739 95.1471 208.45L95.3104 208.004L93.202 202.273H94.1523L95.7262 206.816H95.7856L97.3595 202.273H98.3098L95.8895 208.806C95.7806 209.101 95.6457 209.344 95.4849 209.537C95.324 209.733 95.1372 209.878 94.9244 209.972C94.714 210.066 94.4765 210.113 94.2117 210.113ZM105.999 205.643V202.273H106.875V207.975H105.999V207.009H105.94C105.806 207.299 105.598 207.545 105.316 207.748C105.034 207.949 104.678 208.049 104.247 208.049C103.891 208.049 103.574 207.971 103.297 207.815C103.02 207.657 102.802 207.419 102.644 207.102C102.485 206.783 102.406 206.381 102.406 205.896V202.273H103.282V205.836C103.282 206.252 103.398 206.584 103.631 206.831C103.866 207.079 104.166 207.203 104.529 207.203C104.747 207.203 104.969 207.147 105.194 207.035C105.421 206.924 105.612 206.753 105.765 206.523C105.921 206.293 105.999 206 105.999 205.643ZM112.519 203.55L111.732 203.773C111.682 203.641 111.609 203.514 111.513 203.39C111.419 203.264 111.29 203.16 111.127 203.078C110.963 202.997 110.754 202.956 110.499 202.956C110.15 202.956 109.859 203.036 109.627 203.197C109.397 203.356 109.282 203.557 109.282 203.802C109.282 204.02 109.361 204.192 109.519 204.318C109.678 204.444 109.925 204.55 110.262 204.634L111.108 204.842C111.618 204.965 111.998 205.155 112.248 205.41C112.498 205.662 112.622 205.987 112.622 206.386C112.622 206.713 112.528 207.005 112.34 207.262C112.155 207.519 111.895 207.722 111.561 207.871C111.227 208.019 110.838 208.093 110.395 208.093C109.814 208.093 109.332 207.967 108.951 207.715C108.57 207.462 108.329 207.094 108.227 206.609L109.059 206.401C109.138 206.708 109.288 206.938 109.508 207.091C109.731 207.245 110.022 207.321 110.38 207.321C110.789 207.321 111.113 207.235 111.353 207.061C111.595 206.886 111.717 206.675 111.717 206.43C111.717 206.232 111.647 206.067 111.509 205.933C111.37 205.797 111.157 205.695 110.87 205.629L109.92 205.406C109.398 205.282 109.014 205.09 108.769 204.831C108.527 204.568 108.406 204.24 108.406 203.847C108.406 203.525 108.496 203.241 108.677 202.993C108.86 202.746 109.108 202.551 109.423 202.41C109.739 202.269 110.098 202.199 110.499 202.199C111.063 202.199 111.506 202.322 111.828 202.57C112.152 202.817 112.382 203.144 112.519 203.55ZM116.332 208.093C115.782 208.093 115.308 207.972 114.91 207.73C114.514 207.485 114.208 207.143 113.993 206.705C113.78 206.265 113.674 205.752 113.674 205.168C113.674 204.584 113.78 204.07 113.993 203.624C114.208 203.176 114.508 202.827 114.891 202.577C115.278 202.325 115.728 202.199 116.243 202.199C116.54 202.199 116.833 202.248 117.122 202.347C117.412 202.446 117.676 202.607 117.913 202.83C118.151 203.05 118.34 203.342 118.481 203.706C118.622 204.07 118.693 204.517 118.693 205.05V205.421H114.298V204.663H117.802C117.802 204.342 117.737 204.055 117.609 203.802C117.482 203.55 117.302 203.351 117.067 203.205C116.834 203.059 116.559 202.986 116.243 202.986C115.894 202.986 115.592 203.072 115.337 203.245C115.085 203.416 114.89 203.639 114.754 203.914C114.618 204.188 114.55 204.483 114.55 204.797V205.302C114.55 205.733 114.624 206.098 114.773 206.397C114.924 206.694 115.133 206.92 115.4 207.076C115.667 207.23 115.978 207.306 116.332 207.306C116.562 207.306 116.77 207.274 116.955 207.21C117.143 207.143 117.306 207.044 117.442 206.913C117.578 206.779 117.683 206.614 117.757 206.416L118.604 206.653C118.514 206.94 118.365 207.193 118.154 207.41C117.944 207.626 117.684 207.794 117.375 207.915C117.065 208.034 116.718 208.093 116.332 208.093ZM120.025 207.975V202.273H120.872V203.134H120.931C121.035 202.852 121.223 202.623 121.495 202.447C121.767 202.272 122.074 202.184 122.416 202.184C122.48 202.184 122.561 202.185 122.657 202.188C122.754 202.19 122.827 202.194 122.876 202.199V203.09C122.846 203.082 122.778 203.071 122.672 203.056C122.568 203.039 122.458 203.03 122.342 203.03C122.064 203.03 121.817 203.088 121.599 203.205C121.384 203.318 121.213 203.477 121.087 203.68C120.963 203.88 120.901 204.109 120.901 204.366V207.975H120.025Z" fill="#486581"/>
<path d="M81.1035 233.428H80.1384L82.9298 225.825H83.8801L86.6716 233.428H85.7064L83.4347 227.028H83.3753L81.1035 233.428ZM81.4599 230.458H85.3501V231.275H81.4599V230.458ZM90.0532 233.547C89.5187 233.547 89.0584 233.42 88.6724 233.168C88.2863 232.915 87.9893 232.568 87.7815 232.125C87.5736 231.682 87.4697 231.176 87.4697 230.607C87.4697 230.027 87.5761 229.516 87.7889 229.074C88.0042 228.628 88.3036 228.28 88.6872 228.03C89.0733 227.778 89.5237 227.652 90.0384 227.652C90.4393 227.652 90.8006 227.726 91.1223 227.875C91.444 228.023 91.7076 228.231 91.913 228.498C92.1184 228.765 92.2458 229.077 92.2953 229.434H91.4193C91.3525 229.174 91.204 228.944 90.9738 228.743C90.7462 228.54 90.4393 228.439 90.0532 228.439C89.7117 228.439 89.4123 228.528 89.1549 228.706C88.9 228.882 88.7008 229.13 88.5573 229.452C88.4162 229.771 88.3457 230.146 88.3457 230.577C88.3457 231.017 88.415 231.401 88.5536 231.728C88.6946 232.054 88.8926 232.308 89.1475 232.489C89.4049 232.669 89.7068 232.76 90.0532 232.76C90.2809 232.76 90.4875 232.72 90.6732 232.641C90.8588 232.562 91.0159 232.448 91.1446 232.299C91.2733 232.151 91.3648 231.973 91.4193 231.765H92.2953C92.2458 232.101 92.1233 232.404 91.9278 232.674C91.7348 232.941 91.4787 233.154 91.1594 233.313C90.8427 233.469 90.4739 233.547 90.0532 233.547ZM96.0556 227.726V228.468H93.1008V227.726H96.0556ZM93.962 226.36H94.8381V231.794C94.8381 232.042 94.874 232.228 94.9457 232.351C95.02 232.473 95.114 232.554 95.2278 232.596C95.3441 232.636 95.4666 232.656 95.5953 232.656C95.6918 232.656 95.771 232.651 95.8329 232.641C95.8948 232.628 95.9443 232.619 95.9814 232.611L96.1596 233.398C96.1002 233.42 96.0173 233.443 95.9108 233.465C95.8044 233.49 95.6696 233.502 95.5062 233.502C95.2588 233.502 95.0162 233.449 94.7787 233.342C94.5436 233.236 94.3481 233.074 94.1922 232.856C94.0387 232.638 93.962 232.364 93.962 232.032V226.36ZM97.3734 233.428V227.726H98.2494V233.428H97.3734ZM97.8188 226.776C97.6481 226.776 97.5008 226.718 97.3771 226.601C97.2558 226.485 97.1952 226.345 97.1952 226.182C97.1952 226.018 97.2558 225.879 97.3771 225.762C97.5008 225.646 97.6481 225.588 97.8188 225.588C97.9896 225.588 98.1356 225.646 98.2569 225.762C98.3806 225.879 98.4425 226.018 98.4425 226.182C98.4425 226.345 98.3806 226.485 98.2569 226.601C98.1356 226.718 97.9896 226.776 97.8188 226.776ZM104.516 227.726L102.408 233.428H101.517L99.4085 227.726H100.359L101.933 232.27H101.992L103.566 227.726H104.516ZM105.673 233.428V227.726H106.549V233.428H105.673ZM106.118 226.776C105.947 226.776 105.8 226.718 105.676 226.601C105.555 226.485 105.494 226.345 105.494 226.182C105.494 226.018 105.555 225.879 105.676 225.762C105.8 225.646 105.947 225.588 106.118 225.588C106.289 225.588 106.435 225.646 106.556 225.762C106.68 225.879 106.742 226.018 106.742 226.182C106.742 226.345 106.68 226.485 106.556 226.601C106.435 226.718 106.289 226.776 106.118 226.776ZM110.633 227.726V228.468H107.678V227.726H110.633ZM108.539 226.36H109.415V231.794C109.415 232.042 109.451 232.228 109.523 232.351C109.597 232.473 109.691 232.554 109.805 232.596C109.921 232.636 110.044 232.656 110.173 232.656C110.269 232.656 110.348 232.651 110.41 232.641C110.472 232.628 110.521 232.619 110.559 232.611L110.737 233.398C110.677 233.42 110.594 233.443 110.488 233.465C110.382 233.49 110.247 233.502 110.083 233.502C109.836 233.502 109.593 233.449 109.356 233.342C109.121 233.236 108.925 233.074 108.769 232.856C108.616 232.638 108.539 232.364 108.539 232.032V226.36ZM112.515 235.566C112.366 235.566 112.234 235.554 112.118 235.529C112.001 235.506 111.921 235.484 111.876 235.462L112.099 234.69C112.312 234.744 112.5 234.764 112.663 234.749C112.827 234.734 112.971 234.661 113.098 234.53C113.226 234.402 113.344 234.192 113.45 233.903L113.614 233.457L111.505 227.726H112.455L114.029 232.27H114.089L115.663 227.726H116.613L114.193 234.259C114.084 234.554 113.949 234.797 113.788 234.991C113.627 235.186 113.44 235.331 113.228 235.425C113.017 235.519 112.78 235.566 112.515 235.566ZM123.189 227.726V228.468H120.234V227.726H123.189ZM121.095 226.36H121.971V231.794C121.971 232.042 122.007 232.228 122.079 232.351C122.153 232.473 122.247 232.554 122.361 232.596C122.477 232.636 122.6 232.656 122.729 232.656C122.825 232.656 122.904 232.651 122.966 232.641C123.028 232.628 123.077 232.619 123.115 232.611L123.293 233.398C123.233 233.42 123.15 233.443 123.044 233.465C122.938 233.49 122.803 233.502 122.639 233.502C122.392 233.502 122.149 233.449 121.912 233.342C121.677 233.236 121.481 233.074 121.325 232.856C121.172 232.638 121.095 232.364 121.095 232.032V226.36ZM125.071 235.566C124.922 235.566 124.79 235.554 124.674 235.529C124.557 235.506 124.477 235.484 124.432 235.462L124.655 234.69C124.868 234.744 125.056 234.764 125.219 234.749C125.383 234.734 125.527 234.661 125.654 234.53C125.782 234.402 125.9 234.192 126.006 233.903L126.17 233.457L124.061 227.726H125.011L126.585 232.27H126.645L128.219 227.726H129.169L126.749 234.259C126.64 234.554 126.505 234.797 126.344 234.991C126.183 235.186 125.996 235.331 125.784 235.425C125.573 235.519 125.336 235.566 125.071 235.566ZM130.325 235.566V227.726H131.172V228.632H131.276C131.34 228.533 131.429 228.407 131.543 228.253C131.659 228.097 131.825 227.959 132.04 227.837C132.258 227.714 132.552 227.652 132.924 227.652C133.404 227.652 133.827 227.772 134.193 228.012C134.559 228.252 134.845 228.592 135.051 229.033C135.256 229.473 135.359 229.993 135.359 230.592C135.359 231.196 135.256 231.719 135.051 232.162C134.845 232.602 134.561 232.944 134.197 233.186C133.833 233.426 133.414 233.547 132.939 233.547C132.572 233.547 132.279 233.486 132.059 233.365C131.839 233.241 131.669 233.101 131.55 232.945C131.431 232.787 131.34 232.656 131.276 232.552H131.201V235.566H130.325ZM131.186 230.577C131.186 231.007 131.25 231.387 131.376 231.716C131.502 232.043 131.686 232.299 131.929 232.485C132.171 232.668 132.468 232.76 132.82 232.76C133.186 232.76 133.492 232.663 133.737 232.47C133.984 232.275 134.17 232.012 134.293 231.683C134.42 231.351 134.483 230.983 134.483 230.577C134.483 230.176 134.421 229.815 134.297 229.493C134.176 229.169 133.992 228.913 133.744 228.725C133.499 228.534 133.191 228.439 132.82 228.439C132.463 228.439 132.164 228.529 131.921 228.71C131.679 228.888 131.496 229.138 131.372 229.46C131.248 229.779 131.186 230.151 131.186 230.577ZM139.086 233.547C138.536 233.547 138.062 233.425 137.664 233.183C137.268 232.938 136.962 232.596 136.747 232.158C136.534 231.718 136.428 231.205 136.428 230.621C136.428 230.037 136.534 229.523 136.747 229.077C136.962 228.629 137.262 228.28 137.645 228.03C138.031 227.778 138.482 227.652 138.997 227.652C139.294 227.652 139.587 227.701 139.876 227.8C140.166 227.899 140.429 228.06 140.667 228.283C140.905 228.503 141.094 228.795 141.235 229.159C141.376 229.523 141.447 229.971 141.447 230.503V230.874H137.051V230.117H140.556C140.556 229.795 140.491 229.508 140.363 229.255C140.236 229.003 140.056 228.804 139.821 228.658C139.588 228.512 139.313 228.439 138.997 228.439C138.648 228.439 138.346 228.525 138.091 228.699C137.838 228.869 137.644 229.092 137.508 229.367C137.372 229.641 137.304 229.936 137.304 230.25V230.755C137.304 231.186 137.378 231.551 137.527 231.85C137.678 232.147 137.887 232.374 138.154 232.529C138.421 232.683 138.732 232.76 139.086 232.76C139.316 232.76 139.524 232.727 139.709 232.663C139.897 232.596 140.059 232.497 140.196 232.366C140.332 232.232 140.437 232.067 140.511 231.869L141.357 232.106C141.268 232.393 141.119 232.646 140.908 232.864C140.698 233.079 140.438 233.247 140.129 233.368C139.819 233.487 139.472 233.547 139.086 233.547Z" fill="#000C14"/>
<path d="M81.1035 253.654H80.1384L82.9298 246.052H83.8801L86.6716 253.654H85.7064L83.4347 247.255H83.3753L81.1035 253.654ZM81.4599 250.685H85.3501V251.501H81.4599V250.685ZM88.613 246.052V253.654H87.7369V246.052H88.613ZM91.0935 246.052V253.654H90.2175V246.052H91.0935ZM97.3159 253.788C96.9546 253.788 96.6267 253.72 96.3322 253.584C96.0377 253.445 95.8038 253.246 95.6306 252.986C95.4574 252.724 95.3707 252.407 95.3707 252.036C95.3707 251.709 95.4351 251.444 95.5638 251.241C95.6925 251.036 95.8644 250.875 96.0797 250.759C96.295 250.643 96.5326 250.556 96.7925 250.499C97.0548 250.44 97.3183 250.393 97.5831 250.358C97.9296 250.313 98.2105 250.28 98.4258 250.258C98.6435 250.233 98.8019 250.192 98.9009 250.135C99.0024 250.078 99.0531 249.979 99.0531 249.838V249.809C99.0531 249.442 98.9529 249.158 98.7524 248.955C98.5544 248.752 98.2538 248.65 97.8504 248.65C97.4322 248.65 97.1043 248.742 96.8667 248.925C96.6291 249.108 96.4621 249.304 96.3656 249.512L95.5341 249.215C95.6826 248.868 95.8805 248.598 96.128 248.405C96.3779 248.21 96.6502 248.074 96.9447 247.997C97.2416 247.918 97.5336 247.878 97.8207 247.878C98.0038 247.878 98.2142 247.901 98.4517 247.945C98.6918 247.987 98.9232 248.075 99.1459 248.209C99.3711 248.342 99.5579 248.544 99.7064 248.814C99.8549 249.084 99.9291 249.445 99.9291 249.898V253.654H99.0531V252.882H99.0086C98.9492 253.006 98.8502 253.138 98.7116 253.279C98.573 253.42 98.3886 253.54 98.1585 253.639C97.9283 253.738 97.6475 253.788 97.3159 253.788ZM97.4495 253.001C97.796 253.001 98.088 252.933 98.3255 252.797C98.5656 252.661 98.7462 252.485 98.8675 252.27C98.9912 252.054 99.0531 251.828 99.0531 251.59V250.789C99.016 250.833 98.9343 250.874 98.8081 250.911C98.6844 250.946 98.5408 250.977 98.3775 251.004C98.2166 251.029 98.0595 251.051 97.9061 251.071C97.7551 251.088 97.6326 251.103 97.5386 251.115C97.3109 251.145 97.0981 251.193 96.9001 251.26C96.7046 251.324 96.5462 251.422 96.425 251.553C96.3062 251.682 96.2468 251.858 96.2468 252.08C96.2468 252.385 96.3594 252.615 96.5846 252.771C96.8123 252.924 97.1006 253.001 97.4495 253.001ZM103.844 253.773C103.31 253.773 102.85 253.647 102.464 253.394C102.077 253.142 101.781 252.794 101.573 252.351C101.365 251.908 101.261 251.402 101.261 250.833C101.261 250.254 101.367 249.743 101.58 249.3C101.795 248.855 102.095 248.507 102.478 248.257C102.864 248.005 103.315 247.878 103.83 247.878C104.23 247.878 104.592 247.953 104.913 248.101C105.235 248.25 105.499 248.457 105.704 248.725C105.91 248.992 106.037 249.304 106.086 249.66H105.21C105.144 249.4 104.995 249.17 104.765 248.97C104.537 248.767 104.23 248.665 103.844 248.665C103.503 248.665 103.203 248.754 102.946 248.933C102.691 249.108 102.492 249.357 102.348 249.679C102.207 249.998 102.137 250.373 102.137 250.803C102.137 251.244 102.206 251.628 102.345 251.954C102.486 252.281 102.684 252.534 102.939 252.715C103.196 252.896 103.498 252.986 103.844 252.986C104.072 252.986 104.279 252.947 104.464 252.867C104.65 252.788 104.807 252.674 104.936 252.526C105.064 252.377 105.156 252.199 105.21 251.991H106.086C106.037 252.328 105.915 252.631 105.719 252.901C105.526 253.168 105.27 253.381 104.951 253.539C104.634 253.695 104.265 253.773 103.844 253.773ZM109.847 247.953V248.695H106.892V247.953H109.847ZM107.753 246.587H108.629V252.021C108.629 252.268 108.665 252.454 108.737 252.578C108.811 252.699 108.905 252.781 109.019 252.823C109.135 252.862 109.258 252.882 109.387 252.882C109.483 252.882 109.562 252.877 109.624 252.867C109.686 252.855 109.735 252.845 109.773 252.838L109.951 253.625C109.891 253.647 109.808 253.669 109.702 253.691C109.596 253.716 109.461 253.729 109.297 253.729C109.05 253.729 108.807 253.675 108.57 253.569C108.335 253.463 108.139 253.3 107.983 253.083C107.83 252.865 107.753 252.59 107.753 252.259V246.587ZM111.165 253.654V247.953H112.041V253.654H111.165ZM111.61 247.002C111.439 247.002 111.292 246.944 111.168 246.828C111.047 246.712 110.986 246.572 110.986 246.408C110.986 246.245 111.047 246.105 111.168 245.989C111.292 245.873 111.439 245.814 111.61 245.814C111.781 245.814 111.927 245.873 112.048 245.989C112.172 246.105 112.234 246.245 112.234 246.408C112.234 246.572 112.172 246.712 112.048 246.828C111.927 246.944 111.781 247.002 111.61 247.002ZM118.307 247.953L116.199 253.654H115.308L113.2 247.953H114.15L115.724 252.496H115.783L117.357 247.953H118.307ZM119.464 253.654V247.953H120.34V253.654H119.464ZM119.909 247.002C119.738 247.002 119.591 246.944 119.468 246.828C119.346 246.712 119.286 246.572 119.286 246.408C119.286 246.245 119.346 246.105 119.468 245.989C119.591 245.873 119.738 245.814 119.909 245.814C120.08 245.814 120.226 245.873 120.347 245.989C120.471 246.105 120.533 246.245 120.533 246.408C120.533 246.572 120.471 246.712 120.347 246.828C120.226 246.944 120.08 247.002 119.909 247.002ZM124.424 247.953V248.695H121.469V247.953H124.424ZM122.33 246.587H123.206V252.021C123.206 252.268 123.242 252.454 123.314 252.578C123.388 252.699 123.482 252.781 123.596 252.823C123.713 252.862 123.835 252.882 123.964 252.882C124.06 252.882 124.139 252.877 124.201 252.867C124.263 252.855 124.313 252.845 124.35 252.838L124.528 253.625C124.469 253.647 124.386 253.669 124.279 253.691C124.173 253.716 124.038 253.729 123.875 253.729C123.627 253.729 123.385 253.675 123.147 253.569C122.912 253.463 122.716 253.3 122.561 253.083C122.407 252.865 122.33 252.59 122.33 252.259V246.587ZM126.306 255.792C126.158 255.792 126.025 255.78 125.909 255.755C125.793 255.733 125.712 255.711 125.668 255.688L125.89 254.916C126.103 254.971 126.291 254.991 126.455 254.976C126.618 254.961 126.763 254.888 126.889 254.757C127.017 254.628 127.135 254.419 127.241 254.129L127.405 253.684L125.296 247.953H126.247L127.821 252.496H127.88L129.454 247.953H130.404L127.984 254.486C127.875 254.78 127.74 255.024 127.579 255.217C127.418 255.413 127.232 255.557 127.019 255.651C126.808 255.745 126.571 255.792 126.306 255.792Z" fill="#486581"/>
</g>
<defs>
<filter id="filter0_dd_1232_65810" x="190.493" y="56.1392" width="242.178" height="260.059" filterUnits="userSpaceOnUse" color-interpolation-filters="sRGB">
<feFlood flood-opacity="0" result="BackgroundImageFix"/>
<feColorMatrix in="SourceAlpha" type="matrix" values="0 0 0 0 0 0 0 0 0 0 0 0 0 0 0 0 0 0 127 0" result="hardAlpha"/>
<feMorphology radius="2.09815" operator="erode" in="SourceAlpha" result="effect1_dropShadow_1232_65810"/>
<feOffset dy="4.19629"/>
<feGaussianBlur stdDeviation="3.14722"/>
<feComposite in2="hardAlpha" operator="out"/>
<feColorMatrix type="matrix" values="0 0 0 0 0 0 0 0 0 0 0 0 0 0 0 0 0 0 0.03 0"/>
<feBlend mode="normal" in2="BackgroundImageFix" result="effect1_dropShadow_1232_65810"/>
<feColorMatrix in="SourceAlpha" type="matrix" values="0 0 0 0 0 0 0 0 0 0 0 0 0 0 0 0 0 0 127 0" result="hardAlpha"/>
<feMorphology radius="4.19629" operator="erode" in="SourceAlpha" result="effect2_dropShadow_1232_65810"/>
<feOffset dy="12.5889"/>
<feGaussianBlur stdDeviation="8.39259"/>
<feComposite in2="hardAlpha" operator="out"/>
<feColorMatrix type="matrix" values="0 0 0 0 0 0 0 0 0 0 0 0 0 0 0 0 0 0 0.08 0"/>
<feBlend mode="normal" in2="effect1_dropShadow_1232_65810" result="effect2_dropShadow_1232_65810"/>
<feBlend mode="normal" in="SourceGraphic" in2="effect2_dropShadow_1232_65810" result="shape"/>
</filter>
<filter id="filter1_d_1232_65810" x="226.212" y="121.604" width="269.896" height="33.4849" filterUnits="userSpaceOnUse" color-interpolation-filters="sRGB">
<feFlood flood-opacity="0" result="BackgroundImageFix"/>
<feColorMatrix in="SourceAlpha" type="matrix" values="0 0 0 0 0 0 0 0 0 0 0 0 0 0 0 0 0 0 127 0" result="hardAlpha"/>
<feOffset dy="0.434869"/>
<feGaussianBlur stdDeviation="0.434869"/>
<feComposite in2="hardAlpha" operator="out"/>
<feColorMatrix type="matrix" values="0 0 0 0 0 0 0 0 0 0 0 0 0 0 0 0 0 0 0.04 0"/>
<feBlend mode="normal" in2="BackgroundImageFix" result="effect1_dropShadow_1232_65810"/>
<feBlend mode="normal" in="SourceGraphic" in2="effect1_dropShadow_1232_65810" result="shape"/>
</filter>
<filter id="filter2_d_1232_65810" x="226.212" y="159.35" width="269.896" height="33.4849" filterUnits="userSpaceOnUse" color-interpolation-filters="sRGB">
<feFlood flood-opacity="0" result="BackgroundImageFix"/>
<feColorMatrix in="SourceAlpha" type="matrix" values="0 0 0 0 0 0 0 0 0 0 0 0 0 0 0 0 0 0 127 0" result="hardAlpha"/>
<feOffset dy="0.434869"/>
<feGaussianBlur stdDeviation="0.434869"/>
<feComposite in2="hardAlpha" operator="out"/>
<feColorMatrix type="matrix" values="0 0 0 0 0 0 0 0 0 0 0 0 0 0 0 0 0 0 0.04 0"/>
<feBlend mode="normal" in2="BackgroundImageFix" result="effect1_dropShadow_1232_65810"/>
<feBlend mode="normal" in="SourceGraphic" in2="effect1_dropShadow_1232_65810" result="shape"/>
</filter>
<filter id="filter3_d_1232_65810" x="226.212" y="197.095" width="269.896" height="33.4849" filterUnits="userSpaceOnUse" color-interpolation-filters="sRGB">
<feFlood flood-opacity="0" result="BackgroundImageFix"/>
<feColorMatrix in="SourceAlpha" type="matrix" values="0 0 0 0 0 0 0 0 0 0 0 0 0 0 0 0 0 0 127 0" result="hardAlpha"/>
<feOffset dy="0.434869"/>
<feGaussianBlur stdDeviation="0.434869"/>
<feComposite in2="hardAlpha" operator="out"/>
<feColorMatrix type="matrix" values="0 0 0 0 0 0 0 0 0 0 0 0 0 0 0 0 0 0 0.04 0"/>
<feBlend mode="normal" in2="BackgroundImageFix" result="effect1_dropShadow_1232_65810"/>
<feBlend mode="normal" in="SourceGraphic" in2="effect1_dropShadow_1232_65810" result="shape"/>
</filter>
<filter id="filter4_d_1232_65810" x="226.212" y="234.841" width="269.896" height="33.4849" filterUnits="userSpaceOnUse" color-interpolation-filters="sRGB">
<feFlood flood-opacity="0" result="BackgroundImageFix"/>
<feColorMatrix in="SourceAlpha" type="matrix" values="0 0 0 0 0 0 0 0 0 0 0 0 0 0 0 0 0 0 127 0" result="hardAlpha"/>
<feOffset dy="0.434869"/>
<feGaussianBlur stdDeviation="0.434869"/>
<feComposite in2="hardAlpha" operator="out"/>
<feColorMatrix type="matrix" values="0 0 0 0 0 0 0 0 0 0 0 0 0 0 0 0 0 0 0.04 0"/>
<feBlend mode="normal" in2="BackgroundImageFix" result="effect1_dropShadow_1232_65810"/>
<feBlend mode="normal" in="SourceGraphic" in2="effect1_dropShadow_1232_65810" result="shape"/>
</filter>
<filter id="filter5_dd_1232_65810" x="52.9688" y="67.2559" width="178.805" height="244.203" filterUnits="userSpaceOnUse" color-interpolation-filters="sRGB">
<feFlood flood-opacity="0" result="BackgroundImageFix"/>
<feColorMatrix in="SourceAlpha" type="matrix" values="0 0 0 0 0 0 0 0 0 0 0 0 0 0 0 0 0 0 127 0" result="hardAlpha"/>
<feMorphology radius="2.74152" operator="erode" in="SourceAlpha" result="effect1_dropShadow_1232_65810"/>
<feOffset dy="5.48305"/>
<feGaussianBlur stdDeviation="4.11228"/>
<feComposite in2="hardAlpha" operator="out"/>
<feColorMatrix type="matrix" values="0 0 0 0 0 0 0 0 0 0 0 0 0 0 0 0 0 0 0.03 0"/>
<feBlend mode="normal" in2="BackgroundImageFix" result="effect1_dropShadow_1232_65810"/>
<feColorMatrix in="SourceAlpha" type="matrix" values="0 0 0 0 0 0 0 0 0 0 0 0 0 0 0 0 0 0 127 0" result="hardAlpha"/>
<feMorphology radius="5.48305" operator="erode" in="SourceAlpha" result="effect2_dropShadow_1232_65810"/>
<feOffset dy="16.4491"/>
<feGaussianBlur stdDeviation="10.9661"/>
<feComposite in2="hardAlpha" operator="out"/>
<feColorMatrix type="matrix" values="0 0 0 0 0 0 0 0 0 0 0 0 0 0 0 0 0 0 0.08 0"/>
<feBlend mode="normal" in2="effect1_dropShadow_1232_65810" result="effect2_dropShadow_1232_65810"/>
<feBlend mode="normal" in="SourceGraphic" in2="effect2_dropShadow_1232_65810" result="shape"/>
</filter>
<clipPath id="clip0_1232_65810">
<rect x="203.082" y="56.1392" width="217" height="234.882" rx="9.94677" fill="white"/>
</clipPath>
</defs>
</svg>
