<svg width="500" height="348" viewBox="0 0 500 348" fill="none" xmlns="http://www.w3.org/2000/svg">
<g filter="url(#filter0_dd_1232_75416)">
<g clip-path="url(#clip0_1232_75416)">
<rect x="105.332" y="35.0508" width="288.836" height="277.059" rx="8.78588" fill="white"/>
<path d="M120.554 63.1836V54.1901H125.982V55.1562H121.643V58.195H125.701V59.1611H121.643V62.2175H126.052V63.1836H120.554ZM127.804 63.1836V56.4385H128.805V57.4924H128.893C129.034 57.1323 129.26 56.8527 129.574 56.6536C129.887 56.4516 130.263 56.3506 130.702 56.3506C131.147 56.3506 131.518 56.4516 131.813 56.6536C132.112 56.8527 132.345 57.1323 132.512 57.4924H132.582C132.755 57.144 133.014 56.8674 133.359 56.6624C133.705 56.4546 134.119 56.3506 134.602 56.3506C135.205 56.3506 135.698 56.5395 136.082 56.9171C136.465 57.2919 136.657 57.8759 136.657 58.6693V63.1836H135.621V58.6693C135.621 58.1716 135.485 57.8159 135.212 57.6022C134.94 57.3885 134.619 57.2816 134.251 57.2816C133.776 57.2816 133.409 57.4251 133.148 57.712C132.888 57.9959 132.757 58.356 132.757 58.7922V63.1836H131.704V58.5639C131.704 58.1804 131.579 57.8715 131.33 57.6373C131.081 57.4002 130.761 57.2816 130.369 57.2816C130.099 57.2816 129.847 57.3533 129.613 57.4968C129.382 57.6402 129.195 57.8393 129.051 58.094C128.911 58.3458 128.84 58.6371 128.84 58.9679V63.1836H127.804ZM140.537 63.3417C140.109 63.3417 139.721 63.2612 139.373 63.1002C139.025 62.9362 138.748 62.7005 138.543 62.3931C138.338 62.0828 138.236 61.7081 138.236 61.269C138.236 60.8825 138.312 60.5693 138.464 60.3292C138.616 60.0862 138.82 59.8959 139.074 59.7583C139.329 59.6207 139.61 59.5183 139.918 59.4509C140.228 59.3807 140.54 59.3251 140.853 59.2841C141.263 59.2314 141.595 59.1919 141.85 59.1655C142.107 59.1362 142.295 59.0879 142.412 59.0206C142.532 58.9533 142.592 58.8362 142.592 58.6693V58.6341C142.592 58.2009 142.473 57.8642 142.236 57.6241C142.002 57.3841 141.646 57.264 141.169 57.264C140.674 57.264 140.286 57.3724 140.005 57.589C139.724 57.8056 139.527 58.0369 139.413 58.2828L138.429 57.9315C138.605 57.5217 138.839 57.2026 139.132 56.9742C139.427 56.7429 139.749 56.5819 140.098 56.4912C140.449 56.3975 140.794 56.3506 141.134 56.3506C141.351 56.3506 141.599 56.377 141.881 56.4297C142.164 56.4795 142.438 56.5834 142.702 56.7415C142.968 56.8996 143.189 57.1382 143.365 57.4573C143.54 57.7764 143.628 58.2038 143.628 58.7395V63.1836H142.592V62.2702H142.539C142.469 62.4166 142.352 62.5732 142.188 62.7401C142.024 62.9069 141.806 63.0489 141.534 63.166C141.261 63.2831 140.929 63.3417 140.537 63.3417ZM140.695 62.4107C141.105 62.4107 141.45 62.3302 141.731 62.1692C142.015 62.0082 142.229 61.8003 142.372 61.5456C142.519 61.2909 142.592 61.023 142.592 60.742V59.7935C142.548 59.8462 142.451 59.8945 142.302 59.9384C142.156 59.9794 141.986 60.016 141.793 60.0482C141.602 60.0774 141.416 60.1038 141.235 60.1272C141.056 60.1477 140.911 60.1653 140.8 60.1799C140.531 60.215 140.279 60.2721 140.045 60.3512C139.814 60.4273 139.626 60.5429 139.483 60.6981C139.342 60.8503 139.272 61.0582 139.272 61.3217C139.272 61.6818 139.405 61.954 139.672 62.1385C139.941 62.32 140.282 62.4107 140.695 62.4107ZM145.52 63.1836V56.4385H146.556V63.1836H145.52ZM146.047 55.3143C145.845 55.3143 145.671 55.2455 145.524 55.1079C145.381 54.9703 145.309 54.8049 145.309 54.6117C145.309 54.4184 145.381 54.253 145.524 54.1154C145.671 53.9778 145.845 53.9091 146.047 53.9091C146.249 53.9091 146.422 53.9778 146.565 54.1154C146.711 54.253 146.785 54.4184 146.785 54.6117C146.785 54.8049 146.711 54.9703 146.565 55.1079C146.422 55.2455 146.249 55.3143 146.047 55.3143ZM149.491 54.1901V63.1836H148.454V54.1901H149.491Z" fill="#486581"/>
<rect x="119.906" y="75.6916" width="259.687" height="32.6817" rx="3.05999" fill="#FAFCFE"/>
<rect x="119.906" y="75.6916" width="259.687" height="32.6817" rx="3.05999" stroke="#C9D4DE" stroke-width="0.88329"/>
<path d="M120.554 129.881V120.888H123.593C124.298 120.888 124.875 121.015 125.323 121.27C125.774 121.522 126.108 121.863 126.324 122.293C126.541 122.723 126.649 123.204 126.649 123.733C126.649 124.263 126.541 124.745 126.324 125.178C126.11 125.611 125.78 125.957 125.332 126.215C124.884 126.469 124.31 126.597 123.61 126.597H121.432V125.631H123.575C124.058 125.631 124.446 125.547 124.739 125.38C125.032 125.213 125.244 124.988 125.376 124.704C125.51 124.417 125.578 124.094 125.578 123.733C125.578 123.373 125.51 123.051 125.376 122.767C125.244 122.483 125.03 122.261 124.734 122.1C124.439 121.936 124.046 121.854 123.558 121.854H121.643V129.881H120.554ZM130.248 130.039C129.82 130.039 129.432 129.959 129.084 129.798C128.736 129.634 128.459 129.398 128.254 129.091C128.049 128.781 127.947 128.406 127.947 127.967C127.947 127.58 128.023 127.267 128.175 127.027C128.327 126.784 128.531 126.594 128.785 126.456C129.04 126.318 129.321 126.216 129.629 126.149C129.939 126.078 130.251 126.023 130.564 125.982C130.974 125.929 131.306 125.89 131.561 125.863C131.818 125.834 132.006 125.786 132.123 125.718C132.243 125.651 132.303 125.534 132.303 125.367V125.332C132.303 124.899 132.184 124.562 131.947 124.322C131.713 124.082 131.357 123.962 130.88 123.962C130.385 123.962 129.998 124.07 129.716 124.287C129.435 124.503 129.238 124.735 129.124 124.981L128.14 124.629C128.316 124.219 128.55 123.9 128.843 123.672C129.138 123.441 129.46 123.28 129.809 123.189C130.16 123.095 130.505 123.048 130.845 123.048C131.062 123.048 131.311 123.075 131.592 123.127C131.876 123.177 132.149 123.281 132.413 123.439C132.679 123.597 132.9 123.836 133.076 124.155C133.252 124.474 133.339 124.902 133.339 125.437V129.881H132.303V128.968H132.25C132.18 129.114 132.063 129.271 131.899 129.438C131.735 129.605 131.517 129.747 131.245 129.864C130.972 129.981 130.64 130.039 130.248 130.039ZM130.406 129.108C130.816 129.108 131.161 129.028 131.442 128.867C131.726 128.706 131.94 128.498 132.083 128.243C132.23 127.989 132.303 127.721 132.303 127.44V126.491C132.259 126.544 132.162 126.592 132.013 126.636C131.867 126.677 131.697 126.714 131.504 126.746C131.313 126.775 131.128 126.802 130.946 126.825C130.767 126.845 130.623 126.863 130.511 126.878C130.242 126.913 129.99 126.97 129.756 127.049C129.525 127.125 129.337 127.241 129.194 127.396C129.053 127.548 128.983 127.756 128.983 128.019C128.983 128.38 129.116 128.652 129.383 128.836C129.652 129.018 129.993 129.108 130.406 129.108ZM140.009 124.647L139.078 124.91C139.019 124.755 138.933 124.604 138.819 124.458C138.707 124.309 138.555 124.186 138.362 124.089C138.169 123.993 137.921 123.944 137.62 123.944C137.207 123.944 136.863 124.039 136.588 124.23C136.316 124.417 136.179 124.656 136.179 124.945C136.179 125.203 136.273 125.407 136.46 125.556C136.648 125.705 136.941 125.83 137.339 125.929L138.34 126.175C138.943 126.321 139.392 126.545 139.688 126.847C139.984 127.146 140.132 127.531 140.132 128.002C140.132 128.388 140.02 128.734 139.798 129.038C139.578 129.343 139.271 129.583 138.876 129.758C138.481 129.934 138.021 130.022 137.497 130.022C136.809 130.022 136.239 129.873 135.789 129.574C135.338 129.275 135.052 128.839 134.932 128.265L135.916 128.019C136.01 128.382 136.187 128.655 136.447 128.836C136.711 129.018 137.055 129.108 137.479 129.108C137.962 129.108 138.346 129.006 138.63 128.801C138.917 128.593 139.06 128.344 139.06 128.055C139.06 127.82 138.978 127.624 138.814 127.466C138.65 127.305 138.399 127.185 138.059 127.106L136.935 126.843C136.317 126.696 135.863 126.469 135.573 126.162C135.287 125.852 135.143 125.464 135.143 124.998C135.143 124.618 135.25 124.281 135.464 123.988C135.68 123.695 135.975 123.466 136.346 123.299C136.721 123.132 137.146 123.048 137.62 123.048C138.287 123.048 138.811 123.195 139.192 123.488C139.575 123.78 139.848 124.167 140.009 124.647ZM146.469 124.647L145.539 124.91C145.48 124.755 145.394 124.604 145.279 124.458C145.168 124.309 145.016 124.186 144.823 124.089C144.63 123.993 144.382 123.944 144.081 123.944C143.668 123.944 143.324 124.039 143.049 124.23C142.776 124.417 142.64 124.656 142.64 124.945C142.64 125.203 142.734 125.407 142.921 125.556C143.109 125.705 143.401 125.83 143.8 125.929L144.801 126.175C145.404 126.321 145.853 126.545 146.149 126.847C146.445 127.146 146.592 127.531 146.592 128.002C146.592 128.388 146.481 128.734 146.259 129.038C146.039 129.343 145.732 129.583 145.337 129.758C144.941 129.934 144.482 130.022 143.958 130.022C143.27 130.022 142.7 129.873 142.249 129.574C141.799 129.275 141.513 128.839 141.393 128.265L142.377 128.019C142.47 128.382 142.648 128.655 142.908 128.836C143.172 129.018 143.516 129.108 143.94 129.108C144.423 129.108 144.807 129.006 145.091 128.801C145.377 128.593 145.521 128.344 145.521 128.055C145.521 127.82 145.439 127.624 145.275 127.466C145.111 127.305 144.859 127.185 144.52 127.106L143.396 126.843C142.778 126.696 142.324 126.469 142.034 126.162C141.747 125.852 141.604 125.464 141.604 124.998C141.604 124.618 141.711 124.281 141.924 123.988C142.141 123.695 142.435 123.466 142.807 123.299C143.182 123.132 143.606 123.048 144.081 123.048C144.748 123.048 145.272 123.195 145.653 123.488C146.036 123.78 146.308 124.167 146.469 124.647ZM149.681 129.881L147.626 123.136H148.715L150.172 128.3H150.243L151.683 123.136H152.79L154.213 128.283H154.283L155.741 123.136H156.83L154.775 129.881H153.756L152.28 124.7H152.175L150.699 129.881H149.681ZM160.711 130.022C160.102 130.022 159.567 129.877 159.108 129.587C158.651 129.297 158.294 128.892 158.036 128.371C157.782 127.85 157.654 127.241 157.654 126.544C157.654 125.841 157.782 125.228 158.036 124.704C158.294 124.18 158.651 123.773 159.108 123.483C159.567 123.193 160.102 123.048 160.711 123.048C161.32 123.048 161.852 123.193 162.309 123.483C162.769 123.773 163.126 124.18 163.381 124.704C163.638 125.228 163.767 125.841 163.767 126.544C163.767 127.241 163.638 127.85 163.381 128.371C163.126 128.892 162.769 129.297 162.309 129.587C161.852 129.877 161.32 130.022 160.711 130.022ZM160.711 129.091C161.173 129.091 161.554 128.972 161.852 128.735C162.151 128.498 162.372 128.186 162.515 127.8C162.659 127.413 162.731 126.995 162.731 126.544C162.731 126.093 162.659 125.673 162.515 125.284C162.372 124.894 162.151 124.58 161.852 124.339C161.554 124.099 161.173 123.979 160.711 123.979C160.248 123.979 159.868 124.099 159.569 124.339C159.27 124.58 159.049 124.894 158.906 125.284C158.762 125.673 158.691 126.093 158.691 126.544C158.691 126.995 158.762 127.413 158.906 127.8C159.049 128.186 159.27 128.498 159.569 128.735C159.868 128.972 160.248 129.091 160.711 129.091ZM165.349 129.881V123.136H166.35V124.155H166.421C166.543 123.821 166.766 123.55 167.088 123.343C167.41 123.135 167.773 123.031 168.177 123.031C168.253 123.031 168.348 123.032 168.462 123.035C168.577 123.038 168.663 123.043 168.722 123.048V124.102C168.686 124.094 168.606 124.08 168.48 124.063C168.357 124.042 168.227 124.032 168.089 124.032C167.761 124.032 167.469 124.101 167.211 124.238C166.956 124.373 166.754 124.56 166.605 124.801C166.459 125.038 166.385 125.308 166.385 125.613V129.881H165.349ZM172.292 130.022C171.73 130.022 171.233 129.88 170.803 129.596C170.373 129.309 170.036 128.905 169.793 128.384C169.55 127.86 169.429 127.241 169.429 126.526C169.429 125.818 169.55 125.203 169.793 124.682C170.036 124.161 170.374 123.758 170.807 123.474C171.241 123.19 171.741 123.048 172.309 123.048C172.748 123.048 173.095 123.122 173.35 123.268C173.608 123.411 173.804 123.575 173.939 123.76C174.076 123.941 174.183 124.091 174.259 124.208H174.347V120.888H175.383V129.881H174.382V128.845H174.259C174.183 128.968 174.075 129.123 173.934 129.31C173.794 129.495 173.593 129.66 173.332 129.807C173.072 129.95 172.725 130.022 172.292 130.022ZM172.432 129.091C172.848 129.091 173.199 128.983 173.486 128.766C173.773 128.546 173.991 128.243 174.141 127.857C174.29 127.468 174.364 127.018 174.364 126.509C174.364 126.005 174.291 125.565 174.145 125.187C173.999 124.806 173.782 124.511 173.495 124.3C173.208 124.086 172.854 123.979 172.432 123.979C171.993 123.979 171.627 124.092 171.334 124.318C171.045 124.54 170.826 124.843 170.68 125.227C170.537 125.607 170.465 126.035 170.465 126.509C170.465 126.989 170.538 127.425 170.685 127.817C170.834 128.207 171.053 128.517 171.343 128.748C171.636 128.977 171.999 129.091 172.432 129.091Z" fill="#486581"/>
<rect x="119.906" y="142.389" width="259.687" height="32.6817" rx="3.05999" fill="#FAFCFE"/>
<rect x="119.906" y="142.389" width="259.687" height="32.6817" rx="3.05999" stroke="#C9D4DE" stroke-width="0.88329"/>
<circle cx="136.586" cy="158.73" r="3.11467" fill="#134061"/>
<circle cx="146.349" cy="158.73" r="3.11467" fill="#134061"/>
<circle cx="156.111" cy="158.73" r="3.11467" fill="#134061"/>
<circle cx="165.874" cy="158.73" r="3.11467" fill="#134061"/>
<circle cx="175.636" cy="158.73" r="3.11467" fill="#134061"/>
<circle cx="185.399" cy="158.73" r="3.11467" fill="#134061"/>
<circle cx="195.161" cy="158.73" r="3.11467" fill="#134061"/>
<circle cx="204.924" cy="158.73" r="3.11467" fill="#134061"/>
<circle cx="214.686" cy="158.73" r="3.11467" fill="#134061"/>
<circle cx="224.449" cy="158.73" r="3.11467" fill="#134061"/>
<circle cx="234.211" cy="158.73" r="3.11467" fill="#134061"/>
<rect x="119.465" y="187.512" width="260.57" height="33.1326" rx="16.5663" fill="#2680C2"/>
<path d="M233.532 208.579V199.585H235.433V207.011H239.289V208.579H233.532ZM243.56 208.71C242.878 208.71 242.288 208.565 241.791 208.276C241.296 207.983 240.914 207.576 240.645 207.055C240.375 206.531 240.241 205.923 240.241 205.232C240.241 204.536 240.375 203.927 240.645 203.406C240.914 202.882 241.296 202.475 241.791 202.185C242.288 201.892 242.878 201.746 243.56 201.746C244.243 201.746 244.831 201.892 245.326 202.185C245.823 202.475 246.207 202.882 246.476 203.406C246.746 203.927 246.88 204.536 246.88 205.232C246.88 205.923 246.746 206.531 246.476 207.055C246.207 207.576 245.823 207.983 245.326 208.276C244.831 208.565 244.243 208.71 243.56 208.71ZM243.569 207.261C243.88 207.261 244.139 207.173 244.347 206.998C244.554 206.819 244.711 206.576 244.816 206.269C244.925 205.961 244.979 205.612 244.979 205.219C244.979 204.827 244.925 204.477 244.816 204.17C244.711 203.862 244.554 203.619 244.347 203.441C244.139 203.262 243.88 203.173 243.569 203.173C243.256 203.173 242.993 203.262 242.779 203.441C242.568 203.619 242.408 203.862 242.3 204.17C242.195 204.477 242.142 204.827 242.142 205.219C242.142 205.612 242.195 205.961 242.3 206.269C242.408 206.576 242.568 206.819 242.779 206.998C242.993 207.173 243.256 207.261 243.569 207.261ZM251.136 211.249C250.53 211.249 250.01 211.165 249.577 210.998C249.146 210.834 248.804 210.61 248.549 210.326C248.294 210.042 248.129 209.723 248.053 209.369L249.783 209.136C249.836 209.271 249.919 209.397 250.033 209.514C250.148 209.631 250.298 209.725 250.486 209.795C250.676 209.868 250.907 209.905 251.179 209.905C251.586 209.905 251.922 209.805 252.185 209.606C252.452 209.41 252.585 209.081 252.585 208.618V207.384H252.506C252.424 207.572 252.301 207.749 252.137 207.916C251.973 208.082 251.762 208.219 251.504 208.324C251.247 208.429 250.939 208.482 250.582 208.482C250.076 208.482 249.615 208.365 249.199 208.131C248.786 207.894 248.457 207.532 248.211 207.046C247.968 206.557 247.846 205.939 247.846 205.193C247.846 204.429 247.971 203.791 248.22 203.278C248.469 202.766 248.799 202.382 249.212 202.128C249.628 201.873 250.083 201.746 250.578 201.746C250.956 201.746 251.272 201.81 251.526 201.939C251.781 202.065 251.986 202.223 252.141 202.413C252.299 202.601 252.421 202.785 252.506 202.966H252.576V201.833H254.433V208.644C254.433 209.218 254.293 209.698 254.012 210.085C253.731 210.471 253.341 210.761 252.844 210.954C252.349 211.15 251.78 211.249 251.136 211.249ZM251.175 207.077C251.477 207.077 251.731 207.002 251.939 206.853C252.15 206.701 252.311 206.484 252.422 206.203C252.536 205.919 252.593 205.579 252.593 205.184C252.593 204.789 252.538 204.446 252.427 204.157C252.315 203.864 252.154 203.637 251.944 203.476C251.733 203.315 251.477 203.234 251.175 203.234C250.868 203.234 250.609 203.318 250.398 203.485C250.187 203.649 250.027 203.877 249.919 204.17C249.811 204.462 249.757 204.801 249.757 205.184C249.757 205.573 249.811 205.91 249.919 206.194C250.03 206.475 250.19 206.693 250.398 206.848C250.609 207.001 250.868 207.077 251.175 207.077ZM255.922 208.579V201.833H257.793V208.579H255.922ZM256.862 200.964C256.584 200.964 256.345 200.872 256.146 200.687C255.95 200.5 255.852 200.276 255.852 200.015C255.852 199.758 255.95 199.537 256.146 199.352C256.345 199.165 256.584 199.071 256.862 199.071C257.14 199.071 257.377 199.165 257.573 199.352C257.772 199.537 257.872 199.758 257.872 200.015C257.872 200.276 257.772 200.5 257.573 200.687C257.377 200.872 257.14 200.964 256.862 200.964ZM261.162 204.679V208.579H259.291V201.833H261.074V203.024H261.153C261.303 202.631 261.553 202.321 261.904 202.093C262.256 201.861 262.682 201.746 263.182 201.746C263.651 201.746 264.059 201.848 264.407 202.053C264.756 202.258 265.027 202.551 265.22 202.931C265.413 203.309 265.51 203.76 265.51 204.284V208.579H263.639V204.618C263.642 204.205 263.536 203.883 263.323 203.652C263.109 203.417 262.815 203.3 262.44 203.3C262.188 203.3 261.966 203.354 261.773 203.463C261.582 203.571 261.433 203.729 261.325 203.937C261.219 204.142 261.165 204.389 261.162 204.679Z" fill="white"/>
<path d="M250.927 242.148C250.927 243.097 250.756 243.917 250.414 244.607C250.071 245.298 249.601 245.831 249.004 246.206C248.407 246.581 247.725 246.768 246.958 246.768C246.191 246.768 245.508 246.581 244.911 246.206C244.314 245.831 243.844 245.298 243.502 244.607C243.159 243.917 242.988 243.097 242.988 242.148C242.988 241.2 243.159 240.38 243.502 239.689C243.844 238.998 244.314 238.465 244.911 238.091C245.508 237.716 246.191 237.529 246.958 237.529C247.725 237.529 248.407 237.716 249.004 238.091C249.601 238.465 250.071 238.998 250.414 239.689C250.756 240.38 250.927 241.2 250.927 242.148ZM249.873 242.148C249.873 241.37 249.743 240.712 249.483 240.177C249.225 239.641 248.875 239.235 248.433 238.96C247.994 238.685 247.502 238.547 246.958 238.547C246.413 238.547 245.92 238.685 245.478 238.96C245.039 239.235 244.689 239.641 244.428 240.177C244.171 240.712 244.042 241.37 244.042 242.148C244.042 242.927 244.171 243.584 244.428 244.12C244.689 244.656 245.039 245.061 245.478 245.336C245.92 245.612 246.413 245.749 246.958 245.749C247.502 245.749 247.994 245.612 248.433 245.336C248.875 245.061 249.225 244.656 249.483 244.12C249.743 243.584 249.873 242.927 249.873 242.148ZM252.618 246.645V239.9H253.619V240.919H253.69C253.812 240.585 254.035 240.314 254.357 240.106C254.679 239.898 255.042 239.795 255.446 239.795C255.522 239.795 255.617 239.796 255.732 239.799C255.846 239.802 255.932 239.806 255.991 239.812V240.866C255.955 240.857 255.875 240.844 255.749 240.826C255.626 240.806 255.496 240.796 255.358 240.796C255.03 240.796 254.738 240.865 254.48 241.002C254.225 241.137 254.023 241.324 253.874 241.564C253.728 241.801 253.654 242.072 253.654 242.377V246.645H252.618Z" fill="#486581"/>
<rect x="119.905" y="264.085" width="259.69" height="33.4519" rx="16.7259" stroke="#C9D4DE" stroke-width="0.88"/>
<path d="M198.587 279.163H197.909V279.128H190.334V282.495H195.091C194.397 284.454 192.532 285.861 190.334 285.861C187.545 285.861 185.284 283.6 185.284 280.811C185.284 278.023 187.545 275.762 190.334 275.762C191.621 275.762 192.793 276.247 193.684 277.04L196.065 274.66C194.562 273.259 192.551 272.395 190.334 272.395C185.686 272.395 181.918 276.163 181.918 280.811C181.918 285.459 185.686 289.228 190.334 289.228C194.982 289.228 198.75 285.459 198.75 280.811C198.75 280.247 198.692 279.696 198.587 279.163Z" fill="#FFC107"/>
<path d="M182.888 276.894L185.653 278.922C186.402 277.069 188.214 275.762 190.334 275.762C191.622 275.762 192.793 276.247 193.684 277.04L196.065 274.66C194.562 273.259 192.551 272.395 190.334 272.395C187.102 272.395 184.298 274.22 182.888 276.894Z" fill="#FF3D00"/>
<path d="M190.334 289.227C192.508 289.227 194.483 288.395 195.976 287.043L193.371 284.838C192.526 285.478 191.476 285.861 190.334 285.861C188.144 285.861 186.286 284.465 185.586 282.517L182.841 284.632C184.234 287.357 187.063 289.227 190.334 289.227Z" fill="#4CAF50"/>
<path d="M198.586 279.162H197.908V279.127H190.334V282.494H195.09C194.757 283.435 194.151 284.247 193.37 284.838L193.371 284.838L195.976 287.042C195.792 287.209 198.75 285.019 198.75 280.811C198.75 280.246 198.692 279.696 198.586 279.162Z" fill="#1976D2"/>
<path d="M210.254 285.311V276.318H211.611V284.143H215.686V285.311H210.254ZM219.97 285.447C219.338 285.447 218.786 285.302 218.315 285.012C217.843 284.723 217.477 284.317 217.217 283.796C216.956 283.275 216.826 282.666 216.826 281.969C216.826 281.27 216.956 280.658 217.217 280.134C217.477 279.61 217.843 279.203 218.315 278.913C218.786 278.623 219.338 278.478 219.97 278.478C220.602 278.478 221.154 278.623 221.626 278.913C222.097 279.203 222.463 279.61 222.723 280.134C222.984 280.658 223.114 281.27 223.114 281.969C223.114 282.666 222.984 283.275 222.723 283.796C222.463 284.317 222.097 284.723 221.626 285.012C221.154 285.302 220.602 285.447 219.97 285.447ZM219.974 284.345C220.384 284.345 220.724 284.237 220.993 284.02C221.263 283.803 221.462 283.515 221.59 283.155C221.722 282.795 221.788 282.398 221.788 281.965C221.788 281.534 221.722 281.139 221.59 280.779C221.462 280.416 221.263 280.125 220.993 279.905C220.724 279.686 220.384 279.576 219.974 279.576C219.562 279.576 219.219 279.686 218.947 279.905C218.678 280.125 218.477 280.416 218.345 280.779C218.216 281.139 218.152 281.534 218.152 281.965C218.152 282.398 218.216 282.795 218.345 283.155C218.477 283.515 218.678 283.803 218.947 284.02C219.219 284.237 219.562 284.345 219.974 284.345ZM227.408 287.981C226.872 287.981 226.411 287.911 226.025 287.77C225.641 287.63 225.328 287.444 225.085 287.212C224.842 286.981 224.66 286.728 224.54 286.453L225.669 285.987C225.748 286.116 225.853 286.252 225.985 286.396C226.12 286.542 226.301 286.667 226.53 286.769C226.761 286.871 227.058 286.923 227.421 286.923C227.919 286.923 228.33 286.801 228.655 286.558C228.98 286.318 229.142 285.935 229.142 285.408V284.081H229.059C228.98 284.225 228.866 284.384 228.717 284.56C228.57 284.736 228.368 284.888 228.111 285.017C227.853 285.146 227.518 285.21 227.105 285.21C226.572 285.21 226.092 285.086 225.665 284.837C225.24 284.585 224.903 284.215 224.655 283.726C224.409 283.234 224.286 282.629 224.286 281.912C224.286 281.195 224.407 280.58 224.65 280.068C224.896 279.555 225.233 279.163 225.66 278.891C226.088 278.616 226.572 278.478 227.114 278.478C227.532 278.478 227.87 278.548 228.128 278.689C228.386 278.826 228.586 278.987 228.73 279.172C228.876 279.356 228.989 279.519 229.068 279.659H229.164V278.566H230.451V285.46C230.451 286.04 230.316 286.516 230.047 286.888C229.778 287.259 229.413 287.535 228.954 287.713C228.497 287.892 227.982 287.981 227.408 287.981ZM227.395 284.121C227.772 284.121 228.091 284.033 228.352 283.857C228.616 283.679 228.815 283.424 228.949 283.093C229.087 282.76 229.156 282.36 229.156 281.895C229.156 281.441 229.088 281.041 228.954 280.696C228.819 280.35 228.621 280.081 228.361 279.888C228.1 279.692 227.778 279.593 227.395 279.593C227 279.593 226.67 279.696 226.407 279.901C226.143 280.103 225.944 280.378 225.809 280.726C225.678 281.075 225.612 281.464 225.612 281.895C225.612 282.337 225.679 282.725 225.814 283.058C225.949 283.392 226.148 283.653 226.411 283.84C226.677 284.027 227.005 284.121 227.395 284.121ZM235.485 285.311V278.566H236.798V285.311H235.485ZM236.148 277.525C235.919 277.525 235.723 277.449 235.559 277.297C235.398 277.142 235.318 276.957 235.318 276.744C235.318 276.527 235.398 276.342 235.559 276.19C235.723 276.035 235.919 275.957 236.148 275.957C236.376 275.957 236.571 276.035 236.732 276.19C236.896 276.342 236.978 276.527 236.978 276.744C236.978 276.957 236.896 277.142 236.732 277.297C236.571 277.449 236.376 277.525 236.148 277.525ZM239.877 281.306V285.311H238.564V278.566H239.824V279.664H239.908C240.063 279.307 240.306 279.02 240.637 278.803C240.971 278.586 241.391 278.478 241.897 278.478C242.357 278.478 242.759 278.575 243.105 278.768C243.45 278.958 243.718 279.242 243.908 279.62C244.099 279.997 244.194 280.464 244.194 281.021V285.311H242.881V281.179C242.881 280.69 242.753 280.308 242.499 280.033C242.244 279.755 241.894 279.615 241.449 279.615C241.145 279.615 240.874 279.681 240.637 279.813C240.403 279.945 240.217 280.138 240.079 280.393C239.944 280.644 239.877 280.949 239.877 281.306ZM250.69 285.311L248.705 278.566H250.062L251.384 283.519H251.449L252.776 278.566H254.133L255.45 283.497H255.516L256.829 278.566H258.186L256.205 285.311H254.866L253.496 280.441H253.395L252.025 285.311H250.69ZM259.432 285.311V278.566H260.745V285.311H259.432ZM260.095 277.525C259.867 277.525 259.67 277.449 259.507 277.297C259.345 277.142 259.265 276.957 259.265 276.744C259.265 276.527 259.345 276.342 259.507 276.19C259.67 276.035 259.867 275.957 260.095 275.957C260.323 275.957 260.518 276.035 260.679 276.19C260.843 276.342 260.925 276.527 260.925 276.744C260.925 276.957 260.843 277.142 260.679 277.297C260.518 277.449 260.323 277.525 260.095 277.525ZM265.66 278.566V279.62H261.976V278.566H265.66ZM262.964 276.95H264.277V283.331C264.277 283.585 264.315 283.777 264.391 283.906C264.467 284.032 264.565 284.118 264.685 284.165C264.808 284.209 264.941 284.231 265.085 284.231C265.19 284.231 265.282 284.223 265.361 284.209C265.44 284.194 265.502 284.182 265.546 284.174L265.783 285.258C265.707 285.288 265.598 285.317 265.458 285.346C265.317 285.378 265.142 285.396 264.931 285.399C264.585 285.405 264.263 285.343 263.965 285.214C263.666 285.086 263.425 284.887 263.24 284.617C263.056 284.348 262.964 284.01 262.964 283.603V276.95ZM268.57 281.306V285.311H267.257V276.318H268.553V279.664H268.636C268.794 279.301 269.036 279.012 269.361 278.799C269.686 278.585 270.11 278.478 270.634 278.478C271.097 278.478 271.501 278.573 271.846 278.764C272.195 278.954 272.464 279.238 272.654 279.615C272.847 279.99 272.944 280.459 272.944 281.021V285.311H271.631V281.179C271.631 280.684 271.504 280.3 271.249 280.028C270.994 279.753 270.64 279.615 270.186 279.615C269.876 279.615 269.598 279.681 269.352 279.813C269.109 279.945 268.917 280.138 268.777 280.393C268.639 280.644 268.57 280.949 268.57 281.306ZM284.161 279.159C284.076 278.892 283.962 278.654 283.818 278.443C283.678 278.229 283.509 278.048 283.313 277.898C283.117 277.746 282.893 277.631 282.641 277.552C282.392 277.472 282.119 277.433 281.82 277.433C281.314 277.433 280.857 277.563 280.45 277.824C280.043 278.084 279.721 278.466 279.484 278.97C279.25 279.471 279.133 280.084 279.133 280.81C279.133 281.539 279.251 282.155 279.488 282.659C279.725 283.162 280.05 283.544 280.463 283.805C280.876 284.065 281.346 284.196 281.873 284.196C282.362 284.196 282.788 284.096 283.151 283.897C283.517 283.698 283.799 283.417 283.998 283.054C284.2 282.688 284.301 282.258 284.301 281.763L284.653 281.829H282.079V280.709H285.614V281.732C285.614 282.487 285.453 283.143 285.131 283.699C284.812 284.253 284.37 284.68 283.805 284.982C283.243 285.283 282.599 285.434 281.873 285.434C281.059 285.434 280.345 285.247 279.73 284.872C279.118 284.497 278.641 283.966 278.298 283.278C277.956 282.587 277.784 281.767 277.784 280.819C277.784 280.101 277.884 279.457 278.083 278.886C278.282 278.316 278.562 277.831 278.922 277.433C279.285 277.032 279.711 276.726 280.2 276.515C280.691 276.301 281.229 276.195 281.811 276.195C282.297 276.195 282.75 276.266 283.168 276.41C283.59 276.553 283.965 276.757 284.292 277.02C284.623 277.284 284.897 277.597 285.114 277.96C285.33 278.32 285.477 278.72 285.553 279.159H284.161ZM290.073 285.447C289.44 285.447 288.888 285.302 288.417 285.012C287.946 284.723 287.58 284.317 287.319 283.796C287.059 283.275 286.928 282.666 286.928 281.969C286.928 281.27 287.059 280.658 287.319 280.134C287.58 279.61 287.946 279.203 288.417 278.913C288.888 278.623 289.44 278.478 290.073 278.478C290.705 278.478 291.257 278.623 291.728 278.913C292.199 279.203 292.565 279.61 292.826 280.134C293.086 280.658 293.217 281.27 293.217 281.969C293.217 282.666 293.086 283.275 292.826 283.796C292.565 284.317 292.199 284.723 291.728 285.012C291.257 285.302 290.705 285.447 290.073 285.447ZM290.077 284.345C290.487 284.345 290.826 284.237 291.096 284.02C291.365 283.803 291.564 283.515 291.693 283.155C291.825 282.795 291.891 282.398 291.891 281.965C291.891 281.534 291.825 281.139 291.693 280.779C291.564 280.416 291.365 280.125 291.096 279.905C290.826 279.686 290.487 279.576 290.077 279.576C289.664 279.576 289.322 279.686 289.049 279.905C288.78 280.125 288.579 280.416 288.448 280.779C288.319 281.139 288.255 281.534 288.255 281.965C288.255 282.398 288.319 282.795 288.448 283.155C288.579 283.515 288.78 283.803 289.049 284.02C289.322 284.237 289.664 284.345 290.077 284.345ZM297.524 285.447C296.891 285.447 296.339 285.302 295.868 285.012C295.397 284.723 295.031 284.317 294.77 283.796C294.51 283.275 294.379 282.666 294.379 281.969C294.379 281.27 294.51 280.658 294.77 280.134C295.031 279.61 295.397 279.203 295.868 278.913C296.339 278.623 296.891 278.478 297.524 278.478C298.156 278.478 298.708 278.623 299.179 278.913C299.65 279.203 300.016 279.61 300.277 280.134C300.538 280.658 300.668 281.27 300.668 281.969C300.668 282.666 300.538 283.275 300.277 283.796C300.016 284.317 299.65 284.723 299.179 285.012C298.708 285.302 298.156 285.447 297.524 285.447ZM297.528 284.345C297.938 284.345 298.277 284.237 298.547 284.02C298.816 283.803 299.015 283.515 299.144 283.155C299.276 282.795 299.342 282.398 299.342 281.965C299.342 281.534 299.276 281.139 299.144 280.779C299.015 280.416 298.816 280.125 298.547 279.905C298.277 279.686 297.938 279.576 297.528 279.576C297.115 279.576 296.773 279.686 296.5 279.905C296.231 280.125 296.031 280.416 295.899 280.779C295.77 281.139 295.706 281.534 295.706 281.965C295.706 282.398 295.77 282.795 295.899 283.155C296.031 283.515 296.231 283.803 296.5 284.02C296.773 284.237 297.115 284.345 297.528 284.345ZM304.961 287.981C304.426 287.981 303.965 287.911 303.578 287.77C303.195 287.63 302.881 287.444 302.638 287.212C302.395 286.981 302.214 286.728 302.094 286.453L303.222 285.987C303.301 286.116 303.407 286.252 303.539 286.396C303.673 286.542 303.855 286.667 304.083 286.769C304.314 286.871 304.612 286.923 304.975 286.923C305.472 286.923 305.884 286.801 306.209 286.558C306.534 286.318 306.696 285.935 306.696 285.408V284.081H306.613C306.534 284.225 306.419 284.384 306.27 284.56C306.124 284.736 305.922 284.888 305.664 285.017C305.406 285.146 305.071 285.21 304.658 285.21C304.126 285.21 303.645 285.086 303.218 284.837C302.794 284.585 302.457 284.215 302.208 283.726C301.962 283.234 301.839 282.629 301.839 281.912C301.839 281.195 301.961 280.58 302.204 280.068C302.45 279.555 302.786 279.163 303.214 278.891C303.641 278.616 304.126 278.478 304.667 278.478C305.086 278.478 305.424 278.548 305.682 278.689C305.939 278.826 306.14 278.987 306.283 279.172C306.43 279.356 306.542 279.519 306.621 279.659H306.718V278.566H308.005V285.46C308.005 286.04 307.87 286.516 307.601 286.888C307.331 287.259 306.967 287.535 306.507 287.713C306.05 287.892 305.535 287.981 304.961 287.981ZM304.948 284.121C305.326 284.121 305.645 284.033 305.906 283.857C306.169 283.679 306.368 283.424 306.503 283.093C306.64 282.76 306.709 282.36 306.709 281.895C306.709 281.441 306.642 281.041 306.507 280.696C306.373 280.35 306.175 280.081 305.914 279.888C305.654 279.692 305.332 279.593 304.948 279.593C304.553 279.593 304.224 279.696 303.96 279.901C303.697 280.103 303.498 280.378 303.363 280.726C303.231 281.075 303.165 281.464 303.165 281.895C303.165 282.337 303.233 282.725 303.367 283.058C303.502 283.392 303.701 283.653 303.965 283.84C304.231 284.027 304.559 284.121 304.948 284.121ZM311.079 276.318V285.311H309.766V276.318H311.079ZM315.752 285.447C315.088 285.447 314.515 285.305 314.035 285.021C313.558 284.734 313.189 284.332 312.928 283.814C312.671 283.292 312.542 282.682 312.542 281.982C312.542 281.291 312.671 280.683 312.928 280.156C313.189 279.629 313.552 279.217 314.017 278.922C314.486 278.626 315.033 278.478 315.66 278.478C316.04 278.478 316.409 278.541 316.766 278.667C317.124 278.793 317.444 278.99 317.728 279.26C318.012 279.529 318.236 279.879 318.4 280.309C318.564 280.737 318.646 281.256 318.646 281.868V282.334H313.284V281.35H317.359C317.359 281.005 317.289 280.699 317.149 280.432C317.008 280.163 316.81 279.951 316.556 279.795C316.304 279.64 316.008 279.563 315.669 279.563C315.3 279.563 314.978 279.654 314.703 279.835C314.43 280.014 314.219 280.248 314.07 280.538C313.924 280.825 313.851 281.136 313.851 281.473V282.241C313.851 282.692 313.93 283.076 314.088 283.392C314.249 283.708 314.473 283.95 314.76 284.117C315.047 284.281 315.382 284.363 315.765 284.363C316.014 284.363 316.241 284.327 316.446 284.257C316.651 284.184 316.828 284.076 316.977 283.932C317.127 283.789 317.241 283.612 317.32 283.401L318.563 283.625C318.463 283.991 318.284 284.311 318.027 284.586C317.772 284.859 317.452 285.071 317.065 285.223C316.682 285.373 316.244 285.447 315.752 285.447Z" fill="#134061"/>
</g>
<rect x="105.774" y="35.4924" width="287.952" height="276.175" rx="8.34423" stroke="#2680C2" stroke-width="0.88329"/>
</g>
<defs>
<filter id="filter0_dd_1232_75416" x="94.2126" y="35.0508" width="311.075" height="299.298" filterUnits="userSpaceOnUse" color-interpolation-filters="sRGB">
<feFlood flood-opacity="0" result="BackgroundImageFix"/>
<feColorMatrix in="SourceAlpha" type="matrix" values="0 0 0 0 0 0 0 0 0 0 0 0 0 0 0 0 0 0 127 0" result="hardAlpha"/>
<feMorphology radius="1.85327" operator="erode" in="SourceAlpha" result="effect1_dropShadow_1232_75416"/>
<feOffset dy="3.70654"/>
<feGaussianBlur stdDeviation="2.77991"/>
<feComposite in2="hardAlpha" operator="out"/>
<feColorMatrix type="matrix" values="0 0 0 0 0 0 0 0 0 0 0 0 0 0 0 0 0 0 0.03 0"/>
<feBlend mode="normal" in2="BackgroundImageFix" result="effect1_dropShadow_1232_75416"/>
<feColorMatrix in="SourceAlpha" type="matrix" values="0 0 0 0 0 0 0 0 0 0 0 0 0 0 0 0 0 0 127 0" result="hardAlpha"/>
<feMorphology radius="3.70654" operator="erode" in="SourceAlpha" result="effect2_dropShadow_1232_75416"/>
<feOffset dy="11.1196"/>
<feGaussianBlur stdDeviation="7.41308"/>
<feComposite in2="hardAlpha" operator="out"/>
<feColorMatrix type="matrix" values="0 0 0 0 0 0 0 0 0 0 0 0 0 0 0 0 0 0 0.08 0"/>
<feBlend mode="normal" in2="effect1_dropShadow_1232_75416" result="effect2_dropShadow_1232_75416"/>
<feBlend mode="normal" in="SourceGraphic" in2="effect2_dropShadow_1232_75416" result="shape"/>
</filter>
<clipPath id="clip0_1232_75416">
<rect x="105.332" y="35.0508" width="288.836" height="277.059" rx="8.78588" fill="white"/>
</clipPath>
</defs>
</svg>
