<svg width="500" height="348" viewBox="0 0 500 348" fill="none" xmlns="http://www.w3.org/2000/svg">
<g filter="url(#filter0_dd_1232_76984)">
<rect x="145.504" y="69.334" width="208.492" height="208.492" rx="30.3138" fill="white"/>
<rect x="146.004" y="69.834" width="207.492" height="207.492" rx="29.8138" stroke="#6EAAD6"/>
<path d="M249.151 113.84C248.851 113.834 248.559 113.938 248.329 114.132C248.099 114.325 247.947 114.595 247.902 114.892C247.902 114.892 247.385 118.312 244.409 121.835C241.433 125.357 236.063 128.949 225.918 128.949C221.676 128.949 218.754 128.384 216.916 127.838C215.078 127.293 214.422 126.834 214.422 126.834C214.235 126.709 214.018 126.638 213.793 126.627C213.569 126.616 213.346 126.666 213.147 126.772C212.949 126.879 212.784 127.036 212.668 127.229C212.553 127.422 212.491 127.643 212.491 127.867V172.211H200.072C199.743 172.211 199.427 172.342 199.194 172.575C198.961 172.808 198.83 173.124 198.83 173.453V179.775C197.396 180.024 196.237 180.696 195.417 181.618C194.372 182.794 193.862 184.338 193.862 185.873C193.862 187.408 194.372 188.952 195.417 190.127C196.462 191.303 198.054 192.083 200.072 192.083C202.09 192.083 203.682 191.303 204.727 190.127C205.772 188.952 206.282 187.408 206.282 185.873C206.282 184.338 205.772 182.794 204.727 181.618C203.907 180.696 202.747 180.024 201.314 179.775V174.695H212.491V175.522C212.491 179.912 214.92 184.018 218.354 187.711C220.268 189.769 222.524 191.7 224.911 193.509V199.534H214.854C214.651 198.432 214.182 197.379 213.42 196.522C212.375 195.346 210.784 194.566 208.766 194.566C206.747 194.566 205.156 195.346 204.111 196.522C203.065 197.698 202.556 199.241 202.556 200.776C202.556 202.311 203.065 203.855 204.111 205.031C205.156 206.207 206.747 206.986 208.766 206.986C210.784 206.986 212.375 206.207 213.42 205.031C214.182 204.174 214.651 203.12 214.854 202.018H226.153C226.482 202.018 226.798 201.887 227.031 201.654C227.264 201.422 227.395 201.106 227.395 200.776V195.335C228.508 196.11 229.638 196.854 230.767 197.567C233.002 198.98 235.237 200.269 237.33 201.407V213.196H227.274C227.071 212.094 226.602 211.04 225.84 210.183C224.795 209.007 223.203 208.228 221.185 208.228C219.167 208.228 217.575 209.007 216.53 210.183C215.485 211.359 214.975 212.903 214.975 214.438C214.975 215.973 215.485 217.516 216.53 218.692C217.575 219.868 219.167 220.648 221.185 220.648C223.203 220.648 224.795 219.868 225.84 218.692C226.602 217.835 227.071 216.782 227.274 215.68H238.572C238.902 215.68 239.218 215.549 239.451 215.316C239.683 215.083 239.814 214.767 239.814 214.438V202.717C244.89 205.339 248.658 206.894 248.658 206.894C248.96 207.017 249.298 207.017 249.6 206.894C249.6 206.894 253.368 205.339 258.444 202.717V214.438C258.444 214.767 258.575 215.083 258.807 215.316C259.04 215.549 259.356 215.68 259.686 215.68H270.985C271.187 216.782 271.656 217.835 272.418 218.692C273.463 219.868 275.055 220.648 277.073 220.648C279.091 220.648 280.683 219.868 281.728 218.692C282.773 217.516 283.283 215.973 283.283 214.438C283.283 212.903 282.773 211.359 281.728 210.183C280.683 209.007 279.091 208.228 277.073 208.228C275.055 208.228 273.463 209.007 272.418 210.183C271.656 211.04 271.187 212.094 270.985 213.196H260.928V201.407C263.021 200.269 265.256 198.98 267.492 197.567C268.62 196.854 269.75 196.11 270.863 195.335V200.776C270.863 201.106 270.994 201.422 271.227 201.654C271.46 201.887 271.776 202.018 272.105 202.018H283.404C283.607 203.12 284.076 204.174 284.838 205.031C285.883 206.207 287.474 206.986 289.493 206.986C291.511 206.986 293.102 206.207 294.147 205.031C295.193 203.855 295.702 202.311 295.702 200.776C295.702 199.241 295.193 197.698 294.147 196.522C293.102 195.346 291.511 194.566 289.493 194.566C287.474 194.566 285.883 195.346 284.838 196.522C284.076 197.379 283.607 198.432 283.404 199.534H273.347V193.509C275.734 191.7 277.991 189.769 279.904 187.711C283.338 184.018 285.767 179.912 285.767 175.522V174.695H296.944V179.775C295.511 180.024 294.351 180.696 293.531 181.618C292.486 182.794 291.976 184.338 291.976 185.873C291.976 187.408 292.486 188.952 293.531 190.127C294.577 191.303 296.168 192.083 298.186 192.083C300.204 192.083 301.796 191.303 302.841 190.127C303.886 188.952 304.396 187.408 304.396 185.873C304.396 184.338 303.886 182.794 302.841 181.618C302.021 180.696 300.862 180.024 299.428 179.775V173.453C299.428 173.124 299.297 172.808 299.064 172.575C298.831 172.342 298.516 172.211 298.186 172.211H285.767V127.867C285.767 127.643 285.706 127.422 285.59 127.229C285.475 127.036 285.309 126.879 285.111 126.772C284.912 126.666 284.689 126.616 284.465 126.627C284.24 126.638 284.023 126.709 283.836 126.834C283.836 126.834 283.18 127.293 281.342 127.838C279.504 128.384 276.582 128.949 272.34 128.949C262.195 128.949 256.825 125.357 253.849 121.835C250.874 118.312 250.356 114.892 250.356 114.892C250.312 114.603 250.166 114.338 249.946 114.146C249.725 113.953 249.444 113.845 249.151 113.84ZM249.129 118.863C249.743 120.243 250.581 121.815 251.953 123.438C255.359 127.471 261.596 131.433 272.34 131.433C276.803 131.433 279.969 130.837 282.048 130.22C282.859 129.98 282.78 129.926 283.283 129.706V175.522C283.283 178.978 281.287 182.574 278.084 186.018C274.882 189.462 270.531 192.707 266.162 195.469C257.799 200.755 249.834 204.088 249.129 204.381C248.424 204.088 240.459 200.755 232.096 195.469C227.727 192.707 223.376 189.462 220.174 186.018C216.971 182.574 214.975 178.978 214.975 175.522V129.706C215.479 129.926 215.399 129.98 216.21 130.22C218.289 130.837 221.455 131.433 225.918 131.433C236.662 131.433 242.899 127.471 246.306 123.438C247.677 121.815 248.515 120.243 249.129 118.863ZM249.119 126.249C248.965 126.252 248.818 126.312 248.705 126.417C248.592 126.522 248.523 126.666 248.51 126.819C248.51 126.819 248.254 129.49 245.874 132.234C243.493 134.977 238.997 137.781 230.277 137.781C230.276 137.781 230.275 137.781 230.274 137.781C226.981 137.79 223.741 136.951 220.867 135.343C220.773 135.29 220.666 135.263 220.558 135.264C220.45 135.265 220.344 135.295 220.25 135.349C220.157 135.404 220.08 135.482 220.026 135.576C219.972 135.67 219.943 135.776 219.943 135.884V140.542C219.942 140.624 219.957 140.706 219.988 140.782C220.019 140.858 220.064 140.928 220.122 140.986C220.18 141.045 220.249 141.091 220.324 141.123C220.4 141.155 220.482 141.171 220.564 141.171C220.646 141.171 220.728 141.155 220.804 141.123C220.88 141.091 220.949 141.045 221.006 140.986C221.064 140.928 221.11 140.858 221.14 140.782C221.171 140.706 221.186 140.624 221.185 140.542V136.796C224.018 138.203 227.107 139.032 230.279 139.023C239.267 139.022 244.194 136.066 246.813 133.049C249.431 130.031 249.748 126.941 249.748 126.941C249.758 126.853 249.749 126.764 249.722 126.68C249.694 126.595 249.65 126.518 249.59 126.453C249.531 126.387 249.458 126.335 249.377 126.3C249.296 126.265 249.208 126.248 249.119 126.249ZM252.537 132.772C252.413 132.772 252.293 132.809 252.19 132.878C252.087 132.947 252.008 133.046 251.962 133.16C251.915 133.275 251.904 133.401 251.93 133.522C251.955 133.643 252.016 133.753 252.105 133.839C254.868 136.601 259.708 139.023 267.981 139.023C271.153 139.031 274.241 138.203 277.073 136.796V147.993C277.072 148.076 277.087 148.157 277.118 148.234C277.148 148.31 277.194 148.379 277.252 148.438C277.31 148.497 277.378 148.543 277.454 148.575C277.53 148.607 277.612 148.623 277.694 148.623C277.776 148.623 277.858 148.607 277.934 148.575C278.01 148.543 278.078 148.497 278.136 148.438C278.194 148.379 278.24 148.31 278.27 148.234C278.301 148.157 278.316 148.076 278.315 147.993V135.884C278.315 135.776 278.286 135.67 278.232 135.576C278.178 135.482 278.101 135.404 278.008 135.349C277.914 135.295 277.808 135.265 277.7 135.264C277.592 135.263 277.485 135.29 277.391 135.343C274.517 136.951 271.277 137.79 267.984 137.781C267.983 137.781 267.982 137.781 267.981 137.781C259.948 137.781 255.493 135.47 252.983 132.961C252.926 132.901 252.856 132.854 252.78 132.821C252.703 132.789 252.62 132.772 252.537 132.772ZM249.723 151.064C247.401 151.064 245.656 152.543 244.988 154.383C244.372 156.079 244.788 158.077 246.235 159.554L242.939 172.682C242.916 172.773 242.914 172.869 242.934 172.961C242.953 173.053 242.994 173.14 243.052 173.214C243.109 173.289 243.184 173.349 243.268 173.39C243.353 173.432 243.446 173.453 243.54 173.453H255.909C256.003 173.453 256.096 173.432 256.181 173.39C256.265 173.349 256.34 173.289 256.398 173.214C256.456 173.14 256.496 173.053 256.515 172.961C256.535 172.869 256.533 172.773 256.51 172.682L253.214 159.554C254.661 158.077 255.077 156.079 254.461 154.383C253.793 152.543 252.045 151.064 249.723 151.064ZM249.723 152.306C251.528 152.306 252.783 153.406 253.292 154.807C253.8 156.208 253.543 157.855 252.159 159.013C252.069 159.088 252.002 159.187 251.966 159.298C251.93 159.409 251.926 159.528 251.955 159.641L255.111 172.211H244.336L247.492 159.641C247.52 159.528 247.516 159.409 247.48 159.298C247.444 159.187 247.378 159.088 247.288 159.013C245.903 157.855 245.646 156.208 246.155 154.807C246.664 153.406 247.919 152.306 249.723 152.306ZM220.554 154.814C220.473 154.816 220.392 154.833 220.318 154.865C220.243 154.898 220.175 154.944 220.118 155.003C220.061 155.062 220.017 155.131 219.987 155.207C219.957 155.282 219.942 155.363 219.943 155.445V156.687C219.942 156.769 219.957 156.851 219.988 156.927C220.019 157.004 220.064 157.073 220.122 157.132C220.18 157.19 220.249 157.237 220.324 157.269C220.4 157.3 220.482 157.317 220.564 157.317C220.646 157.317 220.728 157.3 220.804 157.269C220.88 157.237 220.949 157.19 221.006 157.132C221.064 157.073 221.11 157.004 221.14 156.927C221.171 156.851 221.186 156.769 221.185 156.687V155.445C221.186 155.362 221.171 155.279 221.14 155.202C221.109 155.125 221.062 155.055 221.003 154.996C220.944 154.937 220.874 154.891 220.797 154.86C220.72 154.828 220.638 154.813 220.554 154.814ZM220.554 158.54C220.473 158.541 220.392 158.559 220.318 158.591C220.243 158.624 220.175 158.67 220.118 158.729C220.061 158.787 220.017 158.857 219.987 158.932C219.957 159.008 219.942 159.089 219.943 159.171V161.655C219.942 161.737 219.957 161.819 219.988 161.895C220.019 161.971 220.064 162.041 220.122 162.1C220.18 162.158 220.249 162.205 220.324 162.236C220.4 162.268 220.482 162.285 220.564 162.285C220.646 162.285 220.728 162.268 220.804 162.236C220.88 162.205 220.949 162.158 221.006 162.1C221.064 162.041 221.11 161.971 221.14 161.895C221.171 161.819 221.186 161.737 221.185 161.655V159.171C221.186 159.088 221.171 159.005 221.14 158.928C221.109 158.851 221.062 158.781 221.003 158.722C220.944 158.663 220.874 158.617 220.797 158.586C220.72 158.554 220.638 158.539 220.554 158.54ZM220.554 163.508C220.473 163.509 220.392 163.527 220.318 163.559C220.243 163.591 220.175 163.638 220.118 163.697C220.061 163.755 220.017 163.824 219.987 163.9C219.957 163.976 219.942 164.057 219.943 164.139V175.85C219.943 177.815 221.03 179.864 222.764 181.963C224.499 184.061 226.913 186.218 229.716 188.332C235.323 192.561 242.492 196.614 248.874 199.481C248.949 199.514 249.029 199.533 249.111 199.535C249.193 199.538 249.274 199.524 249.35 199.495C249.427 199.466 249.497 199.422 249.556 199.366C249.615 199.31 249.663 199.243 249.697 199.168C249.73 199.094 249.749 199.013 249.751 198.931C249.753 198.85 249.74 198.768 249.711 198.692C249.681 198.616 249.638 198.546 249.582 198.486C249.526 198.427 249.458 198.379 249.384 198.346C243.083 195.515 235.968 191.492 230.463 187.34C227.711 185.265 225.362 183.155 223.722 181.172C222.083 179.188 221.185 177.339 221.185 175.85V164.139C221.186 164.055 221.171 163.973 221.14 163.896C221.109 163.819 221.062 163.749 221.003 163.69C220.944 163.631 220.874 163.585 220.797 163.553C220.72 163.522 220.638 163.507 220.554 163.508ZM277.684 163.508C277.603 163.509 277.522 163.527 277.447 163.559C277.372 163.591 277.305 163.638 277.248 163.697C277.191 163.755 277.147 163.824 277.117 163.9C277.087 163.976 277.072 164.057 277.073 164.139V175.85C277.073 178.393 274.351 181.959 270.099 185.511C265.847 189.064 260.163 192.646 254.555 195.58C254.483 195.618 254.419 195.67 254.366 195.732C254.314 195.795 254.275 195.867 254.25 195.945C254.226 196.023 254.217 196.105 254.224 196.186C254.231 196.267 254.254 196.346 254.292 196.419C254.33 196.491 254.381 196.555 254.444 196.607C254.507 196.66 254.579 196.699 254.657 196.724C254.734 196.748 254.816 196.757 254.898 196.75C254.979 196.743 255.058 196.719 255.13 196.682C260.8 193.715 266.54 190.103 270.895 186.465C275.249 182.827 278.315 179.205 278.315 175.85V164.139C278.316 164.055 278.301 163.973 278.27 163.896C278.238 163.819 278.192 163.749 278.133 163.69C278.074 163.631 278.004 163.585 277.927 163.553C277.85 163.522 277.767 163.507 277.684 163.508ZM200.072 180.905C201.78 180.905 202.983 181.523 203.8 182.443C204.618 183.363 205.04 184.614 205.04 185.873C205.04 187.132 204.618 188.383 203.8 189.303C202.983 190.223 201.78 190.841 200.072 190.841C198.364 190.841 197.161 190.223 196.344 189.303C195.526 188.383 195.104 187.132 195.104 185.873C195.104 184.614 195.526 183.363 196.344 182.443C197.161 181.523 198.364 180.905 200.072 180.905ZM298.186 180.905C299.894 180.905 301.097 181.523 301.914 182.443C302.732 183.363 303.154 184.614 303.154 185.873C303.154 187.132 302.732 188.383 301.914 189.303C301.097 190.223 299.894 190.841 298.186 190.841C296.479 190.841 295.276 190.223 294.458 189.303C293.64 188.383 293.218 187.132 293.218 185.873C293.218 184.614 293.64 183.363 294.458 182.443C295.276 181.523 296.479 180.905 298.186 180.905ZM208.766 195.808C210.473 195.808 211.676 196.426 212.494 197.346C213.312 198.266 213.733 199.517 213.733 200.776C213.733 202.035 213.312 203.286 212.494 204.206C211.676 205.126 210.473 205.744 208.766 205.744C207.058 205.744 205.855 205.126 205.037 204.206C204.22 203.286 203.798 202.035 203.798 200.776C203.798 199.517 204.22 198.266 205.037 197.346C205.855 196.426 207.058 195.808 208.766 195.808ZM289.493 195.808C291.2 195.808 292.403 196.426 293.221 197.346C294.038 198.266 294.46 199.517 294.46 200.776C294.46 202.035 294.038 203.286 293.221 204.206C292.403 205.126 291.2 205.744 289.493 205.744C287.785 205.744 286.582 205.126 285.764 204.206C284.947 203.286 284.525 202.035 284.525 200.776C284.525 199.517 284.947 198.266 285.764 197.346C286.582 196.426 287.785 195.808 289.493 195.808ZM221.185 209.47C222.893 209.47 224.096 210.088 224.913 211.008C225.731 211.928 226.153 213.179 226.153 214.438C226.153 215.697 225.731 216.948 224.913 217.868C224.096 218.788 222.893 219.406 221.185 219.406C219.477 219.406 218.274 218.788 217.457 217.868C216.639 216.948 216.217 215.697 216.217 214.438C216.217 213.179 216.639 211.928 217.457 211.008C218.274 210.088 219.477 209.47 221.185 209.47ZM277.073 209.47C278.781 209.47 279.984 210.088 280.801 211.008C281.619 211.928 282.041 213.179 282.041 214.438C282.041 215.697 281.619 216.948 280.801 217.868C279.984 218.788 278.781 219.406 277.073 219.406C275.365 219.406 274.162 218.788 273.345 217.868C272.527 216.948 272.105 215.697 272.105 214.438C272.105 213.179 272.527 211.928 273.345 211.008C274.162 210.088 275.365 209.47 277.073 209.47Z" fill="#134061"/>
</g>
<defs>
<filter id="filter0_dd_1232_76984" x="122.769" y="61.7555" width="253.963" height="253.963" filterUnits="userSpaceOnUse" color-interpolation-filters="sRGB">
<feFlood flood-opacity="0" result="BackgroundImageFix"/>
<feColorMatrix in="SourceAlpha" type="matrix" values="0 0 0 0 0 0 0 0 0 0 0 0 0 0 0 0 0 0 127 0" result="hardAlpha"/>
<feMorphology radius="7.57846" operator="erode" in="SourceAlpha" result="effect1_dropShadow_1232_76984"/>
<feOffset dy="7.57846"/>
<feGaussianBlur stdDeviation="7.57846"/>
<feComposite in2="hardAlpha" operator="out"/>
<feColorMatrix type="matrix" values="0 0 0 0 0 0 0 0 0 0 0 0 0 0 0 0 0 0 0.06 0"/>
<feBlend mode="normal" in2="BackgroundImageFix" result="effect1_dropShadow_1232_76984"/>
<feColorMatrix in="SourceAlpha" type="matrix" values="0 0 0 0 0 0 0 0 0 0 0 0 0 0 0 0 0 0 127 0" result="hardAlpha"/>
<feMorphology radius="7.57846" operator="erode" in="SourceAlpha" result="effect2_dropShadow_1232_76984"/>
<feOffset dy="15.1569"/>
<feGaussianBlur stdDeviation="15.1569"/>
<feComposite in2="hardAlpha" operator="out"/>
<feColorMatrix type="matrix" values="0 0 0 0 0 0 0 0 0 0 0 0 0 0 0 0 0 0 0.1 0"/>
<feBlend mode="normal" in2="effect1_dropShadow_1232_76984" result="effect2_dropShadow_1232_76984"/>
<feBlend mode="normal" in="SourceGraphic" in2="effect2_dropShadow_1232_76984" result="shape"/>
</filter>
</defs>
</svg>
