<svg width="501" height="348" viewBox="0 0 501 348" fill="none" xmlns="http://www.w3.org/2000/svg">
<g filter="url(#filter0_dd_1262_233496)">
<g clip-path="url(#clip0_1262_233496)">
<rect x="106.008" y="42.042" width="288.836" height="263.797" rx="8.78588" fill="white"/>
<path d="M250.101 66.0445C239.531 66.2181 230.992 74.861 230.992 85.4752V91.6582H230.108C227.192 91.6582 224.809 94.0417 224.809 96.958V115.507C224.809 123.302 231.147 129.64 238.941 129.64H261.907C269.701 129.64 276.039 123.302 276.039 115.507V96.958C276.039 94.0417 273.656 91.6582 270.74 91.6582H269.856V85.9203C269.856 75.4044 261.668 66.4299 251.131 66.0549C250.786 66.0426 250.442 66.0389 250.101 66.0445ZM250.131 67.8111C250.442 67.8061 250.755 67.8086 251.069 67.8197C260.636 68.1602 268.09 76.3201 268.09 85.9203V91.6582H263.673V85.4752C263.673 77.9565 257.376 71.8835 249.784 72.2414C242.648 72.5768 237.175 78.7129 237.175 85.8237V91.6582H232.758V85.4752C232.758 75.8062 240.496 67.9669 250.131 67.8111ZM249.867 74.0062C256.478 73.6946 261.907 78.939 261.907 85.4752V91.6582H238.941V85.8237C238.941 79.618 243.7 74.2961 249.867 74.0062ZM230.108 93.4248H270.74C272.701 93.4248 274.273 94.9967 274.273 96.958V99.6078H264.115C264.056 99.607 263.998 99.6178 263.944 99.6396C263.89 99.6615 263.84 99.6939 263.799 99.7349C263.757 99.776 263.724 99.825 263.701 99.879C263.679 99.933 263.667 99.9909 263.667 100.049C263.667 100.108 263.679 100.166 263.701 100.22C263.724 100.274 263.757 100.323 263.799 100.364C263.84 100.405 263.89 100.437 263.944 100.459C263.998 100.481 264.056 100.492 264.115 100.491H266.27L261.313 107.557H255.325L260.282 100.491H261.465C261.524 100.492 261.582 100.481 261.636 100.459C261.69 100.437 261.74 100.405 261.781 100.364C261.823 100.323 261.856 100.274 261.879 100.22C261.901 100.166 261.913 100.108 261.913 100.049C261.913 99.9909 261.901 99.933 261.879 99.879C261.856 99.825 261.823 99.776 261.781 99.7349C261.74 99.6939 261.69 99.6615 261.636 99.6396C261.582 99.6178 261.524 99.607 261.465 99.6078H257.049C256.99 99.607 256.932 99.6178 256.878 99.6396C256.823 99.6615 256.774 99.6939 256.732 99.7349C256.691 99.776 256.658 99.825 256.635 99.879C256.612 99.933 256.601 99.9909 256.601 100.049C256.601 100.108 256.612 100.166 256.635 100.22C256.658 100.274 256.691 100.323 256.732 100.364C256.774 100.405 256.823 100.437 256.878 100.459C256.932 100.481 256.99 100.492 257.049 100.491H259.203L254.247 107.557H248.259L253.215 100.491H254.399C254.457 100.492 254.515 100.481 254.57 100.459C254.624 100.437 254.673 100.405 254.715 100.364C254.757 100.323 254.79 100.274 254.813 100.22C254.835 100.166 254.847 100.108 254.847 100.049C254.847 99.9909 254.835 99.933 254.813 99.879C254.79 99.825 254.757 99.776 254.715 99.7349C254.673 99.6939 254.624 99.6615 254.57 99.6396C254.515 99.6178 254.457 99.607 254.399 99.6078H226.575V96.958C226.575 94.9967 228.147 93.4248 230.108 93.4248ZM226.575 100.491H230.938L226.575 106.71V100.491ZM232.016 100.491H238.004L233.048 107.557H227.06L232.016 100.491ZM239.083 100.491H245.071L240.114 107.557H234.126L239.083 100.491ZM246.149 100.491H252.137L247.181 107.557H241.193L246.149 100.491ZM267.348 100.491H273.336L268.38 107.557H262.392L267.348 100.491ZM274.273 100.693V107.557H269.458L274.273 100.693ZM226.575 108.441H274.273V115.507C274.273 122.347 268.747 127.873 261.907 127.873H238.941C232.101 127.873 226.575 122.347 226.575 115.507V108.441ZM250.424 111.974C248.966 111.974 247.774 113.165 247.774 114.624C247.774 115.322 248.085 115.93 248.53 116.404L246.905 122.908C246.888 122.973 246.887 123.041 246.901 123.107C246.915 123.172 246.944 123.234 246.985 123.287C247.026 123.339 247.079 123.382 247.139 123.412C247.199 123.441 247.265 123.457 247.332 123.457H253.516C253.583 123.457 253.649 123.441 253.709 123.412C253.769 123.382 253.822 123.339 253.863 123.287C253.904 123.234 253.933 123.172 253.947 123.107C253.961 123.041 253.96 122.973 253.943 122.908L252.318 116.404C252.763 115.93 253.074 115.322 253.074 114.624C253.074 113.165 251.882 111.974 250.424 111.974ZM250.424 112.857C251.405 112.857 252.191 113.642 252.191 114.624C252.191 115.171 251.945 115.654 251.557 115.978C251.494 116.031 251.446 116.102 251.421 116.181C251.395 116.26 251.392 116.344 251.413 116.425L252.95 122.573H247.898L249.435 116.425C249.456 116.344 249.453 116.26 249.427 116.181C249.402 116.102 249.354 116.031 249.291 115.978C248.903 115.654 248.657 115.171 248.657 114.624C248.657 113.642 249.443 112.857 250.424 112.857Z" fill="#134061"/>
<path d="M165.074 171.64V160.003H169.437C170.331 160.003 171.081 160.17 171.687 160.503C172.297 160.837 172.757 161.295 173.068 161.878C173.382 162.458 173.539 163.117 173.539 163.856C173.539 164.602 173.382 165.265 173.068 165.844C172.753 166.424 172.289 166.88 171.676 167.214C171.062 167.543 170.306 167.708 169.409 167.708H166.517V165.975H169.125C169.647 165.975 170.075 165.884 170.409 165.702C170.742 165.52 170.988 165.27 171.147 164.952C171.31 164.634 171.392 164.268 171.392 163.856C171.392 163.443 171.31 163.079 171.147 162.765C170.988 162.45 170.74 162.206 170.403 162.032C170.07 161.854 169.64 161.765 169.113 161.765H167.181V171.64H165.074ZM177.336 160.003V171.64H175.279V160.003H177.336ZM183.315 171.81C182.44 171.81 181.684 171.628 181.048 171.265C180.415 170.897 179.929 170.378 179.588 169.708C179.247 169.034 179.076 168.24 179.076 167.327C179.076 166.429 179.247 165.642 179.588 164.964C179.932 164.282 180.413 163.751 181.031 163.373C181.648 162.99 182.374 162.799 183.207 162.799C183.745 162.799 184.252 162.886 184.73 163.06C185.211 163.231 185.635 163.496 186.002 163.856C186.374 164.215 186.665 164.674 186.877 165.231C187.09 165.784 187.196 166.443 187.196 167.208V167.839H180.042V166.452H185.224C185.22 166.058 185.135 165.708 184.968 165.401C184.802 165.09 184.569 164.846 184.27 164.668C183.974 164.49 183.629 164.401 183.235 164.401C182.815 164.401 182.446 164.503 182.127 164.708C181.809 164.909 181.561 165.174 181.383 165.503C181.209 165.829 181.12 166.187 181.116 166.577V167.787C181.116 168.295 181.209 168.731 181.395 169.094C181.58 169.454 181.84 169.731 182.173 169.924C182.506 170.113 182.896 170.208 183.343 170.208C183.643 170.208 183.913 170.166 184.156 170.083C184.398 169.996 184.609 169.869 184.787 169.702C184.965 169.535 185.099 169.329 185.19 169.083L187.11 169.299C186.989 169.806 186.758 170.249 186.417 170.628C186.08 171.003 185.648 171.295 185.122 171.503C184.595 171.708 183.993 171.81 183.315 171.81ZM191.447 171.816C190.894 171.816 190.396 171.717 189.953 171.52C189.513 171.32 189.165 171.024 188.907 170.634C188.654 170.244 188.527 169.763 188.527 169.191C188.527 168.698 188.618 168.291 188.799 167.969C188.981 167.647 189.229 167.39 189.544 167.196C189.858 167.003 190.212 166.857 190.606 166.759C191.004 166.657 191.415 166.583 191.839 166.537C192.35 166.484 192.765 166.437 193.083 166.395C193.402 166.35 193.633 166.282 193.777 166.191C193.924 166.096 193.998 165.95 193.998 165.753V165.719C193.998 165.291 193.871 164.96 193.618 164.725C193.364 164.49 192.998 164.373 192.521 164.373C192.017 164.373 191.618 164.482 191.322 164.702C191.03 164.922 190.833 165.181 190.731 165.481L188.811 165.208C188.962 164.678 189.212 164.234 189.561 163.878C189.909 163.518 190.335 163.249 190.839 163.071C191.343 162.89 191.9 162.799 192.51 162.799C192.93 162.799 193.349 162.848 193.765 162.946C194.182 163.045 194.563 163.208 194.907 163.435C195.252 163.659 195.529 163.964 195.737 164.35C195.949 164.736 196.055 165.219 196.055 165.799V171.64H194.078V170.441H194.01C193.885 170.683 193.708 170.91 193.481 171.123C193.258 171.331 192.975 171.499 192.635 171.628C192.297 171.753 191.902 171.816 191.447 171.816ZM191.981 170.304C192.394 170.304 192.752 170.223 193.055 170.06C193.358 169.893 193.591 169.674 193.754 169.401C193.921 169.128 194.004 168.831 194.004 168.509V167.481C193.94 167.534 193.83 167.583 193.674 167.628C193.523 167.674 193.352 167.714 193.163 167.748C192.974 167.782 192.786 167.812 192.6 167.839C192.415 167.865 192.254 167.888 192.118 167.907C191.811 167.948 191.536 168.017 191.294 168.111C191.051 168.206 190.86 168.339 190.72 168.509C190.58 168.676 190.51 168.892 190.51 169.157C190.51 169.535 190.648 169.821 190.924 170.015C191.201 170.208 191.553 170.304 191.981 170.304ZM205.021 165.219L203.146 165.424C203.093 165.234 203 165.056 202.868 164.89C202.739 164.723 202.565 164.589 202.345 164.486C202.125 164.384 201.856 164.333 201.538 164.333C201.11 164.333 200.75 164.426 200.458 164.611C200.171 164.797 200.029 165.037 200.032 165.333C200.029 165.587 200.121 165.793 200.311 165.952C200.504 166.111 200.822 166.242 201.265 166.344L202.754 166.662C203.58 166.84 204.193 167.123 204.595 167.509C205 167.895 205.205 168.401 205.208 169.026C205.205 169.575 205.044 170.06 204.725 170.481C204.411 170.897 203.974 171.223 203.413 171.458C202.852 171.693 202.208 171.81 201.481 171.81C200.413 171.81 199.553 171.587 198.902 171.14C198.25 170.689 197.862 170.062 197.737 169.259L199.743 169.066C199.833 169.46 200.027 169.757 200.322 169.958C200.618 170.159 201.002 170.259 201.475 170.259C201.964 170.259 202.356 170.159 202.652 169.958C202.951 169.757 203.1 169.509 203.1 169.214C203.1 168.964 203.004 168.757 202.811 168.594C202.621 168.431 202.326 168.306 201.924 168.219L200.436 167.907C199.599 167.732 198.979 167.439 198.578 167.026C198.176 166.609 197.977 166.083 197.981 165.446C197.977 164.909 198.123 164.443 198.419 164.049C198.718 163.651 199.133 163.344 199.663 163.128C200.197 162.909 200.813 162.799 201.51 162.799C202.532 162.799 203.337 163.017 203.924 163.452C204.515 163.888 204.881 164.477 205.021 165.219ZM210.768 171.81C209.893 171.81 209.137 171.628 208.501 171.265C207.868 170.897 207.382 170.378 207.041 169.708C206.7 169.034 206.529 168.24 206.529 167.327C206.529 166.429 206.7 165.642 207.041 164.964C207.386 164.282 207.867 163.751 208.484 163.373C209.101 162.99 209.827 162.799 210.66 162.799C211.198 162.799 211.706 162.886 212.183 163.06C212.664 163.231 213.088 163.496 213.456 163.856C213.827 164.215 214.118 164.674 214.331 165.231C214.543 165.784 214.649 166.443 214.649 167.208V167.839H207.495V166.452H212.677C212.673 166.058 212.588 165.708 212.422 165.401C212.255 165.09 212.022 164.846 211.723 164.668C211.427 164.49 211.083 164.401 210.689 164.401C210.268 164.401 209.899 164.503 209.581 164.708C209.262 164.909 209.014 165.174 208.836 165.503C208.662 165.829 208.573 166.187 208.569 166.577V167.787C208.569 168.295 208.662 168.731 208.848 169.094C209.033 169.454 209.293 169.731 209.626 169.924C209.959 170.113 210.35 170.208 210.797 170.208C211.096 170.208 211.367 170.166 211.609 170.083C211.851 169.996 212.062 169.869 212.24 169.702C212.418 169.535 212.552 169.329 212.643 169.083L214.564 169.299C214.442 169.806 214.211 170.249 213.87 170.628C213.533 171.003 213.101 171.295 212.575 171.503C212.048 171.708 211.446 171.81 210.768 171.81ZM224.221 171.81C223.346 171.81 222.591 171.628 221.954 171.265C221.322 170.897 220.835 170.378 220.494 169.708C220.153 169.034 219.983 168.24 219.983 167.327C219.983 166.429 220.153 165.642 220.494 164.964C220.839 164.282 221.32 163.751 221.937 163.373C222.555 162.99 223.28 162.799 224.113 162.799C224.651 162.799 225.159 162.886 225.636 163.06C226.117 163.231 226.541 163.496 226.909 163.856C227.28 164.215 227.572 164.674 227.784 165.231C227.996 165.784 228.102 166.443 228.102 167.208V167.839H220.949V166.452H226.13C226.127 166.058 226.041 165.708 225.875 165.401C225.708 165.09 225.475 164.846 225.176 164.668C224.88 164.49 224.536 164.401 224.142 164.401C223.721 164.401 223.352 164.503 223.034 164.708C222.716 164.909 222.467 165.174 222.289 165.503C222.115 165.829 222.026 166.187 222.022 166.577V167.787C222.022 168.295 222.115 168.731 222.301 169.094C222.486 169.454 222.746 169.731 223.079 169.924C223.413 170.113 223.803 170.208 224.25 170.208C224.549 170.208 224.82 170.166 225.062 170.083C225.305 169.996 225.515 169.869 225.693 169.702C225.871 169.535 226.005 169.329 226.096 169.083L228.017 169.299C227.895 169.806 227.664 170.249 227.324 170.628C226.986 171.003 226.555 171.295 226.028 171.503C225.502 171.708 224.899 171.81 224.221 171.81ZM231.899 166.526V171.64H229.842V162.912H231.808V164.395H231.91C232.111 163.907 232.431 163.518 232.87 163.231C233.314 162.943 233.861 162.799 234.512 162.799C235.115 162.799 235.639 162.928 236.086 163.185C236.537 163.443 236.886 163.816 237.132 164.304C237.382 164.793 237.505 165.386 237.501 166.083V171.64H235.444V166.401C235.444 165.818 235.293 165.361 234.99 165.032C234.69 164.702 234.276 164.537 233.745 164.537C233.386 164.537 233.065 164.617 232.785 164.776C232.509 164.931 232.291 165.157 232.132 165.452C231.976 165.748 231.899 166.106 231.899 166.526ZM243.95 162.912V164.503H238.933V162.912H243.95ZM240.172 160.821H242.228V169.015C242.228 169.291 242.27 169.503 242.353 169.651C242.44 169.795 242.554 169.893 242.694 169.946C242.834 169.999 242.99 170.026 243.16 170.026C243.289 170.026 243.406 170.017 243.512 169.998C243.622 169.979 243.706 169.962 243.762 169.946L244.109 171.554C243.999 171.592 243.842 171.634 243.637 171.679C243.437 171.725 243.19 171.751 242.899 171.759C242.384 171.774 241.92 171.696 241.507 171.526C241.094 171.352 240.766 171.083 240.524 170.719C240.285 170.356 240.168 169.901 240.172 169.356V160.821ZM249.44 171.81C248.565 171.81 247.809 171.628 247.173 171.265C246.54 170.897 246.054 170.378 245.713 169.708C245.372 169.034 245.201 168.24 245.201 167.327C245.201 166.429 245.372 165.642 245.713 164.964C246.057 164.282 246.538 163.751 247.156 163.373C247.773 162.99 248.499 162.799 249.332 162.799C249.87 162.799 250.377 162.886 250.855 163.06C251.336 163.231 251.76 163.496 252.127 163.856C252.499 164.215 252.79 164.674 253.002 165.231C253.215 165.784 253.321 166.443 253.321 167.208V167.839H246.167V166.452H251.349C251.345 166.058 251.26 165.708 251.093 165.401C250.927 165.09 250.694 164.846 250.395 164.668C250.099 164.49 249.754 164.401 249.36 164.401C248.94 164.401 248.571 164.503 248.252 164.708C247.934 164.909 247.686 165.174 247.508 165.503C247.334 165.829 247.245 166.187 247.241 166.577V167.787C247.241 168.295 247.334 168.731 247.52 169.094C247.705 169.454 247.965 169.731 248.298 169.924C248.631 170.113 249.021 170.208 249.468 170.208C249.768 170.208 250.038 170.166 250.281 170.083C250.523 169.996 250.734 169.869 250.912 169.702C251.09 169.535 251.224 169.329 251.315 169.083L253.235 169.299C253.114 169.806 252.883 170.249 252.542 170.628C252.205 171.003 251.773 171.295 251.247 171.503C250.72 171.708 250.118 171.81 249.44 171.81ZM255.061 171.64V162.912H257.055V164.367H257.146C257.305 163.863 257.578 163.475 257.964 163.202C258.354 162.926 258.799 162.787 259.299 162.787C259.413 162.787 259.54 162.793 259.68 162.804C259.824 162.812 259.943 162.825 260.038 162.844V164.736C259.951 164.706 259.813 164.679 259.623 164.657C259.438 164.63 259.258 164.617 259.083 164.617C258.708 164.617 258.371 164.698 258.072 164.861C257.777 165.02 257.544 165.242 257.373 165.526C257.203 165.81 257.118 166.138 257.118 166.509V171.64H255.061ZM265.35 171.64V170.117L269.39 166.157C269.777 165.767 270.099 165.42 270.356 165.117C270.614 164.814 270.807 164.52 270.936 164.236C271.065 163.952 271.129 163.649 271.129 163.327C271.129 162.96 271.046 162.645 270.879 162.384C270.712 162.119 270.483 161.914 270.191 161.77C269.9 161.626 269.568 161.554 269.197 161.554C268.815 161.554 268.479 161.634 268.191 161.793C267.904 161.948 267.68 162.17 267.521 162.458C267.366 162.746 267.288 163.089 267.288 163.486H265.282C265.282 162.748 265.451 162.106 265.788 161.56C266.125 161.015 266.589 160.592 267.18 160.293C267.775 159.994 268.457 159.844 269.225 159.844C270.006 159.844 270.691 159.99 271.282 160.282C271.873 160.573 272.332 160.973 272.657 161.481C272.987 161.988 273.152 162.568 273.152 163.219C273.152 163.655 273.068 164.083 272.902 164.503C272.735 164.924 272.441 165.39 272.021 165.901C271.604 166.412 271.019 167.032 270.265 167.759L268.26 169.799V169.878H273.328V171.64H265.35ZM275.402 171.64V160.003H282.856V161.77H277.51V164.929H282.345V166.696H277.51V171.64H275.402ZM284.818 171.64H282.568L286.664 160.003H289.267L293.369 171.64H291.119L288.011 162.39H287.92L284.818 171.64ZM284.892 167.077H291.028V168.77H284.892V167.077ZM302.586 171.81C301.715 171.81 300.967 171.619 300.342 171.236C299.721 170.854 299.242 170.325 298.904 169.651C298.571 168.973 298.404 168.193 298.404 167.31C298.404 166.424 298.575 165.642 298.916 164.964C299.257 164.282 299.738 163.751 300.359 163.373C300.984 162.99 301.723 162.799 302.575 162.799C303.283 162.799 303.91 162.929 304.456 163.191C305.005 163.448 305.442 163.814 305.768 164.287C306.094 164.757 306.279 165.306 306.325 165.935H304.359C304.279 165.515 304.09 165.164 303.791 164.884C303.495 164.6 303.1 164.458 302.603 164.458C302.183 164.458 301.814 164.571 301.495 164.799C301.177 165.022 300.929 165.344 300.751 165.765C300.577 166.185 300.49 166.689 300.49 167.276C300.49 167.871 300.577 168.382 300.751 168.81C300.925 169.234 301.17 169.562 301.484 169.793C301.802 170.02 302.175 170.134 302.603 170.134C302.906 170.134 303.177 170.077 303.416 169.964C303.658 169.846 303.861 169.678 304.024 169.458C304.187 169.238 304.298 168.971 304.359 168.657H306.325C306.276 169.274 306.094 169.821 305.779 170.299C305.465 170.772 305.037 171.143 304.495 171.412C303.954 171.678 303.317 171.81 302.586 171.81ZM311.821 171.81C310.968 171.81 310.23 171.623 309.605 171.248C308.98 170.873 308.495 170.348 308.15 169.674C307.809 168.999 307.639 168.212 307.639 167.31C307.639 166.409 307.809 165.619 308.15 164.941C308.495 164.263 308.98 163.736 309.605 163.361C310.23 162.986 310.968 162.799 311.821 162.799C312.673 162.799 313.412 162.986 314.037 163.361C314.662 163.736 315.145 164.263 315.485 164.941C315.83 165.619 316.002 166.409 316.002 167.31C316.002 168.212 315.83 168.999 315.485 169.674C315.145 170.348 314.662 170.873 314.037 171.248C313.412 171.623 312.673 171.81 311.821 171.81ZM311.832 170.162C312.294 170.162 312.681 170.035 312.991 169.782C313.302 169.524 313.533 169.179 313.684 168.748C313.84 168.316 313.917 167.835 313.917 167.304C313.917 166.77 313.84 166.287 313.684 165.856C313.533 165.42 313.302 165.073 312.991 164.816C312.681 164.558 312.294 164.429 311.832 164.429C311.359 164.429 310.965 164.558 310.65 164.816C310.34 165.073 310.107 165.42 309.951 165.856C309.8 166.287 309.724 166.77 309.724 167.304C309.724 167.835 309.8 168.316 309.951 168.748C310.107 169.179 310.34 169.524 310.65 169.782C310.965 170.035 311.359 170.162 311.832 170.162ZM320.987 171.793C320.301 171.793 319.688 171.617 319.146 171.265C318.604 170.912 318.176 170.401 317.862 169.731C317.547 169.06 317.39 168.246 317.39 167.287C317.39 166.318 317.549 165.499 317.868 164.833C318.19 164.162 318.623 163.657 319.169 163.316C319.714 162.971 320.322 162.799 320.993 162.799C321.504 162.799 321.924 162.886 322.254 163.06C322.583 163.231 322.845 163.437 323.038 163.679C323.231 163.918 323.381 164.143 323.487 164.356H323.572V160.003H325.635V171.64H323.612V170.265H323.487C323.381 170.477 323.227 170.702 323.027 170.941C322.826 171.176 322.561 171.376 322.231 171.543C321.902 171.71 321.487 171.793 320.987 171.793ZM321.561 170.106C321.996 170.106 322.368 169.988 322.674 169.753C322.981 169.515 323.214 169.183 323.373 168.759C323.532 168.335 323.612 167.84 323.612 167.276C323.612 166.712 323.532 166.221 323.373 165.804C323.218 165.388 322.987 165.064 322.68 164.833C322.377 164.602 322.004 164.486 321.561 164.486C321.102 164.486 320.72 164.606 320.413 164.844C320.106 165.083 319.875 165.412 319.72 165.833C319.565 166.253 319.487 166.734 319.487 167.276C319.487 167.821 319.565 168.308 319.72 168.736C319.879 169.16 320.112 169.496 320.419 169.742C320.729 169.984 321.11 170.106 321.561 170.106ZM331.69 171.81C330.815 171.81 330.059 171.628 329.423 171.265C328.79 170.897 328.304 170.378 327.963 169.708C327.622 169.034 327.451 168.24 327.451 167.327C327.451 166.429 327.622 165.642 327.963 164.964C328.307 164.282 328.788 163.751 329.406 163.373C330.023 162.99 330.749 162.799 331.582 162.799C332.12 162.799 332.627 162.886 333.105 163.06C333.586 163.231 334.01 163.496 334.377 163.856C334.749 164.215 335.04 164.674 335.252 165.231C335.465 165.784 335.571 166.443 335.571 167.208V167.839H328.417V166.452H333.599C333.595 166.058 333.51 165.708 333.343 165.401C333.177 165.09 332.944 164.846 332.645 164.668C332.349 164.49 332.004 164.401 331.61 164.401C331.19 164.401 330.821 164.503 330.502 164.708C330.184 164.909 329.936 165.174 329.758 165.503C329.584 165.829 329.495 166.187 329.491 166.577V167.787C329.491 168.295 329.584 168.731 329.77 169.094C329.955 169.454 330.215 169.731 330.548 169.924C330.881 170.113 331.271 170.208 331.718 170.208C332.018 170.208 332.288 170.166 332.531 170.083C332.773 169.996 332.984 169.869 333.162 169.702C333.34 169.535 333.474 169.329 333.565 169.083L335.485 169.299C335.364 169.806 335.133 170.249 334.792 170.628C334.455 171.003 334.023 171.295 333.497 171.503C332.97 171.708 332.368 171.81 331.69 171.81Z" fill="#486581"/>
<rect x="122.449" y="185.148" width="39.1167" height="39.1167" rx="3.05999" fill="#FAFCFE"/>
<rect x="122.449" y="185.148" width="39.1167" height="39.1167" rx="3.05999" stroke="#C9D4DE" stroke-width="0.88329"/>
<rect x="176.656" y="185.148" width="39.1167" height="39.1167" rx="3.05999" fill="#FAFCFE"/>
<rect x="176.656" y="185.148" width="39.1167" height="39.1167" rx="3.05999" stroke="#C9D4DE" stroke-width="0.88329"/>
<rect x="230.867" y="185.148" width="39.1167" height="39.1167" rx="3.05999" fill="#FAFCFE"/>
<rect x="230.867" y="185.148" width="39.1167" height="39.1167" rx="3.05999" stroke="#C9D4DE" stroke-width="0.88329"/>
<rect x="285.074" y="185.148" width="39.1167" height="39.1167" rx="3.05999" fill="#FAFCFE"/>
<rect x="285.074" y="185.148" width="39.1167" height="39.1167" rx="3.05999" stroke="#C9D4DE" stroke-width="0.88329"/>
<rect x="339.285" y="185.148" width="39.1167" height="39.1167" rx="3.05999" fill="#FAFCFE"/>
<rect x="339.285" y="185.148" width="39.1167" height="39.1167" rx="3.05999" stroke="#C9D4DE" stroke-width="0.88329"/>
<rect x="122.008" y="248.706" width="122.418" height="33.1326" rx="16.5663" fill="#2680C2"/>
<path d="M167.121 260.779L169.295 267.612H169.378L171.557 260.779H173.664L170.564 269.772H168.114L165.009 260.779H167.121ZM177.025 269.904C176.331 269.904 175.734 269.764 175.233 269.483C174.736 269.199 174.352 268.798 174.083 268.279C173.813 267.758 173.679 267.142 173.679 266.431C173.679 265.737 173.813 265.128 174.083 264.604C174.352 264.08 174.731 263.671 175.22 263.379C175.712 263.086 176.289 262.94 176.95 262.94C177.395 262.94 177.809 263.011 178.193 263.155C178.579 263.295 178.916 263.507 179.203 263.791C179.493 264.075 179.718 264.433 179.879 264.863C180.04 265.29 180.121 265.791 180.121 266.365V266.879H174.425V265.719H178.36C178.36 265.45 178.301 265.211 178.184 265.003C178.067 264.796 177.905 264.633 177.697 264.516C177.492 264.396 177.253 264.336 176.981 264.336C176.697 264.336 176.445 264.402 176.226 264.534C176.009 264.662 175.839 264.837 175.716 265.056C175.593 265.273 175.53 265.514 175.527 265.781V266.883C175.527 267.217 175.589 267.505 175.712 267.748C175.838 267.991 176.015 268.178 176.243 268.31C176.472 268.442 176.742 268.508 177.056 268.508C177.264 268.508 177.454 268.478 177.627 268.42C177.799 268.361 177.947 268.274 178.07 268.156C178.193 268.039 178.287 267.896 178.351 267.726L180.081 267.84C179.993 268.256 179.813 268.619 179.541 268.929C179.272 269.237 178.923 269.477 178.496 269.65C178.072 269.819 177.581 269.904 177.025 269.904ZM181.342 269.772V263.027H183.155V264.204H183.226C183.348 263.786 183.555 263.469 183.845 263.256C184.135 263.039 184.468 262.931 184.846 262.931C184.94 262.931 185.041 262.937 185.149 262.948C185.257 262.96 185.352 262.976 185.434 262.997V264.657C185.347 264.63 185.225 264.607 185.07 264.586C184.915 264.566 184.773 264.556 184.644 264.556C184.369 264.556 184.123 264.616 183.906 264.736C183.692 264.853 183.523 265.017 183.397 265.227C183.274 265.438 183.212 265.681 183.212 265.956V269.772H181.342ZM186.402 269.772V263.027H188.272V269.772H186.402ZM187.341 262.158C187.063 262.158 186.825 262.066 186.626 261.881C186.429 261.694 186.331 261.47 186.331 261.209C186.331 260.952 186.429 260.731 186.626 260.546C186.825 260.359 187.063 260.265 187.341 260.265C187.619 260.265 187.857 260.359 188.053 260.546C188.252 260.731 188.351 260.952 188.351 261.209C188.351 261.47 188.252 261.694 188.053 261.881C187.857 262.066 187.619 262.158 187.341 262.158ZM193.398 263.027V264.433H189.235V263.027H193.398ZM190.188 269.772V262.54C190.188 262.051 190.283 261.646 190.473 261.323C190.667 261.001 190.93 260.76 191.264 260.599C191.598 260.438 191.977 260.357 192.401 260.357C192.688 260.357 192.95 260.379 193.187 260.423C193.427 260.467 193.606 260.507 193.723 260.542L193.389 261.947C193.316 261.924 193.225 261.902 193.117 261.881C193.012 261.861 192.903 261.85 192.792 261.85C192.517 261.85 192.325 261.915 192.217 262.044C192.108 262.17 192.054 262.347 192.054 262.575V269.772H190.188ZM195.696 272.302C195.459 272.302 195.236 272.283 195.028 272.245C194.823 272.21 194.654 272.164 194.519 272.109L194.941 270.712C195.16 270.78 195.358 270.816 195.533 270.822C195.712 270.828 195.866 270.787 195.994 270.699C196.126 270.611 196.233 270.462 196.315 270.251L196.425 269.966L194.005 263.027H195.973L197.369 267.981H197.439L198.849 263.027H200.829L198.208 270.501C198.082 270.864 197.911 271.181 197.694 271.45C197.48 271.722 197.209 271.932 196.882 272.078C196.554 272.227 196.158 272.302 195.696 272.302Z" fill="white"/>
<path d="M277.914 269.772V260.779H281.515C282.177 260.779 282.729 260.877 283.171 261.073C283.613 261.269 283.945 261.542 284.168 261.89C284.39 262.235 284.502 262.634 284.502 263.084C284.502 263.436 284.431 263.745 284.291 264.011C284.15 264.274 283.957 264.491 283.711 264.661C283.468 264.828 283.19 264.946 282.877 265.017V265.104C283.219 265.119 283.54 265.216 283.838 265.394C284.14 265.573 284.384 265.823 284.572 266.145C284.759 266.464 284.853 266.845 284.853 267.287C284.853 267.764 284.734 268.19 284.497 268.565C284.263 268.937 283.916 269.231 283.456 269.448C282.997 269.664 282.43 269.772 281.757 269.772H277.914ZM279.816 268.218H281.366C281.896 268.218 282.282 268.117 282.525 267.915C282.768 267.71 282.89 267.438 282.89 267.098C282.89 266.849 282.83 266.63 282.71 266.439C282.59 266.249 282.419 266.1 282.196 265.992C281.976 265.883 281.714 265.829 281.41 265.829H279.816V268.218ZM279.816 264.542H281.226C281.486 264.542 281.717 264.497 281.919 264.406C282.124 264.313 282.285 264.181 282.402 264.011C282.522 263.841 282.582 263.638 282.582 263.401C282.582 263.076 282.467 262.814 282.236 262.615C282.007 262.415 281.682 262.316 281.261 262.316H279.816V264.542ZM287.978 269.9C287.548 269.9 287.164 269.825 286.828 269.676C286.491 269.524 286.225 269.3 286.029 269.004C285.835 268.705 285.739 268.334 285.739 267.889C285.739 267.514 285.808 267.199 285.945 266.944C286.083 266.69 286.27 266.485 286.507 266.33C286.744 266.174 287.014 266.057 287.315 265.978C287.62 265.899 287.939 265.844 288.273 265.811C288.665 265.77 288.981 265.732 289.221 265.697C289.461 265.659 289.635 265.604 289.744 265.53C289.852 265.457 289.906 265.349 289.906 265.205V265.179C289.906 264.901 289.818 264.686 289.643 264.534C289.47 264.381 289.224 264.305 288.905 264.305C288.568 264.305 288.3 264.38 288.101 264.529C287.902 264.676 287.771 264.86 287.706 265.082L285.976 264.942C286.064 264.532 286.236 264.178 286.494 263.879C286.752 263.578 287.084 263.346 287.491 263.185C287.901 263.021 288.375 262.94 288.914 262.94C289.288 262.94 289.647 262.983 289.99 263.071C290.335 263.159 290.641 263.295 290.907 263.48C291.177 263.664 291.389 263.901 291.544 264.191C291.699 264.478 291.777 264.822 291.777 265.223V269.772H290.003V268.837H289.95C289.842 269.048 289.697 269.234 289.515 269.395C289.334 269.553 289.116 269.677 288.861 269.768C288.606 269.856 288.312 269.9 287.978 269.9ZM288.514 268.609C288.789 268.609 289.032 268.555 289.243 268.446C289.454 268.335 289.619 268.186 289.739 267.998C289.859 267.811 289.919 267.599 289.919 267.362V266.646C289.861 266.684 289.78 266.719 289.678 266.751C289.578 266.78 289.466 266.808 289.34 266.835C289.214 266.858 289.088 266.88 288.962 266.901C288.836 266.918 288.722 266.934 288.619 266.949C288.4 266.981 288.208 267.032 288.044 267.103C287.88 267.173 287.753 267.268 287.662 267.388C287.571 267.505 287.526 267.651 287.526 267.827C287.526 268.082 287.618 268.276 287.803 268.411C287.99 268.543 288.227 268.609 288.514 268.609ZM296.276 269.904C295.585 269.904 294.991 269.758 294.493 269.465C293.998 269.169 293.618 268.76 293.351 268.235C293.088 267.711 292.956 267.108 292.956 266.426C292.956 265.735 293.089 265.129 293.356 264.608C293.625 264.084 294.007 263.676 294.502 263.383C294.996 263.087 295.585 262.94 296.267 262.94C296.855 262.94 297.371 263.046 297.813 263.26C298.255 263.474 298.605 263.774 298.862 264.16C299.12 264.547 299.262 265.001 299.288 265.522H297.523C297.473 265.185 297.341 264.914 297.128 264.709C296.917 264.501 296.64 264.397 296.298 264.397C296.008 264.397 295.755 264.476 295.538 264.635C295.324 264.79 295.157 265.017 295.037 265.315C294.917 265.614 294.857 265.975 294.857 266.4C294.857 266.83 294.916 267.196 295.033 267.498C295.153 267.799 295.321 268.029 295.538 268.187C295.755 268.345 296.008 268.424 296.298 268.424C296.511 268.424 296.703 268.38 296.873 268.293C297.046 268.205 297.188 268.077 297.299 267.911C297.413 267.741 297.488 267.537 297.523 267.3H299.288C299.259 267.815 299.118 268.269 298.867 268.661C298.618 269.051 298.274 269.355 297.835 269.575C297.396 269.794 296.876 269.904 296.276 269.904ZM302.181 267.831L302.185 265.587H302.458L304.618 263.027H306.766L303.863 266.417H303.419L302.181 267.831ZM300.486 269.772V260.779H302.357V269.772H300.486ZM304.702 269.772L302.717 266.835L303.964 265.513L306.893 269.772H304.702ZM312.009 266.901V263.027H313.88V269.772H312.084V268.547H312.013C311.861 268.942 311.608 269.26 311.254 269.5C310.902 269.74 310.473 269.86 309.967 269.86C309.516 269.86 309.119 269.758 308.777 269.553C308.434 269.348 308.167 269.057 307.973 268.679C307.783 268.301 307.686 267.849 307.683 267.322V263.027H309.554V266.988C309.557 267.386 309.664 267.701 309.875 267.932C310.086 268.164 310.368 268.279 310.722 268.279C310.948 268.279 311.158 268.228 311.355 268.126C311.551 268.02 311.709 267.865 311.829 267.66C311.952 267.455 312.012 267.202 312.009 266.901ZM315.376 272.302V263.027H317.22V264.16H317.304C317.386 263.979 317.504 263.794 317.66 263.607C317.818 263.417 318.023 263.259 318.274 263.133C318.529 263.004 318.845 262.94 319.223 262.94C319.715 262.94 320.168 263.068 320.584 263.326C321 263.581 321.332 263.966 321.581 264.481C321.83 264.993 321.954 265.636 321.954 266.409C321.954 267.161 321.833 267.796 321.59 268.315C321.35 268.83 321.022 269.221 320.606 269.487C320.193 269.751 319.731 269.882 319.218 269.882C318.855 269.882 318.547 269.822 318.292 269.702C318.04 269.582 317.834 269.431 317.673 269.25C317.512 269.065 317.389 268.88 317.304 268.692H317.247V272.302H315.376ZM317.207 266.4C317.207 266.801 317.263 267.151 317.374 267.449C317.485 267.748 317.646 267.981 317.857 268.148C318.068 268.312 318.324 268.394 318.626 268.394C318.93 268.394 319.188 268.31 319.399 268.143C319.609 267.973 319.769 267.739 319.877 267.441C319.988 267.139 320.044 266.792 320.044 266.4C320.044 266.011 319.99 265.668 319.882 265.372C319.773 265.077 319.614 264.845 319.403 264.678C319.192 264.512 318.933 264.428 318.626 264.428C318.321 264.428 318.064 264.509 317.853 264.67C317.645 264.831 317.485 265.059 317.374 265.355C317.263 265.65 317.207 265.999 317.207 266.4ZM334.034 263.928H332.11C332.075 263.679 332.004 263.458 331.895 263.264C331.787 263.068 331.648 262.901 331.478 262.764C331.308 262.626 331.112 262.521 330.89 262.448C330.67 262.374 330.431 262.338 330.174 262.338C329.708 262.338 329.303 262.454 328.957 262.685C328.612 262.913 328.344 263.247 328.154 263.686C327.963 264.122 327.868 264.652 327.868 265.276C327.868 265.917 327.963 266.456 328.154 266.892C328.347 267.328 328.616 267.657 328.962 267.88C329.307 268.102 329.707 268.214 330.161 268.214C330.415 268.214 330.651 268.18 330.868 268.113C331.087 268.045 331.282 267.947 331.452 267.818C331.621 267.687 331.762 267.527 331.873 267.34C331.987 267.152 332.066 266.939 332.11 266.699L334.034 266.707C333.984 267.12 333.86 267.518 333.661 267.902C333.464 268.282 333.199 268.623 332.866 268.925C332.535 269.224 332.14 269.461 331.68 269.636C331.223 269.809 330.707 269.895 330.13 269.895C329.328 269.895 328.61 269.714 327.978 269.351C327.349 268.988 326.851 268.462 326.485 267.774C326.122 267.086 325.941 266.254 325.941 265.276C325.941 264.295 326.125 263.461 326.494 262.773C326.863 262.085 327.363 261.561 327.996 261.201C328.628 260.838 329.339 260.656 330.13 260.656C330.651 260.656 331.134 260.729 331.579 260.876C332.027 261.022 332.424 261.236 332.769 261.517C333.115 261.795 333.396 262.136 333.612 262.54C333.832 262.944 333.972 263.406 334.034 263.928ZM338.41 269.904C337.728 269.904 337.138 269.759 336.64 269.469C336.145 269.177 335.763 268.77 335.494 268.249C335.225 267.725 335.09 267.117 335.09 266.426C335.09 265.729 335.225 265.121 335.494 264.599C335.763 264.075 336.145 263.668 336.64 263.379C337.138 263.086 337.728 262.94 338.41 262.94C339.092 262.94 339.68 263.086 340.175 263.379C340.673 263.668 341.056 264.075 341.326 264.599C341.595 265.121 341.73 265.729 341.73 266.426C341.73 267.117 341.595 267.725 341.326 268.249C341.056 268.77 340.673 269.177 340.175 269.469C339.68 269.759 339.092 269.904 338.41 269.904ZM338.419 268.455C338.729 268.455 338.988 268.367 339.196 268.192C339.404 268.013 339.56 267.77 339.666 267.463C339.774 267.155 339.828 266.805 339.828 266.413C339.828 266.021 339.774 265.671 339.666 265.364C339.56 265.056 339.404 264.813 339.196 264.635C338.988 264.456 338.729 264.367 338.419 264.367C338.105 264.367 337.842 264.456 337.628 264.635C337.417 264.813 337.258 265.056 337.149 265.364C337.044 265.671 336.991 266.021 336.991 266.413C336.991 266.805 337.044 267.155 337.149 267.463C337.258 267.77 337.417 268.013 337.628 268.192C337.842 268.367 338.105 268.455 338.419 268.455ZM345.432 269.882C344.919 269.882 344.455 269.751 344.039 269.487C343.627 269.221 343.299 268.83 343.056 268.315C342.816 267.796 342.696 267.161 342.696 266.409C342.696 265.636 342.82 264.993 343.069 264.481C343.318 263.966 343.649 263.581 344.061 263.326C344.477 263.068 344.932 262.94 345.427 262.94C345.805 262.94 346.12 263.004 346.371 263.133C346.626 263.259 346.831 263.417 346.986 263.607C347.144 263.794 347.264 263.979 347.346 264.16H347.403V260.779H349.27V269.772H347.425V268.692H347.346C347.258 268.88 347.134 269.065 346.973 269.25C346.815 269.431 346.608 269.582 346.354 269.702C346.102 269.822 345.795 269.882 345.432 269.882ZM346.024 268.394C346.326 268.394 346.581 268.312 346.788 268.148C346.999 267.981 347.16 267.748 347.272 267.449C347.386 267.151 347.443 266.801 347.443 266.4C347.443 265.999 347.387 265.65 347.276 265.355C347.165 265.059 347.004 264.831 346.793 264.67C346.582 264.509 346.326 264.428 346.024 264.428C345.717 264.428 345.458 264.512 345.247 264.678C345.036 264.845 344.877 265.077 344.768 265.372C344.66 265.668 344.606 266.011 344.606 266.4C344.606 266.792 344.66 267.139 344.768 267.441C344.88 267.739 345.039 267.973 345.247 268.143C345.458 268.31 345.717 268.394 346.024 268.394ZM353.882 269.904C353.188 269.904 352.591 269.764 352.09 269.483C351.592 269.199 351.209 268.798 350.939 268.279C350.67 267.758 350.535 267.142 350.535 266.431C350.535 265.737 350.67 265.128 350.939 264.604C351.209 264.08 351.588 263.671 352.077 263.379C352.569 263.086 353.145 262.94 353.807 262.94C354.252 262.94 354.666 263.011 355.05 263.155C355.436 263.295 355.773 263.507 356.06 263.791C356.35 264.075 356.575 264.433 356.736 264.863C356.897 265.29 356.978 265.791 356.978 266.365V266.879H351.282V265.719H355.217C355.217 265.45 355.158 265.211 355.041 265.003C354.924 264.796 354.761 264.633 354.553 264.516C354.349 264.396 354.11 264.336 353.838 264.336C353.554 264.336 353.302 264.402 353.082 264.534C352.866 264.662 352.696 264.837 352.573 265.056C352.45 265.273 352.387 265.514 352.384 265.781V266.883C352.384 267.217 352.446 267.505 352.569 267.748C352.694 267.991 352.872 268.178 353.1 268.31C353.328 268.442 353.599 268.508 353.912 268.508C354.12 268.508 354.311 268.478 354.483 268.42C354.656 268.361 354.804 268.274 354.927 268.156C355.05 268.039 355.143 267.896 355.208 267.726L356.938 267.84C356.85 268.256 356.67 268.619 356.398 268.929C356.129 269.237 355.78 269.477 355.353 269.65C354.928 269.819 354.438 269.904 353.882 269.904Z" fill="#486581"/>
</g>
<rect x="106.449" y="42.4836" width="287.952" height="262.913" rx="8.34423" stroke="#2680C2" stroke-width="0.88329"/>
</g>
<defs>
<filter id="filter0_dd_1262_233496" x="94.8882" y="42.042" width="311.075" height="286.036" filterUnits="userSpaceOnUse" color-interpolation-filters="sRGB">
<feFlood flood-opacity="0" result="BackgroundImageFix"/>
<feColorMatrix in="SourceAlpha" type="matrix" values="0 0 0 0 0 0 0 0 0 0 0 0 0 0 0 0 0 0 127 0" result="hardAlpha"/>
<feMorphology radius="1.85327" operator="erode" in="SourceAlpha" result="effect1_dropShadow_1262_233496"/>
<feOffset dy="3.70654"/>
<feGaussianBlur stdDeviation="2.77991"/>
<feComposite in2="hardAlpha" operator="out"/>
<feColorMatrix type="matrix" values="0 0 0 0 0 0 0 0 0 0 0 0 0 0 0 0 0 0 0.03 0"/>
<feBlend mode="normal" in2="BackgroundImageFix" result="effect1_dropShadow_1262_233496"/>
<feColorMatrix in="SourceAlpha" type="matrix" values="0 0 0 0 0 0 0 0 0 0 0 0 0 0 0 0 0 0 127 0" result="hardAlpha"/>
<feMorphology radius="3.70654" operator="erode" in="SourceAlpha" result="effect2_dropShadow_1262_233496"/>
<feOffset dy="11.1196"/>
<feGaussianBlur stdDeviation="7.41308"/>
<feComposite in2="hardAlpha" operator="out"/>
<feColorMatrix type="matrix" values="0 0 0 0 0 0 0 0 0 0 0 0 0 0 0 0 0 0 0.08 0"/>
<feBlend mode="normal" in2="effect1_dropShadow_1262_233496" result="effect2_dropShadow_1262_233496"/>
<feBlend mode="normal" in="SourceGraphic" in2="effect2_dropShadow_1262_233496" result="shape"/>
</filter>
<clipPath id="clip0_1262_233496">
<rect x="106.008" y="42.042" width="288.836" height="263.797" rx="8.78588" fill="white"/>
</clipPath>
</defs>
</svg>
