<svg width="500" height="348" viewBox="0 0 500 348" fill="none" xmlns="http://www.w3.org/2000/svg">
<g filter="url(#filter0_dd_1232_70483)">
<g clip-path="url(#clip0_1232_70483)">
<rect x="85.75" y="52.3298" width="328" height="242.34" rx="9.94677" fill="white"/>
<path d="M111.619 77.7126H109.441C109.401 77.4309 109.32 77.1807 109.197 76.9619C109.075 76.7399 108.917 76.551 108.725 76.3952C108.533 76.2394 108.311 76.1201 108.059 76.0372C107.81 75.9544 107.54 75.9129 107.249 75.9129C106.722 75.9129 106.263 76.0438 105.871 76.3057C105.48 76.5642 105.177 76.942 104.962 77.4392C104.746 77.9331 104.638 78.533 104.638 79.2389C104.638 79.9648 104.746 80.5746 104.962 81.0685C105.18 81.5623 105.485 81.9352 105.876 82.1871C106.268 82.439 106.72 82.5649 107.234 82.5649C107.522 82.5649 107.789 82.5268 108.034 82.4506C108.283 82.3743 108.503 82.2633 108.695 82.1175C108.888 81.9683 109.047 81.7877 109.173 81.5756C109.302 81.3635 109.391 81.1215 109.441 80.8497L111.619 80.8597C111.562 81.327 111.421 81.7778 111.196 82.2119C110.974 82.6428 110.674 83.0289 110.296 83.3703C109.922 83.7084 109.474 83.9769 108.954 84.1757C108.437 84.3713 107.852 84.469 107.199 84.469C106.291 84.469 105.479 84.2635 104.763 83.8526C104.05 83.4416 103.487 82.8466 103.072 82.0678C102.661 81.2889 102.456 80.3459 102.456 79.2389C102.456 78.1286 102.665 77.184 103.082 76.4051C103.5 75.6262 104.067 75.033 104.783 74.6253C105.499 74.2143 106.304 74.0088 107.199 74.0088C107.789 74.0088 108.336 74.0917 108.839 74.2574C109.347 74.4231 109.796 74.6651 110.187 74.9832C110.578 75.2981 110.896 75.6842 111.141 76.1416C111.39 76.599 111.549 77.1227 111.619 77.7126ZM116.573 84.479C115.801 84.479 115.133 84.3149 114.569 83.9868C114.009 83.6554 113.577 83.1947 113.272 82.6047C112.967 82.0114 112.814 81.3237 112.814 80.5415C112.814 79.7527 112.967 79.0633 113.272 78.4733C113.577 77.88 114.009 77.4193 114.569 77.0912C115.133 76.7598 115.801 76.594 116.573 76.594C117.345 76.594 118.011 76.7598 118.571 77.0912C119.135 77.4193 119.569 77.88 119.874 78.4733C120.179 79.0633 120.331 79.7527 120.331 80.5415C120.331 81.3237 120.179 82.0114 119.874 82.6047C119.569 83.1947 119.135 83.6554 118.571 83.9868C118.011 84.3149 117.345 84.479 116.573 84.479ZM116.583 82.8384C116.934 82.8384 117.227 82.7389 117.463 82.5401C117.698 82.3379 117.875 82.0628 117.995 81.7148C118.117 81.3668 118.179 80.9707 118.179 80.5266C118.179 80.0824 118.117 79.6864 117.995 79.3384C117.875 78.9903 117.698 78.7153 117.463 78.5131C117.227 78.3109 116.934 78.2098 116.583 78.2098C116.228 78.2098 115.93 78.3109 115.688 78.5131C115.449 78.7153 115.269 78.9903 115.146 79.3384C115.027 79.6864 114.967 80.0824 114.967 80.5266C114.967 80.9707 115.027 81.3668 115.146 81.7148C115.269 82.0628 115.449 82.3379 115.688 82.5401C115.93 82.7389 116.228 82.8384 116.583 82.8384ZM121.708 84.3298V76.6935H123.727V78.0408H123.816C123.975 77.5933 124.241 77.2403 124.612 76.9818C124.983 76.7233 125.427 76.594 125.944 76.594C126.468 76.594 126.914 76.725 127.282 76.9868C127.65 77.2453 127.895 77.5966 128.017 78.0408H128.097C128.253 77.6033 128.534 77.2536 128.942 76.9918C129.353 76.7266 129.839 76.594 130.399 76.594C131.111 76.594 131.69 76.8211 132.134 77.2751C132.581 77.7259 132.805 78.3656 132.805 79.1942V84.3298H130.692V79.6118C130.692 79.1876 130.579 78.8694 130.354 78.6572C130.129 78.4451 129.847 78.3391 129.509 78.3391C129.124 78.3391 128.824 78.4617 128.609 78.707C128.394 78.9489 128.286 79.2688 128.286 79.6665V84.3298H126.233V79.567C126.233 79.1925 126.125 78.8942 125.909 78.6722C125.697 78.4501 125.417 78.3391 125.069 78.3391C124.834 78.3391 124.622 78.3987 124.433 78.518C124.247 78.634 124.1 78.7981 123.99 79.0102C123.881 79.219 123.826 79.4643 123.826 79.746V84.3298H121.708ZM134.478 87.1935V76.6935H136.566V77.9761H136.661C136.753 77.7706 136.888 77.5618 137.063 77.3497C137.242 77.1343 137.474 76.9553 137.759 76.8128C138.048 76.667 138.406 76.594 138.833 76.594C139.39 76.594 139.904 76.7399 140.374 77.0315C140.845 77.3199 141.221 77.7557 141.503 78.3391C141.785 78.9191 141.925 79.6466 141.925 80.5216C141.925 81.3734 141.788 82.0926 141.513 82.6793C141.241 83.2626 140.87 83.7051 140.399 84.0067C139.932 84.305 139.408 84.4541 138.828 84.4541C138.417 84.4541 138.067 84.3862 137.779 84.2503C137.494 84.1144 137.26 83.9437 137.078 83.7382C136.896 83.5294 136.757 83.3189 136.661 83.1068H136.596V87.1935H134.478ZM136.551 80.5117C136.551 80.9657 136.614 81.3618 136.74 81.6999C136.866 82.0379 137.048 82.3014 137.287 82.4903C137.526 82.676 137.816 82.7688 138.157 82.7688C138.502 82.7688 138.793 82.6743 139.032 82.4854C139.271 82.2931 139.451 82.028 139.574 81.6899C139.7 81.3485 139.763 80.9558 139.763 80.5117C139.763 80.0708 139.701 79.6831 139.579 79.3483C139.456 79.0135 139.276 78.7517 139.037 78.5628C138.798 78.3739 138.505 78.2794 138.157 78.2794C137.812 78.2794 137.521 78.3706 137.282 78.5528C137.047 78.7351 136.866 78.9937 136.74 79.3284C136.614 79.6632 136.551 80.0576 136.551 80.5117ZM145.515 84.474C145.028 84.474 144.594 84.3895 144.212 84.2205C143.831 84.0481 143.53 83.7946 143.308 83.4598C143.089 83.1217 142.979 82.7008 142.979 82.197C142.979 81.7728 143.057 81.4165 143.213 81.1281C143.369 80.8398 143.581 80.6078 143.849 80.4321C144.118 80.2564 144.423 80.1239 144.764 80.0344C145.109 79.9449 145.47 79.8819 145.848 79.8455C146.292 79.7991 146.65 79.756 146.922 79.7162C147.194 79.6731 147.391 79.6101 147.513 79.5273C147.636 79.4444 147.697 79.3218 147.697 79.1594V79.1295C147.697 78.8147 147.598 78.5711 147.399 78.3987C147.204 78.2264 146.925 78.1402 146.564 78.1402C146.183 78.1402 145.879 78.2247 145.654 78.3938C145.429 78.5595 145.28 78.7683 145.207 79.0202L143.248 78.8611C143.347 78.3971 143.543 77.996 143.835 77.658C144.126 77.3166 144.502 77.0547 144.963 76.8724C145.427 76.6868 145.964 76.594 146.574 76.594C146.998 76.594 147.404 76.6438 147.792 76.7432C148.183 76.8426 148.529 76.9967 148.831 77.2055C149.136 77.4144 149.376 77.6828 149.552 78.0109C149.728 78.3358 149.815 78.7252 149.815 79.1793V84.3298H147.807V83.2709H147.747C147.625 83.5095 147.46 83.72 147.255 83.9023C147.049 84.0813 146.803 84.2221 146.514 84.3249C146.226 84.4243 145.893 84.474 145.515 84.474ZM146.121 83.0124C146.433 83.0124 146.708 82.951 146.947 82.8284C147.185 82.7025 147.373 82.5334 147.509 82.3213C147.644 82.1092 147.712 81.8689 147.712 81.6004V80.7901C147.646 80.8331 147.555 80.8729 147.439 80.9094C147.326 80.9425 147.199 80.974 147.056 81.0038C146.914 81.0304 146.771 81.0552 146.629 81.0784C146.486 81.0983 146.357 81.1165 146.241 81.1331C145.992 81.1696 145.775 81.2276 145.589 81.3071C145.404 81.3867 145.26 81.4944 145.157 81.6303C145.054 81.7628 145.003 81.9286 145.003 82.1274C145.003 82.4158 145.107 82.6362 145.316 82.7886C145.528 82.9378 145.797 83.0124 146.121 83.0124ZM153.576 79.9151V84.3298H151.458V76.6935H153.477V78.0408H153.566C153.735 77.5966 154.019 77.2453 154.417 76.9868C154.814 76.725 155.297 76.594 155.863 76.594C156.394 76.594 156.856 76.71 157.25 76.942C157.645 77.1741 157.951 77.5055 158.17 77.9364C158.389 78.3639 158.498 78.8743 158.498 79.4676V84.3298H156.38V79.8455C156.384 79.3781 156.264 79.0135 156.022 78.7517C155.78 78.4866 155.447 78.354 155.023 78.354C154.738 78.354 154.486 78.4153 154.267 78.5379C154.052 78.6606 153.883 78.8395 153.76 79.0749C153.641 79.3069 153.58 79.5869 153.576 79.9151ZM161.202 87.1935C160.933 87.1935 160.681 87.1719 160.446 87.1288C160.214 87.0891 160.022 87.0377 159.869 86.9747L160.346 85.3938C160.595 85.47 160.819 85.5114 161.018 85.518C161.22 85.5247 161.394 85.4783 161.54 85.3788C161.689 85.2794 161.81 85.1104 161.903 84.8717L162.027 84.5486L159.287 76.6935H161.515L163.096 82.3014H163.175L164.771 76.6935H167.013L164.045 85.1551C163.903 85.5661 163.709 85.9241 163.464 86.229C163.222 86.5372 162.915 86.7742 162.544 86.9399C162.173 87.109 161.725 87.1935 161.202 87.1935ZM171.377 84.3298V74.148H173.495V77.9761H173.56C173.652 77.7706 173.787 77.5618 173.962 77.3497C174.141 77.1343 174.373 76.9553 174.658 76.8128C174.947 76.667 175.305 76.594 175.732 76.594C176.289 76.594 176.803 76.7399 177.273 77.0315C177.744 77.3199 178.12 77.7557 178.402 78.3391C178.684 78.9191 178.825 79.6466 178.825 80.5216C178.825 81.3734 178.687 82.0926 178.412 82.6793C178.14 83.2626 177.769 83.7051 177.298 84.0067C176.831 84.305 176.307 84.4541 175.727 84.4541C175.316 84.4541 174.967 84.3862 174.678 84.2503C174.393 84.1144 174.16 83.9437 173.977 83.7382C173.795 83.5294 173.656 83.3189 173.56 83.1068H173.465V84.3298H171.377ZM173.45 80.5117C173.45 80.9657 173.513 81.3618 173.639 81.6999C173.765 82.0379 173.947 82.3014 174.186 82.4903C174.425 82.676 174.715 82.7688 175.056 82.7688C175.401 82.7688 175.692 82.6743 175.931 82.4854C176.17 82.2931 176.35 82.028 176.473 81.6899C176.599 81.3485 176.662 80.9558 176.662 80.5117C176.662 80.0708 176.601 79.6831 176.478 79.3483C176.355 79.0135 176.175 78.7517 175.936 78.5628C175.697 78.3739 175.404 78.2794 175.056 78.2794C174.711 78.2794 174.42 78.3706 174.181 78.5528C173.946 78.7351 173.765 78.9937 173.639 79.3284C173.513 79.6632 173.45 80.0576 173.45 80.5117ZM180.238 84.3298V76.6935H182.291V78.0259H182.371C182.51 77.5519 182.743 77.1939 183.072 76.952C183.4 76.7067 183.778 76.5841 184.205 76.5841C184.311 76.5841 184.425 76.5907 184.548 76.604C184.671 76.6172 184.778 76.6355 184.871 76.6587V78.5379C184.772 78.5081 184.634 78.4816 184.459 78.4584C184.283 78.4352 184.122 78.4236 183.976 78.4236C183.665 78.4236 183.386 78.4915 183.141 78.6274C182.899 78.76 182.707 78.9456 182.564 79.1842C182.425 79.4229 182.356 79.698 182.356 80.0095V84.3298H180.238ZM187.925 84.474C187.438 84.474 187.004 84.3895 186.623 84.2205C186.241 84.0481 185.94 83.7946 185.718 83.4598C185.499 83.1217 185.39 82.7008 185.39 82.197C185.39 81.7728 185.467 81.4165 185.623 81.1281C185.779 80.8398 185.991 80.6078 186.26 80.4321C186.528 80.2564 186.833 80.1239 187.174 80.0344C187.519 79.9449 187.88 79.8819 188.258 79.8455C188.702 79.7991 189.06 79.756 189.332 79.7162C189.604 79.6731 189.801 79.6101 189.924 79.5273C190.046 79.4444 190.108 79.3218 190.108 79.1594V79.1295C190.108 78.8147 190.008 78.5711 189.809 78.3987C189.614 78.2264 189.335 78.1402 188.974 78.1402C188.593 78.1402 188.29 78.2247 188.064 78.3938C187.839 78.5595 187.69 78.7683 187.617 79.0202L185.658 78.8611C185.757 78.3971 185.953 77.996 186.245 77.658C186.536 77.3166 186.913 77.0547 187.373 76.8724C187.837 76.6868 188.374 76.594 188.984 76.594C189.408 76.594 189.814 76.6438 190.202 76.7432C190.593 76.8426 190.94 76.9967 191.241 77.2055C191.546 77.4144 191.786 77.6828 191.962 78.0109C192.138 78.3358 192.225 78.7252 192.225 79.1793V84.3298H190.217V83.2709H190.157C190.035 83.5095 189.871 83.72 189.665 83.9023C189.46 84.0813 189.213 84.2221 188.924 84.3249C188.636 84.4243 188.303 84.474 187.925 84.474ZM188.532 83.0124C188.843 83.0124 189.118 82.951 189.357 82.8284C189.596 82.7025 189.783 82.5334 189.919 82.3213C190.055 82.1092 190.123 81.8689 190.123 81.6004V80.7901C190.056 80.8331 189.965 80.8729 189.849 80.9094C189.736 80.9425 189.609 80.974 189.466 81.0038C189.324 81.0304 189.181 81.0552 189.039 81.0784C188.896 81.0983 188.767 81.1165 188.651 81.1331C188.402 81.1696 188.185 81.2276 188 81.3071C187.814 81.3867 187.67 81.4944 187.567 81.6303C187.464 81.7628 187.413 81.9286 187.413 82.1274C187.413 82.4158 187.517 82.6362 187.726 82.7886C187.938 82.9378 188.207 83.0124 188.532 83.0124ZM195.987 79.9151V84.3298H193.869V76.6935H195.887V78.0408H195.977C196.146 77.5966 196.429 77.2453 196.827 76.9868C197.224 76.725 197.707 76.594 198.273 76.594C198.804 76.594 199.266 76.71 199.661 76.942C200.055 77.1741 200.362 77.5055 200.58 77.9364C200.799 78.3639 200.908 78.8743 200.908 79.4676V84.3298H198.79V79.8455C198.794 79.3781 198.674 79.0135 198.433 78.7517C198.191 78.4866 197.857 78.354 197.433 78.354C197.148 78.354 196.896 78.4153 196.678 78.5379C196.462 78.6606 196.293 78.8395 196.17 79.0749C196.051 79.3069 195.99 79.5869 195.987 79.9151ZM205.392 84.4541C204.811 84.4541 204.286 84.305 203.816 84.0067C203.348 83.7051 202.977 83.2626 202.702 82.6793C202.43 82.0926 202.294 81.3734 202.294 80.5216C202.294 79.6466 202.435 78.9191 202.717 78.3391C202.999 77.7557 203.373 77.3199 203.84 77.0315C204.311 76.7399 204.826 76.594 205.387 76.594C205.814 76.594 206.17 76.667 206.455 76.8128C206.744 76.9553 206.976 77.1343 207.151 77.3497C207.33 77.5618 207.466 77.7706 207.559 77.9761H207.624V74.148H209.737V84.3298H207.649V83.1068H207.559C207.46 83.3189 207.319 83.5294 207.137 83.7382C206.958 83.9437 206.724 84.1144 206.436 84.2503C206.151 84.3862 205.802 84.4541 205.392 84.4541ZM206.063 82.7688C206.404 82.7688 206.692 82.676 206.928 82.4903C207.166 82.3014 207.349 82.0379 207.475 81.6999C207.604 81.3618 207.669 80.9657 207.669 80.5117C207.669 80.0576 207.606 79.6632 207.48 79.3284C207.354 78.9937 207.171 78.7351 206.933 78.5528C206.694 78.3706 206.404 78.2794 206.063 78.2794C205.715 78.2794 205.421 78.3739 205.183 78.5628C204.944 78.7517 204.763 79.0135 204.641 79.3483C204.518 79.6831 204.457 80.0708 204.457 80.5117C204.457 80.9558 204.518 81.3485 204.641 81.6899C204.767 82.028 204.947 82.2931 205.183 82.4854C205.421 82.6743 205.715 82.7688 206.063 82.7688ZM211.478 84.3298V76.6935H213.596V84.3298H211.478ZM212.542 75.7091C212.227 75.7091 211.957 75.6047 211.732 75.3959C211.509 75.1838 211.398 74.9302 211.398 74.6352C211.398 74.3436 211.509 74.0933 211.732 73.8845C211.957 73.6724 212.227 73.5663 212.542 73.5663C212.857 73.5663 213.125 73.6724 213.347 73.8845C213.573 74.0933 213.685 74.3436 213.685 74.6352C213.685 74.9302 213.573 75.1838 213.347 75.3959C213.125 75.6047 212.857 75.7091 212.542 75.7091ZM217.41 79.9151V84.3298H215.292V76.6935H217.311V78.0408H217.4C217.569 77.5966 217.853 77.2453 218.251 76.9868C218.648 76.725 219.131 76.594 219.697 76.594C220.228 76.594 220.69 76.71 221.084 76.942C221.479 77.1741 221.785 77.5055 222.004 77.9364C222.223 78.3639 222.332 78.8743 222.332 79.4676V84.3298H220.214V79.8455C220.218 79.3781 220.098 79.0135 219.856 78.7517C219.614 78.4866 219.281 78.354 218.857 78.354C218.572 78.354 218.32 78.4153 218.101 78.5379C217.886 78.6606 217.717 78.8395 217.594 79.0749C217.475 79.3069 217.414 79.5869 217.41 79.9151ZM227.442 87.3526C226.756 87.3526 226.167 87.2581 225.677 87.0692C225.19 86.8836 224.802 86.63 224.513 86.3085C224.225 85.987 224.038 85.6258 223.952 85.2247L225.911 84.9612C225.97 85.1137 226.065 85.2562 226.194 85.3888C226.323 85.5214 226.494 85.6274 226.706 85.707C226.921 85.7898 227.183 85.8313 227.491 85.8313C227.952 85.8313 228.332 85.7186 228.63 85.4932C228.932 85.2711 229.082 84.8983 229.082 84.3746V82.9776H228.993C228.9 83.1897 228.761 83.3902 228.575 83.5791C228.39 83.768 228.151 83.9222 227.859 84.0415C227.568 84.1608 227.22 84.2205 226.815 84.2205C226.242 84.2205 225.72 84.0879 225.249 83.8227C224.782 83.5543 224.409 83.1449 224.131 82.5947C223.856 82.0412 223.718 81.3419 223.718 80.4967C223.718 79.6317 223.859 78.9091 224.141 78.3291C224.422 77.7491 224.797 77.3149 225.264 77.0266C225.735 76.7382 226.25 76.594 226.81 76.594C227.238 76.594 227.596 76.667 227.884 76.8128C228.173 76.9553 228.405 77.1343 228.58 77.3497C228.759 77.5618 228.897 77.7706 228.993 77.9761H229.072V76.6935H231.175V84.4044C231.175 85.054 231.016 85.5976 230.698 86.0351C230.38 86.4726 229.939 86.8007 229.376 87.0195C228.816 87.2415 228.171 87.3526 227.442 87.3526ZM227.487 82.6295C227.828 82.6295 228.116 82.545 228.352 82.376C228.59 82.2037 228.772 81.9584 228.898 81.6402C229.028 81.3187 229.092 80.9342 229.092 80.4868C229.092 80.0394 229.029 79.6516 228.903 79.3234C228.777 78.992 228.595 78.7351 228.357 78.5528C228.118 78.3706 227.828 78.2794 227.487 78.2794C227.138 78.2794 226.845 78.3739 226.607 78.5628C226.368 78.7484 226.187 79.0069 226.065 79.3384C225.942 79.6698 225.881 80.0526 225.881 80.4868C225.881 80.9276 225.942 81.3088 226.065 81.6303C226.191 81.9484 226.371 82.1954 226.607 82.371C226.845 82.5434 227.138 82.6295 227.487 82.6295Z" fill="#486581"/>
<rect x="101.75" y="105.33" width="296" height="4.97338" rx="2.48669" fill="#D9E2EC"/>
<rect x="101.75" y="118.303" width="217.578" height="4.97338" rx="2.48669" fill="#D9E2EC"/>
<path d="M111.176 148.277H109.943C109.87 147.922 109.743 147.61 109.56 147.342C109.381 147.073 109.163 146.848 108.904 146.666C108.649 146.48 108.366 146.341 108.054 146.248C107.742 146.155 107.418 146.109 107.08 146.109C106.463 146.109 105.905 146.265 105.404 146.576C104.907 146.888 104.511 147.347 104.216 147.953C103.924 148.56 103.778 149.304 103.778 150.186C103.778 151.067 103.924 151.811 104.216 152.418C104.511 153.024 104.907 153.484 105.404 153.795C105.905 154.107 106.463 154.262 107.08 154.262C107.418 154.262 107.742 154.216 108.054 154.123C108.366 154.03 108.649 153.893 108.904 153.711C109.163 153.525 109.381 153.298 109.56 153.029C109.743 152.758 109.87 152.446 109.943 152.095H111.176C111.083 152.615 110.914 153.081 110.669 153.492C110.424 153.903 110.119 154.252 109.754 154.541C109.39 154.826 108.98 155.043 108.526 155.192C108.076 155.341 107.593 155.416 107.08 155.416C106.211 155.416 105.439 155.204 104.763 154.779C104.087 154.355 103.555 153.752 103.167 152.97C102.779 152.188 102.585 151.26 102.585 150.186C102.585 149.112 102.779 148.184 103.167 147.402C103.555 146.619 104.087 146.016 104.763 145.592C105.439 145.168 106.211 144.956 107.08 144.956C107.593 144.956 108.076 145.03 108.526 145.179C108.98 145.328 109.39 145.547 109.754 145.836C110.119 146.121 110.424 146.469 110.669 146.88C110.914 147.287 111.083 147.753 111.176 148.277ZM116.112 155.436C115.422 155.436 114.817 155.272 114.297 154.944C113.78 154.615 113.376 154.156 113.084 153.566C112.796 152.976 112.651 152.287 112.651 151.498C112.651 150.703 112.796 150.008 113.084 149.415C113.376 148.822 113.78 148.361 114.297 148.033C114.817 147.705 115.422 147.541 116.112 147.541C116.801 147.541 117.404 147.705 117.921 148.033C118.442 148.361 118.846 148.822 119.134 149.415C119.426 150.008 119.572 150.703 119.572 151.498C119.572 152.287 119.426 152.976 119.134 153.566C118.846 154.156 118.442 154.615 117.921 154.944C117.404 155.272 116.801 155.436 116.112 155.436ZM116.112 154.382C116.635 154.382 117.066 154.247 117.404 153.979C117.742 153.711 117.993 153.358 118.155 152.92C118.317 152.483 118.399 152.009 118.399 151.498C118.399 150.988 118.317 150.512 118.155 150.071C117.993 149.631 117.742 149.274 117.404 149.002C117.066 148.731 116.635 148.595 116.112 148.595C115.588 148.595 115.157 148.731 114.819 149.002C114.481 149.274 114.231 149.631 114.068 150.071C113.906 150.512 113.825 150.988 113.825 151.498C113.825 152.009 113.906 152.483 114.068 152.92C114.231 153.358 114.481 153.711 114.819 153.979C115.157 154.247 115.588 154.382 116.112 154.382ZM122.536 145.095V155.277H121.363V145.095H122.536ZM127.787 155.436C127.098 155.436 126.493 155.272 125.973 154.944C125.456 154.615 125.051 154.156 124.76 153.566C124.471 152.976 124.327 152.287 124.327 151.498C124.327 150.703 124.471 150.008 124.76 149.415C125.051 148.822 125.456 148.361 125.973 148.033C126.493 147.705 127.098 147.541 127.787 147.541C128.477 147.541 129.08 147.705 129.597 148.033C130.117 148.361 130.522 148.822 130.81 149.415C131.102 150.008 131.248 150.703 131.248 151.498C131.248 152.287 131.102 152.976 130.81 153.566C130.522 154.156 130.117 154.615 129.597 154.944C129.08 155.272 128.477 155.436 127.787 155.436ZM127.787 154.382C128.311 154.382 128.742 154.247 129.08 153.979C129.418 153.711 129.668 153.358 129.831 152.92C129.993 152.483 130.074 152.009 130.074 151.498C130.074 150.988 129.993 150.512 129.831 150.071C129.668 149.631 129.418 149.274 129.08 149.002C128.742 148.731 128.311 148.595 127.787 148.595C127.264 148.595 126.833 148.731 126.495 149.002C126.157 149.274 125.907 149.631 125.744 150.071C125.582 150.512 125.501 150.988 125.501 151.498C125.501 152.009 125.582 152.483 125.744 152.92C125.907 153.358 126.157 153.711 126.495 153.979C126.833 154.247 127.264 154.382 127.787 154.382ZM133.039 155.277V147.64H134.172V148.794H134.252C134.391 148.416 134.643 148.109 135.007 147.874C135.372 147.639 135.783 147.521 136.24 147.521C136.327 147.521 136.434 147.523 136.564 147.526C136.693 147.529 136.791 147.534 136.857 147.541V148.734C136.817 148.724 136.726 148.709 136.583 148.689C136.444 148.666 136.297 148.654 136.141 148.654C135.77 148.654 135.438 148.732 135.147 148.888C134.858 149.041 134.63 149.253 134.461 149.524C134.295 149.793 134.212 150.1 134.212 150.444V155.277H133.039ZM147.594 149.35L146.54 149.649C146.474 149.473 146.376 149.302 146.247 149.137C146.121 148.968 145.949 148.828 145.73 148.719C145.511 148.61 145.231 148.555 144.89 148.555C144.422 148.555 144.033 148.663 143.721 148.878C143.413 149.09 143.259 149.36 143.259 149.689C143.259 149.98 143.365 150.211 143.577 150.38C143.789 150.549 144.121 150.689 144.572 150.802L145.705 151.081C146.388 151.246 146.897 151.5 147.231 151.841C147.566 152.179 147.733 152.615 147.733 153.149C147.733 153.586 147.608 153.977 147.356 154.322C147.107 154.667 146.759 154.939 146.312 155.137C145.864 155.336 145.344 155.436 144.751 155.436C143.972 155.436 143.327 155.267 142.817 154.929C142.306 154.591 141.983 154.097 141.847 153.447L142.961 153.169C143.067 153.58 143.267 153.888 143.562 154.093C143.861 154.299 144.25 154.402 144.731 154.402C145.278 154.402 145.712 154.286 146.033 154.054C146.358 153.818 146.52 153.537 146.52 153.208C146.52 152.943 146.428 152.721 146.242 152.542C146.056 152.36 145.771 152.224 145.387 152.135L144.114 151.836C143.415 151.671 142.901 151.414 142.573 151.066C142.248 150.714 142.086 150.275 142.086 149.748C142.086 149.317 142.207 148.936 142.449 148.605C142.694 148.273 143.027 148.013 143.448 147.824C143.872 147.635 144.353 147.541 144.89 147.541C145.645 147.541 146.239 147.707 146.67 148.038C147.104 148.369 147.412 148.807 147.594 149.35ZM152.602 155.436C151.886 155.436 151.27 155.267 150.752 154.929C150.235 154.591 149.838 154.125 149.559 153.532C149.281 152.938 149.142 152.261 149.142 151.498C149.142 150.723 149.284 150.038 149.569 149.445C149.858 148.848 150.259 148.383 150.772 148.048C151.289 147.71 151.893 147.541 152.582 147.541C153.119 147.541 153.603 147.64 154.034 147.839C154.465 148.038 154.818 148.316 155.093 148.674C155.368 149.032 155.538 149.45 155.605 149.927H154.431C154.342 149.579 154.143 149.271 153.835 149.002C153.53 148.731 153.119 148.595 152.602 148.595C152.145 148.595 151.743 148.714 151.399 148.953C151.057 149.188 150.791 149.521 150.598 149.952C150.409 150.38 150.315 150.882 150.315 151.458C150.315 152.048 150.408 152.562 150.593 153C150.782 153.437 151.047 153.777 151.389 154.019C151.734 154.261 152.138 154.382 152.602 154.382C152.907 154.382 153.184 154.329 153.432 154.223C153.681 154.117 153.891 153.964 154.064 153.765C154.236 153.566 154.359 153.328 154.431 153.049H155.605C155.538 153.5 155.374 153.906 155.113 154.267C154.854 154.625 154.511 154.91 154.083 155.122C153.659 155.331 153.165 155.436 152.602 155.436ZM158.493 150.683V155.277H157.32V145.095H158.493V148.833H158.593C158.772 148.439 159.04 148.126 159.398 147.894C159.759 147.658 160.24 147.541 160.84 147.541C161.36 147.541 161.816 147.645 162.207 147.854C162.598 148.06 162.901 148.376 163.117 148.804C163.336 149.228 163.445 149.768 163.445 150.424V155.277H162.272V150.504C162.272 149.897 162.114 149.428 161.799 149.097C161.488 148.762 161.055 148.595 160.502 148.595C160.117 148.595 159.773 148.676 159.468 148.838C159.166 149.001 158.927 149.238 158.752 149.549C158.579 149.861 158.493 150.239 158.493 150.683ZM168.793 155.436C168.057 155.436 167.423 155.273 166.889 154.948C166.359 154.62 165.949 154.163 165.661 153.576C165.376 152.986 165.233 152.3 165.233 151.518C165.233 150.736 165.376 150.046 165.661 149.45C165.949 148.85 166.35 148.383 166.864 148.048C167.381 147.71 167.984 147.541 168.674 147.541C169.072 147.541 169.464 147.607 169.852 147.74C170.24 147.872 170.593 148.088 170.911 148.386C171.229 148.681 171.483 149.072 171.672 149.559C171.861 150.046 171.955 150.646 171.955 151.359V151.856H166.069V150.842H170.762C170.762 150.411 170.676 150.027 170.503 149.689C170.334 149.35 170.092 149.084 169.778 148.888C169.466 148.693 169.098 148.595 168.674 148.595C168.206 148.595 167.802 148.711 167.461 148.943C167.123 149.171 166.863 149.47 166.68 149.838C166.498 150.206 166.407 150.6 166.407 151.021V151.697C166.407 152.274 166.506 152.763 166.705 153.164C166.907 153.561 167.187 153.865 167.545 154.073C167.903 154.279 168.319 154.382 168.793 154.382C169.101 154.382 169.38 154.339 169.628 154.252C169.88 154.163 170.097 154.03 170.28 153.855C170.462 153.676 170.603 153.454 170.702 153.189L171.836 153.507C171.716 153.891 171.516 154.229 171.234 154.521C170.952 154.809 170.604 155.035 170.19 155.197C169.776 155.356 169.31 155.436 168.793 155.436ZM173.74 155.277V147.64H174.873V148.833H174.973C175.132 148.426 175.389 148.109 175.743 147.884C176.098 147.655 176.524 147.541 177.021 147.541C177.525 147.541 177.944 147.655 178.279 147.884C178.617 148.109 178.881 148.426 179.069 148.833H179.149C179.345 148.439 179.638 148.126 180.029 147.894C180.42 147.658 180.889 147.541 181.436 147.541C182.119 147.541 182.677 147.755 183.111 148.182C183.546 148.606 183.763 149.268 183.763 150.166V155.277H182.589V150.166C182.589 149.602 182.435 149.2 182.127 148.958C181.819 148.716 181.456 148.595 181.038 148.595C180.501 148.595 180.085 148.757 179.79 149.082C179.495 149.404 179.348 149.811 179.348 150.305V155.277H178.155V150.046C178.155 149.612 178.014 149.263 177.732 148.997C177.45 148.729 177.087 148.595 176.643 148.595C176.338 148.595 176.053 148.676 175.788 148.838C175.526 149.001 175.314 149.226 175.152 149.515C174.993 149.8 174.913 150.129 174.913 150.504V155.277H173.74ZM189.11 155.436C188.374 155.436 187.739 155.273 187.205 154.948C186.675 154.62 186.266 154.163 185.977 153.576C185.692 152.986 185.55 152.3 185.55 151.518C185.55 150.736 185.692 150.046 185.977 149.45C186.266 148.85 186.667 148.383 187.181 148.048C187.698 147.71 188.301 147.541 188.99 147.541C189.388 147.541 189.781 147.607 190.169 147.74C190.556 147.872 190.909 148.088 191.227 148.386C191.546 148.681 191.799 149.072 191.988 149.559C192.177 150.046 192.271 150.646 192.271 151.359V151.856H186.385V150.842H191.078C191.078 150.411 190.992 150.027 190.82 149.689C190.651 149.35 190.409 149.084 190.094 148.888C189.782 148.693 189.414 148.595 188.99 148.595C188.523 148.595 188.119 148.711 187.777 148.943C187.439 149.171 187.179 149.47 186.997 149.838C186.814 150.206 186.723 150.6 186.723 151.021V151.697C186.723 152.274 186.823 152.763 187.021 153.164C187.224 153.561 187.504 153.865 187.862 154.073C188.22 154.279 188.636 154.382 189.11 154.382C189.418 154.382 189.696 154.339 189.945 154.252C190.197 154.163 190.414 154.03 190.596 153.855C190.778 153.676 190.919 153.454 191.019 153.189L192.152 153.507C192.033 153.891 191.832 154.229 191.551 154.521C191.269 154.809 190.921 155.035 190.507 155.197C190.092 155.356 189.627 155.436 189.11 155.436Z" fill="#486581"/>
<rect x="102.25" y="168.777" width="143" height="38.6431" rx="3.46431" fill="#FAFCFE"/>
<rect x="102.25" y="168.777" width="143" height="38.6431" rx="3.46431" stroke="#C9D4DE"/>
<path d="M121.324 192.098H118.655V183.449H121.442C122.281 183.449 122.999 183.622 123.596 183.968C124.193 184.312 124.65 184.806 124.969 185.451C125.287 186.093 125.446 186.861 125.446 187.757C125.446 188.658 125.285 189.433 124.964 190.084C124.643 190.731 124.176 191.23 123.562 191.579C122.948 191.925 122.202 192.098 121.324 192.098ZM119.702 191.169H121.256C121.971 191.169 122.564 191.031 123.034 190.755C123.504 190.479 123.855 190.086 124.086 189.577C124.317 189.067 124.432 188.46 124.432 187.757C124.432 187.058 124.318 186.457 124.09 185.953C123.862 185.446 123.521 185.058 123.068 184.788C122.615 184.514 122.05 184.378 121.374 184.378H119.702V191.169ZM129.787 192.233C129.162 192.233 128.623 192.095 128.17 191.819C127.719 191.541 127.372 191.152 127.127 190.654C126.885 190.153 126.763 189.57 126.763 188.905C126.763 188.241 126.885 187.655 127.127 187.148C127.372 186.639 127.712 186.242 128.149 185.957C128.588 185.67 129.1 185.527 129.686 185.527C130.024 185.527 130.358 185.583 130.687 185.696C131.016 185.808 131.316 185.991 131.587 186.245C131.857 186.495 132.072 186.827 132.233 187.241C132.393 187.655 132.473 188.165 132.473 188.77V189.192H127.473V188.331H131.46C131.46 187.965 131.387 187.638 131.24 187.351C131.097 187.064 130.891 186.837 130.624 186.671C130.359 186.505 130.046 186.422 129.686 186.422C129.289 186.422 128.946 186.521 128.656 186.718C128.368 186.912 128.147 187.165 127.992 187.478C127.838 187.79 127.76 188.125 127.76 188.483V189.057C127.76 189.547 127.845 189.963 128.014 190.303C128.185 190.641 128.423 190.899 128.727 191.076C129.031 191.251 129.385 191.338 129.787 191.338C130.049 191.338 130.286 191.301 130.497 191.228C130.711 191.152 130.895 191.039 131.05 190.89C131.205 190.738 131.325 190.55 131.409 190.324L132.372 190.595C132.271 190.921 132.1 191.208 131.861 191.456C131.622 191.701 131.326 191.893 130.974 192.031C130.622 192.166 130.227 192.233 129.787 192.233ZM136.878 185.611V186.456H133.381V185.611H136.878ZM134.429 192.098V184.716C134.429 184.344 134.516 184.034 134.691 183.787C134.865 183.539 135.092 183.353 135.371 183.229C135.649 183.105 135.944 183.043 136.253 183.043C136.498 183.043 136.698 183.063 136.853 183.102C137.008 183.142 137.123 183.178 137.199 183.212L136.912 184.074C136.861 184.057 136.791 184.036 136.701 184.01C136.614 183.985 136.498 183.972 136.355 183.972C136.025 183.972 135.787 184.055 135.641 184.222C135.497 184.388 135.426 184.631 135.426 184.952V192.098H134.429ZM139.998 192.25C139.587 192.25 139.214 192.173 138.879 192.018C138.544 191.86 138.278 191.634 138.081 191.338C137.884 191.039 137.785 190.679 137.785 190.257C137.785 189.885 137.859 189.584 138.005 189.353C138.151 189.119 138.347 188.936 138.592 188.804C138.837 188.672 139.107 188.573 139.403 188.508C139.701 188.441 140.001 188.387 140.302 188.348C140.697 188.297 141.016 188.259 141.261 188.234C141.509 188.206 141.689 188.159 141.802 188.094C141.917 188.03 141.975 187.917 141.975 187.757V187.723C141.975 187.306 141.861 186.982 141.633 186.751C141.408 186.521 141.065 186.405 140.607 186.405C140.131 186.405 139.758 186.509 139.487 186.718C139.217 186.926 139.027 187.148 138.917 187.385L137.971 187.047C138.14 186.653 138.365 186.346 138.647 186.126C138.931 185.904 139.241 185.749 139.576 185.662C139.914 185.572 140.246 185.527 140.573 185.527C140.781 185.527 141.02 185.552 141.291 185.603C141.564 185.651 141.827 185.75 142.08 185.902C142.337 186.055 142.549 186.284 142.718 186.591C142.887 186.898 142.972 187.309 142.972 187.824V192.098H141.975V191.22H141.924C141.857 191.36 141.744 191.511 141.586 191.672C141.429 191.832 141.219 191.969 140.957 192.081C140.695 192.194 140.376 192.25 139.998 192.25ZM140.15 191.355C140.545 191.355 140.877 191.277 141.147 191.123C141.42 190.968 141.626 190.768 141.764 190.523C141.904 190.278 141.975 190.02 141.975 189.75V188.838C141.933 188.888 141.84 188.935 141.696 188.977C141.555 189.017 141.392 189.052 141.206 189.083C141.023 189.111 140.844 189.136 140.67 189.159C140.498 189.178 140.359 189.195 140.252 189.209C139.993 189.243 139.751 189.298 139.525 189.374C139.303 189.447 139.123 189.559 138.985 189.708C138.85 189.854 138.782 190.054 138.782 190.307C138.782 190.654 138.91 190.916 139.166 191.093C139.425 191.268 139.753 191.355 140.15 191.355ZM148.879 189.446V185.611H149.876V192.098H148.879V191H148.811C148.659 191.329 148.423 191.61 148.102 191.841C147.781 192.069 147.375 192.183 146.886 192.183C146.48 192.183 146.12 192.094 145.804 191.917C145.489 191.736 145.241 191.466 145.061 191.106C144.881 190.742 144.791 190.285 144.791 189.733V185.611H145.787V189.665C145.787 190.139 145.92 190.516 146.184 190.797C146.452 191.079 146.793 191.22 147.207 191.22C147.454 191.22 147.706 191.156 147.963 191.03C148.222 190.903 148.438 190.709 148.613 190.447C148.79 190.185 148.879 189.851 148.879 189.446ZM152.698 183.449V192.098H151.701V183.449H152.698ZM157.345 185.611V186.456H153.983V185.611H157.345ZM154.963 184.057H155.959V190.24C155.959 190.521 156 190.733 156.082 190.873C156.166 191.011 156.273 191.104 156.403 191.152C156.535 191.197 156.675 191.22 156.821 191.22C156.931 191.22 157.021 191.214 157.091 191.203C157.162 191.189 157.218 191.177 157.26 191.169L157.463 192.064C157.395 192.09 157.301 192.115 157.18 192.14C157.059 192.169 156.905 192.183 156.72 192.183C156.438 192.183 156.162 192.122 155.892 192.001C155.624 191.88 155.402 191.696 155.225 191.448C155.05 191.2 154.963 190.887 154.963 190.51V184.057ZM162.324 192.098V183.449H165.348C165.95 183.449 166.447 183.553 166.839 183.761C167.23 183.967 167.522 184.244 167.713 184.593C167.904 184.94 168 185.324 168 185.746C168 186.118 167.934 186.425 167.802 186.667C167.672 186.909 167.5 187.101 167.286 187.241C167.075 187.382 166.846 187.486 166.598 187.554V187.638C166.863 187.655 167.129 187.748 167.396 187.917C167.664 188.086 167.888 188.328 168.068 188.643C168.248 188.959 168.338 189.345 168.338 189.801C168.338 190.234 168.239 190.624 168.042 190.971C167.845 191.317 167.534 191.591 167.109 191.794C166.684 191.997 166.131 192.098 165.449 192.098H162.324ZM163.371 191.169H165.449C166.133 191.169 166.619 191.037 166.906 190.772C167.196 190.505 167.341 190.181 167.341 189.801C167.341 189.508 167.267 189.238 167.117 188.99C166.968 188.739 166.756 188.539 166.48 188.39C166.204 188.238 165.877 188.162 165.5 188.162H163.371V191.169ZM163.371 187.25H165.314C165.629 187.25 165.914 187.188 166.167 187.064C166.423 186.94 166.626 186.765 166.775 186.54C166.927 186.315 167.003 186.05 167.003 185.746C167.003 185.366 166.871 185.044 166.606 184.779C166.342 184.512 165.922 184.378 165.348 184.378H163.371V187.25ZM170.921 183.449V192.098H169.924V183.449H170.921ZM176.834 189.446V185.611H177.831V192.098H176.834V191H176.767C176.615 191.329 176.378 191.61 176.057 191.841C175.736 192.069 175.331 192.183 174.841 192.183C174.435 192.183 174.075 192.094 173.76 191.917C173.444 191.736 173.197 191.466 173.016 191.106C172.836 190.742 172.746 190.285 172.746 189.733V185.611H173.743V189.665C173.743 190.139 173.875 190.516 174.14 190.797C174.407 191.079 174.748 191.22 175.162 191.22C175.41 191.22 175.662 191.156 175.918 191.03C176.177 190.903 176.394 190.709 176.568 190.447C176.746 190.185 176.834 189.851 176.834 189.446ZM182.376 192.233C181.751 192.233 181.212 192.095 180.759 191.819C180.308 191.541 179.961 191.152 179.716 190.654C179.474 190.153 179.353 189.57 179.353 188.905C179.353 188.241 179.474 187.655 179.716 187.148C179.961 186.639 180.301 186.242 180.738 185.957C181.177 185.67 181.689 185.527 182.275 185.527C182.613 185.527 182.947 185.583 183.276 185.696C183.605 185.808 183.905 185.991 184.176 186.245C184.446 186.495 184.661 186.827 184.822 187.241C184.982 187.655 185.062 188.165 185.062 188.77V189.192H180.062V188.331H184.049C184.049 187.965 183.976 187.638 183.829 187.351C183.686 187.064 183.48 186.837 183.213 186.671C182.948 186.505 182.635 186.422 182.275 186.422C181.878 186.422 181.535 186.521 181.245 186.718C180.957 186.912 180.736 187.165 180.582 187.478C180.427 187.79 180.349 188.125 180.349 188.483V189.057C180.349 189.547 180.434 189.963 180.603 190.303C180.774 190.641 181.012 190.899 181.316 191.076C181.62 191.251 181.974 191.338 182.376 191.338C182.638 191.338 182.875 191.301 183.086 191.228C183.3 191.152 183.484 191.039 183.639 190.89C183.794 190.738 183.914 190.55 183.998 190.324L184.961 190.595C184.86 190.921 184.689 191.208 184.45 191.456C184.211 191.701 183.915 191.893 183.563 192.031C183.211 192.166 182.816 192.233 182.376 192.233Z" fill="#486581"/>
<path d="M222.254 184.424L218 188.679L213.745 184.424L212.344 185.826L218 191.482L223.656 185.826L222.254 184.424Z" fill="#829AB1"/>
<path d="M287.176 148.277H285.943C285.87 147.922 285.743 147.61 285.56 147.342C285.381 147.073 285.163 146.848 284.904 146.666C284.649 146.48 284.366 146.341 284.054 146.248C283.742 146.155 283.418 146.109 283.08 146.109C282.463 146.109 281.905 146.265 281.404 146.576C280.907 146.888 280.511 147.347 280.216 147.953C279.924 148.56 279.778 149.304 279.778 150.186C279.778 151.067 279.924 151.811 280.216 152.418C280.511 153.024 280.907 153.484 281.404 153.795C281.905 154.107 282.463 154.262 283.08 154.262C283.418 154.262 283.742 154.216 284.054 154.123C284.366 154.03 284.649 153.893 284.904 153.711C285.163 153.525 285.381 153.298 285.56 153.029C285.743 152.758 285.87 152.446 285.943 152.095H287.176C287.083 152.615 286.914 153.081 286.669 153.492C286.424 153.903 286.119 154.252 285.754 154.541C285.39 154.826 284.98 155.043 284.526 155.192C284.076 155.341 283.593 155.416 283.08 155.416C282.211 155.416 281.439 155.204 280.763 154.779C280.087 154.355 279.555 153.752 279.167 152.97C278.779 152.188 278.585 151.26 278.585 150.186C278.585 149.112 278.779 148.184 279.167 147.402C279.555 146.619 280.087 146.016 280.763 145.592C281.439 145.168 282.211 144.956 283.08 144.956C283.593 144.956 284.076 145.03 284.526 145.179C284.98 145.328 285.39 145.547 285.754 145.836C286.119 146.121 286.424 146.469 286.669 146.88C286.914 147.287 287.083 147.753 287.176 148.277ZM292.112 155.436C291.422 155.436 290.817 155.272 290.297 154.944C289.78 154.615 289.376 154.156 289.084 153.566C288.796 152.976 288.651 152.287 288.651 151.498C288.651 150.703 288.796 150.008 289.084 149.415C289.376 148.822 289.78 148.361 290.297 148.033C290.817 147.705 291.422 147.541 292.112 147.541C292.801 147.541 293.404 147.705 293.921 148.033C294.442 148.361 294.846 148.822 295.134 149.415C295.426 150.008 295.572 150.703 295.572 151.498C295.572 152.287 295.426 152.976 295.134 153.566C294.846 154.156 294.442 154.615 293.921 154.944C293.404 155.272 292.801 155.436 292.112 155.436ZM292.112 154.382C292.635 154.382 293.066 154.247 293.404 153.979C293.742 153.711 293.993 153.358 294.155 152.92C294.317 152.483 294.399 152.009 294.399 151.498C294.399 150.988 294.317 150.512 294.155 150.071C293.993 149.631 293.742 149.274 293.404 149.002C293.066 148.731 292.635 148.595 292.112 148.595C291.588 148.595 291.157 148.731 290.819 149.002C290.481 149.274 290.231 149.631 290.068 150.071C289.906 150.512 289.825 150.988 289.825 151.498C289.825 152.009 289.906 152.483 290.068 152.92C290.231 153.358 290.481 153.711 290.819 153.979C291.157 154.247 291.588 154.382 292.112 154.382ZM297.363 155.277V147.64H298.496V148.833H298.596C298.755 148.426 299.012 148.109 299.366 147.884C299.721 147.655 300.147 147.541 300.644 147.541C301.148 147.541 301.567 147.655 301.902 147.884C302.24 148.109 302.504 148.426 302.692 148.833H302.772C302.968 148.439 303.261 148.126 303.652 147.894C304.043 147.658 304.512 147.541 305.059 147.541C305.742 147.541 306.3 147.755 306.734 148.182C307.169 148.606 307.386 149.268 307.386 150.166V155.277H306.212V150.166C306.212 149.602 306.058 149.2 305.75 148.958C305.442 148.716 305.079 148.595 304.661 148.595C304.124 148.595 303.708 148.757 303.413 149.082C303.118 149.404 302.971 149.811 302.971 150.305V155.277H301.778V150.046C301.778 149.612 301.637 149.263 301.355 148.997C301.073 148.729 300.71 148.595 300.266 148.595C299.961 148.595 299.676 148.676 299.411 148.838C299.149 149.001 298.937 149.226 298.775 149.515C298.616 149.8 298.536 150.129 298.536 150.504V155.277H297.363ZM309.531 158.14V147.64H310.664V148.853H310.804C310.89 148.721 311.009 148.552 311.162 148.346C311.317 148.137 311.539 147.952 311.828 147.789C312.119 147.624 312.514 147.541 313.011 147.541C313.654 147.541 314.221 147.702 314.711 148.023C315.202 148.345 315.585 148.8 315.86 149.39C316.135 149.98 316.272 150.676 316.272 151.478C316.272 152.287 316.135 152.988 315.86 153.581C315.585 154.171 315.203 154.629 314.716 154.953C314.229 155.275 313.667 155.436 313.031 155.436C312.54 155.436 312.148 155.354 311.853 155.192C311.558 155.026 311.331 154.839 311.172 154.63C311.012 154.418 310.89 154.243 310.804 154.103H310.704V158.14H309.531ZM310.684 151.458C310.684 152.035 310.769 152.544 310.938 152.985C311.107 153.422 311.354 153.765 311.679 154.014C312.003 154.259 312.401 154.382 312.872 154.382C313.362 154.382 313.772 154.252 314.1 153.994C314.431 153.732 314.68 153.381 314.846 152.94C315.015 152.496 315.099 152.002 315.099 151.458C315.099 150.921 315.016 150.438 314.85 150.007C314.688 149.573 314.441 149.229 314.11 148.978C313.782 148.722 313.369 148.595 312.872 148.595C312.395 148.595 311.993 148.716 311.669 148.958C311.344 149.196 311.099 149.531 310.933 149.962C310.767 150.39 310.684 150.888 310.684 151.458ZM320.309 155.456C319.825 155.456 319.386 155.364 318.992 155.182C318.597 154.997 318.284 154.73 318.052 154.382C317.82 154.03 317.704 153.606 317.704 153.109C317.704 152.671 317.79 152.317 317.963 152.045C318.135 151.77 318.365 151.555 318.654 151.399C318.942 151.243 319.26 151.127 319.608 151.051C319.96 150.971 320.313 150.908 320.667 150.862C321.131 150.802 321.507 150.757 321.796 150.728C322.087 150.694 322.3 150.64 322.432 150.564C322.568 150.487 322.636 150.355 322.636 150.166V150.126C322.636 149.636 322.502 149.254 322.233 148.983C321.968 148.711 321.565 148.575 321.025 148.575C320.465 148.575 320.026 148.698 319.708 148.943C319.39 149.188 319.166 149.45 319.037 149.728L317.923 149.331C318.122 148.867 318.387 148.505 318.718 148.247C319.053 147.985 319.418 147.803 319.812 147.7C320.21 147.594 320.601 147.541 320.985 147.541C321.231 147.541 321.512 147.571 321.831 147.63C322.152 147.687 322.462 147.804 322.76 147.983C323.062 148.162 323.312 148.432 323.511 148.794C323.71 149.155 323.809 149.639 323.809 150.245V155.277H322.636V154.243H322.576C322.497 154.408 322.364 154.586 322.179 154.774C321.993 154.963 321.746 155.124 321.438 155.257C321.13 155.389 320.753 155.456 320.309 155.456ZM320.488 154.402C320.952 154.402 321.343 154.31 321.662 154.128C321.983 153.946 322.225 153.711 322.387 153.422C322.553 153.134 322.636 152.831 322.636 152.512V151.439C322.586 151.498 322.477 151.553 322.308 151.603C322.142 151.649 321.95 151.69 321.731 151.727C321.516 151.76 321.305 151.79 321.1 151.816C320.898 151.84 320.734 151.859 320.608 151.876C320.303 151.916 320.018 151.98 319.752 152.07C319.491 152.156 319.279 152.287 319.116 152.463C318.957 152.635 318.877 152.87 318.877 153.169C318.877 153.576 319.028 153.885 319.33 154.093C319.635 154.299 320.021 154.402 320.488 154.402ZM327.124 150.683V155.277H325.951V147.64H327.084V148.833H327.184C327.363 148.446 327.635 148.134 327.999 147.899C328.364 147.66 328.834 147.541 329.411 147.541C329.928 147.541 330.381 147.647 330.768 147.859C331.156 148.068 331.458 148.386 331.673 148.814C331.889 149.238 331.996 149.775 331.996 150.424V155.277H330.823V150.504C330.823 149.904 330.667 149.437 330.356 149.102C330.044 148.764 329.617 148.595 329.073 148.595C328.698 148.595 328.364 148.676 328.069 148.838C327.777 149.001 327.547 149.238 327.378 149.549C327.209 149.861 327.124 150.239 327.124 150.683ZM334.623 158.14C334.424 158.14 334.246 158.124 334.091 158.091C333.935 158.061 333.827 158.031 333.767 158.001L334.066 156.967C334.351 157.04 334.603 157.066 334.821 157.046C335.04 157.027 335.234 156.929 335.403 156.753C335.575 156.581 335.733 156.301 335.875 155.913L336.094 155.316L333.27 147.64H334.543L336.651 153.725H336.73L338.838 147.64H340.111L336.87 156.39C336.724 156.785 336.543 157.111 336.328 157.37C336.112 157.631 335.862 157.825 335.577 157.951C335.295 158.077 334.977 158.14 334.623 158.14ZM346.771 145.095V155.277H345.597V145.095H346.771ZM352.022 155.436C351.332 155.436 350.728 155.272 350.207 154.944C349.69 154.615 349.286 154.156 348.994 153.566C348.706 152.976 348.562 152.287 348.562 151.498C348.562 150.703 348.706 150.008 348.994 149.415C349.286 148.822 349.69 148.361 350.207 148.033C350.728 147.705 351.332 147.541 352.022 147.541C352.711 147.541 353.314 147.705 353.831 148.033C354.352 148.361 354.756 148.822 355.045 149.415C355.336 150.008 355.482 150.703 355.482 151.498C355.482 152.287 355.336 152.976 355.045 153.566C354.756 154.156 354.352 154.615 353.831 154.944C353.314 155.272 352.711 155.436 352.022 155.436ZM352.022 154.382C352.546 154.382 352.976 154.247 353.314 153.979C353.653 153.711 353.903 153.358 354.065 152.92C354.228 152.483 354.309 152.009 354.309 151.498C354.309 150.988 354.228 150.512 354.065 150.071C353.903 149.631 353.653 149.274 353.314 149.002C352.976 148.731 352.546 148.595 352.022 148.595C351.498 148.595 351.067 148.731 350.729 149.002C350.391 149.274 350.141 149.631 349.979 150.071C349.816 150.512 349.735 150.988 349.735 151.498C349.735 152.009 349.816 152.483 349.979 152.92C350.141 153.358 350.391 153.711 350.729 153.979C351.067 154.247 351.498 154.382 352.022 154.382ZM360.355 158.299C359.789 158.299 359.301 158.226 358.894 158.081C358.486 157.938 358.146 157.749 357.875 157.514C357.606 157.282 357.392 157.033 357.233 156.768L358.168 156.112C358.274 156.251 358.408 156.41 358.571 156.589C358.733 156.771 358.955 156.929 359.237 157.061C359.522 157.197 359.895 157.265 360.355 157.265C360.972 157.265 361.481 157.116 361.882 156.818C362.283 156.52 362.483 156.052 362.483 155.416V153.865H362.384C362.298 154.004 362.175 154.176 362.016 154.382C361.86 154.584 361.635 154.765 361.34 154.924C361.048 155.079 360.654 155.157 360.157 155.157C359.54 155.157 358.987 155.011 358.496 154.72C358.009 154.428 357.623 154.004 357.338 153.447C357.056 152.89 356.915 152.214 356.915 151.419C356.915 150.636 357.053 149.955 357.328 149.375C357.603 148.792 357.986 148.341 358.476 148.023C358.967 147.702 359.533 147.541 360.176 147.541C360.674 147.541 361.068 147.624 361.36 147.789C361.655 147.952 361.88 148.137 362.036 148.346C362.195 148.552 362.318 148.721 362.404 148.853H362.523V147.64H363.657V155.495C363.657 156.152 363.507 156.685 363.209 157.096C362.914 157.511 362.516 157.814 362.016 158.006C361.519 158.202 360.965 158.299 360.355 158.299ZM360.316 154.103C360.786 154.103 361.184 153.996 361.509 153.78C361.834 153.565 362.081 153.255 362.25 152.85C362.419 152.446 362.503 151.962 362.503 151.399C362.503 150.849 362.42 150.363 362.255 149.942C362.089 149.521 361.844 149.191 361.519 148.953C361.194 148.714 360.793 148.595 360.316 148.595C359.819 148.595 359.404 148.721 359.073 148.973C358.745 149.225 358.498 149.563 358.332 149.987C358.17 150.411 358.088 150.882 358.088 151.399C358.088 151.929 358.171 152.398 358.337 152.806C358.506 153.21 358.755 153.528 359.083 153.76C359.414 153.989 359.825 154.103 360.316 154.103ZM368.907 155.436C368.217 155.436 367.612 155.272 367.092 154.944C366.575 154.615 366.171 154.156 365.879 153.566C365.591 152.976 365.446 152.287 365.446 151.498C365.446 150.703 365.591 150.008 365.879 149.415C366.171 148.822 366.575 148.361 367.092 148.033C367.612 147.705 368.217 147.541 368.907 147.541C369.596 147.541 370.199 147.705 370.716 148.033C371.237 148.361 371.641 148.822 371.929 149.415C372.221 150.008 372.367 150.703 372.367 151.498C372.367 152.287 372.221 152.976 371.929 153.566C371.641 154.156 371.237 154.615 370.716 154.944C370.199 155.272 369.596 155.436 368.907 155.436ZM368.907 154.382C369.43 154.382 369.861 154.247 370.199 153.979C370.537 153.711 370.788 153.358 370.95 152.92C371.112 152.483 371.194 152.009 371.194 151.498C371.194 150.988 371.112 150.512 370.95 150.071C370.788 149.631 370.537 149.274 370.199 149.002C369.861 148.731 369.43 148.595 368.907 148.595C368.383 148.595 367.952 148.731 367.614 149.002C367.276 149.274 367.026 149.631 366.863 150.071C366.701 150.512 366.62 150.988 366.62 151.498C366.62 152.009 366.701 152.483 366.863 152.92C367.026 153.358 367.276 153.711 367.614 153.979C367.952 154.247 368.383 154.382 368.907 154.382Z" fill="#486581"/>
<rect x="278.135" y="168.661" width="56.6238" height="56.6238" rx="28.3119" fill="#FAFCFE"/>
<rect x="278.135" y="168.661" width="56.6238" height="56.6238" rx="28.3119" stroke="#C9D4DE" stroke-width="0.769738"/>
<path d="M296.354 191.973H295.246L298.45 183.246H299.541L302.746 191.973H301.638L299.03 184.627H298.962L296.354 191.973ZM296.763 188.564H301.229V189.502H296.763V188.564ZM306.44 192.11C305.895 192.11 305.413 191.972 304.996 191.696C304.578 191.418 304.251 191.026 304.016 190.52C303.78 190.012 303.662 189.411 303.662 188.718C303.662 188.03 303.78 187.434 304.016 186.928C304.251 186.422 304.58 186.032 305 185.756C305.42 185.48 305.906 185.343 306.457 185.343C306.884 185.343 307.22 185.414 307.467 185.556C307.717 185.695 307.908 185.854 308.038 186.033C308.172 186.209 308.276 186.354 308.349 186.468H308.435V183.246H309.44V191.973H308.469V190.968H308.349C308.276 191.087 308.17 191.238 308.034 191.419C307.898 191.598 307.703 191.759 307.45 191.901C307.197 192.04 306.861 192.11 306.44 192.11ZM306.577 191.206C306.98 191.206 307.321 191.101 307.599 190.891C307.878 190.678 308.09 190.384 308.234 190.009C308.379 189.631 308.452 189.195 308.452 188.701C308.452 188.212 308.381 187.784 308.239 187.418C308.097 187.049 307.886 186.762 307.608 186.557C307.33 186.35 306.986 186.246 306.577 186.246C306.151 186.246 305.795 186.355 305.511 186.574C305.23 186.79 305.018 187.084 304.876 187.456C304.737 187.826 304.668 188.24 304.668 188.701C304.668 189.167 304.739 189.59 304.881 189.971C305.026 190.348 305.239 190.65 305.52 190.874C305.804 191.096 306.156 191.206 306.577 191.206ZM313.893 192.11C313.348 192.11 312.867 191.972 312.449 191.696C312.031 191.418 311.705 191.026 311.469 190.52C311.233 190.012 311.115 189.411 311.115 188.718C311.115 188.03 311.233 187.434 311.469 186.928C311.705 186.422 312.033 186.032 312.453 185.756C312.874 185.48 313.359 185.343 313.911 185.343C314.337 185.343 314.673 185.414 314.92 185.556C315.17 185.695 315.361 185.854 315.492 186.033C315.625 186.209 315.729 186.354 315.803 186.468H315.888V183.246H316.893V191.973H315.922V190.968H315.803C315.729 191.087 315.624 191.238 315.487 191.419C315.351 191.598 315.156 191.759 314.903 191.901C314.651 192.04 314.314 192.11 313.893 192.11ZM314.03 191.206C314.433 191.206 314.774 191.101 315.053 190.891C315.331 190.678 315.543 190.384 315.688 190.009C315.832 189.631 315.905 189.195 315.905 188.701C315.905 188.212 315.834 187.784 315.692 187.418C315.55 187.049 315.34 186.762 315.061 186.557C314.783 186.35 314.439 186.246 314.03 186.246C313.604 186.246 313.249 186.355 312.965 186.574C312.683 186.79 312.472 187.084 312.33 187.456C312.19 187.826 312.121 188.24 312.121 188.701C312.121 189.167 312.192 189.59 312.334 189.971C312.479 190.348 312.692 190.65 312.973 190.874C313.257 191.096 313.609 191.206 314.03 191.206ZM293.312 209.973V201.246H294.369V209.036H298.426V209.973H293.312ZM302.585 210.11C301.994 210.11 301.476 209.969 301.03 209.688C300.586 209.407 300.24 209.013 299.99 208.507C299.743 208.002 299.619 207.411 299.619 206.735C299.619 206.053 299.743 205.458 299.99 204.949C300.24 204.441 300.586 204.046 301.03 203.765C301.476 203.483 301.994 203.343 302.585 203.343C303.176 203.343 303.693 203.483 304.136 203.765C304.582 204.046 304.929 204.441 305.176 204.949C305.426 205.458 305.551 206.053 305.551 206.735C305.551 207.411 305.426 208.002 305.176 208.507C304.929 209.013 304.582 209.407 304.136 209.688C303.693 209.969 303.176 210.11 302.585 210.11ZM302.585 209.206C303.034 209.206 303.403 209.091 303.693 208.861C303.983 208.631 304.197 208.329 304.336 207.954C304.476 207.579 304.545 207.172 304.545 206.735C304.545 206.297 304.476 205.89 304.336 205.512C304.197 205.134 303.983 204.829 303.693 204.596C303.403 204.363 303.034 204.246 302.585 204.246C302.136 204.246 301.767 204.363 301.477 204.596C301.187 204.829 300.973 205.134 300.833 205.512C300.694 205.89 300.625 206.297 300.625 206.735C300.625 207.172 300.694 207.579 300.833 207.954C300.973 208.329 301.187 208.631 301.477 208.861C301.767 209.091 302.136 209.206 302.585 209.206ZM309.728 212.564C309.242 212.564 308.825 212.502 308.475 212.377C308.126 212.255 307.835 212.093 307.602 211.891C307.371 211.692 307.188 211.479 307.052 211.252L307.853 210.689C307.944 210.809 308.059 210.945 308.198 211.098C308.337 211.255 308.528 211.39 308.769 211.503C309.014 211.62 309.333 211.678 309.728 211.678C310.256 211.678 310.693 211.55 311.036 211.294C311.38 211.039 311.552 210.638 311.552 210.093V208.763H311.467C311.393 208.882 311.288 209.03 311.151 209.206C311.018 209.38 310.825 209.534 310.572 209.671C310.322 209.804 309.984 209.871 309.558 209.871C309.029 209.871 308.555 209.746 308.134 209.496C307.717 209.246 307.386 208.882 307.141 208.405C306.9 207.928 306.779 207.348 306.779 206.667C306.779 205.996 306.897 205.412 307.133 204.915C307.369 204.415 307.697 204.029 308.117 203.756C308.538 203.48 309.023 203.343 309.575 203.343C310.001 203.343 310.339 203.414 310.589 203.556C310.842 203.695 311.035 203.854 311.168 204.033C311.305 204.209 311.41 204.354 311.484 204.468H311.586V203.428H312.558V210.161C312.558 210.723 312.43 211.181 312.174 211.533C311.921 211.888 311.58 212.148 311.151 212.313C310.725 212.48 310.251 212.564 309.728 212.564ZM309.694 208.968C310.097 208.968 310.438 208.875 310.717 208.691C310.995 208.506 311.207 208.24 311.352 207.894C311.496 207.547 311.569 207.132 311.569 206.65C311.569 206.178 311.498 205.762 311.356 205.401C311.214 205.04 311.004 204.757 310.725 204.553C310.447 204.348 310.103 204.246 309.694 204.246C309.268 204.246 308.913 204.354 308.629 204.57C308.347 204.786 308.136 205.076 307.994 205.439C307.854 205.803 307.785 206.206 307.785 206.65C307.785 207.104 307.856 207.506 307.998 207.855C308.143 208.202 308.356 208.475 308.637 208.674C308.921 208.87 309.273 208.968 309.694 208.968ZM317.058 210.11C316.467 210.11 315.948 209.969 315.502 209.688C315.059 209.407 314.712 209.013 314.462 208.507C314.215 208.002 314.092 207.411 314.092 206.735C314.092 206.053 314.215 205.458 314.462 204.949C314.712 204.441 315.059 204.046 315.502 203.765C315.948 203.483 316.467 203.343 317.058 203.343C317.648 203.343 318.166 203.483 318.609 203.765C319.055 204.046 319.401 204.441 319.648 204.949C319.898 205.458 320.023 206.053 320.023 206.735C320.023 207.411 319.898 208.002 319.648 208.507C319.401 209.013 319.055 209.407 318.609 209.688C318.166 209.969 317.648 210.11 317.058 210.11ZM317.058 209.206C317.506 209.206 317.876 209.091 318.166 208.861C318.455 208.631 318.67 208.329 318.809 207.954C318.948 207.579 319.018 207.172 319.018 206.735C319.018 206.297 318.948 205.89 318.809 205.512C318.67 205.134 318.455 204.829 318.166 204.596C317.876 204.363 317.506 204.246 317.058 204.246C316.609 204.246 316.239 204.363 315.95 204.596C315.66 204.829 315.445 205.134 315.306 205.512C315.167 205.89 315.097 206.297 315.097 206.735C315.097 207.172 315.167 207.579 315.306 207.954C315.445 208.329 315.66 208.631 315.95 208.861C316.239 209.091 316.609 209.206 317.058 209.206Z" fill="#486581"/>
<rect x="101.75" y="241.67" width="128" height="37" rx="18.5" fill="#2680C2"/>
<path d="M124.158 258.417C124.119 258.016 123.948 257.704 123.646 257.482C123.345 257.26 122.935 257.149 122.418 257.149C122.067 257.149 121.77 257.199 121.528 257.298C121.286 257.394 121.101 257.528 120.972 257.701C120.846 257.873 120.783 258.069 120.783 258.287C120.776 258.47 120.814 258.629 120.897 258.765C120.983 258.901 121.101 259.018 121.25 259.118C121.399 259.214 121.571 259.298 121.767 259.371C121.963 259.441 122.171 259.5 122.393 259.55L123.308 259.769C123.752 259.868 124.16 260.001 124.531 260.167C124.902 260.332 125.224 260.536 125.496 260.778C125.768 261.02 125.978 261.305 126.127 261.633C126.28 261.961 126.357 262.338 126.361 262.762C126.357 263.385 126.198 263.925 125.884 264.383C125.572 264.837 125.121 265.19 124.531 265.441C123.945 265.69 123.237 265.814 122.408 265.814C121.586 265.814 120.871 265.688 120.261 265.437C119.654 265.185 119.18 264.812 118.839 264.318C118.501 263.821 118.323 263.206 118.307 262.473H120.39C120.413 262.815 120.511 263.1 120.683 263.329C120.859 263.554 121.093 263.725 121.384 263.841C121.679 263.953 122.012 264.01 122.384 264.01C122.748 264.01 123.065 263.957 123.333 263.851C123.605 263.745 123.815 263.597 123.964 263.408C124.114 263.219 124.188 263.002 124.188 262.757C124.188 262.528 124.12 262.336 123.984 262.18C123.852 262.024 123.656 261.892 123.398 261.782C123.143 261.673 122.829 261.574 122.458 261.484L121.349 261.206C120.491 260.997 119.813 260.67 119.316 260.226C118.819 259.782 118.572 259.184 118.575 258.432C118.572 257.815 118.736 257.276 119.067 256.816C119.402 256.355 119.861 255.995 120.445 255.737C121.028 255.478 121.691 255.349 122.433 255.349C123.189 255.349 123.848 255.478 124.412 255.737C124.979 255.995 125.42 256.355 125.734 256.816C126.049 257.276 126.212 257.81 126.222 258.417H124.158ZM129.947 265.814C129.459 265.814 129.025 265.73 128.644 265.561C128.263 265.388 127.961 265.135 127.739 264.8C127.52 264.462 127.411 264.041 127.411 263.537C127.411 263.113 127.489 262.757 127.645 262.468C127.8 262.18 128.013 261.948 128.281 261.772C128.55 261.597 128.854 261.464 129.196 261.375C129.541 261.285 129.902 261.222 130.28 261.186C130.724 261.139 131.082 261.096 131.354 261.057C131.625 261.013 131.823 260.95 131.945 260.868C132.068 260.785 132.129 260.662 132.129 260.5V260.47C132.129 260.155 132.03 259.911 131.831 259.739C131.635 259.567 131.357 259.481 130.996 259.481C130.614 259.481 130.311 259.565 130.086 259.734C129.86 259.9 129.711 260.109 129.638 260.361L127.68 260.201C127.779 259.737 127.974 259.336 128.266 258.998C128.558 258.657 128.934 258.395 129.395 258.213C129.859 258.027 130.396 257.934 131.006 257.934C131.43 257.934 131.836 257.984 132.224 258.084C132.615 258.183 132.961 258.337 133.263 258.546C133.568 258.755 133.808 259.023 133.983 259.351C134.159 259.676 134.247 260.066 134.247 260.52V265.67H132.238V264.611H132.179C132.056 264.85 131.892 265.06 131.687 265.243C131.481 265.422 131.234 265.562 130.946 265.665C130.657 265.765 130.324 265.814 129.947 265.814ZM130.553 264.353C130.865 264.353 131.14 264.291 131.378 264.169C131.617 264.043 131.804 263.874 131.94 263.662C132.076 263.45 132.144 263.209 132.144 262.941V262.13C132.078 262.173 131.987 262.213 131.871 262.25C131.758 262.283 131.63 262.314 131.488 262.344C131.345 262.371 131.203 262.396 131.06 262.419C130.918 262.439 130.788 262.457 130.672 262.473C130.424 262.51 130.207 262.568 130.021 262.647C129.836 262.727 129.691 262.835 129.589 262.971C129.486 263.103 129.434 263.269 129.434 263.468C129.434 263.756 129.539 263.977 129.748 264.129C129.96 264.278 130.228 264.353 130.553 264.353ZM142.736 258.034L140.066 265.67H137.68L135.01 258.034H137.247L138.833 263.498H138.913L140.494 258.034H142.736ZM147.054 265.819C146.268 265.819 145.592 265.66 145.025 265.342C144.462 265.021 144.028 264.566 143.723 263.98C143.418 263.39 143.265 262.692 143.265 261.887C143.265 261.101 143.418 260.412 143.723 259.819C144.028 259.225 144.457 258.763 145.01 258.432C145.567 258.1 146.22 257.934 146.969 257.934C147.473 257.934 147.942 258.016 148.376 258.178C148.814 258.337 149.195 258.577 149.52 258.899C149.848 259.22 150.103 259.625 150.285 260.112C150.468 260.596 150.559 261.163 150.559 261.812V262.394H144.111V261.081H148.565C148.565 260.776 148.499 260.506 148.366 260.271C148.234 260.036 148.05 259.852 147.814 259.719C147.582 259.583 147.312 259.515 147.004 259.515C146.683 259.515 146.398 259.59 146.149 259.739C145.904 259.885 145.711 260.082 145.572 260.331C145.433 260.576 145.362 260.849 145.358 261.151V262.399C145.358 262.777 145.428 263.103 145.567 263.378C145.71 263.653 145.91 263.865 146.169 264.015C146.427 264.164 146.734 264.238 147.089 264.238C147.324 264.238 147.539 264.205 147.735 264.139C147.93 264.073 148.098 263.973 148.237 263.841C148.376 263.708 148.482 263.546 148.555 263.353L150.514 263.483C150.415 263.953 150.211 264.364 149.903 264.716C149.598 265.064 149.203 265.335 148.719 265.531C148.239 265.723 147.684 265.819 147.054 265.819ZM158.631 265.819C157.849 265.819 157.176 265.654 156.613 265.322C156.053 264.987 155.622 264.523 155.32 263.93C155.022 263.337 154.873 262.654 154.873 261.882C154.873 261.1 155.024 260.414 155.325 259.824C155.63 259.23 156.063 258.768 156.623 258.437C157.183 258.102 157.849 257.934 158.621 257.934C159.288 257.934 159.871 258.055 160.371 258.297C160.872 258.539 161.268 258.879 161.56 259.316C161.851 259.754 162.012 260.268 162.042 260.858H160.043C159.987 260.477 159.838 260.17 159.596 259.938C159.357 259.703 159.044 259.585 158.656 259.585C158.328 259.585 158.041 259.674 157.796 259.853C157.554 260.029 157.365 260.286 157.229 260.624C157.094 260.962 157.026 261.371 157.026 261.852C157.026 262.339 157.092 262.753 157.224 263.095C157.36 263.436 157.551 263.696 157.796 263.875C158.041 264.054 158.328 264.144 158.656 264.144C158.898 264.144 159.115 264.094 159.308 263.995C159.503 263.895 159.664 263.751 159.79 263.562C159.919 263.37 160.004 263.14 160.043 262.871H162.042C162.009 263.454 161.85 263.968 161.565 264.412C161.283 264.853 160.893 265.198 160.396 265.446C159.899 265.695 159.311 265.819 158.631 265.819ZM165.516 261.255V265.67H163.398V255.488H165.456V259.381H165.546C165.718 258.93 165.996 258.577 166.381 258.322C166.765 258.064 167.248 257.934 167.828 257.934C168.358 257.934 168.82 258.05 169.215 258.282C169.612 258.511 169.921 258.841 170.139 259.272C170.361 259.699 170.471 260.211 170.468 260.808V265.67H168.35V261.186C168.353 260.715 168.234 260.349 167.992 260.087C167.753 259.825 167.418 259.694 166.987 259.694C166.699 259.694 166.444 259.756 166.222 259.878C166.003 260.001 165.831 260.18 165.705 260.415C165.582 260.647 165.519 260.927 165.516 261.255ZM174.312 265.814C173.825 265.814 173.39 265.73 173.009 265.561C172.628 265.388 172.326 265.135 172.104 264.8C171.886 264.462 171.776 264.041 171.776 263.537C171.776 263.113 171.854 262.757 172.01 262.468C172.166 262.18 172.378 261.948 172.646 261.772C172.915 261.597 173.22 261.464 173.561 261.375C173.906 261.285 174.267 261.222 174.645 261.186C175.089 261.139 175.447 261.096 175.719 261.057C175.991 261.013 176.188 260.95 176.31 260.868C176.433 260.785 176.494 260.662 176.494 260.5V260.47C176.494 260.155 176.395 259.911 176.196 259.739C176 259.567 175.722 259.481 175.361 259.481C174.98 259.481 174.676 259.565 174.451 259.734C174.226 259.9 174.076 260.109 174.004 260.361L172.045 260.201C172.144 259.737 172.34 259.336 172.631 258.998C172.923 258.657 173.299 258.395 173.76 258.213C174.224 258.027 174.761 257.934 175.371 257.934C175.795 257.934 176.201 257.984 176.589 258.084C176.98 258.183 177.326 258.337 177.628 258.546C177.933 258.755 178.173 259.023 178.349 259.351C178.524 259.676 178.612 260.066 178.612 260.52V265.67H176.604V264.611H176.544C176.421 264.85 176.257 265.06 176.052 265.243C175.846 265.422 175.599 265.562 175.311 265.665C175.023 265.765 174.69 265.814 174.312 265.814ZM174.918 264.353C175.23 264.353 175.505 264.291 175.744 264.169C175.982 264.043 176.17 263.874 176.305 263.662C176.441 263.45 176.509 263.209 176.509 262.941V262.13C176.443 262.173 176.352 262.213 176.236 262.25C176.123 262.283 175.996 262.314 175.853 262.344C175.71 262.371 175.568 262.396 175.425 262.419C175.283 262.439 175.154 262.457 175.038 262.473C174.789 262.51 174.572 262.568 174.386 262.647C174.201 262.727 174.057 262.835 173.954 262.971C173.851 263.103 173.8 263.269 173.8 263.468C173.8 263.756 173.904 263.977 174.113 264.129C174.325 264.278 174.594 264.353 174.918 264.353ZM182.373 261.255V265.67H180.255V258.034H182.274V259.381H182.363C182.532 258.937 182.816 258.586 183.213 258.327C183.611 258.065 184.093 257.934 184.66 257.934C185.19 257.934 185.653 258.05 186.047 258.282C186.442 258.514 186.748 258.846 186.967 259.277C187.186 259.704 187.295 260.215 187.295 260.808V265.67H185.177V261.186C185.181 260.718 185.061 260.354 184.819 260.092C184.577 259.827 184.244 259.694 183.82 259.694C183.535 259.694 183.283 259.756 183.064 259.878C182.849 260.001 182.68 260.18 182.557 260.415C182.438 260.647 182.377 260.927 182.373 261.255ZM192.405 268.693C191.719 268.693 191.13 268.598 190.64 268.41C190.153 268.224 189.765 267.97 189.476 267.649C189.188 267.327 189.001 266.966 188.915 266.565L190.873 266.302C190.933 266.454 191.028 266.597 191.157 266.729C191.286 266.862 191.457 266.968 191.669 267.047C191.884 267.13 192.146 267.172 192.454 267.172C192.915 267.172 193.295 267.059 193.593 266.834C193.894 266.611 194.045 266.239 194.045 265.715V264.318H193.956C193.863 264.53 193.724 264.731 193.538 264.919C193.353 265.108 193.114 265.262 192.822 265.382C192.531 265.501 192.183 265.561 191.778 265.561C191.205 265.561 190.683 265.428 190.212 265.163C189.745 264.895 189.372 264.485 189.094 263.935C188.818 263.382 188.681 262.682 188.681 261.837C188.681 260.972 188.822 260.249 189.104 259.669C189.385 259.089 189.76 258.655 190.227 258.367C190.698 258.079 191.213 257.934 191.773 257.934C192.201 257.934 192.559 258.007 192.847 258.153C193.135 258.296 193.367 258.475 193.543 258.69C193.722 258.902 193.86 259.111 193.956 259.316H194.035V258.034H196.138V265.745C196.138 266.394 195.979 266.938 195.661 267.375C195.343 267.813 194.902 268.141 194.339 268.36C193.778 268.582 193.134 268.693 192.405 268.693ZM192.449 263.97C192.791 263.97 193.079 263.885 193.314 263.716C193.553 263.544 193.735 263.299 193.861 262.981C193.991 262.659 194.055 262.275 194.055 261.827C194.055 261.38 193.992 260.992 193.866 260.664C193.74 260.332 193.558 260.075 193.319 259.893C193.081 259.711 192.791 259.62 192.449 259.62C192.101 259.62 191.808 259.714 191.569 259.903C191.331 260.089 191.15 260.347 191.028 260.679C190.905 261.01 190.844 261.393 190.844 261.827C190.844 262.268 190.905 262.649 191.028 262.971C191.153 263.289 191.334 263.536 191.569 263.711C191.808 263.884 192.101 263.97 192.449 263.97ZM201.304 265.819C200.518 265.819 199.842 265.66 199.275 265.342C198.712 265.021 198.278 264.566 197.973 263.98C197.668 263.39 197.515 262.692 197.515 261.887C197.515 261.101 197.668 260.412 197.973 259.819C198.278 259.225 198.707 258.763 199.26 258.432C199.817 258.1 200.47 257.934 201.219 257.934C201.723 257.934 202.192 258.016 202.626 258.178C203.064 258.337 203.445 258.577 203.77 258.899C204.098 259.22 204.353 259.625 204.535 260.112C204.718 260.596 204.809 261.163 204.809 261.812V262.394H198.361V261.081H202.815C202.815 260.776 202.749 260.506 202.616 260.271C202.484 260.036 202.3 259.852 202.064 259.719C201.832 259.583 201.562 259.515 201.254 259.515C200.933 259.515 200.648 259.59 200.399 259.739C200.154 259.885 199.961 260.082 199.822 260.331C199.683 260.576 199.612 260.849 199.608 261.151V262.399C199.608 262.777 199.678 263.103 199.817 263.378C199.96 263.653 200.16 263.865 200.419 264.015C200.677 264.164 200.984 264.238 201.339 264.238C201.574 264.238 201.789 264.205 201.985 264.139C202.18 264.073 202.348 263.973 202.487 263.841C202.626 263.708 202.732 263.546 202.805 263.353L204.764 263.483C204.665 263.953 204.461 264.364 204.153 264.716C203.848 265.064 203.453 265.335 202.969 265.531C202.489 265.723 201.934 265.819 201.304 265.819ZM212.545 260.211L210.606 260.331C210.573 260.165 210.501 260.016 210.392 259.883C210.282 259.747 210.138 259.64 209.959 259.56C209.784 259.477 209.573 259.436 209.328 259.436C209 259.436 208.723 259.505 208.498 259.645C208.272 259.78 208.16 259.963 208.16 260.191C208.16 260.374 208.233 260.528 208.378 260.654C208.524 260.78 208.774 260.881 209.129 260.957L210.511 261.236C211.254 261.388 211.807 261.633 212.172 261.971C212.536 262.309 212.719 262.753 212.719 263.304C212.719 263.804 212.571 264.243 212.276 264.621C211.984 264.999 211.583 265.294 211.073 265.506C210.566 265.715 209.981 265.819 209.318 265.819C208.307 265.819 207.502 265.609 206.902 265.188C206.305 264.764 205.956 264.187 205.853 263.458L207.936 263.348C207.999 263.657 208.151 263.892 208.393 264.054C208.635 264.213 208.945 264.293 209.323 264.293C209.694 264.293 209.992 264.222 210.218 264.079C210.447 263.933 210.563 263.746 210.566 263.517C210.563 263.325 210.481 263.168 210.322 263.045C210.163 262.919 209.918 262.823 209.586 262.757L208.264 262.493C207.518 262.344 206.963 262.086 206.599 261.718C206.237 261.35 206.057 260.881 206.057 260.311C206.057 259.82 206.189 259.398 206.454 259.043C206.723 258.688 207.099 258.415 207.583 258.223C208.07 258.03 208.64 257.934 209.293 257.934C210.258 257.934 211.017 258.138 211.57 258.546C212.127 258.954 212.452 259.509 212.545 260.211Z" fill="white"/>
</g>
<rect x="86.25" y="52.8298" width="327" height="241.34" rx="9.44677" stroke="#2680C2"/>
</g>
<defs>
<filter id="filter0_dd_1232_70483" x="73.1611" y="52.3298" width="353.178" height="267.518" filterUnits="userSpaceOnUse" color-interpolation-filters="sRGB">
<feFlood flood-opacity="0" result="BackgroundImageFix"/>
<feColorMatrix in="SourceAlpha" type="matrix" values="0 0 0 0 0 0 0 0 0 0 0 0 0 0 0 0 0 0 127 0" result="hardAlpha"/>
<feMorphology radius="2.09815" operator="erode" in="SourceAlpha" result="effect1_dropShadow_1232_70483"/>
<feOffset dy="4.19629"/>
<feGaussianBlur stdDeviation="3.14722"/>
<feComposite in2="hardAlpha" operator="out"/>
<feColorMatrix type="matrix" values="0 0 0 0 0 0 0 0 0 0 0 0 0 0 0 0 0 0 0.03 0"/>
<feBlend mode="normal" in2="BackgroundImageFix" result="effect1_dropShadow_1232_70483"/>
<feColorMatrix in="SourceAlpha" type="matrix" values="0 0 0 0 0 0 0 0 0 0 0 0 0 0 0 0 0 0 127 0" result="hardAlpha"/>
<feMorphology radius="4.19629" operator="erode" in="SourceAlpha" result="effect2_dropShadow_1232_70483"/>
<feOffset dy="12.5889"/>
<feGaussianBlur stdDeviation="8.39259"/>
<feComposite in2="hardAlpha" operator="out"/>
<feColorMatrix type="matrix" values="0 0 0 0 0 0 0 0 0 0 0 0 0 0 0 0 0 0 0.08 0"/>
<feBlend mode="normal" in2="effect1_dropShadow_1232_70483" result="effect2_dropShadow_1232_70483"/>
<feBlend mode="normal" in="SourceGraphic" in2="effect2_dropShadow_1232_70483" result="shape"/>
</filter>
<clipPath id="clip0_1232_70483">
<rect x="85.75" y="52.3298" width="328" height="242.34" rx="9.94677" fill="white"/>
</clipPath>
</defs>
</svg>
