<svg width="500" height="348" viewBox="0 0 500 348" fill="none" xmlns="http://www.w3.org/2000/svg">
<g filter="url(#filter0_dd_1232_69698)">
<rect x="62.7812" y="40.9468" width="373.938" height="265.266" rx="11.3745" fill="#7A90A5"/>
<rect x="63.4922" y="41.6577" width="372.516" height="263.844" rx="10.6636" stroke="#2680C2" stroke-width="1.42182"/>
<path opacity="0.38" d="M101.511 78.8248H99.0212C98.9757 78.5027 98.8829 78.2165 98.7426 77.9664C98.6024 77.7124 98.4224 77.4964 98.2025 77.3182C97.9827 77.1401 97.7288 77.0037 97.4407 76.9089C97.1565 76.8142 96.8476 76.7668 96.514 76.7668C95.9114 76.7668 95.3865 76.9165 94.9392 77.2159C94.492 77.5115 94.1452 77.9436 93.8988 78.5121C93.6525 79.0769 93.5293 79.7629 93.5293 80.5702C93.5293 81.4002 93.6525 82.0976 93.8988 82.6623C94.149 83.2271 94.4977 83.6535 94.9449 83.9415C95.3922 84.2296 95.9095 84.3736 96.497 84.3736C96.8267 84.3736 97.1318 84.33 97.4123 84.2428C97.6966 84.1557 97.9486 84.0287 98.1684 83.8619C98.3883 83.6914 98.5702 83.4848 98.7142 83.2422C98.862 82.9997 98.9644 82.723 99.0212 82.4122L101.511 82.4236C101.447 82.958 101.286 83.4734 101.028 83.9699C100.774 84.4627 100.431 84.9042 99.9991 85.2946C99.5708 85.6812 99.0591 85.9882 98.4641 86.2156C97.8728 86.4392 97.2038 86.551 96.4572 86.551C95.4187 86.551 94.4901 86.316 93.6714 85.8461C92.8566 85.3761 92.2122 84.6958 91.7385 83.8051C91.2685 82.9144 91.0335 81.8361 91.0335 80.5702C91.0335 79.3005 91.2723 78.2203 91.7498 77.3296C92.2274 76.4389 92.8755 75.7605 93.6942 75.2943C94.5128 74.8243 95.4339 74.5893 96.4572 74.5893C97.1318 74.5893 97.7572 74.6841 98.3333 74.8736C98.9132 75.0631 99.4268 75.3398 99.874 75.7036C100.321 76.0637 100.685 76.5053 100.966 77.0283C101.25 77.5513 101.432 78.1502 101.511 78.8248ZM107.177 86.5624C106.294 86.5624 105.53 86.3748 104.886 85.9996C104.245 85.6206 103.75 85.0937 103.402 84.4191C103.053 83.7406 102.879 82.9542 102.879 82.0597C102.879 81.1577 103.053 80.3693 103.402 79.6947C103.75 79.0162 104.245 78.4894 104.886 78.1142C105.53 77.7352 106.294 77.5457 107.177 77.5457C108.06 77.5457 108.822 77.7352 109.462 78.1142C110.106 78.4894 110.603 79.0162 110.952 79.6947C111.3 80.3693 111.475 81.1577 111.475 82.0597C111.475 82.9542 111.3 83.7406 110.952 84.4191C110.603 85.0937 110.106 85.6206 109.462 85.9996C108.822 86.3748 108.06 86.5624 107.177 86.5624ZM107.188 84.6863C107.59 84.6863 107.925 84.5726 108.194 84.3452C108.463 84.114 108.666 83.7994 108.803 83.4014C108.943 83.0035 109.013 82.5505 109.013 82.0427C109.013 81.5348 108.943 81.0819 108.803 80.6839C108.666 80.2859 108.463 79.9713 108.194 79.7401C107.925 79.5089 107.59 79.3933 107.188 79.3933C106.782 79.3933 106.441 79.5089 106.165 79.7401C105.892 79.9713 105.685 80.2859 105.545 80.6839C105.409 81.0819 105.34 81.5348 105.34 82.0427C105.34 82.5505 105.409 83.0035 105.545 83.4014C105.685 83.7994 105.892 84.114 106.165 84.3452C106.441 84.5726 106.782 84.6863 107.188 84.6863ZM115.471 81.3434V86.3918H113.049V77.6594H115.358V79.2001H115.46C115.653 78.6922 115.977 78.2904 116.432 77.9948C116.887 77.6954 117.438 77.5457 118.087 77.5457C118.693 77.5457 119.222 77.6783 119.673 77.9436C120.124 78.2089 120.474 78.5879 120.725 79.0807C120.975 79.5696 121.1 80.1533 121.1 80.8317V86.3918H118.678V81.2638C118.682 80.7294 118.545 80.3125 118.269 80.013C117.992 79.7098 117.611 79.5582 117.126 79.5582C116.8 79.5582 116.512 79.6283 116.262 79.7686C116.015 79.9088 115.822 80.1135 115.682 80.3826C115.545 80.6479 115.475 80.9682 115.471 81.3434ZM127.653 77.6594V79.4786H122.395V77.6594H127.653ZM123.588 75.5672H126.01V83.7084C126.01 83.932 126.044 84.1064 126.113 84.2315C126.181 84.3527 126.276 84.438 126.397 84.4873C126.522 84.5366 126.666 84.5612 126.829 84.5612C126.943 84.5612 127.056 84.5517 127.17 84.5328C127.284 84.51 127.371 84.493 127.432 84.4816L127.813 86.2838C127.691 86.3217 127.521 86.3653 127.301 86.4146C127.081 86.4676 126.814 86.4999 126.499 86.5112C125.916 86.534 125.404 86.4563 124.964 86.2781C124.528 86.1 124.189 85.8233 123.947 85.4481C123.704 85.0729 123.585 84.5991 123.588 84.0268V75.5672ZM131.721 86.5567C131.164 86.5567 130.667 86.4601 130.232 86.2668C129.796 86.0697 129.451 85.7797 129.197 85.3969C128.947 85.0103 128.822 84.529 128.822 83.9529C128.822 83.4678 128.911 83.0603 129.089 82.7306C129.267 82.4008 129.51 82.1355 129.817 81.9346C130.124 81.7338 130.472 81.5822 130.863 81.4798C131.257 81.3775 131.67 81.3055 132.102 81.2638C132.61 81.2107 133.019 81.1615 133.33 81.116C133.641 81.0667 133.866 80.9947 134.007 80.8999C134.147 80.8052 134.217 80.6649 134.217 80.4792V80.4451C134.217 80.0851 134.103 79.8065 133.876 79.6094C133.652 79.4123 133.334 79.3138 132.921 79.3138C132.485 79.3138 132.138 79.4104 131.88 79.6037C131.623 79.7932 131.452 80.032 131.369 80.32L129.129 80.1381C129.242 79.6075 129.466 79.1489 129.8 78.7623C130.133 78.3719 130.563 78.0725 131.09 77.864C131.621 77.6518 132.235 77.5457 132.932 77.5457C133.417 77.5457 133.882 77.6025 134.325 77.7162C134.772 77.8299 135.168 78.0062 135.513 78.2449C135.862 78.4837 136.137 78.7907 136.338 79.1659C136.538 79.5374 136.639 79.9827 136.639 80.502V86.3918H134.342V85.1809H134.274C134.134 85.4538 133.946 85.6945 133.711 85.9029C133.476 86.1076 133.194 86.2687 132.864 86.3862C132.534 86.4999 132.153 86.5567 131.721 86.5567ZM132.415 84.8853C132.771 84.8853 133.086 84.8151 133.358 84.6749C133.631 84.5309 133.846 84.3376 134.001 84.095C134.156 83.8525 134.234 83.5777 134.234 83.2707V82.344C134.158 82.3932 134.054 82.4387 133.921 82.4804C133.792 82.5183 133.647 82.5543 133.484 82.5884C133.321 82.6188 133.158 82.6472 132.995 82.6737C132.832 82.6965 132.684 82.7173 132.551 82.7363C132.267 82.7779 132.019 82.8443 131.806 82.9352C131.594 83.0262 131.429 83.1494 131.312 83.3048C131.194 83.4564 131.136 83.6459 131.136 83.8733C131.136 84.203 131.255 84.4551 131.494 84.6294C131.736 84.8 132.043 84.8853 132.415 84.8853ZM142.463 86.5624C141.569 86.5624 140.799 86.3729 140.155 85.9939C139.515 85.6111 139.022 85.0805 138.677 84.402C138.336 83.7236 138.165 82.9428 138.165 82.0597C138.165 81.1652 138.338 80.3807 138.683 79.706C139.031 79.0276 139.526 78.4989 140.167 78.1199C140.807 77.7371 141.569 77.5457 142.452 77.5457C143.214 77.5457 143.881 77.684 144.453 77.9607C145.025 78.2374 145.478 78.6258 145.812 79.1261C146.145 79.6264 146.329 80.2139 146.363 80.8886H144.078C144.014 80.4527 143.843 80.1021 143.566 79.8368C143.293 79.5677 142.935 79.4331 142.492 79.4331C142.117 79.4331 141.789 79.5355 141.508 79.7401C141.232 79.941 141.016 80.2348 140.86 80.6214C140.705 81.0079 140.627 81.476 140.627 82.0256C140.627 82.5828 140.703 83.0565 140.854 83.4469C141.01 83.8373 141.228 84.1348 141.508 84.3395C141.789 84.5442 142.117 84.6465 142.492 84.6465C142.768 84.6465 143.017 84.5896 143.237 84.4759C143.46 84.3622 143.644 84.1974 143.788 83.9813C143.936 83.7615 144.032 83.4981 144.078 83.1911H146.363C146.326 83.8581 146.144 84.4456 145.818 84.9535C145.495 85.4576 145.05 85.8518 144.482 86.136C143.913 86.4203 143.24 86.5624 142.463 86.5624ZM152.559 77.6594V79.4786H147.3V77.6594H152.559ZM148.494 75.5672H150.916V83.7084C150.916 83.932 150.95 84.1064 151.018 84.2315C151.086 84.3527 151.181 84.438 151.302 84.4873C151.428 84.5366 151.572 84.5612 151.735 84.5612C151.848 84.5612 151.962 84.5517 152.076 84.5328C152.189 84.51 152.276 84.493 152.337 84.4816L152.718 86.2838C152.597 86.3217 152.426 86.3653 152.206 86.4146C151.987 86.4676 151.719 86.4999 151.405 86.5112C150.821 86.534 150.309 86.4563 149.87 86.2781C149.434 86.1 149.095 85.8233 148.852 85.4481C148.61 85.0729 148.49 84.5991 148.494 84.0268V75.5672ZM161.293 80.1495L159.076 80.2859C159.038 80.0964 158.956 79.9259 158.831 79.7743C158.706 79.6189 158.541 79.4957 158.336 79.4047C158.136 79.31 157.895 79.2626 157.614 79.2626C157.239 79.2626 156.923 79.3422 156.665 79.5014C156.407 79.6568 156.278 79.8652 156.278 80.1267C156.278 80.3352 156.362 80.5114 156.529 80.6555C156.695 80.7995 156.981 80.9151 157.387 81.0023L158.968 81.3206C159.817 81.495 160.449 81.7755 160.866 82.162C161.283 82.5486 161.492 83.0565 161.492 83.6857C161.492 84.258 161.323 84.7602 160.986 85.1923C160.652 85.6243 160.194 85.9617 159.61 86.2042C159.03 86.443 158.361 86.5624 157.603 86.5624C156.447 86.5624 155.526 86.3217 154.84 85.8404C154.158 85.3552 153.758 84.6958 153.64 83.8619L156.023 83.7369C156.095 84.0893 156.269 84.3584 156.546 84.5442C156.822 84.7261 157.177 84.817 157.609 84.817C158.033 84.817 158.374 84.7356 158.632 84.5726C158.894 84.4058 159.026 84.1917 159.03 83.9301C159.026 83.7103 158.933 83.5303 158.751 83.3901C158.57 83.246 158.289 83.1361 157.91 83.0603L156.398 82.759C155.545 82.5884 154.91 82.2928 154.493 81.8721C154.08 81.4514 153.874 80.9151 153.874 80.2632C153.874 79.7022 154.025 79.219 154.328 78.8135C154.635 78.4079 155.066 78.0952 155.619 77.8754C156.176 77.6556 156.828 77.5457 157.575 77.5457C158.678 77.5457 159.546 77.7787 160.178 78.2449C160.815 78.7111 161.187 79.346 161.293 80.1495ZM169.212 86.5567C168.655 86.5567 168.159 86.4601 167.723 86.2668C167.287 86.0697 166.942 85.7797 166.688 85.3969C166.438 85.0103 166.313 84.529 166.313 83.9529C166.313 83.4678 166.402 83.0603 166.58 82.7306C166.758 82.4008 167.001 82.1355 167.308 81.9346C167.615 81.7338 167.963 81.5822 168.354 81.4798C168.748 81.3775 169.161 81.3055 169.593 81.2638C170.101 81.2107 170.51 81.1615 170.821 81.116C171.132 81.0667 171.357 80.9947 171.498 80.8999C171.638 80.8052 171.708 80.6649 171.708 80.4792V80.4451C171.708 80.0851 171.594 79.8065 171.367 79.6094C171.143 79.4123 170.825 79.3138 170.412 79.3138C169.976 79.3138 169.629 79.4104 169.371 79.6037C169.114 79.7932 168.943 80.032 168.86 80.32L166.62 80.1381C166.734 79.6075 166.957 79.1489 167.291 78.7623C167.624 78.3719 168.054 78.0725 168.581 77.864C169.112 77.6518 169.726 77.5457 170.423 77.5457C170.908 77.5457 171.373 77.6025 171.816 77.7162C172.263 77.8299 172.659 78.0062 173.004 78.2449C173.353 78.4837 173.628 78.7907 173.829 79.1659C174.03 79.5374 174.13 79.9827 174.13 80.502V86.3918H171.833V85.1809H171.765C171.625 85.4538 171.437 85.6945 171.202 85.9029C170.967 86.1076 170.685 86.2687 170.355 86.3862C170.025 86.4999 169.644 86.5567 169.212 86.5567ZM169.906 84.8853C170.262 84.8853 170.577 84.8151 170.85 84.6749C171.123 84.5309 171.337 84.3376 171.492 84.095C171.647 83.8525 171.725 83.5777 171.725 83.2707V82.344C171.649 82.3932 171.545 82.4387 171.412 82.4804C171.284 82.5183 171.138 82.5543 170.975 82.5884C170.812 82.6188 170.649 82.6472 170.486 82.6737C170.323 82.6965 170.175 82.7173 170.042 82.7363C169.758 82.7779 169.51 82.8443 169.298 82.9352C169.085 83.0262 168.92 83.1494 168.803 83.3048C168.685 83.4564 168.627 83.6459 168.627 83.8733C168.627 84.203 168.746 84.4551 168.985 84.6294C169.227 84.8 169.534 84.8853 169.906 84.8853ZM178.431 81.3434V86.3918H176.009V77.6594H178.317V79.2001H178.419C178.613 78.6922 178.937 78.2904 179.392 77.9948C179.846 77.6954 180.398 77.5457 181.046 77.5457C181.652 77.5457 182.181 77.6783 182.632 77.9436C183.083 78.2089 183.434 78.5879 183.684 79.0807C183.934 79.5696 184.059 80.1533 184.059 80.8317V86.3918H181.637V81.2638C181.641 80.7294 181.505 80.3125 181.228 80.013C180.951 79.7098 180.57 79.5582 180.085 79.5582C179.759 79.5582 179.471 79.6283 179.221 79.7686C178.975 79.9088 178.781 80.1135 178.641 80.3826C178.505 80.6479 178.435 80.9682 178.431 81.3434ZM189.186 86.534C188.523 86.534 187.922 86.3634 187.384 86.0223C186.849 85.6774 186.425 85.1714 186.11 84.5044C185.799 83.8335 185.644 83.011 185.644 82.037C185.644 81.0364 185.805 80.2044 186.127 79.5412C186.449 78.8741 186.878 78.3757 187.412 78.046C187.95 77.7124 188.54 77.5457 189.18 77.5457C189.669 77.5457 190.077 77.629 190.402 77.7958C190.732 77.9588 190.998 78.1634 191.198 78.4098C191.403 78.6524 191.558 78.8912 191.665 79.1261H191.739V74.7485H194.155V86.3918H191.767V84.9933H191.665C191.551 85.2359 191.39 85.4765 191.181 85.7153C190.977 85.9503 190.709 86.1455 190.38 86.3009C190.054 86.4563 189.656 86.534 189.186 86.534ZM189.953 84.6067C190.344 84.6067 190.673 84.5006 190.943 84.2883C191.215 84.0723 191.424 83.771 191.568 83.3844C191.716 82.9978 191.79 82.5449 191.79 82.0256C191.79 81.5064 191.718 81.0553 191.574 80.6725C191.43 80.2897 191.221 79.9941 190.948 79.7856C190.675 79.5772 190.344 79.4729 189.953 79.4729C189.555 79.4729 189.22 79.581 188.947 79.797C188.674 80.013 188.468 80.3125 188.327 80.6953C188.187 81.0781 188.117 81.5215 188.117 82.0256C188.117 82.5335 188.187 82.9826 188.327 83.373C188.471 83.7596 188.678 84.0628 188.947 84.2826C189.22 84.4987 189.555 84.6067 189.953 84.6067ZM203.797 86.5624C202.902 86.5624 202.133 86.3729 201.489 85.9939C200.848 85.6111 200.355 85.0805 200.01 84.402C199.669 83.7236 199.499 82.9428 199.499 82.0597C199.499 81.1652 199.671 80.3807 200.016 79.706C200.365 79.0276 200.859 78.4989 201.5 78.1199C202.141 77.7371 202.902 77.5457 203.785 77.5457C204.547 77.5457 205.214 77.684 205.787 77.9607C206.359 78.2374 206.812 78.6258 207.145 79.1261C207.479 79.6264 207.663 80.2139 207.697 80.8886H205.411C205.347 80.4527 205.176 80.1021 204.9 79.8368C204.627 79.5677 204.269 79.4331 203.825 79.4331C203.45 79.4331 203.122 79.5355 202.842 79.7401C202.565 79.941 202.349 80.2348 202.194 80.6214C202.038 81.0079 201.961 81.476 201.961 82.0256C201.961 82.5828 202.036 83.0565 202.188 83.4469C202.343 83.8373 202.561 84.1348 202.842 84.3395C203.122 84.5442 203.45 84.6465 203.825 84.6465C204.102 84.6465 204.35 84.5896 204.57 84.4759C204.794 84.3622 204.977 84.1974 205.121 83.9813C205.269 83.7615 205.366 83.4981 205.411 83.1911H207.697C207.659 83.8581 207.477 84.4456 207.151 84.9535C206.829 85.4576 206.384 85.8518 205.815 86.136C205.247 86.4203 204.574 86.5624 203.797 86.5624ZM213.193 86.5624C212.31 86.5624 211.546 86.3748 210.902 85.9996C210.261 85.6206 209.767 85.0937 209.418 84.4191C209.069 83.7406 208.895 82.9542 208.895 82.0597C208.895 81.1577 209.069 80.3693 209.418 79.6947C209.767 79.0162 210.261 78.4894 210.902 78.1142C211.546 77.7352 212.31 77.5457 213.193 77.5457C214.076 77.5457 214.838 77.7352 215.479 78.1142C216.123 78.4894 216.619 79.0162 216.968 79.6947C217.317 80.3693 217.491 81.1577 217.491 82.0597C217.491 82.9542 217.317 83.7406 216.968 84.4191C216.619 85.0937 216.123 85.6206 215.479 85.9996C214.838 86.3748 214.076 86.5624 213.193 86.5624ZM213.204 84.6863C213.606 84.6863 213.942 84.5726 214.211 84.3452C214.48 84.114 214.683 83.7994 214.819 83.4014C214.959 83.0035 215.029 82.5505 215.029 82.0427C215.029 81.5348 214.959 81.0819 214.819 80.6839C214.683 80.2859 214.48 79.9713 214.211 79.7401C213.942 79.5089 213.606 79.3933 213.204 79.3933C212.799 79.3933 212.458 79.5089 212.181 79.7401C211.908 79.9713 211.702 80.2859 211.561 80.6839C211.425 81.0819 211.357 81.5348 211.357 82.0427C211.357 82.5505 211.425 83.0035 211.561 83.4014C211.702 83.7994 211.908 84.114 212.181 84.3452C212.458 84.5726 212.799 84.6863 213.204 84.6863ZM219.066 86.3918V77.6594H221.374V79.2001H221.476C221.658 78.6884 221.962 78.2847 222.386 77.9891C222.811 77.6935 223.318 77.5457 223.91 77.5457C224.509 77.5457 225.018 77.6954 225.439 77.9948C225.86 78.2904 226.14 78.6922 226.28 79.2001H226.371C226.55 78.6998 226.872 78.2999 227.338 78.0005C227.808 77.6973 228.363 77.5457 229.004 77.5457C229.819 77.5457 230.48 77.8053 230.988 78.3245C231.499 78.84 231.755 79.5715 231.755 80.519V86.3918H229.339V80.9966C229.339 80.5114 229.21 80.1476 228.952 79.905C228.695 79.6624 228.373 79.5412 227.986 79.5412C227.546 79.5412 227.203 79.6814 226.957 79.9619C226.711 80.2386 226.587 80.6043 226.587 81.0591V86.3918H224.239V80.9454C224.239 80.5171 224.116 80.176 223.87 79.9221C223.627 79.6681 223.307 79.5412 222.909 79.5412C222.64 79.5412 222.397 79.6094 222.181 79.7458C221.969 79.8785 221.8 80.0661 221.675 80.3087C221.55 80.5474 221.488 80.8279 221.488 81.1501V86.3918H219.066ZM233.668 89.6665V77.6594H236.056V79.1261H236.164C236.27 78.8912 236.424 78.6524 236.625 78.4098C236.829 78.1634 237.095 77.9588 237.421 77.7958C237.75 77.629 238.16 77.5457 238.649 77.5457C239.285 77.5457 239.873 77.7124 240.411 78.046C240.949 78.3757 241.379 78.8741 241.702 79.5412C242.024 80.2044 242.185 81.0364 242.185 82.037C242.185 83.011 242.028 83.8335 241.713 84.5044C241.402 85.1714 240.978 85.6774 240.439 86.0223C239.905 86.3634 239.306 86.534 238.643 86.534C238.173 86.534 237.773 86.4563 237.443 86.3009C237.117 86.1455 236.85 85.9503 236.642 85.7153C236.433 85.4765 236.274 85.2359 236.164 84.9933H236.09V89.6665H233.668ZM236.039 82.0256C236.039 82.5449 236.111 82.9978 236.255 83.3844C236.399 83.771 236.608 84.0723 236.881 84.2883C237.153 84.5006 237.485 84.6067 237.875 84.6067C238.27 84.6067 238.603 84.4987 238.876 84.2826C239.149 84.0628 239.355 83.7596 239.496 83.373C239.64 82.9826 239.712 82.5335 239.712 82.0256C239.712 81.5215 239.642 81.0781 239.501 80.6953C239.361 80.3125 239.155 80.013 238.882 79.797C238.609 79.581 238.273 79.4729 237.875 79.4729C237.481 79.4729 237.148 79.5772 236.875 79.7856C236.606 79.9941 236.399 80.2897 236.255 80.6725C236.111 81.0553 236.039 81.5064 236.039 82.0256ZM246.29 86.5567C245.732 86.5567 245.236 86.4601 244.8 86.2668C244.364 86.0697 244.019 85.7797 243.765 85.3969C243.515 85.0103 243.39 84.529 243.39 83.9529C243.39 83.4678 243.479 83.0603 243.657 82.7306C243.835 82.4008 244.078 82.1355 244.385 81.9346C244.692 81.7338 245.041 81.5822 245.431 81.4798C245.825 81.3775 246.238 81.3055 246.67 81.2638C247.178 81.2107 247.588 81.1615 247.898 81.116C248.209 81.0667 248.435 80.9947 248.575 80.8999C248.715 80.8052 248.785 80.6649 248.785 80.4792V80.4451C248.785 80.0851 248.672 79.8065 248.444 79.6094C248.221 79.4123 247.902 79.3138 247.489 79.3138C247.053 79.3138 246.706 79.4104 246.449 79.6037C246.191 79.7932 246.02 80.032 245.937 80.32L243.697 80.1381C243.811 79.6075 244.034 79.1489 244.368 78.7623C244.701 78.3719 245.132 78.0725 245.658 77.864C246.189 77.6518 246.803 77.5457 247.5 77.5457C247.986 77.5457 248.45 77.6025 248.893 77.7162C249.341 77.8299 249.737 78.0062 250.082 78.2449C250.43 78.4837 250.705 78.7907 250.906 79.1659C251.107 79.5374 251.207 79.9827 251.207 80.502V86.3918H248.91V85.1809H248.842C248.702 85.4538 248.514 85.6945 248.279 85.9029C248.044 86.1076 247.762 86.2687 247.432 86.3862C247.103 86.4999 246.722 86.5567 246.29 86.5567ZM246.983 84.8853C247.339 84.8853 247.654 84.8151 247.927 84.6749C248.2 84.5309 248.414 84.3376 248.569 84.095C248.725 83.8525 248.802 83.5777 248.802 83.2707V82.344C248.727 82.3932 248.622 82.4387 248.49 82.4804C248.361 82.5183 248.215 82.5543 248.052 82.5884C247.889 82.6188 247.726 82.6472 247.563 82.6737C247.4 82.6965 247.252 82.7173 247.12 82.7363C246.835 82.7779 246.587 82.8443 246.375 82.9352C246.163 83.0262 245.998 83.1494 245.88 83.3048C245.763 83.4564 245.704 83.6459 245.704 83.8733C245.704 84.203 245.823 84.4551 246.062 84.6294C246.305 84.8 246.612 84.8853 246.983 84.8853ZM255.508 81.3434V86.3918H253.086V77.6594H255.394V79.2001H255.497C255.69 78.6922 256.014 78.2904 256.469 77.9948C256.924 77.6954 257.475 77.5457 258.123 77.5457C258.73 77.5457 259.258 77.6783 259.709 77.9436C260.161 78.2089 260.511 78.5879 260.761 79.0807C261.011 79.5696 261.136 80.1533 261.136 80.8317V86.3918H258.715V81.2638C258.718 80.7294 258.582 80.3125 258.305 80.013C258.029 79.7098 257.648 79.5582 257.163 79.5582C256.837 79.5582 256.549 79.6283 256.298 79.7686C256.052 79.9088 255.859 80.1135 255.718 80.3826C255.582 80.6479 255.512 80.9682 255.508 81.3434ZM263.045 86.3918V77.6594H265.467V86.3918H263.045ZM264.262 76.5337C263.902 76.5337 263.593 76.4143 263.335 76.1755C263.081 75.9329 262.954 75.643 262.954 75.3057C262.954 74.9721 263.081 74.686 263.335 74.4472C263.593 74.2046 263.902 74.0834 264.262 74.0834C264.622 74.0834 264.929 74.2046 265.183 74.4472C265.441 74.686 265.57 74.9721 265.57 75.3057C265.57 75.643 265.441 75.9329 265.183 76.1755C264.929 76.4143 264.622 76.5337 264.262 76.5337ZM271.387 86.5624C270.489 86.5624 269.715 86.3805 269.067 86.0166C268.423 85.649 267.927 85.1297 267.578 84.4589C267.229 83.7842 267.055 82.9864 267.055 82.0654C267.055 81.1671 267.229 80.3788 267.578 79.7004C267.927 79.0219 268.417 78.4932 269.05 78.1142C269.687 77.7352 270.434 77.5457 271.29 77.5457C271.866 77.5457 272.403 77.6385 272.899 77.8242C273.399 78.0062 273.835 78.2809 274.207 78.6486C274.582 79.0162 274.874 79.4786 275.082 80.0358C275.291 80.5891 275.395 81.2373 275.395 81.9801V82.6453H268.021V81.1444H273.115C273.115 80.7957 273.039 80.4868 272.888 80.2177C272.736 79.9486 272.526 79.7383 272.257 79.5866C271.991 79.4313 271.683 79.3536 271.33 79.3536C270.962 79.3536 270.636 79.4388 270.352 79.6094C270.072 79.7762 269.852 80.0017 269.693 80.2859C269.534 80.5664 269.452 80.8791 269.448 81.224V82.651C269.448 83.0831 269.528 83.4564 269.687 83.771C269.85 84.0855 270.079 84.3281 270.375 84.4987C270.671 84.6692 271.021 84.7545 271.427 84.7545C271.696 84.7545 271.942 84.7166 272.166 84.6408C272.389 84.565 272.581 84.4513 272.74 84.2997C272.899 84.1481 273.02 83.9624 273.104 83.7425L275.344 83.8904C275.23 84.4286 274.997 84.8985 274.645 85.3003C274.296 85.6982 273.845 86.009 273.291 86.2327C272.742 86.4525 272.107 86.5624 271.387 86.5624ZM284.241 80.1495L282.024 80.2859C281.986 80.0964 281.905 79.9259 281.779 79.7743C281.654 79.6189 281.49 79.4957 281.285 79.4047C281.084 79.31 280.843 79.2626 280.563 79.2626C280.188 79.2626 279.871 79.3422 279.613 79.5014C279.356 79.6568 279.227 79.8652 279.227 80.1267C279.227 80.3352 279.31 80.5114 279.477 80.6555C279.644 80.7995 279.93 80.9151 280.335 81.0023L281.916 81.3206C282.765 81.495 283.398 81.7755 283.815 82.162C284.232 82.5486 284.44 83.0565 284.44 83.6857C284.44 84.258 284.271 84.7602 283.934 85.1923C283.601 85.6243 283.142 85.9617 282.558 86.2042C281.978 86.443 281.31 86.5624 280.551 86.5624C279.395 86.5624 278.474 86.3217 277.788 85.8404C277.106 85.3552 276.706 84.6958 276.589 83.8619L278.971 83.7369C279.043 84.0893 279.217 84.3584 279.494 84.5442C279.771 84.7261 280.125 84.817 280.557 84.817C280.982 84.817 281.323 84.7356 281.58 84.5726C281.842 84.4058 281.975 84.1917 281.978 83.9301C281.975 83.7103 281.882 83.5303 281.7 83.3901C281.518 83.246 281.237 83.1361 280.858 83.0603L279.346 82.759C278.493 82.5884 277.859 82.2928 277.442 81.8721C277.029 81.4514 276.822 80.9151 276.822 80.2632C276.822 79.7022 276.974 79.219 277.277 78.8135C277.584 78.4079 278.014 78.0952 278.567 77.8754C279.124 77.6556 279.776 77.5457 280.523 77.5457C281.626 77.5457 282.494 77.7787 283.127 78.2449C283.764 78.7111 284.135 79.346 284.241 80.1495Z" fill="#000C14"/>
<g opacity="0.38">
<g filter="url(#filter1_d_1232_69698)">
<rect x="90.2262" y="112.975" width="319.048" height="36.3021" rx="3.97832" fill="#FAFCFE" shape-rendering="crispEdges"/>
<rect x="90.4749" y="113.224" width="318.55" height="35.8049" rx="3.72967" stroke="#C9D4DE" stroke-width="0.49729" shape-rendering="crispEdges"/>
<rect x="100.412" y="122.007" width="18.2386" height="18.2386" rx="9.11928" fill="#B6E0FE"/>
<path d="M109.531 130.67C110.622 130.67 111.507 129.786 111.507 128.694C111.507 127.603 110.622 126.719 109.531 126.719C108.44 126.719 107.555 127.603 107.555 128.694C107.555 129.786 108.44 130.67 109.531 130.67Z" stroke="#2680C2" stroke-width="0.719631" stroke-linecap="round" stroke-linejoin="round"/>
<path d="M106.398 135.534H112.663C113.358 135.534 113.892 134.937 113.568 134.323C113.091 133.42 112.004 132.342 109.531 132.342C107.058 132.342 105.97 133.42 105.494 134.323C105.169 134.937 105.704 135.534 106.398 135.534Z" stroke="#2680C2" stroke-width="0.719631" stroke-linecap="round" stroke-linejoin="round"/>
<rect x="128.835" y="123.496" width="148.057" height="5.3431" rx="2.67155" fill="#D9E2EC"/>
<rect x="128.835" y="133.414" width="76.1392" height="5.3431" rx="2.67155" fill="#D9E2EC"/>
</g>
<g filter="url(#filter2_d_1232_69698)">
<rect x="90.2262" y="156.139" width="319.048" height="36.3021" rx="3.97832" fill="#FAFCFE" shape-rendering="crispEdges"/>
<rect x="90.4749" y="156.387" width="318.55" height="35.8049" rx="3.72967" stroke="#C9D4DE" stroke-width="0.49729" shape-rendering="crispEdges"/>
<rect x="100.412" y="165.17" width="18.2386" height="18.2386" rx="9.11928" fill="#B6E0FE"/>
<path d="M109.531 173.834C110.622 173.834 111.507 172.949 111.507 171.858C111.507 170.766 110.622 169.882 109.531 169.882C108.44 169.882 107.555 170.766 107.555 171.858C107.555 172.949 108.44 173.834 109.531 173.834Z" stroke="#2680C2" stroke-width="0.719631" stroke-linecap="round" stroke-linejoin="round"/>
<path d="M106.398 178.697H112.663C113.358 178.697 113.892 178.1 113.568 177.486C113.091 176.583 112.004 175.505 109.531 175.505C107.058 175.505 105.97 176.583 105.494 177.486C105.169 178.1 105.704 178.697 106.398 178.697Z" stroke="#2680C2" stroke-width="0.719631" stroke-linecap="round" stroke-linejoin="round"/>
<rect x="128.835" y="166.66" width="148.057" height="5.3431" rx="2.67155" fill="#D9E2EC"/>
<rect x="128.835" y="176.577" width="76.1392" height="5.3431" rx="2.67155" fill="#D9E2EC"/>
</g>
<g filter="url(#filter3_d_1232_69698)">
<rect x="90.2262" y="199.302" width="319.048" height="36.3021" rx="3.97832" fill="#FAFCFE" shape-rendering="crispEdges"/>
<rect x="90.4749" y="199.551" width="318.55" height="35.8049" rx="3.72967" stroke="#C9D4DE" stroke-width="0.49729" shape-rendering="crispEdges"/>
<rect x="100.412" y="208.334" width="18.2386" height="18.2386" rx="9.11928" fill="#B6E0FE"/>
<path d="M109.531 216.997C110.622 216.997 111.507 216.112 111.507 215.021C111.507 213.93 110.622 213.045 109.531 213.045C108.44 213.045 107.555 213.93 107.555 215.021C107.555 216.112 108.44 216.997 109.531 216.997Z" stroke="#2680C2" stroke-width="0.719631" stroke-linecap="round" stroke-linejoin="round"/>
<path d="M106.398 221.86H112.663C113.358 221.86 113.892 221.264 113.568 220.65C113.091 219.747 112.004 218.669 109.531 218.669C107.058 218.669 105.97 219.747 105.494 220.65C105.169 221.264 105.704 221.86 106.398 221.86Z" stroke="#2680C2" stroke-width="0.719631" stroke-linecap="round" stroke-linejoin="round"/>
<rect x="128.835" y="209.823" width="148.057" height="5.3431" rx="2.67155" fill="#D9E2EC"/>
<rect x="128.835" y="219.74" width="76.1392" height="5.3431" rx="2.67155" fill="#D9E2EC"/>
</g>
<g filter="url(#filter4_d_1232_69698)">
<rect x="90.2262" y="242.466" width="319.048" height="36.3021" rx="3.97832" fill="#FAFCFE" shape-rendering="crispEdges"/>
<rect x="90.4749" y="242.714" width="318.55" height="35.8049" rx="3.72967" stroke="#C9D4DE" stroke-width="0.49729" shape-rendering="crispEdges"/>
<rect x="100.412" y="251.497" width="18.2386" height="18.2386" rx="9.11928" fill="#B6E0FE"/>
<path d="M109.531 260.16C110.622 260.16 111.507 259.276 111.507 258.185C111.507 257.093 110.622 256.209 109.531 256.209C108.44 256.209 107.555 257.093 107.555 258.185C107.555 259.276 108.44 260.16 109.531 260.16Z" stroke="#2680C2" stroke-width="0.719631" stroke-linecap="round" stroke-linejoin="round"/>
<path d="M106.398 265.024H112.663C113.358 265.024 113.892 264.427 113.568 263.813C113.091 262.91 112.004 261.832 109.531 261.832C107.058 261.832 105.97 262.91 105.494 263.813C105.169 264.427 105.704 265.024 106.398 265.024Z" stroke="#2680C2" stroke-width="0.719631" stroke-linecap="round" stroke-linejoin="round"/>
<rect x="128.835" y="252.987" width="148.057" height="5.3431" rx="2.67155" fill="#D9E2EC"/>
<rect x="128.835" y="262.904" width="76.1392" height="5.3431" rx="2.67155" fill="#D9E2EC"/>
</g>
</g>
<g filter="url(#filter5_dd_1232_69698)">
<rect x="120.078" y="79.3608" width="255.698" height="188.452" rx="7.92862" fill="white"/>
<rect x="120.551" y="79.8336" width="254.753" height="187.506" rx="7.45589" stroke="#6EAAD6" stroke-width="0.945473"/>
<path d="M147.081 109.053H145.408L148.453 100.404H150.388L153.437 109.053H151.764L149.454 102.178H149.387L147.081 109.053ZM147.136 105.662H151.697V106.92H147.136V105.662ZM159.531 104.281L158.137 104.433C158.098 104.292 158.029 104.16 157.931 104.036C157.835 103.912 157.705 103.812 157.542 103.736C157.379 103.66 157.179 103.622 156.942 103.622C156.624 103.622 156.357 103.691 156.14 103.829C155.926 103.967 155.82 104.146 155.823 104.365C155.82 104.554 155.889 104.707 156.03 104.826C156.174 104.944 156.41 105.041 156.74 105.117L157.846 105.354C158.46 105.486 158.916 105.696 159.214 105.983C159.516 106.27 159.668 106.646 159.671 107.11C159.668 107.519 159.548 107.879 159.312 108.192C159.078 108.501 158.753 108.744 158.336 108.918C157.919 109.093 157.441 109.18 156.9 109.18C156.106 109.18 155.467 109.014 154.983 108.682C154.498 108.347 154.21 107.881 154.117 107.284L155.608 107.14C155.675 107.433 155.819 107.654 156.038 107.803C156.258 107.952 156.544 108.027 156.896 108.027C157.259 108.027 157.55 107.952 157.77 107.803C157.992 107.654 158.104 107.469 158.104 107.25C158.104 107.064 158.032 106.911 157.888 106.79C157.747 106.668 157.528 106.576 157.229 106.511L156.123 106.278C155.501 106.149 155.04 105.931 154.742 105.624C154.443 105.314 154.296 104.923 154.298 104.45C154.296 104.05 154.404 103.704 154.624 103.411C154.846 103.115 155.154 102.887 155.549 102.727C155.946 102.563 156.403 102.482 156.921 102.482C157.681 102.482 158.28 102.644 158.716 102.967C159.155 103.291 159.427 103.729 159.531 104.281ZM166.058 104.281L164.665 104.433C164.625 104.292 164.556 104.16 164.458 104.036C164.362 103.912 164.232 103.812 164.069 103.736C163.906 103.66 163.706 103.622 163.469 103.622C163.151 103.622 162.884 103.691 162.667 103.829C162.453 103.967 162.347 104.146 162.35 104.365C162.347 104.554 162.416 104.707 162.557 104.826C162.701 104.944 162.937 105.041 163.267 105.117L164.373 105.354C164.987 105.486 165.443 105.696 165.742 105.983C166.043 106.27 166.195 106.646 166.198 107.11C166.195 107.519 166.075 107.879 165.839 108.192C165.605 108.501 165.28 108.744 164.863 108.918C164.446 109.093 163.968 109.18 163.427 109.18C162.633 109.18 161.994 109.014 161.51 108.682C161.026 108.347 160.737 107.881 160.644 107.284L162.135 107.14C162.202 107.433 162.346 107.654 162.566 107.803C162.785 107.952 163.071 108.027 163.423 108.027C163.786 108.027 164.078 107.952 164.297 107.803C164.52 107.654 164.631 107.469 164.631 107.25C164.631 107.064 164.559 106.911 164.415 106.79C164.275 106.668 164.055 106.576 163.757 106.511L162.65 106.278C162.028 106.149 161.568 105.931 161.269 105.624C160.971 105.314 160.823 104.923 160.826 104.45C160.823 104.05 160.931 103.704 161.151 103.411C161.373 103.115 161.682 102.887 162.076 102.727C162.473 102.563 162.93 102.482 163.448 102.482C164.209 102.482 164.807 102.644 165.243 102.967C165.682 103.291 165.954 103.729 166.058 104.281ZM167.458 109.053V102.566H168.987V109.053H167.458ZM168.227 101.645C167.985 101.645 167.777 101.565 167.602 101.405C167.427 101.241 167.34 101.046 167.34 100.818C167.34 100.587 167.427 100.391 167.602 100.231C167.777 100.067 167.985 99.9857 168.227 99.9857C168.472 99.9857 168.68 100.067 168.852 100.231C169.027 100.391 169.114 100.587 169.114 100.818C169.114 101.046 169.027 101.241 168.852 101.405C168.68 101.565 168.472 101.645 168.227 101.645ZM173.381 111.621C172.832 111.621 172.36 111.546 171.966 111.397C171.572 111.251 171.255 111.054 171.015 110.806C170.776 110.558 170.61 110.284 170.517 109.982L171.894 109.649C171.956 109.775 172.046 109.901 172.164 110.025C172.282 110.151 172.442 110.255 172.641 110.337C172.844 110.422 173.099 110.464 173.406 110.464C173.839 110.464 174.198 110.358 174.483 110.147C174.767 109.939 174.909 109.595 174.909 109.117V107.888H174.833C174.755 108.045 174.639 108.207 174.487 108.373C174.338 108.539 174.139 108.679 173.892 108.791C173.647 108.904 173.338 108.96 172.967 108.96C172.468 108.96 172.016 108.843 171.611 108.61C171.208 108.373 170.887 108.021 170.648 107.554C170.412 107.084 170.293 106.495 170.293 105.789C170.293 105.076 170.412 104.475 170.648 103.985C170.887 103.492 171.21 103.119 171.615 102.866C172.021 102.61 172.473 102.482 172.971 102.482C173.351 102.482 173.664 102.546 173.908 102.676C174.156 102.803 174.353 102.956 174.5 103.136C174.646 103.314 174.757 103.481 174.833 103.639H174.918V102.566H176.426V109.159C176.426 109.713 176.293 110.172 176.029 110.536C175.764 110.899 175.402 111.171 174.943 111.351C174.484 111.531 173.963 111.621 173.381 111.621ZM173.393 107.761C173.717 107.761 173.993 107.682 174.221 107.524C174.449 107.367 174.622 107.14 174.74 106.844C174.859 106.549 174.918 106.194 174.918 105.78C174.918 105.372 174.859 105.014 174.74 104.707C174.625 104.401 174.453 104.163 174.225 103.994C174 103.822 173.723 103.736 173.393 103.736C173.053 103.736 172.768 103.825 172.54 104.002C172.312 104.179 172.14 104.423 172.025 104.733C171.909 105.04 171.852 105.389 171.852 105.78C171.852 106.177 171.909 106.525 172.025 106.823C172.143 107.119 172.316 107.35 172.544 107.516C172.775 107.679 173.058 107.761 173.393 107.761ZM179.521 105.252V109.053H177.992V102.566H179.454V103.668H179.53C179.679 103.305 179.917 103.017 180.243 102.803C180.573 102.589 180.98 102.482 181.464 102.482C181.912 102.482 182.302 102.577 182.634 102.769C182.969 102.96 183.228 103.238 183.411 103.601C183.597 103.964 183.688 104.405 183.686 104.923V109.053H182.157V105.159C182.157 104.726 182.044 104.386 181.819 104.141C181.596 103.897 181.288 103.774 180.894 103.774C180.626 103.774 180.388 103.833 180.18 103.951C179.975 104.067 179.813 104.234 179.694 104.454C179.579 104.674 179.521 104.94 179.521 105.252ZM191.429 102.566V103.749H187.7V102.566H191.429ZM188.62 101.012H190.149V107.102C190.149 107.308 190.18 107.465 190.242 107.575C190.307 107.682 190.391 107.755 190.496 107.795C190.6 107.834 190.715 107.854 190.842 107.854C190.938 107.854 191.025 107.847 191.104 107.833C191.185 107.819 191.247 107.806 191.29 107.795L191.547 108.99C191.466 109.018 191.349 109.049 191.197 109.083C191.048 109.117 190.864 109.136 190.648 109.142C190.265 109.153 189.92 109.095 189.613 108.969C189.306 108.839 189.063 108.639 188.882 108.369C188.705 108.099 188.618 107.761 188.62 107.355V101.012ZM195.468 109.18C194.834 109.18 194.285 109.041 193.82 108.762C193.356 108.483 192.996 108.093 192.739 107.592C192.486 107.091 192.359 106.505 192.359 105.835C192.359 105.165 192.486 104.578 192.739 104.074C192.996 103.57 193.356 103.179 193.82 102.9C194.285 102.621 194.834 102.482 195.468 102.482C196.101 102.482 196.65 102.621 197.115 102.9C197.579 103.179 197.938 103.57 198.192 104.074C198.448 104.578 198.576 105.165 198.576 105.835C198.576 106.505 198.448 107.091 198.192 107.592C197.938 108.093 197.579 108.483 197.115 108.762C196.65 109.041 196.101 109.18 195.468 109.18ZM195.476 107.955C195.82 107.955 196.107 107.861 196.338 107.672C196.568 107.481 196.74 107.225 196.853 106.904C196.968 106.583 197.026 106.225 197.026 105.831C197.026 105.434 196.968 105.075 196.853 104.754C196.74 104.43 196.568 104.172 196.338 103.981C196.107 103.79 195.82 103.694 195.476 103.694C195.124 103.694 194.831 103.79 194.598 103.981C194.367 104.172 194.194 104.43 194.078 104.754C193.965 105.075 193.909 105.434 193.909 105.831C193.909 106.225 193.965 106.583 194.078 106.904C194.194 107.225 194.367 107.481 194.598 107.672C194.831 107.861 195.124 107.955 195.476 107.955ZM206.958 106.325V102.566H208.487V109.053H207.005V107.9H206.937C206.791 108.263 206.55 108.56 206.215 108.791C205.883 109.022 205.473 109.138 204.986 109.138C204.561 109.138 204.185 109.043 203.858 108.855C203.535 108.663 203.281 108.386 203.098 108.023C202.915 107.657 202.824 107.215 202.824 106.697V102.566H204.352V106.46C204.352 106.871 204.465 107.198 204.69 107.44C204.916 107.682 205.211 107.803 205.577 107.803C205.802 107.803 206.021 107.748 206.232 107.638C206.443 107.529 206.616 107.365 206.751 107.148C206.889 106.929 206.958 106.654 206.958 106.325ZM215.186 104.281L213.793 104.433C213.753 104.292 213.684 104.16 213.586 104.036C213.49 103.912 213.36 103.812 213.197 103.736C213.034 103.66 212.834 103.622 212.597 103.622C212.279 103.622 212.012 103.691 211.795 103.829C211.581 103.967 211.475 104.146 211.478 104.365C211.475 104.554 211.544 104.707 211.685 104.826C211.829 104.944 212.065 105.041 212.395 105.117L213.501 105.354C214.115 105.486 214.571 105.696 214.87 105.983C215.171 106.27 215.323 106.646 215.326 107.11C215.323 107.519 215.203 107.879 214.967 108.192C214.733 108.501 214.408 108.744 213.991 108.918C213.574 109.093 213.096 109.18 212.555 109.18C211.761 109.18 211.122 109.014 210.638 108.682C210.154 108.347 209.865 107.881 209.772 107.284L211.263 107.14C211.33 107.433 211.474 107.654 211.694 107.803C211.913 107.952 212.199 108.027 212.551 108.027C212.914 108.027 213.206 107.952 213.425 107.803C213.648 107.654 213.759 107.469 213.759 107.25C213.759 107.064 213.687 106.911 213.543 106.79C213.403 106.668 213.183 106.576 212.885 106.511L211.778 106.278C211.156 106.149 210.696 105.931 210.397 105.624C210.099 105.314 209.951 104.923 209.954 104.45C209.951 104.05 210.059 103.704 210.279 103.411C210.501 103.115 210.81 102.887 211.204 102.727C211.601 102.563 212.058 102.482 212.576 102.482C213.337 102.482 213.935 102.644 214.371 102.967C214.81 103.291 215.082 103.729 215.186 104.281ZM219.458 109.18C218.808 109.18 218.246 109.045 217.773 108.774C217.303 108.501 216.941 108.116 216.688 107.617C216.434 107.116 216.308 106.526 216.308 105.848C216.308 105.18 216.434 104.595 216.688 104.091C216.944 103.584 217.302 103.19 217.76 102.908C218.219 102.624 218.759 102.482 219.378 102.482C219.778 102.482 220.155 102.546 220.51 102.676C220.867 102.803 221.183 103 221.456 103.267C221.732 103.535 221.949 103.875 222.106 104.289C222.264 104.7 222.343 105.19 222.343 105.759V106.228H217.026V105.197H220.877C220.875 104.904 220.811 104.644 220.687 104.416C220.563 104.185 220.39 104.004 220.168 103.871C219.948 103.739 219.692 103.673 219.399 103.673C219.087 103.673 218.812 103.749 218.576 103.901C218.339 104.05 218.155 104.247 218.022 104.492C217.893 104.734 217.827 105 217.824 105.29V106.19C217.824 106.567 217.893 106.891 218.031 107.161C218.169 107.429 218.362 107.634 218.609 107.778C218.857 107.919 219.147 107.989 219.479 107.989C219.702 107.989 219.903 107.958 220.083 107.896C220.264 107.831 220.42 107.737 220.552 107.613C220.684 107.489 220.784 107.336 220.852 107.153L222.279 107.313C222.189 107.69 222.018 108.02 221.764 108.301C221.514 108.58 221.193 108.797 220.801 108.952C220.41 109.104 219.962 109.18 219.458 109.18ZM223.636 109.053V102.566H225.119V103.647H225.186C225.304 103.273 225.507 102.984 225.794 102.782C226.084 102.576 226.415 102.473 226.787 102.473C226.871 102.473 226.966 102.477 227.07 102.486C227.177 102.492 227.265 102.501 227.336 102.515V103.922C227.271 103.899 227.168 103.88 227.028 103.863C226.89 103.843 226.756 103.833 226.626 103.833C226.348 103.833 226.097 103.894 225.875 104.015C225.655 104.133 225.482 104.298 225.355 104.509C225.228 104.72 225.165 104.964 225.165 105.24V109.053H223.636Z" fill="#486581"/>
<path d="M145.117 130.746H350.737" stroke="#D9E2EC" stroke-width="1.98216"/>
<rect x="145.612" y="147.934" width="204.63" height="40.7948" rx="3.46877" fill="#FAFCFE"/>
<rect x="145.612" y="147.934" width="204.63" height="40.7948" rx="3.46877" stroke="#C9D4DE" stroke-width="0.991078"/>
<rect x="160.974" y="155.367" width="25.9286" height="25.9286" rx="12.9643" fill="#2680C2"/>
<path d="M173.073 166.495H171.755C171.704 166.213 171.61 165.966 171.472 165.752C171.334 165.538 171.165 165.356 170.965 165.207C170.765 165.058 170.541 164.945 170.294 164.869C170.049 164.793 169.788 164.755 169.512 164.755C169.014 164.755 168.568 164.88 168.174 165.131C167.782 165.381 167.472 165.749 167.244 166.233C167.019 166.717 166.907 167.309 166.907 168.007C166.907 168.711 167.019 169.305 167.244 169.789C167.472 170.273 167.784 170.639 168.178 170.887C168.572 171.135 169.015 171.259 169.508 171.259C169.781 171.259 170.04 171.222 170.285 171.149C170.533 171.073 170.757 170.962 170.957 170.815C171.157 170.669 171.326 170.49 171.464 170.279C171.604 170.065 171.701 169.82 171.755 169.544L173.073 169.548C173.002 169.974 172.866 170.365 172.663 170.722C172.463 171.077 172.205 171.384 171.89 171.643C171.578 171.899 171.22 172.098 170.817 172.239C170.415 172.379 169.975 172.45 169.5 172.45C168.751 172.45 168.083 172.272 167.498 171.918C166.912 171.56 166.45 171.049 166.113 170.385C165.777 169.72 165.61 168.928 165.61 168.007C165.61 167.083 165.779 166.291 166.117 165.629C166.455 164.965 166.916 164.455 167.502 164.1C168.088 163.743 168.754 163.564 169.5 163.564C169.959 163.564 170.387 163.63 170.784 163.762C171.183 163.892 171.542 164.083 171.861 164.337C172.179 164.587 172.442 164.894 172.65 165.257C172.859 165.618 172.999 166.03 173.073 166.495ZM175.307 172.332H173.921L177.034 163.682H178.542L181.654 172.332H180.269L177.824 165.253H177.756L175.307 172.332ZM175.539 168.944H180.033V170.042H175.539V168.944Z" fill="white"/>
<path d="M202.839 166.385H201.791C201.729 166.084 201.621 165.819 201.466 165.591C201.314 165.363 201.128 165.172 200.909 165.017C200.692 164.859 200.451 164.741 200.187 164.662C199.922 164.583 199.646 164.544 199.359 164.544C198.835 164.544 198.361 164.676 197.936 164.941C197.513 165.205 197.177 165.595 196.926 166.111C196.678 166.626 196.554 167.258 196.554 168.007C196.554 168.756 196.678 169.388 196.926 169.903C197.177 170.418 197.513 170.808 197.936 171.073C198.361 171.338 198.835 171.47 199.359 171.47C199.646 171.47 199.922 171.431 200.187 171.352C200.451 171.273 200.692 171.156 200.909 171.001C201.128 170.844 201.314 170.651 201.466 170.423C201.621 170.192 201.729 169.927 201.791 169.629H202.839C202.76 170.071 202.616 170.466 202.408 170.815C202.2 171.164 201.941 171.462 201.631 171.706C201.321 171.949 200.974 172.133 200.588 172.26C200.205 172.386 199.795 172.45 199.359 172.45C198.621 172.45 197.965 172.27 197.391 171.909C196.816 171.549 196.364 171.036 196.035 170.372C195.706 169.707 195.541 168.919 195.541 168.007C195.541 167.095 195.706 166.306 196.035 165.642C196.364 164.977 196.816 164.465 197.391 164.104C197.965 163.744 198.621 163.564 199.359 163.564C199.795 163.564 200.205 163.627 200.588 163.754C200.974 163.881 201.321 164.066 201.631 164.311C201.941 164.554 202.2 164.849 202.408 165.198C202.616 165.545 202.76 165.94 202.839 166.385ZM205.393 163.682V172.332H204.396V163.682H205.393ZM209.127 172.484C208.716 172.484 208.343 172.406 208.008 172.251C207.673 172.094 207.407 171.867 207.21 171.571C207.013 171.273 206.914 170.912 206.914 170.49C206.914 170.119 206.988 169.817 207.134 169.586C207.28 169.353 207.476 169.17 207.721 169.037C207.966 168.905 208.236 168.806 208.532 168.742C208.83 168.674 209.13 168.621 209.431 168.581C209.826 168.531 210.145 168.493 210.39 168.467C210.638 168.439 210.818 168.393 210.931 168.328C211.046 168.263 211.104 168.15 211.104 167.99V167.956C211.104 167.539 210.99 167.216 210.762 166.985C210.537 166.754 210.194 166.638 209.736 166.638C209.26 166.638 208.887 166.743 208.616 166.951C208.346 167.159 208.156 167.382 208.046 167.618L207.1 167.28C207.269 166.886 207.494 166.579 207.776 166.36C208.06 166.137 208.37 165.982 208.705 165.895C209.043 165.805 209.375 165.76 209.702 165.76C209.91 165.76 210.149 165.785 210.42 165.836C210.693 165.884 210.956 165.984 211.209 166.136C211.466 166.288 211.678 166.517 211.847 166.824C212.016 167.131 212.101 167.542 212.101 168.058V172.332H211.104V171.453H211.053C210.986 171.594 210.873 171.744 210.715 171.905C210.558 172.065 210.348 172.202 210.086 172.315C209.824 172.427 209.505 172.484 209.127 172.484ZM209.279 171.588C209.674 171.588 210.006 171.511 210.276 171.356C210.549 171.201 210.755 171.001 210.893 170.756C211.034 170.511 211.104 170.254 211.104 169.983V169.071C211.062 169.122 210.969 169.168 210.825 169.21C210.684 169.25 210.521 169.285 210.335 169.316C210.152 169.344 209.973 169.37 209.799 169.392C209.627 169.412 209.488 169.429 209.381 169.443C209.122 169.477 208.88 169.531 208.654 169.607C208.432 169.681 208.252 169.792 208.114 169.941C207.979 170.088 207.911 170.287 207.911 170.541C207.911 170.887 208.039 171.149 208.295 171.326C208.554 171.501 208.882 171.588 209.279 171.588ZM213.92 172.332V165.844H214.917V172.332H213.92ZM214.427 164.763C214.232 164.763 214.065 164.697 213.924 164.565C213.786 164.432 213.717 164.273 213.717 164.088C213.717 163.902 213.786 163.743 213.924 163.61C214.065 163.478 214.232 163.412 214.427 163.412C214.621 163.412 214.787 163.478 214.925 163.61C215.066 163.743 215.136 163.902 215.136 164.088C215.136 164.273 215.066 164.432 214.925 164.565C214.787 164.697 214.621 164.763 214.427 164.763ZM216.742 172.332V165.844H217.705V166.824H217.773C217.891 166.503 218.105 166.243 218.415 166.043C218.724 165.843 219.073 165.743 219.462 165.743C219.535 165.743 219.627 165.745 219.736 165.747C219.846 165.75 219.929 165.754 219.986 165.76V166.774C219.952 166.765 219.874 166.753 219.753 166.736C219.635 166.716 219.51 166.706 219.377 166.706C219.062 166.706 218.781 166.772 218.533 166.905C218.288 167.034 218.094 167.214 217.95 167.445C217.809 167.673 217.739 167.934 217.739 168.226V172.332H216.742ZM225.002 172.332H223.904L227.08 163.682H228.161L231.337 172.332H230.239L227.654 165.05H227.587L225.002 172.332ZM225.407 168.953H229.833V169.882H225.407V168.953ZM233.275 172.399C233.067 172.399 232.888 172.325 232.739 172.175C232.59 172.026 232.515 171.847 232.515 171.639C232.515 171.431 232.59 171.252 232.739 171.103C232.888 170.953 233.067 170.879 233.275 170.879C233.484 170.879 233.663 170.953 233.812 171.103C233.961 171.252 234.036 171.431 234.036 171.639C234.036 171.777 234 171.904 233.93 172.019C233.862 172.134 233.771 172.227 233.655 172.298C233.543 172.365 233.416 172.399 233.275 172.399Z" fill="#486581"/>
<path d="M327.242 164.657L322.987 168.912L318.733 164.657L317.331 166.059L322.987 171.715L328.643 166.059L327.242 164.657Z" fill="#829AB1"/>
<rect x="145.117" y="205.917" width="94.7145" height="36.8572" rx="18.4286" fill="#2680C2"/>
<path d="M170.755 223.287H168.597C168.557 223.008 168.477 222.76 168.355 222.543C168.234 222.323 168.078 222.136 167.887 221.982C167.697 221.827 167.476 221.709 167.227 221.627C166.98 221.545 166.713 221.504 166.424 221.504C165.901 221.504 165.446 221.633 165.059 221.893C164.671 222.149 164.371 222.524 164.157 223.016C163.944 223.506 163.837 224.1 163.837 224.8C163.837 225.519 163.944 226.124 164.157 226.613C164.374 227.103 164.676 227.472 165.064 227.722C165.451 227.971 165.9 228.096 166.409 228.096C166.695 228.096 166.959 228.059 167.202 227.983C167.449 227.907 167.667 227.797 167.857 227.653C168.048 227.505 168.206 227.326 168.33 227.116C168.459 226.906 168.547 226.666 168.597 226.396L170.755 226.406C170.699 226.869 170.559 227.316 170.336 227.746C170.116 228.173 169.819 228.556 169.444 228.895C169.073 229.23 168.629 229.496 168.114 229.693C167.601 229.887 167.021 229.983 166.374 229.983C165.474 229.983 164.67 229.78 163.96 229.372C163.254 228.965 162.695 228.376 162.285 227.604C161.877 226.832 161.674 225.897 161.674 224.8C161.674 223.7 161.881 222.763 162.295 221.991C162.709 221.22 163.27 220.632 163.98 220.227C164.689 219.82 165.487 219.617 166.374 219.617C166.959 219.617 167.501 219.699 168 219.863C168.503 220.027 168.948 220.267 169.336 220.582C169.723 220.894 170.039 221.277 170.282 221.73C170.528 222.184 170.686 222.703 170.755 223.287ZM175.665 229.993C174.899 229.993 174.237 229.831 173.679 229.505C173.124 229.177 172.695 228.72 172.393 228.136C172.091 227.548 171.94 226.866 171.94 226.091C171.94 225.309 172.091 224.626 172.393 224.041C172.695 223.453 173.124 222.997 173.679 222.671C174.237 222.343 174.899 222.179 175.665 222.179C176.43 222.179 177.09 222.343 177.645 222.671C178.204 222.997 178.634 223.453 178.936 224.041C179.239 224.626 179.39 225.309 179.39 226.091C179.39 226.866 179.239 227.548 178.936 228.136C178.634 228.72 178.204 229.177 177.645 229.505C177.09 229.831 176.43 229.993 175.665 229.993ZM175.675 228.367C176.023 228.367 176.313 228.269 176.547 228.072C176.78 227.871 176.956 227.599 177.074 227.254C177.195 226.909 177.256 226.516 177.256 226.076C177.256 225.636 177.195 225.243 177.074 224.899C176.956 224.554 176.78 224.281 176.547 224.081C176.313 223.88 176.023 223.78 175.675 223.78C175.323 223.78 175.027 223.88 174.788 224.081C174.551 224.281 174.372 224.554 174.251 224.899C174.132 225.243 174.073 225.636 174.073 226.076C174.073 226.516 174.132 226.909 174.251 227.254C174.372 227.599 174.551 227.871 174.788 228.072C175.027 228.269 175.323 228.367 175.675 228.367ZM182.854 225.47V229.845H180.755V222.277H182.755V223.613H182.844C183.011 223.172 183.292 222.824 183.686 222.568C184.08 222.308 184.558 222.179 185.12 222.179C185.646 222.179 186.104 222.294 186.495 222.524C186.886 222.754 187.189 223.082 187.406 223.509C187.623 223.933 187.731 224.439 187.731 225.027V229.845H185.632V225.401C185.636 224.938 185.517 224.577 185.278 224.317C185.038 224.054 184.708 223.923 184.287 223.923C184.005 223.923 183.755 223.984 183.538 224.105C183.325 224.227 183.157 224.404 183.036 224.637C182.918 224.867 182.857 225.145 182.854 225.47ZM193.411 222.277V223.854H188.854V222.277H193.411ZM189.888 220.464H191.987V227.52C191.987 227.714 192.017 227.865 192.076 227.973C192.135 228.078 192.217 228.152 192.322 228.195C192.431 228.238 192.556 228.259 192.697 228.259C192.795 228.259 192.894 228.251 192.993 228.234C193.091 228.215 193.167 228.2 193.219 228.19L193.549 229.752C193.444 229.785 193.296 229.822 193.106 229.865C192.915 229.911 192.684 229.939 192.411 229.949C191.905 229.969 191.462 229.901 191.081 229.747C190.703 229.593 190.409 229.353 190.199 229.028C189.989 228.702 189.885 228.292 189.888 227.796V220.464ZM194.779 229.845V222.277H196.878V229.845H194.779ZM195.833 221.302C195.521 221.302 195.253 221.198 195.03 220.991C194.81 220.781 194.7 220.53 194.7 220.237C194.7 219.948 194.81 219.7 195.03 219.493C195.253 219.283 195.521 219.178 195.833 219.178C196.145 219.178 196.411 219.283 196.631 219.493C196.855 219.7 196.966 219.948 196.966 220.237C196.966 220.53 196.855 220.781 196.631 220.991C196.411 221.198 196.145 221.302 195.833 221.302ZM200.658 225.47V229.845H198.559V222.277H200.56V223.613H200.648C200.816 223.172 201.097 222.824 201.491 222.568C201.885 222.308 202.363 222.179 202.925 222.179C203.45 222.179 203.908 222.294 204.299 222.524C204.69 222.754 204.994 223.082 205.211 223.509C205.428 223.933 205.536 224.439 205.536 225.027V229.845H203.437V225.401C203.44 224.938 203.322 224.577 203.082 224.317C202.842 224.054 202.512 223.923 202.092 223.923C201.809 223.923 201.56 223.984 201.343 224.105C201.129 224.227 200.962 224.404 200.84 224.637C200.722 224.867 200.661 225.145 200.658 225.47ZM212.044 226.623V222.277H214.143V229.845H212.127V228.471H212.049C211.878 228.914 211.594 229.271 211.196 229.54C210.802 229.809 210.321 229.944 209.753 229.944C209.247 229.944 208.802 229.829 208.417 229.599C208.033 229.369 207.732 229.042 207.516 228.619C207.302 228.195 207.194 227.687 207.19 227.096V222.277H209.289V226.722C209.293 227.168 209.413 227.521 209.649 227.781C209.886 228.04 210.203 228.17 210.6 228.17C210.853 228.17 211.089 228.113 211.31 227.998C211.53 227.879 211.707 227.705 211.842 227.475C211.98 227.246 212.047 226.961 212.044 226.623ZM219.271 229.993C218.492 229.993 217.822 229.836 217.26 229.52C216.702 229.202 216.272 228.752 215.969 228.17C215.667 227.586 215.516 226.894 215.516 226.096C215.516 225.317 215.667 224.634 215.969 224.046C216.272 223.458 216.697 223 217.246 222.671C217.797 222.343 218.445 222.179 219.187 222.179C219.686 222.179 220.151 222.259 220.581 222.42C221.015 222.578 221.393 222.816 221.715 223.135C222.04 223.453 222.293 223.854 222.473 224.337C222.654 224.816 222.744 225.378 222.744 226.022V226.598H216.354V225.298H220.769C220.769 224.995 220.703 224.728 220.571 224.494C220.44 224.261 220.258 224.079 220.025 223.948C219.795 223.813 219.527 223.746 219.221 223.746C218.903 223.746 218.62 223.819 218.374 223.967C218.131 224.112 217.94 224.307 217.802 224.554C217.664 224.797 217.594 225.068 217.591 225.367V226.603C217.591 226.978 217.659 227.301 217.797 227.574C217.939 227.847 218.137 228.057 218.394 228.205C218.65 228.353 218.954 228.426 219.305 228.426C219.538 228.426 219.752 228.394 219.946 228.328C220.14 228.262 220.305 228.164 220.443 228.032C220.581 227.901 220.686 227.74 220.759 227.549L222.7 227.677C222.602 228.144 222.399 228.551 222.094 228.899C221.792 229.244 221.401 229.514 220.921 229.707C220.445 229.898 219.895 229.993 219.271 229.993Z" fill="white"/>
</g>
</g>
<defs>
<filter id="filter0_dd_1232_69698" x="48.3854" y="40.9468" width="402.729" height="294.058" filterUnits="userSpaceOnUse" color-interpolation-filters="sRGB">
<feFlood flood-opacity="0" result="BackgroundImageFix"/>
<feColorMatrix in="SourceAlpha" type="matrix" values="0 0 0 0 0 0 0 0 0 0 0 0 0 0 0 0 0 0 127 0" result="hardAlpha"/>
<feMorphology radius="2.39931" operator="erode" in="SourceAlpha" result="effect1_dropShadow_1232_69698"/>
<feOffset dy="4.79863"/>
<feGaussianBlur stdDeviation="3.59897"/>
<feComposite in2="hardAlpha" operator="out"/>
<feColorMatrix type="matrix" values="0 0 0 0 0 0 0 0 0 0 0 0 0 0 0 0 0 0 0.03 0"/>
<feBlend mode="normal" in2="BackgroundImageFix" result="effect1_dropShadow_1232_69698"/>
<feColorMatrix in="SourceAlpha" type="matrix" values="0 0 0 0 0 0 0 0 0 0 0 0 0 0 0 0 0 0 127 0" result="hardAlpha"/>
<feMorphology radius="4.79863" operator="erode" in="SourceAlpha" result="effect2_dropShadow_1232_69698"/>
<feOffset dy="14.3959"/>
<feGaussianBlur stdDeviation="9.59726"/>
<feComposite in2="hardAlpha" operator="out"/>
<feColorMatrix type="matrix" values="0 0 0 0 0 0 0 0 0 0 0 0 0 0 0 0 0 0 0.08 0"/>
<feBlend mode="normal" in2="effect1_dropShadow_1232_69698" result="effect2_dropShadow_1232_69698"/>
<feBlend mode="normal" in="SourceGraphic" in2="effect2_dropShadow_1232_69698" result="shape"/>
</filter>
<filter id="filter1_d_1232_69698" x="89.2316" y="112.478" width="321.037" height="38.2914" filterUnits="userSpaceOnUse" color-interpolation-filters="sRGB">
<feFlood flood-opacity="0" result="BackgroundImageFix"/>
<feColorMatrix in="SourceAlpha" type="matrix" values="0 0 0 0 0 0 0 0 0 0 0 0 0 0 0 0 0 0 127 0" result="hardAlpha"/>
<feOffset dy="0.49729"/>
<feGaussianBlur stdDeviation="0.49729"/>
<feComposite in2="hardAlpha" operator="out"/>
<feColorMatrix type="matrix" values="0 0 0 0 0 0 0 0 0 0 0 0 0 0 0 0 0 0 0.04 0"/>
<feBlend mode="normal" in2="BackgroundImageFix" result="effect1_dropShadow_1232_69698"/>
<feBlend mode="normal" in="SourceGraphic" in2="effect1_dropShadow_1232_69698" result="shape"/>
</filter>
<filter id="filter2_d_1232_69698" x="89.2316" y="155.641" width="321.037" height="38.2914" filterUnits="userSpaceOnUse" color-interpolation-filters="sRGB">
<feFlood flood-opacity="0" result="BackgroundImageFix"/>
<feColorMatrix in="SourceAlpha" type="matrix" values="0 0 0 0 0 0 0 0 0 0 0 0 0 0 0 0 0 0 127 0" result="hardAlpha"/>
<feOffset dy="0.49729"/>
<feGaussianBlur stdDeviation="0.49729"/>
<feComposite in2="hardAlpha" operator="out"/>
<feColorMatrix type="matrix" values="0 0 0 0 0 0 0 0 0 0 0 0 0 0 0 0 0 0 0.04 0"/>
<feBlend mode="normal" in2="BackgroundImageFix" result="effect1_dropShadow_1232_69698"/>
<feBlend mode="normal" in="SourceGraphic" in2="effect1_dropShadow_1232_69698" result="shape"/>
</filter>
<filter id="filter3_d_1232_69698" x="89.2316" y="198.805" width="321.037" height="38.2914" filterUnits="userSpaceOnUse" color-interpolation-filters="sRGB">
<feFlood flood-opacity="0" result="BackgroundImageFix"/>
<feColorMatrix in="SourceAlpha" type="matrix" values="0 0 0 0 0 0 0 0 0 0 0 0 0 0 0 0 0 0 127 0" result="hardAlpha"/>
<feOffset dy="0.49729"/>
<feGaussianBlur stdDeviation="0.49729"/>
<feComposite in2="hardAlpha" operator="out"/>
<feColorMatrix type="matrix" values="0 0 0 0 0 0 0 0 0 0 0 0 0 0 0 0 0 0 0.04 0"/>
<feBlend mode="normal" in2="BackgroundImageFix" result="effect1_dropShadow_1232_69698"/>
<feBlend mode="normal" in="SourceGraphic" in2="effect1_dropShadow_1232_69698" result="shape"/>
</filter>
<filter id="filter4_d_1232_69698" x="89.2316" y="241.968" width="321.037" height="38.2914" filterUnits="userSpaceOnUse" color-interpolation-filters="sRGB">
<feFlood flood-opacity="0" result="BackgroundImageFix"/>
<feColorMatrix in="SourceAlpha" type="matrix" values="0 0 0 0 0 0 0 0 0 0 0 0 0 0 0 0 0 0 127 0" result="hardAlpha"/>
<feOffset dy="0.49729"/>
<feGaussianBlur stdDeviation="0.49729"/>
<feComposite in2="hardAlpha" operator="out"/>
<feColorMatrix type="matrix" values="0 0 0 0 0 0 0 0 0 0 0 0 0 0 0 0 0 0 0.04 0"/>
<feBlend mode="normal" in2="BackgroundImageFix" result="effect1_dropShadow_1232_69698"/>
<feBlend mode="normal" in="SourceGraphic" in2="effect1_dropShadow_1232_69698" result="shape"/>
</filter>
<filter id="filter5_dd_1232_69698" x="107.559" y="75.1877" width="280.737" height="213.491" filterUnits="userSpaceOnUse" color-interpolation-filters="sRGB">
<feFlood flood-opacity="0" result="BackgroundImageFix"/>
<feColorMatrix in="SourceAlpha" type="matrix" values="0 0 0 0 0 0 0 0 0 0 0 0 0 0 0 0 0 0 127 0" result="hardAlpha"/>
<feMorphology radius="4.17313" operator="erode" in="SourceAlpha" result="effect1_dropShadow_1232_69698"/>
<feOffset dy="4.17313"/>
<feGaussianBlur stdDeviation="4.17313"/>
<feComposite in2="hardAlpha" operator="out"/>
<feColorMatrix type="matrix" values="0 0 0 0 0 0 0 0 0 0 0 0 0 0 0 0 0 0 0.06 0"/>
<feBlend mode="normal" in2="BackgroundImageFix" result="effect1_dropShadow_1232_69698"/>
<feColorMatrix in="SourceAlpha" type="matrix" values="0 0 0 0 0 0 0 0 0 0 0 0 0 0 0 0 0 0 127 0" result="hardAlpha"/>
<feMorphology radius="4.17313" operator="erode" in="SourceAlpha" result="effect2_dropShadow_1232_69698"/>
<feOffset dy="8.34625"/>
<feGaussianBlur stdDeviation="8.34625"/>
<feComposite in2="hardAlpha" operator="out"/>
<feColorMatrix type="matrix" values="0 0 0 0 0 0 0 0 0 0 0 0 0 0 0 0 0 0 0.1 0"/>
<feBlend mode="normal" in2="effect1_dropShadow_1232_69698" result="effect2_dropShadow_1232_69698"/>
<feBlend mode="normal" in="SourceGraphic" in2="effect2_dropShadow_1232_69698" result="shape"/>
</filter>
</defs>
</svg>
