<svg width="400" height="348" viewBox="0 0 400 348" fill="none" xmlns="http://www.w3.org/2000/svg">
<g filter="url(#filter0_dd_1216_252656)">
<rect x="36.5" y="69.2417" width="327" height="209.516" rx="9.94677" fill="white"/>
<rect x="37.1217" y="69.8634" width="325.757" height="208.273" rx="9.3251" stroke="#2680C2" stroke-width="1.24335"/>
<path d="M63.6768 109.242L60.7635 99.0599H63.1151L64.8004 106.134H64.8849L66.7443 99.0599H68.7578L70.6122 106.149H70.7017L72.3871 99.0599H74.7386L71.8253 109.242H69.7273L67.7884 102.585H67.7088L65.7749 109.242H63.6768ZM77.9689 104.827V109.242H75.851V99.0599H77.9093V102.953H77.9988C78.1711 102.502 78.4495 102.149 78.834 101.894C79.2185 101.635 79.7007 101.506 80.2807 101.506C80.811 101.506 81.2734 101.622 81.6678 101.854C82.0655 102.083 82.3738 102.412 82.5925 102.843C82.8146 103.271 82.9239 103.783 82.9206 104.379V109.242H80.8027V104.757C80.806 104.287 80.6867 103.92 80.4448 103.659C80.2061 103.397 79.8714 103.266 79.4405 103.266C79.1522 103.266 78.897 103.327 78.6749 103.45C78.4561 103.572 78.2838 103.751 78.1578 103.987C78.0352 104.219 77.9722 104.499 77.9689 104.827ZM88.0376 109.391C87.2654 109.391 86.5975 109.227 86.0341 108.899C85.474 108.567 85.0414 108.107 84.7365 107.517C84.4316 106.923 84.2791 106.236 84.2791 105.453C84.2791 104.665 84.4316 103.975 84.7365 103.385C85.0414 102.792 85.474 102.331 86.0341 102.003C86.5975 101.672 87.2654 101.506 88.0376 101.506C88.8099 101.506 89.4761 101.672 90.0362 102.003C90.5997 102.331 91.0339 102.792 91.3388 103.385C91.6437 103.975 91.7962 104.665 91.7962 105.453C91.7962 106.236 91.6437 106.923 91.3388 107.517C91.0339 108.107 90.5997 108.567 90.0362 108.899C89.4761 109.227 88.8099 109.391 88.0376 109.391ZM88.0476 107.75C88.3989 107.75 88.6922 107.651 88.9276 107.452C89.1629 107.25 89.3402 106.975 89.4595 106.627C89.5821 106.279 89.6435 105.883 89.6435 105.438C89.6435 104.994 89.5821 104.598 89.4595 104.25C89.3402 103.902 89.1629 103.627 88.9276 103.425C88.6922 103.223 88.3989 103.122 88.0476 103.122C87.6929 103.122 87.3946 103.223 87.1527 103.425C86.9141 103.627 86.7334 103.902 86.6108 104.25C86.4915 104.598 86.4318 104.994 86.4318 105.438C86.4318 105.883 86.4915 106.279 86.6108 106.627C86.7334 106.975 86.9141 107.25 87.1527 107.452C87.3946 107.651 87.6929 107.75 88.0476 107.75ZM99.8936 109.391C99.1081 109.391 98.432 109.232 97.8652 108.914C97.3018 108.592 96.8676 108.138 96.5627 107.551C96.2578 106.961 96.1053 106.264 96.1053 105.458C96.1053 104.673 96.2578 103.983 96.5627 103.39C96.8676 102.797 97.2968 102.335 97.8503 102.003C98.4071 101.672 99.0601 101.506 99.8091 101.506C100.313 101.506 100.782 101.587 101.216 101.75C101.654 101.909 102.035 102.149 102.36 102.47C102.688 102.792 102.943 103.196 103.125 103.683C103.307 104.167 103.399 104.734 103.399 105.384V105.965H96.9505V104.653H101.405C101.405 104.348 101.339 104.078 101.206 103.843C101.074 103.607 100.89 103.423 100.654 103.291C100.422 103.155 100.152 103.087 99.8439 103.087C99.5224 103.087 99.2374 103.161 98.9888 103.311C98.7435 103.456 98.5513 103.654 98.4121 103.902C98.2729 104.147 98.2016 104.421 98.1983 104.723V105.97C98.1983 106.348 98.2679 106.675 98.4071 106.95C98.5497 107.225 98.7502 107.437 99.0087 107.586C99.2672 107.735 99.5738 107.81 99.9284 107.81C100.164 107.81 100.379 107.777 100.575 107.71C100.77 107.644 100.938 107.545 101.077 107.412C101.216 107.28 101.322 107.117 101.395 106.925L103.354 107.054C103.254 107.525 103.051 107.936 102.742 108.287C102.437 108.635 102.043 108.907 101.559 109.102C101.079 109.295 100.523 109.391 99.8936 109.391ZM106.899 99.0599V109.242H104.781V99.0599H106.899ZM114.949 103.783L113.01 103.902C112.977 103.736 112.906 103.587 112.796 103.455C112.687 103.319 112.543 103.211 112.364 103.132C112.188 103.049 111.978 103.007 111.732 103.007C111.404 103.007 111.127 103.077 110.902 103.216C110.677 103.352 110.564 103.534 110.564 103.763C110.564 103.945 110.637 104.099 110.783 104.225C110.929 104.351 111.179 104.452 111.533 104.529L112.915 104.807C113.658 104.96 114.211 105.205 114.576 105.543C114.941 105.881 115.123 106.325 115.123 106.875C115.123 107.376 114.975 107.815 114.68 108.193C114.389 108.571 113.988 108.866 113.477 109.078C112.97 109.286 112.385 109.391 111.722 109.391C110.711 109.391 109.906 109.18 109.306 108.759C108.71 108.335 108.36 107.759 108.257 107.029L110.34 106.92C110.403 107.228 110.556 107.464 110.798 107.626C111.04 107.785 111.349 107.865 111.727 107.865C112.098 107.865 112.397 107.793 112.622 107.651C112.851 107.505 112.967 107.318 112.97 107.089C112.967 106.897 112.886 106.739 112.727 106.617C112.567 106.491 112.322 106.395 111.991 106.328L110.668 106.065C109.923 105.916 109.367 105.657 109.003 105.289C108.642 104.921 108.461 104.452 108.461 103.882C108.461 103.392 108.594 102.969 108.859 102.615C109.127 102.26 109.503 101.986 109.987 101.794C110.474 101.602 111.045 101.506 111.697 101.506C112.662 101.506 113.421 101.71 113.974 102.117C114.531 102.525 114.856 103.08 114.949 103.783ZM119.937 109.391C119.151 109.391 118.475 109.232 117.908 108.914C117.345 108.592 116.911 108.138 116.606 107.551C116.301 106.961 116.148 106.264 116.148 105.458C116.148 104.673 116.301 103.983 116.606 103.39C116.911 102.797 117.34 102.335 117.893 102.003C118.45 101.672 119.103 101.506 119.852 101.506C120.356 101.506 120.825 101.587 121.259 101.75C121.697 101.909 122.078 102.149 122.403 102.47C122.731 102.792 122.986 103.196 123.168 103.683C123.35 104.167 123.442 104.734 123.442 105.384V105.965H116.993V104.653H121.448C121.448 104.348 121.382 104.078 121.249 103.843C121.117 103.607 120.933 103.423 120.697 103.291C120.465 103.155 120.195 103.087 119.887 103.087C119.565 103.087 119.28 103.161 119.032 103.311C118.787 103.456 118.594 103.654 118.455 103.902C118.316 104.147 118.245 104.421 118.241 104.723V105.97C118.241 106.348 118.311 106.675 118.45 106.95C118.593 107.225 118.793 107.437 119.052 107.586C119.31 107.735 119.617 107.81 119.971 107.81C120.207 107.81 120.422 107.777 120.618 107.71C120.813 107.644 120.981 107.545 121.12 107.412C121.259 107.28 121.365 107.117 121.438 106.925L123.397 107.054C123.297 107.525 123.094 107.936 122.785 108.287C122.48 108.635 122.086 108.907 121.602 109.102C121.122 109.295 120.566 109.391 119.937 109.391ZM126.599 99.0599V100.134C126.599 100.439 126.539 100.75 126.42 101.068C126.304 101.383 126.148 101.682 125.952 101.963C125.757 102.242 125.543 102.479 125.311 102.674L124.376 102.122C124.542 101.861 124.688 101.571 124.814 101.252C124.943 100.934 125.008 100.565 125.008 100.144V99.0599H126.599ZM133.406 103.783L131.467 103.902C131.434 103.736 131.363 103.587 131.253 103.455C131.144 103.319 131 103.211 130.821 103.132C130.645 103.049 130.435 103.007 130.189 103.007C129.861 103.007 129.584 103.077 129.359 103.216C129.134 103.352 129.021 103.534 129.021 103.763C129.021 103.945 129.094 104.099 129.24 104.225C129.386 104.351 129.636 104.452 129.99 104.529L131.373 104.807C132.115 104.96 132.668 105.205 133.033 105.543C133.398 105.881 133.58 106.325 133.58 106.875C133.58 107.376 133.432 107.815 133.137 108.193C132.846 108.571 132.445 108.866 131.934 109.078C131.427 109.286 130.842 109.391 130.179 109.391C129.168 109.391 128.363 109.18 127.763 108.759C127.167 108.335 126.817 107.759 126.714 107.029L128.797 106.92C128.86 107.228 129.013 107.464 129.255 107.626C129.497 107.785 129.806 107.865 130.184 107.865C130.556 107.865 130.854 107.793 131.079 107.651C131.308 107.505 131.424 107.318 131.427 107.089C131.424 106.897 131.343 106.739 131.184 106.617C131.025 106.491 130.779 106.395 130.448 106.328L129.125 106.065C128.38 105.916 127.824 105.657 127.46 105.289C127.099 104.921 126.918 104.452 126.918 103.882C126.918 103.392 127.051 102.969 127.316 102.615C127.584 102.26 127.96 101.986 128.444 101.794C128.931 101.602 129.502 101.506 130.154 101.506C131.119 101.506 131.878 101.71 132.431 102.117C132.988 102.525 133.313 103.08 133.406 103.783ZM141.604 109.391C140.822 109.391 140.149 109.225 139.586 108.894C139.025 108.559 138.595 108.095 138.293 107.502C137.995 106.908 137.846 106.226 137.846 105.453C137.846 104.671 137.996 103.985 138.298 103.395C138.603 102.802 139.035 102.339 139.596 102.008C140.156 101.673 140.822 101.506 141.594 101.506C142.26 101.506 142.844 101.627 143.344 101.869C143.845 102.111 144.241 102.451 144.532 102.888C144.824 103.326 144.985 103.839 145.015 104.429H143.016C142.96 104.048 142.81 103.741 142.569 103.509C142.33 103.274 142.017 103.156 141.629 103.156C141.301 103.156 141.014 103.246 140.769 103.425C140.527 103.601 140.338 103.857 140.202 104.196C140.066 104.534 139.998 104.943 139.998 105.424C139.998 105.911 140.065 106.325 140.197 106.666C140.333 107.008 140.524 107.268 140.769 107.447C141.014 107.626 141.301 107.715 141.629 107.715C141.871 107.715 142.088 107.666 142.28 107.566C142.476 107.467 142.636 107.323 142.762 107.134C142.892 106.942 142.976 106.711 143.016 106.443H145.015C144.981 107.026 144.822 107.54 144.537 107.984C144.256 108.425 143.866 108.769 143.369 109.018C142.872 109.267 142.283 109.391 141.604 109.391ZM149.821 109.391C149.049 109.391 148.381 109.227 147.817 108.899C147.257 108.567 146.825 108.107 146.52 107.517C146.215 106.923 146.062 106.236 146.062 105.453C146.062 104.665 146.215 103.975 146.52 103.385C146.825 102.792 147.257 102.331 147.817 102.003C148.381 101.672 149.049 101.506 149.821 101.506C150.593 101.506 151.259 101.672 151.819 102.003C152.383 102.331 152.817 102.792 153.122 103.385C153.427 103.975 153.579 104.665 153.579 105.453C153.579 106.236 153.427 106.923 153.122 107.517C152.817 108.107 152.383 108.567 151.819 108.899C151.259 109.227 150.593 109.391 149.821 109.391ZM149.831 107.75C150.182 107.75 150.475 107.651 150.711 107.452C150.946 107.25 151.123 106.975 151.243 106.627C151.365 106.279 151.427 105.883 151.427 105.438C151.427 104.994 151.365 104.598 151.243 104.25C151.123 103.902 150.946 103.627 150.711 103.425C150.475 103.223 150.182 103.122 149.831 103.122C149.476 103.122 149.178 103.223 148.936 103.425C148.697 103.627 148.517 103.902 148.394 104.25C148.275 104.598 148.215 104.994 148.215 105.438C148.215 105.883 148.275 106.279 148.394 106.627C148.517 106.975 148.697 107.25 148.936 107.452C149.178 107.651 149.476 107.75 149.831 107.75ZM157.074 104.827V109.242H154.956V101.605H156.975V102.953H157.064C157.233 102.509 157.517 102.157 157.915 101.899C158.312 101.637 158.795 101.506 159.361 101.506C159.892 101.506 160.354 101.622 160.748 101.854C161.143 102.086 161.449 102.417 161.668 102.848C161.887 103.276 161.996 103.786 161.996 104.379V109.242H159.878V104.757C159.882 104.29 159.762 103.925 159.52 103.664C159.278 103.398 158.945 103.266 158.521 103.266C158.236 103.266 157.984 103.327 157.765 103.45C157.55 103.572 157.381 103.751 157.258 103.987C157.139 104.219 157.078 104.499 157.074 104.827ZM167.727 101.605V103.196H163.129V101.605H167.727ZM164.173 99.7758H166.29V106.895C166.29 107.091 166.32 107.243 166.38 107.352C166.44 107.459 166.522 107.533 166.629 107.576C166.738 107.619 166.864 107.641 167.006 107.641C167.106 107.641 167.205 107.633 167.305 107.616C167.404 107.596 167.48 107.581 167.533 107.571L167.866 109.147C167.76 109.18 167.611 109.218 167.419 109.262C167.227 109.308 166.993 109.336 166.718 109.346C166.208 109.366 165.76 109.298 165.376 109.142C164.995 108.986 164.698 108.745 164.486 108.416C164.274 108.088 164.169 107.674 164.173 107.174V99.7758ZM171.284 109.386C170.797 109.386 170.363 109.301 169.982 109.132C169.601 108.96 169.299 108.706 169.077 108.372C168.858 108.034 168.749 107.613 168.749 107.109C168.749 106.685 168.827 106.328 168.983 106.04C169.138 105.752 169.35 105.52 169.619 105.344C169.887 105.168 170.192 105.036 170.534 104.946C170.878 104.857 171.24 104.794 171.618 104.757C172.062 104.711 172.42 104.668 172.691 104.628C172.963 104.585 173.16 104.522 173.283 104.439C173.406 104.356 173.467 104.234 173.467 104.071V104.041C173.467 103.727 173.368 103.483 173.169 103.311C172.973 103.138 172.695 103.052 172.333 103.052C171.952 103.052 171.649 103.137 171.424 103.306C171.198 103.471 171.049 103.68 170.976 103.932L169.017 103.773C169.117 103.309 169.312 102.908 169.604 102.57C169.896 102.228 170.272 101.967 170.733 101.784C171.197 101.599 171.734 101.506 172.343 101.506C172.768 101.506 173.174 101.556 173.561 101.655C173.953 101.754 174.299 101.909 174.6 102.117C174.905 102.326 175.146 102.595 175.321 102.923C175.497 103.248 175.585 103.637 175.585 104.091V109.242H173.576V108.183H173.517C173.394 108.421 173.23 108.632 173.025 108.814C172.819 108.993 172.572 109.134 172.284 109.237C171.995 109.336 171.662 109.386 171.284 109.386ZM171.891 107.924C172.203 107.924 172.478 107.863 172.716 107.74C172.955 107.614 173.142 107.445 173.278 107.233C173.414 107.021 173.482 106.781 173.482 106.512V105.702C173.416 105.745 173.324 105.785 173.208 105.821C173.096 105.854 172.968 105.886 172.826 105.916C172.683 105.942 172.541 105.967 172.398 105.99C172.256 106.01 172.126 106.028 172.01 106.045C171.762 106.081 171.545 106.139 171.359 106.219C171.173 106.299 171.029 106.406 170.926 106.542C170.824 106.675 170.772 106.84 170.772 107.039C170.772 107.328 170.877 107.548 171.086 107.701C171.298 107.85 171.566 107.924 171.891 107.924ZM180.678 109.391C179.896 109.391 179.223 109.225 178.66 108.894C178.1 108.559 177.669 108.095 177.367 107.502C177.069 106.908 176.92 106.226 176.92 105.453C176.92 104.671 177.071 103.985 177.372 103.395C177.677 102.802 178.11 102.339 178.67 102.008C179.23 101.673 179.896 101.506 180.668 101.506C181.335 101.506 181.918 101.627 182.418 101.869C182.919 102.111 183.315 102.451 183.607 102.888C183.898 103.326 184.059 103.839 184.089 104.429H182.09C182.034 104.048 181.885 103.741 181.643 103.509C181.404 103.274 181.091 103.156 180.703 103.156C180.375 103.156 180.088 103.246 179.843 103.425C179.601 103.601 179.412 103.857 179.276 104.196C179.14 104.534 179.072 104.943 179.072 105.424C179.072 105.911 179.139 106.325 179.271 106.666C179.407 107.008 179.598 107.268 179.843 107.447C180.088 107.626 180.375 107.715 180.703 107.715C180.945 107.715 181.162 107.666 181.354 107.566C181.55 107.467 181.711 107.323 181.837 107.134C181.966 106.942 182.05 106.711 182.09 106.443H184.089C184.056 107.026 183.897 107.54 183.612 107.984C183.33 108.425 182.94 108.769 182.443 109.018C181.946 109.267 181.358 109.391 180.678 109.391ZM189.507 101.605V103.196H184.908V101.605H189.507ZM185.952 99.7758H188.07V106.895C188.07 107.091 188.1 107.243 188.159 107.352C188.219 107.459 188.302 107.533 188.408 107.576C188.517 107.619 188.643 107.641 188.786 107.641C188.885 107.641 188.985 107.633 189.084 107.616C189.183 107.596 189.26 107.581 189.313 107.571L189.646 109.147C189.54 109.18 189.391 109.218 189.198 109.262C189.006 109.308 188.772 109.336 188.497 109.346C187.987 109.366 187.539 109.298 187.155 109.142C186.774 108.986 186.477 108.745 186.265 108.416C186.053 108.088 185.949 107.674 185.952 107.174V99.7758ZM197.144 103.783L195.205 103.902C195.172 103.736 195.101 103.587 194.991 103.455C194.882 103.319 194.738 103.211 194.559 103.132C194.383 103.049 194.173 103.007 193.928 103.007C193.599 103.007 193.323 103.077 193.097 103.216C192.872 103.352 192.759 103.534 192.759 103.763C192.759 103.945 192.832 104.099 192.978 104.225C193.124 104.351 193.374 104.452 193.729 104.529L195.111 104.807C195.853 104.96 196.407 105.205 196.771 105.543C197.136 105.881 197.318 106.325 197.318 106.875C197.318 107.376 197.171 107.815 196.876 108.193C196.584 108.571 196.183 108.866 195.673 109.078C195.165 109.286 194.58 109.391 193.918 109.391C192.907 109.391 192.101 109.18 191.501 108.759C190.905 108.335 190.555 107.759 190.452 107.029L192.536 106.92C192.598 107.228 192.751 107.464 192.993 107.626C193.235 107.785 193.545 107.865 193.923 107.865C194.294 107.865 194.592 107.793 194.817 107.651C195.046 107.505 195.162 107.318 195.165 107.089C195.162 106.897 195.081 106.739 194.922 106.617C194.763 106.491 194.518 106.395 194.186 106.328L192.864 106.065C192.118 105.916 191.563 105.657 191.198 105.289C190.837 104.921 190.656 104.452 190.656 103.882C190.656 103.392 190.789 102.969 191.054 102.615C191.322 102.26 191.699 101.986 192.183 101.794C192.67 101.602 193.24 101.506 193.893 101.506C194.857 101.506 195.616 101.71 196.17 102.117C196.727 102.525 197.051 103.08 197.144 103.783ZM205.342 109.391C204.56 109.391 203.887 109.225 203.324 108.894C202.764 108.559 202.333 108.095 202.031 107.502C201.733 106.908 201.584 106.226 201.584 105.453C201.584 104.671 201.735 103.985 202.036 103.395C202.341 102.802 202.774 102.339 203.334 102.008C203.894 101.673 204.56 101.506 205.332 101.506C205.999 101.506 206.582 101.627 207.082 101.869C207.583 102.111 207.979 102.451 208.271 102.888C208.562 103.326 208.723 103.839 208.753 104.429H206.754C206.698 104.048 206.549 103.741 206.307 103.509C206.068 103.274 205.755 103.156 205.367 103.156C205.039 103.156 204.752 103.246 204.507 103.425C204.265 103.601 204.076 103.857 203.94 104.196C203.804 104.534 203.737 104.943 203.737 105.424C203.737 105.911 203.803 106.325 203.935 106.666C204.071 107.008 204.262 107.268 204.507 107.447C204.752 107.626 205.039 107.715 205.367 107.715C205.609 107.715 205.826 107.666 206.018 107.566C206.214 107.467 206.375 107.323 206.501 107.134C206.63 106.942 206.714 106.711 206.754 106.443H208.753C208.72 107.026 208.561 107.54 208.276 107.984C207.994 108.425 207.604 108.769 207.107 109.018C206.61 109.267 206.022 109.391 205.342 109.391ZM212.286 109.386C211.799 109.386 211.365 109.301 210.984 109.132C210.603 108.96 210.301 108.706 210.079 108.372C209.86 108.034 209.751 107.613 209.751 107.109C209.751 106.685 209.829 106.328 209.985 106.04C210.14 105.752 210.352 105.52 210.621 105.344C210.889 105.168 211.194 105.036 211.536 104.946C211.88 104.857 212.242 104.794 212.619 104.757C213.064 104.711 213.422 104.668 213.693 104.628C213.965 104.585 214.162 104.522 214.285 104.439C214.408 104.356 214.469 104.234 214.469 104.071V104.041C214.469 103.727 214.369 103.483 214.171 103.311C213.975 103.138 213.697 103.052 213.335 103.052C212.954 103.052 212.651 103.137 212.426 103.306C212.2 103.471 212.051 103.68 211.978 103.932L210.019 103.773C210.119 103.309 210.314 102.908 210.606 102.57C210.898 102.228 211.274 101.967 211.735 101.784C212.199 101.599 212.735 101.506 213.345 101.506C213.77 101.506 214.176 101.556 214.563 101.655C214.954 101.754 215.301 101.909 215.602 102.117C215.907 102.326 216.148 102.595 216.323 102.923C216.499 103.248 216.587 103.637 216.587 104.091V109.242H214.578V108.183H214.519C214.396 108.421 214.232 108.632 214.026 108.814C213.821 108.993 213.574 109.134 213.286 109.237C212.997 109.336 212.664 109.386 212.286 109.386ZM212.893 107.924C213.204 107.924 213.48 107.863 213.718 107.74C213.957 107.614 214.144 107.445 214.28 107.233C214.416 107.021 214.484 106.781 214.484 106.512V105.702C214.418 105.745 214.326 105.785 214.21 105.821C214.098 105.854 213.97 105.886 213.828 105.916C213.685 105.942 213.543 105.967 213.4 105.99C213.258 106.01 213.128 106.028 213.012 106.045C212.764 106.081 212.547 106.139 212.361 106.219C212.175 106.299 212.031 106.406 211.928 106.542C211.826 106.675 211.774 106.84 211.774 107.039C211.774 107.328 211.879 107.548 212.088 107.701C212.3 107.85 212.568 107.924 212.893 107.924ZM220.348 104.827V109.242H218.23V101.605H220.248V102.953H220.338C220.507 102.509 220.79 102.157 221.188 101.899C221.586 101.637 222.068 101.506 222.635 101.506C223.165 101.506 223.627 101.622 224.022 101.854C224.416 102.086 224.723 102.417 224.942 102.848C225.16 103.276 225.27 103.786 225.27 104.379V109.242H223.152V104.757C223.155 104.29 223.036 103.925 222.794 103.664C222.552 103.398 222.219 103.266 221.795 103.266C221.51 103.266 221.258 103.327 221.039 103.45C220.823 103.572 220.654 103.751 220.532 103.987C220.412 104.219 220.351 104.499 220.348 104.827ZM233.828 109.242H230.219V99.0599H233.858C234.882 99.0599 235.764 99.2637 236.503 99.6714C237.242 100.076 237.811 100.657 238.208 101.416C238.609 102.175 238.81 103.084 238.81 104.141C238.81 105.201 238.609 106.113 238.208 106.875C237.811 107.638 237.239 108.223 236.493 108.63C235.751 109.038 234.862 109.242 233.828 109.242ZM232.372 107.397H233.739C234.375 107.397 234.91 107.285 235.345 107.059C235.782 106.83 236.11 106.477 236.329 106C236.551 105.52 236.662 104.9 236.662 104.141C236.662 103.388 236.551 102.774 236.329 102.296C236.11 101.819 235.784 101.468 235.35 101.242C234.915 101.017 234.38 100.904 233.744 100.904H232.372V107.397ZM242.542 109.386C242.055 109.386 241.621 109.301 241.24 109.132C240.859 108.96 240.557 108.706 240.335 108.372C240.116 108.034 240.007 107.613 240.007 107.109C240.007 106.685 240.085 106.328 240.24 106.04C240.396 105.752 240.608 105.52 240.877 105.344C241.145 105.168 241.45 105.036 241.792 104.946C242.136 104.857 242.498 104.794 242.875 104.757C243.319 104.711 243.677 104.668 243.949 104.628C244.221 104.585 244.418 104.522 244.541 104.439C244.663 104.356 244.725 104.234 244.725 104.071V104.041C244.725 103.727 244.625 103.483 244.426 103.311C244.231 103.138 243.953 103.052 243.591 103.052C243.21 103.052 242.907 103.137 242.681 103.306C242.456 103.471 242.307 103.68 242.234 103.932L240.275 103.773C240.375 103.309 240.57 102.908 240.862 102.57C241.154 102.228 241.53 101.967 241.99 101.784C242.454 101.599 242.991 101.506 243.601 101.506C244.025 101.506 244.431 101.556 244.819 101.655C245.21 101.754 245.557 101.909 245.858 102.117C246.163 102.326 246.404 102.595 246.579 102.923C246.755 103.248 246.843 103.637 246.843 104.091V109.242H244.834V108.183H244.775C244.652 108.421 244.488 108.632 244.282 108.814C244.077 108.993 243.83 109.134 243.542 109.237C243.253 109.336 242.92 109.386 242.542 109.386ZM243.149 107.924C243.46 107.924 243.735 107.863 243.974 107.74C244.213 107.614 244.4 107.445 244.536 107.233C244.672 107.021 244.74 106.781 244.74 106.512V105.702C244.673 105.745 244.582 105.785 244.466 105.821C244.354 105.854 244.226 105.886 244.083 105.916C243.941 105.942 243.798 105.967 243.656 105.99C243.513 106.01 243.384 106.028 243.268 106.045C243.02 106.081 242.802 106.139 242.617 106.219C242.431 106.299 242.287 106.406 242.184 106.542C242.082 106.675 242.03 106.84 242.03 107.039C242.03 107.328 242.135 107.548 242.343 107.701C242.556 107.85 242.824 107.924 243.149 107.924ZM255.332 101.605L252.662 109.242H250.276L247.606 101.605H249.843L251.429 107.069H251.509L253.089 101.605H255.332ZM256.415 109.242V101.605H258.533V109.242H256.415ZM257.479 100.621C257.165 100.621 256.894 100.517 256.669 100.308C256.447 100.096 256.336 99.8421 256.336 99.5471C256.336 99.2554 256.447 99.0052 256.669 98.7964C256.894 98.5843 257.165 98.4782 257.479 98.4782C257.794 98.4782 258.063 98.5843 258.285 98.7964C258.51 99.0052 258.623 99.2554 258.623 99.5471C258.623 99.8421 258.51 100.096 258.285 100.308C258.063 100.517 257.794 100.621 257.479 100.621ZM263.044 109.366C262.464 109.366 261.939 109.217 261.468 108.919C261.001 108.617 260.629 108.174 260.354 107.591C260.082 107.004 259.947 106.285 259.947 105.433C259.947 104.558 260.087 103.831 260.369 103.251C260.651 102.668 261.025 102.232 261.493 101.943C261.963 101.652 262.479 101.506 263.039 101.506C263.466 101.506 263.823 101.579 264.108 101.725C264.396 101.867 264.628 102.046 264.804 102.262C264.983 102.474 265.119 102.683 265.211 102.888H265.276V99.0599H267.389V109.242H265.301V108.019H265.211C265.112 108.231 264.971 108.441 264.789 108.65C264.61 108.856 264.376 109.026 264.088 109.162C263.803 109.298 263.455 109.366 263.044 109.366ZM263.715 107.681C264.056 107.681 264.345 107.588 264.58 107.402C264.819 107.213 265.001 106.95 265.127 106.612C265.256 106.274 265.321 105.878 265.321 105.424C265.321 104.969 265.258 104.575 265.132 104.24C265.006 103.906 264.824 103.647 264.585 103.465C264.346 103.282 264.056 103.191 263.715 103.191C263.367 103.191 263.074 103.286 262.835 103.475C262.596 103.664 262.416 103.925 262.293 104.26C262.171 104.595 262.109 104.983 262.109 105.424C262.109 105.868 262.171 106.26 262.293 106.602C262.419 106.94 262.6 107.205 262.835 107.397C263.074 107.586 263.367 107.681 263.715 107.681ZM274.548 109.386C274.061 109.386 273.627 109.301 273.246 109.132C272.864 108.96 272.563 108.706 272.341 108.372C272.122 108.034 272.013 107.613 272.013 107.109C272.013 106.685 272.09 106.328 272.246 106.04C272.402 105.752 272.614 105.52 272.883 105.344C273.151 105.168 273.456 105.036 273.797 104.946C274.142 104.857 274.503 104.794 274.881 104.757C275.325 104.711 275.683 104.668 275.955 104.628C276.227 104.585 276.424 104.522 276.547 104.439C276.669 104.356 276.731 104.234 276.731 104.071V104.041C276.731 103.727 276.631 103.483 276.432 103.311C276.237 103.138 275.958 103.052 275.597 103.052C275.216 103.052 274.913 103.137 274.687 103.306C274.462 103.471 274.313 103.68 274.24 103.932L272.281 103.773C272.381 103.309 272.576 102.908 272.868 102.57C273.159 102.228 273.536 101.967 273.996 101.784C274.46 101.599 274.997 101.506 275.607 101.506C276.031 101.506 276.437 101.556 276.825 101.655C277.216 101.754 277.563 101.909 277.864 102.117C278.169 102.326 278.409 102.595 278.585 102.923C278.761 103.248 278.849 103.637 278.849 104.091V109.242H276.84V108.183H276.78C276.658 108.421 276.494 108.632 276.288 108.814C276.083 108.993 275.836 109.134 275.547 109.237C275.259 109.336 274.926 109.386 274.548 109.386ZM275.155 107.924C275.466 107.924 275.741 107.863 275.98 107.74C276.219 107.614 276.406 107.445 276.542 107.233C276.678 107.021 276.746 106.781 276.746 106.512V105.702C276.679 105.745 276.588 105.785 276.472 105.821C276.359 105.854 276.232 105.886 276.089 105.916C275.947 105.942 275.804 105.967 275.662 105.99C275.519 106.01 275.39 106.028 275.274 106.045C275.025 106.081 274.808 106.139 274.623 106.219C274.437 106.299 274.293 106.406 274.19 106.542C274.087 106.675 274.036 106.84 274.036 107.039C274.036 107.328 274.14 107.548 274.349 107.701C274.561 107.85 274.83 107.924 275.155 107.924ZM283.942 109.391C283.16 109.391 282.487 109.225 281.923 108.894C281.363 108.559 280.932 108.095 280.631 107.502C280.333 106.908 280.183 106.226 280.183 105.453C280.183 104.671 280.334 103.985 280.636 103.395C280.941 102.802 281.373 102.339 281.933 102.008C282.494 101.673 283.16 101.506 283.932 101.506C284.598 101.506 285.182 101.627 285.682 101.869C286.182 102.111 286.579 102.451 286.87 102.888C287.162 103.326 287.323 103.839 287.352 104.429H285.354C285.298 104.048 285.148 103.741 284.906 103.509C284.668 103.274 284.355 103.156 283.967 103.156C283.639 103.156 283.352 103.246 283.107 103.425C282.865 103.601 282.676 103.857 282.54 104.196C282.404 104.534 282.336 104.943 282.336 105.424C282.336 105.911 282.402 106.325 282.535 106.666C282.671 107.008 282.861 107.268 283.107 107.447C283.352 107.626 283.639 107.715 283.967 107.715C284.209 107.715 284.426 107.666 284.618 107.566C284.814 107.467 284.974 107.323 285.1 107.134C285.23 106.942 285.314 106.711 285.354 106.443H287.352C287.319 107.026 287.16 107.54 286.875 107.984C286.593 108.425 286.204 108.769 285.707 109.018C285.21 109.267 284.621 109.391 283.942 109.391ZM292.159 109.391C291.377 109.391 290.704 109.225 290.14 108.894C289.58 108.559 289.149 108.095 288.848 107.502C288.549 106.908 288.4 106.226 288.4 105.453C288.4 104.671 288.551 103.985 288.853 103.395C289.158 102.802 289.59 102.339 290.15 102.008C290.71 101.673 291.377 101.506 292.149 101.506C292.815 101.506 293.398 101.627 293.899 101.869C294.399 102.111 294.795 102.451 295.087 102.888C295.379 103.326 295.539 103.839 295.569 104.429H293.571C293.514 104.048 293.365 103.741 293.123 103.509C292.885 103.274 292.571 103.156 292.184 103.156C291.855 103.156 291.569 103.246 291.324 103.425C291.082 103.601 290.893 103.857 290.757 104.196C290.621 104.534 290.553 104.943 290.553 105.424C290.553 105.911 290.619 106.325 290.752 106.666C290.888 107.008 291.078 107.268 291.324 107.447C291.569 107.626 291.855 107.715 292.184 107.715C292.426 107.715 292.643 107.666 292.835 107.566C293.03 107.467 293.191 107.323 293.317 107.134C293.446 106.942 293.531 106.711 293.571 106.443H295.569C295.536 107.026 295.377 107.54 295.092 107.984C294.81 108.425 294.421 108.769 293.924 109.018C293.426 109.267 292.838 109.391 292.159 109.391ZM300.405 109.391C299.62 109.391 298.944 109.232 298.377 108.914C297.814 108.592 297.379 108.138 297.074 107.551C296.769 106.961 296.617 106.264 296.617 105.458C296.617 104.673 296.769 103.983 297.074 103.39C297.379 102.797 297.809 102.335 298.362 102.003C298.919 101.672 299.572 101.506 300.321 101.506C300.825 101.506 301.294 101.587 301.728 101.75C302.165 101.909 302.546 102.149 302.871 102.47C303.199 102.792 303.455 103.196 303.637 103.683C303.819 104.167 303.91 104.734 303.91 105.384V105.965H297.462V104.653H301.917C301.917 104.348 301.85 104.078 301.718 103.843C301.585 103.607 301.401 103.423 301.166 103.291C300.934 103.155 300.664 103.087 300.356 103.087C300.034 103.087 299.749 103.161 299.501 103.311C299.255 103.456 299.063 103.654 298.924 103.902C298.785 104.147 298.713 104.421 298.71 104.723V105.97C298.71 106.348 298.78 106.675 298.919 106.95C299.061 107.225 299.262 107.437 299.52 107.586C299.779 107.735 300.086 107.81 300.44 107.81C300.675 107.81 300.891 107.777 301.086 107.71C301.282 107.644 301.449 107.545 301.589 107.412C301.728 107.28 301.834 107.117 301.907 106.925L303.866 107.054C303.766 107.525 303.562 107.936 303.254 108.287C302.949 108.635 302.555 108.907 302.071 109.102C301.59 109.295 301.035 109.391 300.405 109.391ZM311.646 103.783L309.707 103.902C309.674 103.736 309.603 103.587 309.493 103.455C309.384 103.319 309.24 103.211 309.061 103.132C308.885 103.049 308.675 103.007 308.43 103.007C308.101 103.007 307.825 103.077 307.599 103.216C307.374 103.352 307.261 103.534 307.261 103.763C307.261 103.945 307.334 104.099 307.48 104.225C307.626 104.351 307.876 104.452 308.231 104.529L309.613 104.807C310.355 104.96 310.909 105.205 311.273 105.543C311.638 105.881 311.82 106.325 311.82 106.875C311.82 107.376 311.673 107.815 311.378 108.193C311.086 108.571 310.685 108.866 310.175 109.078C309.667 109.286 309.082 109.391 308.42 109.391C307.409 109.391 306.603 109.18 306.003 108.759C305.407 108.335 305.057 107.759 304.954 107.029L307.037 106.92C307.1 107.228 307.253 107.464 307.495 107.626C307.737 107.785 308.047 107.865 308.425 107.865C308.796 107.865 309.094 107.793 309.319 107.651C309.548 107.505 309.664 107.318 309.667 107.089C309.664 106.897 309.583 106.739 309.424 106.617C309.265 106.491 309.019 106.395 308.688 106.328L307.366 106.065C306.62 105.916 306.065 105.657 305.7 105.289C305.339 104.921 305.158 104.452 305.158 103.882C305.158 103.392 305.291 102.969 305.556 102.615C305.824 102.26 306.201 101.986 306.684 101.794C307.172 101.602 307.742 101.506 308.395 101.506C309.359 101.506 310.118 101.71 310.672 102.117C311.229 102.525 311.553 103.08 311.646 103.783ZM319.507 103.783L317.569 103.902C317.535 103.736 317.464 103.587 317.355 103.455C317.245 103.319 317.101 103.211 316.922 103.132C316.747 103.049 316.536 103.007 316.291 103.007C315.963 103.007 315.686 103.077 315.461 103.216C315.235 103.352 315.123 103.534 315.123 103.763C315.123 103.945 315.195 104.099 315.341 104.225C315.487 104.351 315.737 104.452 316.092 104.529L317.474 104.807C318.217 104.96 318.77 105.205 319.135 105.543C319.499 105.881 319.681 106.325 319.681 106.875C319.681 107.376 319.534 107.815 319.239 108.193C318.947 108.571 318.546 108.866 318.036 109.078C317.529 109.286 316.944 109.391 316.281 109.391C315.27 109.391 314.465 109.18 313.865 108.759C313.268 108.335 312.918 107.759 312.816 107.029L314.899 106.92C314.962 107.228 315.114 107.464 315.356 107.626C315.598 107.785 315.908 107.865 316.286 107.865C316.657 107.865 316.955 107.793 317.181 107.651C317.409 107.505 317.525 107.318 317.529 107.089C317.525 106.897 317.444 106.739 317.285 106.617C317.126 106.491 316.881 106.395 316.549 106.328L315.227 106.065C314.481 105.916 313.926 105.657 313.561 105.289C313.2 104.921 313.02 104.452 313.02 103.882C313.02 103.392 313.152 102.969 313.417 102.615C313.686 102.26 314.062 101.986 314.546 101.794C315.033 101.602 315.603 101.506 316.256 101.506C317.221 101.506 317.98 101.71 318.533 102.117C319.09 102.525 319.415 103.08 319.507 103.783ZM322.835 106.189V106.02C322.838 105.44 322.889 104.978 322.989 104.633C323.092 104.288 323.241 104.01 323.436 103.798C323.632 103.586 323.867 103.393 324.142 103.221C324.348 103.089 324.532 102.951 324.694 102.808C324.856 102.666 324.986 102.509 325.082 102.336C325.178 102.16 325.226 101.965 325.226 101.75C325.226 101.521 325.171 101.32 325.062 101.148C324.953 100.976 324.805 100.843 324.619 100.75C324.437 100.657 324.235 100.611 324.013 100.611C323.798 100.611 323.594 100.659 323.401 100.755C323.209 100.848 323.052 100.987 322.929 101.173C322.807 101.355 322.74 101.582 322.73 101.854H320.702C320.718 101.191 320.878 100.644 321.179 100.213C321.481 99.7791 321.88 99.456 322.377 99.2438C322.874 99.0284 323.423 98.9207 324.023 98.9207C324.682 98.9207 325.266 99.0301 325.773 99.2488C326.28 99.4642 326.678 99.7774 326.966 100.188C327.254 100.599 327.399 101.095 327.399 101.675C327.399 102.063 327.334 102.407 327.205 102.709C327.079 103.007 326.901 103.272 326.673 103.504C326.444 103.733 326.174 103.94 325.862 104.126C325.601 104.282 325.385 104.444 325.216 104.613C325.05 104.782 324.926 104.978 324.843 105.2C324.764 105.422 324.722 105.695 324.719 106.02V106.189H322.835ZM323.819 109.371C323.488 109.371 323.204 109.255 322.969 109.023C322.737 108.788 322.623 108.506 322.626 108.178C322.623 107.853 322.737 107.575 322.969 107.343C323.204 107.111 323.488 106.995 323.819 106.995C324.134 106.995 324.411 107.111 324.649 107.343C324.888 107.575 325.009 107.853 325.012 108.178C325.009 108.397 324.951 108.597 324.838 108.779C324.729 108.958 324.585 109.102 324.406 109.212C324.227 109.318 324.031 109.371 323.819 109.371Z" fill="#486581"/>
<path d="M61.9579 153.742H60.8162L64.1185 144.748H65.2427L68.545 153.742H67.4032L64.7157 146.171H64.6454L61.9579 153.742ZM62.3795 150.229H66.9816V151.195H62.3795V150.229ZM70.8416 144.748V153.742H69.8053V144.748H70.8416ZM73.7762 144.748V153.742H72.7398V144.748H73.7762ZM75.6743 153.742V146.997H76.7107V153.742H75.6743ZM76.2013 145.872C75.9993 145.872 75.8251 145.804 75.6787 145.666C75.5353 145.528 75.4635 145.363 75.4635 145.17C75.4635 144.977 75.5353 144.811 75.6787 144.674C75.8251 144.536 75.9993 144.467 76.2013 144.467C76.4033 144.467 76.576 144.536 76.7195 144.674C76.8658 144.811 76.939 144.977 76.939 145.17C76.939 145.363 76.8658 145.528 76.7195 145.666C76.576 145.804 76.4033 145.872 76.2013 145.872ZM83.3866 148.507L82.4557 148.771C82.3971 148.616 82.3108 148.465 82.1966 148.318C82.0853 148.169 81.9331 148.046 81.7399 147.95C81.5467 147.853 81.2993 147.805 80.9977 147.805C80.585 147.805 80.241 147.9 79.9658 148.09C79.6935 148.277 79.5574 148.516 79.5574 148.806C79.5574 149.063 79.6511 149.267 79.8384 149.416C80.0258 149.566 80.3186 149.69 80.7167 149.789L81.7179 150.035C82.321 150.182 82.7704 150.406 83.0661 150.707C83.3618 151.006 83.5096 151.391 83.5096 151.862C83.5096 152.249 83.3984 152.594 83.1759 152.899C82.9563 153.203 82.6489 153.443 82.2537 153.619C81.8585 153.794 81.3988 153.882 80.8748 153.882C80.1868 153.882 79.6174 153.733 79.1666 153.434C78.7157 153.136 78.4303 152.699 78.3102 152.126L79.2939 151.88C79.3876 152.243 79.5647 152.515 79.8253 152.697C80.0887 152.878 80.4327 152.969 80.8572 152.969C81.3403 152.969 81.7238 152.866 82.0078 152.661C82.2947 152.454 82.4381 152.205 82.4381 151.915C82.4381 151.681 82.3561 151.485 82.1922 151.326C82.0283 151.165 81.7765 151.045 81.4369 150.966L80.3127 150.703C79.695 150.557 79.2412 150.33 78.9514 150.022C78.6645 149.712 78.521 149.324 78.521 148.859C78.521 148.478 78.6279 148.141 78.8416 147.849C79.0582 147.556 79.3525 147.326 79.7243 147.159C80.099 146.992 80.5235 146.909 80.9977 146.909C81.6652 146.909 82.1893 147.055 82.5699 147.348C82.9534 147.641 83.2256 148.027 83.3866 148.507ZM87.8098 153.882C87.2009 153.882 86.6666 153.737 86.207 153.447C85.7503 153.158 85.3931 152.752 85.1355 152.231C84.8808 151.71 84.7535 151.101 84.7535 150.404C84.7535 149.702 84.8808 149.088 85.1355 148.564C85.3931 148.04 85.7503 147.633 86.207 147.343C86.6666 147.054 87.2009 146.909 87.8098 146.909C88.4188 146.909 88.9516 147.054 89.4083 147.343C89.8679 147.633 90.2251 148.04 90.4798 148.564C90.7374 149.088 90.8662 149.702 90.8662 150.404C90.8662 151.101 90.7374 151.71 90.4798 152.231C90.2251 152.752 89.8679 153.158 89.4083 153.447C88.9516 153.737 88.4188 153.882 87.8098 153.882ZM87.8098 152.951C88.2724 152.951 88.653 152.833 88.9516 152.596C89.2502 152.358 89.4712 152.047 89.6147 151.66C89.7581 151.274 89.8299 150.855 89.8299 150.404C89.8299 149.953 89.7581 149.533 89.6147 149.144C89.4712 148.755 89.2502 148.44 88.9516 148.2C88.653 147.96 88.2724 147.84 87.8098 147.84C87.3473 147.84 86.9667 147.96 86.6681 148.2C86.3695 148.44 86.1484 148.755 86.005 149.144C85.8615 149.533 85.7898 149.953 85.7898 150.404C85.7898 150.855 85.8615 151.274 86.005 151.66C86.1484 152.047 86.3695 152.358 86.6681 152.596C86.9667 152.833 87.3473 152.951 87.8098 152.951ZM93.4846 149.684V153.742H92.4482V146.997H93.4494V148.051H93.5373C93.6953 147.708 93.9354 147.433 94.2574 147.225C94.5795 147.014 94.9952 146.909 95.5046 146.909C95.9613 146.909 96.3609 147.002 96.7034 147.19C97.046 147.374 97.3124 147.655 97.5027 148.033C97.6929 148.408 97.7881 148.882 97.7881 149.456V153.742H96.7517V149.526C96.7517 148.996 96.6141 148.583 96.3389 148.288C96.0638 147.989 95.6861 147.84 95.206 147.84C94.8752 147.84 94.5795 147.911 94.3189 148.055C94.0613 148.198 93.8578 148.408 93.7085 148.683C93.5592 148.958 93.4846 149.292 93.4846 149.684ZM104.934 153.742L102.475 144.748H103.581L105.461 152.073H105.549L107.463 144.748H108.693L110.608 152.073H110.695L112.575 144.748H113.682L111.222 153.742H110.098L108.113 146.575H108.043L106.058 153.742H104.934ZM116.255 153.9C115.827 153.9 115.44 153.819 115.091 153.658C114.743 153.494 114.466 153.259 114.261 152.951C114.056 152.641 113.954 152.266 113.954 151.827C113.954 151.441 114.03 151.127 114.182 150.887C114.334 150.644 114.538 150.454 114.793 150.316C115.047 150.179 115.328 150.076 115.636 150.009C115.946 149.939 116.258 149.883 116.571 149.842C116.981 149.789 117.313 149.75 117.568 149.724C117.825 149.694 118.013 149.646 118.13 149.579C118.25 149.511 118.31 149.394 118.31 149.227V149.192C118.31 148.759 118.191 148.422 117.954 148.182C117.72 147.942 117.364 147.822 116.887 147.822C116.392 147.822 116.005 147.93 115.723 148.147C115.442 148.364 115.245 148.595 115.131 148.841L114.147 148.49C114.323 148.08 114.557 147.761 114.85 147.532C115.145 147.301 115.467 147.14 115.816 147.049C116.167 146.956 116.512 146.909 116.852 146.909C117.069 146.909 117.318 146.935 117.599 146.988C117.883 147.038 118.156 147.141 118.42 147.3C118.686 147.458 118.907 147.696 119.083 148.015C119.259 148.334 119.346 148.762 119.346 149.298V153.742H118.31V152.828H118.257C118.187 152.975 118.07 153.131 117.906 153.298C117.742 153.465 117.524 153.607 117.252 153.724C116.979 153.841 116.647 153.9 116.255 153.9ZM116.413 152.969C116.823 152.969 117.168 152.888 117.449 152.727C117.733 152.566 117.947 152.358 118.09 152.104C118.237 151.849 118.31 151.581 118.31 151.3V150.352C118.266 150.404 118.169 150.453 118.02 150.496C117.874 150.537 117.704 150.574 117.511 150.606C117.32 150.636 117.135 150.662 116.953 150.685C116.774 150.706 116.63 150.723 116.518 150.738C116.249 150.773 115.997 150.83 115.763 150.909C115.532 150.985 115.344 151.101 115.201 151.256C115.06 151.408 114.99 151.616 114.99 151.88C114.99 152.24 115.123 152.512 115.39 152.697C115.659 152.878 116 152.969 116.413 152.969ZM122.274 144.748V153.742H121.238V144.748H122.274ZM125.209 144.748V153.742H124.172V144.748H125.209ZM127.107 153.742V146.997H128.143V153.742H127.107ZM127.634 145.872C127.432 145.872 127.258 145.804 127.111 145.666C126.968 145.528 126.896 145.363 126.896 145.17C126.896 144.977 126.968 144.811 127.111 144.674C127.258 144.536 127.432 144.467 127.634 144.467C127.836 144.467 128.009 144.536 128.152 144.674C128.298 144.811 128.372 144.977 128.372 145.17C128.372 145.363 128.298 145.528 128.152 145.666C128.009 145.804 127.836 145.872 127.634 145.872ZM134.819 148.507L133.888 148.771C133.83 148.616 133.743 148.465 133.629 148.318C133.518 148.169 133.366 148.046 133.173 147.95C132.979 147.853 132.732 147.805 132.43 147.805C132.018 147.805 131.674 147.9 131.398 148.09C131.126 148.277 130.99 148.516 130.99 148.806C130.99 149.063 131.084 149.267 131.271 149.416C131.458 149.566 131.751 149.69 132.149 149.789L133.151 150.035C133.754 150.182 134.203 150.406 134.499 150.707C134.794 151.006 134.942 151.391 134.942 151.862C134.942 152.249 134.831 152.594 134.609 152.899C134.389 153.203 134.082 153.443 133.686 153.619C133.291 153.794 132.831 153.882 132.307 153.882C131.619 153.882 131.05 153.733 130.599 153.434C130.148 153.136 129.863 152.699 129.743 152.126L130.727 151.88C130.82 152.243 130.997 152.515 131.258 152.697C131.521 152.878 131.865 152.969 132.29 152.969C132.773 152.969 133.156 152.866 133.44 152.661C133.727 152.454 133.871 152.205 133.871 151.915C133.871 151.681 133.789 151.485 133.625 151.326C133.461 151.165 133.209 151.045 132.87 150.966L131.745 150.703C131.128 150.557 130.674 150.33 130.384 150.022C130.097 149.712 129.954 149.324 129.954 148.859C129.954 148.478 130.061 148.141 130.274 147.849C130.491 147.556 130.785 147.326 131.157 147.159C131.532 146.992 131.956 146.909 132.43 146.909C133.098 146.909 133.622 147.055 134.002 147.348C134.386 147.641 134.658 148.027 134.819 148.507Z" fill="#486581"/>
<rect x="226.942" y="132.683" width="112.117" height="33.1167" rx="3.05999" fill="#FAFCFE"/>
<rect x="226.942" y="132.683" width="112.117" height="33.1167" rx="3.05999" stroke="#C9D4DE" stroke-width="0.88329"/>
<path d="M248.833 147.559H247.744C247.679 147.245 247.566 146.97 247.405 146.733C247.247 146.496 247.054 146.297 246.826 146.136C246.6 145.972 246.35 145.849 246.075 145.767C245.8 145.685 245.513 145.644 245.214 145.644C244.67 145.644 244.176 145.782 243.734 146.057C243.295 146.332 242.945 146.737 242.685 147.273C242.427 147.809 242.298 148.466 242.298 149.245C242.298 150.024 242.427 150.681 242.685 151.217C242.945 151.752 243.295 152.158 243.734 152.433C244.176 152.708 244.67 152.846 245.214 152.846C245.513 152.846 245.8 152.805 246.075 152.723C246.35 152.641 246.6 152.519 246.826 152.358C247.054 152.194 247.247 151.994 247.405 151.757C247.566 151.517 247.679 151.242 247.744 150.931H248.833C248.751 151.391 248.601 151.802 248.385 152.165C248.168 152.528 247.899 152.837 247.577 153.092C247.255 153.344 246.893 153.535 246.492 153.667C246.094 153.799 245.668 153.865 245.214 153.865C244.447 153.865 243.765 153.677 243.168 153.303C242.571 152.928 242.101 152.395 241.758 151.704C241.416 151.013 241.244 150.193 241.244 149.245C241.244 148.296 241.416 147.477 241.758 146.786C242.101 146.095 242.571 145.562 243.168 145.187C243.765 144.813 244.447 144.625 245.214 144.625C245.668 144.625 246.094 144.691 246.492 144.823C246.893 144.955 247.255 145.148 247.577 145.403C247.899 145.654 248.168 145.962 248.385 146.325C248.601 146.685 248.751 147.096 248.833 147.559ZM252.437 153.9C252.009 153.9 251.621 153.819 251.273 153.658C250.925 153.494 250.648 153.259 250.443 152.951C250.238 152.641 250.136 152.266 250.136 151.827C250.136 151.441 250.212 151.127 250.364 150.887C250.516 150.644 250.72 150.454 250.974 150.316C251.229 150.179 251.51 150.076 251.818 150.009C252.128 149.939 252.44 149.883 252.753 149.842C253.163 149.789 253.495 149.75 253.75 149.724C254.007 149.694 254.195 149.646 254.312 149.579C254.432 149.511 254.492 149.394 254.492 149.227V149.192C254.492 148.759 254.373 148.422 254.136 148.182C253.902 147.942 253.546 147.822 253.069 147.822C252.574 147.822 252.186 147.93 251.905 148.147C251.624 148.364 251.427 148.595 251.313 148.841L250.329 148.49C250.505 148.08 250.739 147.761 251.032 147.532C251.327 147.301 251.649 147.14 251.998 147.049C252.349 146.956 252.694 146.909 253.034 146.909C253.251 146.909 253.5 146.935 253.781 146.988C254.065 147.038 254.338 147.141 254.602 147.3C254.868 147.458 255.089 147.696 255.265 148.015C255.44 148.334 255.528 148.762 255.528 149.298V153.742H254.492V152.828H254.439C254.369 152.975 254.252 153.131 254.088 153.298C253.924 153.465 253.706 153.607 253.434 153.724C253.161 153.841 252.829 153.9 252.437 153.9ZM252.595 152.969C253.005 152.969 253.35 152.888 253.631 152.727C253.915 152.566 254.129 152.358 254.272 152.104C254.419 151.849 254.492 151.581 254.492 151.3V150.352C254.448 150.404 254.351 150.453 254.202 150.496C254.056 150.537 253.886 150.574 253.693 150.606C253.502 150.636 253.317 150.662 253.135 150.685C252.956 150.706 252.812 150.723 252.7 150.738C252.431 150.773 252.179 150.83 251.945 150.909C251.714 150.985 251.526 151.101 251.383 151.256C251.242 151.408 251.172 151.616 251.172 151.88C251.172 152.24 251.305 152.512 251.572 152.697C251.841 152.878 252.182 152.969 252.595 152.969ZM258.456 149.684V153.742H257.42V146.997H258.421V148.051H258.509C258.667 147.708 258.907 147.433 259.229 147.225C259.551 147.014 259.967 146.909 260.476 146.909C260.933 146.909 261.333 147.002 261.675 147.19C262.018 147.374 262.284 147.655 262.474 148.033C262.665 148.408 262.76 148.882 262.76 149.456V153.742H261.723V149.526C261.723 148.996 261.586 148.583 261.311 148.288C261.035 147.989 260.658 147.84 260.178 147.84C259.847 147.84 259.551 147.911 259.291 148.055C259.033 148.198 258.83 148.408 258.68 148.683C258.531 148.958 258.456 149.292 258.456 149.684ZM268.641 144.748L271.311 152.319H271.416L274.086 144.748H275.228L271.926 153.742H270.801L267.499 144.748H268.641ZM276.488 153.742V146.997H277.525V153.742H276.488ZM277.015 145.872C276.813 145.872 276.639 145.804 276.493 145.666C276.349 145.528 276.277 145.363 276.277 145.17C276.277 144.977 276.349 144.811 276.493 144.674C276.639 144.536 276.813 144.467 277.015 144.467C277.217 144.467 277.39 144.536 277.533 144.674C277.68 144.811 277.753 144.977 277.753 145.17C277.753 145.363 277.68 145.528 277.533 145.666C277.39 145.804 277.217 145.872 277.015 145.872ZM282.251 153.882C281.601 153.882 281.04 153.739 280.569 153.452C280.101 153.162 279.739 152.758 279.484 152.24C279.232 151.719 279.107 151.113 279.107 150.422C279.107 149.731 279.232 149.122 279.484 148.595C279.739 148.065 280.093 147.652 280.547 147.357C281.004 147.058 281.536 146.909 282.145 146.909C282.497 146.909 282.844 146.967 283.186 147.084C283.529 147.202 283.84 147.392 284.122 147.655C284.403 147.916 284.627 148.261 284.793 148.692C284.96 149.122 285.044 149.652 285.044 150.281V150.72H279.844V149.825H283.99C283.99 149.444 283.914 149.104 283.761 148.806C283.612 148.507 283.398 148.272 283.12 148.099C282.845 147.926 282.52 147.84 282.145 147.84C281.733 147.84 281.375 147.942 281.074 148.147C280.775 148.349 280.546 148.613 280.384 148.938C280.223 149.263 280.143 149.611 280.143 149.983V150.58C280.143 151.089 280.231 151.521 280.406 151.875C280.585 152.227 280.832 152.495 281.149 152.679C281.465 152.861 281.832 152.951 282.251 152.951C282.523 152.951 282.769 152.913 282.989 152.837C283.211 152.758 283.403 152.641 283.564 152.486C283.725 152.328 283.849 152.132 283.937 151.897L284.938 152.178C284.833 152.518 284.656 152.817 284.407 153.074C284.158 153.329 283.851 153.528 283.485 153.671C283.119 153.812 282.708 153.882 282.251 153.882ZM288.148 153.742L286.093 146.997H287.182L288.64 152.161H288.71L290.151 146.997H291.257L292.68 152.143H292.751L294.208 146.997H295.298L293.242 153.742H292.224L290.748 148.56H290.643L289.167 153.742H288.148Z" fill="#486581"/>
<path d="M317.855 145.567L313.6 149.822L309.346 145.567L307.944 146.969L313.6 152.625L319.256 146.969L317.855 145.567Z" fill="#829AB1"/>
<path d="M61.9579 195.742H60.8162L64.1185 186.748H65.2427L68.545 195.742H67.4032L64.7157 188.171H64.6454L61.9579 195.742ZM62.3795 192.229H66.9816V193.195H62.3795V192.229ZM74.4755 188.997L71.9812 195.742H70.9273L68.433 188.997H69.5572L71.4191 194.372H71.4894L73.3513 188.997H74.4755ZM77.623 195.9C77.1956 195.9 76.8077 195.819 76.4593 195.658C76.1109 195.494 75.8342 195.259 75.6293 194.951C75.4244 194.641 75.3219 194.266 75.3219 193.827C75.3219 193.441 75.398 193.127 75.5503 192.887C75.7025 192.644 75.906 192.454 76.1607 192.316C76.4154 192.179 76.6964 192.076 77.0038 192.009C77.3141 191.939 77.6259 191.883 77.9392 191.842C78.349 191.789 78.6813 191.75 78.936 191.724C79.1936 191.694 79.381 191.646 79.4981 191.579C79.6181 191.511 79.6781 191.394 79.6781 191.227V191.192C79.6781 190.759 79.5596 190.422 79.3224 190.182C79.0882 189.942 78.7325 189.822 78.2553 189.822C77.7606 189.822 77.3727 189.93 77.0916 190.147C76.8106 190.364 76.613 190.595 76.4988 190.841L75.5151 190.49C75.6908 190.08 75.925 189.761 76.2178 189.532C76.5134 189.301 76.8355 189.14 77.1839 189.049C77.5352 188.956 77.8806 188.909 78.2202 188.909C78.4369 188.909 78.6857 188.935 78.9667 188.988C79.2507 189.038 79.5244 189.141 79.7879 189.3C80.0543 189.458 80.2754 189.696 80.451 190.015C80.6267 190.334 80.7145 190.762 80.7145 191.298V195.742H79.6781V194.828H79.6254C79.5552 194.975 79.4381 195.131 79.2741 195.298C79.1102 195.465 78.8921 195.607 78.6198 195.724C78.3476 195.841 78.0153 195.9 77.623 195.9ZM77.7811 194.969C78.1909 194.969 78.5364 194.888 78.8174 194.727C79.1014 194.566 79.3151 194.358 79.4586 194.104C79.605 193.849 79.6781 193.581 79.6781 193.3V192.352C79.6342 192.404 79.5376 192.453 79.3883 192.496C79.2419 192.537 79.0721 192.574 78.8789 192.606C78.6886 192.636 78.5027 192.662 78.3212 192.685C78.1426 192.706 77.9977 192.723 77.8865 192.738C77.6171 192.773 77.3654 192.83 77.1312 192.909C76.8999 192.985 76.7125 193.101 76.5691 193.256C76.4285 193.408 76.3583 193.616 76.3583 193.88C76.3583 194.24 76.4915 194.512 76.7579 194.697C77.0272 194.878 77.3683 194.969 77.7811 194.969ZM86.2246 186.748H87.5244L90.5808 194.214H90.6862L93.7426 186.748H95.0424V195.742H94.0236V188.909H93.9358L91.1253 195.742H90.1416L87.3312 188.909H87.2434V195.742H86.2246V186.748ZM99.0704 195.9C98.6429 195.9 98.255 195.819 97.9067 195.658C97.5583 195.494 97.2816 195.259 97.0767 194.951C96.8718 194.641 96.7693 194.266 96.7693 193.827C96.7693 193.441 96.8454 193.127 96.9976 192.887C97.1499 192.644 97.3533 192.454 97.608 192.316C97.8627 192.179 98.1438 192.076 98.4512 192.009C98.7615 191.939 99.0733 191.883 99.3865 191.842C99.7964 191.789 100.129 191.75 100.383 191.724C100.641 191.694 100.828 191.646 100.945 191.579C101.066 191.511 101.126 191.394 101.126 191.227V191.192C101.126 190.759 101.007 190.422 100.77 190.182C100.536 189.942 100.18 189.822 99.7027 189.822C99.208 189.822 98.8201 189.93 98.539 190.147C98.258 190.364 98.0604 190.595 97.9462 190.841L96.9625 190.49C97.1382 190.08 97.3724 189.761 97.6651 189.532C97.9608 189.301 98.2829 189.14 98.6312 189.049C98.9825 188.956 99.328 188.909 99.6676 188.909C99.8842 188.909 100.133 188.935 100.414 188.988C100.698 189.038 100.972 189.141 101.235 189.3C101.502 189.458 101.723 189.696 101.898 190.015C102.074 190.334 102.162 190.762 102.162 191.298V195.742H101.126V194.828H101.073C101.003 194.975 100.885 195.131 100.722 195.298C100.558 195.465 100.339 195.607 100.067 195.724C99.7949 195.841 99.4627 195.9 99.0704 195.9ZM99.2285 194.969C99.6383 194.969 99.9838 194.888 100.265 194.727C100.549 194.566 100.763 194.358 100.906 194.104C101.052 193.849 101.126 193.581 101.126 193.3V192.352C101.082 192.404 100.985 192.453 100.836 192.496C100.689 192.537 100.52 192.574 100.326 192.606C100.136 192.636 99.9501 192.662 99.7686 192.685C99.59 192.706 99.4451 192.723 99.3339 192.738C99.0645 192.773 98.8127 192.83 98.5785 192.909C98.3473 192.985 98.1599 193.101 98.0164 193.256C97.8759 193.408 97.8057 193.616 97.8057 193.88C97.8057 194.24 97.9389 194.512 98.2053 194.697C98.4746 194.878 98.8157 194.969 99.2285 194.969ZM104.053 195.742V188.997H105.055V190.015H105.125C105.248 189.682 105.47 189.411 105.792 189.203C106.114 188.995 106.477 188.891 106.881 188.891C106.958 188.891 107.053 188.893 107.167 188.896C107.281 188.899 107.367 188.903 107.426 188.909V189.963C107.391 189.954 107.31 189.941 107.184 189.923C107.062 189.903 106.931 189.892 106.794 189.892C106.466 189.892 106.173 189.961 105.915 190.099C105.661 190.233 105.459 190.421 105.309 190.661C105.163 190.898 105.09 191.169 105.09 191.473V195.742H104.053ZM112.011 188.997V189.875H108.515V188.997H112.011ZM109.534 187.381H110.57V193.81C110.57 194.102 110.613 194.322 110.698 194.468C110.785 194.612 110.897 194.708 111.031 194.758C111.169 194.805 111.314 194.828 111.466 194.828C111.58 194.828 111.674 194.822 111.747 194.811C111.82 194.796 111.879 194.784 111.923 194.776L112.134 195.707C112.063 195.733 111.965 195.759 111.839 195.786C111.713 195.815 111.554 195.83 111.361 195.83C111.068 195.83 110.781 195.767 110.5 195.641C110.222 195.515 109.991 195.323 109.806 195.065C109.625 194.808 109.534 194.483 109.534 194.091V187.381ZM113.57 195.742V188.997H114.606V195.742H113.57ZM114.096 187.872C113.894 187.872 113.72 187.804 113.574 187.666C113.43 187.528 113.359 187.363 113.359 187.17C113.359 186.977 113.43 186.811 113.574 186.674C113.72 186.536 113.894 186.467 114.096 186.467C114.298 186.467 114.471 186.536 114.615 186.674C114.761 186.811 114.834 186.977 114.834 187.17C114.834 187.363 114.761 187.528 114.615 187.666C114.471 187.804 114.298 187.872 114.096 187.872ZM117.54 191.684V195.742H116.504V188.997H117.505V190.051H117.593C117.751 189.708 117.991 189.433 118.313 189.225C118.635 189.014 119.051 188.909 119.56 188.909C120.017 188.909 120.417 189.002 120.759 189.19C121.102 189.374 121.368 189.655 121.558 190.033C121.749 190.408 121.844 190.882 121.844 191.456V195.742H120.808V191.526C120.808 190.996 120.67 190.583 120.395 190.288C120.12 189.989 119.742 189.84 119.262 189.84C118.931 189.84 118.635 189.911 118.375 190.055C118.117 190.198 117.914 190.408 117.764 190.683C117.615 190.958 117.54 191.292 117.54 191.684ZM126.566 195.882C125.916 195.882 125.355 195.739 124.884 195.452C124.415 195.162 124.054 194.758 123.799 194.24C123.547 193.719 123.422 193.113 123.422 192.422C123.422 191.731 123.547 191.122 123.799 190.595C124.054 190.065 124.408 189.652 124.862 189.357C125.319 189.058 125.851 188.909 126.46 188.909C126.812 188.909 127.159 188.967 127.501 189.084C127.844 189.202 128.155 189.392 128.436 189.655C128.718 189.916 128.941 190.261 129.108 190.692C129.275 191.122 129.359 191.652 129.359 192.281V192.72H124.159V191.825H128.305C128.305 191.444 128.229 191.104 128.076 190.806C127.927 190.507 127.713 190.272 127.435 190.099C127.16 189.926 126.835 189.84 126.46 189.84C126.048 189.84 125.69 189.942 125.389 190.147C125.09 190.349 124.86 190.613 124.699 190.938C124.538 191.263 124.458 191.611 124.458 191.983V192.58C124.458 193.089 124.546 193.521 124.721 193.875C124.9 194.227 125.147 194.495 125.464 194.679C125.78 194.861 126.147 194.951 126.566 194.951C126.838 194.951 127.084 194.913 127.303 194.837C127.526 194.758 127.718 194.641 127.879 194.486C128.04 194.328 128.164 194.132 128.252 193.897L129.253 194.178C129.148 194.518 128.971 194.817 128.722 195.074C128.473 195.329 128.166 195.528 127.8 195.671C127.434 195.812 127.022 195.882 126.566 195.882ZM130.742 195.742V194.951L134.571 190.033V189.963H130.865V188.997H135.906V189.822L132.182 194.705V194.776H136.029V195.742H130.742Z" fill="#486581"/>
<rect x="226.942" y="174.683" width="112.117" height="33.1167" rx="3.05999" fill="#FAFCFE"/>
<rect x="226.942" y="174.683" width="112.117" height="33.1167" rx="3.05999" stroke="#C9D4DE" stroke-width="0.88329"/>
<path d="M249.658 189.559H248.569C248.505 189.245 248.392 188.97 248.231 188.733C248.073 188.496 247.88 188.297 247.651 188.136C247.426 187.972 247.176 187.849 246.9 187.767C246.625 187.685 246.338 187.644 246.04 187.644C245.495 187.644 245.002 187.782 244.56 188.057C244.121 188.332 243.771 188.737 243.51 189.273C243.253 189.809 243.124 190.466 243.124 191.245C243.124 192.024 243.253 192.681 243.51 193.217C243.771 193.752 244.121 194.158 244.56 194.433C245.002 194.708 245.495 194.846 246.04 194.846C246.338 194.846 246.625 194.805 246.9 194.723C247.176 194.641 247.426 194.519 247.651 194.358C247.88 194.194 248.073 193.994 248.231 193.757C248.392 193.517 248.505 193.242 248.569 192.931H249.658C249.576 193.391 249.427 193.802 249.21 194.165C248.994 194.528 248.724 194.837 248.402 195.092C248.08 195.344 247.719 195.535 247.318 195.667C246.919 195.799 246.494 195.865 246.04 195.865C245.273 195.865 244.591 195.677 243.993 195.303C243.396 194.928 242.926 194.395 242.584 193.704C242.241 193.013 242.07 192.193 242.07 191.245C242.07 190.296 242.241 189.477 242.584 188.786C242.926 188.095 243.396 187.562 243.993 187.187C244.591 186.813 245.273 186.625 246.04 186.625C246.494 186.625 246.919 186.691 247.318 186.823C247.719 186.955 248.08 187.148 248.402 187.403C248.724 187.654 248.994 187.962 249.21 188.325C249.427 188.685 249.576 189.096 249.658 189.559ZM253.262 195.9C252.835 195.9 252.447 195.819 252.099 195.658C251.75 195.494 251.474 195.259 251.269 194.951C251.064 194.641 250.961 194.266 250.961 193.827C250.961 193.441 251.037 193.127 251.19 192.887C251.342 192.644 251.545 192.454 251.8 192.316C252.055 192.179 252.336 192.076 252.643 192.009C252.954 191.939 253.265 191.883 253.579 191.842C253.988 191.789 254.321 191.75 254.575 191.724C254.833 191.694 255.02 191.646 255.138 191.579C255.258 191.511 255.318 191.394 255.318 191.227V191.192C255.318 190.759 255.199 190.422 254.962 190.182C254.728 189.942 254.372 189.822 253.895 189.822C253.4 189.822 253.012 189.93 252.731 190.147C252.45 190.364 252.252 190.595 252.138 190.841L251.155 190.49C251.33 190.08 251.564 189.761 251.857 189.532C252.153 189.301 252.475 189.14 252.823 189.049C253.175 188.956 253.52 188.909 253.86 188.909C254.076 188.909 254.325 188.935 254.606 188.988C254.89 189.038 255.164 189.141 255.427 189.3C255.694 189.458 255.915 189.696 256.09 190.015C256.266 190.334 256.354 190.762 256.354 191.298V195.742H255.318V194.828H255.265C255.195 194.975 255.078 195.131 254.914 195.298C254.75 195.465 254.532 195.607 254.259 195.724C253.987 195.841 253.655 195.9 253.262 195.9ZM253.421 194.969C253.83 194.969 254.176 194.888 254.457 194.727C254.741 194.566 254.955 194.358 255.098 194.104C255.244 193.849 255.318 193.581 255.318 193.3V192.352C255.274 192.404 255.177 192.453 255.028 192.496C254.881 192.537 254.712 192.574 254.518 192.606C254.328 192.636 254.142 192.662 253.961 192.685C253.782 192.706 253.637 192.723 253.526 192.738C253.257 192.773 253.005 192.83 252.771 192.909C252.539 192.985 252.352 193.101 252.208 193.256C252.068 193.408 251.998 193.616 251.998 193.88C251.998 194.24 252.131 194.512 252.397 194.697C252.667 194.878 253.008 194.969 253.421 194.969ZM259.282 191.684V195.742H258.246V188.997H259.247V190.051H259.335C259.493 189.708 259.733 189.433 260.055 189.225C260.377 189.014 260.792 188.909 261.302 188.909C261.759 188.909 262.158 189.002 262.501 189.19C262.843 189.374 263.11 189.655 263.3 190.033C263.49 190.408 263.585 190.882 263.585 191.456V195.742H262.549V191.526C262.549 190.996 262.411 190.583 262.136 190.288C261.861 189.989 261.483 189.84 261.003 189.84C260.672 189.84 260.377 189.911 260.116 190.055C259.859 190.198 259.655 190.408 259.506 190.683C259.357 190.958 259.282 191.292 259.282 191.684ZM269.098 195.742V186.748H274.525V187.714H270.187V190.753H274.244V191.719H270.187V194.776H274.596V195.742H269.098ZM278.895 195.882C278.333 195.882 277.836 195.74 277.406 195.456C276.976 195.169 276.639 194.765 276.396 194.244C276.153 193.72 276.032 193.101 276.032 192.387C276.032 191.678 276.153 191.063 276.396 190.542C276.639 190.021 276.977 189.619 277.41 189.335C277.844 189.051 278.344 188.909 278.912 188.909C279.351 188.909 279.698 188.982 279.953 189.128C280.211 189.272 280.407 189.436 280.542 189.62C280.679 189.802 280.786 189.951 280.862 190.068H280.95V186.748H281.986V195.742H280.985V194.705H280.862C280.786 194.828 280.678 194.983 280.537 195.171C280.397 195.355 280.196 195.521 279.936 195.667C279.675 195.81 279.328 195.882 278.895 195.882ZM279.035 194.951C279.451 194.951 279.802 194.843 280.089 194.626C280.376 194.407 280.594 194.104 280.744 193.717C280.893 193.328 280.967 192.879 280.967 192.369C280.967 191.866 280.894 191.425 280.748 191.047C280.602 190.667 280.385 190.371 280.098 190.16C279.811 189.947 279.457 189.84 279.035 189.84C278.596 189.84 278.23 189.952 277.937 190.178C277.648 190.4 277.43 190.703 277.283 191.087C277.14 191.467 277.068 191.895 277.068 192.369C277.068 192.849 277.141 193.285 277.288 193.678C277.437 194.067 277.656 194.377 277.946 194.609C278.239 194.837 278.602 194.951 279.035 194.951ZM284.028 195.742V188.997H285.065V195.742H284.028ZM284.555 187.872C284.353 187.872 284.179 187.804 284.033 187.666C283.889 187.528 283.817 187.363 283.817 187.17C283.817 186.977 283.889 186.811 284.033 186.674C284.179 186.536 284.353 186.467 284.555 186.467C284.757 186.467 284.93 186.536 285.073 186.674C285.22 186.811 285.293 186.977 285.293 187.17C285.293 187.363 285.22 187.528 285.073 187.666C284.93 187.804 284.757 187.872 284.555 187.872ZM289.896 188.997V189.875H286.401V188.997H289.896ZM287.419 187.381H288.456V193.81C288.456 194.102 288.498 194.322 288.583 194.468C288.671 194.612 288.782 194.708 288.917 194.758C289.055 194.805 289.199 194.828 289.352 194.828C289.466 194.828 289.56 194.822 289.633 194.811C289.706 194.796 289.764 194.784 289.808 194.776L290.019 195.707C289.949 195.733 289.851 195.759 289.725 195.786C289.599 195.815 289.439 195.83 289.246 195.83C288.954 195.83 288.667 195.767 288.386 195.641C288.107 195.515 287.876 195.323 287.692 195.065C287.51 194.808 287.419 194.483 287.419 194.091V187.381Z" fill="#486581"/>
<path d="M317.855 187.567L313.6 191.822L309.346 187.567L307.944 188.969L313.6 194.625L319.256 188.969L317.855 187.567Z" fill="#829AB1"/>
<rect x="60.5" y="226.242" width="126.066" height="28.5164" rx="14.2582" fill="#2680C2"/>
<path d="M87.1488 238.143C87.1139 237.792 86.9644 237.519 86.7 237.324C86.4357 237.13 86.077 237.032 85.6239 237.032C85.316 237.032 85.056 237.076 84.844 237.163C84.6319 237.247 84.4693 237.365 84.356 237.516C84.2456 237.667 84.1904 237.838 84.1904 238.03C84.1846 238.19 84.218 238.329 84.2907 238.448C84.3662 238.567 84.4693 238.67 84.6 238.758C84.7307 238.842 84.8817 238.916 85.0531 238.98C85.2245 239.041 85.4075 239.093 85.6021 239.137L86.4038 239.328C86.793 239.415 87.1503 239.532 87.4756 239.677C87.8009 239.822 88.0826 240.001 88.3208 240.213C88.559 240.425 88.7434 240.675 88.8742 240.962C89.0078 241.25 89.076 241.579 89.0789 241.951C89.076 242.497 88.9366 242.971 88.6607 243.372C88.3876 243.769 87.9926 244.079 87.4756 244.3C86.9615 244.517 86.3413 244.626 85.6152 244.626C84.8948 244.626 84.2674 244.516 83.733 244.295C83.2014 244.074 82.7861 243.748 82.4869 243.315C82.1906 242.879 82.0352 242.34 82.0207 241.698H83.8462C83.8666 241.998 83.9523 242.247 84.1033 242.448C84.2573 242.645 84.462 242.795 84.7176 242.897C84.9761 242.995 85.2681 243.045 85.5934 243.045C85.9129 243.045 86.1903 242.998 86.4256 242.905C86.6637 242.812 86.8482 242.683 86.9789 242.518C87.1096 242.352 87.1749 242.162 87.1749 241.947C87.1749 241.746 87.1154 241.578 86.9963 241.441C86.8801 241.305 86.7088 241.189 86.4822 241.093C86.2585 240.997 85.9841 240.91 85.6587 240.831L84.6871 240.587C83.9348 240.404 83.3408 240.118 82.9051 239.729C82.4695 239.34 82.2531 238.816 82.256 238.156C82.2531 237.616 82.3968 237.144 82.6873 236.74C82.9807 236.337 83.383 236.021 83.8942 235.795C84.4054 235.568 84.9863 235.455 85.6369 235.455C86.2992 235.455 86.8772 235.568 87.371 235.795C87.8677 236.021 88.254 236.337 88.53 236.74C88.8059 237.144 88.9482 237.612 88.9569 238.143H87.1488ZM92.2214 244.626C91.7944 244.626 91.4139 244.552 91.0799 244.404C90.7458 244.253 90.4815 244.031 90.2869 243.738C90.0952 243.441 89.9993 243.072 89.9993 242.631C89.9993 242.259 90.0676 241.947 90.2041 241.694C90.3406 241.441 90.5265 241.238 90.7618 241.084C90.9971 240.93 91.2643 240.814 91.5635 240.736C91.8656 240.657 92.1822 240.602 92.5133 240.57C92.9025 240.529 93.2162 240.492 93.4544 240.457C93.6926 240.419 93.8654 240.364 93.9729 240.291C94.0803 240.219 94.1341 240.111 94.1341 239.969V239.943C94.1341 239.667 94.0469 239.453 93.8726 239.302C93.7013 239.151 93.4573 239.076 93.1407 239.076C92.8066 239.076 92.5409 239.15 92.3434 239.298C92.1458 239.443 92.0151 239.626 91.9512 239.847L90.2346 239.707C90.3217 239.301 90.4931 238.949 90.7487 238.653C91.0043 238.354 91.334 238.124 91.7377 237.965C92.1444 237.802 92.6149 237.721 93.1494 237.721C93.5212 237.721 93.877 237.764 94.2168 237.851C94.5596 237.938 94.8631 238.074 95.1274 238.257C95.3947 238.44 95.6053 238.675 95.7592 238.962C95.9131 239.247 95.9901 239.588 95.9901 239.986V244.5H94.2299V243.572H94.1776C94.0702 243.781 93.9264 243.966 93.7463 244.125C93.5662 244.282 93.3498 244.406 93.0971 244.496C92.8444 244.583 92.5525 244.626 92.2214 244.626ZM92.7529 243.345C93.0259 243.345 93.267 243.292 93.4762 243.184C93.6853 243.074 93.8494 242.926 93.9685 242.74C94.0876 242.554 94.1471 242.343 94.1471 242.108V241.398C94.089 241.436 94.0092 241.47 93.9075 241.502C93.8087 241.531 93.6969 241.559 93.572 241.585C93.4471 241.608 93.3222 241.63 93.1973 241.651C93.0724 241.668 92.9591 241.684 92.8575 241.698C92.6396 241.73 92.4494 241.781 92.2867 241.851C92.1241 241.921 91.9977 242.015 91.9077 242.134C91.8176 242.25 91.7726 242.396 91.7726 242.57C91.7726 242.823 91.8641 243.016 92.0471 243.149C92.233 243.28 92.4683 243.345 92.7529 243.345ZM103.43 237.808L101.09 244.5H98.9986L96.6589 237.808H98.6195L100.009 242.596H100.079L101.465 237.808H103.43ZM107.214 244.631C106.525 244.631 105.933 244.491 105.436 244.212C104.942 243.931 104.562 243.533 104.294 243.019C104.027 242.502 103.894 241.89 103.894 241.184C103.894 240.496 104.027 239.892 104.294 239.372C104.562 238.852 104.938 238.447 105.423 238.156C105.911 237.866 106.483 237.721 107.14 237.721C107.581 237.721 107.992 237.792 108.373 237.934C108.756 238.074 109.09 238.284 109.375 238.566C109.662 238.848 109.886 239.202 110.046 239.629C110.205 240.053 110.285 240.55 110.285 241.119V241.629H104.634V240.479H108.538C108.538 240.211 108.48 239.975 108.364 239.768C108.248 239.562 108.086 239.401 107.88 239.285C107.677 239.166 107.44 239.106 107.17 239.106C106.888 239.106 106.638 239.171 106.421 239.302C106.206 239.43 106.037 239.603 105.915 239.821C105.793 240.036 105.731 240.275 105.728 240.54V241.633C105.728 241.964 105.789 242.25 105.911 242.491C106.036 242.733 106.211 242.918 106.438 243.049C106.665 243.18 106.933 243.245 107.244 243.245C107.45 243.245 107.639 243.216 107.81 243.158C107.982 243.1 108.129 243.013 108.251 242.897C108.373 242.78 108.465 242.638 108.529 242.47L110.246 242.583C110.159 242.995 109.98 243.356 109.71 243.663C109.443 243.968 109.097 244.207 108.673 244.378C108.252 244.546 107.765 244.631 107.214 244.631ZM117.36 244.631C116.674 244.631 116.085 244.485 115.591 244.195C115.1 243.902 114.722 243.495 114.458 242.975C114.197 242.455 114.066 241.857 114.066 241.18C114.066 240.495 114.198 239.893 114.462 239.376C114.73 238.856 115.109 238.451 115.6 238.161C116.09 237.867 116.674 237.721 117.351 237.721C117.935 237.721 118.446 237.827 118.885 238.039C119.323 238.251 119.67 238.548 119.926 238.932C120.182 239.315 120.323 239.765 120.349 240.282H118.597C118.548 239.948 118.417 239.68 118.205 239.476C117.996 239.27 117.721 239.167 117.382 239.167C117.094 239.167 116.843 239.246 116.628 239.402C116.416 239.556 116.25 239.781 116.131 240.078C116.012 240.374 115.953 240.733 115.953 241.154C115.953 241.581 116.011 241.944 116.127 242.243C116.246 242.542 116.413 242.77 116.628 242.927C116.843 243.084 117.094 243.162 117.382 243.162C117.594 243.162 117.784 243.119 117.952 243.032C118.124 242.945 118.265 242.818 118.375 242.653C118.488 242.484 118.562 242.282 118.597 242.047H120.349C120.32 242.558 120.18 243.008 119.93 243.398C119.683 243.784 119.342 244.086 118.907 244.304C118.471 244.522 117.955 244.631 117.36 244.631ZM123.393 240.631V244.5H121.537V235.577H123.341V238.988H123.419C123.57 238.593 123.814 238.284 124.151 238.06C124.488 237.834 124.911 237.721 125.419 237.721C125.884 237.721 126.289 237.822 126.635 238.026C126.983 238.226 127.253 238.515 127.445 238.893C127.64 239.267 127.735 239.716 127.733 240.239V244.5H125.877V240.57C125.879 240.158 125.775 239.837 125.563 239.607C125.354 239.378 125.06 239.263 124.683 239.263C124.43 239.263 124.206 239.317 124.012 239.424C123.82 239.532 123.669 239.688 123.559 239.895C123.451 240.098 123.396 240.343 123.393 240.631ZM131.102 244.626C130.675 244.626 130.294 244.552 129.96 244.404C129.626 244.253 129.362 244.031 129.167 243.738C128.975 243.441 128.88 243.072 128.88 242.631C128.88 242.259 128.948 241.947 129.084 241.694C129.221 241.441 129.407 241.238 129.642 241.084C129.877 240.93 130.145 240.814 130.444 240.736C130.746 240.657 131.062 240.602 131.393 240.57C131.783 240.529 132.096 240.492 132.335 240.457C132.573 240.419 132.746 240.364 132.853 240.291C132.961 240.219 133.014 240.111 133.014 239.969V239.943C133.014 239.667 132.927 239.453 132.753 239.302C132.581 239.151 132.337 239.076 132.021 239.076C131.687 239.076 131.421 239.15 131.224 239.298C131.026 239.443 130.895 239.626 130.831 239.847L129.115 239.707C129.202 239.301 129.373 238.949 129.629 238.653C129.885 238.354 130.214 238.124 130.618 237.965C131.025 237.802 131.495 237.721 132.03 237.721C132.401 237.721 132.757 237.764 133.097 237.851C133.44 237.938 133.743 238.074 134.008 238.257C134.275 238.44 134.485 238.675 134.639 238.962C134.793 239.247 134.87 239.588 134.87 239.986V244.5H133.11V243.572H133.058C132.95 243.781 132.807 243.966 132.627 244.125C132.446 244.282 132.23 244.406 131.977 244.496C131.725 244.583 131.433 244.626 131.102 244.626ZM131.633 243.345C131.906 243.345 132.147 243.292 132.356 243.184C132.566 243.074 132.73 242.926 132.849 242.74C132.968 242.554 133.027 242.343 133.027 242.108V241.398C132.969 241.436 132.889 241.47 132.788 241.502C132.689 241.531 132.577 241.559 132.452 241.585C132.327 241.608 132.202 241.63 132.078 241.651C131.953 241.668 131.839 241.684 131.738 241.698C131.52 241.73 131.33 241.781 131.167 241.851C131.004 241.921 130.878 242.015 130.788 242.134C130.698 242.25 130.653 242.396 130.653 242.57C130.653 242.823 130.744 243.016 130.927 243.149C131.113 243.28 131.348 243.345 131.633 243.345ZM138.166 240.631V244.5H136.31V237.808H138.079V238.988H138.158C138.306 238.599 138.554 238.291 138.903 238.065C139.251 237.835 139.674 237.721 140.171 237.721C140.635 237.721 141.04 237.822 141.386 238.026C141.732 238.229 142 238.519 142.192 238.897C142.384 239.272 142.48 239.719 142.48 240.239V244.5H140.624V240.57C140.627 240.16 140.522 239.841 140.31 239.612C140.098 239.379 139.806 239.263 139.434 239.263C139.184 239.263 138.964 239.317 138.772 239.424C138.583 239.532 138.435 239.688 138.328 239.895C138.223 240.098 138.169 240.343 138.166 240.631ZM146.958 247.149C146.356 247.149 145.841 247.066 145.411 246.901C144.984 246.738 144.644 246.516 144.391 246.234C144.139 245.952 143.975 245.636 143.899 245.284L145.616 245.053C145.668 245.187 145.751 245.312 145.864 245.428C145.977 245.544 146.127 245.637 146.313 245.707C146.502 245.779 146.731 245.816 147.001 245.816C147.405 245.816 147.737 245.717 147.999 245.52C148.263 245.325 148.395 244.998 148.395 244.539V243.315H148.317C148.236 243.501 148.114 243.677 147.951 243.842C147.788 244.008 147.579 244.143 147.324 244.247C147.068 244.352 146.763 244.404 146.409 244.404C145.906 244.404 145.449 244.288 145.036 244.056C144.627 243.82 144.3 243.462 144.056 242.979C143.815 242.494 143.694 241.881 143.694 241.141C143.694 240.383 143.818 239.749 144.065 239.241C144.311 238.733 144.64 238.352 145.049 238.1C145.462 237.847 145.913 237.721 146.404 237.721C146.779 237.721 147.093 237.785 147.345 237.912C147.598 238.037 147.801 238.194 147.955 238.383C148.112 238.569 148.233 238.752 148.317 238.932H148.387V237.808H150.23V244.565C150.23 245.135 150.09 245.611 149.811 245.994C149.533 246.378 149.146 246.665 148.652 246.857C148.162 247.052 147.597 247.149 146.958 247.149ZM146.997 243.01C147.296 243.01 147.549 242.936 147.755 242.788C147.964 242.637 148.124 242.422 148.234 242.143C148.347 241.861 148.404 241.524 148.404 241.132C148.404 240.74 148.349 240.4 148.238 240.113C148.128 239.822 147.968 239.597 147.759 239.437C147.55 239.277 147.296 239.198 146.997 239.198C146.692 239.198 146.435 239.28 146.226 239.446C146.016 239.609 145.858 239.835 145.751 240.126C145.643 240.416 145.589 240.752 145.589 241.132C145.589 241.518 145.643 241.852 145.751 242.134C145.861 242.413 146.019 242.629 146.226 242.783C146.435 242.934 146.692 243.01 146.997 243.01ZM154.756 244.631C154.068 244.631 153.476 244.491 152.979 244.212C152.485 243.931 152.105 243.533 151.837 243.019C151.57 242.502 151.436 241.89 151.436 241.184C151.436 240.496 151.57 239.892 151.837 239.372C152.105 238.852 152.481 238.447 152.966 238.156C153.454 237.866 154.026 237.721 154.682 237.721C155.124 237.721 155.535 237.792 155.915 237.934C156.299 238.074 156.633 238.284 156.918 238.566C157.205 238.848 157.429 239.202 157.588 239.629C157.748 240.053 157.828 240.55 157.828 241.119V241.629H152.177V240.479H156.081C156.081 240.211 156.023 239.975 155.907 239.768C155.791 239.562 155.629 239.401 155.423 239.285C155.22 239.166 154.983 239.106 154.713 239.106C154.431 239.106 154.181 239.171 153.964 239.302C153.749 239.43 153.58 239.603 153.458 239.821C153.336 240.036 153.274 240.275 153.271 240.54V241.633C153.271 241.964 153.332 242.25 153.454 242.491C153.579 242.733 153.754 242.918 153.981 243.049C154.207 243.18 154.476 243.245 154.787 243.245C154.993 243.245 155.182 243.216 155.353 243.158C155.525 243.1 155.671 243.013 155.793 242.897C155.915 242.78 156.008 242.638 156.072 242.47L157.789 242.583C157.702 242.995 157.523 243.356 157.253 243.663C156.986 243.968 156.64 244.207 156.216 244.378C155.795 244.546 155.308 244.631 154.756 244.631ZM164.608 239.716L162.908 239.821C162.879 239.675 162.817 239.545 162.721 239.429C162.625 239.309 162.499 239.215 162.342 239.145C162.188 239.073 162.004 239.036 161.789 239.036C161.501 239.036 161.258 239.097 161.061 239.219C160.863 239.338 160.765 239.498 160.765 239.699C160.765 239.858 160.829 239.993 160.956 240.104C161.084 240.214 161.303 240.303 161.614 240.37L162.826 240.614C163.476 240.747 163.961 240.962 164.281 241.258C164.6 241.555 164.76 241.944 164.76 242.426C164.76 242.865 164.631 243.25 164.372 243.581C164.117 243.912 163.765 244.17 163.318 244.356C162.873 244.539 162.361 244.631 161.78 244.631C160.894 244.631 160.188 244.446 159.662 244.077C159.14 243.706 158.833 243.2 158.743 242.561L160.569 242.465C160.624 242.735 160.757 242.942 160.969 243.084C161.181 243.223 161.453 243.293 161.784 243.293C162.11 243.293 162.371 243.231 162.568 243.106C162.769 242.978 162.871 242.814 162.873 242.613C162.871 242.445 162.799 242.307 162.66 242.2C162.521 242.089 162.306 242.005 162.015 241.947L160.856 241.716C160.203 241.585 159.716 241.359 159.397 241.036C159.08 240.714 158.922 240.303 158.922 239.803C158.922 239.373 159.038 239.003 159.27 238.692C159.506 238.381 159.835 238.142 160.259 237.973C160.686 237.805 161.186 237.721 161.758 237.721C162.603 237.721 163.268 237.899 163.754 238.257C164.242 238.614 164.526 239.1 164.608 239.716Z" fill="white"/>
</g>
<defs>
<filter id="filter0_dd_1216_252656" x="23.9111" y="69.2417" width="352.178" height="234.694" filterUnits="userSpaceOnUse" color-interpolation-filters="sRGB">
<feFlood flood-opacity="0" result="BackgroundImageFix"/>
<feColorMatrix in="SourceAlpha" type="matrix" values="0 0 0 0 0 0 0 0 0 0 0 0 0 0 0 0 0 0 127 0" result="hardAlpha"/>
<feMorphology radius="2.09815" operator="erode" in="SourceAlpha" result="effect1_dropShadow_1216_252656"/>
<feOffset dy="4.19629"/>
<feGaussianBlur stdDeviation="3.14722"/>
<feComposite in2="hardAlpha" operator="out"/>
<feColorMatrix type="matrix" values="0 0 0 0 0 0 0 0 0 0 0 0 0 0 0 0 0 0 0.03 0"/>
<feBlend mode="normal" in2="BackgroundImageFix" result="effect1_dropShadow_1216_252656"/>
<feColorMatrix in="SourceAlpha" type="matrix" values="0 0 0 0 0 0 0 0 0 0 0 0 0 0 0 0 0 0 127 0" result="hardAlpha"/>
<feMorphology radius="4.19629" operator="erode" in="SourceAlpha" result="effect2_dropShadow_1216_252656"/>
<feOffset dy="12.5889"/>
<feGaussianBlur stdDeviation="8.39259"/>
<feComposite in2="hardAlpha" operator="out"/>
<feColorMatrix type="matrix" values="0 0 0 0 0 0 0 0 0 0 0 0 0 0 0 0 0 0 0.08 0"/>
<feBlend mode="normal" in2="effect1_dropShadow_1216_252656" result="effect2_dropShadow_1216_252656"/>
<feBlend mode="normal" in="SourceGraphic" in2="effect2_dropShadow_1216_252656" result="shape"/>
</filter>
</defs>
</svg>
