<svg width="400" height="348" viewBox="0 0 400 348" fill="none" xmlns="http://www.w3.org/2000/svg">
<g filter="url(#filter0_dd_1216_251880)">
<rect x="36.5" y="34" width="327" height="282.24" rx="9.94677" fill="white"/>
<rect x="37.1217" y="34.6217" width="325.757" height="280.996" rx="9.3251" stroke="#2680C2" stroke-width="1.24335"/>
<path d="M70.3686 69.2534H68.1911C68.1513 68.9717 68.0701 68.7215 67.9474 68.5027C67.8248 68.2806 67.6674 68.0917 67.4751 67.9359C67.2829 67.7802 67.0608 67.6609 66.8089 67.578C66.5604 67.4951 66.2902 67.4537 65.9986 67.4537C65.4716 67.4537 65.0125 67.5846 64.6214 67.8465C64.2304 68.105 63.9271 68.4828 63.7116 68.98C63.4962 69.4738 63.3885 70.0737 63.3885 70.7797C63.3885 71.5055 63.4962 72.1154 63.7116 72.6092C63.9304 73.1031 64.2353 73.476 64.6264 73.7278C65.0175 73.9797 65.4699 74.1057 65.9837 74.1057C66.272 74.1057 66.5388 74.0676 66.7841 73.9913C67.0327 73.9151 67.2531 73.8041 67.4453 73.6582C67.6375 73.5091 67.7966 73.3285 67.9226 73.1163C68.0518 72.9042 68.1413 72.6623 68.1911 72.3905L70.3686 72.4004C70.3123 72.8678 70.1714 73.3185 69.946 73.7527C69.724 74.1836 69.424 74.5697 69.0462 74.9111C68.6716 75.2492 68.2242 75.5176 67.7038 75.7165C67.1868 75.912 66.6018 76.0098 65.9489 76.0098C65.0407 76.0098 64.2287 75.8043 63.5128 75.3933C62.8002 74.9823 62.2367 74.3874 61.8224 73.6085C61.4115 72.8296 61.206 71.8867 61.206 70.7797C61.206 69.6694 61.4148 68.7248 61.8324 67.9459C62.25 67.167 62.8168 66.5737 63.5327 66.1661C64.2486 65.7551 65.054 65.5496 65.9489 65.5496C66.5388 65.5496 67.0857 65.6324 67.5895 65.7982C68.0966 65.9639 68.5457 66.2058 68.9368 66.524C69.3279 66.8389 69.6461 67.225 69.8913 67.6824C70.1399 68.1398 70.299 68.6635 70.3686 69.2534ZM75.3228 76.0198C74.5505 76.0198 73.8827 75.8557 73.3192 75.5276C72.7591 75.1961 72.3266 74.7354 72.0217 74.1455C71.7167 73.5522 71.5643 72.8645 71.5643 72.0823C71.5643 71.2934 71.7167 70.604 72.0217 70.0141C72.3266 69.4208 72.7591 68.9601 73.3192 68.632C73.8827 68.3005 74.5505 68.1348 75.3228 68.1348C76.0951 68.1348 76.7612 68.3005 77.3214 68.632C77.8848 68.9601 78.319 69.4208 78.6239 70.0141C78.9289 70.604 79.0813 71.2934 79.0813 72.0823C79.0813 72.8645 78.9289 73.5522 78.6239 74.1455C78.319 74.7354 77.8848 75.1961 77.3214 75.5276C76.7612 75.8557 76.0951 76.0198 75.3228 76.0198ZM75.3327 74.3791C75.6841 74.3791 75.9774 74.2797 76.2127 74.0808C76.448 73.8787 76.6254 73.6036 76.7447 73.2555C76.8673 72.9075 76.9286 72.5115 76.9286 72.0673C76.9286 71.6232 76.8673 71.2271 76.7447 70.8791C76.6254 70.5311 76.448 70.256 76.2127 70.0538C75.9774 69.8517 75.6841 69.7506 75.3327 69.7506C74.9781 69.7506 74.6798 69.8517 74.4379 70.0538C74.1992 70.256 74.0186 70.5311 73.896 70.8791C73.7766 71.2271 73.717 71.6232 73.717 72.0673C73.717 72.5115 73.7766 72.9075 73.896 73.2555C74.0186 73.6036 74.1992 73.8787 74.4379 74.0808C74.6798 74.2797 74.9781 74.3791 75.3327 74.3791ZM82.5763 71.4558V75.8706H80.4585V68.2342H82.4769V69.5815H82.5664C82.7354 69.1374 83.0188 68.7861 83.4165 68.5276C83.8143 68.2657 84.2965 68.1348 84.8633 68.1348C85.3936 68.1348 85.8559 68.2508 86.2504 68.4828C86.6448 68.7148 86.9513 69.0463 87.1701 69.4771C87.3888 69.9047 87.4982 70.4151 87.4982 71.0084V75.8706H85.3803V71.3862C85.3836 70.9189 85.2643 70.5543 85.0224 70.2925C84.7804 70.0273 84.4473 69.8948 84.0231 69.8948C83.738 69.8948 83.4862 69.9561 83.2674 70.0787C83.052 70.2013 82.8829 70.3803 82.7603 70.6156C82.641 70.8476 82.5797 71.1277 82.5763 71.4558ZM93.2292 68.2342V69.8252H88.6305V68.2342H93.2292ZM89.6745 66.4047H91.7924V73.524C91.7924 73.7196 91.8223 73.872 91.8819 73.9814C91.9416 74.0875 92.0244 74.162 92.1305 74.2051C92.2399 74.2482 92.3658 74.2698 92.5083 74.2698C92.6078 74.2698 92.7072 74.2615 92.8066 74.2449C92.9061 74.225 92.9823 74.2101 93.0353 74.2002L93.3684 75.7761C93.2624 75.8093 93.1132 75.8474 92.921 75.8905C92.7288 75.9369 92.4951 75.9651 92.22 75.975C91.7096 75.9949 91.2621 75.927 90.8777 75.7712C90.4965 75.6154 90.1999 75.3734 89.9877 75.0453C89.7756 74.7172 89.6712 74.3029 89.6745 73.8024V66.4047ZM96.7864 76.0148C96.2992 76.0148 95.865 75.9303 95.4838 75.7612C95.1027 75.5889 94.8011 75.3353 94.579 75.0006C94.3603 74.6625 94.2509 74.2416 94.2509 73.7378C94.2509 73.3136 94.3288 72.9573 94.4846 72.6689C94.6403 72.3805 94.8525 72.1485 95.1209 71.9729C95.3894 71.7972 95.6943 71.6646 96.0357 71.5752C96.3804 71.4857 96.7417 71.4227 97.1195 71.3862C97.5636 71.3398 97.9216 71.2967 98.1934 71.257C98.4651 71.2139 98.6623 71.1509 98.785 71.068C98.9076 70.9852 98.9689 70.8626 98.9689 70.7002V70.6703C98.9689 70.3555 98.8695 70.1118 98.6706 69.9395C98.4751 69.7671 98.1967 69.681 97.8354 69.681C97.4542 69.681 97.151 69.7655 96.9256 69.9345C96.7002 70.1002 96.5511 70.3091 96.4782 70.5609L94.5194 70.4019C94.6188 69.9378 94.8143 69.5368 95.106 69.1987C95.3977 68.8573 95.7739 68.5955 96.2346 68.4132C96.6986 68.2276 97.2355 68.1348 97.8453 68.1348C98.2696 68.1348 98.6756 68.1845 99.0634 68.284C99.4545 68.3834 99.8008 68.5375 100.102 68.7463C100.407 68.9551 100.648 69.2236 100.823 69.5517C100.999 69.8765 101.087 70.266 101.087 70.72V75.8706H99.0783V74.8117H99.0186C98.896 75.0503 98.7319 75.2608 98.5265 75.443C98.321 75.622 98.074 75.7629 97.7857 75.8656C97.4973 75.9651 97.1642 76.0148 96.7864 76.0148ZM97.3929 74.5531C97.7045 74.5531 97.9796 74.4918 98.2182 74.3692C98.4569 74.2432 98.6441 74.0742 98.78 73.8621C98.9159 73.65 98.9838 73.4097 98.9838 73.1412V72.3308C98.9176 72.3739 98.8264 72.4137 98.7104 72.4502C98.5977 72.4833 98.4701 72.5148 98.3276 72.5446C98.1851 72.5711 98.0426 72.596 97.9 72.6192C97.7575 72.6391 97.6283 72.6573 97.5123 72.6739C97.2637 72.7103 97.0466 72.7683 96.861 72.8479C96.6754 72.9274 96.5312 73.0351 96.4284 73.171C96.3257 73.3036 96.2743 73.4693 96.2743 73.6682C96.2743 73.9565 96.3787 74.177 96.5875 74.3294C96.7997 74.4786 97.0681 74.5531 97.3929 74.5531ZM106.18 76.0198C105.398 76.0198 104.725 75.854 104.162 75.5226C103.602 75.1878 103.171 74.7238 102.869 74.1305C102.571 73.5373 102.422 72.8545 102.422 72.0823C102.422 71.3001 102.573 70.614 102.874 70.024C103.179 69.4307 103.612 68.9684 104.172 68.6369C104.732 68.3022 105.398 68.1348 106.17 68.1348C106.836 68.1348 107.42 68.2558 107.92 68.4977C108.421 68.7397 108.817 69.0794 109.108 69.5169C109.4 69.9544 109.561 70.4681 109.591 71.0581H107.592C107.536 70.6769 107.387 70.3704 107.145 70.1384C106.906 69.903 106.593 69.7854 106.205 69.7854C105.877 69.7854 105.59 69.8749 105.345 70.0538C105.103 70.2295 104.914 70.4864 104.778 70.8244C104.642 71.1625 104.574 71.5718 104.574 72.0524C104.574 72.5396 104.641 72.9539 104.773 73.2953C104.909 73.6367 105.1 73.8969 105.345 74.0759C105.59 74.2548 105.877 74.3443 106.205 74.3443C106.447 74.3443 106.664 74.2946 106.856 74.1952C107.052 74.0957 107.213 73.9516 107.339 73.7627C107.468 73.5704 107.552 73.3401 107.592 73.0716H109.591C109.558 73.6549 109.398 74.1687 109.113 74.6128C108.832 75.0536 108.442 75.3983 107.945 75.6469C107.448 75.8955 106.86 76.0198 106.18 76.0198ZM115.009 68.2342V69.8252H110.41V68.2342H115.009ZM111.454 66.4047H113.572V73.524C113.572 73.7196 113.602 73.872 113.661 73.9814C113.721 74.0875 113.804 74.162 113.91 74.2051C114.019 74.2482 114.145 74.2698 114.288 74.2698C114.387 74.2698 114.487 74.2615 114.586 74.2449C114.685 74.225 114.762 74.2101 114.815 74.2002L115.148 75.7761C115.042 75.8093 114.893 75.8474 114.7 75.8905C114.508 75.9369 114.274 75.9651 113.999 75.975C113.489 75.9949 113.041 75.927 112.657 75.7712C112.276 75.6154 111.979 75.3734 111.767 75.0453C111.555 74.7172 111.451 74.3029 111.454 73.8024V66.4047ZM122.646 70.4118L120.707 70.5311C120.674 70.3654 120.603 70.2162 120.493 70.0837C120.384 69.9478 120.24 69.8401 120.061 69.7605C119.885 69.6777 119.675 69.6362 119.43 69.6362C119.101 69.6362 118.825 69.7058 118.599 69.845C118.374 69.9809 118.261 70.1632 118.261 70.3919C118.261 70.5742 118.334 70.7283 118.48 70.8543C118.626 70.9802 118.876 71.0813 119.231 71.1575L120.613 71.4359C121.355 71.5884 121.909 71.8337 122.273 72.1717C122.638 72.5098 122.82 72.9539 122.82 73.5041C122.82 74.0046 122.673 74.4438 122.378 74.8216C122.086 75.1994 121.685 75.4944 121.175 75.7065C120.667 75.9153 120.082 76.0198 119.42 76.0198C118.409 76.0198 117.603 75.8093 117.003 75.3884C116.407 74.9641 116.057 74.3874 115.954 73.6582L118.037 73.5489C118.1 73.8571 118.253 74.0924 118.495 74.2548C118.737 74.4139 119.047 74.4935 119.425 74.4935C119.796 74.4935 120.094 74.4222 120.319 74.2797C120.548 74.1339 120.664 73.9466 120.667 73.7179C120.664 73.5257 120.583 73.3682 120.424 73.2456C120.265 73.1197 120.019 73.0235 119.688 72.9573L118.366 72.6938C117.62 72.5446 117.065 72.2861 116.7 71.9182C116.339 71.5503 116.158 71.0813 116.158 70.5112C116.158 70.0207 116.291 69.5981 116.556 69.2435C116.824 68.8888 117.201 68.6154 117.684 68.4232C118.172 68.2309 118.742 68.1348 119.395 68.1348C120.359 68.1348 121.118 68.3386 121.672 68.7463C122.229 69.154 122.553 69.7091 122.646 70.4118ZM129.572 76.0148C129.084 76.0148 128.65 75.9303 128.269 75.7612C127.888 75.5889 127.586 75.3353 127.364 75.0006C127.145 74.6625 127.036 74.2416 127.036 73.7378C127.036 73.3136 127.114 72.9573 127.27 72.6689C127.425 72.3805 127.638 72.1485 127.906 71.9729C128.175 71.7972 128.479 71.6646 128.821 71.5752C129.166 71.4857 129.527 71.4227 129.905 71.3862C130.349 71.3398 130.707 71.2967 130.979 71.257C131.25 71.2139 131.448 71.1509 131.57 71.068C131.693 70.9852 131.754 70.8626 131.754 70.7002V70.6703C131.754 70.3555 131.655 70.1118 131.456 69.9395C131.26 69.7671 130.982 69.681 130.621 69.681C130.239 69.681 129.936 69.7655 129.711 69.9345C129.485 70.1002 129.336 70.3091 129.263 70.5609L127.305 70.4019C127.404 69.9378 127.599 69.5368 127.891 69.1987C128.183 68.8573 128.559 68.5955 129.02 68.4132C129.484 68.2276 130.021 68.1348 130.631 68.1348C131.055 68.1348 131.461 68.1845 131.849 68.284C132.24 68.3834 132.586 68.5375 132.888 68.7463C133.193 68.9551 133.433 69.2236 133.608 69.5517C133.784 69.8765 133.872 70.266 133.872 70.72V75.8706H131.863V74.8117H131.804C131.681 75.0503 131.517 75.2608 131.312 75.443C131.106 75.622 130.859 75.7629 130.571 75.8656C130.282 75.9651 129.949 76.0148 129.572 76.0148ZM130.178 74.5531C130.49 74.5531 130.765 74.4918 131.003 74.3692C131.242 74.2432 131.429 74.0742 131.565 73.8621C131.701 73.65 131.769 73.4097 131.769 73.1412V72.3308C131.703 72.3739 131.612 72.4137 131.496 72.4502C131.383 72.4833 131.255 72.5148 131.113 72.5446C130.97 72.5711 130.828 72.596 130.685 72.6192C130.543 72.6391 130.413 72.6573 130.297 72.6739C130.049 72.7103 129.832 72.7683 129.646 72.8479C129.461 72.9274 129.316 73.0351 129.214 73.171C129.111 73.3036 129.059 73.4693 129.059 73.6682C129.059 73.9565 129.164 74.177 129.373 74.3294C129.585 74.4786 129.853 74.5531 130.178 74.5531ZM137.633 71.4558V75.8706H135.515V68.2342H137.534V69.5815H137.623C137.792 69.1374 138.075 68.7861 138.473 68.5276C138.871 68.2657 139.353 68.1348 139.92 68.1348C140.45 68.1348 140.913 68.2508 141.307 68.4828C141.701 68.7148 142.008 69.0463 142.227 69.4771C142.445 69.9047 142.555 70.4151 142.555 71.0084V75.8706H140.437V71.3862C140.44 70.9189 140.321 70.5543 140.079 70.2925C139.837 70.0273 139.504 69.8948 139.08 69.8948C138.795 69.8948 138.543 69.9561 138.324 70.0787C138.109 70.2013 137.94 70.3803 137.817 70.6156C137.698 70.8476 137.636 71.1277 137.633 71.4558ZM147.038 75.9949C146.458 75.9949 145.933 75.8457 145.462 75.5475C144.995 75.2458 144.623 74.8034 144.348 74.22C144.077 73.6334 143.941 72.9142 143.941 72.0624C143.941 71.1874 144.082 70.4599 144.363 69.8798C144.645 69.2965 145.02 68.8607 145.487 68.5723C145.958 68.2806 146.473 68.1348 147.033 68.1348C147.461 68.1348 147.817 68.2077 148.102 68.3536C148.39 68.4961 148.622 68.6751 148.798 68.8905C148.977 69.1026 149.113 69.3114 149.206 69.5169H149.27V65.6888H151.383V75.8706H149.295V74.6476H149.206C149.106 74.8597 148.965 75.0702 148.783 75.279C148.604 75.4845 148.37 75.6552 148.082 75.7911C147.797 75.927 147.449 75.9949 147.038 75.9949ZM147.709 74.3095C148.051 74.3095 148.339 74.2167 148.574 74.0311C148.813 73.8422 148.995 73.5787 149.121 73.2406C149.25 72.9026 149.315 72.5065 149.315 72.0524C149.315 71.5984 149.252 71.2039 149.126 70.8692C149 70.5344 148.818 70.2759 148.579 70.0936C148.341 69.9113 148.051 69.8202 147.709 69.8202C147.361 69.8202 147.068 69.9146 146.829 70.1036C146.591 70.2925 146.41 70.5543 146.287 70.8891C146.165 71.2238 146.103 71.6116 146.103 72.0524C146.103 72.4966 146.165 72.8893 146.287 73.2307C146.413 73.5688 146.594 73.8339 146.829 74.0261C147.068 74.2151 147.361 74.3095 147.709 74.3095ZM159.815 76.0198C159.033 76.0198 158.36 75.854 157.797 75.5226C157.236 75.1878 156.806 74.7238 156.504 74.1305C156.206 73.5373 156.056 72.8545 156.056 72.0823C156.056 71.3001 156.207 70.614 156.509 70.024C156.814 69.4307 157.246 68.9684 157.806 68.6369C158.367 68.3022 159.033 68.1348 159.805 68.1348C160.471 68.1348 161.055 68.2558 161.555 68.4977C162.056 68.7397 162.452 69.0794 162.743 69.5169C163.035 69.9544 163.196 70.4681 163.225 71.0581H161.227C161.171 70.6769 161.021 70.3704 160.779 70.1384C160.541 69.903 160.228 69.7854 159.84 69.7854C159.512 69.7854 159.225 69.8749 158.98 70.0538C158.738 70.2295 158.549 70.4864 158.413 70.8244C158.277 71.1625 158.209 71.5718 158.209 72.0524C158.209 72.5396 158.275 72.9539 158.408 73.2953C158.544 73.6367 158.734 73.8969 158.98 74.0759C159.225 74.2548 159.512 74.3443 159.84 74.3443C160.082 74.3443 160.299 74.2946 160.491 74.1952C160.687 74.0957 160.847 73.9516 160.973 73.7627C161.103 73.5704 161.187 73.3401 161.227 73.0716H163.225C163.192 73.6549 163.033 74.1687 162.748 74.6128C162.467 75.0536 162.077 75.3983 161.58 75.6469C161.083 75.8955 160.494 76.0198 159.815 76.0198ZM168.032 76.0198C167.26 76.0198 166.592 75.8557 166.028 75.5276C165.468 75.1961 165.036 74.7354 164.731 74.1455C164.426 73.5522 164.273 72.8645 164.273 72.0823C164.273 71.2934 164.426 70.604 164.731 70.0141C165.036 69.4208 165.468 68.9601 166.028 68.632C166.592 68.3005 167.26 68.1348 168.032 68.1348C168.804 68.1348 169.47 68.3005 170.03 68.632C170.594 68.9601 171.028 69.4208 171.333 70.0141C171.638 70.604 171.79 71.2934 171.79 72.0823C171.79 72.8645 171.638 73.5522 171.333 74.1455C171.028 74.7354 170.594 75.1961 170.03 75.5276C169.47 75.8557 168.804 76.0198 168.032 76.0198ZM168.042 74.3791C168.393 74.3791 168.686 74.2797 168.922 74.0808C169.157 73.8787 169.334 73.6036 169.454 73.2555C169.576 72.9075 169.638 72.5115 169.638 72.0673C169.638 71.6232 169.576 71.2271 169.454 70.8791C169.334 70.5311 169.157 70.256 168.922 70.0538C168.686 69.8517 168.393 69.7506 168.042 69.7506C167.687 69.7506 167.389 69.8517 167.147 70.0538C166.908 70.256 166.728 70.5311 166.605 70.8791C166.486 71.2271 166.426 71.6232 166.426 72.0673C166.426 72.5115 166.486 72.9075 166.605 73.2555C166.728 73.6036 166.908 73.8787 167.147 74.0808C167.389 74.2797 167.687 74.3791 168.042 74.3791ZM173.167 75.8706V68.2342H175.186V69.5815H175.275C175.434 69.1341 175.7 68.7811 176.071 68.5226C176.442 68.2641 176.886 68.1348 177.403 68.1348C177.927 68.1348 178.373 68.2657 178.741 68.5276C179.108 68.7861 179.354 69.1374 179.476 69.5815H179.556C179.712 69.144 179.993 68.7944 180.401 68.5325C180.812 68.2674 181.298 68.1348 181.858 68.1348C182.57 68.1348 183.149 68.3618 183.593 68.8159C184.04 69.2667 184.264 69.9064 184.264 70.735V75.8706H182.151V71.1526C182.151 70.7283 182.038 70.4101 181.813 70.198C181.588 69.9859 181.306 69.8798 180.968 69.8798C180.583 69.8798 180.283 70.0025 180.068 70.2477C179.853 70.4897 179.745 70.8095 179.745 71.2073V75.8706H177.692V71.1078C177.692 70.7333 177.584 70.435 177.368 70.2129C177.156 69.9909 176.876 69.8798 176.528 69.8798C176.293 69.8798 176.081 69.9395 175.892 70.0588C175.706 70.1748 175.559 70.3389 175.449 70.551C175.34 70.7598 175.285 71.0051 175.285 71.2868V75.8706H173.167ZM185.937 78.7342V68.2342H188.025V69.5169H188.119C188.212 69.3114 188.347 69.1026 188.522 68.8905C188.701 68.6751 188.933 68.4961 189.218 68.3536C189.507 68.2077 189.865 68.1348 190.292 68.1348C190.849 68.1348 191.363 68.2806 191.833 68.5723C192.304 68.8607 192.68 69.2965 192.962 69.8798C193.244 70.4599 193.384 71.1874 193.384 72.0624C193.384 72.9142 193.247 73.6334 192.972 74.22C192.7 74.8034 192.329 75.2458 191.858 75.5475C191.391 75.8457 190.867 75.9949 190.287 75.9949C189.876 75.9949 189.526 75.927 189.238 75.7911C188.953 75.6552 188.719 75.4845 188.537 75.279C188.355 75.0702 188.216 74.8597 188.119 74.6476H188.055V78.7342H185.937ZM188.01 72.0524C188.01 72.5065 188.073 72.9026 188.199 73.2406C188.325 73.5787 188.507 73.8422 188.746 74.0311C188.985 74.2167 189.275 74.3095 189.616 74.3095C189.961 74.3095 190.252 74.2151 190.491 74.0261C190.73 73.8339 190.91 73.5688 191.033 73.2307C191.159 72.8893 191.222 72.4966 191.222 72.0524C191.222 71.6116 191.16 71.2238 191.038 70.8891C190.915 70.5543 190.735 70.2925 190.496 70.1036C190.257 69.9146 189.964 69.8202 189.616 69.8202C189.271 69.8202 188.98 69.9113 188.741 70.0936C188.506 70.2759 188.325 70.5344 188.199 70.8692C188.073 71.2039 188.01 71.5984 188.01 72.0524ZM196.974 76.0148C196.487 76.0148 196.052 75.9303 195.671 75.7612C195.29 75.5889 194.989 75.3353 194.767 75.0006C194.548 74.6625 194.438 74.2416 194.438 73.7378C194.438 73.3136 194.516 72.9573 194.672 72.6689C194.828 72.3805 195.04 72.1485 195.308 71.9729C195.577 71.7972 195.882 71.6646 196.223 71.5752C196.568 71.4857 196.929 71.4227 197.307 71.3862C197.751 71.3398 198.109 71.2967 198.381 71.257C198.653 71.2139 198.85 71.1509 198.972 71.068C199.095 70.9852 199.156 70.8626 199.156 70.7002V70.6703C199.156 70.3555 199.057 70.1118 198.858 69.9395C198.663 69.7671 198.384 69.681 198.023 69.681C197.642 69.681 197.338 69.7655 197.113 69.9345C196.888 70.1002 196.739 70.3091 196.666 70.5609L194.707 70.4019C194.806 69.9378 195.002 69.5368 195.294 69.1987C195.585 68.8573 195.961 68.5955 196.422 68.4132C196.886 68.2276 197.423 68.1348 198.033 68.1348C198.457 68.1348 198.863 68.1845 199.251 68.284C199.642 68.3834 199.988 68.5375 200.29 68.7463C200.595 68.9551 200.835 69.2236 201.011 69.5517C201.186 69.8765 201.274 70.266 201.274 70.72V75.8706H199.266V74.8117H199.206C199.084 75.0503 198.919 75.2608 198.714 75.443C198.508 75.622 198.262 75.7629 197.973 75.8656C197.685 75.9651 197.352 76.0148 196.974 76.0148ZM197.58 74.5531C197.892 74.5531 198.167 74.4918 198.406 74.3692C198.644 74.2432 198.832 74.0742 198.968 73.8621C199.103 73.65 199.171 73.4097 199.171 73.1412V72.3308C199.105 72.3739 199.014 72.4137 198.898 72.4502C198.785 72.4833 198.658 72.5148 198.515 72.5446C198.373 72.5711 198.23 72.596 198.088 72.6192C197.945 72.6391 197.816 72.6573 197.7 72.6739C197.451 72.7103 197.234 72.7683 197.048 72.8479C196.863 72.9274 196.719 73.0351 196.616 73.171C196.513 73.3036 196.462 73.4693 196.462 73.6682C196.462 73.9565 196.566 74.177 196.775 74.3294C196.987 74.4786 197.256 74.5531 197.58 74.5531ZM205.035 71.4558V75.8706H202.917V68.2342H204.936V69.5815H205.025C205.194 69.1374 205.478 68.7861 205.876 68.5276C206.273 68.2657 206.756 68.1348 207.322 68.1348C207.853 68.1348 208.315 68.2508 208.709 68.4828C209.104 68.7148 209.41 69.0463 209.629 69.4771C209.848 69.9047 209.957 70.4151 209.957 71.0084V75.8706H207.839V71.3862C207.843 70.9189 207.723 70.5543 207.481 70.2925C207.239 70.0273 206.906 69.8948 206.482 69.8948C206.197 69.8948 205.945 69.9561 205.726 70.0787C205.511 70.2013 205.342 70.3803 205.219 70.6156C205.1 70.8476 205.039 71.1277 205.035 71.4558ZM211.626 75.8706V68.2342H213.744V75.8706H211.626ZM212.69 67.2499C212.375 67.2499 212.105 67.1455 211.88 66.9367C211.658 66.7245 211.547 66.471 211.547 66.176C211.547 65.8843 211.658 65.6341 211.88 65.4253C212.105 65.2132 212.375 65.1071 212.69 65.1071C213.005 65.1071 213.274 65.2132 213.496 65.4253C213.721 65.6341 213.834 65.8843 213.834 66.176C213.834 66.471 213.721 66.7245 213.496 66.9367C213.274 67.1455 213.005 67.2499 212.69 67.2499ZM218.921 76.0198C218.135 76.0198 217.459 75.8607 216.893 75.5425C216.329 75.221 215.895 74.7669 215.59 74.1803C215.285 73.5903 215.133 72.8926 215.133 72.0872C215.133 71.3017 215.285 70.6123 215.59 70.019C215.895 69.4258 216.324 68.9634 216.878 68.632C217.434 68.3005 218.087 68.1348 218.836 68.1348C219.34 68.1348 219.809 68.216 220.243 68.3784C220.681 68.5375 221.062 68.7778 221.387 69.0993C221.715 69.4208 221.97 69.8252 222.153 70.3124C222.335 70.7963 222.426 71.363 222.426 72.0127V72.5943H215.978V71.2818H220.432C220.432 70.9769 220.366 70.7068 220.233 70.4715C220.101 70.2361 219.917 70.0522 219.682 69.9196C219.45 69.7837 219.18 69.7158 218.871 69.7158C218.55 69.7158 218.265 69.7903 218.016 69.9395C217.771 70.0853 217.579 70.2825 217.439 70.5311C217.3 70.7764 217.229 71.0498 217.226 71.3514V72.5993C217.226 72.9771 217.295 73.3036 217.434 73.5787C217.577 73.8538 217.778 74.0659 218.036 74.2151C218.295 74.3642 218.601 74.4388 218.956 74.4388C219.191 74.4388 219.407 74.4056 219.602 74.3394C219.798 74.2731 219.965 74.1736 220.104 74.0411C220.243 73.9085 220.349 73.7461 220.422 73.5538L222.381 73.6831C222.282 74.1537 222.078 74.5647 221.77 74.9161C221.465 75.2641 221.07 75.5359 220.586 75.7314C220.106 75.9236 219.551 76.0198 218.921 76.0198ZM230.162 70.4118L228.223 70.5311C228.19 70.3654 228.118 70.2162 228.009 70.0837C227.9 69.9478 227.756 69.8401 227.577 69.7605C227.401 69.6777 227.19 69.6362 226.945 69.6362C226.617 69.6362 226.34 69.7058 226.115 69.845C225.89 69.9809 225.777 70.1632 225.777 70.3919C225.777 70.5742 225.85 70.7283 225.996 70.8543C226.141 70.9802 226.392 71.0813 226.746 71.1575L228.128 71.4359C228.871 71.5884 229.424 71.8337 229.789 72.1717C230.153 72.5098 230.336 72.9539 230.336 73.5041C230.336 74.0046 230.188 74.4438 229.893 74.8216C229.602 75.1994 229.201 75.4944 228.69 75.7065C228.183 75.9153 227.598 76.0198 226.935 76.0198C225.924 76.0198 225.119 75.8093 224.519 75.3884C223.922 74.9641 223.573 74.3874 223.47 73.6582L225.553 73.5489C225.616 73.8571 225.769 74.0924 226.01 74.2548C226.252 74.4139 226.562 74.4935 226.94 74.4935C227.311 74.4935 227.61 74.4222 227.835 74.2797C228.064 74.1339 228.18 73.9466 228.183 73.7179C228.18 73.5257 228.099 73.3682 227.939 73.2456C227.78 73.1197 227.535 73.0235 227.204 72.9573L225.881 72.6938C225.135 72.5446 224.58 72.2861 224.216 71.9182C223.854 71.5503 223.674 71.0813 223.674 70.5112C223.674 70.0207 223.806 69.5981 224.072 69.2435C224.34 68.8888 224.716 68.6154 225.2 68.4232C225.687 68.2309 226.257 68.1348 226.91 68.1348C227.875 68.1348 228.634 68.3386 229.187 68.7463C229.744 69.154 230.069 69.7091 230.162 70.4118Z" fill="#486581"/>
<rect x="61" y="99.3706" width="278" height="27.5164" rx="13.7582" fill="white"/>
<rect x="61" y="99.3706" width="278" height="27.5164" rx="13.7582" stroke="#B7D5EB"/>
<path d="M82.1305 116.036C81.8569 115.774 81.5906 115.505 81.3319 115.228C81.1145 115.007 80.9837 114.846 80.9837 114.846L79.3478 114.065C80.0027 113.322 80.3642 112.366 80.3644 111.376C80.3644 109.121 78.5298 107.286 76.2746 107.286C74.0195 107.286 72.1849 109.121 72.1849 111.376C72.1849 113.63 74.0195 115.466 76.2746 115.466C77.3047 115.466 78.2436 115.08 78.9639 114.45L79.7451 116.085C79.7451 116.085 79.9057 116.216 80.1266 116.434C80.3527 116.646 80.6501 116.933 80.9352 117.232L81.7286 118.046L82.0815 118.423L83.3206 117.184L82.9432 116.831C82.7218 116.614 82.4262 116.325 82.1305 116.036ZM76.2746 114.297C74.6639 114.297 73.3534 112.987 73.3534 111.376C73.3534 109.765 74.6639 108.455 76.2746 108.455C77.8854 108.455 79.1959 109.765 79.1959 111.376C79.1959 112.987 77.8854 114.297 76.2746 114.297Z" fill="#93C0E1"/>
<rect x="254.434" y="98.8706" width="85.0656" height="28.5164" rx="14.2582" fill="#2680C2"/>
<path d="M281.083 110.772C281.049 110.421 280.899 110.148 280.635 109.953C280.37 109.758 280.012 109.661 279.558 109.661C279.251 109.661 278.991 109.705 278.779 109.792C278.567 109.876 278.404 109.994 278.291 110.145C278.18 110.296 278.125 110.467 278.125 110.659C278.119 110.819 278.153 110.958 278.225 111.077C278.301 111.196 278.404 111.299 278.535 111.386C278.665 111.471 278.816 111.545 278.988 111.609C279.159 111.67 279.342 111.722 279.537 111.766L280.338 111.957C280.728 112.044 281.085 112.161 281.41 112.306C281.735 112.451 282.017 112.63 282.255 112.842C282.494 113.054 282.678 113.304 282.809 113.591C282.942 113.879 283.011 114.208 283.013 114.58C283.011 115.126 282.871 115.6 282.595 116C282.322 116.398 281.927 116.708 281.41 116.928C280.896 117.146 280.276 117.255 279.55 117.255C278.829 117.255 278.202 117.145 277.668 116.924C277.136 116.703 276.721 116.377 276.421 115.944C276.125 115.508 275.97 114.969 275.955 114.327H277.781C277.801 114.627 277.887 114.876 278.038 115.077C278.192 115.274 278.397 115.424 278.652 115.526C278.911 115.624 279.203 115.674 279.528 115.674C279.847 115.674 280.125 115.627 280.36 115.534C280.598 115.441 280.783 115.312 280.913 115.147C281.044 114.981 281.11 114.791 281.11 114.576C281.11 114.375 281.05 114.207 280.931 114.07C280.815 113.934 280.643 113.818 280.417 113.722C280.193 113.626 279.919 113.539 279.593 113.46L278.622 113.216C277.869 113.033 277.275 112.747 276.84 112.358C276.404 111.969 276.188 111.445 276.191 110.785C276.188 110.245 276.331 109.773 276.622 109.369C276.915 108.965 277.318 108.65 277.829 108.424C278.34 108.197 278.921 108.084 279.572 108.084C280.234 108.084 280.812 108.197 281.306 108.424C281.802 108.65 282.189 108.965 282.465 109.369C282.74 109.773 282.883 110.241 282.892 110.772H281.083ZM287.297 117.26C286.609 117.26 286.017 117.12 285.52 116.841C285.026 116.56 284.646 116.162 284.378 115.648C284.111 115.131 283.977 114.519 283.977 113.813C283.977 113.125 284.111 112.521 284.378 112.001C284.646 111.481 285.022 111.076 285.507 110.785C285.995 110.495 286.567 110.35 287.223 110.35C287.665 110.35 288.076 110.421 288.456 110.563C288.84 110.702 289.174 110.913 289.458 111.195C289.746 111.477 289.97 111.831 290.129 112.258C290.289 112.682 290.369 113.179 290.369 113.748V114.258H284.718V113.107H288.622C288.622 112.84 288.564 112.604 288.448 112.397C288.332 112.191 288.17 112.03 287.964 111.914C287.761 111.795 287.524 111.735 287.254 111.735C286.972 111.735 286.722 111.8 286.504 111.931C286.29 112.059 286.121 112.232 285.999 112.45C285.877 112.664 285.815 112.904 285.812 113.168V114.262C285.812 114.593 285.873 114.879 285.995 115.12C286.12 115.361 286.295 115.547 286.522 115.678C286.748 115.809 287.017 115.874 287.328 115.874C287.534 115.874 287.723 115.845 287.894 115.787C288.066 115.729 288.212 115.642 288.334 115.526C288.456 115.409 288.549 115.267 288.613 115.099L290.33 115.212C290.243 115.624 290.064 115.984 289.794 116.292C289.527 116.597 289.181 116.836 288.757 117.007C288.336 117.175 287.849 117.26 287.297 117.26ZM293.489 117.255C293.062 117.255 292.681 117.181 292.347 117.033C292.013 116.882 291.749 116.66 291.554 116.366C291.362 116.07 291.267 115.701 291.267 115.26C291.267 114.888 291.335 114.576 291.471 114.323C291.608 114.07 291.794 113.867 292.029 113.713C292.264 113.559 292.532 113.443 292.831 113.365C293.133 113.286 293.449 113.231 293.781 113.199C294.17 113.158 294.483 113.121 294.722 113.086C294.96 113.048 295.133 112.993 295.24 112.92C295.348 112.847 295.401 112.74 295.401 112.598V112.572C295.401 112.296 295.314 112.082 295.14 111.931C294.969 111.78 294.725 111.705 294.408 111.705C294.074 111.705 293.808 111.779 293.611 111.927C293.413 112.072 293.282 112.255 293.219 112.476L291.502 112.336C291.589 111.93 291.76 111.578 292.016 111.282C292.272 110.983 292.601 110.753 293.005 110.594C293.412 110.431 293.882 110.35 294.417 110.35C294.788 110.35 295.144 110.393 295.484 110.48C295.827 110.567 296.13 110.702 296.395 110.885C296.662 111.068 296.873 111.304 297.026 111.591C297.18 111.876 297.257 112.217 297.257 112.615V117.129H295.497V116.201H295.445C295.337 116.41 295.194 116.594 295.014 116.754C294.834 116.911 294.617 117.035 294.364 117.125C294.112 117.212 293.82 117.255 293.489 117.255ZM294.02 115.974C294.293 115.974 294.534 115.921 294.743 115.813C294.953 115.703 295.117 115.555 295.236 115.369C295.355 115.183 295.414 114.972 295.414 114.737V114.027C295.356 114.065 295.276 114.099 295.175 114.131C295.076 114.16 294.964 114.188 294.839 114.214C294.714 114.237 294.59 114.259 294.465 114.279C294.34 114.297 294.226 114.313 294.125 114.327C293.907 114.359 293.717 114.41 293.554 114.48C293.391 114.55 293.265 114.644 293.175 114.763C293.085 114.879 293.04 115.025 293.04 115.199C293.04 115.451 293.131 115.645 293.314 115.778C293.5 115.909 293.736 115.974 294.02 115.974ZM298.697 117.129V110.437H300.497V111.604H300.567C300.688 111.189 300.893 110.875 301.181 110.663C301.468 110.448 301.8 110.341 302.174 110.341C302.267 110.341 302.367 110.347 302.475 110.358C302.582 110.37 302.677 110.386 302.758 110.406V112.053C302.671 112.027 302.55 112.004 302.396 111.983C302.242 111.963 302.102 111.953 301.974 111.953C301.701 111.953 301.457 112.012 301.242 112.132C301.03 112.248 300.861 112.41 300.736 112.619C300.614 112.829 300.553 113.07 300.553 113.343V117.129H298.697ZM306.43 117.26C305.744 117.26 305.155 117.114 304.661 116.824C304.17 116.531 303.792 116.124 303.528 115.604C303.267 115.084 303.136 114.486 303.136 113.809C303.136 113.123 303.268 112.522 303.532 112.005C303.8 111.485 304.179 111.08 304.67 110.79C305.161 110.496 305.744 110.35 306.421 110.35C307.005 110.35 307.516 110.456 307.955 110.668C308.393 110.88 308.74 111.177 308.996 111.561C309.252 111.944 309.393 112.394 309.419 112.911H307.667C307.618 112.577 307.487 112.309 307.275 112.105C307.066 111.899 306.791 111.796 306.452 111.796C306.164 111.796 305.913 111.874 305.698 112.031C305.486 112.185 305.32 112.41 305.201 112.707C305.082 113.003 305.023 113.362 305.023 113.783C305.023 114.21 305.081 114.573 305.197 114.872C305.316 115.171 305.483 115.399 305.698 115.556C305.913 115.713 306.164 115.791 306.452 115.791C306.664 115.791 306.854 115.748 307.022 115.661C307.194 115.573 307.335 115.447 307.445 115.282C307.558 115.113 307.632 114.911 307.667 114.676H309.419C309.39 115.187 309.25 115.637 309 116.027C308.754 116.413 308.412 116.715 307.977 116.933C307.541 117.151 307.025 117.26 306.43 117.26ZM312.463 113.26V117.129H310.607V108.206H312.411V111.617H312.489C312.64 111.222 312.884 110.913 313.221 110.689C313.558 110.463 313.981 110.35 314.489 110.35C314.954 110.35 315.359 110.451 315.705 110.654C316.053 110.855 316.323 111.144 316.515 111.522C316.71 111.896 316.806 112.345 316.803 112.868V117.129H314.947V113.199C314.949 112.786 314.845 112.466 314.633 112.236C314.424 112.007 314.13 111.892 313.753 111.892C313.5 111.892 313.276 111.946 313.082 112.053C312.89 112.161 312.739 112.317 312.629 112.524C312.521 112.727 312.466 112.972 312.463 113.26Z" fill="white"/>
<g filter="url(#filter1_d_1216_251880)">
<rect x="60.5" y="145.387" width="279" height="31.7454" rx="3.47895" fill="#FAFCFE" shape-rendering="crispEdges"/>
<rect x="60.7174" y="145.605" width="278.565" height="31.3105" rx="3.26152" stroke="#C9D4DE" stroke-width="0.434869" shape-rendering="crispEdges"/>
<rect x="69.4065" y="153.285" width="15.9492" height="15.9492" rx="7.97461" fill="#B6E0FE"/>
<path d="M77.3799 160.862C78.3342 160.862 79.1078 160.088 79.1078 159.134C79.1078 158.18 78.3342 157.406 77.3799 157.406C76.4257 157.406 75.6521 158.18 75.6521 159.134C75.6521 160.088 76.4257 160.862 77.3799 160.862Z" stroke="#2680C2" stroke-width="0.629301" stroke-linecap="round" stroke-linejoin="round"/>
<path d="M74.6407 165.115H80.1192C80.7263 165.115 81.1939 164.593 80.9105 164.056C80.4934 163.266 79.5427 162.324 77.38 162.324C75.2172 162.324 74.2665 163.266 73.8495 164.056C73.5659 164.593 74.0336 165.115 74.6407 165.115Z" stroke="#2680C2" stroke-width="0.629301" stroke-linecap="round" stroke-linejoin="round"/>
<rect x="94.2622" y="154.587" width="129.473" height="4.67242" rx="2.33621" fill="#D9E2EC"/>
<rect x="94.2622" y="163.26" width="66.582" height="4.67242" rx="2.33621" fill="#D9E2EC"/>
</g>
<g filter="url(#filter2_d_1216_251880)">
<rect x="60.5" y="183.133" width="279" height="31.7454" rx="3.47895" fill="#FAFCFE" shape-rendering="crispEdges"/>
<rect x="60.7174" y="183.35" width="278.565" height="31.3105" rx="3.26152" stroke="#C9D4DE" stroke-width="0.434869" shape-rendering="crispEdges"/>
<rect x="69.4065" y="191.031" width="15.9492" height="15.9492" rx="7.97461" fill="#B6E0FE"/>
<path d="M77.3799 198.608C78.3342 198.608 79.1078 197.834 79.1078 196.88C79.1078 195.925 78.3342 195.152 77.3799 195.152C76.4257 195.152 75.6521 195.925 75.6521 196.88C75.6521 197.834 76.4257 198.608 77.3799 198.608Z" stroke="#2680C2" stroke-width="0.629301" stroke-linecap="round" stroke-linejoin="round"/>
<path d="M74.6407 202.86H80.1192C80.7263 202.86 81.1939 202.338 80.9105 201.802C80.4934 201.012 79.5427 200.069 77.38 200.069C75.2172 200.069 74.2665 201.012 73.8495 201.802C73.5659 202.338 74.0336 202.86 74.6407 202.86Z" stroke="#2680C2" stroke-width="0.629301" stroke-linecap="round" stroke-linejoin="round"/>
<rect x="94.2622" y="192.333" width="129.473" height="4.67242" rx="2.33621" fill="#D9E2EC"/>
<rect x="94.2622" y="201.005" width="66.582" height="4.67242" rx="2.33621" fill="#D9E2EC"/>
</g>
<g filter="url(#filter3_d_1216_251880)">
<rect x="60.5" y="220.878" width="279" height="31.7454" rx="3.47895" fill="#FAFCFE" shape-rendering="crispEdges"/>
<rect x="60.7174" y="221.095" width="278.565" height="31.3105" rx="3.26152" stroke="#C9D4DE" stroke-width="0.434869" shape-rendering="crispEdges"/>
<rect x="69.4065" y="228.776" width="15.9492" height="15.9492" rx="7.97461" fill="#B6E0FE"/>
<path d="M77.3799 236.353C78.3342 236.353 79.1078 235.579 79.1078 234.625C79.1078 233.671 78.3342 232.897 77.3799 232.897C76.4257 232.897 75.6521 233.671 75.6521 234.625C75.6521 235.579 76.4257 236.353 77.3799 236.353Z" stroke="#2680C2" stroke-width="0.629301" stroke-linecap="round" stroke-linejoin="round"/>
<path d="M74.6407 240.606H80.1192C80.7263 240.606 81.1939 240.084 80.9105 239.547C80.4934 238.757 79.5427 237.814 77.38 237.814C75.2172 237.814 74.2665 238.757 73.8495 239.547C73.5659 240.084 74.0336 240.606 74.6407 240.606Z" stroke="#2680C2" stroke-width="0.629301" stroke-linecap="round" stroke-linejoin="round"/>
<rect x="94.2622" y="230.078" width="129.473" height="4.67242" rx="2.33621" fill="#D9E2EC"/>
<rect x="94.2622" y="238.75" width="66.582" height="4.67242" rx="2.33621" fill="#D9E2EC"/>
</g>
<g filter="url(#filter4_d_1216_251880)">
<rect x="60.5" y="258.624" width="279" height="31.7454" rx="3.47895" fill="#FAFCFE" shape-rendering="crispEdges"/>
<rect x="60.7174" y="258.841" width="278.565" height="31.3105" rx="3.26152" stroke="#C9D4DE" stroke-width="0.434869" shape-rendering="crispEdges"/>
<rect x="69.4065" y="266.521" width="15.9492" height="15.9492" rx="7.97461" fill="#B6E0FE"/>
<path d="M77.3799 274.098C78.3342 274.098 79.1078 273.325 79.1078 272.37C79.1078 271.416 78.3342 270.643 77.3799 270.643C76.4257 270.643 75.6521 271.416 75.6521 272.37C75.6521 273.325 76.4257 274.098 77.3799 274.098Z" stroke="#2680C2" stroke-width="0.629301" stroke-linecap="round" stroke-linejoin="round"/>
<path d="M74.6407 278.351H80.1192C80.7263 278.351 81.1939 277.829 80.9105 277.292C80.4934 276.503 79.5427 275.56 77.38 275.56C75.2172 275.56 74.2665 276.503 73.8495 277.292C73.5659 277.829 74.0336 278.351 74.6407 278.351Z" stroke="#2680C2" stroke-width="0.629301" stroke-linecap="round" stroke-linejoin="round"/>
<rect x="94.2622" y="267.824" width="129.473" height="4.67242" rx="2.33621" fill="#D9E2EC"/>
<rect x="94.2622" y="276.496" width="66.582" height="4.67242" rx="2.33621" fill="#D9E2EC"/>
</g>
</g>
<defs>
<filter id="filter0_dd_1216_251880" x="23.9111" y="34" width="352.178" height="307.418" filterUnits="userSpaceOnUse" color-interpolation-filters="sRGB">
<feFlood flood-opacity="0" result="BackgroundImageFix"/>
<feColorMatrix in="SourceAlpha" type="matrix" values="0 0 0 0 0 0 0 0 0 0 0 0 0 0 0 0 0 0 127 0" result="hardAlpha"/>
<feMorphology radius="2.09815" operator="erode" in="SourceAlpha" result="effect1_dropShadow_1216_251880"/>
<feOffset dy="4.19629"/>
<feGaussianBlur stdDeviation="3.14722"/>
<feComposite in2="hardAlpha" operator="out"/>
<feColorMatrix type="matrix" values="0 0 0 0 0 0 0 0 0 0 0 0 0 0 0 0 0 0 0.03 0"/>
<feBlend mode="normal" in2="BackgroundImageFix" result="effect1_dropShadow_1216_251880"/>
<feColorMatrix in="SourceAlpha" type="matrix" values="0 0 0 0 0 0 0 0 0 0 0 0 0 0 0 0 0 0 127 0" result="hardAlpha"/>
<feMorphology radius="4.19629" operator="erode" in="SourceAlpha" result="effect2_dropShadow_1216_251880"/>
<feOffset dy="12.5889"/>
<feGaussianBlur stdDeviation="8.39259"/>
<feComposite in2="hardAlpha" operator="out"/>
<feColorMatrix type="matrix" values="0 0 0 0 0 0 0 0 0 0 0 0 0 0 0 0 0 0 0.08 0"/>
<feBlend mode="normal" in2="effect1_dropShadow_1216_251880" result="effect2_dropShadow_1216_251880"/>
<feBlend mode="normal" in="SourceGraphic" in2="effect2_dropShadow_1216_251880" result="shape"/>
</filter>
<filter id="filter1_d_1216_251880" x="59.6303" y="144.952" width="280.739" height="33.4851" filterUnits="userSpaceOnUse" color-interpolation-filters="sRGB">
<feFlood flood-opacity="0" result="BackgroundImageFix"/>
<feColorMatrix in="SourceAlpha" type="matrix" values="0 0 0 0 0 0 0 0 0 0 0 0 0 0 0 0 0 0 127 0" result="hardAlpha"/>
<feOffset dy="0.434869"/>
<feGaussianBlur stdDeviation="0.434869"/>
<feComposite in2="hardAlpha" operator="out"/>
<feColorMatrix type="matrix" values="0 0 0 0 0 0 0 0 0 0 0 0 0 0 0 0 0 0 0.04 0"/>
<feBlend mode="normal" in2="BackgroundImageFix" result="effect1_dropShadow_1216_251880"/>
<feBlend mode="normal" in="SourceGraphic" in2="effect1_dropShadow_1216_251880" result="shape"/>
</filter>
<filter id="filter2_d_1216_251880" x="59.6303" y="182.698" width="280.739" height="33.4851" filterUnits="userSpaceOnUse" color-interpolation-filters="sRGB">
<feFlood flood-opacity="0" result="BackgroundImageFix"/>
<feColorMatrix in="SourceAlpha" type="matrix" values="0 0 0 0 0 0 0 0 0 0 0 0 0 0 0 0 0 0 127 0" result="hardAlpha"/>
<feOffset dy="0.434869"/>
<feGaussianBlur stdDeviation="0.434869"/>
<feComposite in2="hardAlpha" operator="out"/>
<feColorMatrix type="matrix" values="0 0 0 0 0 0 0 0 0 0 0 0 0 0 0 0 0 0 0.04 0"/>
<feBlend mode="normal" in2="BackgroundImageFix" result="effect1_dropShadow_1216_251880"/>
<feBlend mode="normal" in="SourceGraphic" in2="effect1_dropShadow_1216_251880" result="shape"/>
</filter>
<filter id="filter3_d_1216_251880" x="59.6303" y="220.443" width="280.739" height="33.4851" filterUnits="userSpaceOnUse" color-interpolation-filters="sRGB">
<feFlood flood-opacity="0" result="BackgroundImageFix"/>
<feColorMatrix in="SourceAlpha" type="matrix" values="0 0 0 0 0 0 0 0 0 0 0 0 0 0 0 0 0 0 127 0" result="hardAlpha"/>
<feOffset dy="0.434869"/>
<feGaussianBlur stdDeviation="0.434869"/>
<feComposite in2="hardAlpha" operator="out"/>
<feColorMatrix type="matrix" values="0 0 0 0 0 0 0 0 0 0 0 0 0 0 0 0 0 0 0.04 0"/>
<feBlend mode="normal" in2="BackgroundImageFix" result="effect1_dropShadow_1216_251880"/>
<feBlend mode="normal" in="SourceGraphic" in2="effect1_dropShadow_1216_251880" result="shape"/>
</filter>
<filter id="filter4_d_1216_251880" x="59.6303" y="258.189" width="280.739" height="33.4851" filterUnits="userSpaceOnUse" color-interpolation-filters="sRGB">
<feFlood flood-opacity="0" result="BackgroundImageFix"/>
<feColorMatrix in="SourceAlpha" type="matrix" values="0 0 0 0 0 0 0 0 0 0 0 0 0 0 0 0 0 0 127 0" result="hardAlpha"/>
<feOffset dy="0.434869"/>
<feGaussianBlur stdDeviation="0.434869"/>
<feComposite in2="hardAlpha" operator="out"/>
<feColorMatrix type="matrix" values="0 0 0 0 0 0 0 0 0 0 0 0 0 0 0 0 0 0 0.04 0"/>
<feBlend mode="normal" in2="BackgroundImageFix" result="effect1_dropShadow_1216_251880"/>
<feBlend mode="normal" in="SourceGraphic" in2="effect1_dropShadow_1216_251880" result="shape"/>
</filter>
</defs>
</svg>
